%TF.GenerationSoftware,KiCad,Pcbnew,(6.0.10)*%
%TF.CreationDate,2023-03-05T14:49:52+05:30*%
%TF.ProjectId,keyboardv3,6b657962-6f61-4726-9476-332e6b696361,rev?*%
%TF.SameCoordinates,Original*%
%TF.FileFunction,Drillmap*%
%TF.FilePolarity,Positive*%
%FSLAX45Y45*%
G04 Gerber Fmt 4.5, Leading zero omitted, Abs format (unit mm)*
G04 Created by KiCad (PCBNEW (6.0.10)) date 2023-03-05 14:49:52*
%MOMM*%
%LPD*%
G01*
G04 APERTURE LIST*
%ADD10C,0.100000*%
%ADD11C,0.200000*%
%ADD12C,0.040000*%
%ADD13C,0.060000*%
%ADD14C,0.075000*%
%ADD15C,0.092000*%
%ADD16C,0.110000*%
%ADD17C,0.150000*%
%ADD18C,0.220000*%
%ADD19C,0.230000*%
%ADD20C,0.065000*%
%ADD21C,0.090000*%
%ADD22C,0.170000*%
%ADD23C,0.400000*%
G04 APERTURE END LIST*
D10*
X2914000Y-2598000D02*
X12445000Y-2598000D01*
X12445000Y-2598000D02*
X12445000Y-10125000D01*
X12445000Y-10125000D02*
X2914000Y-10125000D01*
X2914000Y-10125000D02*
X2914000Y-2598000D01*
D11*
D12*
X3819000Y-3144000D02*
X3859000Y-3184000D01*
X3859000Y-3144000D02*
X3819000Y-3184000D01*
X4345000Y-3394000D02*
X4385000Y-3434000D01*
X4385000Y-3394000D02*
X4345000Y-3434000D01*
X4596000Y-4792000D02*
X4636000Y-4832000D01*
X4636000Y-4792000D02*
X4596000Y-4832000D01*
X4597000Y-4922000D02*
X4637000Y-4962000D01*
X4637000Y-4922000D02*
X4597000Y-4962000D01*
X4825000Y-3404000D02*
X4865000Y-3444000D01*
X4865000Y-3404000D02*
X4825000Y-3444000D01*
X5186000Y-5364000D02*
X5226000Y-5404000D01*
X5226000Y-5364000D02*
X5186000Y-5404000D01*
X5800000Y-5730000D02*
X5840000Y-5770000D01*
X5840000Y-5730000D02*
X5800000Y-5770000D01*
X5802500Y-3909500D02*
X5842500Y-3949500D01*
X5842500Y-3909500D02*
X5802500Y-3949500D01*
X5814500Y-5324500D02*
X5854500Y-5364500D01*
X5854500Y-5324500D02*
X5814500Y-5364500D01*
X6099000Y-5843000D02*
X6139000Y-5883000D01*
X6139000Y-5843000D02*
X6099000Y-5883000D01*
X6120000Y-5733000D02*
X6160000Y-5773000D01*
X6160000Y-5733000D02*
X6120000Y-5773000D01*
X6199000Y-4973000D02*
X6239000Y-5013000D01*
X6239000Y-4973000D02*
X6199000Y-5013000D01*
X6284000Y-5513950D02*
X6324000Y-5553950D01*
X6324000Y-5513950D02*
X6284000Y-5553950D01*
X6444000Y-5802000D02*
X6484000Y-5842000D01*
X6484000Y-5802000D02*
X6444000Y-5842000D01*
X6458000Y-5439000D02*
X6498000Y-5479000D01*
X6498000Y-5439000D02*
X6458000Y-5479000D01*
X6468069Y-4990931D02*
X6508069Y-5030931D01*
X6508069Y-4990931D02*
X6468069Y-5030931D01*
X6611000Y-4772000D02*
X6651000Y-4812000D01*
X6651000Y-4772000D02*
X6611000Y-4812000D01*
X6649000Y-6119000D02*
X6689000Y-6159000D01*
X6689000Y-6119000D02*
X6649000Y-6159000D01*
X6655000Y-6327000D02*
X6695000Y-6367000D01*
X6695000Y-6327000D02*
X6655000Y-6367000D01*
X6715000Y-4987000D02*
X6755000Y-5027000D01*
X6755000Y-4987000D02*
X6715000Y-5027000D01*
X6851000Y-6671000D02*
X6891000Y-6711000D01*
X6891000Y-6671000D02*
X6851000Y-6711000D01*
X7069458Y-4741578D02*
X7109458Y-4781578D01*
X7109458Y-4741578D02*
X7069458Y-4781578D01*
X7274000Y-5082000D02*
X7314000Y-5122000D01*
X7314000Y-5082000D02*
X7274000Y-5122000D01*
X7375000Y-5066000D02*
X7415000Y-5106000D01*
X7415000Y-5066000D02*
X7375000Y-5106000D01*
X7450000Y-5280000D02*
X7490000Y-5320000D01*
X7490000Y-5280000D02*
X7450000Y-5320000D01*
X7463000Y-5773000D02*
X7503000Y-5813000D01*
X7503000Y-5773000D02*
X7463000Y-5813000D01*
X7470000Y-5439000D02*
X7510000Y-5479000D01*
X7510000Y-5439000D02*
X7470000Y-5479000D01*
X7491000Y-5169000D02*
X7531000Y-5209000D01*
X7531000Y-5169000D02*
X7491000Y-5209000D01*
X7519000Y-4955000D02*
X7559000Y-4995000D01*
X7559000Y-4955000D02*
X7519000Y-4995000D01*
X7625000Y-6147000D02*
X7665000Y-6187000D01*
X7665000Y-6147000D02*
X7625000Y-6187000D01*
X7648000Y-4927000D02*
X7688000Y-4967000D01*
X7688000Y-4927000D02*
X7648000Y-4967000D01*
X7715000Y-5978000D02*
X7755000Y-6018000D01*
X7755000Y-5978000D02*
X7715000Y-6018000D01*
X7768000Y-5404000D02*
X7808000Y-5444000D01*
X7808000Y-5404000D02*
X7768000Y-5444000D01*
X7991000Y-5948000D02*
X8031000Y-5988000D01*
X8031000Y-5948000D02*
X7991000Y-5988000D01*
X8088000Y-5885000D02*
X8128000Y-5925000D01*
X8128000Y-5885000D02*
X8088000Y-5925000D01*
X8145000Y-4735000D02*
X8185000Y-4775000D01*
X8185000Y-4735000D02*
X8145000Y-4775000D01*
X8152475Y-5530950D02*
X8192475Y-5570950D01*
X8192475Y-5530950D02*
X8152475Y-5570950D01*
X8233000Y-5456000D02*
X8273000Y-5496000D01*
X8273000Y-5456000D02*
X8233000Y-5496000D01*
X8313000Y-5846000D02*
X8353000Y-5886000D01*
X8353000Y-5846000D02*
X8313000Y-5886000D01*
X8313000Y-6677000D02*
X8353000Y-6717000D01*
X8353000Y-6677000D02*
X8313000Y-6717000D01*
X8584000Y-5934000D02*
X8624000Y-5974000D01*
X8624000Y-5934000D02*
X8584000Y-5974000D01*
X9428000Y-6282000D02*
X9468000Y-6322000D01*
X9468000Y-6282000D02*
X9428000Y-6322000D01*
X9553000Y-6141000D02*
X9593000Y-6181000D01*
X9593000Y-6141000D02*
X9553000Y-6181000D01*
X9921000Y-6132000D02*
X9961000Y-6172000D01*
X9961000Y-6132000D02*
X9921000Y-6172000D01*
X9942000Y-5863000D02*
X9982000Y-5903000D01*
X9982000Y-5863000D02*
X9942000Y-5903000D01*
X10238000Y-6715000D02*
X10278000Y-6755000D01*
X10278000Y-6715000D02*
X10238000Y-6755000D01*
X10510000Y-6007000D02*
X10550000Y-6047000D01*
X10550000Y-6007000D02*
X10510000Y-6047000D01*
X10573000Y-6158000D02*
X10613000Y-6198000D01*
X10613000Y-6158000D02*
X10573000Y-6198000D01*
X11343000Y-5408000D02*
X11383000Y-5448000D01*
X11383000Y-5408000D02*
X11343000Y-5448000D01*
X11400000Y-4562000D02*
X11440000Y-4602000D01*
X11440000Y-4562000D02*
X11400000Y-4602000D01*
X11484000Y-6157000D02*
X11524000Y-6197000D01*
X11524000Y-6157000D02*
X11484000Y-6197000D01*
X11588000Y-6358000D02*
X11628000Y-6398000D01*
X11628000Y-6358000D02*
X11588000Y-6398000D01*
X11854000Y-4609000D02*
X11894000Y-4649000D01*
X11894000Y-4609000D02*
X11854000Y-4649000D01*
X12236000Y-7643000D02*
X12276000Y-7683000D01*
X12276000Y-7643000D02*
X12236000Y-7683000D01*
D13*
X4202000Y-2814500D02*
G75*
G03*
X4202000Y-2814500I-30000J0D01*
G01*
D11*
X4202000Y-2854500D02*
X4202000Y-2774500D01*
X4142000Y-2854500D02*
X4142000Y-2774500D01*
X4202000Y-2774500D02*
G75*
G03*
X4142000Y-2774500I-30000J0D01*
G01*
X4142000Y-2854500D02*
G75*
G03*
X4202000Y-2854500I30000J0D01*
G01*
D13*
X4202000Y-3234500D02*
G75*
G03*
X4202000Y-3234500I-30000J0D01*
G01*
D11*
X4202000Y-3289500D02*
X4202000Y-3179500D01*
X4142000Y-3289500D02*
X4142000Y-3179500D01*
X4202000Y-3179500D02*
G75*
G03*
X4142000Y-3179500I-30000J0D01*
G01*
X4142000Y-3289500D02*
G75*
G03*
X4202000Y-3289500I30000J0D01*
G01*
D13*
X5066000Y-2814500D02*
G75*
G03*
X5066000Y-2814500I-30000J0D01*
G01*
D11*
X5066000Y-2854500D02*
X5066000Y-2774500D01*
X5006000Y-2854500D02*
X5006000Y-2774500D01*
X5066000Y-2774500D02*
G75*
G03*
X5006000Y-2774500I-30000J0D01*
G01*
X5006000Y-2854500D02*
G75*
G03*
X5066000Y-2854500I30000J0D01*
G01*
D13*
X5066000Y-3234500D02*
G75*
G03*
X5066000Y-3234500I-30000J0D01*
G01*
D11*
X5066000Y-3289500D02*
X5066000Y-3179500D01*
X5006000Y-3289500D02*
X5006000Y-3179500D01*
X5066000Y-3179500D02*
G75*
G03*
X5006000Y-3179500I-30000J0D01*
G01*
X5006000Y-3289500D02*
G75*
G03*
X5066000Y-3289500I30000J0D01*
G01*
D14*
X6163000Y-8231500D02*
X6163000Y-8306500D01*
X6125500Y-8269000D02*
X6200500Y-8269000D01*
X6163000Y-9247500D02*
X6163000Y-9322500D01*
X6125500Y-9285000D02*
X6200500Y-9285000D01*
X6181000Y-6202500D02*
X6181000Y-6277500D01*
X6143500Y-6240000D02*
X6218500Y-6240000D01*
X6181000Y-7218500D02*
X6181000Y-7293500D01*
X6143500Y-7256000D02*
X6218500Y-7256000D01*
X8056000Y-6306500D02*
X8056000Y-6381500D01*
X8018500Y-6344000D02*
X8093500Y-6344000D01*
X8056000Y-7322500D02*
X8056000Y-7397500D01*
X8018500Y-7360000D02*
X8093500Y-7360000D01*
X8071000Y-8231500D02*
X8071000Y-8306500D01*
X8033500Y-8269000D02*
X8108500Y-8269000D01*
X8071000Y-9247500D02*
X8071000Y-9322500D01*
X8033500Y-9285000D02*
X8108500Y-9285000D01*
X9958000Y-6334500D02*
X9958000Y-6409500D01*
X9920500Y-6372000D02*
X9995500Y-6372000D01*
X9958000Y-7350500D02*
X9958000Y-7425500D01*
X9920500Y-7388000D02*
X9995500Y-7388000D01*
X9966000Y-8216500D02*
X9966000Y-8291500D01*
X9928500Y-8254000D02*
X10003500Y-8254000D01*
X9966000Y-9232500D02*
X9966000Y-9307500D01*
X9928500Y-9270000D02*
X10003500Y-9270000D01*
X11866000Y-8214500D02*
X11866000Y-8289500D01*
X11828500Y-8252000D02*
X11903500Y-8252000D01*
X11866000Y-9230500D02*
X11866000Y-9305500D01*
X11828500Y-9268000D02*
X11903500Y-9268000D01*
X11886000Y-6336500D02*
X11886000Y-6411500D01*
X11848500Y-6374000D02*
X11923500Y-6374000D01*
X11886000Y-7352500D02*
X11886000Y-7427500D01*
X11848500Y-7390000D02*
X11923500Y-7390000D01*
D15*
X4225451Y-4061784D02*
X4225451Y-3996730D01*
X4160396Y-3996730D01*
X4160396Y-4061784D01*
X4225451Y-4061784D01*
X4225451Y-4311784D02*
X4225451Y-4246730D01*
X4160396Y-4246730D01*
X4160396Y-4311784D01*
X4225451Y-4311784D01*
X4225451Y-4511784D02*
X4225451Y-4446730D01*
X4160396Y-4446730D01*
X4160396Y-4511784D01*
X4225451Y-4511784D01*
X4225451Y-4761784D02*
X4225451Y-4696730D01*
X4160396Y-4696730D01*
X4160396Y-4761784D01*
X4225451Y-4761784D01*
X4229527Y-6026527D02*
X4229527Y-5961473D01*
X4164473Y-5961473D01*
X4164473Y-6026527D01*
X4229527Y-6026527D01*
X4229527Y-6276527D02*
X4229527Y-6211473D01*
X4164473Y-6211473D01*
X4164473Y-6276527D01*
X4229527Y-6276527D01*
X4229527Y-6476527D02*
X4229527Y-6411473D01*
X4164473Y-6411473D01*
X4164473Y-6476527D01*
X4229527Y-6476527D01*
X4229527Y-6726527D02*
X4229527Y-6661473D01*
X4164473Y-6661473D01*
X4164473Y-6726527D01*
X4229527Y-6726527D01*
X4260313Y-7977368D02*
X4260313Y-7912313D01*
X4195259Y-7912313D01*
X4195259Y-7977368D01*
X4260313Y-7977368D01*
X4260313Y-8227368D02*
X4260313Y-8162313D01*
X4195259Y-8162313D01*
X4195259Y-8227368D01*
X4260313Y-8227368D01*
X4260313Y-8427368D02*
X4260313Y-8362313D01*
X4195259Y-8362313D01*
X4195259Y-8427368D01*
X4260313Y-8427368D01*
X4260313Y-8677368D02*
X4260313Y-8612313D01*
X4195259Y-8612313D01*
X4195259Y-8677368D01*
X4260313Y-8677368D01*
D10*
X7416000Y-3940500D02*
X7466000Y-3890500D01*
X7416000Y-3840500D01*
X7366000Y-3890500D01*
X7416000Y-3940500D01*
X7670000Y-3940500D02*
X7720000Y-3890500D01*
X7670000Y-3840500D01*
X7620000Y-3890500D01*
X7670000Y-3940500D01*
X10313000Y-3895000D02*
X10363000Y-3845000D01*
X10313000Y-3795000D01*
X10263000Y-3845000D01*
X10313000Y-3895000D01*
X10313000Y-4145000D02*
X10363000Y-4095000D01*
X10313000Y-4045000D01*
X10263000Y-4095000D01*
X10313000Y-4145000D01*
X10313000Y-4395000D02*
X10363000Y-4345000D01*
X10313000Y-4295000D01*
X10263000Y-4345000D01*
X10313000Y-4395000D01*
X11763000Y-3895000D02*
X11813000Y-3845000D01*
X11763000Y-3795000D01*
X11713000Y-3845000D01*
X11763000Y-3895000D01*
X11763000Y-4395000D02*
X11813000Y-4345000D01*
X11763000Y-4295000D01*
X11713000Y-4345000D01*
X11763000Y-4395000D01*
D16*
X4600708Y-4012292D02*
X4710708Y-4122292D01*
X4710708Y-4012292D02*
X4600708Y-4122292D01*
X4710708Y-4067292D02*
G75*
G03*
X4710708Y-4067292I-55000J0D01*
G01*
X4600708Y-4462293D02*
X4710708Y-4572293D01*
X4710708Y-4462293D02*
X4600708Y-4572293D01*
X4710708Y-4517293D02*
G75*
G03*
X4710708Y-4517293I-55000J0D01*
G01*
X5250708Y-4012292D02*
X5360708Y-4122292D01*
X5360708Y-4012292D02*
X5250708Y-4122292D01*
X5360708Y-4067292D02*
G75*
G03*
X5360708Y-4067292I-55000J0D01*
G01*
X5250708Y-4462293D02*
X5360708Y-4572293D01*
X5360708Y-4462293D02*
X5250708Y-4572293D01*
X5360708Y-4517293D02*
G75*
G03*
X5360708Y-4517293I-55000J0D01*
G01*
X6296707Y-4016292D02*
X6406707Y-4126292D01*
X6406707Y-4016292D02*
X6296707Y-4126292D01*
X6406707Y-4071292D02*
G75*
G03*
X6406707Y-4071292I-55000J0D01*
G01*
X6296707Y-4466293D02*
X6406707Y-4576293D01*
X6406707Y-4466293D02*
X6296707Y-4576293D01*
X6406707Y-4521293D02*
G75*
G03*
X6406707Y-4521293I-55000J0D01*
G01*
X6946707Y-4016292D02*
X7056707Y-4126292D01*
X7056707Y-4016292D02*
X6946707Y-4126292D01*
X7056707Y-4071292D02*
G75*
G03*
X7056707Y-4071292I-55000J0D01*
G01*
X6946707Y-4466293D02*
X7056707Y-4576293D01*
X7056707Y-4466293D02*
X6946707Y-4576293D01*
X7056707Y-4521293D02*
G75*
G03*
X7056707Y-4521293I-55000J0D01*
G01*
X7988707Y-4009292D02*
X8098707Y-4119292D01*
X8098707Y-4009292D02*
X7988707Y-4119292D01*
X8098707Y-4064292D02*
G75*
G03*
X8098707Y-4064292I-55000J0D01*
G01*
X7988707Y-4459293D02*
X8098707Y-4569293D01*
X8098707Y-4459293D02*
X7988707Y-4569293D01*
X8098707Y-4514293D02*
G75*
G03*
X8098707Y-4514293I-55000J0D01*
G01*
X8638708Y-4009292D02*
X8748708Y-4119292D01*
X8748708Y-4009292D02*
X8638708Y-4119292D01*
X8748708Y-4064292D02*
G75*
G03*
X8748708Y-4064292I-55000J0D01*
G01*
X8638708Y-4459293D02*
X8748708Y-4569293D01*
X8748708Y-4459293D02*
X8638708Y-4569293D01*
X8748708Y-4514293D02*
G75*
G03*
X8748708Y-4514293I-55000J0D01*
G01*
D17*
X5020000Y-6989000D02*
X5170000Y-7139000D01*
X5170000Y-6989000D02*
X5020000Y-7139000D01*
X5095000Y-6989000D02*
X5095000Y-7139000D01*
X5020000Y-7064000D02*
X5170000Y-7064000D01*
X5020000Y-8899000D02*
X5170000Y-9049000D01*
X5170000Y-8899000D02*
X5020000Y-9049000D01*
X5095000Y-8899000D02*
X5095000Y-9049000D01*
X5020000Y-8974000D02*
X5170000Y-8974000D01*
X5655000Y-6735000D02*
X5805000Y-6885000D01*
X5805000Y-6735000D02*
X5655000Y-6885000D01*
X5730000Y-6735000D02*
X5730000Y-6885000D01*
X5655000Y-6810000D02*
X5805000Y-6810000D01*
X5655000Y-8645000D02*
X5805000Y-8795000D01*
X5805000Y-8645000D02*
X5655000Y-8795000D01*
X5730000Y-8645000D02*
X5730000Y-8795000D01*
X5655000Y-8720000D02*
X5805000Y-8720000D01*
X6911000Y-6991000D02*
X7061000Y-7141000D01*
X7061000Y-6991000D02*
X6911000Y-7141000D01*
X6986000Y-6991000D02*
X6986000Y-7141000D01*
X6911000Y-7066000D02*
X7061000Y-7066000D01*
X6916000Y-8892000D02*
X7066000Y-9042000D01*
X7066000Y-8892000D02*
X6916000Y-9042000D01*
X6991000Y-8892000D02*
X6991000Y-9042000D01*
X6916000Y-8967000D02*
X7066000Y-8967000D01*
X7546000Y-6737000D02*
X7696000Y-6887000D01*
X7696000Y-6737000D02*
X7546000Y-6887000D01*
X7621000Y-6737000D02*
X7621000Y-6887000D01*
X7546000Y-6812000D02*
X7696000Y-6812000D01*
X7551000Y-8638000D02*
X7701000Y-8788000D01*
X7701000Y-8638000D02*
X7551000Y-8788000D01*
X7626000Y-8638000D02*
X7626000Y-8788000D01*
X7551000Y-8713000D02*
X7701000Y-8713000D01*
X8801000Y-6985000D02*
X8951000Y-7135000D01*
X8951000Y-6985000D02*
X8801000Y-7135000D01*
X8876000Y-6985000D02*
X8876000Y-7135000D01*
X8801000Y-7060000D02*
X8951000Y-7060000D01*
X8810000Y-8890000D02*
X8960000Y-9040000D01*
X8960000Y-8890000D02*
X8810000Y-9040000D01*
X8885000Y-8890000D02*
X8885000Y-9040000D01*
X8810000Y-8965000D02*
X8960000Y-8965000D01*
X9436000Y-6731000D02*
X9586000Y-6881000D01*
X9586000Y-6731000D02*
X9436000Y-6881000D01*
X9511000Y-6731000D02*
X9511000Y-6881000D01*
X9436000Y-6806000D02*
X9586000Y-6806000D01*
X9445000Y-8636000D02*
X9595000Y-8786000D01*
X9595000Y-8636000D02*
X9445000Y-8786000D01*
X9520000Y-8636000D02*
X9520000Y-8786000D01*
X9445000Y-8711000D02*
X9595000Y-8711000D01*
X10716000Y-8893000D02*
X10866000Y-9043000D01*
X10866000Y-8893000D02*
X10716000Y-9043000D01*
X10791000Y-8893000D02*
X10791000Y-9043000D01*
X10716000Y-8968000D02*
X10866000Y-8968000D01*
X10721000Y-6983000D02*
X10871000Y-7133000D01*
X10871000Y-6983000D02*
X10721000Y-7133000D01*
X10796000Y-6983000D02*
X10796000Y-7133000D01*
X10721000Y-7058000D02*
X10871000Y-7058000D01*
X10988000Y-3460000D02*
X11138000Y-3610000D01*
X11138000Y-3460000D02*
X10988000Y-3610000D01*
X11063000Y-3460000D02*
X11063000Y-3610000D01*
X10988000Y-3535000D02*
X11138000Y-3535000D01*
D11*
X10998000Y-3610000D02*
X11128000Y-3610000D01*
X10998000Y-3460000D02*
X11128000Y-3460000D01*
X11128000Y-3610000D02*
G75*
G03*
X11128000Y-3460000I0J75000D01*
G01*
X10998000Y-3460000D02*
G75*
G03*
X10998000Y-3610000I0J-75000D01*
G01*
D17*
X10988000Y-4580000D02*
X11138000Y-4730000D01*
X11138000Y-4580000D02*
X10988000Y-4730000D01*
X11063000Y-4580000D02*
X11063000Y-4730000D01*
X10988000Y-4655000D02*
X11138000Y-4655000D01*
D11*
X10998000Y-4730000D02*
X11128000Y-4730000D01*
X10998000Y-4580000D02*
X11128000Y-4580000D01*
X11128000Y-4730000D02*
G75*
G03*
X11128000Y-4580000I0J75000D01*
G01*
X10998000Y-4580000D02*
G75*
G03*
X10998000Y-4730000I0J-75000D01*
G01*
D17*
X11351000Y-8639000D02*
X11501000Y-8789000D01*
X11501000Y-8639000D02*
X11351000Y-8789000D01*
X11426000Y-8639000D02*
X11426000Y-8789000D01*
X11351000Y-8714000D02*
X11501000Y-8714000D01*
X11356000Y-6729000D02*
X11506000Y-6879000D01*
X11506000Y-6729000D02*
X11356000Y-6879000D01*
X11431000Y-6729000D02*
X11431000Y-6879000D01*
X11356000Y-6804000D02*
X11506000Y-6804000D01*
D18*
X3159000Y-9639000D02*
X3379000Y-9859000D01*
X3379000Y-9639000D02*
X3159000Y-9859000D01*
X3346782Y-9826783D02*
X3346782Y-9671218D01*
X3191217Y-9671218D01*
X3191217Y-9826783D01*
X3346782Y-9826783D01*
X3160000Y-2843000D02*
X3380000Y-3063000D01*
X3380000Y-2843000D02*
X3160000Y-3063000D01*
X3347782Y-3030782D02*
X3347782Y-2875217D01*
X3192217Y-2875217D01*
X3192217Y-3030782D01*
X3347782Y-3030782D01*
X11964000Y-9604000D02*
X12184000Y-9824000D01*
X12184000Y-9604000D02*
X11964000Y-9824000D01*
X12151782Y-9791783D02*
X12151782Y-9636218D01*
X11996217Y-9636218D01*
X11996217Y-9791783D01*
X12151782Y-9791783D01*
X11975000Y-2838000D02*
X12195000Y-3058000D01*
X12195000Y-2838000D02*
X11975000Y-3058000D01*
X12162782Y-3025782D02*
X12162782Y-2870217D01*
X12007217Y-2870217D01*
X12007217Y-3025782D01*
X12162782Y-3025782D01*
D19*
X3806923Y-3607257D02*
X4036923Y-3837257D01*
X4036923Y-3607257D02*
X3806923Y-3837257D01*
X3921923Y-3837257D02*
X4036923Y-3722257D01*
X3921923Y-3607257D01*
X3806923Y-3722257D01*
X3921923Y-3837257D01*
X3806923Y-4921257D02*
X4036923Y-5151257D01*
X4036923Y-4921257D02*
X3806923Y-5151257D01*
X3921923Y-5151257D02*
X4036923Y-5036257D01*
X3921923Y-4921257D01*
X3806923Y-5036257D01*
X3921923Y-5151257D01*
X3811000Y-5572000D02*
X4041000Y-5802000D01*
X4041000Y-5572000D02*
X3811000Y-5802000D01*
X3926000Y-5802000D02*
X4041000Y-5687000D01*
X3926000Y-5572000D01*
X3811000Y-5687000D01*
X3926000Y-5802000D01*
X3811000Y-6886000D02*
X4041000Y-7116000D01*
X4041000Y-6886000D02*
X3811000Y-7116000D01*
X3926000Y-7116000D02*
X4041000Y-7001000D01*
X3926000Y-6886000D01*
X3811000Y-7001000D01*
X3926000Y-7116000D01*
X3841786Y-7522840D02*
X4071786Y-7752840D01*
X4071786Y-7522840D02*
X3841786Y-7752840D01*
X3956786Y-7752840D02*
X4071786Y-7637840D01*
X3956786Y-7522840D01*
X3841786Y-7637840D01*
X3956786Y-7752840D01*
X3841786Y-8836841D02*
X4071786Y-9066841D01*
X4071786Y-8836841D02*
X3841786Y-9066841D01*
X3956786Y-9066841D02*
X4071786Y-8951841D01*
X3956786Y-8836841D01*
X3841786Y-8951841D01*
X3956786Y-9066841D01*
D20*
X4315000Y-3150000D02*
X4315000Y-3215000D01*
X4282500Y-3182500D02*
X4347500Y-3182500D01*
X4347500Y-3182500D02*
G75*
G03*
X4347500Y-3182500I-32500J0D01*
G01*
X4893000Y-3150000D02*
X4893000Y-3215000D01*
X4860500Y-3182500D02*
X4925500Y-3182500D01*
X4925500Y-3182500D02*
G75*
G03*
X4925500Y-3182500I-32500J0D01*
G01*
D21*
X12281820Y-3990820D02*
X12281820Y-3927180D01*
X12218180Y-3927180D01*
X12218180Y-3990820D01*
X12281820Y-3990820D01*
X12295000Y-3959000D02*
G75*
G03*
X12295000Y-3959000I-45000J0D01*
G01*
X12281820Y-4290820D02*
X12281820Y-4227180D01*
X12218180Y-4227180D01*
X12218180Y-4290820D01*
X12281820Y-4290820D01*
X12295000Y-4259000D02*
G75*
G03*
X12295000Y-4259000I-45000J0D01*
G01*
D22*
X4841000Y-6641000D02*
X4926000Y-6556000D01*
X4841000Y-6471000D01*
X4756000Y-6556000D01*
X4841000Y-6641000D01*
X4926000Y-6556000D02*
G75*
G03*
X4926000Y-6556000I-85000J0D01*
G01*
X4841000Y-8551000D02*
X4926000Y-8466000D01*
X4841000Y-8381000D01*
X4756000Y-8466000D01*
X4841000Y-8551000D01*
X4926000Y-8466000D02*
G75*
G03*
X4926000Y-8466000I-85000J0D01*
G01*
X5857000Y-6641000D02*
X5942000Y-6556000D01*
X5857000Y-6471000D01*
X5772000Y-6556000D01*
X5857000Y-6641000D01*
X5942000Y-6556000D02*
G75*
G03*
X5942000Y-6556000I-85000J0D01*
G01*
X5857000Y-8551000D02*
X5942000Y-8466000D01*
X5857000Y-8381000D01*
X5772000Y-8466000D01*
X5857000Y-8551000D01*
X5942000Y-8466000D02*
G75*
G03*
X5942000Y-8466000I-85000J0D01*
G01*
X6732000Y-6643000D02*
X6817000Y-6558000D01*
X6732000Y-6473000D01*
X6647000Y-6558000D01*
X6732000Y-6643000D01*
X6817000Y-6558000D02*
G75*
G03*
X6817000Y-6558000I-85000J0D01*
G01*
X6737000Y-8544000D02*
X6822000Y-8459000D01*
X6737000Y-8374000D01*
X6652000Y-8459000D01*
X6737000Y-8544000D01*
X6822000Y-8459000D02*
G75*
G03*
X6822000Y-8459000I-85000J0D01*
G01*
X7748000Y-6643000D02*
X7833000Y-6558000D01*
X7748000Y-6473000D01*
X7663000Y-6558000D01*
X7748000Y-6643000D01*
X7833000Y-6558000D02*
G75*
G03*
X7833000Y-6558000I-85000J0D01*
G01*
X7753000Y-8544000D02*
X7838000Y-8459000D01*
X7753000Y-8374000D01*
X7668000Y-8459000D01*
X7753000Y-8544000D01*
X7838000Y-8459000D02*
G75*
G03*
X7838000Y-8459000I-85000J0D01*
G01*
X8622000Y-6637000D02*
X8707000Y-6552000D01*
X8622000Y-6467000D01*
X8537000Y-6552000D01*
X8622000Y-6637000D01*
X8707000Y-6552000D02*
G75*
G03*
X8707000Y-6552000I-85000J0D01*
G01*
X8631000Y-8542000D02*
X8716000Y-8457000D01*
X8631000Y-8372000D01*
X8546000Y-8457000D01*
X8631000Y-8542000D01*
X8716000Y-8457000D02*
G75*
G03*
X8716000Y-8457000I-85000J0D01*
G01*
X9638000Y-6637000D02*
X9723000Y-6552000D01*
X9638000Y-6467000D01*
X9553000Y-6552000D01*
X9638000Y-6637000D01*
X9723000Y-6552000D02*
G75*
G03*
X9723000Y-6552000I-85000J0D01*
G01*
X9647000Y-8542000D02*
X9732000Y-8457000D01*
X9647000Y-8372000D01*
X9562000Y-8457000D01*
X9647000Y-8542000D01*
X9732000Y-8457000D02*
G75*
G03*
X9732000Y-8457000I-85000J0D01*
G01*
X10537000Y-8545000D02*
X10622000Y-8460000D01*
X10537000Y-8375000D01*
X10452000Y-8460000D01*
X10537000Y-8545000D01*
X10622000Y-8460000D02*
G75*
G03*
X10622000Y-8460000I-85000J0D01*
G01*
X10542000Y-6635000D02*
X10627000Y-6550000D01*
X10542000Y-6465000D01*
X10457000Y-6550000D01*
X10542000Y-6635000D01*
X10627000Y-6550000D02*
G75*
G03*
X10627000Y-6550000I-85000J0D01*
G01*
X11553000Y-8545000D02*
X11638000Y-8460000D01*
X11553000Y-8375000D01*
X11468000Y-8460000D01*
X11553000Y-8545000D01*
X11638000Y-8460000D02*
G75*
G03*
X11638000Y-8460000I-85000J0D01*
G01*
X11558000Y-6635000D02*
X11643000Y-6550000D01*
X11558000Y-6465000D01*
X11473000Y-6550000D01*
X11558000Y-6635000D01*
X11643000Y-6550000D02*
G75*
G03*
X11643000Y-6550000I-85000J0D01*
G01*
D23*
X5349000Y-6356000D02*
X5349000Y-6756000D01*
X5149000Y-6556000D02*
X5549000Y-6556000D01*
X5490423Y-6697423D02*
X5490423Y-6414577D01*
X5207577Y-6414577D01*
X5207577Y-6697423D01*
X5490423Y-6697423D01*
X5349000Y-8266000D02*
X5349000Y-8666000D01*
X5149000Y-8466000D02*
X5549000Y-8466000D01*
X5490423Y-8607423D02*
X5490423Y-8324577D01*
X5207577Y-8324577D01*
X5207577Y-8607423D01*
X5490423Y-8607423D01*
X7240000Y-6358000D02*
X7240000Y-6758000D01*
X7040000Y-6558000D02*
X7440000Y-6558000D01*
X7381423Y-6699423D02*
X7381423Y-6416577D01*
X7098577Y-6416577D01*
X7098577Y-6699423D01*
X7381423Y-6699423D01*
X7245000Y-8259000D02*
X7245000Y-8659000D01*
X7045000Y-8459000D02*
X7445000Y-8459000D01*
X7386423Y-8600423D02*
X7386423Y-8317577D01*
X7103577Y-8317577D01*
X7103577Y-8600423D01*
X7386423Y-8600423D01*
X9130000Y-6352000D02*
X9130000Y-6752000D01*
X8930000Y-6552000D02*
X9330000Y-6552000D01*
X9271423Y-6693423D02*
X9271423Y-6410577D01*
X8988577Y-6410577D01*
X8988577Y-6693423D01*
X9271423Y-6693423D01*
X9139000Y-8257000D02*
X9139000Y-8657000D01*
X8939000Y-8457000D02*
X9339000Y-8457000D01*
X9280423Y-8598423D02*
X9280423Y-8315577D01*
X8997577Y-8315577D01*
X8997577Y-8598423D01*
X9280423Y-8598423D01*
X11045000Y-8260000D02*
X11045000Y-8660000D01*
X10845000Y-8460000D02*
X11245000Y-8460000D01*
X11186423Y-8601423D02*
X11186423Y-8318577D01*
X10903577Y-8318577D01*
X10903577Y-8601423D01*
X11186423Y-8601423D01*
X11050000Y-6350000D02*
X11050000Y-6750000D01*
X10850000Y-6550000D02*
X11250000Y-6550000D01*
X11191423Y-6691423D02*
X11191423Y-6408577D01*
X10908577Y-6408577D01*
X10908577Y-6691423D01*
X11191423Y-6691423D01*
D11*
X3166619Y-10440476D02*
X3166619Y-10240476D01*
X3214238Y-10240476D01*
X3242809Y-10250000D01*
X3261857Y-10269048D01*
X3271381Y-10288095D01*
X3280905Y-10326190D01*
X3280905Y-10354762D01*
X3271381Y-10392857D01*
X3261857Y-10411905D01*
X3242809Y-10430952D01*
X3214238Y-10440476D01*
X3166619Y-10440476D01*
X3366619Y-10440476D02*
X3366619Y-10307143D01*
X3366619Y-10345238D02*
X3376143Y-10326190D01*
X3385667Y-10316667D01*
X3404714Y-10307143D01*
X3423762Y-10307143D01*
X3490428Y-10440476D02*
X3490428Y-10307143D01*
X3490428Y-10240476D02*
X3480905Y-10250000D01*
X3490428Y-10259524D01*
X3499952Y-10250000D01*
X3490428Y-10240476D01*
X3490428Y-10259524D01*
X3614238Y-10440476D02*
X3595190Y-10430952D01*
X3585667Y-10411905D01*
X3585667Y-10240476D01*
X3719000Y-10440476D02*
X3699952Y-10430952D01*
X3690428Y-10411905D01*
X3690428Y-10240476D01*
X3947571Y-10440476D02*
X3947571Y-10240476D01*
X4014238Y-10383333D01*
X4080905Y-10240476D01*
X4080905Y-10440476D01*
X4261857Y-10440476D02*
X4261857Y-10335714D01*
X4252333Y-10316667D01*
X4233286Y-10307143D01*
X4195190Y-10307143D01*
X4176143Y-10316667D01*
X4261857Y-10430952D02*
X4242810Y-10440476D01*
X4195190Y-10440476D01*
X4176143Y-10430952D01*
X4166619Y-10411905D01*
X4166619Y-10392857D01*
X4176143Y-10373810D01*
X4195190Y-10364286D01*
X4242810Y-10364286D01*
X4261857Y-10354762D01*
X4357095Y-10307143D02*
X4357095Y-10507143D01*
X4357095Y-10316667D02*
X4376143Y-10307143D01*
X4414238Y-10307143D01*
X4433286Y-10316667D01*
X4442810Y-10326190D01*
X4452333Y-10345238D01*
X4452333Y-10402381D01*
X4442810Y-10421429D01*
X4433286Y-10430952D01*
X4414238Y-10440476D01*
X4376143Y-10440476D01*
X4357095Y-10430952D01*
X4538048Y-10421429D02*
X4547571Y-10430952D01*
X4538048Y-10440476D01*
X4528524Y-10430952D01*
X4538048Y-10421429D01*
X4538048Y-10440476D01*
X4538048Y-10316667D02*
X4547571Y-10326190D01*
X4538048Y-10335714D01*
X4528524Y-10326190D01*
X4538048Y-10316667D01*
X4538048Y-10335714D01*
D12*
X2869000Y-10750000D02*
X2909000Y-10790000D01*
X2909000Y-10750000D02*
X2869000Y-10790000D01*
D11*
X3204714Y-10660476D02*
X3223762Y-10660476D01*
X3242809Y-10670000D01*
X3252333Y-10679524D01*
X3261857Y-10698571D01*
X3271381Y-10736667D01*
X3271381Y-10784286D01*
X3261857Y-10822381D01*
X3252333Y-10841429D01*
X3242809Y-10850952D01*
X3223762Y-10860476D01*
X3204714Y-10860476D01*
X3185667Y-10850952D01*
X3176143Y-10841429D01*
X3166619Y-10822381D01*
X3157095Y-10784286D01*
X3157095Y-10736667D01*
X3166619Y-10698571D01*
X3176143Y-10679524D01*
X3185667Y-10670000D01*
X3204714Y-10660476D01*
X3357095Y-10841429D02*
X3366619Y-10850952D01*
X3357095Y-10860476D01*
X3347571Y-10850952D01*
X3357095Y-10841429D01*
X3357095Y-10860476D01*
X3538048Y-10727143D02*
X3538048Y-10860476D01*
X3490428Y-10650952D02*
X3442809Y-10793810D01*
X3566619Y-10793810D01*
X3680905Y-10660476D02*
X3699952Y-10660476D01*
X3719000Y-10670000D01*
X3728524Y-10679524D01*
X3738048Y-10698571D01*
X3747571Y-10736667D01*
X3747571Y-10784286D01*
X3738048Y-10822381D01*
X3728524Y-10841429D01*
X3719000Y-10850952D01*
X3699952Y-10860476D01*
X3680905Y-10860476D01*
X3661857Y-10850952D01*
X3652333Y-10841429D01*
X3642809Y-10822381D01*
X3633286Y-10784286D01*
X3633286Y-10736667D01*
X3642809Y-10698571D01*
X3652333Y-10679524D01*
X3661857Y-10670000D01*
X3680905Y-10660476D01*
X3871381Y-10660476D02*
X3890428Y-10660476D01*
X3909476Y-10670000D01*
X3919000Y-10679524D01*
X3928524Y-10698571D01*
X3938048Y-10736667D01*
X3938048Y-10784286D01*
X3928524Y-10822381D01*
X3919000Y-10841429D01*
X3909476Y-10850952D01*
X3890428Y-10860476D01*
X3871381Y-10860476D01*
X3852333Y-10850952D01*
X3842809Y-10841429D01*
X3833286Y-10822381D01*
X3823762Y-10784286D01*
X3823762Y-10736667D01*
X3833286Y-10698571D01*
X3842809Y-10679524D01*
X3852333Y-10670000D01*
X3871381Y-10660476D01*
X4023762Y-10860476D02*
X4023762Y-10727143D01*
X4023762Y-10746190D02*
X4033286Y-10736667D01*
X4052333Y-10727143D01*
X4080905Y-10727143D01*
X4099952Y-10736667D01*
X4109476Y-10755714D01*
X4109476Y-10860476D01*
X4109476Y-10755714D02*
X4119000Y-10736667D01*
X4138048Y-10727143D01*
X4166619Y-10727143D01*
X4185667Y-10736667D01*
X4195190Y-10755714D01*
X4195190Y-10860476D01*
X4290429Y-10860476D02*
X4290429Y-10727143D01*
X4290429Y-10746190D02*
X4299952Y-10736667D01*
X4319000Y-10727143D01*
X4347571Y-10727143D01*
X4366619Y-10736667D01*
X4376143Y-10755714D01*
X4376143Y-10860476D01*
X4376143Y-10755714D02*
X4385667Y-10736667D01*
X4404714Y-10727143D01*
X4433286Y-10727143D01*
X4452333Y-10736667D01*
X4461857Y-10755714D01*
X4461857Y-10860476D01*
X4852333Y-10650952D02*
X4680905Y-10908095D01*
X5109476Y-10660476D02*
X5128524Y-10660476D01*
X5147571Y-10670000D01*
X5157095Y-10679524D01*
X5166619Y-10698571D01*
X5176143Y-10736667D01*
X5176143Y-10784286D01*
X5166619Y-10822381D01*
X5157095Y-10841429D01*
X5147571Y-10850952D01*
X5128524Y-10860476D01*
X5109476Y-10860476D01*
X5090429Y-10850952D01*
X5080905Y-10841429D01*
X5071381Y-10822381D01*
X5061857Y-10784286D01*
X5061857Y-10736667D01*
X5071381Y-10698571D01*
X5080905Y-10679524D01*
X5090429Y-10670000D01*
X5109476Y-10660476D01*
X5261857Y-10841429D02*
X5271381Y-10850952D01*
X5261857Y-10860476D01*
X5252333Y-10850952D01*
X5261857Y-10841429D01*
X5261857Y-10860476D01*
X5395190Y-10660476D02*
X5414238Y-10660476D01*
X5433286Y-10670000D01*
X5442810Y-10679524D01*
X5452333Y-10698571D01*
X5461857Y-10736667D01*
X5461857Y-10784286D01*
X5452333Y-10822381D01*
X5442810Y-10841429D01*
X5433286Y-10850952D01*
X5414238Y-10860476D01*
X5395190Y-10860476D01*
X5376143Y-10850952D01*
X5366619Y-10841429D01*
X5357095Y-10822381D01*
X5347571Y-10784286D01*
X5347571Y-10736667D01*
X5357095Y-10698571D01*
X5366619Y-10679524D01*
X5376143Y-10670000D01*
X5395190Y-10660476D01*
X5652333Y-10860476D02*
X5538048Y-10860476D01*
X5595190Y-10860476D02*
X5595190Y-10660476D01*
X5576143Y-10689048D01*
X5557095Y-10708095D01*
X5538048Y-10717619D01*
X5833286Y-10660476D02*
X5738048Y-10660476D01*
X5728524Y-10755714D01*
X5738048Y-10746190D01*
X5757095Y-10736667D01*
X5804714Y-10736667D01*
X5823762Y-10746190D01*
X5833286Y-10755714D01*
X5842809Y-10774762D01*
X5842809Y-10822381D01*
X5833286Y-10841429D01*
X5823762Y-10850952D01*
X5804714Y-10860476D01*
X5757095Y-10860476D01*
X5738048Y-10850952D01*
X5728524Y-10841429D01*
X5909476Y-10660476D02*
X6042809Y-10660476D01*
X5957095Y-10860476D01*
X6109476Y-10660476D02*
X6109476Y-10698571D01*
X6185667Y-10660476D02*
X6185667Y-10698571D01*
X6480905Y-10936667D02*
X6471381Y-10927143D01*
X6452333Y-10898571D01*
X6442809Y-10879524D01*
X6433286Y-10850952D01*
X6423762Y-10803333D01*
X6423762Y-10765238D01*
X6433286Y-10717619D01*
X6442809Y-10689048D01*
X6452333Y-10670000D01*
X6471381Y-10641429D01*
X6480905Y-10631905D01*
X6652333Y-10660476D02*
X6557095Y-10660476D01*
X6547571Y-10755714D01*
X6557095Y-10746190D01*
X6576143Y-10736667D01*
X6623762Y-10736667D01*
X6642809Y-10746190D01*
X6652333Y-10755714D01*
X6661857Y-10774762D01*
X6661857Y-10822381D01*
X6652333Y-10841429D01*
X6642809Y-10850952D01*
X6623762Y-10860476D01*
X6576143Y-10860476D01*
X6557095Y-10850952D01*
X6547571Y-10841429D01*
X6833286Y-10727143D02*
X6833286Y-10860476D01*
X6785667Y-10650952D02*
X6738048Y-10793810D01*
X6861857Y-10793810D01*
X7090428Y-10860476D02*
X7090428Y-10660476D01*
X7176143Y-10860476D02*
X7176143Y-10755714D01*
X7166619Y-10736667D01*
X7147571Y-10727143D01*
X7119000Y-10727143D01*
X7099952Y-10736667D01*
X7090428Y-10746190D01*
X7299952Y-10860476D02*
X7280905Y-10850952D01*
X7271381Y-10841429D01*
X7261857Y-10822381D01*
X7261857Y-10765238D01*
X7271381Y-10746190D01*
X7280905Y-10736667D01*
X7299952Y-10727143D01*
X7328524Y-10727143D01*
X7347571Y-10736667D01*
X7357095Y-10746190D01*
X7366619Y-10765238D01*
X7366619Y-10822381D01*
X7357095Y-10841429D01*
X7347571Y-10850952D01*
X7328524Y-10860476D01*
X7299952Y-10860476D01*
X7480905Y-10860476D02*
X7461857Y-10850952D01*
X7452333Y-10831905D01*
X7452333Y-10660476D01*
X7633286Y-10850952D02*
X7614238Y-10860476D01*
X7576143Y-10860476D01*
X7557095Y-10850952D01*
X7547571Y-10831905D01*
X7547571Y-10755714D01*
X7557095Y-10736667D01*
X7576143Y-10727143D01*
X7614238Y-10727143D01*
X7633286Y-10736667D01*
X7642809Y-10755714D01*
X7642809Y-10774762D01*
X7547571Y-10793810D01*
X7719000Y-10850952D02*
X7738048Y-10860476D01*
X7776143Y-10860476D01*
X7795190Y-10850952D01*
X7804714Y-10831905D01*
X7804714Y-10822381D01*
X7795190Y-10803333D01*
X7776143Y-10793810D01*
X7747571Y-10793810D01*
X7728524Y-10784286D01*
X7719000Y-10765238D01*
X7719000Y-10755714D01*
X7728524Y-10736667D01*
X7747571Y-10727143D01*
X7776143Y-10727143D01*
X7795190Y-10736667D01*
X7871381Y-10936667D02*
X7880905Y-10927143D01*
X7899952Y-10898571D01*
X7909476Y-10879524D01*
X7919000Y-10850952D01*
X7928524Y-10803333D01*
X7928524Y-10765238D01*
X7919000Y-10717619D01*
X7909476Y-10689048D01*
X7899952Y-10670000D01*
X7880905Y-10641429D01*
X7871381Y-10631905D01*
D13*
X2909000Y-11034000D02*
G75*
G03*
X2909000Y-11034000I-30000J0D01*
G01*
D11*
X3204714Y-10924476D02*
X3223762Y-10924476D01*
X3242809Y-10934000D01*
X3252333Y-10943524D01*
X3261857Y-10962571D01*
X3271381Y-11000667D01*
X3271381Y-11048286D01*
X3261857Y-11086381D01*
X3252333Y-11105429D01*
X3242809Y-11114952D01*
X3223762Y-11124476D01*
X3204714Y-11124476D01*
X3185667Y-11114952D01*
X3176143Y-11105429D01*
X3166619Y-11086381D01*
X3157095Y-11048286D01*
X3157095Y-11000667D01*
X3166619Y-10962571D01*
X3176143Y-10943524D01*
X3185667Y-10934000D01*
X3204714Y-10924476D01*
X3357095Y-11105429D02*
X3366619Y-11114952D01*
X3357095Y-11124476D01*
X3347571Y-11114952D01*
X3357095Y-11105429D01*
X3357095Y-11124476D01*
X3538048Y-10924476D02*
X3499952Y-10924476D01*
X3480905Y-10934000D01*
X3471381Y-10943524D01*
X3452333Y-10972095D01*
X3442809Y-11010190D01*
X3442809Y-11086381D01*
X3452333Y-11105429D01*
X3461857Y-11114952D01*
X3480905Y-11124476D01*
X3519000Y-11124476D01*
X3538048Y-11114952D01*
X3547571Y-11105429D01*
X3557095Y-11086381D01*
X3557095Y-11038762D01*
X3547571Y-11019714D01*
X3538048Y-11010190D01*
X3519000Y-11000667D01*
X3480905Y-11000667D01*
X3461857Y-11010190D01*
X3452333Y-11019714D01*
X3442809Y-11038762D01*
X3680905Y-10924476D02*
X3699952Y-10924476D01*
X3719000Y-10934000D01*
X3728524Y-10943524D01*
X3738048Y-10962571D01*
X3747571Y-11000667D01*
X3747571Y-11048286D01*
X3738048Y-11086381D01*
X3728524Y-11105429D01*
X3719000Y-11114952D01*
X3699952Y-11124476D01*
X3680905Y-11124476D01*
X3661857Y-11114952D01*
X3652333Y-11105429D01*
X3642809Y-11086381D01*
X3633286Y-11048286D01*
X3633286Y-11000667D01*
X3642809Y-10962571D01*
X3652333Y-10943524D01*
X3661857Y-10934000D01*
X3680905Y-10924476D01*
X3871381Y-10924476D02*
X3890428Y-10924476D01*
X3909476Y-10934000D01*
X3919000Y-10943524D01*
X3928524Y-10962571D01*
X3938048Y-11000667D01*
X3938048Y-11048286D01*
X3928524Y-11086381D01*
X3919000Y-11105429D01*
X3909476Y-11114952D01*
X3890428Y-11124476D01*
X3871381Y-11124476D01*
X3852333Y-11114952D01*
X3842809Y-11105429D01*
X3833286Y-11086381D01*
X3823762Y-11048286D01*
X3823762Y-11000667D01*
X3833286Y-10962571D01*
X3842809Y-10943524D01*
X3852333Y-10934000D01*
X3871381Y-10924476D01*
X4023762Y-11124476D02*
X4023762Y-10991143D01*
X4023762Y-11010190D02*
X4033286Y-11000667D01*
X4052333Y-10991143D01*
X4080905Y-10991143D01*
X4099952Y-11000667D01*
X4109476Y-11019714D01*
X4109476Y-11124476D01*
X4109476Y-11019714D02*
X4119000Y-11000667D01*
X4138048Y-10991143D01*
X4166619Y-10991143D01*
X4185667Y-11000667D01*
X4195190Y-11019714D01*
X4195190Y-11124476D01*
X4290429Y-11124476D02*
X4290429Y-10991143D01*
X4290429Y-11010190D02*
X4299952Y-11000667D01*
X4319000Y-10991143D01*
X4347571Y-10991143D01*
X4366619Y-11000667D01*
X4376143Y-11019714D01*
X4376143Y-11124476D01*
X4376143Y-11019714D02*
X4385667Y-11000667D01*
X4404714Y-10991143D01*
X4433286Y-10991143D01*
X4452333Y-11000667D01*
X4461857Y-11019714D01*
X4461857Y-11124476D01*
X4852333Y-10914952D02*
X4680905Y-11172095D01*
X5109476Y-10924476D02*
X5128524Y-10924476D01*
X5147571Y-10934000D01*
X5157095Y-10943524D01*
X5166619Y-10962571D01*
X5176143Y-11000667D01*
X5176143Y-11048286D01*
X5166619Y-11086381D01*
X5157095Y-11105429D01*
X5147571Y-11114952D01*
X5128524Y-11124476D01*
X5109476Y-11124476D01*
X5090429Y-11114952D01*
X5080905Y-11105429D01*
X5071381Y-11086381D01*
X5061857Y-11048286D01*
X5061857Y-11000667D01*
X5071381Y-10962571D01*
X5080905Y-10943524D01*
X5090429Y-10934000D01*
X5109476Y-10924476D01*
X5261857Y-11105429D02*
X5271381Y-11114952D01*
X5261857Y-11124476D01*
X5252333Y-11114952D01*
X5261857Y-11105429D01*
X5261857Y-11124476D01*
X5395190Y-10924476D02*
X5414238Y-10924476D01*
X5433286Y-10934000D01*
X5442810Y-10943524D01*
X5452333Y-10962571D01*
X5461857Y-11000667D01*
X5461857Y-11048286D01*
X5452333Y-11086381D01*
X5442810Y-11105429D01*
X5433286Y-11114952D01*
X5414238Y-11124476D01*
X5395190Y-11124476D01*
X5376143Y-11114952D01*
X5366619Y-11105429D01*
X5357095Y-11086381D01*
X5347571Y-11048286D01*
X5347571Y-11000667D01*
X5357095Y-10962571D01*
X5366619Y-10943524D01*
X5376143Y-10934000D01*
X5395190Y-10924476D01*
X5538048Y-10943524D02*
X5547571Y-10934000D01*
X5566619Y-10924476D01*
X5614238Y-10924476D01*
X5633286Y-10934000D01*
X5642809Y-10943524D01*
X5652333Y-10962571D01*
X5652333Y-10981619D01*
X5642809Y-11010190D01*
X5528524Y-11124476D01*
X5652333Y-11124476D01*
X5719000Y-10924476D02*
X5842809Y-10924476D01*
X5776143Y-11000667D01*
X5804714Y-11000667D01*
X5823762Y-11010190D01*
X5833286Y-11019714D01*
X5842809Y-11038762D01*
X5842809Y-11086381D01*
X5833286Y-11105429D01*
X5823762Y-11114952D01*
X5804714Y-11124476D01*
X5747571Y-11124476D01*
X5728524Y-11114952D01*
X5719000Y-11105429D01*
X6014238Y-10924476D02*
X5976143Y-10924476D01*
X5957095Y-10934000D01*
X5947571Y-10943524D01*
X5928524Y-10972095D01*
X5919000Y-11010190D01*
X5919000Y-11086381D01*
X5928524Y-11105429D01*
X5938048Y-11114952D01*
X5957095Y-11124476D01*
X5995190Y-11124476D01*
X6014238Y-11114952D01*
X6023762Y-11105429D01*
X6033286Y-11086381D01*
X6033286Y-11038762D01*
X6023762Y-11019714D01*
X6014238Y-11010190D01*
X5995190Y-11000667D01*
X5957095Y-11000667D01*
X5938048Y-11010190D01*
X5928524Y-11019714D01*
X5919000Y-11038762D01*
X6109476Y-10924476D02*
X6109476Y-10962571D01*
X6185667Y-10924476D02*
X6185667Y-10962571D01*
X6480905Y-11200667D02*
X6471381Y-11191143D01*
X6452333Y-11162571D01*
X6442809Y-11143524D01*
X6433286Y-11114952D01*
X6423762Y-11067333D01*
X6423762Y-11029238D01*
X6433286Y-10981619D01*
X6442809Y-10953048D01*
X6452333Y-10934000D01*
X6471381Y-10905429D01*
X6480905Y-10895905D01*
X6595190Y-10924476D02*
X6614238Y-10924476D01*
X6633286Y-10934000D01*
X6642809Y-10943524D01*
X6652333Y-10962571D01*
X6661857Y-11000667D01*
X6661857Y-11048286D01*
X6652333Y-11086381D01*
X6642809Y-11105429D01*
X6633286Y-11114952D01*
X6614238Y-11124476D01*
X6595190Y-11124476D01*
X6576143Y-11114952D01*
X6566619Y-11105429D01*
X6557095Y-11086381D01*
X6547571Y-11048286D01*
X6547571Y-11000667D01*
X6557095Y-10962571D01*
X6566619Y-10943524D01*
X6576143Y-10934000D01*
X6595190Y-10924476D01*
X6899952Y-11124476D02*
X6899952Y-10924476D01*
X6985667Y-11124476D02*
X6985667Y-11019714D01*
X6976143Y-11000667D01*
X6957095Y-10991143D01*
X6928524Y-10991143D01*
X6909476Y-11000667D01*
X6899952Y-11010190D01*
X7109476Y-11124476D02*
X7090428Y-11114952D01*
X7080905Y-11105429D01*
X7071381Y-11086381D01*
X7071381Y-11029238D01*
X7080905Y-11010190D01*
X7090428Y-11000667D01*
X7109476Y-10991143D01*
X7138048Y-10991143D01*
X7157095Y-11000667D01*
X7166619Y-11010190D01*
X7176143Y-11029238D01*
X7176143Y-11086381D01*
X7166619Y-11105429D01*
X7157095Y-11114952D01*
X7138048Y-11124476D01*
X7109476Y-11124476D01*
X7290428Y-11124476D02*
X7271381Y-11114952D01*
X7261857Y-11095905D01*
X7261857Y-10924476D01*
X7442809Y-11114952D02*
X7423762Y-11124476D01*
X7385667Y-11124476D01*
X7366619Y-11114952D01*
X7357095Y-11095905D01*
X7357095Y-11019714D01*
X7366619Y-11000667D01*
X7385667Y-10991143D01*
X7423762Y-10991143D01*
X7442809Y-11000667D01*
X7452333Y-11019714D01*
X7452333Y-11038762D01*
X7357095Y-11057810D01*
X7528524Y-11114952D02*
X7547571Y-11124476D01*
X7585667Y-11124476D01*
X7604714Y-11114952D01*
X7614238Y-11095905D01*
X7614238Y-11086381D01*
X7604714Y-11067333D01*
X7585667Y-11057810D01*
X7557095Y-11057810D01*
X7538048Y-11048286D01*
X7528524Y-11029238D01*
X7528524Y-11019714D01*
X7538048Y-11000667D01*
X7557095Y-10991143D01*
X7585667Y-10991143D01*
X7604714Y-11000667D01*
X7852333Y-11048286D02*
X8004714Y-11048286D01*
X7928524Y-11124476D02*
X7928524Y-10972095D01*
X8338048Y-10991143D02*
X8338048Y-11124476D01*
X8290428Y-10914952D02*
X8242809Y-11057810D01*
X8366619Y-11057810D01*
X8585667Y-11114952D02*
X8604714Y-11124476D01*
X8642810Y-11124476D01*
X8661857Y-11114952D01*
X8671381Y-11095905D01*
X8671381Y-11086381D01*
X8661857Y-11067333D01*
X8642810Y-11057810D01*
X8614238Y-11057810D01*
X8595190Y-11048286D01*
X8585667Y-11029238D01*
X8585667Y-11019714D01*
X8595190Y-11000667D01*
X8614238Y-10991143D01*
X8642810Y-10991143D01*
X8661857Y-11000667D01*
X8785667Y-11124476D02*
X8766619Y-11114952D01*
X8757095Y-11095905D01*
X8757095Y-10924476D01*
X8890429Y-11124476D02*
X8871381Y-11114952D01*
X8861857Y-11105429D01*
X8852333Y-11086381D01*
X8852333Y-11029238D01*
X8861857Y-11010190D01*
X8871381Y-11000667D01*
X8890429Y-10991143D01*
X8919000Y-10991143D01*
X8938048Y-11000667D01*
X8947571Y-11010190D01*
X8957095Y-11029238D01*
X8957095Y-11086381D01*
X8947571Y-11105429D01*
X8938048Y-11114952D01*
X8919000Y-11124476D01*
X8890429Y-11124476D01*
X9014238Y-10991143D02*
X9090429Y-10991143D01*
X9042810Y-10924476D02*
X9042810Y-11095905D01*
X9052333Y-11114952D01*
X9071381Y-11124476D01*
X9090429Y-11124476D01*
X9147571Y-11114952D02*
X9166619Y-11124476D01*
X9204714Y-11124476D01*
X9223762Y-11114952D01*
X9233286Y-11095905D01*
X9233286Y-11086381D01*
X9223762Y-11067333D01*
X9204714Y-11057810D01*
X9176143Y-11057810D01*
X9157095Y-11048286D01*
X9147571Y-11029238D01*
X9147571Y-11019714D01*
X9157095Y-11000667D01*
X9176143Y-10991143D01*
X9204714Y-10991143D01*
X9223762Y-11000667D01*
X9299952Y-11200667D02*
X9309476Y-11191143D01*
X9328524Y-11162571D01*
X9338048Y-11143524D01*
X9347571Y-11114952D01*
X9357095Y-11067333D01*
X9357095Y-11029238D01*
X9347571Y-10981619D01*
X9338048Y-10953048D01*
X9328524Y-10934000D01*
X9309476Y-10905429D01*
X9299952Y-10895905D01*
D14*
X2871500Y-11260500D02*
X2871500Y-11335500D01*
X2834000Y-11298000D02*
X2909000Y-11298000D01*
D11*
X3204714Y-11188476D02*
X3223762Y-11188476D01*
X3242809Y-11198000D01*
X3252333Y-11207524D01*
X3261857Y-11226571D01*
X3271381Y-11264667D01*
X3271381Y-11312286D01*
X3261857Y-11350381D01*
X3252333Y-11369428D01*
X3242809Y-11378952D01*
X3223762Y-11388476D01*
X3204714Y-11388476D01*
X3185667Y-11378952D01*
X3176143Y-11369428D01*
X3166619Y-11350381D01*
X3157095Y-11312286D01*
X3157095Y-11264667D01*
X3166619Y-11226571D01*
X3176143Y-11207524D01*
X3185667Y-11198000D01*
X3204714Y-11188476D01*
X3357095Y-11369428D02*
X3366619Y-11378952D01*
X3357095Y-11388476D01*
X3347571Y-11378952D01*
X3357095Y-11369428D01*
X3357095Y-11388476D01*
X3433286Y-11188476D02*
X3566619Y-11188476D01*
X3480905Y-11388476D01*
X3738048Y-11188476D02*
X3642809Y-11188476D01*
X3633286Y-11283714D01*
X3642809Y-11274190D01*
X3661857Y-11264667D01*
X3709476Y-11264667D01*
X3728524Y-11274190D01*
X3738048Y-11283714D01*
X3747571Y-11302762D01*
X3747571Y-11350381D01*
X3738048Y-11369428D01*
X3728524Y-11378952D01*
X3709476Y-11388476D01*
X3661857Y-11388476D01*
X3642809Y-11378952D01*
X3633286Y-11369428D01*
X3871381Y-11188476D02*
X3890428Y-11188476D01*
X3909476Y-11198000D01*
X3919000Y-11207524D01*
X3928524Y-11226571D01*
X3938048Y-11264667D01*
X3938048Y-11312286D01*
X3928524Y-11350381D01*
X3919000Y-11369428D01*
X3909476Y-11378952D01*
X3890428Y-11388476D01*
X3871381Y-11388476D01*
X3852333Y-11378952D01*
X3842809Y-11369428D01*
X3833286Y-11350381D01*
X3823762Y-11312286D01*
X3823762Y-11264667D01*
X3833286Y-11226571D01*
X3842809Y-11207524D01*
X3852333Y-11198000D01*
X3871381Y-11188476D01*
X4023762Y-11388476D02*
X4023762Y-11255143D01*
X4023762Y-11274190D02*
X4033286Y-11264667D01*
X4052333Y-11255143D01*
X4080905Y-11255143D01*
X4099952Y-11264667D01*
X4109476Y-11283714D01*
X4109476Y-11388476D01*
X4109476Y-11283714D02*
X4119000Y-11264667D01*
X4138048Y-11255143D01*
X4166619Y-11255143D01*
X4185667Y-11264667D01*
X4195190Y-11283714D01*
X4195190Y-11388476D01*
X4290429Y-11388476D02*
X4290429Y-11255143D01*
X4290429Y-11274190D02*
X4299952Y-11264667D01*
X4319000Y-11255143D01*
X4347571Y-11255143D01*
X4366619Y-11264667D01*
X4376143Y-11283714D01*
X4376143Y-11388476D01*
X4376143Y-11283714D02*
X4385667Y-11264667D01*
X4404714Y-11255143D01*
X4433286Y-11255143D01*
X4452333Y-11264667D01*
X4461857Y-11283714D01*
X4461857Y-11388476D01*
X4852333Y-11178952D02*
X4680905Y-11436095D01*
X5109476Y-11188476D02*
X5128524Y-11188476D01*
X5147571Y-11198000D01*
X5157095Y-11207524D01*
X5166619Y-11226571D01*
X5176143Y-11264667D01*
X5176143Y-11312286D01*
X5166619Y-11350381D01*
X5157095Y-11369428D01*
X5147571Y-11378952D01*
X5128524Y-11388476D01*
X5109476Y-11388476D01*
X5090429Y-11378952D01*
X5080905Y-11369428D01*
X5071381Y-11350381D01*
X5061857Y-11312286D01*
X5061857Y-11264667D01*
X5071381Y-11226571D01*
X5080905Y-11207524D01*
X5090429Y-11198000D01*
X5109476Y-11188476D01*
X5261857Y-11369428D02*
X5271381Y-11378952D01*
X5261857Y-11388476D01*
X5252333Y-11378952D01*
X5261857Y-11369428D01*
X5261857Y-11388476D01*
X5395190Y-11188476D02*
X5414238Y-11188476D01*
X5433286Y-11198000D01*
X5442810Y-11207524D01*
X5452333Y-11226571D01*
X5461857Y-11264667D01*
X5461857Y-11312286D01*
X5452333Y-11350381D01*
X5442810Y-11369428D01*
X5433286Y-11378952D01*
X5414238Y-11388476D01*
X5395190Y-11388476D01*
X5376143Y-11378952D01*
X5366619Y-11369428D01*
X5357095Y-11350381D01*
X5347571Y-11312286D01*
X5347571Y-11264667D01*
X5357095Y-11226571D01*
X5366619Y-11207524D01*
X5376143Y-11198000D01*
X5395190Y-11188476D01*
X5538048Y-11207524D02*
X5547571Y-11198000D01*
X5566619Y-11188476D01*
X5614238Y-11188476D01*
X5633286Y-11198000D01*
X5642809Y-11207524D01*
X5652333Y-11226571D01*
X5652333Y-11245619D01*
X5642809Y-11274190D01*
X5528524Y-11388476D01*
X5652333Y-11388476D01*
X5747571Y-11388476D02*
X5785667Y-11388476D01*
X5804714Y-11378952D01*
X5814238Y-11369428D01*
X5833286Y-11340857D01*
X5842809Y-11302762D01*
X5842809Y-11226571D01*
X5833286Y-11207524D01*
X5823762Y-11198000D01*
X5804714Y-11188476D01*
X5766619Y-11188476D01*
X5747571Y-11198000D01*
X5738048Y-11207524D01*
X5728524Y-11226571D01*
X5728524Y-11274190D01*
X5738048Y-11293238D01*
X5747571Y-11302762D01*
X5766619Y-11312286D01*
X5804714Y-11312286D01*
X5823762Y-11302762D01*
X5833286Y-11293238D01*
X5842809Y-11274190D01*
X6023762Y-11188476D02*
X5928524Y-11188476D01*
X5919000Y-11283714D01*
X5928524Y-11274190D01*
X5947571Y-11264667D01*
X5995190Y-11264667D01*
X6014238Y-11274190D01*
X6023762Y-11283714D01*
X6033286Y-11302762D01*
X6033286Y-11350381D01*
X6023762Y-11369428D01*
X6014238Y-11378952D01*
X5995190Y-11388476D01*
X5947571Y-11388476D01*
X5928524Y-11378952D01*
X5919000Y-11369428D01*
X6109476Y-11188476D02*
X6109476Y-11226571D01*
X6185667Y-11188476D02*
X6185667Y-11226571D01*
X6480905Y-11464667D02*
X6471381Y-11455143D01*
X6452333Y-11426571D01*
X6442809Y-11407524D01*
X6433286Y-11378952D01*
X6423762Y-11331333D01*
X6423762Y-11293238D01*
X6433286Y-11245619D01*
X6442809Y-11217048D01*
X6452333Y-11198000D01*
X6471381Y-11169429D01*
X6480905Y-11159905D01*
X6661857Y-11388476D02*
X6547571Y-11388476D01*
X6604714Y-11388476D02*
X6604714Y-11188476D01*
X6585667Y-11217048D01*
X6566619Y-11236095D01*
X6547571Y-11245619D01*
X6833286Y-11188476D02*
X6795190Y-11188476D01*
X6776143Y-11198000D01*
X6766619Y-11207524D01*
X6747571Y-11236095D01*
X6738048Y-11274190D01*
X6738048Y-11350381D01*
X6747571Y-11369428D01*
X6757095Y-11378952D01*
X6776143Y-11388476D01*
X6814238Y-11388476D01*
X6833286Y-11378952D01*
X6842809Y-11369428D01*
X6852333Y-11350381D01*
X6852333Y-11302762D01*
X6842809Y-11283714D01*
X6833286Y-11274190D01*
X6814238Y-11264667D01*
X6776143Y-11264667D01*
X6757095Y-11274190D01*
X6747571Y-11283714D01*
X6738048Y-11302762D01*
X7090428Y-11388476D02*
X7090428Y-11188476D01*
X7176143Y-11388476D02*
X7176143Y-11283714D01*
X7166619Y-11264667D01*
X7147571Y-11255143D01*
X7119000Y-11255143D01*
X7099952Y-11264667D01*
X7090428Y-11274190D01*
X7299952Y-11388476D02*
X7280905Y-11378952D01*
X7271381Y-11369428D01*
X7261857Y-11350381D01*
X7261857Y-11293238D01*
X7271381Y-11274190D01*
X7280905Y-11264667D01*
X7299952Y-11255143D01*
X7328524Y-11255143D01*
X7347571Y-11264667D01*
X7357095Y-11274190D01*
X7366619Y-11293238D01*
X7366619Y-11350381D01*
X7357095Y-11369428D01*
X7347571Y-11378952D01*
X7328524Y-11388476D01*
X7299952Y-11388476D01*
X7480905Y-11388476D02*
X7461857Y-11378952D01*
X7452333Y-11359905D01*
X7452333Y-11188476D01*
X7633286Y-11378952D02*
X7614238Y-11388476D01*
X7576143Y-11388476D01*
X7557095Y-11378952D01*
X7547571Y-11359905D01*
X7547571Y-11283714D01*
X7557095Y-11264667D01*
X7576143Y-11255143D01*
X7614238Y-11255143D01*
X7633286Y-11264667D01*
X7642809Y-11283714D01*
X7642809Y-11302762D01*
X7547571Y-11321809D01*
X7719000Y-11378952D02*
X7738048Y-11388476D01*
X7776143Y-11388476D01*
X7795190Y-11378952D01*
X7804714Y-11359905D01*
X7804714Y-11350381D01*
X7795190Y-11331333D01*
X7776143Y-11321809D01*
X7747571Y-11321809D01*
X7728524Y-11312286D01*
X7719000Y-11293238D01*
X7719000Y-11283714D01*
X7728524Y-11264667D01*
X7747571Y-11255143D01*
X7776143Y-11255143D01*
X7795190Y-11264667D01*
X7871381Y-11464667D02*
X7880905Y-11455143D01*
X7899952Y-11426571D01*
X7909476Y-11407524D01*
X7919000Y-11378952D01*
X7928524Y-11331333D01*
X7928524Y-11293238D01*
X7919000Y-11245619D01*
X7909476Y-11217048D01*
X7899952Y-11198000D01*
X7880905Y-11169429D01*
X7871381Y-11159905D01*
D15*
X2895527Y-11594527D02*
X2895527Y-11529473D01*
X2830473Y-11529473D01*
X2830473Y-11594527D01*
X2895527Y-11594527D01*
D11*
X3204714Y-11452476D02*
X3223762Y-11452476D01*
X3242809Y-11462000D01*
X3252333Y-11471524D01*
X3261857Y-11490571D01*
X3271381Y-11528667D01*
X3271381Y-11576286D01*
X3261857Y-11614381D01*
X3252333Y-11633428D01*
X3242809Y-11642952D01*
X3223762Y-11652476D01*
X3204714Y-11652476D01*
X3185667Y-11642952D01*
X3176143Y-11633428D01*
X3166619Y-11614381D01*
X3157095Y-11576286D01*
X3157095Y-11528667D01*
X3166619Y-11490571D01*
X3176143Y-11471524D01*
X3185667Y-11462000D01*
X3204714Y-11452476D01*
X3357095Y-11633428D02*
X3366619Y-11642952D01*
X3357095Y-11652476D01*
X3347571Y-11642952D01*
X3357095Y-11633428D01*
X3357095Y-11652476D01*
X3461857Y-11652476D02*
X3499952Y-11652476D01*
X3519000Y-11642952D01*
X3528524Y-11633428D01*
X3547571Y-11604857D01*
X3557095Y-11566762D01*
X3557095Y-11490571D01*
X3547571Y-11471524D01*
X3538048Y-11462000D01*
X3519000Y-11452476D01*
X3480905Y-11452476D01*
X3461857Y-11462000D01*
X3452333Y-11471524D01*
X3442809Y-11490571D01*
X3442809Y-11538190D01*
X3452333Y-11557238D01*
X3461857Y-11566762D01*
X3480905Y-11576286D01*
X3519000Y-11576286D01*
X3538048Y-11566762D01*
X3547571Y-11557238D01*
X3557095Y-11538190D01*
X3633286Y-11471524D02*
X3642809Y-11462000D01*
X3661857Y-11452476D01*
X3709476Y-11452476D01*
X3728524Y-11462000D01*
X3738048Y-11471524D01*
X3747571Y-11490571D01*
X3747571Y-11509619D01*
X3738048Y-11538190D01*
X3623762Y-11652476D01*
X3747571Y-11652476D01*
X3871381Y-11452476D02*
X3890428Y-11452476D01*
X3909476Y-11462000D01*
X3919000Y-11471524D01*
X3928524Y-11490571D01*
X3938048Y-11528667D01*
X3938048Y-11576286D01*
X3928524Y-11614381D01*
X3919000Y-11633428D01*
X3909476Y-11642952D01*
X3890428Y-11652476D01*
X3871381Y-11652476D01*
X3852333Y-11642952D01*
X3842809Y-11633428D01*
X3833286Y-11614381D01*
X3823762Y-11576286D01*
X3823762Y-11528667D01*
X3833286Y-11490571D01*
X3842809Y-11471524D01*
X3852333Y-11462000D01*
X3871381Y-11452476D01*
X4023762Y-11652476D02*
X4023762Y-11519143D01*
X4023762Y-11538190D02*
X4033286Y-11528667D01*
X4052333Y-11519143D01*
X4080905Y-11519143D01*
X4099952Y-11528667D01*
X4109476Y-11547714D01*
X4109476Y-11652476D01*
X4109476Y-11547714D02*
X4119000Y-11528667D01*
X4138048Y-11519143D01*
X4166619Y-11519143D01*
X4185667Y-11528667D01*
X4195190Y-11547714D01*
X4195190Y-11652476D01*
X4290429Y-11652476D02*
X4290429Y-11519143D01*
X4290429Y-11538190D02*
X4299952Y-11528667D01*
X4319000Y-11519143D01*
X4347571Y-11519143D01*
X4366619Y-11528667D01*
X4376143Y-11547714D01*
X4376143Y-11652476D01*
X4376143Y-11547714D02*
X4385667Y-11528667D01*
X4404714Y-11519143D01*
X4433286Y-11519143D01*
X4452333Y-11528667D01*
X4461857Y-11547714D01*
X4461857Y-11652476D01*
X4852333Y-11442952D02*
X4680905Y-11700095D01*
X5109476Y-11452476D02*
X5128524Y-11452476D01*
X5147571Y-11462000D01*
X5157095Y-11471524D01*
X5166619Y-11490571D01*
X5176143Y-11528667D01*
X5176143Y-11576286D01*
X5166619Y-11614381D01*
X5157095Y-11633428D01*
X5147571Y-11642952D01*
X5128524Y-11652476D01*
X5109476Y-11652476D01*
X5090429Y-11642952D01*
X5080905Y-11633428D01*
X5071381Y-11614381D01*
X5061857Y-11576286D01*
X5061857Y-11528667D01*
X5071381Y-11490571D01*
X5080905Y-11471524D01*
X5090429Y-11462000D01*
X5109476Y-11452476D01*
X5261857Y-11633428D02*
X5271381Y-11642952D01*
X5261857Y-11652476D01*
X5252333Y-11642952D01*
X5261857Y-11633428D01*
X5261857Y-11652476D01*
X5395190Y-11452476D02*
X5414238Y-11452476D01*
X5433286Y-11462000D01*
X5442810Y-11471524D01*
X5452333Y-11490571D01*
X5461857Y-11528667D01*
X5461857Y-11576286D01*
X5452333Y-11614381D01*
X5442810Y-11633428D01*
X5433286Y-11642952D01*
X5414238Y-11652476D01*
X5395190Y-11652476D01*
X5376143Y-11642952D01*
X5366619Y-11633428D01*
X5357095Y-11614381D01*
X5347571Y-11576286D01*
X5347571Y-11528667D01*
X5357095Y-11490571D01*
X5366619Y-11471524D01*
X5376143Y-11462000D01*
X5395190Y-11452476D01*
X5528524Y-11452476D02*
X5652333Y-11452476D01*
X5585667Y-11528667D01*
X5614238Y-11528667D01*
X5633286Y-11538190D01*
X5642809Y-11547714D01*
X5652333Y-11566762D01*
X5652333Y-11614381D01*
X5642809Y-11633428D01*
X5633286Y-11642952D01*
X5614238Y-11652476D01*
X5557095Y-11652476D01*
X5538048Y-11642952D01*
X5528524Y-11633428D01*
X5823762Y-11452476D02*
X5785667Y-11452476D01*
X5766619Y-11462000D01*
X5757095Y-11471524D01*
X5738048Y-11500095D01*
X5728524Y-11538190D01*
X5728524Y-11614381D01*
X5738048Y-11633428D01*
X5747571Y-11642952D01*
X5766619Y-11652476D01*
X5804714Y-11652476D01*
X5823762Y-11642952D01*
X5833286Y-11633428D01*
X5842809Y-11614381D01*
X5842809Y-11566762D01*
X5833286Y-11547714D01*
X5823762Y-11538190D01*
X5804714Y-11528667D01*
X5766619Y-11528667D01*
X5747571Y-11538190D01*
X5738048Y-11547714D01*
X5728524Y-11566762D01*
X5919000Y-11471524D02*
X5928524Y-11462000D01*
X5947571Y-11452476D01*
X5995190Y-11452476D01*
X6014238Y-11462000D01*
X6023762Y-11471524D01*
X6033286Y-11490571D01*
X6033286Y-11509619D01*
X6023762Y-11538190D01*
X5909476Y-11652476D01*
X6033286Y-11652476D01*
X6109476Y-11452476D02*
X6109476Y-11490571D01*
X6185667Y-11452476D02*
X6185667Y-11490571D01*
X6480905Y-11728667D02*
X6471381Y-11719143D01*
X6452333Y-11690571D01*
X6442809Y-11671524D01*
X6433286Y-11642952D01*
X6423762Y-11595333D01*
X6423762Y-11557238D01*
X6433286Y-11509619D01*
X6442809Y-11481048D01*
X6452333Y-11462000D01*
X6471381Y-11433428D01*
X6480905Y-11423905D01*
X6661857Y-11652476D02*
X6547571Y-11652476D01*
X6604714Y-11652476D02*
X6604714Y-11452476D01*
X6585667Y-11481048D01*
X6566619Y-11500095D01*
X6547571Y-11509619D01*
X6738048Y-11471524D02*
X6747571Y-11462000D01*
X6766619Y-11452476D01*
X6814238Y-11452476D01*
X6833286Y-11462000D01*
X6842809Y-11471524D01*
X6852333Y-11490571D01*
X6852333Y-11509619D01*
X6842809Y-11538190D01*
X6728524Y-11652476D01*
X6852333Y-11652476D01*
X7090428Y-11652476D02*
X7090428Y-11452476D01*
X7176143Y-11652476D02*
X7176143Y-11547714D01*
X7166619Y-11528667D01*
X7147571Y-11519143D01*
X7119000Y-11519143D01*
X7099952Y-11528667D01*
X7090428Y-11538190D01*
X7299952Y-11652476D02*
X7280905Y-11642952D01*
X7271381Y-11633428D01*
X7261857Y-11614381D01*
X7261857Y-11557238D01*
X7271381Y-11538190D01*
X7280905Y-11528667D01*
X7299952Y-11519143D01*
X7328524Y-11519143D01*
X7347571Y-11528667D01*
X7357095Y-11538190D01*
X7366619Y-11557238D01*
X7366619Y-11614381D01*
X7357095Y-11633428D01*
X7347571Y-11642952D01*
X7328524Y-11652476D01*
X7299952Y-11652476D01*
X7480905Y-11652476D02*
X7461857Y-11642952D01*
X7452333Y-11623905D01*
X7452333Y-11452476D01*
X7633286Y-11642952D02*
X7614238Y-11652476D01*
X7576143Y-11652476D01*
X7557095Y-11642952D01*
X7547571Y-11623905D01*
X7547571Y-11547714D01*
X7557095Y-11528667D01*
X7576143Y-11519143D01*
X7614238Y-11519143D01*
X7633286Y-11528667D01*
X7642809Y-11547714D01*
X7642809Y-11566762D01*
X7547571Y-11585809D01*
X7719000Y-11642952D02*
X7738048Y-11652476D01*
X7776143Y-11652476D01*
X7795190Y-11642952D01*
X7804714Y-11623905D01*
X7804714Y-11614381D01*
X7795190Y-11595333D01*
X7776143Y-11585809D01*
X7747571Y-11585809D01*
X7728524Y-11576286D01*
X7719000Y-11557238D01*
X7719000Y-11547714D01*
X7728524Y-11528667D01*
X7747571Y-11519143D01*
X7776143Y-11519143D01*
X7795190Y-11528667D01*
X7871381Y-11728667D02*
X7880905Y-11719143D01*
X7899952Y-11690571D01*
X7909476Y-11671524D01*
X7919000Y-11642952D01*
X7928524Y-11595333D01*
X7928524Y-11557238D01*
X7919000Y-11509619D01*
X7909476Y-11481048D01*
X7899952Y-11462000D01*
X7880905Y-11433428D01*
X7871381Y-11423905D01*
D10*
X2859000Y-11876000D02*
X2909000Y-11826000D01*
X2859000Y-11776000D01*
X2809000Y-11826000D01*
X2859000Y-11876000D01*
D11*
X3271381Y-11916476D02*
X3157095Y-11916476D01*
X3214238Y-11916476D02*
X3214238Y-11716476D01*
X3195190Y-11745048D01*
X3176143Y-11764095D01*
X3157095Y-11773619D01*
X3357095Y-11897428D02*
X3366619Y-11906952D01*
X3357095Y-11916476D01*
X3347571Y-11906952D01*
X3357095Y-11897428D01*
X3357095Y-11916476D01*
X3490428Y-11716476D02*
X3509476Y-11716476D01*
X3528524Y-11726000D01*
X3538048Y-11735524D01*
X3547571Y-11754571D01*
X3557095Y-11792667D01*
X3557095Y-11840286D01*
X3547571Y-11878381D01*
X3538048Y-11897428D01*
X3528524Y-11906952D01*
X3509476Y-11916476D01*
X3490428Y-11916476D01*
X3471381Y-11906952D01*
X3461857Y-11897428D01*
X3452333Y-11878381D01*
X3442809Y-11840286D01*
X3442809Y-11792667D01*
X3452333Y-11754571D01*
X3461857Y-11735524D01*
X3471381Y-11726000D01*
X3490428Y-11716476D01*
X3680905Y-11716476D02*
X3699952Y-11716476D01*
X3719000Y-11726000D01*
X3728524Y-11735524D01*
X3738048Y-11754571D01*
X3747571Y-11792667D01*
X3747571Y-11840286D01*
X3738048Y-11878381D01*
X3728524Y-11897428D01*
X3719000Y-11906952D01*
X3699952Y-11916476D01*
X3680905Y-11916476D01*
X3661857Y-11906952D01*
X3652333Y-11897428D01*
X3642809Y-11878381D01*
X3633286Y-11840286D01*
X3633286Y-11792667D01*
X3642809Y-11754571D01*
X3652333Y-11735524D01*
X3661857Y-11726000D01*
X3680905Y-11716476D01*
X3871381Y-11716476D02*
X3890428Y-11716476D01*
X3909476Y-11726000D01*
X3919000Y-11735524D01*
X3928524Y-11754571D01*
X3938048Y-11792667D01*
X3938048Y-11840286D01*
X3928524Y-11878381D01*
X3919000Y-11897428D01*
X3909476Y-11906952D01*
X3890428Y-11916476D01*
X3871381Y-11916476D01*
X3852333Y-11906952D01*
X3842809Y-11897428D01*
X3833286Y-11878381D01*
X3823762Y-11840286D01*
X3823762Y-11792667D01*
X3833286Y-11754571D01*
X3842809Y-11735524D01*
X3852333Y-11726000D01*
X3871381Y-11716476D01*
X4023762Y-11916476D02*
X4023762Y-11783143D01*
X4023762Y-11802190D02*
X4033286Y-11792667D01*
X4052333Y-11783143D01*
X4080905Y-11783143D01*
X4099952Y-11792667D01*
X4109476Y-11811714D01*
X4109476Y-11916476D01*
X4109476Y-11811714D02*
X4119000Y-11792667D01*
X4138048Y-11783143D01*
X4166619Y-11783143D01*
X4185667Y-11792667D01*
X4195190Y-11811714D01*
X4195190Y-11916476D01*
X4290429Y-11916476D02*
X4290429Y-11783143D01*
X4290429Y-11802190D02*
X4299952Y-11792667D01*
X4319000Y-11783143D01*
X4347571Y-11783143D01*
X4366619Y-11792667D01*
X4376143Y-11811714D01*
X4376143Y-11916476D01*
X4376143Y-11811714D02*
X4385667Y-11792667D01*
X4404714Y-11783143D01*
X4433286Y-11783143D01*
X4452333Y-11792667D01*
X4461857Y-11811714D01*
X4461857Y-11916476D01*
X4852333Y-11706952D02*
X4680905Y-11964095D01*
X5109476Y-11716476D02*
X5128524Y-11716476D01*
X5147571Y-11726000D01*
X5157095Y-11735524D01*
X5166619Y-11754571D01*
X5176143Y-11792667D01*
X5176143Y-11840286D01*
X5166619Y-11878381D01*
X5157095Y-11897428D01*
X5147571Y-11906952D01*
X5128524Y-11916476D01*
X5109476Y-11916476D01*
X5090429Y-11906952D01*
X5080905Y-11897428D01*
X5071381Y-11878381D01*
X5061857Y-11840286D01*
X5061857Y-11792667D01*
X5071381Y-11754571D01*
X5080905Y-11735524D01*
X5090429Y-11726000D01*
X5109476Y-11716476D01*
X5261857Y-11897428D02*
X5271381Y-11906952D01*
X5261857Y-11916476D01*
X5252333Y-11906952D01*
X5261857Y-11897428D01*
X5261857Y-11916476D01*
X5395190Y-11716476D02*
X5414238Y-11716476D01*
X5433286Y-11726000D01*
X5442810Y-11735524D01*
X5452333Y-11754571D01*
X5461857Y-11792667D01*
X5461857Y-11840286D01*
X5452333Y-11878381D01*
X5442810Y-11897428D01*
X5433286Y-11906952D01*
X5414238Y-11916476D01*
X5395190Y-11916476D01*
X5376143Y-11906952D01*
X5366619Y-11897428D01*
X5357095Y-11878381D01*
X5347571Y-11840286D01*
X5347571Y-11792667D01*
X5357095Y-11754571D01*
X5366619Y-11735524D01*
X5376143Y-11726000D01*
X5395190Y-11716476D01*
X5528524Y-11716476D02*
X5652333Y-11716476D01*
X5585667Y-11792667D01*
X5614238Y-11792667D01*
X5633286Y-11802190D01*
X5642809Y-11811714D01*
X5652333Y-11830762D01*
X5652333Y-11878381D01*
X5642809Y-11897428D01*
X5633286Y-11906952D01*
X5614238Y-11916476D01*
X5557095Y-11916476D01*
X5538048Y-11906952D01*
X5528524Y-11897428D01*
X5747571Y-11916476D02*
X5785667Y-11916476D01*
X5804714Y-11906952D01*
X5814238Y-11897428D01*
X5833286Y-11868857D01*
X5842809Y-11830762D01*
X5842809Y-11754571D01*
X5833286Y-11735524D01*
X5823762Y-11726000D01*
X5804714Y-11716476D01*
X5766619Y-11716476D01*
X5747571Y-11726000D01*
X5738048Y-11735524D01*
X5728524Y-11754571D01*
X5728524Y-11802190D01*
X5738048Y-11821238D01*
X5747571Y-11830762D01*
X5766619Y-11840286D01*
X5804714Y-11840286D01*
X5823762Y-11830762D01*
X5833286Y-11821238D01*
X5842809Y-11802190D01*
X6014238Y-11783143D02*
X6014238Y-11916476D01*
X5966619Y-11706952D02*
X5919000Y-11849809D01*
X6042809Y-11849809D01*
X6109476Y-11716476D02*
X6109476Y-11754571D01*
X6185667Y-11716476D02*
X6185667Y-11754571D01*
X6480905Y-11992667D02*
X6471381Y-11983143D01*
X6452333Y-11954571D01*
X6442809Y-11935524D01*
X6433286Y-11906952D01*
X6423762Y-11859333D01*
X6423762Y-11821238D01*
X6433286Y-11773619D01*
X6442809Y-11745048D01*
X6452333Y-11726000D01*
X6471381Y-11697428D01*
X6480905Y-11687905D01*
X6538048Y-11716476D02*
X6671381Y-11716476D01*
X6585667Y-11916476D01*
X6899952Y-11916476D02*
X6899952Y-11716476D01*
X6985667Y-11916476D02*
X6985667Y-11811714D01*
X6976143Y-11792667D01*
X6957095Y-11783143D01*
X6928524Y-11783143D01*
X6909476Y-11792667D01*
X6899952Y-11802190D01*
X7109476Y-11916476D02*
X7090428Y-11906952D01*
X7080905Y-11897428D01*
X7071381Y-11878381D01*
X7071381Y-11821238D01*
X7080905Y-11802190D01*
X7090428Y-11792667D01*
X7109476Y-11783143D01*
X7138048Y-11783143D01*
X7157095Y-11792667D01*
X7166619Y-11802190D01*
X7176143Y-11821238D01*
X7176143Y-11878381D01*
X7166619Y-11897428D01*
X7157095Y-11906952D01*
X7138048Y-11916476D01*
X7109476Y-11916476D01*
X7290428Y-11916476D02*
X7271381Y-11906952D01*
X7261857Y-11887905D01*
X7261857Y-11716476D01*
X7442809Y-11906952D02*
X7423762Y-11916476D01*
X7385667Y-11916476D01*
X7366619Y-11906952D01*
X7357095Y-11887905D01*
X7357095Y-11811714D01*
X7366619Y-11792667D01*
X7385667Y-11783143D01*
X7423762Y-11783143D01*
X7442809Y-11792667D01*
X7452333Y-11811714D01*
X7452333Y-11830762D01*
X7357095Y-11849809D01*
X7528524Y-11906952D02*
X7547571Y-11916476D01*
X7585667Y-11916476D01*
X7604714Y-11906952D01*
X7614238Y-11887905D01*
X7614238Y-11878381D01*
X7604714Y-11859333D01*
X7585667Y-11849809D01*
X7557095Y-11849809D01*
X7538048Y-11840286D01*
X7528524Y-11821238D01*
X7528524Y-11811714D01*
X7538048Y-11792667D01*
X7557095Y-11783143D01*
X7585667Y-11783143D01*
X7604714Y-11792667D01*
X7680905Y-11992667D02*
X7690428Y-11983143D01*
X7709476Y-11954571D01*
X7719000Y-11935524D01*
X7728524Y-11906952D01*
X7738048Y-11859333D01*
X7738048Y-11821238D01*
X7728524Y-11773619D01*
X7719000Y-11745048D01*
X7709476Y-11726000D01*
X7690428Y-11697428D01*
X7680905Y-11687905D01*
D16*
X2799000Y-12035000D02*
X2909000Y-12145000D01*
X2909000Y-12035000D02*
X2799000Y-12145000D01*
X2909000Y-12090000D02*
G75*
G03*
X2909000Y-12090000I-55000J0D01*
G01*
D11*
X3271381Y-12180476D02*
X3157095Y-12180476D01*
X3214238Y-12180476D02*
X3214238Y-11980476D01*
X3195190Y-12009048D01*
X3176143Y-12028095D01*
X3157095Y-12037619D01*
X3357095Y-12161428D02*
X3366619Y-12170952D01*
X3357095Y-12180476D01*
X3347571Y-12170952D01*
X3357095Y-12161428D01*
X3357095Y-12180476D01*
X3557095Y-12180476D02*
X3442809Y-12180476D01*
X3499952Y-12180476D02*
X3499952Y-11980476D01*
X3480905Y-12009048D01*
X3461857Y-12028095D01*
X3442809Y-12037619D01*
X3680905Y-11980476D02*
X3699952Y-11980476D01*
X3719000Y-11990000D01*
X3728524Y-11999524D01*
X3738048Y-12018571D01*
X3747571Y-12056667D01*
X3747571Y-12104286D01*
X3738048Y-12142381D01*
X3728524Y-12161428D01*
X3719000Y-12170952D01*
X3699952Y-12180476D01*
X3680905Y-12180476D01*
X3661857Y-12170952D01*
X3652333Y-12161428D01*
X3642809Y-12142381D01*
X3633286Y-12104286D01*
X3633286Y-12056667D01*
X3642809Y-12018571D01*
X3652333Y-11999524D01*
X3661857Y-11990000D01*
X3680905Y-11980476D01*
X3871381Y-11980476D02*
X3890428Y-11980476D01*
X3909476Y-11990000D01*
X3919000Y-11999524D01*
X3928524Y-12018571D01*
X3938048Y-12056667D01*
X3938048Y-12104286D01*
X3928524Y-12142381D01*
X3919000Y-12161428D01*
X3909476Y-12170952D01*
X3890428Y-12180476D01*
X3871381Y-12180476D01*
X3852333Y-12170952D01*
X3842809Y-12161428D01*
X3833286Y-12142381D01*
X3823762Y-12104286D01*
X3823762Y-12056667D01*
X3833286Y-12018571D01*
X3842809Y-11999524D01*
X3852333Y-11990000D01*
X3871381Y-11980476D01*
X4023762Y-12180476D02*
X4023762Y-12047143D01*
X4023762Y-12066190D02*
X4033286Y-12056667D01*
X4052333Y-12047143D01*
X4080905Y-12047143D01*
X4099952Y-12056667D01*
X4109476Y-12075714D01*
X4109476Y-12180476D01*
X4109476Y-12075714D02*
X4119000Y-12056667D01*
X4138048Y-12047143D01*
X4166619Y-12047143D01*
X4185667Y-12056667D01*
X4195190Y-12075714D01*
X4195190Y-12180476D01*
X4290429Y-12180476D02*
X4290429Y-12047143D01*
X4290429Y-12066190D02*
X4299952Y-12056667D01*
X4319000Y-12047143D01*
X4347571Y-12047143D01*
X4366619Y-12056667D01*
X4376143Y-12075714D01*
X4376143Y-12180476D01*
X4376143Y-12075714D02*
X4385667Y-12056667D01*
X4404714Y-12047143D01*
X4433286Y-12047143D01*
X4452333Y-12056667D01*
X4461857Y-12075714D01*
X4461857Y-12180476D01*
X4852333Y-11970952D02*
X4680905Y-12228095D01*
X5109476Y-11980476D02*
X5128524Y-11980476D01*
X5147571Y-11990000D01*
X5157095Y-11999524D01*
X5166619Y-12018571D01*
X5176143Y-12056667D01*
X5176143Y-12104286D01*
X5166619Y-12142381D01*
X5157095Y-12161428D01*
X5147571Y-12170952D01*
X5128524Y-12180476D01*
X5109476Y-12180476D01*
X5090429Y-12170952D01*
X5080905Y-12161428D01*
X5071381Y-12142381D01*
X5061857Y-12104286D01*
X5061857Y-12056667D01*
X5071381Y-12018571D01*
X5080905Y-11999524D01*
X5090429Y-11990000D01*
X5109476Y-11980476D01*
X5261857Y-12161428D02*
X5271381Y-12170952D01*
X5261857Y-12180476D01*
X5252333Y-12170952D01*
X5261857Y-12161428D01*
X5261857Y-12180476D01*
X5395190Y-11980476D02*
X5414238Y-11980476D01*
X5433286Y-11990000D01*
X5442810Y-11999524D01*
X5452333Y-12018571D01*
X5461857Y-12056667D01*
X5461857Y-12104286D01*
X5452333Y-12142381D01*
X5442810Y-12161428D01*
X5433286Y-12170952D01*
X5414238Y-12180476D01*
X5395190Y-12180476D01*
X5376143Y-12170952D01*
X5366619Y-12161428D01*
X5357095Y-12142381D01*
X5347571Y-12104286D01*
X5347571Y-12056667D01*
X5357095Y-12018571D01*
X5366619Y-11999524D01*
X5376143Y-11990000D01*
X5395190Y-11980476D01*
X5633286Y-12047143D02*
X5633286Y-12180476D01*
X5585667Y-11970952D02*
X5538048Y-12113809D01*
X5661857Y-12113809D01*
X5719000Y-11980476D02*
X5842809Y-11980476D01*
X5776143Y-12056667D01*
X5804714Y-12056667D01*
X5823762Y-12066190D01*
X5833286Y-12075714D01*
X5842809Y-12094762D01*
X5842809Y-12142381D01*
X5833286Y-12161428D01*
X5823762Y-12170952D01*
X5804714Y-12180476D01*
X5747571Y-12180476D01*
X5728524Y-12170952D01*
X5719000Y-12161428D01*
X5909476Y-11980476D02*
X6033286Y-11980476D01*
X5966619Y-12056667D01*
X5995190Y-12056667D01*
X6014238Y-12066190D01*
X6023762Y-12075714D01*
X6033286Y-12094762D01*
X6033286Y-12142381D01*
X6023762Y-12161428D01*
X6014238Y-12170952D01*
X5995190Y-12180476D01*
X5938048Y-12180476D01*
X5919000Y-12170952D01*
X5909476Y-12161428D01*
X6109476Y-11980476D02*
X6109476Y-12018571D01*
X6185667Y-11980476D02*
X6185667Y-12018571D01*
X6480905Y-12256667D02*
X6471381Y-12247143D01*
X6452333Y-12218571D01*
X6442809Y-12199524D01*
X6433286Y-12170952D01*
X6423762Y-12123333D01*
X6423762Y-12085238D01*
X6433286Y-12037619D01*
X6442809Y-12009048D01*
X6452333Y-11990000D01*
X6471381Y-11961428D01*
X6480905Y-11951905D01*
X6661857Y-12180476D02*
X6547571Y-12180476D01*
X6604714Y-12180476D02*
X6604714Y-11980476D01*
X6585667Y-12009048D01*
X6566619Y-12028095D01*
X6547571Y-12037619D01*
X6738048Y-11999524D02*
X6747571Y-11990000D01*
X6766619Y-11980476D01*
X6814238Y-11980476D01*
X6833286Y-11990000D01*
X6842809Y-11999524D01*
X6852333Y-12018571D01*
X6852333Y-12037619D01*
X6842809Y-12066190D01*
X6728524Y-12180476D01*
X6852333Y-12180476D01*
X7090428Y-12180476D02*
X7090428Y-11980476D01*
X7176143Y-12180476D02*
X7176143Y-12075714D01*
X7166619Y-12056667D01*
X7147571Y-12047143D01*
X7119000Y-12047143D01*
X7099952Y-12056667D01*
X7090428Y-12066190D01*
X7299952Y-12180476D02*
X7280905Y-12170952D01*
X7271381Y-12161428D01*
X7261857Y-12142381D01*
X7261857Y-12085238D01*
X7271381Y-12066190D01*
X7280905Y-12056667D01*
X7299952Y-12047143D01*
X7328524Y-12047143D01*
X7347571Y-12056667D01*
X7357095Y-12066190D01*
X7366619Y-12085238D01*
X7366619Y-12142381D01*
X7357095Y-12161428D01*
X7347571Y-12170952D01*
X7328524Y-12180476D01*
X7299952Y-12180476D01*
X7480905Y-12180476D02*
X7461857Y-12170952D01*
X7452333Y-12151905D01*
X7452333Y-11980476D01*
X7633286Y-12170952D02*
X7614238Y-12180476D01*
X7576143Y-12180476D01*
X7557095Y-12170952D01*
X7547571Y-12151905D01*
X7547571Y-12075714D01*
X7557095Y-12056667D01*
X7576143Y-12047143D01*
X7614238Y-12047143D01*
X7633286Y-12056667D01*
X7642809Y-12075714D01*
X7642809Y-12094762D01*
X7547571Y-12113809D01*
X7719000Y-12170952D02*
X7738048Y-12180476D01*
X7776143Y-12180476D01*
X7795190Y-12170952D01*
X7804714Y-12151905D01*
X7804714Y-12142381D01*
X7795190Y-12123333D01*
X7776143Y-12113809D01*
X7747571Y-12113809D01*
X7728524Y-12104286D01*
X7719000Y-12085238D01*
X7719000Y-12075714D01*
X7728524Y-12056667D01*
X7747571Y-12047143D01*
X7776143Y-12047143D01*
X7795190Y-12056667D01*
X7871381Y-12256667D02*
X7880905Y-12247143D01*
X7899952Y-12218571D01*
X7909476Y-12199524D01*
X7919000Y-12170952D01*
X7928524Y-12123333D01*
X7928524Y-12085238D01*
X7919000Y-12037619D01*
X7909476Y-12009048D01*
X7899952Y-11990000D01*
X7880905Y-11961428D01*
X7871381Y-11951905D01*
D17*
X2759000Y-12279000D02*
X2909000Y-12429000D01*
X2909000Y-12279000D02*
X2759000Y-12429000D01*
X2834000Y-12279000D02*
X2834000Y-12429000D01*
X2759000Y-12354000D02*
X2909000Y-12354000D01*
D11*
X3271381Y-12444476D02*
X3157095Y-12444476D01*
X3214238Y-12444476D02*
X3214238Y-12244476D01*
X3195190Y-12273048D01*
X3176143Y-12292095D01*
X3157095Y-12301619D01*
X3357095Y-12425428D02*
X3366619Y-12434952D01*
X3357095Y-12444476D01*
X3347571Y-12434952D01*
X3357095Y-12425428D01*
X3357095Y-12444476D01*
X3547571Y-12244476D02*
X3452333Y-12244476D01*
X3442809Y-12339714D01*
X3452333Y-12330190D01*
X3471381Y-12320667D01*
X3519000Y-12320667D01*
X3538048Y-12330190D01*
X3547571Y-12339714D01*
X3557095Y-12358762D01*
X3557095Y-12406381D01*
X3547571Y-12425428D01*
X3538048Y-12434952D01*
X3519000Y-12444476D01*
X3471381Y-12444476D01*
X3452333Y-12434952D01*
X3442809Y-12425428D01*
X3680905Y-12244476D02*
X3699952Y-12244476D01*
X3719000Y-12254000D01*
X3728524Y-12263524D01*
X3738048Y-12282571D01*
X3747571Y-12320667D01*
X3747571Y-12368286D01*
X3738048Y-12406381D01*
X3728524Y-12425428D01*
X3719000Y-12434952D01*
X3699952Y-12444476D01*
X3680905Y-12444476D01*
X3661857Y-12434952D01*
X3652333Y-12425428D01*
X3642809Y-12406381D01*
X3633286Y-12368286D01*
X3633286Y-12320667D01*
X3642809Y-12282571D01*
X3652333Y-12263524D01*
X3661857Y-12254000D01*
X3680905Y-12244476D01*
X3871381Y-12244476D02*
X3890428Y-12244476D01*
X3909476Y-12254000D01*
X3919000Y-12263524D01*
X3928524Y-12282571D01*
X3938048Y-12320667D01*
X3938048Y-12368286D01*
X3928524Y-12406381D01*
X3919000Y-12425428D01*
X3909476Y-12434952D01*
X3890428Y-12444476D01*
X3871381Y-12444476D01*
X3852333Y-12434952D01*
X3842809Y-12425428D01*
X3833286Y-12406381D01*
X3823762Y-12368286D01*
X3823762Y-12320667D01*
X3833286Y-12282571D01*
X3842809Y-12263524D01*
X3852333Y-12254000D01*
X3871381Y-12244476D01*
X4023762Y-12444476D02*
X4023762Y-12311143D01*
X4023762Y-12330190D02*
X4033286Y-12320667D01*
X4052333Y-12311143D01*
X4080905Y-12311143D01*
X4099952Y-12320667D01*
X4109476Y-12339714D01*
X4109476Y-12444476D01*
X4109476Y-12339714D02*
X4119000Y-12320667D01*
X4138048Y-12311143D01*
X4166619Y-12311143D01*
X4185667Y-12320667D01*
X4195190Y-12339714D01*
X4195190Y-12444476D01*
X4290429Y-12444476D02*
X4290429Y-12311143D01*
X4290429Y-12330190D02*
X4299952Y-12320667D01*
X4319000Y-12311143D01*
X4347571Y-12311143D01*
X4366619Y-12320667D01*
X4376143Y-12339714D01*
X4376143Y-12444476D01*
X4376143Y-12339714D02*
X4385667Y-12320667D01*
X4404714Y-12311143D01*
X4433286Y-12311143D01*
X4452333Y-12320667D01*
X4461857Y-12339714D01*
X4461857Y-12444476D01*
X4852333Y-12234952D02*
X4680905Y-12492095D01*
X5109476Y-12244476D02*
X5128524Y-12244476D01*
X5147571Y-12254000D01*
X5157095Y-12263524D01*
X5166619Y-12282571D01*
X5176143Y-12320667D01*
X5176143Y-12368286D01*
X5166619Y-12406381D01*
X5157095Y-12425428D01*
X5147571Y-12434952D01*
X5128524Y-12444476D01*
X5109476Y-12444476D01*
X5090429Y-12434952D01*
X5080905Y-12425428D01*
X5071381Y-12406381D01*
X5061857Y-12368286D01*
X5061857Y-12320667D01*
X5071381Y-12282571D01*
X5080905Y-12263524D01*
X5090429Y-12254000D01*
X5109476Y-12244476D01*
X5261857Y-12425428D02*
X5271381Y-12434952D01*
X5261857Y-12444476D01*
X5252333Y-12434952D01*
X5261857Y-12425428D01*
X5261857Y-12444476D01*
X5395190Y-12244476D02*
X5414238Y-12244476D01*
X5433286Y-12254000D01*
X5442810Y-12263524D01*
X5452333Y-12282571D01*
X5461857Y-12320667D01*
X5461857Y-12368286D01*
X5452333Y-12406381D01*
X5442810Y-12425428D01*
X5433286Y-12434952D01*
X5414238Y-12444476D01*
X5395190Y-12444476D01*
X5376143Y-12434952D01*
X5366619Y-12425428D01*
X5357095Y-12406381D01*
X5347571Y-12368286D01*
X5347571Y-12320667D01*
X5357095Y-12282571D01*
X5366619Y-12263524D01*
X5376143Y-12254000D01*
X5395190Y-12244476D01*
X5642809Y-12244476D02*
X5547571Y-12244476D01*
X5538048Y-12339714D01*
X5547571Y-12330190D01*
X5566619Y-12320667D01*
X5614238Y-12320667D01*
X5633286Y-12330190D01*
X5642809Y-12339714D01*
X5652333Y-12358762D01*
X5652333Y-12406381D01*
X5642809Y-12425428D01*
X5633286Y-12434952D01*
X5614238Y-12444476D01*
X5566619Y-12444476D01*
X5547571Y-12434952D01*
X5538048Y-12425428D01*
X5747571Y-12444476D02*
X5785667Y-12444476D01*
X5804714Y-12434952D01*
X5814238Y-12425428D01*
X5833286Y-12396857D01*
X5842809Y-12358762D01*
X5842809Y-12282571D01*
X5833286Y-12263524D01*
X5823762Y-12254000D01*
X5804714Y-12244476D01*
X5766619Y-12244476D01*
X5747571Y-12254000D01*
X5738048Y-12263524D01*
X5728524Y-12282571D01*
X5728524Y-12330190D01*
X5738048Y-12349238D01*
X5747571Y-12358762D01*
X5766619Y-12368286D01*
X5804714Y-12368286D01*
X5823762Y-12358762D01*
X5833286Y-12349238D01*
X5842809Y-12330190D01*
X6033286Y-12444476D02*
X5919000Y-12444476D01*
X5976143Y-12444476D02*
X5976143Y-12244476D01*
X5957095Y-12273048D01*
X5938048Y-12292095D01*
X5919000Y-12301619D01*
X6109476Y-12244476D02*
X6109476Y-12282571D01*
X6185667Y-12244476D02*
X6185667Y-12282571D01*
X6480905Y-12520667D02*
X6471381Y-12511143D01*
X6452333Y-12482571D01*
X6442809Y-12463524D01*
X6433286Y-12434952D01*
X6423762Y-12387333D01*
X6423762Y-12349238D01*
X6433286Y-12301619D01*
X6442809Y-12273048D01*
X6452333Y-12254000D01*
X6471381Y-12225428D01*
X6480905Y-12215905D01*
X6661857Y-12444476D02*
X6547571Y-12444476D01*
X6604714Y-12444476D02*
X6604714Y-12244476D01*
X6585667Y-12273048D01*
X6566619Y-12292095D01*
X6547571Y-12301619D01*
X6833286Y-12244476D02*
X6795190Y-12244476D01*
X6776143Y-12254000D01*
X6766619Y-12263524D01*
X6747571Y-12292095D01*
X6738048Y-12330190D01*
X6738048Y-12406381D01*
X6747571Y-12425428D01*
X6757095Y-12434952D01*
X6776143Y-12444476D01*
X6814238Y-12444476D01*
X6833286Y-12434952D01*
X6842809Y-12425428D01*
X6852333Y-12406381D01*
X6852333Y-12358762D01*
X6842809Y-12339714D01*
X6833286Y-12330190D01*
X6814238Y-12320667D01*
X6776143Y-12320667D01*
X6757095Y-12330190D01*
X6747571Y-12339714D01*
X6738048Y-12358762D01*
X7090428Y-12444476D02*
X7090428Y-12244476D01*
X7176143Y-12444476D02*
X7176143Y-12339714D01*
X7166619Y-12320667D01*
X7147571Y-12311143D01*
X7119000Y-12311143D01*
X7099952Y-12320667D01*
X7090428Y-12330190D01*
X7299952Y-12444476D02*
X7280905Y-12434952D01*
X7271381Y-12425428D01*
X7261857Y-12406381D01*
X7261857Y-12349238D01*
X7271381Y-12330190D01*
X7280905Y-12320667D01*
X7299952Y-12311143D01*
X7328524Y-12311143D01*
X7347571Y-12320667D01*
X7357095Y-12330190D01*
X7366619Y-12349238D01*
X7366619Y-12406381D01*
X7357095Y-12425428D01*
X7347571Y-12434952D01*
X7328524Y-12444476D01*
X7299952Y-12444476D01*
X7480905Y-12444476D02*
X7461857Y-12434952D01*
X7452333Y-12415905D01*
X7452333Y-12244476D01*
X7633286Y-12434952D02*
X7614238Y-12444476D01*
X7576143Y-12444476D01*
X7557095Y-12434952D01*
X7547571Y-12415905D01*
X7547571Y-12339714D01*
X7557095Y-12320667D01*
X7576143Y-12311143D01*
X7614238Y-12311143D01*
X7633286Y-12320667D01*
X7642809Y-12339714D01*
X7642809Y-12358762D01*
X7547571Y-12377809D01*
X7719000Y-12434952D02*
X7738048Y-12444476D01*
X7776143Y-12444476D01*
X7795190Y-12434952D01*
X7804714Y-12415905D01*
X7804714Y-12406381D01*
X7795190Y-12387333D01*
X7776143Y-12377809D01*
X7747571Y-12377809D01*
X7728524Y-12368286D01*
X7719000Y-12349238D01*
X7719000Y-12339714D01*
X7728524Y-12320667D01*
X7747571Y-12311143D01*
X7776143Y-12311143D01*
X7795190Y-12320667D01*
X8042809Y-12368286D02*
X8195190Y-12368286D01*
X8119000Y-12444476D02*
X8119000Y-12292095D01*
X8433286Y-12263524D02*
X8442810Y-12254000D01*
X8461857Y-12244476D01*
X8509476Y-12244476D01*
X8528524Y-12254000D01*
X8538048Y-12263524D01*
X8547571Y-12282571D01*
X8547571Y-12301619D01*
X8538048Y-12330190D01*
X8423762Y-12444476D01*
X8547571Y-12444476D01*
X8776143Y-12434952D02*
X8795190Y-12444476D01*
X8833286Y-12444476D01*
X8852333Y-12434952D01*
X8861857Y-12415905D01*
X8861857Y-12406381D01*
X8852333Y-12387333D01*
X8833286Y-12377809D01*
X8804714Y-12377809D01*
X8785667Y-12368286D01*
X8776143Y-12349238D01*
X8776143Y-12339714D01*
X8785667Y-12320667D01*
X8804714Y-12311143D01*
X8833286Y-12311143D01*
X8852333Y-12320667D01*
X8976143Y-12444476D02*
X8957095Y-12434952D01*
X8947571Y-12415905D01*
X8947571Y-12244476D01*
X9080905Y-12444476D02*
X9061857Y-12434952D01*
X9052333Y-12425428D01*
X9042810Y-12406381D01*
X9042810Y-12349238D01*
X9052333Y-12330190D01*
X9061857Y-12320667D01*
X9080905Y-12311143D01*
X9109476Y-12311143D01*
X9128524Y-12320667D01*
X9138048Y-12330190D01*
X9147571Y-12349238D01*
X9147571Y-12406381D01*
X9138048Y-12425428D01*
X9128524Y-12434952D01*
X9109476Y-12444476D01*
X9080905Y-12444476D01*
X9204714Y-12311143D02*
X9280905Y-12311143D01*
X9233286Y-12244476D02*
X9233286Y-12415905D01*
X9242810Y-12434952D01*
X9261857Y-12444476D01*
X9280905Y-12444476D01*
X9338048Y-12434952D02*
X9357095Y-12444476D01*
X9395190Y-12444476D01*
X9414238Y-12434952D01*
X9423762Y-12415905D01*
X9423762Y-12406381D01*
X9414238Y-12387333D01*
X9395190Y-12377809D01*
X9366619Y-12377809D01*
X9347571Y-12368286D01*
X9338048Y-12349238D01*
X9338048Y-12339714D01*
X9347571Y-12320667D01*
X9366619Y-12311143D01*
X9395190Y-12311143D01*
X9414238Y-12320667D01*
X9490429Y-12520667D02*
X9499952Y-12511143D01*
X9519000Y-12482571D01*
X9528524Y-12463524D01*
X9538048Y-12434952D01*
X9547571Y-12387333D01*
X9547571Y-12349238D01*
X9538048Y-12301619D01*
X9528524Y-12273048D01*
X9519000Y-12254000D01*
X9499952Y-12225428D01*
X9490429Y-12215905D01*
X2709000Y-12524000D02*
X2909000Y-12724000D01*
X2909000Y-12524000D02*
X2709000Y-12724000D01*
X2879711Y-12694711D02*
X2879711Y-12553289D01*
X2738289Y-12553289D01*
X2738289Y-12694711D01*
X2879711Y-12694711D01*
X3157095Y-12533524D02*
X3166619Y-12524000D01*
X3185667Y-12514476D01*
X3233286Y-12514476D01*
X3252333Y-12524000D01*
X3261857Y-12533524D01*
X3271381Y-12552571D01*
X3271381Y-12571619D01*
X3261857Y-12600190D01*
X3147571Y-12714476D01*
X3271381Y-12714476D01*
X3357095Y-12695428D02*
X3366619Y-12704952D01*
X3357095Y-12714476D01*
X3347571Y-12704952D01*
X3357095Y-12695428D01*
X3357095Y-12714476D01*
X3442809Y-12533524D02*
X3452333Y-12524000D01*
X3471381Y-12514476D01*
X3519000Y-12514476D01*
X3538048Y-12524000D01*
X3547571Y-12533524D01*
X3557095Y-12552571D01*
X3557095Y-12571619D01*
X3547571Y-12600190D01*
X3433286Y-12714476D01*
X3557095Y-12714476D01*
X3680905Y-12514476D02*
X3699952Y-12514476D01*
X3719000Y-12524000D01*
X3728524Y-12533524D01*
X3738048Y-12552571D01*
X3747571Y-12590667D01*
X3747571Y-12638286D01*
X3738048Y-12676381D01*
X3728524Y-12695428D01*
X3719000Y-12704952D01*
X3699952Y-12714476D01*
X3680905Y-12714476D01*
X3661857Y-12704952D01*
X3652333Y-12695428D01*
X3642809Y-12676381D01*
X3633286Y-12638286D01*
X3633286Y-12590667D01*
X3642809Y-12552571D01*
X3652333Y-12533524D01*
X3661857Y-12524000D01*
X3680905Y-12514476D01*
X3871381Y-12514476D02*
X3890428Y-12514476D01*
X3909476Y-12524000D01*
X3919000Y-12533524D01*
X3928524Y-12552571D01*
X3938048Y-12590667D01*
X3938048Y-12638286D01*
X3928524Y-12676381D01*
X3919000Y-12695428D01*
X3909476Y-12704952D01*
X3890428Y-12714476D01*
X3871381Y-12714476D01*
X3852333Y-12704952D01*
X3842809Y-12695428D01*
X3833286Y-12676381D01*
X3823762Y-12638286D01*
X3823762Y-12590667D01*
X3833286Y-12552571D01*
X3842809Y-12533524D01*
X3852333Y-12524000D01*
X3871381Y-12514476D01*
X4023762Y-12714476D02*
X4023762Y-12581143D01*
X4023762Y-12600190D02*
X4033286Y-12590667D01*
X4052333Y-12581143D01*
X4080905Y-12581143D01*
X4099952Y-12590667D01*
X4109476Y-12609714D01*
X4109476Y-12714476D01*
X4109476Y-12609714D02*
X4119000Y-12590667D01*
X4138048Y-12581143D01*
X4166619Y-12581143D01*
X4185667Y-12590667D01*
X4195190Y-12609714D01*
X4195190Y-12714476D01*
X4290429Y-12714476D02*
X4290429Y-12581143D01*
X4290429Y-12600190D02*
X4299952Y-12590667D01*
X4319000Y-12581143D01*
X4347571Y-12581143D01*
X4366619Y-12590667D01*
X4376143Y-12609714D01*
X4376143Y-12714476D01*
X4376143Y-12609714D02*
X4385667Y-12590667D01*
X4404714Y-12581143D01*
X4433286Y-12581143D01*
X4452333Y-12590667D01*
X4461857Y-12609714D01*
X4461857Y-12714476D01*
X4852333Y-12504952D02*
X4680905Y-12762095D01*
X5109476Y-12514476D02*
X5128524Y-12514476D01*
X5147571Y-12524000D01*
X5157095Y-12533524D01*
X5166619Y-12552571D01*
X5176143Y-12590667D01*
X5176143Y-12638286D01*
X5166619Y-12676381D01*
X5157095Y-12695428D01*
X5147571Y-12704952D01*
X5128524Y-12714476D01*
X5109476Y-12714476D01*
X5090429Y-12704952D01*
X5080905Y-12695428D01*
X5071381Y-12676381D01*
X5061857Y-12638286D01*
X5061857Y-12590667D01*
X5071381Y-12552571D01*
X5080905Y-12533524D01*
X5090429Y-12524000D01*
X5109476Y-12514476D01*
X5261857Y-12695428D02*
X5271381Y-12704952D01*
X5261857Y-12714476D01*
X5252333Y-12704952D01*
X5261857Y-12695428D01*
X5261857Y-12714476D01*
X5395190Y-12514476D02*
X5414238Y-12514476D01*
X5433286Y-12524000D01*
X5442810Y-12533524D01*
X5452333Y-12552571D01*
X5461857Y-12590667D01*
X5461857Y-12638286D01*
X5452333Y-12676381D01*
X5442810Y-12695428D01*
X5433286Y-12704952D01*
X5414238Y-12714476D01*
X5395190Y-12714476D01*
X5376143Y-12704952D01*
X5366619Y-12695428D01*
X5357095Y-12676381D01*
X5347571Y-12638286D01*
X5347571Y-12590667D01*
X5357095Y-12552571D01*
X5366619Y-12533524D01*
X5376143Y-12524000D01*
X5395190Y-12514476D01*
X5576143Y-12600190D02*
X5557095Y-12590667D01*
X5547571Y-12581143D01*
X5538048Y-12562095D01*
X5538048Y-12552571D01*
X5547571Y-12533524D01*
X5557095Y-12524000D01*
X5576143Y-12514476D01*
X5614238Y-12514476D01*
X5633286Y-12524000D01*
X5642809Y-12533524D01*
X5652333Y-12552571D01*
X5652333Y-12562095D01*
X5642809Y-12581143D01*
X5633286Y-12590667D01*
X5614238Y-12600190D01*
X5576143Y-12600190D01*
X5557095Y-12609714D01*
X5547571Y-12619238D01*
X5538048Y-12638286D01*
X5538048Y-12676381D01*
X5547571Y-12695428D01*
X5557095Y-12704952D01*
X5576143Y-12714476D01*
X5614238Y-12714476D01*
X5633286Y-12704952D01*
X5642809Y-12695428D01*
X5652333Y-12676381D01*
X5652333Y-12638286D01*
X5642809Y-12619238D01*
X5633286Y-12609714D01*
X5614238Y-12600190D01*
X5823762Y-12514476D02*
X5785667Y-12514476D01*
X5766619Y-12524000D01*
X5757095Y-12533524D01*
X5738048Y-12562095D01*
X5728524Y-12600190D01*
X5728524Y-12676381D01*
X5738048Y-12695428D01*
X5747571Y-12704952D01*
X5766619Y-12714476D01*
X5804714Y-12714476D01*
X5823762Y-12704952D01*
X5833286Y-12695428D01*
X5842809Y-12676381D01*
X5842809Y-12628762D01*
X5833286Y-12609714D01*
X5823762Y-12600190D01*
X5804714Y-12590667D01*
X5766619Y-12590667D01*
X5747571Y-12600190D01*
X5738048Y-12609714D01*
X5728524Y-12628762D01*
X6014238Y-12514476D02*
X5976143Y-12514476D01*
X5957095Y-12524000D01*
X5947571Y-12533524D01*
X5928524Y-12562095D01*
X5919000Y-12600190D01*
X5919000Y-12676381D01*
X5928524Y-12695428D01*
X5938048Y-12704952D01*
X5957095Y-12714476D01*
X5995190Y-12714476D01*
X6014238Y-12704952D01*
X6023762Y-12695428D01*
X6033286Y-12676381D01*
X6033286Y-12628762D01*
X6023762Y-12609714D01*
X6014238Y-12600190D01*
X5995190Y-12590667D01*
X5957095Y-12590667D01*
X5938048Y-12600190D01*
X5928524Y-12609714D01*
X5919000Y-12628762D01*
X6109476Y-12514476D02*
X6109476Y-12552571D01*
X6185667Y-12514476D02*
X6185667Y-12552571D01*
X6480905Y-12790667D02*
X6471381Y-12781143D01*
X6452333Y-12752571D01*
X6442809Y-12733524D01*
X6433286Y-12704952D01*
X6423762Y-12657333D01*
X6423762Y-12619238D01*
X6433286Y-12571619D01*
X6442809Y-12543048D01*
X6452333Y-12524000D01*
X6471381Y-12495428D01*
X6480905Y-12485905D01*
X6642809Y-12581143D02*
X6642809Y-12714476D01*
X6595190Y-12504952D02*
X6547571Y-12647809D01*
X6671381Y-12647809D01*
X6899952Y-12714476D02*
X6899952Y-12514476D01*
X6985667Y-12714476D02*
X6985667Y-12609714D01*
X6976143Y-12590667D01*
X6957095Y-12581143D01*
X6928524Y-12581143D01*
X6909476Y-12590667D01*
X6899952Y-12600190D01*
X7109476Y-12714476D02*
X7090428Y-12704952D01*
X7080905Y-12695428D01*
X7071381Y-12676381D01*
X7071381Y-12619238D01*
X7080905Y-12600190D01*
X7090428Y-12590667D01*
X7109476Y-12581143D01*
X7138048Y-12581143D01*
X7157095Y-12590667D01*
X7166619Y-12600190D01*
X7176143Y-12619238D01*
X7176143Y-12676381D01*
X7166619Y-12695428D01*
X7157095Y-12704952D01*
X7138048Y-12714476D01*
X7109476Y-12714476D01*
X7290428Y-12714476D02*
X7271381Y-12704952D01*
X7261857Y-12685905D01*
X7261857Y-12514476D01*
X7442809Y-12704952D02*
X7423762Y-12714476D01*
X7385667Y-12714476D01*
X7366619Y-12704952D01*
X7357095Y-12685905D01*
X7357095Y-12609714D01*
X7366619Y-12590667D01*
X7385667Y-12581143D01*
X7423762Y-12581143D01*
X7442809Y-12590667D01*
X7452333Y-12609714D01*
X7452333Y-12628762D01*
X7357095Y-12647809D01*
X7528524Y-12704952D02*
X7547571Y-12714476D01*
X7585667Y-12714476D01*
X7604714Y-12704952D01*
X7614238Y-12685905D01*
X7614238Y-12676381D01*
X7604714Y-12657333D01*
X7585667Y-12647809D01*
X7557095Y-12647809D01*
X7538048Y-12638286D01*
X7528524Y-12619238D01*
X7528524Y-12609714D01*
X7538048Y-12590667D01*
X7557095Y-12581143D01*
X7585667Y-12581143D01*
X7604714Y-12590667D01*
X7680905Y-12790667D02*
X7690428Y-12781143D01*
X7709476Y-12752571D01*
X7719000Y-12733524D01*
X7728524Y-12704952D01*
X7738048Y-12657333D01*
X7738048Y-12619238D01*
X7728524Y-12571619D01*
X7719000Y-12543048D01*
X7709476Y-12524000D01*
X7690428Y-12495428D01*
X7680905Y-12485905D01*
X2709000Y-12844000D02*
X2909000Y-13044000D01*
X2909000Y-12844000D02*
X2709000Y-13044000D01*
X2809000Y-13044000D02*
X2909000Y-12944000D01*
X2809000Y-12844000D01*
X2709000Y-12944000D01*
X2809000Y-13044000D01*
X3157095Y-12853524D02*
X3166619Y-12844000D01*
X3185667Y-12834476D01*
X3233286Y-12834476D01*
X3252333Y-12844000D01*
X3261857Y-12853524D01*
X3271381Y-12872571D01*
X3271381Y-12891619D01*
X3261857Y-12920190D01*
X3147571Y-13034476D01*
X3271381Y-13034476D01*
X3357095Y-13015428D02*
X3366619Y-13024952D01*
X3357095Y-13034476D01*
X3347571Y-13024952D01*
X3357095Y-13015428D01*
X3357095Y-13034476D01*
X3433286Y-12834476D02*
X3557095Y-12834476D01*
X3490428Y-12910667D01*
X3519000Y-12910667D01*
X3538048Y-12920190D01*
X3547571Y-12929714D01*
X3557095Y-12948762D01*
X3557095Y-12996381D01*
X3547571Y-13015428D01*
X3538048Y-13024952D01*
X3519000Y-13034476D01*
X3461857Y-13034476D01*
X3442809Y-13024952D01*
X3433286Y-13015428D01*
X3680905Y-12834476D02*
X3699952Y-12834476D01*
X3719000Y-12844000D01*
X3728524Y-12853524D01*
X3738048Y-12872571D01*
X3747571Y-12910667D01*
X3747571Y-12958286D01*
X3738048Y-12996381D01*
X3728524Y-13015428D01*
X3719000Y-13024952D01*
X3699952Y-13034476D01*
X3680905Y-13034476D01*
X3661857Y-13024952D01*
X3652333Y-13015428D01*
X3642809Y-12996381D01*
X3633286Y-12958286D01*
X3633286Y-12910667D01*
X3642809Y-12872571D01*
X3652333Y-12853524D01*
X3661857Y-12844000D01*
X3680905Y-12834476D01*
X3871381Y-12834476D02*
X3890428Y-12834476D01*
X3909476Y-12844000D01*
X3919000Y-12853524D01*
X3928524Y-12872571D01*
X3938048Y-12910667D01*
X3938048Y-12958286D01*
X3928524Y-12996381D01*
X3919000Y-13015428D01*
X3909476Y-13024952D01*
X3890428Y-13034476D01*
X3871381Y-13034476D01*
X3852333Y-13024952D01*
X3842809Y-13015428D01*
X3833286Y-12996381D01*
X3823762Y-12958286D01*
X3823762Y-12910667D01*
X3833286Y-12872571D01*
X3842809Y-12853524D01*
X3852333Y-12844000D01*
X3871381Y-12834476D01*
X4023762Y-13034476D02*
X4023762Y-12901143D01*
X4023762Y-12920190D02*
X4033286Y-12910667D01*
X4052333Y-12901143D01*
X4080905Y-12901143D01*
X4099952Y-12910667D01*
X4109476Y-12929714D01*
X4109476Y-13034476D01*
X4109476Y-12929714D02*
X4119000Y-12910667D01*
X4138048Y-12901143D01*
X4166619Y-12901143D01*
X4185667Y-12910667D01*
X4195190Y-12929714D01*
X4195190Y-13034476D01*
X4290429Y-13034476D02*
X4290429Y-12901143D01*
X4290429Y-12920190D02*
X4299952Y-12910667D01*
X4319000Y-12901143D01*
X4347571Y-12901143D01*
X4366619Y-12910667D01*
X4376143Y-12929714D01*
X4376143Y-13034476D01*
X4376143Y-12929714D02*
X4385667Y-12910667D01*
X4404714Y-12901143D01*
X4433286Y-12901143D01*
X4452333Y-12910667D01*
X4461857Y-12929714D01*
X4461857Y-13034476D01*
X4852333Y-12824952D02*
X4680905Y-13082095D01*
X5109476Y-12834476D02*
X5128524Y-12834476D01*
X5147571Y-12844000D01*
X5157095Y-12853524D01*
X5166619Y-12872571D01*
X5176143Y-12910667D01*
X5176143Y-12958286D01*
X5166619Y-12996381D01*
X5157095Y-13015428D01*
X5147571Y-13024952D01*
X5128524Y-13034476D01*
X5109476Y-13034476D01*
X5090429Y-13024952D01*
X5080905Y-13015428D01*
X5071381Y-12996381D01*
X5061857Y-12958286D01*
X5061857Y-12910667D01*
X5071381Y-12872571D01*
X5080905Y-12853524D01*
X5090429Y-12844000D01*
X5109476Y-12834476D01*
X5261857Y-13015428D02*
X5271381Y-13024952D01*
X5261857Y-13034476D01*
X5252333Y-13024952D01*
X5261857Y-13015428D01*
X5261857Y-13034476D01*
X5395190Y-12834476D02*
X5414238Y-12834476D01*
X5433286Y-12844000D01*
X5442810Y-12853524D01*
X5452333Y-12872571D01*
X5461857Y-12910667D01*
X5461857Y-12958286D01*
X5452333Y-12996381D01*
X5442810Y-13015428D01*
X5433286Y-13024952D01*
X5414238Y-13034476D01*
X5395190Y-13034476D01*
X5376143Y-13024952D01*
X5366619Y-13015428D01*
X5357095Y-12996381D01*
X5347571Y-12958286D01*
X5347571Y-12910667D01*
X5357095Y-12872571D01*
X5366619Y-12853524D01*
X5376143Y-12844000D01*
X5395190Y-12834476D01*
X5557095Y-13034476D02*
X5595190Y-13034476D01*
X5614238Y-13024952D01*
X5623762Y-13015428D01*
X5642809Y-12986857D01*
X5652333Y-12948762D01*
X5652333Y-12872571D01*
X5642809Y-12853524D01*
X5633286Y-12844000D01*
X5614238Y-12834476D01*
X5576143Y-12834476D01*
X5557095Y-12844000D01*
X5547571Y-12853524D01*
X5538048Y-12872571D01*
X5538048Y-12920190D01*
X5547571Y-12939238D01*
X5557095Y-12948762D01*
X5576143Y-12958286D01*
X5614238Y-12958286D01*
X5633286Y-12948762D01*
X5642809Y-12939238D01*
X5652333Y-12920190D01*
X5776143Y-12834476D02*
X5795190Y-12834476D01*
X5814238Y-12844000D01*
X5823762Y-12853524D01*
X5833286Y-12872571D01*
X5842809Y-12910667D01*
X5842809Y-12958286D01*
X5833286Y-12996381D01*
X5823762Y-13015428D01*
X5814238Y-13024952D01*
X5795190Y-13034476D01*
X5776143Y-13034476D01*
X5757095Y-13024952D01*
X5747571Y-13015428D01*
X5738048Y-12996381D01*
X5728524Y-12958286D01*
X5728524Y-12910667D01*
X5738048Y-12872571D01*
X5747571Y-12853524D01*
X5757095Y-12844000D01*
X5776143Y-12834476D01*
X6014238Y-12834476D02*
X5976143Y-12834476D01*
X5957095Y-12844000D01*
X5947571Y-12853524D01*
X5928524Y-12882095D01*
X5919000Y-12920190D01*
X5919000Y-12996381D01*
X5928524Y-13015428D01*
X5938048Y-13024952D01*
X5957095Y-13034476D01*
X5995190Y-13034476D01*
X6014238Y-13024952D01*
X6023762Y-13015428D01*
X6033286Y-12996381D01*
X6033286Y-12948762D01*
X6023762Y-12929714D01*
X6014238Y-12920190D01*
X5995190Y-12910667D01*
X5957095Y-12910667D01*
X5938048Y-12920190D01*
X5928524Y-12929714D01*
X5919000Y-12948762D01*
X6109476Y-12834476D02*
X6109476Y-12872571D01*
X6185667Y-12834476D02*
X6185667Y-12872571D01*
X6480905Y-13110667D02*
X6471381Y-13101143D01*
X6452333Y-13072571D01*
X6442809Y-13053524D01*
X6433286Y-13024952D01*
X6423762Y-12977333D01*
X6423762Y-12939238D01*
X6433286Y-12891619D01*
X6442809Y-12863048D01*
X6452333Y-12844000D01*
X6471381Y-12815428D01*
X6480905Y-12805905D01*
X6642809Y-12834476D02*
X6604714Y-12834476D01*
X6585667Y-12844000D01*
X6576143Y-12853524D01*
X6557095Y-12882095D01*
X6547571Y-12920190D01*
X6547571Y-12996381D01*
X6557095Y-13015428D01*
X6566619Y-13024952D01*
X6585667Y-13034476D01*
X6623762Y-13034476D01*
X6642809Y-13024952D01*
X6652333Y-13015428D01*
X6661857Y-12996381D01*
X6661857Y-12948762D01*
X6652333Y-12929714D01*
X6642809Y-12920190D01*
X6623762Y-12910667D01*
X6585667Y-12910667D01*
X6566619Y-12920190D01*
X6557095Y-12929714D01*
X6547571Y-12948762D01*
X6899952Y-13034476D02*
X6899952Y-12834476D01*
X6985667Y-13034476D02*
X6985667Y-12929714D01*
X6976143Y-12910667D01*
X6957095Y-12901143D01*
X6928524Y-12901143D01*
X6909476Y-12910667D01*
X6899952Y-12920190D01*
X7109476Y-13034476D02*
X7090428Y-13024952D01*
X7080905Y-13015428D01*
X7071381Y-12996381D01*
X7071381Y-12939238D01*
X7080905Y-12920190D01*
X7090428Y-12910667D01*
X7109476Y-12901143D01*
X7138048Y-12901143D01*
X7157095Y-12910667D01*
X7166619Y-12920190D01*
X7176143Y-12939238D01*
X7176143Y-12996381D01*
X7166619Y-13015428D01*
X7157095Y-13024952D01*
X7138048Y-13034476D01*
X7109476Y-13034476D01*
X7290428Y-13034476D02*
X7271381Y-13024952D01*
X7261857Y-13005905D01*
X7261857Y-12834476D01*
X7442809Y-13024952D02*
X7423762Y-13034476D01*
X7385667Y-13034476D01*
X7366619Y-13024952D01*
X7357095Y-13005905D01*
X7357095Y-12929714D01*
X7366619Y-12910667D01*
X7385667Y-12901143D01*
X7423762Y-12901143D01*
X7442809Y-12910667D01*
X7452333Y-12929714D01*
X7452333Y-12948762D01*
X7357095Y-12967809D01*
X7528524Y-13024952D02*
X7547571Y-13034476D01*
X7585667Y-13034476D01*
X7604714Y-13024952D01*
X7614238Y-13005905D01*
X7614238Y-12996381D01*
X7604714Y-12977333D01*
X7585667Y-12967809D01*
X7557095Y-12967809D01*
X7538048Y-12958286D01*
X7528524Y-12939238D01*
X7528524Y-12929714D01*
X7538048Y-12910667D01*
X7557095Y-12901143D01*
X7585667Y-12901143D01*
X7604714Y-12910667D01*
X7680905Y-13110667D02*
X7690428Y-13101143D01*
X7709476Y-13072571D01*
X7719000Y-13053524D01*
X7728524Y-13024952D01*
X7738048Y-12977333D01*
X7738048Y-12939238D01*
X7728524Y-12891619D01*
X7719000Y-12863048D01*
X7709476Y-12844000D01*
X7690428Y-12815428D01*
X7680905Y-12805905D01*
D20*
X2876500Y-13231500D02*
X2876500Y-13296500D01*
X2844000Y-13264000D02*
X2909000Y-13264000D01*
X2909000Y-13264000D02*
G75*
G03*
X2909000Y-13264000I-32500J0D01*
G01*
D11*
X3204714Y-13154476D02*
X3223762Y-13154476D01*
X3242809Y-13164000D01*
X3252333Y-13173524D01*
X3261857Y-13192571D01*
X3271381Y-13230667D01*
X3271381Y-13278286D01*
X3261857Y-13316381D01*
X3252333Y-13335428D01*
X3242809Y-13344952D01*
X3223762Y-13354476D01*
X3204714Y-13354476D01*
X3185667Y-13344952D01*
X3176143Y-13335428D01*
X3166619Y-13316381D01*
X3157095Y-13278286D01*
X3157095Y-13230667D01*
X3166619Y-13192571D01*
X3176143Y-13173524D01*
X3185667Y-13164000D01*
X3204714Y-13154476D01*
X3357095Y-13335428D02*
X3366619Y-13344952D01*
X3357095Y-13354476D01*
X3347571Y-13344952D01*
X3357095Y-13335428D01*
X3357095Y-13354476D01*
X3538048Y-13154476D02*
X3499952Y-13154476D01*
X3480905Y-13164000D01*
X3471381Y-13173524D01*
X3452333Y-13202095D01*
X3442809Y-13240190D01*
X3442809Y-13316381D01*
X3452333Y-13335428D01*
X3461857Y-13344952D01*
X3480905Y-13354476D01*
X3519000Y-13354476D01*
X3538048Y-13344952D01*
X3547571Y-13335428D01*
X3557095Y-13316381D01*
X3557095Y-13268762D01*
X3547571Y-13249714D01*
X3538048Y-13240190D01*
X3519000Y-13230667D01*
X3480905Y-13230667D01*
X3461857Y-13240190D01*
X3452333Y-13249714D01*
X3442809Y-13268762D01*
X3738048Y-13154476D02*
X3642809Y-13154476D01*
X3633286Y-13249714D01*
X3642809Y-13240190D01*
X3661857Y-13230667D01*
X3709476Y-13230667D01*
X3728524Y-13240190D01*
X3738048Y-13249714D01*
X3747571Y-13268762D01*
X3747571Y-13316381D01*
X3738048Y-13335428D01*
X3728524Y-13344952D01*
X3709476Y-13354476D01*
X3661857Y-13354476D01*
X3642809Y-13344952D01*
X3633286Y-13335428D01*
X3871381Y-13154476D02*
X3890428Y-13154476D01*
X3909476Y-13164000D01*
X3919000Y-13173524D01*
X3928524Y-13192571D01*
X3938048Y-13230667D01*
X3938048Y-13278286D01*
X3928524Y-13316381D01*
X3919000Y-13335428D01*
X3909476Y-13344952D01*
X3890428Y-13354476D01*
X3871381Y-13354476D01*
X3852333Y-13344952D01*
X3842809Y-13335428D01*
X3833286Y-13316381D01*
X3823762Y-13278286D01*
X3823762Y-13230667D01*
X3833286Y-13192571D01*
X3842809Y-13173524D01*
X3852333Y-13164000D01*
X3871381Y-13154476D01*
X4023762Y-13354476D02*
X4023762Y-13221143D01*
X4023762Y-13240190D02*
X4033286Y-13230667D01*
X4052333Y-13221143D01*
X4080905Y-13221143D01*
X4099952Y-13230667D01*
X4109476Y-13249714D01*
X4109476Y-13354476D01*
X4109476Y-13249714D02*
X4119000Y-13230667D01*
X4138048Y-13221143D01*
X4166619Y-13221143D01*
X4185667Y-13230667D01*
X4195190Y-13249714D01*
X4195190Y-13354476D01*
X4290429Y-13354476D02*
X4290429Y-13221143D01*
X4290429Y-13240190D02*
X4299952Y-13230667D01*
X4319000Y-13221143D01*
X4347571Y-13221143D01*
X4366619Y-13230667D01*
X4376143Y-13249714D01*
X4376143Y-13354476D01*
X4376143Y-13249714D02*
X4385667Y-13230667D01*
X4404714Y-13221143D01*
X4433286Y-13221143D01*
X4452333Y-13230667D01*
X4461857Y-13249714D01*
X4461857Y-13354476D01*
X4852333Y-13144952D02*
X4680905Y-13402095D01*
X5109476Y-13154476D02*
X5128524Y-13154476D01*
X5147571Y-13164000D01*
X5157095Y-13173524D01*
X5166619Y-13192571D01*
X5176143Y-13230667D01*
X5176143Y-13278286D01*
X5166619Y-13316381D01*
X5157095Y-13335428D01*
X5147571Y-13344952D01*
X5128524Y-13354476D01*
X5109476Y-13354476D01*
X5090429Y-13344952D01*
X5080905Y-13335428D01*
X5071381Y-13316381D01*
X5061857Y-13278286D01*
X5061857Y-13230667D01*
X5071381Y-13192571D01*
X5080905Y-13173524D01*
X5090429Y-13164000D01*
X5109476Y-13154476D01*
X5261857Y-13335428D02*
X5271381Y-13344952D01*
X5261857Y-13354476D01*
X5252333Y-13344952D01*
X5261857Y-13335428D01*
X5261857Y-13354476D01*
X5395190Y-13154476D02*
X5414238Y-13154476D01*
X5433286Y-13164000D01*
X5442810Y-13173524D01*
X5452333Y-13192571D01*
X5461857Y-13230667D01*
X5461857Y-13278286D01*
X5452333Y-13316381D01*
X5442810Y-13335428D01*
X5433286Y-13344952D01*
X5414238Y-13354476D01*
X5395190Y-13354476D01*
X5376143Y-13344952D01*
X5366619Y-13335428D01*
X5357095Y-13316381D01*
X5347571Y-13278286D01*
X5347571Y-13230667D01*
X5357095Y-13192571D01*
X5366619Y-13173524D01*
X5376143Y-13164000D01*
X5395190Y-13154476D01*
X5538048Y-13173524D02*
X5547571Y-13164000D01*
X5566619Y-13154476D01*
X5614238Y-13154476D01*
X5633286Y-13164000D01*
X5642809Y-13173524D01*
X5652333Y-13192571D01*
X5652333Y-13211619D01*
X5642809Y-13240190D01*
X5528524Y-13354476D01*
X5652333Y-13354476D01*
X5833286Y-13154476D02*
X5738048Y-13154476D01*
X5728524Y-13249714D01*
X5738048Y-13240190D01*
X5757095Y-13230667D01*
X5804714Y-13230667D01*
X5823762Y-13240190D01*
X5833286Y-13249714D01*
X5842809Y-13268762D01*
X5842809Y-13316381D01*
X5833286Y-13335428D01*
X5823762Y-13344952D01*
X5804714Y-13354476D01*
X5757095Y-13354476D01*
X5738048Y-13344952D01*
X5728524Y-13335428D01*
X6014238Y-13154476D02*
X5976143Y-13154476D01*
X5957095Y-13164000D01*
X5947571Y-13173524D01*
X5928524Y-13202095D01*
X5919000Y-13240190D01*
X5919000Y-13316381D01*
X5928524Y-13335428D01*
X5938048Y-13344952D01*
X5957095Y-13354476D01*
X5995190Y-13354476D01*
X6014238Y-13344952D01*
X6023762Y-13335428D01*
X6033286Y-13316381D01*
X6033286Y-13268762D01*
X6023762Y-13249714D01*
X6014238Y-13240190D01*
X5995190Y-13230667D01*
X5957095Y-13230667D01*
X5938048Y-13240190D01*
X5928524Y-13249714D01*
X5919000Y-13268762D01*
X6109476Y-13154476D02*
X6109476Y-13192571D01*
X6185667Y-13154476D02*
X6185667Y-13192571D01*
X6480905Y-13430667D02*
X6471381Y-13421143D01*
X6452333Y-13392571D01*
X6442809Y-13373524D01*
X6433286Y-13344952D01*
X6423762Y-13297333D01*
X6423762Y-13259238D01*
X6433286Y-13211619D01*
X6442809Y-13183048D01*
X6452333Y-13164000D01*
X6471381Y-13135428D01*
X6480905Y-13125905D01*
X6547571Y-13173524D02*
X6557095Y-13164000D01*
X6576143Y-13154476D01*
X6623762Y-13154476D01*
X6642809Y-13164000D01*
X6652333Y-13173524D01*
X6661857Y-13192571D01*
X6661857Y-13211619D01*
X6652333Y-13240190D01*
X6538048Y-13354476D01*
X6661857Y-13354476D01*
X6899952Y-13354476D02*
X6899952Y-13154476D01*
X6985667Y-13354476D02*
X6985667Y-13249714D01*
X6976143Y-13230667D01*
X6957095Y-13221143D01*
X6928524Y-13221143D01*
X6909476Y-13230667D01*
X6899952Y-13240190D01*
X7109476Y-13354476D02*
X7090428Y-13344952D01*
X7080905Y-13335428D01*
X7071381Y-13316381D01*
X7071381Y-13259238D01*
X7080905Y-13240190D01*
X7090428Y-13230667D01*
X7109476Y-13221143D01*
X7138048Y-13221143D01*
X7157095Y-13230667D01*
X7166619Y-13240190D01*
X7176143Y-13259238D01*
X7176143Y-13316381D01*
X7166619Y-13335428D01*
X7157095Y-13344952D01*
X7138048Y-13354476D01*
X7109476Y-13354476D01*
X7290428Y-13354476D02*
X7271381Y-13344952D01*
X7261857Y-13325905D01*
X7261857Y-13154476D01*
X7442809Y-13344952D02*
X7423762Y-13354476D01*
X7385667Y-13354476D01*
X7366619Y-13344952D01*
X7357095Y-13325905D01*
X7357095Y-13249714D01*
X7366619Y-13230667D01*
X7385667Y-13221143D01*
X7423762Y-13221143D01*
X7442809Y-13230667D01*
X7452333Y-13249714D01*
X7452333Y-13268762D01*
X7357095Y-13287809D01*
X7528524Y-13344952D02*
X7547571Y-13354476D01*
X7585667Y-13354476D01*
X7604714Y-13344952D01*
X7614238Y-13325905D01*
X7614238Y-13316381D01*
X7604714Y-13297333D01*
X7585667Y-13287809D01*
X7557095Y-13287809D01*
X7538048Y-13278286D01*
X7528524Y-13259238D01*
X7528524Y-13249714D01*
X7538048Y-13230667D01*
X7557095Y-13221143D01*
X7585667Y-13221143D01*
X7604714Y-13230667D01*
X7680905Y-13430667D02*
X7690428Y-13421143D01*
X7709476Y-13392571D01*
X7719000Y-13373524D01*
X7728524Y-13344952D01*
X7738048Y-13297333D01*
X7738048Y-13259238D01*
X7728524Y-13211619D01*
X7719000Y-13183048D01*
X7709476Y-13164000D01*
X7690428Y-13135428D01*
X7680905Y-13125905D01*
X8042809Y-13430667D02*
X8033286Y-13421143D01*
X8014238Y-13392571D01*
X8004714Y-13373524D01*
X7995190Y-13344952D01*
X7985667Y-13297333D01*
X7985667Y-13259238D01*
X7995190Y-13211619D01*
X8004714Y-13183048D01*
X8014238Y-13164000D01*
X8033286Y-13135428D01*
X8042809Y-13125905D01*
X8119000Y-13221143D02*
X8119000Y-13354476D01*
X8119000Y-13240190D02*
X8128524Y-13230667D01*
X8147571Y-13221143D01*
X8176143Y-13221143D01*
X8195190Y-13230667D01*
X8204714Y-13249714D01*
X8204714Y-13354476D01*
X8328524Y-13354476D02*
X8309476Y-13344952D01*
X8299952Y-13335428D01*
X8290428Y-13316381D01*
X8290428Y-13259238D01*
X8299952Y-13240190D01*
X8309476Y-13230667D01*
X8328524Y-13221143D01*
X8357095Y-13221143D01*
X8376143Y-13230667D01*
X8385667Y-13240190D01*
X8395190Y-13259238D01*
X8395190Y-13316381D01*
X8385667Y-13335428D01*
X8376143Y-13344952D01*
X8357095Y-13354476D01*
X8328524Y-13354476D01*
X8452333Y-13221143D02*
X8528524Y-13221143D01*
X8480905Y-13154476D02*
X8480905Y-13325905D01*
X8490429Y-13344952D01*
X8509476Y-13354476D01*
X8528524Y-13354476D01*
X8747571Y-13221143D02*
X8747571Y-13421143D01*
X8747571Y-13230667D02*
X8766619Y-13221143D01*
X8804714Y-13221143D01*
X8823762Y-13230667D01*
X8833286Y-13240190D01*
X8842810Y-13259238D01*
X8842810Y-13316381D01*
X8833286Y-13335428D01*
X8823762Y-13344952D01*
X8804714Y-13354476D01*
X8766619Y-13354476D01*
X8747571Y-13344952D01*
X8957095Y-13354476D02*
X8938048Y-13344952D01*
X8928524Y-13325905D01*
X8928524Y-13154476D01*
X9119000Y-13354476D02*
X9119000Y-13249714D01*
X9109476Y-13230667D01*
X9090429Y-13221143D01*
X9052333Y-13221143D01*
X9033286Y-13230667D01*
X9119000Y-13344952D02*
X9099952Y-13354476D01*
X9052333Y-13354476D01*
X9033286Y-13344952D01*
X9023762Y-13325905D01*
X9023762Y-13306857D01*
X9033286Y-13287809D01*
X9052333Y-13278286D01*
X9099952Y-13278286D01*
X9119000Y-13268762D01*
X9185667Y-13221143D02*
X9261857Y-13221143D01*
X9214238Y-13154476D02*
X9214238Y-13325905D01*
X9223762Y-13344952D01*
X9242810Y-13354476D01*
X9261857Y-13354476D01*
X9404714Y-13344952D02*
X9385667Y-13354476D01*
X9347571Y-13354476D01*
X9328524Y-13344952D01*
X9319000Y-13325905D01*
X9319000Y-13249714D01*
X9328524Y-13230667D01*
X9347571Y-13221143D01*
X9385667Y-13221143D01*
X9404714Y-13230667D01*
X9414238Y-13249714D01*
X9414238Y-13268762D01*
X9319000Y-13287809D01*
X9585667Y-13354476D02*
X9585667Y-13154476D01*
X9585667Y-13344952D02*
X9566619Y-13354476D01*
X9528524Y-13354476D01*
X9509476Y-13344952D01*
X9499952Y-13335428D01*
X9490429Y-13316381D01*
X9490429Y-13259238D01*
X9499952Y-13240190D01*
X9509476Y-13230667D01*
X9528524Y-13221143D01*
X9566619Y-13221143D01*
X9585667Y-13230667D01*
X9661857Y-13430667D02*
X9671381Y-13421143D01*
X9690429Y-13392571D01*
X9699952Y-13373524D01*
X9709476Y-13344952D01*
X9719000Y-13297333D01*
X9719000Y-13259238D01*
X9709476Y-13211619D01*
X9699952Y-13183048D01*
X9690429Y-13164000D01*
X9671381Y-13135428D01*
X9661857Y-13125905D01*
D21*
X2895820Y-13559820D02*
X2895820Y-13496180D01*
X2832180Y-13496180D01*
X2832180Y-13559820D01*
X2895820Y-13559820D01*
X2909000Y-13528000D02*
G75*
G03*
X2909000Y-13528000I-45000J0D01*
G01*
D11*
X3204714Y-13418476D02*
X3223762Y-13418476D01*
X3242809Y-13428000D01*
X3252333Y-13437524D01*
X3261857Y-13456571D01*
X3271381Y-13494667D01*
X3271381Y-13542286D01*
X3261857Y-13580381D01*
X3252333Y-13599428D01*
X3242809Y-13608952D01*
X3223762Y-13618476D01*
X3204714Y-13618476D01*
X3185667Y-13608952D01*
X3176143Y-13599428D01*
X3166619Y-13580381D01*
X3157095Y-13542286D01*
X3157095Y-13494667D01*
X3166619Y-13456571D01*
X3176143Y-13437524D01*
X3185667Y-13428000D01*
X3204714Y-13418476D01*
X3357095Y-13599428D02*
X3366619Y-13608952D01*
X3357095Y-13618476D01*
X3347571Y-13608952D01*
X3357095Y-13599428D01*
X3357095Y-13618476D01*
X3461857Y-13618476D02*
X3499952Y-13618476D01*
X3519000Y-13608952D01*
X3528524Y-13599428D01*
X3547571Y-13570857D01*
X3557095Y-13532762D01*
X3557095Y-13456571D01*
X3547571Y-13437524D01*
X3538048Y-13428000D01*
X3519000Y-13418476D01*
X3480905Y-13418476D01*
X3461857Y-13428000D01*
X3452333Y-13437524D01*
X3442809Y-13456571D01*
X3442809Y-13504190D01*
X3452333Y-13523238D01*
X3461857Y-13532762D01*
X3480905Y-13542286D01*
X3519000Y-13542286D01*
X3538048Y-13532762D01*
X3547571Y-13523238D01*
X3557095Y-13504190D01*
X3680905Y-13418476D02*
X3699952Y-13418476D01*
X3719000Y-13428000D01*
X3728524Y-13437524D01*
X3738048Y-13456571D01*
X3747571Y-13494667D01*
X3747571Y-13542286D01*
X3738048Y-13580381D01*
X3728524Y-13599428D01*
X3719000Y-13608952D01*
X3699952Y-13618476D01*
X3680905Y-13618476D01*
X3661857Y-13608952D01*
X3652333Y-13599428D01*
X3642809Y-13580381D01*
X3633286Y-13542286D01*
X3633286Y-13494667D01*
X3642809Y-13456571D01*
X3652333Y-13437524D01*
X3661857Y-13428000D01*
X3680905Y-13418476D01*
X3871381Y-13418476D02*
X3890428Y-13418476D01*
X3909476Y-13428000D01*
X3919000Y-13437524D01*
X3928524Y-13456571D01*
X3938048Y-13494667D01*
X3938048Y-13542286D01*
X3928524Y-13580381D01*
X3919000Y-13599428D01*
X3909476Y-13608952D01*
X3890428Y-13618476D01*
X3871381Y-13618476D01*
X3852333Y-13608952D01*
X3842809Y-13599428D01*
X3833286Y-13580381D01*
X3823762Y-13542286D01*
X3823762Y-13494667D01*
X3833286Y-13456571D01*
X3842809Y-13437524D01*
X3852333Y-13428000D01*
X3871381Y-13418476D01*
X4023762Y-13618476D02*
X4023762Y-13485143D01*
X4023762Y-13504190D02*
X4033286Y-13494667D01*
X4052333Y-13485143D01*
X4080905Y-13485143D01*
X4099952Y-13494667D01*
X4109476Y-13513714D01*
X4109476Y-13618476D01*
X4109476Y-13513714D02*
X4119000Y-13494667D01*
X4138048Y-13485143D01*
X4166619Y-13485143D01*
X4185667Y-13494667D01*
X4195190Y-13513714D01*
X4195190Y-13618476D01*
X4290429Y-13618476D02*
X4290429Y-13485143D01*
X4290429Y-13504190D02*
X4299952Y-13494667D01*
X4319000Y-13485143D01*
X4347571Y-13485143D01*
X4366619Y-13494667D01*
X4376143Y-13513714D01*
X4376143Y-13618476D01*
X4376143Y-13513714D02*
X4385667Y-13494667D01*
X4404714Y-13485143D01*
X4433286Y-13485143D01*
X4452333Y-13494667D01*
X4461857Y-13513714D01*
X4461857Y-13618476D01*
X4852333Y-13408952D02*
X4680905Y-13666095D01*
X5109476Y-13418476D02*
X5128524Y-13418476D01*
X5147571Y-13428000D01*
X5157095Y-13437524D01*
X5166619Y-13456571D01*
X5176143Y-13494667D01*
X5176143Y-13542286D01*
X5166619Y-13580381D01*
X5157095Y-13599428D01*
X5147571Y-13608952D01*
X5128524Y-13618476D01*
X5109476Y-13618476D01*
X5090429Y-13608952D01*
X5080905Y-13599428D01*
X5071381Y-13580381D01*
X5061857Y-13542286D01*
X5061857Y-13494667D01*
X5071381Y-13456571D01*
X5080905Y-13437524D01*
X5090429Y-13428000D01*
X5109476Y-13418476D01*
X5261857Y-13599428D02*
X5271381Y-13608952D01*
X5261857Y-13618476D01*
X5252333Y-13608952D01*
X5261857Y-13599428D01*
X5261857Y-13618476D01*
X5395190Y-13418476D02*
X5414238Y-13418476D01*
X5433286Y-13428000D01*
X5442810Y-13437524D01*
X5452333Y-13456571D01*
X5461857Y-13494667D01*
X5461857Y-13542286D01*
X5452333Y-13580381D01*
X5442810Y-13599428D01*
X5433286Y-13608952D01*
X5414238Y-13618476D01*
X5395190Y-13618476D01*
X5376143Y-13608952D01*
X5366619Y-13599428D01*
X5357095Y-13580381D01*
X5347571Y-13542286D01*
X5347571Y-13494667D01*
X5357095Y-13456571D01*
X5366619Y-13437524D01*
X5376143Y-13428000D01*
X5395190Y-13418476D01*
X5528524Y-13418476D02*
X5652333Y-13418476D01*
X5585667Y-13494667D01*
X5614238Y-13494667D01*
X5633286Y-13504190D01*
X5642809Y-13513714D01*
X5652333Y-13532762D01*
X5652333Y-13580381D01*
X5642809Y-13599428D01*
X5633286Y-13608952D01*
X5614238Y-13618476D01*
X5557095Y-13618476D01*
X5538048Y-13608952D01*
X5528524Y-13599428D01*
X5833286Y-13418476D02*
X5738048Y-13418476D01*
X5728524Y-13513714D01*
X5738048Y-13504190D01*
X5757095Y-13494667D01*
X5804714Y-13494667D01*
X5823762Y-13504190D01*
X5833286Y-13513714D01*
X5842809Y-13532762D01*
X5842809Y-13580381D01*
X5833286Y-13599428D01*
X5823762Y-13608952D01*
X5804714Y-13618476D01*
X5757095Y-13618476D01*
X5738048Y-13608952D01*
X5728524Y-13599428D01*
X6014238Y-13485143D02*
X6014238Y-13618476D01*
X5966619Y-13408952D02*
X5919000Y-13551809D01*
X6042809Y-13551809D01*
X6109476Y-13418476D02*
X6109476Y-13456571D01*
X6185667Y-13418476D02*
X6185667Y-13456571D01*
X6480905Y-13694667D02*
X6471381Y-13685143D01*
X6452333Y-13656571D01*
X6442809Y-13637524D01*
X6433286Y-13608952D01*
X6423762Y-13561333D01*
X6423762Y-13523238D01*
X6433286Y-13475619D01*
X6442809Y-13447048D01*
X6452333Y-13428000D01*
X6471381Y-13399428D01*
X6480905Y-13389905D01*
X6547571Y-13437524D02*
X6557095Y-13428000D01*
X6576143Y-13418476D01*
X6623762Y-13418476D01*
X6642809Y-13428000D01*
X6652333Y-13437524D01*
X6661857Y-13456571D01*
X6661857Y-13475619D01*
X6652333Y-13504190D01*
X6538048Y-13618476D01*
X6661857Y-13618476D01*
X6899952Y-13618476D02*
X6899952Y-13418476D01*
X6985667Y-13618476D02*
X6985667Y-13513714D01*
X6976143Y-13494667D01*
X6957095Y-13485143D01*
X6928524Y-13485143D01*
X6909476Y-13494667D01*
X6899952Y-13504190D01*
X7109476Y-13618476D02*
X7090428Y-13608952D01*
X7080905Y-13599428D01*
X7071381Y-13580381D01*
X7071381Y-13523238D01*
X7080905Y-13504190D01*
X7090428Y-13494667D01*
X7109476Y-13485143D01*
X7138048Y-13485143D01*
X7157095Y-13494667D01*
X7166619Y-13504190D01*
X7176143Y-13523238D01*
X7176143Y-13580381D01*
X7166619Y-13599428D01*
X7157095Y-13608952D01*
X7138048Y-13618476D01*
X7109476Y-13618476D01*
X7290428Y-13618476D02*
X7271381Y-13608952D01*
X7261857Y-13589905D01*
X7261857Y-13418476D01*
X7442809Y-13608952D02*
X7423762Y-13618476D01*
X7385667Y-13618476D01*
X7366619Y-13608952D01*
X7357095Y-13589905D01*
X7357095Y-13513714D01*
X7366619Y-13494667D01*
X7385667Y-13485143D01*
X7423762Y-13485143D01*
X7442809Y-13494667D01*
X7452333Y-13513714D01*
X7452333Y-13532762D01*
X7357095Y-13551809D01*
X7528524Y-13608952D02*
X7547571Y-13618476D01*
X7585667Y-13618476D01*
X7604714Y-13608952D01*
X7614238Y-13589905D01*
X7614238Y-13580381D01*
X7604714Y-13561333D01*
X7585667Y-13551809D01*
X7557095Y-13551809D01*
X7538048Y-13542286D01*
X7528524Y-13523238D01*
X7528524Y-13513714D01*
X7538048Y-13494667D01*
X7557095Y-13485143D01*
X7585667Y-13485143D01*
X7604714Y-13494667D01*
X7680905Y-13694667D02*
X7690428Y-13685143D01*
X7709476Y-13656571D01*
X7719000Y-13637524D01*
X7728524Y-13608952D01*
X7738048Y-13561333D01*
X7738048Y-13523238D01*
X7728524Y-13475619D01*
X7719000Y-13447048D01*
X7709476Y-13428000D01*
X7690428Y-13399428D01*
X7680905Y-13389905D01*
X8042809Y-13694667D02*
X8033286Y-13685143D01*
X8014238Y-13656571D01*
X8004714Y-13637524D01*
X7995190Y-13608952D01*
X7985667Y-13561333D01*
X7985667Y-13523238D01*
X7995190Y-13475619D01*
X8004714Y-13447048D01*
X8014238Y-13428000D01*
X8033286Y-13399428D01*
X8042809Y-13389905D01*
X8119000Y-13485143D02*
X8119000Y-13618476D01*
X8119000Y-13504190D02*
X8128524Y-13494667D01*
X8147571Y-13485143D01*
X8176143Y-13485143D01*
X8195190Y-13494667D01*
X8204714Y-13513714D01*
X8204714Y-13618476D01*
X8328524Y-13618476D02*
X8309476Y-13608952D01*
X8299952Y-13599428D01*
X8290428Y-13580381D01*
X8290428Y-13523238D01*
X8299952Y-13504190D01*
X8309476Y-13494667D01*
X8328524Y-13485143D01*
X8357095Y-13485143D01*
X8376143Y-13494667D01*
X8385667Y-13504190D01*
X8395190Y-13523238D01*
X8395190Y-13580381D01*
X8385667Y-13599428D01*
X8376143Y-13608952D01*
X8357095Y-13618476D01*
X8328524Y-13618476D01*
X8452333Y-13485143D02*
X8528524Y-13485143D01*
X8480905Y-13418476D02*
X8480905Y-13589905D01*
X8490429Y-13608952D01*
X8509476Y-13618476D01*
X8528524Y-13618476D01*
X8747571Y-13485143D02*
X8747571Y-13685143D01*
X8747571Y-13494667D02*
X8766619Y-13485143D01*
X8804714Y-13485143D01*
X8823762Y-13494667D01*
X8833286Y-13504190D01*
X8842810Y-13523238D01*
X8842810Y-13580381D01*
X8833286Y-13599428D01*
X8823762Y-13608952D01*
X8804714Y-13618476D01*
X8766619Y-13618476D01*
X8747571Y-13608952D01*
X8957095Y-13618476D02*
X8938048Y-13608952D01*
X8928524Y-13589905D01*
X8928524Y-13418476D01*
X9119000Y-13618476D02*
X9119000Y-13513714D01*
X9109476Y-13494667D01*
X9090429Y-13485143D01*
X9052333Y-13485143D01*
X9033286Y-13494667D01*
X9119000Y-13608952D02*
X9099952Y-13618476D01*
X9052333Y-13618476D01*
X9033286Y-13608952D01*
X9023762Y-13589905D01*
X9023762Y-13570857D01*
X9033286Y-13551809D01*
X9052333Y-13542286D01*
X9099952Y-13542286D01*
X9119000Y-13532762D01*
X9185667Y-13485143D02*
X9261857Y-13485143D01*
X9214238Y-13418476D02*
X9214238Y-13589905D01*
X9223762Y-13608952D01*
X9242810Y-13618476D01*
X9261857Y-13618476D01*
X9404714Y-13608952D02*
X9385667Y-13618476D01*
X9347571Y-13618476D01*
X9328524Y-13608952D01*
X9319000Y-13589905D01*
X9319000Y-13513714D01*
X9328524Y-13494667D01*
X9347571Y-13485143D01*
X9385667Y-13485143D01*
X9404714Y-13494667D01*
X9414238Y-13513714D01*
X9414238Y-13532762D01*
X9319000Y-13551809D01*
X9585667Y-13618476D02*
X9585667Y-13418476D01*
X9585667Y-13608952D02*
X9566619Y-13618476D01*
X9528524Y-13618476D01*
X9509476Y-13608952D01*
X9499952Y-13599428D01*
X9490429Y-13580381D01*
X9490429Y-13523238D01*
X9499952Y-13504190D01*
X9509476Y-13494667D01*
X9528524Y-13485143D01*
X9566619Y-13485143D01*
X9585667Y-13494667D01*
X9661857Y-13694667D02*
X9671381Y-13685143D01*
X9690429Y-13656571D01*
X9699952Y-13637524D01*
X9709476Y-13608952D01*
X9719000Y-13561333D01*
X9719000Y-13523238D01*
X9709476Y-13475619D01*
X9699952Y-13447048D01*
X9690429Y-13428000D01*
X9671381Y-13399428D01*
X9661857Y-13389905D01*
D22*
X2824000Y-13877000D02*
X2909000Y-13792000D01*
X2824000Y-13707000D01*
X2739000Y-13792000D01*
X2824000Y-13877000D01*
X2909000Y-13792000D02*
G75*
G03*
X2909000Y-13792000I-85000J0D01*
G01*
D11*
X3271381Y-13882476D02*
X3157095Y-13882476D01*
X3214238Y-13882476D02*
X3214238Y-13682476D01*
X3195190Y-13711048D01*
X3176143Y-13730095D01*
X3157095Y-13739619D01*
X3357095Y-13863428D02*
X3366619Y-13872952D01*
X3357095Y-13882476D01*
X3347571Y-13872952D01*
X3357095Y-13863428D01*
X3357095Y-13882476D01*
X3433286Y-13682476D02*
X3566619Y-13682476D01*
X3480905Y-13882476D01*
X3680905Y-13682476D02*
X3699952Y-13682476D01*
X3719000Y-13692000D01*
X3728524Y-13701524D01*
X3738048Y-13720571D01*
X3747571Y-13758667D01*
X3747571Y-13806286D01*
X3738048Y-13844381D01*
X3728524Y-13863428D01*
X3719000Y-13872952D01*
X3699952Y-13882476D01*
X3680905Y-13882476D01*
X3661857Y-13872952D01*
X3652333Y-13863428D01*
X3642809Y-13844381D01*
X3633286Y-13806286D01*
X3633286Y-13758667D01*
X3642809Y-13720571D01*
X3652333Y-13701524D01*
X3661857Y-13692000D01*
X3680905Y-13682476D01*
X3871381Y-13682476D02*
X3890428Y-13682476D01*
X3909476Y-13692000D01*
X3919000Y-13701524D01*
X3928524Y-13720571D01*
X3938048Y-13758667D01*
X3938048Y-13806286D01*
X3928524Y-13844381D01*
X3919000Y-13863428D01*
X3909476Y-13872952D01*
X3890428Y-13882476D01*
X3871381Y-13882476D01*
X3852333Y-13872952D01*
X3842809Y-13863428D01*
X3833286Y-13844381D01*
X3823762Y-13806286D01*
X3823762Y-13758667D01*
X3833286Y-13720571D01*
X3842809Y-13701524D01*
X3852333Y-13692000D01*
X3871381Y-13682476D01*
X4023762Y-13882476D02*
X4023762Y-13749143D01*
X4023762Y-13768190D02*
X4033286Y-13758667D01*
X4052333Y-13749143D01*
X4080905Y-13749143D01*
X4099952Y-13758667D01*
X4109476Y-13777714D01*
X4109476Y-13882476D01*
X4109476Y-13777714D02*
X4119000Y-13758667D01*
X4138048Y-13749143D01*
X4166619Y-13749143D01*
X4185667Y-13758667D01*
X4195190Y-13777714D01*
X4195190Y-13882476D01*
X4290429Y-13882476D02*
X4290429Y-13749143D01*
X4290429Y-13768190D02*
X4299952Y-13758667D01*
X4319000Y-13749143D01*
X4347571Y-13749143D01*
X4366619Y-13758667D01*
X4376143Y-13777714D01*
X4376143Y-13882476D01*
X4376143Y-13777714D02*
X4385667Y-13758667D01*
X4404714Y-13749143D01*
X4433286Y-13749143D01*
X4452333Y-13758667D01*
X4461857Y-13777714D01*
X4461857Y-13882476D01*
X4852333Y-13672952D02*
X4680905Y-13930095D01*
X5109476Y-13682476D02*
X5128524Y-13682476D01*
X5147571Y-13692000D01*
X5157095Y-13701524D01*
X5166619Y-13720571D01*
X5176143Y-13758667D01*
X5176143Y-13806286D01*
X5166619Y-13844381D01*
X5157095Y-13863428D01*
X5147571Y-13872952D01*
X5128524Y-13882476D01*
X5109476Y-13882476D01*
X5090429Y-13872952D01*
X5080905Y-13863428D01*
X5071381Y-13844381D01*
X5061857Y-13806286D01*
X5061857Y-13758667D01*
X5071381Y-13720571D01*
X5080905Y-13701524D01*
X5090429Y-13692000D01*
X5109476Y-13682476D01*
X5261857Y-13863428D02*
X5271381Y-13872952D01*
X5261857Y-13882476D01*
X5252333Y-13872952D01*
X5261857Y-13863428D01*
X5261857Y-13882476D01*
X5395190Y-13682476D02*
X5414238Y-13682476D01*
X5433286Y-13692000D01*
X5442810Y-13701524D01*
X5452333Y-13720571D01*
X5461857Y-13758667D01*
X5461857Y-13806286D01*
X5452333Y-13844381D01*
X5442810Y-13863428D01*
X5433286Y-13872952D01*
X5414238Y-13882476D01*
X5395190Y-13882476D01*
X5376143Y-13872952D01*
X5366619Y-13863428D01*
X5357095Y-13844381D01*
X5347571Y-13806286D01*
X5347571Y-13758667D01*
X5357095Y-13720571D01*
X5366619Y-13701524D01*
X5376143Y-13692000D01*
X5395190Y-13682476D01*
X5633286Y-13682476D02*
X5595190Y-13682476D01*
X5576143Y-13692000D01*
X5566619Y-13701524D01*
X5547571Y-13730095D01*
X5538048Y-13768190D01*
X5538048Y-13844381D01*
X5547571Y-13863428D01*
X5557095Y-13872952D01*
X5576143Y-13882476D01*
X5614238Y-13882476D01*
X5633286Y-13872952D01*
X5642809Y-13863428D01*
X5652333Y-13844381D01*
X5652333Y-13796762D01*
X5642809Y-13777714D01*
X5633286Y-13768190D01*
X5614238Y-13758667D01*
X5576143Y-13758667D01*
X5557095Y-13768190D01*
X5547571Y-13777714D01*
X5538048Y-13796762D01*
X5823762Y-13682476D02*
X5785667Y-13682476D01*
X5766619Y-13692000D01*
X5757095Y-13701524D01*
X5738048Y-13730095D01*
X5728524Y-13768190D01*
X5728524Y-13844381D01*
X5738048Y-13863428D01*
X5747571Y-13872952D01*
X5766619Y-13882476D01*
X5804714Y-13882476D01*
X5823762Y-13872952D01*
X5833286Y-13863428D01*
X5842809Y-13844381D01*
X5842809Y-13796762D01*
X5833286Y-13777714D01*
X5823762Y-13768190D01*
X5804714Y-13758667D01*
X5766619Y-13758667D01*
X5747571Y-13768190D01*
X5738048Y-13777714D01*
X5728524Y-13796762D01*
X5938048Y-13882476D02*
X5976143Y-13882476D01*
X5995190Y-13872952D01*
X6004714Y-13863428D01*
X6023762Y-13834857D01*
X6033286Y-13796762D01*
X6033286Y-13720571D01*
X6023762Y-13701524D01*
X6014238Y-13692000D01*
X5995190Y-13682476D01*
X5957095Y-13682476D01*
X5938048Y-13692000D01*
X5928524Y-13701524D01*
X5919000Y-13720571D01*
X5919000Y-13768190D01*
X5928524Y-13787238D01*
X5938048Y-13796762D01*
X5957095Y-13806286D01*
X5995190Y-13806286D01*
X6014238Y-13796762D01*
X6023762Y-13787238D01*
X6033286Y-13768190D01*
X6109476Y-13682476D02*
X6109476Y-13720571D01*
X6185667Y-13682476D02*
X6185667Y-13720571D01*
X6480905Y-13958667D02*
X6471381Y-13949143D01*
X6452333Y-13920571D01*
X6442809Y-13901524D01*
X6433286Y-13872952D01*
X6423762Y-13825333D01*
X6423762Y-13787238D01*
X6433286Y-13739619D01*
X6442809Y-13711048D01*
X6452333Y-13692000D01*
X6471381Y-13663428D01*
X6480905Y-13653905D01*
X6661857Y-13882476D02*
X6547571Y-13882476D01*
X6604714Y-13882476D02*
X6604714Y-13682476D01*
X6585667Y-13711048D01*
X6566619Y-13730095D01*
X6547571Y-13739619D01*
X6833286Y-13682476D02*
X6795190Y-13682476D01*
X6776143Y-13692000D01*
X6766619Y-13701524D01*
X6747571Y-13730095D01*
X6738048Y-13768190D01*
X6738048Y-13844381D01*
X6747571Y-13863428D01*
X6757095Y-13872952D01*
X6776143Y-13882476D01*
X6814238Y-13882476D01*
X6833286Y-13872952D01*
X6842809Y-13863428D01*
X6852333Y-13844381D01*
X6852333Y-13796762D01*
X6842809Y-13777714D01*
X6833286Y-13768190D01*
X6814238Y-13758667D01*
X6776143Y-13758667D01*
X6757095Y-13768190D01*
X6747571Y-13777714D01*
X6738048Y-13796762D01*
X7090428Y-13882476D02*
X7090428Y-13682476D01*
X7176143Y-13882476D02*
X7176143Y-13777714D01*
X7166619Y-13758667D01*
X7147571Y-13749143D01*
X7119000Y-13749143D01*
X7099952Y-13758667D01*
X7090428Y-13768190D01*
X7299952Y-13882476D02*
X7280905Y-13872952D01*
X7271381Y-13863428D01*
X7261857Y-13844381D01*
X7261857Y-13787238D01*
X7271381Y-13768190D01*
X7280905Y-13758667D01*
X7299952Y-13749143D01*
X7328524Y-13749143D01*
X7347571Y-13758667D01*
X7357095Y-13768190D01*
X7366619Y-13787238D01*
X7366619Y-13844381D01*
X7357095Y-13863428D01*
X7347571Y-13872952D01*
X7328524Y-13882476D01*
X7299952Y-13882476D01*
X7480905Y-13882476D02*
X7461857Y-13872952D01*
X7452333Y-13853905D01*
X7452333Y-13682476D01*
X7633286Y-13872952D02*
X7614238Y-13882476D01*
X7576143Y-13882476D01*
X7557095Y-13872952D01*
X7547571Y-13853905D01*
X7547571Y-13777714D01*
X7557095Y-13758667D01*
X7576143Y-13749143D01*
X7614238Y-13749143D01*
X7633286Y-13758667D01*
X7642809Y-13777714D01*
X7642809Y-13796762D01*
X7547571Y-13815809D01*
X7719000Y-13872952D02*
X7738048Y-13882476D01*
X7776143Y-13882476D01*
X7795190Y-13872952D01*
X7804714Y-13853905D01*
X7804714Y-13844381D01*
X7795190Y-13825333D01*
X7776143Y-13815809D01*
X7747571Y-13815809D01*
X7728524Y-13806286D01*
X7719000Y-13787238D01*
X7719000Y-13777714D01*
X7728524Y-13758667D01*
X7747571Y-13749143D01*
X7776143Y-13749143D01*
X7795190Y-13758667D01*
X7871381Y-13958667D02*
X7880905Y-13949143D01*
X7899952Y-13920571D01*
X7909476Y-13901524D01*
X7919000Y-13872952D01*
X7928524Y-13825333D01*
X7928524Y-13787238D01*
X7919000Y-13739619D01*
X7909476Y-13711048D01*
X7899952Y-13692000D01*
X7880905Y-13663428D01*
X7871381Y-13653905D01*
X8233286Y-13958667D02*
X8223762Y-13949143D01*
X8204714Y-13920571D01*
X8195190Y-13901524D01*
X8185667Y-13872952D01*
X8176143Y-13825333D01*
X8176143Y-13787238D01*
X8185667Y-13739619D01*
X8195190Y-13711048D01*
X8204714Y-13692000D01*
X8223762Y-13663428D01*
X8233286Y-13653905D01*
X8309476Y-13749143D02*
X8309476Y-13882476D01*
X8309476Y-13768190D02*
X8319000Y-13758667D01*
X8338048Y-13749143D01*
X8366619Y-13749143D01*
X8385667Y-13758667D01*
X8395190Y-13777714D01*
X8395190Y-13882476D01*
X8519000Y-13882476D02*
X8499952Y-13872952D01*
X8490429Y-13863428D01*
X8480905Y-13844381D01*
X8480905Y-13787238D01*
X8490429Y-13768190D01*
X8499952Y-13758667D01*
X8519000Y-13749143D01*
X8547571Y-13749143D01*
X8566619Y-13758667D01*
X8576143Y-13768190D01*
X8585667Y-13787238D01*
X8585667Y-13844381D01*
X8576143Y-13863428D01*
X8566619Y-13872952D01*
X8547571Y-13882476D01*
X8519000Y-13882476D01*
X8642810Y-13749143D02*
X8719000Y-13749143D01*
X8671381Y-13682476D02*
X8671381Y-13853905D01*
X8680905Y-13872952D01*
X8699952Y-13882476D01*
X8719000Y-13882476D01*
X8938048Y-13749143D02*
X8938048Y-13949143D01*
X8938048Y-13758667D02*
X8957095Y-13749143D01*
X8995190Y-13749143D01*
X9014238Y-13758667D01*
X9023762Y-13768190D01*
X9033286Y-13787238D01*
X9033286Y-13844381D01*
X9023762Y-13863428D01*
X9014238Y-13872952D01*
X8995190Y-13882476D01*
X8957095Y-13882476D01*
X8938048Y-13872952D01*
X9147571Y-13882476D02*
X9128524Y-13872952D01*
X9119000Y-13853905D01*
X9119000Y-13682476D01*
X9309476Y-13882476D02*
X9309476Y-13777714D01*
X9299952Y-13758667D01*
X9280905Y-13749143D01*
X9242810Y-13749143D01*
X9223762Y-13758667D01*
X9309476Y-13872952D02*
X9290429Y-13882476D01*
X9242810Y-13882476D01*
X9223762Y-13872952D01*
X9214238Y-13853905D01*
X9214238Y-13834857D01*
X9223762Y-13815809D01*
X9242810Y-13806286D01*
X9290429Y-13806286D01*
X9309476Y-13796762D01*
X9376143Y-13749143D02*
X9452333Y-13749143D01*
X9404714Y-13682476D02*
X9404714Y-13853905D01*
X9414238Y-13872952D01*
X9433286Y-13882476D01*
X9452333Y-13882476D01*
X9595190Y-13872952D02*
X9576143Y-13882476D01*
X9538048Y-13882476D01*
X9519000Y-13872952D01*
X9509476Y-13853905D01*
X9509476Y-13777714D01*
X9519000Y-13758667D01*
X9538048Y-13749143D01*
X9576143Y-13749143D01*
X9595190Y-13758667D01*
X9604714Y-13777714D01*
X9604714Y-13796762D01*
X9509476Y-13815809D01*
X9776143Y-13882476D02*
X9776143Y-13682476D01*
X9776143Y-13872952D02*
X9757095Y-13882476D01*
X9719000Y-13882476D01*
X9699952Y-13872952D01*
X9690429Y-13863428D01*
X9680905Y-13844381D01*
X9680905Y-13787238D01*
X9690429Y-13768190D01*
X9699952Y-13758667D01*
X9719000Y-13749143D01*
X9757095Y-13749143D01*
X9776143Y-13758667D01*
X9852333Y-13958667D02*
X9861857Y-13949143D01*
X9880905Y-13920571D01*
X9890429Y-13901524D01*
X9899952Y-13872952D01*
X9909476Y-13825333D01*
X9909476Y-13787238D01*
X9899952Y-13739619D01*
X9890429Y-13711048D01*
X9880905Y-13692000D01*
X9861857Y-13663428D01*
X9852333Y-13653905D01*
X2809000Y-13982000D02*
X2809000Y-14182000D01*
X2709000Y-14082000D02*
X2909000Y-14082000D01*
X2879711Y-14152711D02*
X2879711Y-14011289D01*
X2738289Y-14011289D01*
X2738289Y-14152711D01*
X2879711Y-14152711D01*
X3252333Y-14039143D02*
X3252333Y-14172476D01*
X3204714Y-13962952D02*
X3157095Y-14105809D01*
X3280905Y-14105809D01*
X3357095Y-14153428D02*
X3366619Y-14162952D01*
X3357095Y-14172476D01*
X3347571Y-14162952D01*
X3357095Y-14153428D01*
X3357095Y-14172476D01*
X3490428Y-13972476D02*
X3509476Y-13972476D01*
X3528524Y-13982000D01*
X3538048Y-13991524D01*
X3547571Y-14010571D01*
X3557095Y-14048667D01*
X3557095Y-14096286D01*
X3547571Y-14134381D01*
X3538048Y-14153428D01*
X3528524Y-14162952D01*
X3509476Y-14172476D01*
X3490428Y-14172476D01*
X3471381Y-14162952D01*
X3461857Y-14153428D01*
X3452333Y-14134381D01*
X3442809Y-14096286D01*
X3442809Y-14048667D01*
X3452333Y-14010571D01*
X3461857Y-13991524D01*
X3471381Y-13982000D01*
X3490428Y-13972476D01*
X3680905Y-13972476D02*
X3699952Y-13972476D01*
X3719000Y-13982000D01*
X3728524Y-13991524D01*
X3738048Y-14010571D01*
X3747571Y-14048667D01*
X3747571Y-14096286D01*
X3738048Y-14134381D01*
X3728524Y-14153428D01*
X3719000Y-14162952D01*
X3699952Y-14172476D01*
X3680905Y-14172476D01*
X3661857Y-14162952D01*
X3652333Y-14153428D01*
X3642809Y-14134381D01*
X3633286Y-14096286D01*
X3633286Y-14048667D01*
X3642809Y-14010571D01*
X3652333Y-13991524D01*
X3661857Y-13982000D01*
X3680905Y-13972476D01*
X3871381Y-13972476D02*
X3890428Y-13972476D01*
X3909476Y-13982000D01*
X3919000Y-13991524D01*
X3928524Y-14010571D01*
X3938048Y-14048667D01*
X3938048Y-14096286D01*
X3928524Y-14134381D01*
X3919000Y-14153428D01*
X3909476Y-14162952D01*
X3890428Y-14172476D01*
X3871381Y-14172476D01*
X3852333Y-14162952D01*
X3842809Y-14153428D01*
X3833286Y-14134381D01*
X3823762Y-14096286D01*
X3823762Y-14048667D01*
X3833286Y-14010571D01*
X3842809Y-13991524D01*
X3852333Y-13982000D01*
X3871381Y-13972476D01*
X4023762Y-14172476D02*
X4023762Y-14039143D01*
X4023762Y-14058190D02*
X4033286Y-14048667D01*
X4052333Y-14039143D01*
X4080905Y-14039143D01*
X4099952Y-14048667D01*
X4109476Y-14067714D01*
X4109476Y-14172476D01*
X4109476Y-14067714D02*
X4119000Y-14048667D01*
X4138048Y-14039143D01*
X4166619Y-14039143D01*
X4185667Y-14048667D01*
X4195190Y-14067714D01*
X4195190Y-14172476D01*
X4290429Y-14172476D02*
X4290429Y-14039143D01*
X4290429Y-14058190D02*
X4299952Y-14048667D01*
X4319000Y-14039143D01*
X4347571Y-14039143D01*
X4366619Y-14048667D01*
X4376143Y-14067714D01*
X4376143Y-14172476D01*
X4376143Y-14067714D02*
X4385667Y-14048667D01*
X4404714Y-14039143D01*
X4433286Y-14039143D01*
X4452333Y-14048667D01*
X4461857Y-14067714D01*
X4461857Y-14172476D01*
X4852333Y-13962952D02*
X4680905Y-14220095D01*
X5109476Y-13972476D02*
X5128524Y-13972476D01*
X5147571Y-13982000D01*
X5157095Y-13991524D01*
X5166619Y-14010571D01*
X5176143Y-14048667D01*
X5176143Y-14096286D01*
X5166619Y-14134381D01*
X5157095Y-14153428D01*
X5147571Y-14162952D01*
X5128524Y-14172476D01*
X5109476Y-14172476D01*
X5090429Y-14162952D01*
X5080905Y-14153428D01*
X5071381Y-14134381D01*
X5061857Y-14096286D01*
X5061857Y-14048667D01*
X5071381Y-14010571D01*
X5080905Y-13991524D01*
X5090429Y-13982000D01*
X5109476Y-13972476D01*
X5261857Y-14153428D02*
X5271381Y-14162952D01*
X5261857Y-14172476D01*
X5252333Y-14162952D01*
X5261857Y-14153428D01*
X5261857Y-14172476D01*
X5461857Y-14172476D02*
X5347571Y-14172476D01*
X5404714Y-14172476D02*
X5404714Y-13972476D01*
X5385667Y-14001048D01*
X5366619Y-14020095D01*
X5347571Y-14029619D01*
X5642809Y-13972476D02*
X5547571Y-13972476D01*
X5538048Y-14067714D01*
X5547571Y-14058190D01*
X5566619Y-14048667D01*
X5614238Y-14048667D01*
X5633286Y-14058190D01*
X5642809Y-14067714D01*
X5652333Y-14086762D01*
X5652333Y-14134381D01*
X5642809Y-14153428D01*
X5633286Y-14162952D01*
X5614238Y-14172476D01*
X5566619Y-14172476D01*
X5547571Y-14162952D01*
X5538048Y-14153428D01*
X5719000Y-13972476D02*
X5852333Y-13972476D01*
X5766619Y-14172476D01*
X6023762Y-13972476D02*
X5928524Y-13972476D01*
X5919000Y-14067714D01*
X5928524Y-14058190D01*
X5947571Y-14048667D01*
X5995190Y-14048667D01*
X6014238Y-14058190D01*
X6023762Y-14067714D01*
X6033286Y-14086762D01*
X6033286Y-14134381D01*
X6023762Y-14153428D01*
X6014238Y-14162952D01*
X5995190Y-14172476D01*
X5947571Y-14172476D01*
X5928524Y-14162952D01*
X5919000Y-14153428D01*
X6109476Y-13972476D02*
X6109476Y-14010571D01*
X6185667Y-13972476D02*
X6185667Y-14010571D01*
X6480905Y-14248667D02*
X6471381Y-14239143D01*
X6452333Y-14210571D01*
X6442809Y-14191524D01*
X6433286Y-14162952D01*
X6423762Y-14115333D01*
X6423762Y-14077238D01*
X6433286Y-14029619D01*
X6442809Y-14001048D01*
X6452333Y-13982000D01*
X6471381Y-13953428D01*
X6480905Y-13943905D01*
X6585667Y-14058190D02*
X6566619Y-14048667D01*
X6557095Y-14039143D01*
X6547571Y-14020095D01*
X6547571Y-14010571D01*
X6557095Y-13991524D01*
X6566619Y-13982000D01*
X6585667Y-13972476D01*
X6623762Y-13972476D01*
X6642809Y-13982000D01*
X6652333Y-13991524D01*
X6661857Y-14010571D01*
X6661857Y-14020095D01*
X6652333Y-14039143D01*
X6642809Y-14048667D01*
X6623762Y-14058190D01*
X6585667Y-14058190D01*
X6566619Y-14067714D01*
X6557095Y-14077238D01*
X6547571Y-14096286D01*
X6547571Y-14134381D01*
X6557095Y-14153428D01*
X6566619Y-14162952D01*
X6585667Y-14172476D01*
X6623762Y-14172476D01*
X6642809Y-14162952D01*
X6652333Y-14153428D01*
X6661857Y-14134381D01*
X6661857Y-14096286D01*
X6652333Y-14077238D01*
X6642809Y-14067714D01*
X6623762Y-14058190D01*
X6899952Y-14172476D02*
X6899952Y-13972476D01*
X6985667Y-14172476D02*
X6985667Y-14067714D01*
X6976143Y-14048667D01*
X6957095Y-14039143D01*
X6928524Y-14039143D01*
X6909476Y-14048667D01*
X6899952Y-14058190D01*
X7109476Y-14172476D02*
X7090428Y-14162952D01*
X7080905Y-14153428D01*
X7071381Y-14134381D01*
X7071381Y-14077238D01*
X7080905Y-14058190D01*
X7090428Y-14048667D01*
X7109476Y-14039143D01*
X7138048Y-14039143D01*
X7157095Y-14048667D01*
X7166619Y-14058190D01*
X7176143Y-14077238D01*
X7176143Y-14134381D01*
X7166619Y-14153428D01*
X7157095Y-14162952D01*
X7138048Y-14172476D01*
X7109476Y-14172476D01*
X7290428Y-14172476D02*
X7271381Y-14162952D01*
X7261857Y-14143905D01*
X7261857Y-13972476D01*
X7442809Y-14162952D02*
X7423762Y-14172476D01*
X7385667Y-14172476D01*
X7366619Y-14162952D01*
X7357095Y-14143905D01*
X7357095Y-14067714D01*
X7366619Y-14048667D01*
X7385667Y-14039143D01*
X7423762Y-14039143D01*
X7442809Y-14048667D01*
X7452333Y-14067714D01*
X7452333Y-14086762D01*
X7357095Y-14105809D01*
X7528524Y-14162952D02*
X7547571Y-14172476D01*
X7585667Y-14172476D01*
X7604714Y-14162952D01*
X7614238Y-14143905D01*
X7614238Y-14134381D01*
X7604714Y-14115333D01*
X7585667Y-14105809D01*
X7557095Y-14105809D01*
X7538048Y-14096286D01*
X7528524Y-14077238D01*
X7528524Y-14067714D01*
X7538048Y-14048667D01*
X7557095Y-14039143D01*
X7585667Y-14039143D01*
X7604714Y-14048667D01*
X7680905Y-14248667D02*
X7690428Y-14239143D01*
X7709476Y-14210571D01*
X7719000Y-14191524D01*
X7728524Y-14162952D01*
X7738048Y-14115333D01*
X7738048Y-14077238D01*
X7728524Y-14029619D01*
X7719000Y-14001048D01*
X7709476Y-13982000D01*
X7690428Y-13953428D01*
X7680905Y-13943905D01*
X8042809Y-14248667D02*
X8033286Y-14239143D01*
X8014238Y-14210571D01*
X8004714Y-14191524D01*
X7995190Y-14162952D01*
X7985667Y-14115333D01*
X7985667Y-14077238D01*
X7995190Y-14029619D01*
X8004714Y-14001048D01*
X8014238Y-13982000D01*
X8033286Y-13953428D01*
X8042809Y-13943905D01*
X8119000Y-14039143D02*
X8119000Y-14172476D01*
X8119000Y-14058190D02*
X8128524Y-14048667D01*
X8147571Y-14039143D01*
X8176143Y-14039143D01*
X8195190Y-14048667D01*
X8204714Y-14067714D01*
X8204714Y-14172476D01*
X8328524Y-14172476D02*
X8309476Y-14162952D01*
X8299952Y-14153428D01*
X8290428Y-14134381D01*
X8290428Y-14077238D01*
X8299952Y-14058190D01*
X8309476Y-14048667D01*
X8328524Y-14039143D01*
X8357095Y-14039143D01*
X8376143Y-14048667D01*
X8385667Y-14058190D01*
X8395190Y-14077238D01*
X8395190Y-14134381D01*
X8385667Y-14153428D01*
X8376143Y-14162952D01*
X8357095Y-14172476D01*
X8328524Y-14172476D01*
X8452333Y-14039143D02*
X8528524Y-14039143D01*
X8480905Y-13972476D02*
X8480905Y-14143905D01*
X8490429Y-14162952D01*
X8509476Y-14172476D01*
X8528524Y-14172476D01*
X8747571Y-14039143D02*
X8747571Y-14239143D01*
X8747571Y-14048667D02*
X8766619Y-14039143D01*
X8804714Y-14039143D01*
X8823762Y-14048667D01*
X8833286Y-14058190D01*
X8842810Y-14077238D01*
X8842810Y-14134381D01*
X8833286Y-14153428D01*
X8823762Y-14162952D01*
X8804714Y-14172476D01*
X8766619Y-14172476D01*
X8747571Y-14162952D01*
X8957095Y-14172476D02*
X8938048Y-14162952D01*
X8928524Y-14143905D01*
X8928524Y-13972476D01*
X9119000Y-14172476D02*
X9119000Y-14067714D01*
X9109476Y-14048667D01*
X9090429Y-14039143D01*
X9052333Y-14039143D01*
X9033286Y-14048667D01*
X9119000Y-14162952D02*
X9099952Y-14172476D01*
X9052333Y-14172476D01*
X9033286Y-14162952D01*
X9023762Y-14143905D01*
X9023762Y-14124857D01*
X9033286Y-14105809D01*
X9052333Y-14096286D01*
X9099952Y-14096286D01*
X9119000Y-14086762D01*
X9185667Y-14039143D02*
X9261857Y-14039143D01*
X9214238Y-13972476D02*
X9214238Y-14143905D01*
X9223762Y-14162952D01*
X9242810Y-14172476D01*
X9261857Y-14172476D01*
X9404714Y-14162952D02*
X9385667Y-14172476D01*
X9347571Y-14172476D01*
X9328524Y-14162952D01*
X9319000Y-14143905D01*
X9319000Y-14067714D01*
X9328524Y-14048667D01*
X9347571Y-14039143D01*
X9385667Y-14039143D01*
X9404714Y-14048667D01*
X9414238Y-14067714D01*
X9414238Y-14086762D01*
X9319000Y-14105809D01*
X9585667Y-14172476D02*
X9585667Y-13972476D01*
X9585667Y-14162952D02*
X9566619Y-14172476D01*
X9528524Y-14172476D01*
X9509476Y-14162952D01*
X9499952Y-14153428D01*
X9490429Y-14134381D01*
X9490429Y-14077238D01*
X9499952Y-14058190D01*
X9509476Y-14048667D01*
X9528524Y-14039143D01*
X9566619Y-14039143D01*
X9585667Y-14048667D01*
X9661857Y-14248667D02*
X9671381Y-14239143D01*
X9690429Y-14210571D01*
X9699952Y-14191524D01*
X9709476Y-14162952D01*
X9719000Y-14115333D01*
X9719000Y-14077238D01*
X9709476Y-14029619D01*
X9699952Y-14001048D01*
X9690429Y-13982000D01*
X9671381Y-13953428D01*
X9661857Y-13943905D01*
M02*
