%TF.GenerationSoftware,KiCad,Pcbnew,(6.0.10)*%
%TF.CreationDate,2023-03-05T14:49:45+05:30*%
%TF.ProjectId,keyboardv3,6b657962-6f61-4726-9476-332e6b696361,rev?*%
%TF.SameCoordinates,Original*%
%TF.FileFunction,Legend,Top*%
%TF.FilePolarity,Positive*%
%FSLAX46Y46*%
G04 Gerber Fmt 4.6, Leading zero omitted, Abs format (unit mm)*
G04 Created by KiCad (PCBNEW (6.0.10)) date 2023-03-05 14:49:45*
%MOMM*%
%LPD*%
G01*
G04 APERTURE LIST*
%ADD10C,0.150000*%
%ADD11C,0.254000*%
%ADD12C,0.075000*%
%ADD13C,0.200000*%
%ADD14C,0.120000*%
%ADD15C,0.100000*%
%ADD16C,0.152400*%
%ADD17C,0.050800*%
G04 APERTURE END LIST*
D10*
X33720000Y-74510000D02*
X39610000Y-74530000D01*
X33370000Y-91410000D02*
X39870000Y-91440000D01*
X33930000Y-71850000D02*
X39110000Y-71860000D01*
X33870000Y-54840000D02*
X39800000Y-54840000D01*
X30320000Y-35270000D02*
X34020000Y-35270000D01*
X29700000Y-52210000D02*
X37040000Y-52260000D01*
X121280001Y-40810000D02*
G75*
G03*
X121280001Y-40810000I-11025285J0D01*
G01*
X89635880Y-42900000D02*
G75*
G03*
X89635880Y-42900000I-6005880J0D01*
G01*
X29300000Y-26100000D02*
X124302336Y-26100000D01*
X124302336Y-26100000D02*
X124302336Y-101101399D01*
X124302336Y-101101399D02*
X29300000Y-101101399D01*
X29300000Y-101101399D02*
X29300000Y-26100000D01*
X72757076Y-42882925D02*
G75*
G03*
X72757076Y-42882925I-6017076J0D01*
G01*
%TO.C,J5*%
X35662739Y-87101738D02*
X36377025Y-87101738D01*
X36519882Y-87149357D01*
X36615120Y-87244595D01*
X36662739Y-87387452D01*
X36662739Y-87482690D01*
X35662739Y-86149357D02*
X35662739Y-86625547D01*
X36138930Y-86673166D01*
X36091311Y-86625547D01*
X36043692Y-86530309D01*
X36043692Y-86292214D01*
X36091311Y-86196976D01*
X36138930Y-86149357D01*
X36234168Y-86101738D01*
X36472263Y-86101738D01*
X36567501Y-86149357D01*
X36615120Y-86196976D01*
X36662739Y-86292214D01*
X36662739Y-86530309D01*
X36615120Y-86625547D01*
X36567501Y-86673166D01*
%TO.C,D11*%
X118491428Y-72438571D02*
X117891428Y-72438571D01*
X117891428Y-72295714D01*
X117920000Y-72210000D01*
X117977142Y-72152857D01*
X118034285Y-72124285D01*
X118148571Y-72095714D01*
X118234285Y-72095714D01*
X118348571Y-72124285D01*
X118405714Y-72152857D01*
X118462857Y-72210000D01*
X118491428Y-72295714D01*
X118491428Y-72438571D01*
X118491428Y-71524285D02*
X118491428Y-71867142D01*
X118491428Y-71695714D02*
X117891428Y-71695714D01*
X117977142Y-71752857D01*
X118034285Y-71810000D01*
X118062857Y-71867142D01*
X118491428Y-70952857D02*
X118491428Y-71295714D01*
X118491428Y-71124285D02*
X117891428Y-71124285D01*
X117977142Y-71181428D01*
X118034285Y-71238571D01*
X118062857Y-71295714D01*
X117562380Y-74161904D02*
X116562380Y-74161904D01*
X117562380Y-73590476D02*
X116990952Y-74019047D01*
X116562380Y-73590476D02*
X117133809Y-74161904D01*
%TO.C,SW1*%
X109396666Y-49444761D02*
X109539523Y-49492380D01*
X109777619Y-49492380D01*
X109872857Y-49444761D01*
X109920476Y-49397142D01*
X109968095Y-49301904D01*
X109968095Y-49206666D01*
X109920476Y-49111428D01*
X109872857Y-49063809D01*
X109777619Y-49016190D01*
X109587142Y-48968571D01*
X109491904Y-48920952D01*
X109444285Y-48873333D01*
X109396666Y-48778095D01*
X109396666Y-48682857D01*
X109444285Y-48587619D01*
X109491904Y-48540000D01*
X109587142Y-48492380D01*
X109825238Y-48492380D01*
X109968095Y-48540000D01*
X110301428Y-48492380D02*
X110539523Y-49492380D01*
X110730000Y-48778095D01*
X110920476Y-49492380D01*
X111158571Y-48492380D01*
X112063333Y-49492380D02*
X111491904Y-49492380D01*
X111777619Y-49492380D02*
X111777619Y-48492380D01*
X111682380Y-48635238D01*
X111587142Y-48730476D01*
X111491904Y-48778095D01*
%TO.C,R3*%
X44021428Y-39210000D02*
X43735714Y-39410000D01*
X44021428Y-39552857D02*
X43421428Y-39552857D01*
X43421428Y-39324285D01*
X43450000Y-39267142D01*
X43478571Y-39238571D01*
X43535714Y-39210000D01*
X43621428Y-39210000D01*
X43678571Y-39238571D01*
X43707142Y-39267142D01*
X43735714Y-39324285D01*
X43735714Y-39552857D01*
X43421428Y-39010000D02*
X43421428Y-38638571D01*
X43650000Y-38838571D01*
X43650000Y-38752857D01*
X43678571Y-38695714D01*
X43707142Y-38667142D01*
X43764285Y-38638571D01*
X43907142Y-38638571D01*
X43964285Y-38667142D01*
X43992857Y-38695714D01*
X44021428Y-38752857D01*
X44021428Y-38924285D01*
X43992857Y-38981428D01*
X43964285Y-39010000D01*
%TO.C,R7*%
X103483333Y-29492380D02*
X103150000Y-29016190D01*
X102911904Y-29492380D02*
X102911904Y-28492380D01*
X103292857Y-28492380D01*
X103388095Y-28540000D01*
X103435714Y-28587619D01*
X103483333Y-28682857D01*
X103483333Y-28825714D01*
X103435714Y-28920952D01*
X103388095Y-28968571D01*
X103292857Y-29016190D01*
X102911904Y-29016190D01*
X103816666Y-28492380D02*
X104483333Y-28492380D01*
X104054761Y-29492380D01*
%TO.C,D6*%
X80451428Y-91282857D02*
X79851428Y-91282857D01*
X79851428Y-91140000D01*
X79880000Y-91054285D01*
X79937142Y-90997142D01*
X79994285Y-90968571D01*
X80108571Y-90940000D01*
X80194285Y-90940000D01*
X80308571Y-90968571D01*
X80365714Y-90997142D01*
X80422857Y-91054285D01*
X80451428Y-91140000D01*
X80451428Y-91282857D01*
X79851428Y-90425714D02*
X79851428Y-90540000D01*
X79880000Y-90597142D01*
X79908571Y-90625714D01*
X79994285Y-90682857D01*
X80108571Y-90711428D01*
X80337142Y-90711428D01*
X80394285Y-90682857D01*
X80422857Y-90654285D01*
X80451428Y-90597142D01*
X80451428Y-90482857D01*
X80422857Y-90425714D01*
X80394285Y-90397142D01*
X80337142Y-90368571D01*
X80194285Y-90368571D01*
X80137142Y-90397142D01*
X80108571Y-90425714D01*
X80080000Y-90482857D01*
X80080000Y-90597142D01*
X80108571Y-90654285D01*
X80137142Y-90682857D01*
X80194285Y-90711428D01*
X79412380Y-93111904D02*
X78412380Y-93111904D01*
X79412380Y-92540476D02*
X78840952Y-92969047D01*
X78412380Y-92540476D02*
X78983809Y-93111904D01*
%TO.C,K5*%
X90561904Y-73846380D02*
X90561904Y-72846380D01*
X91133333Y-73846380D02*
X90704761Y-73274952D01*
X91133333Y-72846380D02*
X90561904Y-73417809D01*
X92038095Y-72846380D02*
X91561904Y-72846380D01*
X91514285Y-73322571D01*
X91561904Y-73274952D01*
X91657142Y-73227333D01*
X91895238Y-73227333D01*
X91990476Y-73274952D01*
X92038095Y-73322571D01*
X92085714Y-73417809D01*
X92085714Y-73655904D01*
X92038095Y-73751142D01*
X91990476Y-73798761D01*
X91895238Y-73846380D01*
X91657142Y-73846380D01*
X91561904Y-73798761D01*
X91514285Y-73751142D01*
%TO.C,K8*%
X109711904Y-92926380D02*
X109711904Y-91926380D01*
X110283333Y-92926380D02*
X109854761Y-92354952D01*
X110283333Y-91926380D02*
X109711904Y-92497809D01*
X110854761Y-92354952D02*
X110759523Y-92307333D01*
X110711904Y-92259714D01*
X110664285Y-92164476D01*
X110664285Y-92116857D01*
X110711904Y-92021619D01*
X110759523Y-91974000D01*
X110854761Y-91926380D01*
X111045238Y-91926380D01*
X111140476Y-91974000D01*
X111188095Y-92021619D01*
X111235714Y-92116857D01*
X111235714Y-92164476D01*
X111188095Y-92259714D01*
X111140476Y-92307333D01*
X111045238Y-92354952D01*
X110854761Y-92354952D01*
X110759523Y-92402571D01*
X110711904Y-92450190D01*
X110664285Y-92545428D01*
X110664285Y-92735904D01*
X110711904Y-92831142D01*
X110759523Y-92878761D01*
X110854761Y-92926380D01*
X111045238Y-92926380D01*
X111140476Y-92878761D01*
X111188095Y-92831142D01*
X111235714Y-92735904D01*
X111235714Y-92545428D01*
X111188095Y-92450190D01*
X111140476Y-92402571D01*
X111045238Y-92354952D01*
%TO.C,K6*%
X90651904Y-92896380D02*
X90651904Y-91896380D01*
X91223333Y-92896380D02*
X90794761Y-92324952D01*
X91223333Y-91896380D02*
X90651904Y-92467809D01*
X92080476Y-91896380D02*
X91890000Y-91896380D01*
X91794761Y-91944000D01*
X91747142Y-91991619D01*
X91651904Y-92134476D01*
X91604285Y-92324952D01*
X91604285Y-92705904D01*
X91651904Y-92801142D01*
X91699523Y-92848761D01*
X91794761Y-92896380D01*
X91985238Y-92896380D01*
X92080476Y-92848761D01*
X92128095Y-92801142D01*
X92175714Y-92705904D01*
X92175714Y-92467809D01*
X92128095Y-92372571D01*
X92080476Y-92324952D01*
X91985238Y-92277333D01*
X91794761Y-92277333D01*
X91699523Y-92324952D01*
X91651904Y-92372571D01*
X91604285Y-92467809D01*
%TO.C,D5*%
X81491428Y-71572857D02*
X80891428Y-71572857D01*
X80891428Y-71430000D01*
X80920000Y-71344285D01*
X80977142Y-71287142D01*
X81034285Y-71258571D01*
X81148571Y-71230000D01*
X81234285Y-71230000D01*
X81348571Y-71258571D01*
X81405714Y-71287142D01*
X81462857Y-71344285D01*
X81491428Y-71430000D01*
X81491428Y-71572857D01*
X80891428Y-70687142D02*
X80891428Y-70972857D01*
X81177142Y-71001428D01*
X81148571Y-70972857D01*
X81120000Y-70915714D01*
X81120000Y-70772857D01*
X81148571Y-70715714D01*
X81177142Y-70687142D01*
X81234285Y-70658571D01*
X81377142Y-70658571D01*
X81434285Y-70687142D01*
X81462857Y-70715714D01*
X81491428Y-70772857D01*
X81491428Y-70915714D01*
X81462857Y-70972857D01*
X81434285Y-71001428D01*
X79262380Y-73861904D02*
X78262380Y-73861904D01*
X79262380Y-73290476D02*
X78690952Y-73719047D01*
X78262380Y-73290476D02*
X78833809Y-73861904D01*
%TO.C,R6*%
X37050000Y-28651428D02*
X36850000Y-28365714D01*
X36707142Y-28651428D02*
X36707142Y-28051428D01*
X36935714Y-28051428D01*
X36992857Y-28080000D01*
X37021428Y-28108571D01*
X37050000Y-28165714D01*
X37050000Y-28251428D01*
X37021428Y-28308571D01*
X36992857Y-28337142D01*
X36935714Y-28365714D01*
X36707142Y-28365714D01*
X37564285Y-28051428D02*
X37450000Y-28051428D01*
X37392857Y-28080000D01*
X37364285Y-28108571D01*
X37307142Y-28194285D01*
X37278571Y-28308571D01*
X37278571Y-28537142D01*
X37307142Y-28594285D01*
X37335714Y-28622857D01*
X37392857Y-28651428D01*
X37507142Y-28651428D01*
X37564285Y-28622857D01*
X37592857Y-28594285D01*
X37621428Y-28537142D01*
X37621428Y-28394285D01*
X37592857Y-28337142D01*
X37564285Y-28308571D01*
X37507142Y-28280000D01*
X37392857Y-28280000D01*
X37335714Y-28308571D01*
X37307142Y-28337142D01*
X37278571Y-28394285D01*
%TO.C,K3*%
X71661904Y-73906380D02*
X71661904Y-72906380D01*
X72233333Y-73906380D02*
X71804761Y-73334952D01*
X72233333Y-72906380D02*
X71661904Y-73477809D01*
X72566666Y-72906380D02*
X73185714Y-72906380D01*
X72852380Y-73287333D01*
X72995238Y-73287333D01*
X73090476Y-73334952D01*
X73138095Y-73382571D01*
X73185714Y-73477809D01*
X73185714Y-73715904D01*
X73138095Y-73811142D01*
X73090476Y-73858761D01*
X72995238Y-73906380D01*
X72709523Y-73906380D01*
X72614285Y-73858761D01*
X72566666Y-73811142D01*
%TO.C,D2*%
X61611428Y-70862857D02*
X61011428Y-70862857D01*
X61011428Y-70720000D01*
X61040000Y-70634285D01*
X61097142Y-70577142D01*
X61154285Y-70548571D01*
X61268571Y-70520000D01*
X61354285Y-70520000D01*
X61468571Y-70548571D01*
X61525714Y-70577142D01*
X61582857Y-70634285D01*
X61611428Y-70720000D01*
X61611428Y-70862857D01*
X61068571Y-70291428D02*
X61040000Y-70262857D01*
X61011428Y-70205714D01*
X61011428Y-70062857D01*
X61040000Y-70005714D01*
X61068571Y-69977142D01*
X61125714Y-69948571D01*
X61182857Y-69948571D01*
X61268571Y-69977142D01*
X61611428Y-70320000D01*
X61611428Y-69948571D01*
%TO.C,R5*%
X46111428Y-39120000D02*
X45825714Y-39320000D01*
X46111428Y-39462857D02*
X45511428Y-39462857D01*
X45511428Y-39234285D01*
X45540000Y-39177142D01*
X45568571Y-39148571D01*
X45625714Y-39120000D01*
X45711428Y-39120000D01*
X45768571Y-39148571D01*
X45797142Y-39177142D01*
X45825714Y-39234285D01*
X45825714Y-39462857D01*
X45511428Y-38577142D02*
X45511428Y-38862857D01*
X45797142Y-38891428D01*
X45768571Y-38862857D01*
X45740000Y-38805714D01*
X45740000Y-38662857D01*
X45768571Y-38605714D01*
X45797142Y-38577142D01*
X45854285Y-38548571D01*
X45997142Y-38548571D01*
X46054285Y-38577142D01*
X46082857Y-38605714D01*
X46111428Y-38662857D01*
X46111428Y-38805714D01*
X46082857Y-38862857D01*
X46054285Y-38891428D01*
%TO.C,J3*%
X38221615Y-47405902D02*
X38935901Y-47405902D01*
X39078758Y-47453521D01*
X39173996Y-47548759D01*
X39221615Y-47691616D01*
X39221615Y-47786854D01*
X38221615Y-47024949D02*
X38221615Y-46405902D01*
X38602568Y-46739235D01*
X38602568Y-46596378D01*
X38650187Y-46501140D01*
X38697806Y-46453521D01*
X38793044Y-46405902D01*
X39031139Y-46405902D01*
X39126377Y-46453521D01*
X39173996Y-46501140D01*
X39221615Y-46596378D01*
X39221615Y-46882092D01*
X39173996Y-46977330D01*
X39126377Y-47024949D01*
D11*
%TO.C,D21*%
X110427857Y-28844523D02*
X110427857Y-27574523D01*
X110730238Y-27574523D01*
X110911666Y-27635000D01*
X111032619Y-27755952D01*
X111093095Y-27876904D01*
X111153571Y-28118809D01*
X111153571Y-28300238D01*
X111093095Y-28542142D01*
X111032619Y-28663095D01*
X110911666Y-28784047D01*
X110730238Y-28844523D01*
X110427857Y-28844523D01*
X111637380Y-27695476D02*
X111697857Y-27635000D01*
X111818809Y-27574523D01*
X112121190Y-27574523D01*
X112242142Y-27635000D01*
X112302619Y-27695476D01*
X112363095Y-27816428D01*
X112363095Y-27937380D01*
X112302619Y-28118809D01*
X111576904Y-28844523D01*
X112363095Y-28844523D01*
X113572619Y-28844523D02*
X112846904Y-28844523D01*
X113209761Y-28844523D02*
X113209761Y-27574523D01*
X113088809Y-27755952D01*
X112967857Y-27876904D01*
X112846904Y-27937380D01*
%TO.C,D20*%
X35627857Y-96724523D02*
X35627857Y-95454523D01*
X35930238Y-95454523D01*
X36111666Y-95515000D01*
X36232619Y-95635952D01*
X36293095Y-95756904D01*
X36353571Y-95998809D01*
X36353571Y-96180238D01*
X36293095Y-96422142D01*
X36232619Y-96543095D01*
X36111666Y-96664047D01*
X35930238Y-96724523D01*
X35627857Y-96724523D01*
X36837380Y-95575476D02*
X36897857Y-95515000D01*
X37018809Y-95454523D01*
X37321190Y-95454523D01*
X37442142Y-95515000D01*
X37502619Y-95575476D01*
X37563095Y-95696428D01*
X37563095Y-95817380D01*
X37502619Y-95998809D01*
X36776904Y-96724523D01*
X37563095Y-96724523D01*
X38349285Y-95454523D02*
X38470238Y-95454523D01*
X38591190Y-95515000D01*
X38651666Y-95575476D01*
X38712142Y-95696428D01*
X38772619Y-95938333D01*
X38772619Y-96240714D01*
X38712142Y-96482619D01*
X38651666Y-96603571D01*
X38591190Y-96664047D01*
X38470238Y-96724523D01*
X38349285Y-96724523D01*
X38228333Y-96664047D01*
X38167857Y-96603571D01*
X38107380Y-96482619D01*
X38046904Y-96240714D01*
X38046904Y-95938333D01*
X38107380Y-95696428D01*
X38167857Y-95575476D01*
X38228333Y-95515000D01*
X38349285Y-95454523D01*
%TO.C,D18*%
X31177857Y-48074523D02*
X31177857Y-46804523D01*
X31480238Y-46804523D01*
X31661666Y-46865000D01*
X31782619Y-46985952D01*
X31843095Y-47106904D01*
X31903571Y-47348809D01*
X31903571Y-47530238D01*
X31843095Y-47772142D01*
X31782619Y-47893095D01*
X31661666Y-48014047D01*
X31480238Y-48074523D01*
X31177857Y-48074523D01*
X33113095Y-48074523D02*
X32387380Y-48074523D01*
X32750238Y-48074523D02*
X32750238Y-46804523D01*
X32629285Y-46985952D01*
X32508333Y-47106904D01*
X32387380Y-47167380D01*
X33838809Y-47348809D02*
X33717857Y-47288333D01*
X33657380Y-47227857D01*
X33596904Y-47106904D01*
X33596904Y-47046428D01*
X33657380Y-46925476D01*
X33717857Y-46865000D01*
X33838809Y-46804523D01*
X34080714Y-46804523D01*
X34201666Y-46865000D01*
X34262142Y-46925476D01*
X34322619Y-47046428D01*
X34322619Y-47106904D01*
X34262142Y-47227857D01*
X34201666Y-47288333D01*
X34080714Y-47348809D01*
X33838809Y-47348809D01*
X33717857Y-47409285D01*
X33657380Y-47469761D01*
X33596904Y-47590714D01*
X33596904Y-47832619D01*
X33657380Y-47953571D01*
X33717857Y-48014047D01*
X33838809Y-48074523D01*
X34080714Y-48074523D01*
X34201666Y-48014047D01*
X34262142Y-47953571D01*
X34322619Y-47832619D01*
X34322619Y-47590714D01*
X34262142Y-47469761D01*
X34201666Y-47409285D01*
X34080714Y-47348809D01*
D10*
%TO.C,D12*%
X118381428Y-91278571D02*
X117781428Y-91278571D01*
X117781428Y-91135714D01*
X117810000Y-91050000D01*
X117867142Y-90992857D01*
X117924285Y-90964285D01*
X118038571Y-90935714D01*
X118124285Y-90935714D01*
X118238571Y-90964285D01*
X118295714Y-90992857D01*
X118352857Y-91050000D01*
X118381428Y-91135714D01*
X118381428Y-91278571D01*
X118381428Y-90364285D02*
X118381428Y-90707142D01*
X118381428Y-90535714D02*
X117781428Y-90535714D01*
X117867142Y-90592857D01*
X117924285Y-90650000D01*
X117952857Y-90707142D01*
X117838571Y-90135714D02*
X117810000Y-90107142D01*
X117781428Y-90050000D01*
X117781428Y-89907142D01*
X117810000Y-89850000D01*
X117838571Y-89821428D01*
X117895714Y-89792857D01*
X117952857Y-89792857D01*
X118038571Y-89821428D01*
X118381428Y-90164285D01*
X118381428Y-89792857D01*
X117362380Y-92941904D02*
X116362380Y-92941904D01*
X117362380Y-92370476D02*
X116790952Y-92799047D01*
X116362380Y-92370476D02*
X116933809Y-92941904D01*
%TO.C,U1*%
X57578095Y-27532380D02*
X57578095Y-28341904D01*
X57625714Y-28437142D01*
X57673333Y-28484761D01*
X57768571Y-28532380D01*
X57959047Y-28532380D01*
X58054285Y-28484761D01*
X58101904Y-28437142D01*
X58149523Y-28341904D01*
X58149523Y-27532380D01*
X59149523Y-28532380D02*
X58578095Y-28532380D01*
X58863809Y-28532380D02*
X58863809Y-27532380D01*
X58768571Y-27675238D01*
X58673333Y-27770476D01*
X58578095Y-27818095D01*
%TO.C,C13*%
X61164285Y-52755714D02*
X61192857Y-52784285D01*
X61221428Y-52870000D01*
X61221428Y-52927142D01*
X61192857Y-53012857D01*
X61135714Y-53070000D01*
X61078571Y-53098571D01*
X60964285Y-53127142D01*
X60878571Y-53127142D01*
X60764285Y-53098571D01*
X60707142Y-53070000D01*
X60650000Y-53012857D01*
X60621428Y-52927142D01*
X60621428Y-52870000D01*
X60650000Y-52784285D01*
X60678571Y-52755714D01*
X61221428Y-52184285D02*
X61221428Y-52527142D01*
X61221428Y-52355714D02*
X60621428Y-52355714D01*
X60707142Y-52412857D01*
X60764285Y-52470000D01*
X60792857Y-52527142D01*
X60621428Y-51984285D02*
X60621428Y-51612857D01*
X60850000Y-51812857D01*
X60850000Y-51727142D01*
X60878571Y-51670000D01*
X60907142Y-51641428D01*
X60964285Y-51612857D01*
X61107142Y-51612857D01*
X61164285Y-51641428D01*
X61192857Y-51670000D01*
X61221428Y-51727142D01*
X61221428Y-51898571D01*
X61192857Y-51955714D01*
X61164285Y-51984285D01*
%TO.C,J2*%
X71361428Y-38330000D02*
X71790000Y-38330000D01*
X71875714Y-38358571D01*
X71932857Y-38415714D01*
X71961428Y-38501428D01*
X71961428Y-38558571D01*
X71418571Y-38072857D02*
X71390000Y-38044285D01*
X71361428Y-37987142D01*
X71361428Y-37844285D01*
X71390000Y-37787142D01*
X71418571Y-37758571D01*
X71475714Y-37730000D01*
X71532857Y-37730000D01*
X71618571Y-37758571D01*
X71961428Y-38101428D01*
X71961428Y-37730000D01*
%TO.C,U3*%
X45242380Y-54571904D02*
X46051904Y-54571904D01*
X46147142Y-54524285D01*
X46194761Y-54476666D01*
X46242380Y-54381428D01*
X46242380Y-54190952D01*
X46194761Y-54095714D01*
X46147142Y-54048095D01*
X46051904Y-54000476D01*
X45242380Y-54000476D01*
X45242380Y-53619523D02*
X45242380Y-53000476D01*
X45623333Y-53333809D01*
X45623333Y-53190952D01*
X45670952Y-53095714D01*
X45718571Y-53048095D01*
X45813809Y-53000476D01*
X46051904Y-53000476D01*
X46147142Y-53048095D01*
X46194761Y-53095714D01*
X46242380Y-53190952D01*
X46242380Y-53476666D01*
X46194761Y-53571904D01*
X46147142Y-53619523D01*
%TO.C,R4*%
X47791428Y-39010000D02*
X47505714Y-39210000D01*
X47791428Y-39352857D02*
X47191428Y-39352857D01*
X47191428Y-39124285D01*
X47220000Y-39067142D01*
X47248571Y-39038571D01*
X47305714Y-39010000D01*
X47391428Y-39010000D01*
X47448571Y-39038571D01*
X47477142Y-39067142D01*
X47505714Y-39124285D01*
X47505714Y-39352857D01*
X47391428Y-38495714D02*
X47791428Y-38495714D01*
X47162857Y-38638571D02*
X47591428Y-38781428D01*
X47591428Y-38410000D01*
%TO.C,D8*%
X99301428Y-72212857D02*
X98701428Y-72212857D01*
X98701428Y-72070000D01*
X98730000Y-71984285D01*
X98787142Y-71927142D01*
X98844285Y-71898571D01*
X98958571Y-71870000D01*
X99044285Y-71870000D01*
X99158571Y-71898571D01*
X99215714Y-71927142D01*
X99272857Y-71984285D01*
X99301428Y-72070000D01*
X99301428Y-72212857D01*
X98958571Y-71527142D02*
X98930000Y-71584285D01*
X98901428Y-71612857D01*
X98844285Y-71641428D01*
X98815714Y-71641428D01*
X98758571Y-71612857D01*
X98730000Y-71584285D01*
X98701428Y-71527142D01*
X98701428Y-71412857D01*
X98730000Y-71355714D01*
X98758571Y-71327142D01*
X98815714Y-71298571D01*
X98844285Y-71298571D01*
X98901428Y-71327142D01*
X98930000Y-71355714D01*
X98958571Y-71412857D01*
X98958571Y-71527142D01*
X98987142Y-71584285D01*
X99015714Y-71612857D01*
X99072857Y-71641428D01*
X99187142Y-71641428D01*
X99244285Y-71612857D01*
X99272857Y-71584285D01*
X99301428Y-71527142D01*
X99301428Y-71412857D01*
X99272857Y-71355714D01*
X99244285Y-71327142D01*
X99187142Y-71298571D01*
X99072857Y-71298571D01*
X99015714Y-71327142D01*
X98987142Y-71355714D01*
X98958571Y-71412857D01*
X98282380Y-74141904D02*
X97282380Y-74141904D01*
X98282380Y-73570476D02*
X97710952Y-73999047D01*
X97282380Y-73570476D02*
X97853809Y-74141904D01*
%TO.C,C14*%
X60854285Y-55274285D02*
X60825714Y-55302857D01*
X60740000Y-55331428D01*
X60682857Y-55331428D01*
X60597142Y-55302857D01*
X60540000Y-55245714D01*
X60511428Y-55188571D01*
X60482857Y-55074285D01*
X60482857Y-54988571D01*
X60511428Y-54874285D01*
X60540000Y-54817142D01*
X60597142Y-54760000D01*
X60682857Y-54731428D01*
X60740000Y-54731428D01*
X60825714Y-54760000D01*
X60854285Y-54788571D01*
X61425714Y-55331428D02*
X61082857Y-55331428D01*
X61254285Y-55331428D02*
X61254285Y-54731428D01*
X61197142Y-54817142D01*
X61140000Y-54874285D01*
X61082857Y-54902857D01*
X61940000Y-54931428D02*
X61940000Y-55331428D01*
X61797142Y-54702857D02*
X61654285Y-55131428D01*
X62025714Y-55131428D01*
%TO.C,C12*%
X58524285Y-52475714D02*
X58552857Y-52504285D01*
X58581428Y-52590000D01*
X58581428Y-52647142D01*
X58552857Y-52732857D01*
X58495714Y-52790000D01*
X58438571Y-52818571D01*
X58324285Y-52847142D01*
X58238571Y-52847142D01*
X58124285Y-52818571D01*
X58067142Y-52790000D01*
X58010000Y-52732857D01*
X57981428Y-52647142D01*
X57981428Y-52590000D01*
X58010000Y-52504285D01*
X58038571Y-52475714D01*
X58581428Y-51904285D02*
X58581428Y-52247142D01*
X58581428Y-52075714D02*
X57981428Y-52075714D01*
X58067142Y-52132857D01*
X58124285Y-52190000D01*
X58152857Y-52247142D01*
X58038571Y-51675714D02*
X58010000Y-51647142D01*
X57981428Y-51590000D01*
X57981428Y-51447142D01*
X58010000Y-51390000D01*
X58038571Y-51361428D01*
X58095714Y-51332857D01*
X58152857Y-51332857D01*
X58238571Y-51361428D01*
X58581428Y-51704285D01*
X58581428Y-51332857D01*
%TO.C,Y2*%
X61675714Y-47865714D02*
X61961428Y-47865714D01*
X61361428Y-48065714D02*
X61675714Y-47865714D01*
X61361428Y-47665714D01*
X61418571Y-47494285D02*
X61390000Y-47465714D01*
X61361428Y-47408571D01*
X61361428Y-47265714D01*
X61390000Y-47208571D01*
X61418571Y-47180000D01*
X61475714Y-47151428D01*
X61532857Y-47151428D01*
X61618571Y-47180000D01*
X61961428Y-47522857D01*
X61961428Y-47151428D01*
%TO.C,C1*%
X56874285Y-40790000D02*
X56902857Y-40818571D01*
X56931428Y-40904285D01*
X56931428Y-40961428D01*
X56902857Y-41047142D01*
X56845714Y-41104285D01*
X56788571Y-41132857D01*
X56674285Y-41161428D01*
X56588571Y-41161428D01*
X56474285Y-41132857D01*
X56417142Y-41104285D01*
X56360000Y-41047142D01*
X56331428Y-40961428D01*
X56331428Y-40904285D01*
X56360000Y-40818571D01*
X56388571Y-40790000D01*
X56931428Y-40218571D02*
X56931428Y-40561428D01*
X56931428Y-40390000D02*
X56331428Y-40390000D01*
X56417142Y-40447142D01*
X56474285Y-40504285D01*
X56502857Y-40561428D01*
%TO.C,J1*%
X52076666Y-26552380D02*
X52076666Y-27266666D01*
X52029047Y-27409523D01*
X51933809Y-27504761D01*
X51790952Y-27552380D01*
X51695714Y-27552380D01*
X53076666Y-27552380D02*
X52505238Y-27552380D01*
X52790952Y-27552380D02*
X52790952Y-26552380D01*
X52695714Y-26695238D01*
X52600476Y-26790476D01*
X52505238Y-26838095D01*
D12*
%TO.C,R2*%
X49391428Y-38850000D02*
X49105714Y-39050000D01*
X49391428Y-39192857D02*
X48791428Y-39192857D01*
X48791428Y-38964285D01*
X48820000Y-38907142D01*
X48848571Y-38878571D01*
X48905714Y-38850000D01*
X48991428Y-38850000D01*
X49048571Y-38878571D01*
X49077142Y-38907142D01*
X49105714Y-38964285D01*
X49105714Y-39192857D01*
X48848571Y-38621428D02*
X48820000Y-38592857D01*
X48791428Y-38535714D01*
X48791428Y-38392857D01*
X48820000Y-38335714D01*
X48848571Y-38307142D01*
X48905714Y-38278571D01*
X48962857Y-38278571D01*
X49048571Y-38307142D01*
X49391428Y-38650000D01*
X49391428Y-38278571D01*
D10*
%TO.C,C2*%
X61954285Y-38310000D02*
X61982857Y-38338571D01*
X62011428Y-38424285D01*
X62011428Y-38481428D01*
X61982857Y-38567142D01*
X61925714Y-38624285D01*
X61868571Y-38652857D01*
X61754285Y-38681428D01*
X61668571Y-38681428D01*
X61554285Y-38652857D01*
X61497142Y-38624285D01*
X61440000Y-38567142D01*
X61411428Y-38481428D01*
X61411428Y-38424285D01*
X61440000Y-38338571D01*
X61468571Y-38310000D01*
X61468571Y-38081428D02*
X61440000Y-38052857D01*
X61411428Y-37995714D01*
X61411428Y-37852857D01*
X61440000Y-37795714D01*
X61468571Y-37767142D01*
X61525714Y-37738571D01*
X61582857Y-37738571D01*
X61668571Y-37767142D01*
X62011428Y-38110000D01*
X62011428Y-37738571D01*
%TO.C,D3*%
X61161428Y-91152857D02*
X60561428Y-91152857D01*
X60561428Y-91010000D01*
X60590000Y-90924285D01*
X60647142Y-90867142D01*
X60704285Y-90838571D01*
X60818571Y-90810000D01*
X60904285Y-90810000D01*
X61018571Y-90838571D01*
X61075714Y-90867142D01*
X61132857Y-90924285D01*
X61161428Y-91010000D01*
X61161428Y-91152857D01*
X60561428Y-90610000D02*
X60561428Y-90238571D01*
X60790000Y-90438571D01*
X60790000Y-90352857D01*
X60818571Y-90295714D01*
X60847142Y-90267142D01*
X60904285Y-90238571D01*
X61047142Y-90238571D01*
X61104285Y-90267142D01*
X61132857Y-90295714D01*
X61161428Y-90352857D01*
X61161428Y-90524285D01*
X61132857Y-90581428D01*
X61104285Y-90610000D01*
X60332380Y-93111904D02*
X59332380Y-93111904D01*
X60332380Y-92540476D02*
X59760952Y-92969047D01*
X59332380Y-92540476D02*
X59903809Y-93111904D01*
%TO.C,D9*%
X99371428Y-90982857D02*
X98771428Y-90982857D01*
X98771428Y-90840000D01*
X98800000Y-90754285D01*
X98857142Y-90697142D01*
X98914285Y-90668571D01*
X99028571Y-90640000D01*
X99114285Y-90640000D01*
X99228571Y-90668571D01*
X99285714Y-90697142D01*
X99342857Y-90754285D01*
X99371428Y-90840000D01*
X99371428Y-90982857D01*
X99371428Y-90354285D02*
X99371428Y-90240000D01*
X99342857Y-90182857D01*
X99314285Y-90154285D01*
X99228571Y-90097142D01*
X99114285Y-90068571D01*
X98885714Y-90068571D01*
X98828571Y-90097142D01*
X98800000Y-90125714D01*
X98771428Y-90182857D01*
X98771428Y-90297142D01*
X98800000Y-90354285D01*
X98828571Y-90382857D01*
X98885714Y-90411428D01*
X99028571Y-90411428D01*
X99085714Y-90382857D01*
X99114285Y-90354285D01*
X99142857Y-90297142D01*
X99142857Y-90182857D01*
X99114285Y-90125714D01*
X99085714Y-90097142D01*
X99028571Y-90068571D01*
X98362380Y-92961904D02*
X97362380Y-92961904D01*
X98362380Y-92390476D02*
X97790952Y-92819047D01*
X97362380Y-92390476D02*
X97933809Y-92961904D01*
%TO.C,K1*%
X52751904Y-73886380D02*
X52751904Y-72886380D01*
X53323333Y-73886380D02*
X52894761Y-73314952D01*
X53323333Y-72886380D02*
X52751904Y-73457809D01*
X54275714Y-73886380D02*
X53704285Y-73886380D01*
X53990000Y-73886380D02*
X53990000Y-72886380D01*
X53894761Y-73029238D01*
X53799523Y-73124476D01*
X53704285Y-73172095D01*
D11*
%TO.C,D19*%
X32347857Y-85384523D02*
X32347857Y-84114523D01*
X32650238Y-84114523D01*
X32831666Y-84175000D01*
X32952619Y-84295952D01*
X33013095Y-84416904D01*
X33073571Y-84658809D01*
X33073571Y-84840238D01*
X33013095Y-85082142D01*
X32952619Y-85203095D01*
X32831666Y-85324047D01*
X32650238Y-85384523D01*
X32347857Y-85384523D01*
X34283095Y-85384523D02*
X33557380Y-85384523D01*
X33920238Y-85384523D02*
X33920238Y-84114523D01*
X33799285Y-84295952D01*
X33678333Y-84416904D01*
X33557380Y-84477380D01*
X34887857Y-85384523D02*
X35129761Y-85384523D01*
X35250714Y-85324047D01*
X35311190Y-85263571D01*
X35432142Y-85082142D01*
X35492619Y-84840238D01*
X35492619Y-84356428D01*
X35432142Y-84235476D01*
X35371666Y-84175000D01*
X35250714Y-84114523D01*
X35008809Y-84114523D01*
X34887857Y-84175000D01*
X34827380Y-84235476D01*
X34766904Y-84356428D01*
X34766904Y-84658809D01*
X34827380Y-84779761D01*
X34887857Y-84840238D01*
X35008809Y-84900714D01*
X35250714Y-84900714D01*
X35371666Y-84840238D01*
X35432142Y-84779761D01*
X35492619Y-84658809D01*
D10*
%TO.C,K2*%
X52751904Y-92986380D02*
X52751904Y-91986380D01*
X53323333Y-92986380D02*
X52894761Y-92414952D01*
X53323333Y-91986380D02*
X52751904Y-92557809D01*
X53704285Y-92081619D02*
X53751904Y-92034000D01*
X53847142Y-91986380D01*
X54085238Y-91986380D01*
X54180476Y-92034000D01*
X54228095Y-92081619D01*
X54275714Y-92176857D01*
X54275714Y-92272095D01*
X54228095Y-92414952D01*
X53656666Y-92986380D01*
X54275714Y-92986380D01*
%TO.C,K4*%
X71711904Y-92916380D02*
X71711904Y-91916380D01*
X72283333Y-92916380D02*
X71854761Y-92344952D01*
X72283333Y-91916380D02*
X71711904Y-92487809D01*
X73140476Y-92249714D02*
X73140476Y-92916380D01*
X72902380Y-91868761D02*
X72664285Y-92583047D01*
X73283333Y-92583047D01*
%TO.C,K7*%
X109761904Y-73826380D02*
X109761904Y-72826380D01*
X110333333Y-73826380D02*
X109904761Y-73254952D01*
X110333333Y-72826380D02*
X109761904Y-73397809D01*
X110666666Y-72826380D02*
X111333333Y-72826380D01*
X110904761Y-73826380D01*
%TO.C,J4*%
X38034880Y-62363333D02*
X38749166Y-62363333D01*
X38892023Y-62410952D01*
X38987261Y-62506190D01*
X39034880Y-62649047D01*
X39034880Y-62744285D01*
X38368214Y-61458571D02*
X39034880Y-61458571D01*
X37987261Y-61696666D02*
X38701547Y-61934761D01*
X38701547Y-61315714D01*
D11*
%TO.C,D16*%
X34107857Y-37074523D02*
X34107857Y-35804523D01*
X34410238Y-35804523D01*
X34591666Y-35865000D01*
X34712619Y-35985952D01*
X34773095Y-36106904D01*
X34833571Y-36348809D01*
X34833571Y-36530238D01*
X34773095Y-36772142D01*
X34712619Y-36893095D01*
X34591666Y-37014047D01*
X34410238Y-37074523D01*
X34107857Y-37074523D01*
X36043095Y-37074523D02*
X35317380Y-37074523D01*
X35680238Y-37074523D02*
X35680238Y-35804523D01*
X35559285Y-35985952D01*
X35438333Y-36106904D01*
X35317380Y-36167380D01*
X37131666Y-35804523D02*
X36889761Y-35804523D01*
X36768809Y-35865000D01*
X36708333Y-35925476D01*
X36587380Y-36106904D01*
X36526904Y-36348809D01*
X36526904Y-36832619D01*
X36587380Y-36953571D01*
X36647857Y-37014047D01*
X36768809Y-37074523D01*
X37010714Y-37074523D01*
X37131666Y-37014047D01*
X37192142Y-36953571D01*
X37252619Y-36832619D01*
X37252619Y-36530238D01*
X37192142Y-36409285D01*
X37131666Y-36348809D01*
X37010714Y-36288333D01*
X36768809Y-36288333D01*
X36647857Y-36348809D01*
X36587380Y-36409285D01*
X36526904Y-36530238D01*
D13*
%TO.C,J5*%
X44067859Y-79448405D02*
G75*
G03*
X44067859Y-79448405I-100000J0D01*
G01*
D14*
%TO.C,D11*%
X118860000Y-72910000D02*
X118860000Y-70460000D01*
X117940000Y-70004000D02*
X119780000Y-70004000D01*
X119780000Y-67180000D02*
X117940000Y-67180000D01*
X117940000Y-69884000D02*
X119780000Y-69884000D01*
X118860000Y-64730000D02*
X118860000Y-67180000D01*
X117940000Y-67180000D02*
X117940000Y-70460000D01*
X117940000Y-69764000D02*
X119780000Y-69764000D01*
X117940000Y-70460000D02*
X119780000Y-70460000D01*
X119780000Y-70460000D02*
X119780000Y-67180000D01*
%TO.C,SW1*%
X110630000Y-40450000D02*
X110630000Y-41450000D01*
X108630000Y-35050000D02*
X104530000Y-35050000D01*
X108630000Y-46850000D02*
X104530000Y-46850000D01*
X103430000Y-36850000D02*
X103130000Y-37150000D01*
X116730000Y-35050000D02*
X116730000Y-37450000D01*
X103130000Y-37150000D02*
X102830000Y-36850000D01*
X110130000Y-40950000D02*
X111130000Y-40950000D01*
X116730000Y-39650000D02*
X116730000Y-42250000D01*
X104530000Y-35050000D02*
X104530000Y-46850000D01*
X116730000Y-44450000D02*
X116730000Y-46850000D01*
X102830000Y-36850000D02*
X103430000Y-36850000D01*
X112630000Y-35050000D02*
X116730000Y-35050000D01*
X116730000Y-46850000D02*
X112630000Y-46850000D01*
X113630000Y-40950000D02*
G75*
G03*
X113630000Y-40950000I-3000000J0D01*
G01*
%TO.C,R3*%
X44272500Y-37057258D02*
X44272500Y-36582742D01*
X43227500Y-37057258D02*
X43227500Y-36582742D01*
%TO.C,R7*%
X103412742Y-30992500D02*
X103887258Y-30992500D01*
X103412742Y-29947500D02*
X103887258Y-29947500D01*
%TO.C,D6*%
X79790000Y-88834000D02*
X81630000Y-88834000D01*
X79790000Y-88954000D02*
X81630000Y-88954000D01*
X79790000Y-88714000D02*
X81630000Y-88714000D01*
X79790000Y-86130000D02*
X79790000Y-89410000D01*
X80710000Y-91860000D02*
X80710000Y-89410000D01*
X79790000Y-89410000D02*
X81630000Y-89410000D01*
X81630000Y-89410000D02*
X81630000Y-86130000D01*
X81630000Y-86130000D02*
X79790000Y-86130000D01*
X80710000Y-83680000D02*
X80710000Y-86130000D01*
%TO.C,K5*%
X98285000Y-58535000D02*
X98285000Y-72505000D01*
X84315000Y-58535000D02*
X98285000Y-58535000D01*
X98285000Y-72505000D02*
X84315000Y-72505000D01*
X84315000Y-72505000D02*
X84315000Y-58535000D01*
%TO.C,K8*%
X117435000Y-91585000D02*
X103465000Y-91585000D01*
X103465000Y-91585000D02*
X103465000Y-77615000D01*
X117435000Y-77615000D02*
X117435000Y-91585000D01*
X103465000Y-77615000D02*
X117435000Y-77615000D01*
%TO.C,K6*%
X84405000Y-91555000D02*
X84405000Y-77585000D01*
X98375000Y-77585000D02*
X98375000Y-91555000D01*
X84405000Y-77585000D02*
X98375000Y-77585000D01*
X98375000Y-91555000D02*
X84405000Y-91555000D01*
%TO.C,D5*%
X79640000Y-66880000D02*
X79640000Y-70160000D01*
X79640000Y-69464000D02*
X81480000Y-69464000D01*
X80560000Y-64430000D02*
X80560000Y-66880000D01*
X81480000Y-66880000D02*
X79640000Y-66880000D01*
X79640000Y-69704000D02*
X81480000Y-69704000D01*
X81480000Y-70160000D02*
X81480000Y-66880000D01*
X79640000Y-69584000D02*
X81480000Y-69584000D01*
X80560000Y-72610000D02*
X80560000Y-70160000D01*
X79640000Y-70160000D02*
X81480000Y-70160000D01*
%TO.C,R6*%
X37537258Y-30322500D02*
X37062742Y-30322500D01*
X37537258Y-29277500D02*
X37062742Y-29277500D01*
%TO.C,K3*%
X79385000Y-72565000D02*
X65415000Y-72565000D01*
X65415000Y-72565000D02*
X65415000Y-58595000D01*
X65415000Y-58595000D02*
X79385000Y-58595000D01*
X79385000Y-58595000D02*
X79385000Y-72565000D01*
%TO.C,D2*%
X60890000Y-68424000D02*
X62730000Y-68424000D01*
X62730000Y-65840000D02*
X60890000Y-65840000D01*
X61810000Y-71570000D02*
X61810000Y-69120000D01*
X60890000Y-68664000D02*
X62730000Y-68664000D01*
X61810000Y-63390000D02*
X61810000Y-65840000D01*
X62730000Y-69120000D02*
X62730000Y-65840000D01*
X60890000Y-65840000D02*
X60890000Y-69120000D01*
X60890000Y-68544000D02*
X62730000Y-68544000D01*
X60890000Y-69120000D02*
X62730000Y-69120000D01*
%TO.C,SW3*%
X69017075Y-39712925D02*
X64517075Y-39712925D01*
X64517075Y-46212925D02*
X69017075Y-46212925D01*
X70267075Y-43712925D02*
X70267075Y-42212925D01*
X63267075Y-42212925D02*
X63267075Y-43712925D01*
%TO.C,R5*%
X45187500Y-37077258D02*
X45187500Y-36602742D01*
X46232500Y-37077258D02*
X46232500Y-36602742D01*
D15*
%TO.C,D21*%
X109235000Y-33540000D02*
X109235000Y-33540000D01*
X109235000Y-30740000D02*
X109235000Y-30740000D01*
X109235000Y-30740000D02*
X111735000Y-30740000D01*
D13*
X106385000Y-31340000D02*
X106385000Y-31340000D01*
D15*
X109235000Y-33540000D02*
X111735000Y-33540000D01*
X111735000Y-33540000D02*
X109235000Y-33540000D01*
D13*
X106385000Y-31440000D02*
X106385000Y-31440000D01*
D15*
X111735000Y-30740000D02*
X111735000Y-30740000D01*
X111735000Y-33540000D02*
X111735000Y-33540000D01*
X111735000Y-30740000D02*
X109235000Y-30740000D01*
D13*
X106385000Y-31440000D02*
X106385000Y-31440000D01*
X106385000Y-31440000D02*
G75*
G03*
X106385000Y-31340000I0J50000D01*
G01*
X106385000Y-31440000D02*
G75*
G03*
X106385000Y-31340000I0J50000D01*
G01*
X106385000Y-31340000D02*
G75*
G03*
X106385000Y-31440000I0J-50000D01*
G01*
D15*
%TO.C,D20*%
X34685000Y-92100000D02*
X37185000Y-92100000D01*
X37185000Y-94900000D02*
X34685000Y-94900000D01*
X34685000Y-94900000D02*
X34685000Y-94900000D01*
X37185000Y-92100000D02*
X34685000Y-92100000D01*
X34685000Y-94900000D02*
X37185000Y-94900000D01*
D13*
X31835000Y-92800000D02*
X31835000Y-92800000D01*
D15*
X34685000Y-92100000D02*
X34685000Y-92100000D01*
X37185000Y-92100000D02*
X37185000Y-92100000D01*
D13*
X31835000Y-92700000D02*
X31835000Y-92700000D01*
D15*
X37185000Y-94900000D02*
X37185000Y-94900000D01*
D13*
X31835000Y-92800000D02*
X31835000Y-92800000D01*
X31835000Y-92700000D02*
G75*
G03*
X31835000Y-92800000I0J-50000D01*
G01*
X31835000Y-92800000D02*
G75*
G03*
X31835000Y-92700000I0J50000D01*
G01*
X31835000Y-92800000D02*
G75*
G03*
X31835000Y-92700000I0J50000D01*
G01*
D15*
%TO.C,D18*%
X37120000Y-45370000D02*
X34620000Y-45370000D01*
X34620000Y-42570000D02*
X37120000Y-42570000D01*
D13*
X31770000Y-43270000D02*
X31770000Y-43270000D01*
D15*
X37120000Y-42570000D02*
X34620000Y-42570000D01*
D13*
X31770000Y-43170000D02*
X31770000Y-43170000D01*
X31770000Y-43270000D02*
X31770000Y-43270000D01*
D15*
X37120000Y-45370000D02*
X37120000Y-45370000D01*
X34620000Y-45370000D02*
X34620000Y-45370000D01*
X37120000Y-42570000D02*
X37120000Y-42570000D01*
X34620000Y-45370000D02*
X37120000Y-45370000D01*
X34620000Y-42570000D02*
X34620000Y-42570000D01*
D13*
X31770000Y-43270000D02*
G75*
G03*
X31770000Y-43170000I0J50000D01*
G01*
X31770000Y-43270000D02*
G75*
G03*
X31770000Y-43170000I0J50000D01*
G01*
X31770000Y-43170000D02*
G75*
G03*
X31770000Y-43270000I0J-50000D01*
G01*
D14*
%TO.C,D12*%
X117740000Y-85960000D02*
X117740000Y-89240000D01*
X118660000Y-91690000D02*
X118660000Y-89240000D01*
X119580000Y-85960000D02*
X117740000Y-85960000D01*
X117740000Y-88664000D02*
X119580000Y-88664000D01*
X119580000Y-89240000D02*
X119580000Y-85960000D01*
X118660000Y-83510000D02*
X118660000Y-85960000D01*
X117740000Y-88544000D02*
X119580000Y-88544000D01*
X117740000Y-88784000D02*
X119580000Y-88784000D01*
X117740000Y-89240000D02*
X119580000Y-89240000D01*
%TO.C,U1*%
X60250000Y-35990000D02*
X60250000Y-34730000D01*
X54240000Y-29170000D02*
X60250000Y-29170000D01*
X60250000Y-29170000D02*
X60250000Y-30430000D01*
X56490000Y-35990000D02*
X60250000Y-35990000D01*
%TO.C,SW2*%
X46307075Y-42172925D02*
X46307075Y-43672925D01*
X53307075Y-43672925D02*
X53307075Y-42172925D01*
X47557075Y-46172925D02*
X52057075Y-46172925D01*
X52057075Y-39672925D02*
X47557075Y-39672925D01*
%TO.C,C13*%
X60030000Y-52229420D02*
X60030000Y-52510580D01*
X59010000Y-52229420D02*
X59010000Y-52510580D01*
%TO.C,J2*%
X75430000Y-40235000D02*
X78030000Y-40235000D01*
X75430000Y-40235000D02*
X75430000Y-37575000D01*
X72830000Y-38905000D02*
X72830000Y-37575000D01*
X72830000Y-37575000D02*
X74160000Y-37575000D01*
X75430000Y-37575000D02*
X78030000Y-37575000D01*
X78030000Y-40235000D02*
X78030000Y-37575000D01*
D16*
%TO.C,U3*%
X50862000Y-47500000D02*
X49795200Y-47500000D01*
X49414200Y-47881000D02*
X49414200Y-57279000D01*
X49795200Y-57660000D02*
X52944800Y-57660000D01*
D17*
X49769800Y-47500000D02*
X49769800Y-57660000D01*
D16*
X52944800Y-47500000D02*
X51878000Y-47500000D01*
X51878000Y-47500000D02*
X50862000Y-47500000D01*
X53325800Y-57279000D02*
X53325800Y-47881000D01*
X49795200Y-47500000D02*
G75*
G03*
X49414200Y-47881000I-1J-380999D01*
G01*
X53325800Y-47881000D02*
G75*
G03*
X52944800Y-47500000I-380999J1D01*
G01*
X50862000Y-47500000D02*
G75*
G03*
X51878000Y-47500000I508000J0D01*
G01*
X52944800Y-57660000D02*
G75*
G03*
X53325800Y-57279000I0J381000D01*
G01*
X49414200Y-57279000D02*
G75*
G03*
X49795200Y-57660000I381000J0D01*
G01*
D14*
%TO.C,R4*%
X47932500Y-37057258D02*
X47932500Y-36582742D01*
X46887500Y-37057258D02*
X46887500Y-36582742D01*
%TO.C,D8*%
X99580000Y-64710000D02*
X99580000Y-67160000D01*
X98660000Y-69864000D02*
X100500000Y-69864000D01*
X99580000Y-72890000D02*
X99580000Y-70440000D01*
X98660000Y-67160000D02*
X98660000Y-70440000D01*
X100500000Y-67160000D02*
X98660000Y-67160000D01*
X100500000Y-70440000D02*
X100500000Y-67160000D01*
X98660000Y-69744000D02*
X100500000Y-69744000D01*
X98660000Y-69984000D02*
X100500000Y-69984000D01*
X98660000Y-70440000D02*
X100500000Y-70440000D01*
%TO.C,C14*%
X58659420Y-54730000D02*
X58940580Y-54730000D01*
X58659420Y-55750000D02*
X58940580Y-55750000D01*
%TO.C,C12*%
X57610000Y-52769420D02*
X57610000Y-53050580D01*
X56590000Y-52769420D02*
X56590000Y-53050580D01*
%TO.C,Y2*%
X57090000Y-44530000D02*
X57090000Y-50280000D01*
X60690000Y-44530000D02*
X57090000Y-44530000D01*
X60690000Y-50280000D02*
X60690000Y-44530000D01*
%TO.C,C1*%
X56480000Y-38379420D02*
X56480000Y-38660580D01*
X55460000Y-38379420D02*
X55460000Y-38660580D01*
%TO.C,R2*%
X48647500Y-37017258D02*
X48647500Y-36542742D01*
X49692500Y-37017258D02*
X49692500Y-36542742D01*
%TO.C,C2*%
X59930000Y-38339420D02*
X59930000Y-38620580D01*
X60950000Y-38339420D02*
X60950000Y-38620580D01*
%TO.C,D3*%
X60710000Y-86130000D02*
X60710000Y-89410000D01*
X60710000Y-88714000D02*
X62550000Y-88714000D01*
X62550000Y-86130000D02*
X60710000Y-86130000D01*
X61630000Y-83680000D02*
X61630000Y-86130000D01*
X60710000Y-89410000D02*
X62550000Y-89410000D01*
X62550000Y-89410000D02*
X62550000Y-86130000D01*
X61630000Y-91860000D02*
X61630000Y-89410000D01*
X60710000Y-88954000D02*
X62550000Y-88954000D01*
X60710000Y-88834000D02*
X62550000Y-88834000D01*
%TO.C,D9*%
X99660000Y-83530000D02*
X99660000Y-85980000D01*
X98740000Y-88804000D02*
X100580000Y-88804000D01*
X98740000Y-88564000D02*
X100580000Y-88564000D01*
X98740000Y-88684000D02*
X100580000Y-88684000D01*
X98740000Y-85980000D02*
X98740000Y-89260000D01*
X98740000Y-89260000D02*
X100580000Y-89260000D01*
X100580000Y-85980000D02*
X98740000Y-85980000D01*
X99660000Y-91710000D02*
X99660000Y-89260000D01*
X100580000Y-89260000D02*
X100580000Y-85980000D01*
%TO.C,K1*%
X60475000Y-58575000D02*
X60475000Y-72545000D01*
X46505000Y-58575000D02*
X60475000Y-58575000D01*
X60475000Y-72545000D02*
X46505000Y-72545000D01*
X46505000Y-72545000D02*
X46505000Y-58575000D01*
D13*
%TO.C,D19*%
X31915000Y-80480000D02*
X31915000Y-80480000D01*
D15*
X37265000Y-82680000D02*
X37265000Y-82680000D01*
D13*
X31915000Y-80580000D02*
X31915000Y-80580000D01*
D15*
X34765000Y-82680000D02*
X37265000Y-82680000D01*
D13*
X31915000Y-80580000D02*
X31915000Y-80580000D01*
D15*
X37265000Y-79880000D02*
X34765000Y-79880000D01*
X37265000Y-79880000D02*
X37265000Y-79880000D01*
X34765000Y-79880000D02*
X34765000Y-79880000D01*
X37265000Y-82680000D02*
X34765000Y-82680000D01*
X34765000Y-82680000D02*
X34765000Y-82680000D01*
X34765000Y-79880000D02*
X37265000Y-79880000D01*
D13*
X31915000Y-80480000D02*
G75*
G03*
X31915000Y-80580000I0J-50000D01*
G01*
X31915000Y-80580000D02*
G75*
G03*
X31915000Y-80480000I0J50000D01*
G01*
X31915000Y-80580000D02*
G75*
G03*
X31915000Y-80480000I0J50000D01*
G01*
D14*
%TO.C,K2*%
X60475000Y-91645000D02*
X46505000Y-91645000D01*
X46505000Y-91645000D02*
X46505000Y-77675000D01*
X60475000Y-77675000D02*
X60475000Y-91645000D01*
X46505000Y-77675000D02*
X60475000Y-77675000D01*
%TO.C,SW4*%
X81437075Y-46142925D02*
X85937075Y-46142925D01*
X80187075Y-42142925D02*
X80187075Y-43642925D01*
X87187075Y-43642925D02*
X87187075Y-42142925D01*
X85937075Y-39642925D02*
X81437075Y-39642925D01*
%TO.C,K4*%
X79435000Y-77605000D02*
X79435000Y-91575000D01*
X65465000Y-77605000D02*
X79435000Y-77605000D01*
X79435000Y-91575000D02*
X65465000Y-91575000D01*
X65465000Y-91575000D02*
X65465000Y-77605000D01*
%TO.C,K7*%
X103515000Y-58515000D02*
X117485000Y-58515000D01*
X117485000Y-72485000D02*
X103515000Y-72485000D01*
X117485000Y-58515000D02*
X117485000Y-72485000D01*
X103515000Y-72485000D02*
X103515000Y-58515000D01*
D15*
%TO.C,D16*%
X37170000Y-34970000D02*
X34670000Y-34970000D01*
X34670000Y-34970000D02*
X34670000Y-34970000D01*
X34670000Y-32170000D02*
X34670000Y-32170000D01*
X34670000Y-34970000D02*
X37170000Y-34970000D01*
D13*
X31820000Y-32770000D02*
X31820000Y-32770000D01*
D15*
X34670000Y-32170000D02*
X37170000Y-32170000D01*
X37170000Y-32170000D02*
X34670000Y-32170000D01*
X37170000Y-32170000D02*
X37170000Y-32170000D01*
D13*
X31820000Y-32870000D02*
X31820000Y-32870000D01*
D15*
X37170000Y-34970000D02*
X37170000Y-34970000D01*
D13*
X31820000Y-32870000D02*
X31820000Y-32870000D01*
X31820000Y-32870000D02*
G75*
G03*
X31820000Y-32770000I0J50000D01*
G01*
X31820000Y-32770000D02*
G75*
G03*
X31820000Y-32870000I0J-50000D01*
G01*
X31820000Y-32870000D02*
G75*
G03*
X31820000Y-32770000I0J50000D01*
G01*
%TD*%
M02*
