M48
; DRILL file {KiCad (6.0.10)} date Sun Mar  5 14:49:51 2023
; FORMAT={-:-/ absolute / inch / decimal}
; #@! TF.CreationDate,2023-03-05T14:49:51+05:30
; #@! TF.GenerationSoftware,Kicad,Pcbnew,(6.0.10)
; #@! TF.FileFunction,MixedPlating,1,2
FMAT,2
INCH
; #@! TA.AperFunction,Plated,PTH,ViaDrill
T1C0.0157
; #@! TA.AperFunction,Plated,PTH,ComponentDrill
T2C0.0236
; #@! TA.AperFunction,Plated,PTH,ComponentDrill
T3C0.0295
; #@! TA.AperFunction,Plated,PTH,ComponentDrill
T4C0.0362
; #@! TA.AperFunction,Plated,PTH,ComponentDrill
T5C0.0394
; #@! TA.AperFunction,Plated,PTH,ComponentDrill
T6C0.0433
; #@! TA.AperFunction,Plated,PTH,ComponentDrill
T7C0.0591
; #@! TA.AperFunction,Plated,PTH,ComponentDrill
T8C0.0866
; #@! TA.AperFunction,Plated,PTH,ComponentDrill
T9C0.0906
; #@! TA.AperFunction,NonPlated,NPTH,ComponentDrill
T10C0.0256
; #@! TA.AperFunction,NonPlated,NPTH,ComponentDrill
T11C0.0354
; #@! TA.AperFunction,NonPlated,NPTH,ComponentDrill
T12C0.0669
; #@! TA.AperFunction,NonPlated,NPTH,ComponentDrill
T13C0.1575
%
G90
G05
T1
X1.5114Y-1.2457
X1.7185Y-1.3441
X1.8173Y-1.8945
X1.8177Y-1.9457
X1.9075Y-1.348
X2.0496Y-2.1197
X2.2913Y-2.2638
X2.2923Y-1.547
X2.297Y-2.1041
X2.4091Y-2.3083
X2.4173Y-2.265
X2.4484Y-1.9657
X2.4819Y-2.1787
X2.5449Y-2.2921
X2.5504Y-2.1492
X2.5544Y-1.9728
X2.6106Y-1.8866
X2.6256Y-2.4169
X2.628Y-2.4988
X2.6516Y-1.9713
X2.7051Y-2.6343
X2.7911Y-1.8746
X2.8717Y-2.0087
X2.9114Y-2.0024
X2.9409Y-2.0866
X2.9461Y-2.2807
X2.9488Y-2.1492
X2.9571Y-2.0429
X2.9681Y-1.9587
X3.0098Y-2.428
X3.0189Y-1.9476
X3.0453Y-2.3614
X3.0661Y-2.1354
X3.1539Y-2.3496
X3.1921Y-2.3248
X3.2146Y-1.872
X3.2175Y-2.1854
X3.2492Y-2.1559
X3.2807Y-2.3094
X3.2807Y-2.6366
X3.3874Y-2.3441
X3.7197Y-2.4811
X3.7689Y-2.4256
X3.9138Y-2.422
X3.922Y-2.3161
X4.0386Y-2.6516
X4.1457Y-2.3728
X4.1705Y-2.4323
X4.4736Y-2.137
X4.4961Y-1.8039
X4.5291Y-2.4319
X4.5701Y-2.511
X4.6748Y-1.8224
X4.8252Y-3.0169
T3
X2.4264Y-3.2555
X2.4264Y-3.6555
X2.4335Y-2.4567
X2.4335Y-2.8567
X3.1717Y-2.4976
X3.1717Y-2.8976
X3.1776Y-3.2555
X3.1776Y-3.6555
X3.9205Y-2.5087
X3.9205Y-2.9087
X3.9236Y-3.2496
X3.9236Y-3.6496
X4.6717Y-3.2488
X4.6717Y-3.6488
X4.6795Y-2.5094
X4.6795Y-2.9094
T4
X1.6508Y-1.5863
X1.6508Y-1.6847
X1.6508Y-1.7635
X1.6508Y-1.8619
X1.6524Y-2.3598
X1.6524Y-2.4583
X1.6524Y-2.537
X1.6524Y-2.6354
X1.6645Y-3.1279
X1.6645Y-3.2263
X1.6645Y-3.3051
X1.6645Y-3.4035
T5
X2.9197Y-1.5317
X3.0197Y-1.5317
X4.0602Y-1.5138
X4.0602Y-1.6122
X4.0602Y-1.7106
X4.6311Y-1.5138
X4.6311Y-1.7106
T6
X1.833Y-1.6013
X1.833Y-1.7785
X2.0889Y-1.6013
X2.0889Y-1.7785
X2.5007Y-1.6029
X2.5007Y-1.78
X2.7566Y-1.6029
X2.7566Y-1.78
X3.1668Y-1.6001
X3.1668Y-1.7773
X3.4227Y-1.6001
X3.4227Y-1.7773
T7
X2.0059Y-2.7811
X2.0059Y-3.5331
X2.2559Y-2.6811
X2.2559Y-3.4331
X2.7504Y-2.7819
X2.7524Y-3.5303
X3.0004Y-2.6819
X3.0024Y-3.4303
X3.4945Y-2.7795
X3.498Y-3.5295
X3.7445Y-2.6795
X3.748Y-3.4295
X4.2484Y-3.5307
X4.2504Y-2.7787
X4.4984Y-3.4307
X4.5004Y-2.6787
T8
X1.287Y-3.8382
X1.2874Y-1.1626
X4.7535Y-3.8244
X4.7579Y-1.1606
T9
X1.5441Y-1.4655
X1.5441Y-1.9828
X1.5457Y-2.239
X1.5457Y-2.7563
X1.5578Y-3.007
X1.5578Y-3.5243
T10
X1.6988Y-1.253
X1.9264Y-1.253
T11
X4.8228Y-1.5587
X4.8228Y-1.6768
T12
X1.9059Y-2.5811
X1.9059Y-3.3331
X2.3059Y-2.5811
X2.3059Y-3.3331
X2.6504Y-2.5819
X2.6524Y-3.3303
X3.0504Y-2.5819
X3.0524Y-3.3303
X3.3945Y-2.5795
X3.398Y-3.3295
X3.7945Y-2.5795
X3.798Y-3.3295
X4.1484Y-3.3307
X4.1504Y-2.5787
X4.5484Y-3.3307
X4.5504Y-2.5787
T13
X2.1059Y-2.5811
X2.1059Y-3.3331
X2.8504Y-2.5819
X2.8524Y-3.3303
X3.5945Y-2.5795
X3.598Y-3.3295
X4.3484Y-3.3307
X4.3504Y-2.5787
T2
G00X1.6425Y-1.1238
M15
G01X1.6425Y-1.0923
M16
G05
G00X1.6425Y-1.2951
M15
G01X1.6425Y-1.2518
M16
G05
G00X1.9827Y-1.1238
M15
G01X1.9827Y-1.0923
M16
G05
G00X1.9827Y-1.2951
M15
G01X1.9827Y-1.2518
M16
G05
T7
G00X4.3299Y-1.3917
M15
G01X4.3811Y-1.3917
M16
G05
G00X4.3299Y-1.8327
M15
G01X4.3811Y-1.8327
M16
G05
T0
M30
