M48
METRIC,TZ
T1C0.500
%
G90
G05
T1
X81534Y-94742
X81534Y-179832
X81534Y-184912
X81552Y-194677
X81567Y-79722
X81627Y-74889
X81642Y-189767
X81695Y-69850
X81705Y-84840
X81758Y-63938
X81800Y-221700
X82151Y-142240
X82484Y-218492
X82513Y-163830
X82800Y-187706
X82820Y-63900
X82835Y-192750
X83120Y-67660
X83230Y-133050
X83250Y-213050
X83270Y-73040
X83290Y-153040
X83300Y-78090
X83300Y-83140
X83300Y-113120
X83310Y-118050
X83320Y-158090
X83320Y-162560
X83330Y-198050
X83340Y-103110
X83340Y-138010
X83350Y-98070
X83360Y-88130
X83360Y-128100
X83360Y-183110
X83360Y-218010
X83370Y-93090
X83370Y-178070
X83380Y-168130
X83380Y-208100
X83390Y-173090
X83450Y-108130
X83470Y-123020
X83490Y-203020
X84074Y-143764
X85007Y-86683
X85038Y-126492
X85090Y-91440
X85091Y-186454
X85160Y-211365
X85299Y-174244
X85344Y-151384
X85344Y-160274
X85344Y-200152
X85355Y-150124
X85400Y-141650
X85420Y-221650
X85471Y-184658
X85580Y-145077
X85598Y-73765
X85598Y-104648
X85840Y-63924
X85852Y-92202
X85852Y-94234
X85852Y-115062
X86197Y-214285
X86388Y-99822
X86418Y-189717
X86540Y-185092
X86614Y-90170
X86672Y-169889
X87049Y-222319
X87770Y-142670
X87837Y-122600
X87837Y-127640
X88138Y-67564
X88203Y-83075
X88270Y-138010
X88290Y-218010
X88310Y-133050
X88320Y-108130
X88330Y-213050
X88340Y-188130
X88370Y-118050
X88390Y-198050
X88410Y-73040
X88410Y-98070
X88420Y-203020
X88430Y-153040
X88430Y-178070
X88440Y-78090
X88450Y-88130
X88450Y-113120
X88460Y-103110
X88460Y-158090
X88470Y-168130
X88470Y-193120
X88480Y-183110
X88500Y-93090
X88510Y-208100
X88520Y-173090
X88590Y-163140
X89408Y-198774
X89632Y-218948
X89983Y-76624
X89996Y-111586
X90170Y-140462
X90170Y-141732
X90346Y-86614
X90347Y-89916
X90424Y-109474
X90424Y-179832
X90424Y-186436
X90424Y-201422
X90678Y-78994
X90678Y-94234
X90678Y-216916
X90800Y-221960
X90854Y-88978
X90932Y-100076
X91186Y-134874
X91186Y-145288
X91186Y-170434
X91440Y-96774
X91440Y-184912
X91694Y-90170
X92740Y-142670
X92830Y-92668
X92830Y-107656
X92832Y-102748
X93220Y-88136
X93310Y-118050
X93330Y-98070
X93330Y-198050
X93340Y-133050
X93350Y-178070
X93360Y-78090
X93360Y-128100
X93360Y-213050
X93380Y-73040
X93380Y-158090
X93380Y-208100
X93400Y-153040
X93420Y-123020
X93440Y-203020
X93460Y-173090
X93470Y-168130
X93480Y-138010
X93490Y-183110
X93500Y-218010
X93560Y-113120
X93561Y-83349
X93580Y-163140
X93580Y-193120
X93910Y-188130
X94234Y-198882
X95158Y-124036
X95250Y-71628
X95250Y-126492
X95254Y-69084
X95339Y-153765
X95380Y-141680
X95470Y-221670
X95504Y-172212
X95504Y-184404
X95702Y-100094
X95758Y-101092
X95758Y-130048
X95758Y-145796
X95758Y-151892
X95758Y-191770
X95988Y-68072
X96012Y-170942
X96012Y-209804
X96139Y-65405
X96530Y-221040
X96713Y-84836
X96713Y-89916
X97780Y-142670
X98310Y-138010
X98330Y-118050
X98330Y-218010
X98350Y-198050
X98370Y-113120
X98370Y-133050
X98390Y-98070
X98390Y-108130
X98390Y-193120
X98390Y-213050
X98410Y-178070
X98410Y-188130
X98420Y-73040
X98430Y-88130
X98440Y-103110
X98440Y-153040
X98450Y-168130
X98460Y-183110
X98470Y-208100
X98480Y-78090
X98500Y-93090
X98500Y-158090
X98510Y-83140
X98520Y-173090
X98530Y-163140
X98580Y-203020
X98948Y-123698
X98948Y-128100
X98968Y-198882
X99822Y-94862
X100076Y-141478
X100076Y-221488
X100095Y-161567
X100345Y-191269
X100387Y-99531
X100397Y-110236
X100409Y-73765
X100417Y-192278
X100417Y-195580
X100417Y-208824
X100498Y-101178
X100584Y-66802
X100584Y-111506
X100584Y-116586
X100584Y-120650
X100584Y-128824
X100838Y-70104
X100838Y-74676
X100838Y-210312
X100838Y-211582
X100838Y-214122
X100877Y-187276
X100901Y-153765
X101092Y-139954
X101490Y-221490
X101567Y-79732
X101600Y-84836
X101803Y-173814
X102316Y-193120
X102521Y-162938
X102710Y-142670
X102760Y-77723
X102800Y-187706
X102800Y-207518
X102919Y-212549
X103220Y-118050
X103240Y-198050
X103280Y-123020
X103300Y-203020
X103310Y-73040
X103310Y-158090
X103320Y-98070
X103330Y-153040
X103340Y-178070
X103350Y-173090
X103380Y-138010
X103380Y-168130
X103400Y-133050
X103400Y-218010
X103420Y-83140
X103420Y-128100
X103470Y-113120
X103480Y-183110
X103840Y-88130
X103840Y-103110
X103840Y-108130
X104236Y-92525
X104236Y-93955
X104902Y-199390
X104934Y-106639
X104990Y-121534
X105309Y-195072
X105410Y-78815
X105410Y-155956
X105410Y-205486
X105440Y-141680
X105460Y-221680
X105664Y-102362
X105664Y-120142
X105664Y-151638
X105664Y-171958
X105664Y-182118
X106172Y-99314
X106246Y-79539
X106426Y-139954
X106490Y-221200
X106663Y-73765
X106680Y-89916
X107740Y-142670
X107815Y-77723
X107827Y-97429
X107837Y-72547
X107837Y-92489
X107837Y-112460
X107837Y-117602
X108290Y-108130
X108290Y-133050
X108310Y-213050
X108340Y-123020
X108350Y-88130
X108370Y-198050
X108390Y-138010
X108390Y-178070
X108400Y-158090
X108410Y-103110
X108410Y-218010
X108430Y-183110
X108460Y-128100
X108460Y-153040
X108500Y-173090
X108510Y-83140
X108530Y-163140
X108712Y-67818
X108783Y-192600
X108918Y-168656
X108918Y-203020
X108918Y-208100
X109232Y-83865
X109474Y-198882
X110100Y-141640
X110120Y-221640
X110236Y-101600
X110236Y-126746
X110340Y-188101
X110347Y-108966
X110347Y-134366
X110367Y-169418
X110490Y-106934
X110490Y-111506
X110490Y-130302
X110490Y-185420
X110490Y-204470
X110744Y-89662
X110744Y-139192
X111506Y-74676
X111506Y-79756
X111506Y-119634
X111506Y-141946
X111520Y-221200
X112740Y-142670
X113240Y-93090
X113260Y-133050
X113260Y-173090
X113270Y-78090
X113271Y-117366
X113280Y-198050
X113290Y-138010
X113290Y-158090
X113300Y-113120
X113310Y-123020
X113310Y-128100
X113310Y-218010
X113320Y-103110
X113330Y-203020
X113340Y-98070
X113340Y-183110
X113360Y-178070
X113390Y-73040
X113390Y-88130
X113390Y-108130
X113410Y-153040
X113410Y-168130
X113460Y-83140
X113870Y-192786
X113870Y-198882
X113870Y-213050
X113880Y-163140
X114300Y-93815
X114300Y-208100
X114338Y-188130
X114859Y-186690
X115062Y-76454
X115304Y-206045
X115316Y-79756
X115316Y-101092
X115316Y-119634
X115316Y-156264
X115370Y-141600
X115390Y-221600
X115570Y-129032
X115570Y-159512
X115570Y-207264
X115779Y-160495
X116078Y-145288
X116078Y-184912
X116229Y-169672
X116332Y-134620
X116390Y-221600
X116673Y-68715
X117750Y-142670
X118320Y-128100
X118340Y-208100
X118350Y-133050
X118370Y-213050
X118380Y-153040
X118380Y-193120
X118390Y-178070
X118400Y-108130
X118410Y-123020
X118410Y-198050
X118420Y-158090
X118420Y-188130
X118430Y-203020
X118440Y-138010
X118450Y-173090
X118460Y-218010
X118470Y-103110
X118480Y-88130
X118490Y-183110
X118500Y-168130
X118660Y-83140
X118680Y-163140
X118872Y-113120
X118872Y-118050
X118888Y-73040
X118898Y-78090
X118898Y-98070
X119126Y-193844
X119634Y-83865
X119926Y-93053
X120070Y-141630
X120090Y-221630
X120258Y-186868
X120396Y-157226
X120396Y-184150
X120650Y-98806
X120650Y-135636
X120650Y-162306
X120650Y-165862
X120650Y-198882
X120650Y-205994
X120904Y-114808
X120904Y-146050
X120904Y-169164
X121510Y-221560
X121625Y-68725
X122770Y-142670
X122800Y-128100
X123190Y-93090
X123210Y-173090
X123240Y-78090
X123260Y-133050
X123260Y-158090
X123280Y-213050
X123310Y-73040
X123310Y-113120
X123320Y-103110
X123330Y-153040
X123330Y-193120
X123340Y-183110
X123350Y-88130
X123370Y-98070
X123370Y-123020
X123370Y-168130
X123370Y-208100
X123390Y-138010
X123390Y-178070
X123390Y-203020
X123410Y-118050
X123410Y-218010
X123430Y-198050
X123480Y-108130
X123500Y-188130
X123550Y-83140
X123570Y-163140
X123981Y-128524
X124460Y-88855
X125171Y-196813
X125222Y-195326
X125222Y-214122
X125430Y-141620
X125730Y-146558
X126070Y-221570
X126683Y-73765
X127730Y-142670
X128191Y-93059
X128211Y-173059
X128310Y-78090
X128320Y-108130
X128330Y-113120
X128330Y-133050
X128330Y-158090
X128340Y-188130
X128350Y-193120
X128350Y-213050
X128370Y-98070
X128380Y-138010
X128390Y-178070
X128400Y-123020
X128400Y-218010
X128410Y-73040
X128420Y-203020
X128430Y-153040
X128440Y-118050
X128460Y-198050
X128470Y-103110
X128480Y-128100
X128490Y-183110
X128500Y-88130
X128500Y-208100
X128510Y-83140
X128520Y-168130
X128530Y-163140
X129336Y-88855
X129794Y-193844
X130230Y-141650
X130302Y-211582
X130556Y-101346
X130810Y-123952
X130810Y-145288
X130810Y-147066
X130994Y-114088
X131270Y-221590
X131615Y-68725
X132740Y-142670
X133220Y-78090
X133240Y-158090
X133280Y-88130
X133290Y-123020
X133300Y-83140
X133300Y-168130
X133310Y-113120
X133310Y-203020
X133320Y-98070
X133320Y-133050
X133320Y-163140
X133330Y-128100
X133330Y-193120
X133340Y-178070
X133340Y-213050
X133350Y-118050
X133350Y-208100
X133360Y-108130
X133370Y-198050
X133380Y-188130
X133390Y-138010
X133400Y-93090
X133410Y-218010
X133420Y-73040
X133420Y-173090
X133440Y-153040
X133470Y-103110
X133490Y-183110
X134620Y-88900
X134874Y-192278
X135360Y-141620
X135382Y-211074
X135890Y-80010
X135890Y-147320
X135890Y-151130
X135890Y-174498
X136144Y-84836
X136398Y-69342
X136550Y-221580
X137780Y-142680
X137922Y-123020
X138194Y-78072
X138342Y-138010
X138380Y-218010
X138430Y-88130
X138430Y-93090
X138430Y-98070
X138430Y-113120
X138430Y-118050
X138430Y-193120
X138430Y-203020
X138450Y-108130
X138450Y-128110
X138470Y-83140
X138470Y-188130
X138470Y-208110
X138480Y-178060
X138502Y-163140
X138520Y-103100
X138522Y-158080
X138530Y-73030
X138530Y-133050
X138550Y-213050
X138552Y-153030
X138610Y-168130
X138610Y-173090
X138610Y-198050
X138684Y-183100
X139700Y-88900
X139737Y-183896
X140090Y-141610
X140462Y-203962
X140500Y-91190
X140970Y-65786
X140970Y-119888
X140970Y-147828
X141450Y-221580
X142750Y-142660
X143250Y-133040
X143270Y-213040
X143290Y-73030
X143310Y-153030
X143320Y-78080
X143320Y-83130
X143320Y-113110
X143330Y-118040
X143340Y-158080
X143340Y-163130
X143340Y-193110
X143350Y-198040
X143360Y-103100
X143360Y-138000
X143370Y-98060
X143380Y-88120
X143380Y-128090
X143380Y-183100
X143380Y-218000
X143390Y-93080
X143390Y-178060
X143400Y-168120
X143400Y-208090
X143410Y-173080
X143470Y-108120
X143490Y-123010
X143490Y-188120
X143510Y-203010
X144526Y-98806
X144564Y-183965
X145288Y-202184
X145299Y-93726
X145420Y-141640
X146050Y-66802
X146050Y-148082
X146360Y-221600
X147790Y-142660
X148290Y-138000
X148310Y-218000
X148330Y-133040
X148340Y-108120
X148350Y-213040
X148360Y-188120
X148390Y-118040
X148410Y-198040
X148420Y-123010
X148430Y-73030
X148430Y-98060
X148440Y-203010
X148450Y-153030
X148450Y-178060
X148460Y-78080
X148470Y-88120
X148470Y-113110
X148480Y-103100
X148480Y-158080
X148490Y-168120
X148490Y-193110
X148500Y-183100
X148510Y-128090
X148520Y-93080
X148530Y-208090
X148540Y-173080
X148590Y-83130
X148610Y-163130
X149352Y-98784
X149352Y-183896
X150060Y-141680
X150368Y-201676
X150622Y-181356
X151130Y-148590
X151384Y-65024
X151384Y-124714
X151490Y-221620
X152760Y-142660
X153330Y-118040
X153350Y-98060
X153350Y-198040
X153360Y-108120
X153360Y-133040
X153370Y-178060
X153380Y-78080
X153380Y-128090
X153380Y-188120
X153380Y-213040
X153400Y-73030
X153400Y-158080
X153400Y-208090
X153420Y-153030
X153440Y-123010
X153460Y-93080
X153460Y-203010
X153470Y-88120
X153480Y-173080
X153490Y-103100
X153490Y-168120
X153500Y-138000
X153510Y-183100
X153520Y-218000
X153580Y-83130
X153580Y-113110
X153600Y-163130
X153600Y-193110
X154216Y-178816
X154432Y-98784
X155448Y-201168
X155460Y-141680
X155702Y-91440
X155702Y-130810
X155702Y-152146
X155702Y-174244
X155702Y-191516
X156427Y-174969
X156464Y-65024
X156480Y-221570
X157800Y-142660
X158330Y-138000
X158350Y-118040
X158350Y-218000
X158370Y-198040
X158390Y-113110
X158390Y-133040
X158410Y-98060
X158410Y-108120
X158410Y-193110
X158410Y-213040
X158430Y-178060
X158430Y-188120
X158440Y-73030
X158450Y-88120
X158460Y-103100
X158460Y-153030
X158470Y-128090
X158470Y-168120
X158480Y-183100
X158490Y-208090
X158500Y-78080
X158520Y-93080
X158520Y-158080
X158530Y-83130
X158540Y-173080
X158550Y-163130
X158580Y-123010
X158600Y-203010
X159512Y-98806
X159512Y-178816
X160151Y-101501
X160190Y-141630
X160310Y-221480
X160528Y-76962
X160528Y-200152
X161290Y-169164
X161542Y-199646
X161544Y-221488
X162730Y-142660
X163240Y-118040
X163260Y-198040
X163300Y-123010
X163310Y-78080
X163310Y-108120
X163320Y-203010
X163330Y-73030
X163330Y-158080
X163330Y-188120
X163340Y-98060
X163350Y-93080
X163350Y-153030
X163360Y-178060
X163370Y-173080
X163380Y-88120
X163400Y-138000
X163400Y-168120
X163420Y-133040
X163420Y-218000
X163440Y-83130
X163440Y-128090
X163440Y-213040
X163460Y-163130
X163460Y-208090
X163480Y-103100
X163490Y-113110
X163500Y-183100
X163510Y-193110
X164592Y-122286
X164846Y-183896
X164915Y-76600
X165100Y-96774
X165354Y-196850
X165354Y-210820
X165400Y-141660
X165608Y-179070
X165862Y-167132
X165862Y-205740
X166320Y-221334
X167760Y-142660
X168310Y-108120
X168310Y-133040
X168330Y-188120
X168330Y-213040
X168360Y-123010
X168370Y-88120
X168370Y-118040
X168380Y-203010
X168390Y-98060
X168390Y-168120
X168390Y-198040
X168400Y-78080
X168410Y-138000
X168410Y-178060
X168420Y-113110
X168420Y-158080
X168430Y-103100
X168430Y-218000
X168440Y-193110
X168450Y-183100
X168460Y-73030
X168480Y-128090
X168480Y-153030
X168500Y-93080
X168500Y-208090
X168520Y-173080
X168530Y-83130
X168550Y-163130
X169672Y-183896
X169773Y-118765
X170230Y-141680
X170357Y-94488
X170454Y-201561
X170688Y-75946
X170688Y-195326
X170688Y-205232
X170942Y-166370
X171140Y-221630
X172760Y-142660
X173260Y-93080
X173280Y-118040
X173280Y-133040
X173280Y-173080
X173290Y-78080
X173300Y-198040
X173300Y-213040
X173310Y-138000
X173310Y-158080
X173320Y-113110
X173330Y-123010
X173330Y-128090
X173330Y-218000
X173340Y-103100
X173340Y-193110
X173350Y-203010
X173350Y-208090
X173360Y-98060
X173360Y-183100
X173380Y-178060
X173410Y-73030
X173410Y-88120
X173410Y-108120
X173430Y-153030
X173430Y-168120
X173430Y-188120
X173480Y-83130
X173500Y-163130
X174498Y-183896
X175490Y-141600
X175514Y-211582
X175768Y-94488
X175768Y-195834
X175768Y-201111
X175768Y-203962
X175770Y-182370
X176022Y-89916
X176022Y-164084
X176090Y-221600
X176276Y-80010
X176276Y-100076
X176440Y-140120
X177770Y-142660
X178340Y-128090
X178360Y-208090
X178370Y-133040
X178380Y-73030
X178380Y-113110
X178390Y-98060
X178390Y-213040
X178400Y-153030
X178400Y-193110
X178410Y-118040
X178410Y-178060
X178420Y-78080
X178420Y-108120
X178430Y-123010
X178430Y-198040
X178440Y-158080
X178440Y-188120
X178450Y-93080
X178450Y-203010
X178460Y-138000
X178470Y-173080
X178480Y-218000
X178490Y-103100
X178500Y-88120
X178510Y-183100
X178520Y-168120
X178680Y-83130
X178700Y-163130
X179324Y-183896
X180070Y-141670
X180151Y-101411
X180344Y-200918
X180357Y-74676
X180377Y-127281
X180594Y-80010
X180594Y-192024
X180594Y-207264
X180827Y-102362
X180827Y-121666
X180848Y-161544
X180886Y-80966
X181102Y-76962
X181280Y-139930
X181280Y-221550
X181356Y-169672
X181466Y-94638
X182118Y-83855
X182320Y-127554
X182790Y-142660
X182800Y-77470
X182820Y-72470
X182820Y-122428
X183210Y-93080
X183230Y-173080
X183280Y-133040
X183280Y-158080
X183300Y-213040
X183330Y-113110
X183340Y-103100
X183350Y-153030
X183350Y-193110
X183360Y-183100
X183370Y-88120
X183390Y-98060
X183390Y-168120
X183390Y-208090
X183410Y-138000
X183410Y-178060
X183410Y-203010
X183430Y-118040
X183430Y-218000
X183450Y-198040
X183500Y-108120
X183520Y-188120
X183570Y-83130
X183590Y-163130
X184404Y-183824
X185166Y-91694
X185420Y-71120
X185420Y-171704
X185450Y-141620
X185636Y-201350
X185674Y-191516
X185674Y-215900
X185928Y-119888
X186182Y-114808
X186240Y-139850
X186240Y-221530
X186436Y-79756
X186690Y-84074
X186690Y-88900
X186723Y-153755
X187356Y-212598
X187750Y-142660
X187887Y-182626
X187895Y-157713
X187897Y-207643
X187898Y-187705
X187948Y-162740
X188211Y-93049
X188231Y-173049
X188330Y-78080
X188340Y-108120
X188350Y-113110
X188350Y-133040
X188370Y-193110
X188400Y-138000
X188410Y-178060
X188420Y-123010
X188420Y-218000
X188430Y-73030
X188440Y-203010
X188450Y-153030
X188460Y-118040
X188480Y-198040
X188500Y-128090
X188520Y-88120
X188530Y-83130
X188540Y-168120
X188928Y-98060
X188938Y-102616
X189738Y-178816
X190016Y-131587
X190170Y-141550
X190246Y-81534
X190500Y-201930
X190504Y-199132
X190754Y-69596
X190754Y-99822
X190754Y-134874
X190971Y-89408
X191008Y-154940
X191008Y-174498
X191008Y-194564
X191220Y-139920
X191410Y-221580
X191617Y-159702
X192024Y-98060
X192282Y-102612
X192760Y-142660
X193260Y-158080
X193300Y-88120
X193320Y-83130
X193320Y-168120
X193330Y-113110
X193330Y-203010
X193340Y-133040
X193340Y-163130
X193350Y-193110
X193360Y-178060
X193360Y-213040
X193370Y-118040
X193370Y-208090
X193380Y-108120
X193390Y-198040
X193400Y-188120
X193420Y-93080
X193430Y-218000
X193440Y-73030
X193440Y-173080
X193460Y-153030
X193510Y-183100
X193548Y-138000
X193849Y-127534
X193860Y-78080
X193870Y-123010
X194056Y-178816
X195072Y-186690
X195134Y-131771
X195319Y-129032
X195326Y-166370
X195326Y-199390
X195450Y-141660
X195580Y-82042
X195580Y-88900
X195580Y-201676
X195580Y-216408
X196342Y-69850
X196342Y-194818
X196470Y-221580
X196596Y-109982
X196713Y-153755
X197790Y-142711
X198374Y-103100
X198374Y-203010
X198400Y-218000
X198460Y-78080
X198470Y-108120
X198470Y-178060
X198480Y-128090
X198540Y-73030
X198550Y-113110
X198550Y-133040
X198560Y-153030
X198570Y-193110
X198610Y-88120
X198610Y-118040
X198628Y-83130
X198628Y-93090
X198628Y-98070
X198628Y-123010
X198630Y-168120
X198630Y-173080
X198630Y-198040
X198844Y-188129
X198882Y-138000
X198948Y-213548
X199428Y-178816
X199456Y-158093
X199644Y-163130
X199898Y-182626
X199898Y-208064
X200150Y-141590
X200152Y-126492
X200406Y-73914
X200406Y-79756
X200406Y-94996
X200406Y-191516
X200406Y-200660
X200660Y-219710
X201030Y-221620
X201168Y-85090
X201168Y-154940
X202740Y-142660
X203240Y-133040
X203260Y-213040
X203280Y-73030
X203300Y-153030
X203310Y-78080
X203310Y-83130
X203310Y-113110
X203320Y-118040
X203330Y-158080
X203330Y-163130
X203330Y-193110
X203340Y-198040
X203350Y-103100
X203350Y-138000
X203360Y-98060
X203370Y-88120
X203370Y-128090
X203370Y-183100
X203370Y-218000
X203380Y-93080
X203380Y-178060
X203390Y-168120
X203390Y-208090
X203400Y-173080
X203460Y-108120
X203480Y-123010
X203480Y-188120
X203500Y-203010
X204216Y-178816
X205289Y-94234
X205410Y-141640
X205486Y-74930
X205486Y-170180
X205486Y-203962
X205740Y-211074
X205830Y-221790
X205994Y-104140
X206693Y-153755
X207780Y-142660
X208280Y-138000
X208300Y-218000
X208320Y-133040
X208330Y-108120
X208340Y-213040
X208350Y-188120
X208380Y-118040
X208400Y-198040
X208410Y-123010
X208420Y-73030
X208420Y-98060
X208430Y-203010
X208440Y-153030
X208440Y-178060
X208450Y-78080
X208460Y-88120
X208460Y-113110
X208470Y-103100
X208470Y-158080
X208480Y-168120
X208480Y-193110
X208490Y-183100
X208500Y-128090
X208510Y-93080
X208520Y-208090
X208530Y-173080
X208580Y-83130
X208600Y-163130
X209296Y-178816
X210230Y-141490
X210566Y-91948
X210566Y-204724
X210820Y-76200
X210820Y-187198
X210820Y-210312
X210890Y-222070
X211328Y-153924
X212750Y-142660
X213320Y-118040
X213340Y-98060
X213340Y-198040
X213350Y-108120
X213350Y-133040
X213360Y-178060
X213370Y-78080
X213370Y-128090
X213370Y-188120
X213370Y-213040
X213390Y-73030
X213390Y-158080
X213390Y-208090
X213410Y-153030
X213430Y-123010
X213450Y-93080
X213450Y-203010
X213460Y-88120
X213470Y-173080
X213480Y-103100
X213480Y-168120
X213490Y-138000
X213500Y-183100
X213510Y-218000
X213570Y-83130
X213570Y-113110
X213590Y-163130
X213590Y-193110
X214376Y-178816
X215146Y-91448
X215392Y-76962
X215510Y-141690
X215900Y-205486
X215900Y-216662
X216600Y-221600
X216720Y-158805
X217790Y-142660
X218320Y-138000
X218340Y-118040
X218340Y-218000
X218360Y-198040
X218380Y-113110
X218380Y-133040
X218400Y-98060
X218400Y-108120
X218400Y-193110
X218400Y-213040
X218420Y-178060
X218420Y-188120
X218430Y-73030
X218440Y-88120
X218450Y-103100
X218450Y-153030
X218460Y-128090
X218460Y-168120
X218470Y-183100
X218480Y-208090
X218490Y-78080
X218510Y-93080
X218510Y-158080
X218520Y-83130
X218530Y-173080
X218540Y-163130
X218570Y-123010
X218590Y-203010
X219456Y-178896
X220240Y-141600
X220348Y-91242
X220472Y-206248
X220726Y-78994
X220980Y-159004
X221470Y-221600
X222720Y-142660
X223230Y-118040
X223250Y-198040
X223290Y-123010
X223300Y-78080
X223300Y-108120
X223310Y-203010
X223320Y-73030
X223320Y-158080
X223320Y-188120
X223330Y-98060
X223340Y-93080
X223340Y-153030
X223350Y-178060
X223360Y-173080
X223370Y-88120
X223390Y-138000
X223390Y-168120
X223410Y-133040
X223410Y-218000
X223430Y-83130
X223430Y-128090
X223430Y-213040
X223450Y-163130
X223450Y-208090
X223470Y-103100
X223480Y-113110
X223490Y-183100
X223500Y-193110
X224065Y-178816
X225298Y-206502
X225299Y-90678
X225440Y-141650
X225552Y-71882
X226500Y-221620
X226670Y-158805
X227750Y-142660
X228300Y-108120
X228300Y-133040
X228320Y-188120
X228320Y-213040
X228350Y-123010
X228360Y-88120
X228360Y-118040
X228370Y-203010
X228380Y-98060
X228380Y-168120
X228380Y-198040
X228390Y-78080
X228400Y-138000
X228400Y-178060
X228410Y-113110
X228410Y-158080
X228420Y-103100
X228420Y-218000
X228430Y-193110
X228440Y-183100
X228450Y-73030
X228470Y-128090
X228470Y-153030
X228490Y-93080
X228490Y-208090
X228510Y-173080
X228520Y-83130
X228540Y-163130
X228918Y-178915
X230080Y-141600
X230378Y-96012
X230378Y-209042
X230632Y-79248
X231140Y-159258
X231380Y-221580
X232750Y-142660
X233250Y-93080
X233270Y-118040
X233270Y-133040
X233270Y-173080
X233280Y-78080
X233290Y-198040
X233290Y-213040
X233300Y-138000
X233300Y-158080
X233310Y-113110
X233320Y-123010
X233320Y-128090
X233320Y-218000
X233330Y-103100
X233330Y-193110
X233340Y-203010
X233340Y-208090
X233350Y-98060
X233350Y-183100
X233370Y-178060
X233400Y-73030
X233400Y-88120
X233400Y-108120
X233420Y-153030
X233420Y-168120
X233420Y-188120
X233470Y-83130
X233490Y-163130
X234188Y-178816
X235204Y-96774
X235204Y-211328
X235450Y-141620
X235458Y-71120
X236220Y-159766
X236450Y-221570
X237760Y-142660
X238330Y-128090
X238350Y-208090
X238360Y-133040
X238370Y-73030
X238370Y-113110
X238380Y-98060
X238380Y-213040
X238390Y-153030
X238390Y-193110
X238400Y-118040
X238400Y-178060
X238410Y-78080
X238410Y-108120
X238420Y-123010
X238420Y-198040
X238430Y-158080
X238430Y-188120
X238440Y-93080
X238440Y-203010
X238450Y-138000
X238460Y-173080
X238470Y-218000
X238480Y-103100
X238490Y-88120
X238500Y-183100
X238510Y-168120
X238670Y-83130
X238690Y-163130
X239268Y-178909
X240080Y-106492
X240230Y-141936
X240284Y-211836
X241046Y-159512
X241250Y-139970
X241470Y-221590
X242780Y-142660
X243200Y-93080
X243220Y-173080
X243250Y-78080
X243270Y-133040
X243270Y-158080
X243290Y-213040
X243320Y-73030
X243320Y-113110
X243330Y-103100
X243340Y-153030
X243340Y-193110
X243350Y-183100
X243360Y-88120
X243360Y-128090
X243380Y-98060
X243380Y-123010
X243380Y-168120
X243380Y-208090
X243400Y-138000
X243400Y-178060
X243400Y-203010
X243420Y-118040
X243420Y-218000
X243440Y-198040
X243490Y-108120
X243510Y-188120
X243560Y-83130
X243580Y-163130
X244602Y-178936
X245364Y-125222
X245364Y-209804
X245872Y-157226
X246126Y-80264
X246400Y-221530
X247740Y-142660
X248201Y-93049
X248221Y-173049
X248320Y-78080
X248330Y-108120
X248340Y-113110
X248340Y-133040
X248340Y-158080
X248350Y-188120
X248360Y-193110
X248360Y-213040
X248380Y-98060
X248390Y-138000
X248400Y-178060
X248410Y-123010
X248410Y-218000
X248420Y-73030
X248430Y-203010
X248440Y-153030
X248450Y-118040
X248470Y-198040
X248480Y-103100
X248490Y-128090
X248500Y-183100
X248510Y-88120
X248510Y-208090
X248520Y-83130
X248530Y-168120
X248540Y-163130
X248938Y-173804
X249174Y-203735
X249936Y-98902
X250190Y-161544
X250190Y-181610
X250230Y-211803
X250444Y-124460
X250698Y-157226
X250952Y-79502
X251180Y-180086
X251206Y-160020
X251206Y-209804
X251600Y-221540
X252750Y-142660
X253230Y-78080
X253250Y-158080
X253290Y-88120
X253300Y-123010
X253310Y-83130
X253310Y-168120
X253320Y-113110
X253320Y-203010
X253330Y-98060
X253330Y-133040
X253330Y-163130
X253340Y-128090
X253340Y-193110
X253350Y-178060
X253350Y-213040
X253360Y-118040
X253360Y-208090
X253370Y-108120
X253380Y-198040
X253390Y-188120
X253400Y-138000
X253410Y-93080
X253420Y-218000
X253430Y-73030
X253430Y-173080
X253450Y-153030
X253480Y-103100
X253500Y-183100
X254508Y-173990
X254762Y-98806
X255289Y-206229
X255319Y-82296
X255524Y-77356
X255524Y-123952
X255778Y-96520
X255778Y-157356
X255778Y-187198
X255958Y-106680
X256380Y-221640
X257790Y-142670
X258318Y-73030
X258318Y-78080
X258318Y-83130
X258318Y-98044
X258318Y-138000
X258390Y-218000
X258460Y-108167
X258460Y-128100
X258470Y-158048
X258480Y-188120
X258490Y-178050
X258500Y-163130
X258530Y-103099
X258540Y-113110
X258540Y-183100
X258550Y-153030
X258560Y-213040
X258572Y-123010
X258572Y-133040
X258572Y-203010
X258572Y-208023
X258590Y-193100
X258600Y-88120
X258600Y-93080
X258600Y-118040
X258620Y-168120
X258620Y-173080
X258620Y-198040
X259192Y-98806
X259588Y-178816
X260120Y-141590
X260133Y-106680
X260350Y-81788
X260350Y-205486
X260355Y-77216
X260367Y-125658
X260377Y-84328
X260603Y-129545
X260675Y-131550
X260858Y-157226
X260896Y-126746
X261112Y-105156
X261340Y-221600
X261583Y-114825
X261620Y-175260
X262287Y-182548
X262760Y-142650
X262790Y-77561
X262800Y-82550
X262810Y-107609
X262810Y-122602
X262810Y-127621
X262810Y-157734
X262820Y-162540
X262820Y-177546
X262830Y-202692
X262830Y-207518
X262893Y-102613
X263260Y-133030
X263280Y-213030
X263300Y-73020
X263320Y-153020
X263330Y-113100
X263340Y-118030
X263350Y-193100
X263360Y-198030
X263370Y-137990
X263380Y-98050
X263390Y-88110
X263390Y-217990
X263400Y-93070
X263410Y-168110
X263420Y-173070
X263500Y-188110
X264668Y-98806
X265430Y-118872
X265430Y-132080
X265684Y-165608
X265684Y-185420
X265684Y-201422
X265938Y-66802
X266130Y-221600
X266192Y-80010
X266192Y-89662
X266536Y-204563
X266973Y-158985
X267800Y-142650
X268300Y-137990
X268320Y-217990
X268340Y-133030
X268350Y-108110
X268360Y-213030
X268370Y-188110
X268400Y-118030
X268420Y-198030
X268430Y-123000
X268440Y-73020
X268440Y-98050
X268450Y-203000
X268460Y-153020
X268460Y-178050
X268470Y-78070
X268480Y-88110
X268480Y-113100
X268490Y-103090
X268490Y-158070
X268500Y-168110
X268500Y-193100
X268510Y-183090
X268520Y-128080
X268530Y-93070
X268540Y-208080
X268550Y-173070
X268600Y-83120
X268620Y-163120
X268938Y-178928
X268996Y-123834
X269494Y-93794
X269672Y-198882
X270068Y-181645
X270256Y-86614
X270256Y-106426
X270256Y-131572
X270256Y-161798
X270510Y-151638
X270764Y-68326
X270764Y-136906
X270764Y-213868
X271272Y-109728
X271490Y-221620
X272770Y-142650
X273340Y-118030
X273360Y-98050
X273360Y-198030
X273370Y-133030
X273390Y-188110
X273390Y-213030
X273410Y-73020
X273430Y-153020
X273470Y-93070
X273490Y-173070
X273500Y-168110
X273510Y-137990
X273530Y-217990
X273558Y-88110
X273590Y-83120
X273590Y-113100
X273610Y-193100
X273910Y-78070
X273920Y-103090
X273920Y-108110
X273920Y-123000
X273920Y-128080
X273930Y-158070
X273930Y-178050
X273940Y-183090
X273940Y-203000
X273940Y-208080
X273950Y-163120
X274574Y-168834
X274665Y-198882
X274828Y-98884
X275379Y-84074
X275389Y-150833
X275423Y-219115
X275590Y-118872
X275590Y-166624
X275590Y-209296
X275844Y-66040
X275844Y-129032
X275844Y-186690
X276160Y-221580
X277810Y-142650
X278340Y-137990
X278360Y-118030
X278360Y-217990
X278380Y-198030
X278400Y-113100
X278400Y-133030
X278420Y-98050
X278420Y-108110
X278420Y-193100
X278420Y-213030
X278440Y-178050
X278440Y-188110
X278450Y-73020
X278460Y-88110
X278470Y-103090
X278470Y-153020
X278480Y-128080
X278480Y-168110
X278490Y-183090
X278500Y-208080
X278510Y-78070
X278530Y-93070
X278530Y-158070
X278540Y-83120
X278550Y-173070
X278560Y-163120
X278590Y-123000
X278610Y-203000
X279654Y-173968
X280200Y-94611
X280670Y-116840
X280670Y-200406
X280924Y-65786
X280924Y-154178
X281250Y-221590
X281940Y-178816
X282740Y-142650
X283250Y-118030
X283270Y-198030
X283310Y-123000
X283320Y-78070
X283320Y-108110
X283330Y-203000
X283340Y-73020
X283340Y-158070
X283340Y-188110
X283350Y-98050
X283360Y-93070
X283360Y-153020
X283370Y-178050
X283380Y-173070
X283410Y-137990
X283410Y-168110
X283430Y-133030
X283430Y-217990
X283450Y-83120
X283450Y-128080
X283450Y-213030
X283464Y-88110
X283470Y-163120
X283470Y-208080
X283490Y-103090
X283500Y-113100
X283510Y-183090
X283520Y-193100
X284480Y-98806
X284615Y-203724
X285242Y-120650
X285750Y-109982
X286004Y-65532
X286520Y-221560
X286713Y-153745
X287770Y-142650
X288290Y-97536
X288320Y-108110
X288320Y-133030
X288340Y-188110
X288340Y-213030
X288370Y-123000
X288380Y-88110
X288380Y-118030
X288390Y-203000
X288400Y-168110
X288400Y-198030
X288410Y-78070
X288420Y-137990
X288420Y-178050
X288430Y-113100
X288430Y-158070
X288440Y-103090
X288440Y-217990
X288450Y-193100
X288460Y-183090
X288470Y-73020
X288490Y-128080
X288490Y-153020
X288510Y-93070
X288510Y-208080
X288530Y-173070
X288540Y-83120
X288560Y-163120
X288795Y-98774
X289672Y-203724
X290068Y-178905
X290576Y-119888
X290576Y-186944
X290830Y-65278
X290830Y-211582
X291084Y-153745
X291330Y-221540
X292088Y-179053
X292770Y-142650
X293116Y-97536
X293270Y-93070
X293290Y-118030
X293290Y-133030
X293290Y-173070
X293300Y-78070
X293310Y-198030
X293310Y-213030
X293320Y-137990
X293320Y-158070
X293330Y-113100
X293340Y-123000
X293340Y-128080
X293340Y-217990
X293350Y-103090
X293350Y-193100
X293360Y-203000
X293360Y-208080
X293370Y-183090
X293390Y-178050
X293420Y-73020
X293420Y-88110
X293420Y-108110
X293440Y-153020
X293440Y-168110
X293440Y-188110
X293490Y-83120
X293510Y-163120
X293870Y-98774
X294625Y-203962
X295402Y-119380
X295910Y-65786
X295910Y-151892
X296410Y-221600
X297780Y-142650
X298196Y-97790
X298212Y-99044
X298350Y-128080
X298370Y-208080
X298380Y-133030
X298390Y-73020
X298390Y-113100
X298400Y-213030
X298410Y-153020
X298410Y-193100
X298419Y-179092
X298420Y-118030
X298420Y-178050
X298430Y-78070
X298430Y-108110
X298440Y-123000
X298440Y-198030
X298450Y-158070
X298450Y-188110
X298460Y-93070
X298460Y-203000
X298470Y-137990
X298480Y-173070
X298490Y-217990
X298500Y-103090
X298510Y-88110
X298520Y-183090
X298530Y-168110
X298690Y-83120
X298710Y-163120
X299662Y-123952
X299682Y-203724
X300990Y-65278
X301244Y-154432
X301380Y-221570
X302800Y-142650
X302846Y-98770
X303220Y-93070
X303240Y-173070
X303270Y-78070
X303276Y-97536
X303290Y-133030
X303290Y-158070
X303310Y-213030
X303340Y-73020
X303340Y-113100
X303350Y-103090
X303360Y-153020
X303360Y-193100
X303370Y-183090
X303380Y-88110
X303380Y-128080
X303400Y-123000
X303400Y-168110
X303400Y-208080
X303420Y-137990
X303420Y-178050
X303420Y-203000
X303440Y-118030
X303440Y-217990
X303460Y-198030
X303510Y-108110
X303530Y-188110
X303580Y-83120
X303600Y-163120
X304546Y-178816
X304615Y-123952
X304635Y-203962
X305816Y-65532
X306380Y-221550
X306733Y-153745
X307760Y-142650
X307968Y-98810
X308221Y-93039
X308241Y-173039
X308284Y-97392
X308340Y-78070
X308350Y-108110
X308360Y-113100
X308360Y-133030
X308360Y-158070
X308370Y-188110
X308380Y-193100
X308380Y-213030
X308410Y-137990
X308420Y-178050
X308430Y-123000
X308430Y-217990
X308440Y-73020
X308450Y-203000
X308460Y-153020
X308470Y-118030
X308490Y-198030
X308500Y-103090
X308510Y-128080
X308520Y-183090
X308530Y-88110
X308530Y-208080
X308540Y-83120
X308550Y-168110
X308560Y-163120
X308958Y-178892
X309008Y-123816
X309692Y-203962
X310642Y-66040
X311640Y-221560
X311665Y-148705
X312770Y-142650
X312957Y-103857
X313250Y-78070
X313270Y-158070
X313310Y-88110
X313320Y-123000
X313330Y-83120
X313330Y-168110
X313340Y-113100
X313340Y-203000
X313350Y-98050
X313350Y-133030
X313350Y-163120
X313360Y-128080
X313360Y-193100
X313369Y-102521
X313370Y-178050
X313370Y-213030
X313380Y-118030
X313380Y-208080
X313390Y-108110
X313400Y-198030
X313410Y-188110
X313420Y-137990
X313430Y-93070
X313440Y-217990
X313450Y-73020
X313450Y-173070
X313470Y-153020
X313520Y-183090
X313890Y-178903
X314625Y-198882
X314980Y-196576
X315300Y-176925
X315722Y-65786
X315722Y-124460
X315722Y-155956
X315722Y-204216
X316795Y-148787
X317892Y-118754
X318262Y-73020
X318262Y-93070
X318262Y-153020
X318262Y-178050
X318330Y-202830
X318340Y-197840
X318341Y-103090
X318470Y-78070
X318470Y-128080
X318470Y-207980
X318470Y-218060
X318480Y-98070
X318480Y-108110
X318490Y-158070
X318500Y-83120
X318500Y-188110
X318516Y-137990
X318516Y-142660
X318516Y-163120
X318516Y-168110
X318516Y-173070
X318516Y-182626
X318516Y-193100
X318550Y-212940
X318560Y-113100
X318560Y-133030
X318620Y-88110
X318730Y-123020
X318938Y-118050
X319278Y-178816
X319682Y-203962
X320070Y-141910
X320548Y-156464
X320802Y-200152
X321052Y-180344
X321056Y-78994
X321310Y-104902
X321310Y-154686
X321470Y-221700
X322740Y-142670
X323240Y-133050
X323260Y-213050
X323280Y-73040
X323300Y-153040
X323310Y-78090
X323310Y-83140
X323310Y-113120
X323320Y-118050
X323330Y-158090
X323330Y-163140
X323330Y-193120
X323340Y-198050
X323350Y-103110
X323350Y-138010
X323360Y-98070
X323370Y-88130
X323370Y-128100
X323370Y-183110
X323370Y-218010
X323380Y-93090
X323380Y-178070
X323390Y-168130
X323390Y-208100
X323400Y-173090
X323460Y-108130
X323480Y-123020
X323480Y-188130
X323500Y-203020
X324358Y-173814
X325120Y-126746
X325120Y-201676
X325696Y-101893
X325882Y-77216
X325882Y-154432
X326220Y-221690
X327780Y-142670
X328280Y-138010
X328300Y-218010
X328320Y-133050
X328340Y-213050
X328350Y-188130
X328380Y-118050
X328400Y-198050
X328410Y-123020
X328420Y-73040
X328420Y-98070
X328430Y-203020
X328440Y-153040
X328440Y-178070
X328450Y-78090
X328460Y-88130
X328460Y-113120
X328470Y-158090
X328480Y-168130
X328480Y-193120
X328490Y-183110
X328500Y-128100
X328510Y-93090
X328520Y-208100
X328530Y-173090
X328580Y-83140
X328600Y-163140
X328879Y-107567
X328908Y-102616
X329476Y-173814
X330454Y-76454
X330454Y-201930
X330708Y-100838
X330708Y-124714
X330708Y-154020
X331330Y-221650
X332750Y-142670
X333320Y-118050
X333340Y-98070
X333340Y-198050
X333350Y-108130
X333350Y-133050
X333360Y-178070
X333370Y-78090
X333370Y-128100
X333370Y-188130
X333370Y-213050
X333390Y-73040
X333390Y-158090
X333390Y-208100
X333410Y-153040
X333430Y-123020
X333450Y-93090
X333450Y-203020
X333460Y-88130
X333470Y-173090
X333480Y-103110
X333480Y-168130
X333490Y-138010
X333500Y-183110
X333510Y-218010
X333570Y-83140
X333570Y-113120
X333590Y-163140
X333590Y-193120
X334518Y-173814
X334645Y-187305
X335038Y-81546
X335349Y-127376
X335480Y-141710
X335500Y-80525
X335534Y-76454
X335788Y-106426
X335788Y-131318
X335788Y-190754
X335809Y-104902
X335809Y-109220
X335809Y-126480
X336296Y-145034
X336320Y-221580
X336620Y-140980
X337790Y-142670
X338320Y-138010
X338340Y-118050
X338340Y-218010
X338360Y-198050
X338380Y-113120
X338380Y-133050
X338400Y-98070
X338400Y-108130
X338400Y-193120
X338400Y-213050
X338420Y-178070
X338420Y-188130
X338430Y-73040
X338440Y-88130
X338450Y-103110
X338450Y-153040
X338460Y-128100
X338460Y-168130
X338470Y-183110
X338480Y-208100
X338490Y-78090
X338510Y-93090
X338510Y-158090
X338520Y-83140
X338530Y-173090
X338540Y-163140
X338570Y-123020
X338590Y-203020
X339344Y-173814
X339702Y-198882
X340106Y-101600
X340614Y-77216
X340614Y-85090
X340614Y-124968
X340614Y-127000
X340614Y-148844
X340614Y-169926
X340868Y-111252
X340868Y-145796
X341280Y-141020
X341640Y-221590
X342720Y-142670
X342770Y-77470
X342780Y-82756
X342780Y-102604
X342790Y-127508
X342790Y-132588
X342800Y-177546
X342810Y-172646
X342810Y-202627
X342810Y-207772
X342839Y-158041
X342883Y-107713
X342900Y-153040
X343230Y-118050
X343250Y-198050
X343290Y-123020
X343320Y-73040
X343320Y-188130
X343330Y-98070
X343340Y-93090
X343370Y-88130
X343390Y-138010
X343390Y-168130
X343410Y-218010
X343430Y-213050
X343450Y-163140
X343480Y-113120
X343490Y-183110
X343500Y-193120
X343977Y-168939
X345694Y-96774
X345694Y-110998
X345694Y-161798
X345694Y-184150
X345948Y-148844
X346202Y-169672
X346456Y-79756
X346456Y-104902
X346456Y-130048
X346456Y-200152
X346470Y-221600
X346530Y-141160
X347750Y-142670
X348300Y-133050
X348320Y-188130
X348320Y-213050
X348350Y-123020
X348360Y-88130
X348360Y-118050
X348370Y-203020
X348380Y-98070
X348380Y-168130
X348380Y-198050
X348390Y-78090
X348400Y-138010
X348400Y-178070
X348410Y-113120
X348410Y-158090
X348420Y-103110
X348420Y-218010
X348430Y-193120
X348440Y-183110
X348450Y-73040
X348469Y-107498
X348470Y-128100
X348470Y-153040
X348490Y-93090
X348490Y-208100
X348510Y-173090
X348520Y-83140
X348540Y-163140
X349504Y-174002
X349652Y-187304
X350021Y-131581
X350150Y-141946
X350266Y-161798
X350520Y-86106
X350520Y-109728
X350520Y-178816
X350520Y-209042
X350774Y-71882
X350774Y-135128
X351200Y-140970
X351282Y-145034
X351282Y-184912
X351470Y-221590
X352750Y-142670
X353250Y-93090
X353270Y-118050
X353290Y-198050
X353290Y-213050
X353300Y-138010
X353310Y-113120
X353320Y-123020
X353320Y-218010
X353330Y-193120
X353350Y-98070
X353350Y-183110
X353400Y-73040
X353400Y-88130
X353420Y-168130
X353420Y-188130
X353490Y-163140
X353785Y-107538
X353850Y-78090
X353860Y-133050
X353860Y-153040
X353870Y-83746
X353870Y-158090
X353880Y-208100
X354584Y-103110
X354584Y-169017
X354584Y-203020
X354838Y-173090
X354838Y-178070
X354876Y-128100
X355074Y-186626
X355092Y-136652
X355092Y-143764
X355346Y-106426
X355480Y-141680
X355600Y-82296
X355600Y-95758
X355600Y-111760
X355600Y-164592
X355600Y-207010
X355689Y-92184
X355825Y-131356
X355854Y-73914
X355854Y-94488
X355854Y-109220
X356172Y-145098
X356190Y-221580
X356460Y-140880
X357760Y-142670
X358330Y-128100
X358350Y-208100
X358360Y-133050
X358370Y-73040
X358370Y-113120
X358380Y-98070
X358380Y-213050
X358390Y-153040
X358390Y-193120
X358400Y-118050
X358400Y-178070
X358410Y-78090
X358410Y-108130
X358420Y-123020
X358420Y-198050
X358430Y-158090
X358430Y-188130
X358440Y-93090
X358440Y-203020
X358450Y-138010
X358460Y-173090
X358470Y-218010
X358480Y-103110
X358490Y-88130
X358500Y-183110
X358510Y-168130
X358670Y-83140
X358690Y-163140
X359662Y-187265
X359664Y-168855
X360172Y-106464
X360190Y-141946
X360426Y-104560
X360680Y-152146
X360934Y-74930
X360934Y-145288
X361188Y-99822
X361188Y-204470
X361420Y-221580
X362780Y-142670
X363200Y-93090
X363220Y-173090
X363250Y-78090
X363270Y-133050
X363270Y-158090
X363290Y-213050
X363320Y-73040
X363320Y-113120
X363330Y-103110
X363340Y-153040
X363340Y-193120
X363350Y-183110
X363360Y-88130
X363360Y-128100
X363380Y-98070
X363380Y-123020
X363380Y-168130
X363380Y-208100
X363400Y-138010
X363400Y-178070
X363400Y-203020
X363420Y-118050
X363420Y-218010
X363440Y-198050
X363490Y-108130
X363510Y-188130
X363560Y-83140
X363580Y-163140
X364236Y-168910
X364615Y-197265
X365252Y-126492
X365760Y-74930
X365760Y-164592
X366268Y-145288
X366400Y-221560
X366522Y-99822
X367740Y-142670
X368201Y-93059
X368221Y-173059
X368320Y-78090
X368330Y-108130
X368340Y-113120
X368340Y-133050
X368340Y-158090
X368350Y-188130
X368360Y-193120
X368360Y-213050
X368380Y-98070
X368390Y-138010
X368400Y-178070
X368410Y-123020
X368410Y-218010
X368420Y-73040
X368430Y-203020
X368440Y-153040
X368450Y-118050
X368470Y-198050
X368480Y-103110
X368490Y-128100
X368500Y-183110
X368510Y-88130
X368510Y-208100
X368520Y-83140
X368530Y-168130
X368540Y-163140
X369570Y-169038
X369672Y-198882
X370078Y-126492
X370840Y-75184
X371094Y-100076
X371094Y-145034
X371280Y-221590
X372750Y-142670
X373230Y-78090
X373250Y-158090
X373290Y-88130
X373300Y-123020
X373310Y-83140
X373310Y-168130
X373320Y-113120
X373320Y-203020
X373330Y-98070
X373330Y-133050
X373330Y-163140
X373340Y-128100
X373340Y-193120
X373350Y-178070
X373350Y-213050
X373360Y-118050
X373360Y-208100
X373370Y-108130
X373380Y-198050
X373390Y-188130
X373400Y-138010
X373410Y-93090
X373420Y-218010
X373430Y-73040
X373430Y-173090
X373450Y-153040
X373480Y-103110
X373500Y-183110
X374396Y-168951
X374605Y-198882
X375158Y-131572
X375299Y-100725
X375920Y-76962
X376174Y-145034
X376400Y-221600
X377902Y-173814
X377952Y-142680
X378206Y-73040
X378206Y-153040
X378214Y-78082
X378370Y-138010
X378390Y-218010
X378450Y-128100
X378460Y-88130
X378460Y-123020
X378460Y-168130
X378460Y-198050
X378470Y-98060
X378470Y-208100
X378480Y-83140
X378480Y-158080
X378480Y-188130
X378490Y-178060
X378500Y-163140
X378540Y-113120
X378540Y-133050
X378550Y-183100
X378560Y-193120
X378560Y-213050
X378600Y-93090
X378600Y-118050
X378714Y-108130
X378714Y-173080
X378778Y-203010
X379222Y-103632
X379662Y-198882
X380238Y-131572
X381000Y-79502
X381000Y-145034
X381210Y-221610
X382263Y-93962
X382760Y-142660
X383260Y-133040
X383280Y-213040
X383300Y-73030
X383320Y-153030
X383330Y-78080
X383330Y-83130
X383330Y-113110
X383340Y-118040
X383350Y-158080
X383350Y-163130
X383350Y-193110
X383360Y-198040
X383370Y-103100
X383370Y-138000
X383380Y-98060
X383390Y-88120
X383390Y-128090
X383390Y-183100
X383390Y-218000
X383400Y-93080
X383400Y-178060
X383410Y-168120
X383410Y-208090
X383420Y-173080
X383480Y-108120
X383500Y-123010
X383500Y-188120
X383520Y-203010
X383880Y-173967
X384615Y-198882
X385064Y-131572
X385826Y-79756
X386080Y-104394
X386080Y-146812
X386280Y-221600
X387800Y-142660
X387824Y-173804
X388300Y-138000
X388320Y-218000
X388340Y-133040
X388350Y-108120
X388360Y-213040
X388370Y-188120
X388400Y-118040
X388420Y-198040
X388430Y-123010
X388440Y-73030
X388440Y-98060
X388450Y-203010
X388460Y-153030
X388460Y-178060
X388470Y-78080
X388480Y-88120
X388480Y-113110
X388490Y-103100
X388490Y-158080
X388500Y-168120
X388500Y-193110
X388510Y-183100
X388520Y-128090
X388530Y-93080
X388540Y-208090
X388550Y-173080
X388600Y-83130
X388620Y-163130
X389672Y-198882
X390170Y-141936
X390677Y-106464
X390906Y-79756
X390906Y-147320
X390906Y-159766
X391440Y-221640
X392770Y-142660
X393340Y-118040
X393360Y-98060
X393360Y-198040
X393370Y-108120
X393370Y-133040
X393380Y-178060
X393390Y-78080
X393390Y-128090
X393390Y-188120
X393390Y-213040
X393410Y-73030
X393410Y-158080
X393410Y-208090
X393430Y-153030
X393450Y-123010
X393470Y-93080
X393470Y-203010
X393480Y-88120
X393490Y-173080
X393500Y-103100
X393500Y-168120
X393510Y-138000
X393520Y-183100
X393530Y-218000
X393590Y-83130
X393590Y-113110
X393610Y-163130
X393610Y-193110
X394246Y-173804
X394665Y-198882
X395087Y-126629
X395732Y-79756
X395732Y-111760
X395732Y-149606
X395732Y-151892
X395732Y-176276
X395986Y-145288
X395986Y-170180
X396250Y-221620
X397810Y-142660
X397913Y-173851
X398340Y-138000
X398360Y-118040
X398360Y-218000
X398380Y-198040
X398400Y-113110
X398400Y-133040
X398420Y-98060
X398420Y-108120
X398420Y-193110
X398420Y-213040
X398440Y-178060
X398440Y-188120
X398450Y-73030
X398460Y-88120
X398470Y-103100
X398470Y-153030
X398480Y-128090
X398480Y-168120
X398490Y-183100
X398500Y-208090
X398510Y-78080
X398530Y-93080
X398530Y-158080
X398540Y-83130
X398550Y-173080
X398560Y-163130
X398590Y-123010
X398610Y-203010
X399722Y-198882
X400172Y-126604
X400304Y-151638
X401066Y-164592
X401066Y-177292
X401220Y-221580
X401320Y-79502
X401409Y-160672
X402740Y-142660
X403250Y-118040
X403270Y-198040
X403310Y-123010
X403320Y-78080
X403320Y-108120
X403330Y-203010
X403340Y-73030
X403340Y-158080
X403340Y-188120
X403350Y-98060
X403360Y-93080
X403360Y-153030
X403370Y-178060
X403380Y-173080
X403390Y-88120
X403410Y-138000
X403410Y-168120
X403430Y-133040
X403430Y-218000
X403450Y-83130
X403450Y-128090
X403450Y-213040
X403470Y-163130
X403470Y-208090
X403490Y-103100
X403500Y-113110
X403510Y-183100
X403520Y-193110
X404368Y-103824
X404849Y-219192
X405174Y-176373
X405384Y-86614
X405384Y-131064
X405384Y-160528
X405638Y-163855
X405638Y-211074
X405638Y-212090
X405892Y-173804
X405892Y-209042
X405892Y-210058
X405892Y-213868
X406146Y-80264
X406146Y-180086
X406400Y-182118
X406420Y-221590
X407770Y-142660
X407877Y-177659
X407887Y-152591
X407887Y-172619
X407887Y-207672
X407887Y-212544
X408004Y-157654
X408320Y-108120
X408320Y-133040
X408340Y-188120
X408370Y-123010
X408380Y-88120
X408380Y-118040
X408390Y-203010
X408400Y-98060
X408400Y-168120
X408410Y-78080
X408420Y-138000
X408430Y-113110
X408432Y-197612
X408440Y-103100
X408440Y-218000
X408450Y-193110
X408460Y-183100
X408470Y-73030
X408490Y-128090
X408510Y-93080
X408540Y-83130
X408560Y-163130
X408928Y-103972
X409662Y-217276
X410270Y-221890
X410271Y-161327
X410464Y-130048
X410464Y-215138
X410718Y-136652
X410718Y-201676
X410972Y-80010
X411230Y-164588
X411480Y-220980
X411734Y-183896
X412770Y-142660
X413270Y-93080
X413290Y-118040
X413290Y-133040
X413290Y-173080
X413300Y-78080
X413310Y-198040
X413310Y-213040
X413320Y-138000
X413320Y-158080
X413330Y-113110
X413340Y-123010
X413340Y-128090
X413340Y-218000
X413350Y-103100
X413350Y-193110
X413360Y-203010
X413360Y-208090
X413370Y-98060
X413370Y-183100
X413390Y-178060
X413420Y-73030
X413420Y-88120
X413420Y-108120
X413440Y-153030
X413440Y-168120
X413440Y-188120
X413490Y-83130
X413510Y-163130
X414311Y-93804
X414775Y-222258
X415290Y-129630
X415318Y-166126
X415349Y-215910
X415349Y-209767
X415544Y-143510
X415544Y-160274
X415544Y-164084
X415544Y-169926
X415544Y-220980
X415798Y-106934
X415798Y-168910
X416052Y-214884
X416268Y-161068
X416306Y-79756
X416560Y-221742
X416814Y-184150
X417780Y-142660
X418350Y-128090
X418380Y-133040
X418390Y-73030
X418390Y-113110
X418400Y-98060
X418410Y-193110
X418420Y-118040
X418430Y-78080
X418430Y-108120
X418440Y-123010
X418440Y-198040
X418450Y-188120
X418460Y-93080
X418460Y-203010
X418470Y-138000
X418490Y-218000
X418500Y-103100
X418510Y-88120
X418520Y-183100
X418530Y-168120
X418690Y-83130
X418710Y-163130
X418958Y-213040
X419308Y-178092
X419354Y-103824
X419354Y-173080
X419668Y-208095
X419862Y-158080
X420116Y-153030
X420116Y-216662
X420370Y-128980
X420600Y-211111
X420614Y-219192
X420624Y-82296
X420624Y-148844
X420624Y-165608
X420878Y-79248
X420878Y-150622
X420878Y-207010
X420941Y-177038
X421118Y-209880
X421132Y-156464
X421310Y-221742
X421386Y-174752
X421386Y-220726
X422800Y-142660
X423220Y-93080
X423240Y-173080
X423270Y-78080
X423290Y-133040
X423290Y-158080
X423310Y-213040
X423340Y-73030
X423340Y-113110
X423350Y-103100
X423360Y-153030
X423360Y-193110
X423370Y-183100
X423380Y-88120
X423380Y-128090
X423400Y-98060
X423400Y-123010
X423400Y-168120
X423400Y-208090
X423420Y-138000
X423420Y-178060
X423420Y-203010
X423440Y-118040
X423440Y-218000
X423460Y-198040
X423510Y-108120
X423530Y-188120
X423580Y-83130
X423600Y-163130
X424180Y-103886
X425196Y-126746
X425450Y-172212
X425450Y-207264
X425704Y-131826
X425704Y-154178
X425704Y-204216
X426212Y-80010
X426212Y-100076
X426212Y-110236
X426212Y-177038
X426290Y-221211
X426720Y-159990
X427760Y-142660
X428221Y-93049
X428241Y-173049
X428340Y-78080
X428350Y-108120
X428360Y-113110
X428360Y-133040
X428360Y-158080
X428370Y-188120
X428380Y-193110
X428380Y-213040
X428400Y-98060
X428410Y-138000
X428420Y-178060
X428430Y-123010
X428430Y-218000
X428440Y-73030
X428450Y-203010
X428460Y-153030
X428470Y-118040
X428490Y-198040
X428500Y-103100
X428510Y-128090
X428520Y-183100
X428530Y-88120
X428530Y-208090
X428540Y-83130
X428550Y-168120
X428560Y-163130
X429260Y-93804
X430050Y-111575
X430160Y-221936
X430174Y-126492
X430276Y-206502
X430350Y-132010
X430397Y-155194
X430530Y-84582
X430530Y-172356
X430530Y-201676
X430784Y-134112
X430784Y-175006
X430931Y-177038
X431038Y-79502
X431292Y-160020
X431292Y-204724
X431292Y-219964
X431451Y-81898
X431540Y-221530
X431546Y-84836
X432770Y-142660
X432820Y-107442
X432820Y-112540
X432820Y-127508
X432820Y-132460
X432840Y-207772
X433250Y-78080
X433270Y-158080
X433310Y-88120
X433320Y-123010
X433330Y-168120
X433340Y-203010
X433350Y-98060
X433350Y-163130
X433360Y-193110
X433370Y-178060
X433370Y-213040
X433380Y-118040
X433400Y-198040
X433410Y-188120
X433420Y-138000
X433430Y-93080
X433440Y-218000
X433450Y-73030
X433450Y-173080
X433470Y-153030
X433500Y-103100
X433520Y-183100
X434124Y-104024
X435356Y-216662
X435610Y-200914
X435610Y-201930
X435864Y-124714
X435988Y-177038
X436118Y-199898
X436372Y-79756
X436372Y-160020
X436540Y-221600
X437896Y-142670
X438161Y-217989
X438176Y-133014
X438186Y-213004
X438206Y-128034
X438390Y-138000
X438404Y-78080
X438404Y-88120
X438404Y-93080
X438404Y-113110
X438404Y-123010
X438404Y-153030
X438404Y-163130
X438404Y-183100
X438404Y-198040
X438460Y-98060
X438480Y-108120
X438480Y-178060
X438490Y-158080
X438490Y-208090
X438500Y-83130
X438500Y-188120
X438540Y-103100
X438550Y-73030
X438552Y-173080
X438580Y-193110
X438640Y-168120
X438658Y-118040
X439166Y-203010
X439204Y-93980
X439672Y-217265
X440141Y-143731
X440182Y-206502
X440182Y-208824
X440436Y-121920
X440690Y-76454
X440690Y-115316
X440690Y-169672
X440690Y-199136
X440944Y-145034
X441198Y-139700
X441198Y-160274
X441330Y-221610
X441452Y-178816
X442740Y-142670
X443260Y-213050
X443280Y-73040
X443300Y-153040
X443310Y-78090
X443320Y-118050
X443330Y-158090
X443330Y-163140
X443330Y-193120
X443340Y-198050
X443350Y-103110
X443350Y-138010
X443360Y-98070
X443370Y-88130
X443370Y-183110
X443370Y-218010
X443380Y-93090
X443380Y-178070
X443390Y-168130
X443400Y-173090
X443480Y-123020
X443480Y-188130
X443500Y-203020
X443738Y-127528
X443850Y-108130
X443850Y-113120
X443850Y-132588
X443870Y-208100
X444246Y-103886
X444284Y-83776
X444950Y-173225
X445224Y-126455
X445262Y-151638
X445262Y-216916
X445319Y-208824
X445516Y-136906
X445516Y-211074
X445769Y-204724
X445770Y-85344
X445770Y-111252
X445770Y-114300
X446262Y-179340
X446278Y-79756
X446278Y-149860
X446278Y-154686
X446278Y-184912
X446278Y-210058
X446530Y-221580
X446532Y-166878
X447780Y-142670
X447857Y-182626
X447867Y-177735
X447877Y-167640
X447972Y-162687
X448280Y-138010
X448300Y-218010
X448320Y-133050
X448330Y-108130
X448340Y-213050
X448350Y-188130
X448380Y-118050
X448400Y-198050
X448410Y-123020
X448420Y-73040
X448420Y-98070
X448430Y-203020
X448440Y-153040
X448450Y-78090
X448460Y-88130
X448460Y-113120
X448470Y-103110
X448470Y-158090
X448480Y-193120
X448500Y-128100
X448510Y-93090
X448520Y-208100
X448530Y-173090
X448580Y-83140
X449326Y-103886
X450100Y-126492
X450338Y-211324
X450377Y-205486
X450596Y-146050
X450596Y-160528
X450743Y-143395
X450850Y-91440
X450850Y-169926
X450850Y-209042
X450980Y-198911
X451104Y-210058
X451358Y-79756
X451358Y-154940
X451358Y-204978
X451540Y-221580
X451612Y-149860
X451612Y-171958
X452750Y-142670
X453320Y-118050
X453340Y-98070
X453340Y-198050
X453350Y-108130
X453350Y-133050
X453360Y-178070
X453370Y-78090
X453370Y-128100
X453370Y-188130
X453370Y-213050
X453390Y-73040
X453390Y-158090
X453390Y-208100
X453410Y-153040
X453430Y-123020
X453450Y-93090
X453450Y-203020
X453460Y-88130
X453470Y-173090
X453480Y-103110
X453480Y-168130
X453490Y-138010
X453500Y-183110
X453510Y-218010
X453570Y-83140
X453570Y-113120
X453590Y-163140
X453590Y-193120
X454406Y-103886
X455168Y-126746
X455676Y-134874
X455930Y-160274
X456184Y-149098
X456184Y-169672
X456350Y-221600
X456438Y-79756
X457790Y-142670
X458320Y-138010
X458340Y-118050
X458340Y-218010
X458360Y-198050
X458380Y-113120
X458380Y-133050
X458400Y-98070
X458400Y-108130
X458400Y-193120
X458400Y-213050
X458420Y-188130
X458430Y-73040
X458440Y-88130
X458450Y-103110
X458450Y-153040
X458460Y-128100
X458480Y-208100
X458490Y-78090
X458510Y-93090
X458510Y-158090
X458520Y-83140
X458530Y-173090
X458570Y-123020
X458590Y-203020
X458968Y-178070
X458978Y-168130
X458978Y-183110
X458988Y-163140
X459486Y-103886
X460248Y-116586
X460248Y-126492
X460248Y-204216
X460756Y-95250
X460756Y-148590
X460756Y-164338
X461010Y-79502
X461106Y-166624
X461420Y-221590
X462720Y-142670
X462810Y-187570
X462865Y-192485
X463230Y-118050
X463250Y-198050
X463290Y-123020
X463300Y-78090
X463300Y-108130
X463320Y-73040
X463320Y-158090
X463330Y-98070
X463340Y-93090
X463340Y-153040
X463350Y-178070
X463360Y-173090
X463370Y-88130
X463390Y-138010
X463390Y-168130
X463410Y-133050
X463410Y-218010
X463430Y-83140
X463430Y-128100
X463430Y-213050
X463450Y-163140
X463450Y-208100
X463470Y-103110
X463480Y-113120
X463490Y-183110
X463550Y-203020
X464350Y-103834
X465328Y-201930
X465582Y-101346
X465582Y-115062
X465582Y-126238
X465582Y-146558
X465836Y-79756
X465890Y-99210
X466344Y-109728
X466630Y-221640
X467750Y-142670
X468035Y-92635
X468113Y-98011
X468300Y-108130
X468300Y-133050
X468320Y-188130
X468320Y-213050
X468350Y-123020
X468360Y-88130
X468360Y-118050
X468370Y-203020
X468380Y-168130
X468380Y-198050
X468390Y-78090
X468400Y-138010
X468400Y-178070
X468410Y-113120
X468410Y-158090
X468420Y-103110
X468420Y-218010
X468430Y-193120
X468440Y-183110
X468450Y-73040
X468470Y-128100
X468470Y-153040
X468490Y-208100
X468510Y-173090
X468520Y-83140
X468540Y-163140
X469392Y-103834
X469622Y-140955
X470265Y-191332
X470387Y-165715
X470408Y-151638
X470470Y-201900
X470662Y-109220
X470662Y-145796
X470662Y-149098
X470662Y-154178
X470791Y-111137
X471170Y-79502
X471170Y-184658
X471428Y-104898
X471483Y-221984
X471779Y-103110
X472750Y-142670
X473250Y-93090
X473270Y-118050
X473270Y-133050
X473270Y-173090
X473280Y-78090
X473290Y-198050
X473290Y-213050
X473300Y-138010
X473300Y-158090
X473310Y-113120
X473320Y-123020
X473320Y-128100
X473320Y-218010
X473340Y-203020
X473340Y-208100
X473350Y-98070
X473350Y-183110
X473370Y-178070
X473400Y-73040
X473400Y-88130
X473400Y-108130
X473420Y-153040
X473420Y-168130
X473470Y-83140
X473490Y-163140
X473870Y-193120
X474082Y-188899
X474472Y-202296
X474575Y-140905
X474722Y-188131
X474935Y-106580
X475250Y-91740
X475289Y-74676
X475309Y-118050
X475309Y-123075
X475329Y-185325
X475488Y-94742
X475488Y-146558
X475488Y-156718
X475488Y-166624
X475488Y-171450
X475742Y-129794
X475742Y-161036
X475742Y-176530
X475759Y-112231
X476024Y-141225
X476250Y-145034
X476581Y-221782
X477760Y-142670
X478300Y-147650
X478330Y-128100
X478350Y-208100
X478360Y-133050
X478370Y-73040
X478370Y-113120
X478380Y-213050
X478390Y-153040
X478390Y-193120
X478400Y-118050
X478400Y-178070
X478410Y-78090
X478410Y-108130
X478420Y-67770
X478420Y-123020
X478420Y-198050
X478430Y-158090
X478430Y-188130
X478440Y-203020
X478450Y-138010
X478460Y-173090
X478470Y-218010
X478480Y-103110
X478490Y-88130
X478500Y-183110
X478510Y-168130
X478670Y-83140
X478690Y-163140
X478780Y-92538
X478790Y-142494
X478908Y-93529
X478908Y-97590
X478982Y-158923
X479307Y-197590
X479806Y-222250
T0
M30
