M48
; DRILL file {KiCad 7.0.2} date Fri Jan  5 22:36:07 2024
; FORMAT={-:-/ absolute / inch / decimal}
; #@! TF.CreationDate,2024-01-05T22:36:07+05:30
; #@! TF.GenerationSoftware,Kicad,Pcbnew,7.0.2
; #@! TF.FileFunction,Plated,1,4,PTH
FMAT,2
INCH
; #@! TA.AperFunction,Plated,PTH,ViaDrill
T1C0.0197
%
G90
G05
T1
X3.2088Y-3.1361
X3.21Y-3.73
X3.21Y-7.08
X3.21Y-7.28
X3.2107Y-7.6645
X3.2136Y-2.9484
X3.2143Y-7.4711
X3.2164Y-2.75
X3.2167Y-3.3402
X3.2188Y-2.5172
X3.2205Y-8.7283
X3.2343Y-5.6
X3.2474Y-8.602
X3.2485Y-6.45
X3.2598Y-7.39
X3.2606Y-2.5157
X3.2612Y-7.5886
X3.2724Y-2.6638
X3.2768Y-5.2382
X3.2776Y-8.3878
X3.2783Y-2.8756
X3.2791Y-6.0252
X3.2795Y-3.0744
X3.2795Y-3.2732
X3.2795Y-4.4535
X3.2799Y-4.6476
X3.2803Y-6.224
X3.2803Y-6.4
X3.2807Y-7.7972
X3.2811Y-4.0594
X3.2811Y-5.4335
X3.2815Y-3.861
X3.2819Y-3.4697
X3.2819Y-5.0433
X3.2819Y-7.2091
X3.2819Y-8.5831
X3.2823Y-3.665
X3.2823Y-7.0106
X3.2827Y-6.6193
X3.2827Y-8.1929
X3.2831Y-6.8146
X3.2854Y-4.2571
X3.2862Y-4.8433
X3.287Y-7.9929
X3.31Y-5.66
X3.3467Y-3.4127
X3.3479Y-4.98
X3.35Y-3.6
X3.35Y-7.3407
X3.3528Y-8.3215
X3.3582Y-6.86
X3.36Y-5.96
X3.36Y-6.31
X3.36Y-7.88
X3.3604Y-5.9104
X3.3622Y-5.5768
X3.363Y-8.7264
X3.365Y-7.27
X3.3693Y-5.7117
X3.37Y-2.9041
X3.37Y-4.12
X3.3795Y-2.5167
X3.38Y-3.63
X3.38Y-3.71
X3.38Y-4.53
X3.3936Y-8.4364
X3.4011Y-3.93
X3.4023Y-7.4692
X3.4071Y-7.2871
X3.41Y-3.55
X3.4123Y-6.6885
X3.4271Y-8.7527
X3.4555Y-5.6169
X3.4582Y-4.8268
X3.4582Y-5.0252
X3.47Y-2.66
X3.4725Y-3.2707
X3.4752Y-5.4335
X3.476Y-8.5831
X3.4768Y-5.2382
X3.4772Y-4.2571
X3.4776Y-8.3878
X3.478Y-7.4067
X3.4791Y-4.6476
X3.4799Y-7.7972
X3.4807Y-2.8756
X3.4807Y-3.861
X3.4811Y-7.9929
X3.4815Y-6.0252
X3.4815Y-7.0106
X3.4819Y-3.0744
X3.4823Y-3.4697
X3.4823Y-4.4535
X3.4827Y-4.0594
X3.4827Y-6.224
X3.4831Y-6.6193
X3.4831Y-7.6031
X3.4835Y-7.2091
X3.4843Y-3.665
X3.4846Y-8.1929
X3.485Y-6.8146
X3.4878Y-6.4228
X3.52Y-7.8258
X3.5288Y-8.62
X3.5426Y-3.0167
X3.5432Y-4.3932
X3.55Y-4.0
X3.55Y-5.53
X3.55Y-5.58
X3.5569Y-3.41
X3.557Y-3.54
X3.5591Y-3.6106
X3.56Y-4.31
X3.56Y-7.08
X3.56Y-7.34
X3.56Y-7.93
X3.57Y-3.1105
X3.57Y-3.71
X3.57Y-8.54
X3.5748Y-8.7386
X3.5769Y-3.5031
X3.58Y-3.94
X3.59Y-5.31
X3.59Y-5.72
X3.59Y-6.71
X3.6Y-3.81
X3.6Y-7.28
X3.61Y-3.55
X3.6512Y-5.6169
X3.6547Y-3.6483
X3.6547Y-4.2384
X3.6548Y-4.0452
X3.6701Y-3.4699
X3.6736Y-4.6476
X3.6744Y-3.861
X3.6744Y-7.7972
X3.6748Y-5.2382
X3.6752Y-7.0106
X3.6756Y-3.0744
X3.6756Y-5.0433
X3.6756Y-8.3878
X3.6764Y-2.8756
X3.6764Y-6.224
X3.6764Y-8.1929
X3.6772Y-6.0252
X3.678Y-4.8433
X3.6787Y-7.9929
X3.6795Y-6.8146
X3.6799Y-6.6193
X3.6803Y-5.4335
X3.6807Y-7.2091
X3.6811Y-8.5831
X3.6835Y-4.4535
X3.6835Y-3.2815
X3.6843Y-6.4228
X3.6843Y-7.6031
X3.6973Y-7.4067
X3.71Y-7.83
X3.7464Y-4.8833
X3.75Y-2.82
X3.75Y-4.98
X3.7502Y-2.7198
X3.7535Y-6.0537
X3.7551Y-5.578
X3.7587Y-8.7272
X3.76Y-6.78
X3.76Y-7.26
X3.7678Y-3.9407
X3.77Y-3.98
X3.77Y-5.12
X3.77Y-5.74
X3.77Y-5.98
X3.77Y-7.55
X3.7791Y-2.68
X3.78Y-6.73
X3.78Y-8.26
X3.785Y-2.575
X3.8004Y-8.7024
X3.8076Y-3.34
X3.8076Y-3.54
X3.8496Y-5.6169
X3.8705Y-5.4335
X3.8713Y-4.6476
X3.8713Y-8.5831
X3.872Y-7.7972
X3.8728Y-4.4535
X3.8728Y-5.2382
X3.8736Y-3.861
X3.8736Y-4.2571
X3.8736Y-7.6031
X3.8736Y-8.3878
X3.8744Y-7.0106
X3.8744Y-7.4067
X3.8748Y-2.8756
X3.8752Y-3.4697
X3.8756Y-4.0594
X3.8756Y-6.0252
X3.876Y-6.6193
X3.8764Y-7.2091
X3.8768Y-8.1929
X3.8772Y-3.0744
X3.878Y-3.665
X3.878Y-6.224
X3.8783Y-3.2732
X3.8787Y-6.8146
X3.8791Y-6.4228
X3.8811Y-7.9929
X3.8956Y-4.87
X3.8956Y-5.0433
X3.8964Y-7.83
X3.93Y-3.7347
X3.94Y-5.57
X3.94Y-8.72
X3.9407Y-6.3609
X3.9506Y-7.5303
X3.9522Y-3.9185
X3.9526Y-4.34
X3.9531Y-2.9041
X3.9534Y-7.57
X3.9534Y-7.7
X3.9534Y-8.2214
X3.9566Y-3.9834
X3.96Y-2.63
X3.96Y-4.39
X3.96Y-4.59
X3.96Y-4.75
X3.96Y-5.0718
X3.97Y-2.76
X3.97Y-2.94
X3.97Y-8.28
X3.97Y-8.33
X3.97Y-8.43
X3.9715Y-7.3731
X3.9725Y-6.0537
X3.98Y-5.51
X3.9957Y-8.7201
X3.9987Y-3.139
X4.0Y-3.34
X4.008Y-6.8431
X4.0282Y-7.6031
X4.0362Y-6.4149
X4.0437Y-5.6169
X4.0457Y-3.0599
X4.0472Y-7.39
X4.0472Y-8.17
X4.0519Y-8.3681
X4.0638Y-4.6476
X4.0646Y-7.7972
X4.0661Y-4.8433
X4.0669Y-7.9929
X4.0673Y-2.8756
X4.0673Y-6.224
X4.0677Y-3.861
X4.0681Y-6.0252
X4.0685Y-7.0106
X4.0689Y-6.8146
X4.0701Y-5.4335
X4.0701Y-6.6193
X4.0709Y-5.2382
X4.0709Y-8.5831
X4.0717Y-3.2732
X4.0717Y-5.0433
X4.0736Y-4.4535
X4.074Y-7.2091
X4.0882Y-3.4697
X4.0882Y-4.0594
X4.0882Y-4.2571
X4.1038Y-3.6427
X4.1038Y-3.699
X4.13Y-7.85
X4.1312Y-4.1984
X4.1335Y-4.7848
X4.146Y-7.68
X4.15Y-3.1029
X4.15Y-6.14
X4.15Y-8.09
X4.1512Y-5.578
X4.152Y-8.7276
X4.16Y-4.03
X4.16Y-4.73
X4.16Y-5.97
X4.16Y-6.77
X4.16Y-7.17
X4.18Y-3.91
X4.1829Y-3.1315
X4.19Y-5.3
X4.19Y-5.51
X4.1925Y-8.7087
X4.1993Y-2.9041
X4.2Y-3.54
X4.2417Y-5.6169
X4.2447Y-3.06
X4.2452Y-3.8358
X4.2456Y-2.8562
X4.2456Y-3.6413
X4.2456Y-4.4276
X4.2456Y-4.63
X4.2634Y-4.2571
X4.2634Y-5.2382
X4.2642Y-8.3878
X4.2654Y-4.8433
X4.2657Y-3.4697
X4.2665Y-7.7972
X4.2673Y-5.4335
X4.2673Y-7.0106
X4.2677Y-6.224
X4.2681Y-4.0594
X4.2681Y-8.5831
X4.2689Y-7.2091
X4.2701Y-5.0433
X4.2701Y-6.0252
X4.2717Y-6.8146
X4.272Y-3.2732
X4.2728Y-6.4228
X4.28Y-2.67
X4.2828Y-7.5827
X4.2881Y-6.64
X4.2881Y-7.9929
X4.2881Y-8.1929
X4.3005Y-3.3018
X4.31Y-7.83
X4.3346Y-5.5764
X4.3354Y-8.726
X4.34Y-4.0
X4.34Y-4.99
X4.3441Y-7.4056
X4.3444Y-4.29
X4.3444Y-5.29
X4.3452Y-6.67
X4.35Y-4.21
X4.35Y-4.39
X4.35Y-5.13
X4.35Y-7.3
X4.35Y-8.05
X4.36Y-3.53
X4.36Y-5.48
X4.39Y-2.94
X4.39Y-3.14
X4.39Y-4.71
X4.39Y-5.5884
X4.3906Y-8.7087
X4.4386Y-5.6169
X4.4583Y-3.665
X4.4591Y-5.2382
X4.4591Y-6.8146
X4.4594Y-3.0744
X4.4595Y-4.6207
X4.4598Y-7.7972
X4.4602Y-5.4335
X4.4602Y-6.224
X4.4606Y-4.4535
X4.461Y-4.8433
X4.461Y-5.0433
X4.461Y-8.5831
X4.4614Y-4.0594
X4.4618Y-7.9929
X4.4622Y-3.861
X4.4622Y-7.2091
X4.463Y-7.0106
X4.4642Y-2.8756
X4.4642Y-3.4697
X4.4642Y-4.2571
X4.465Y-6.0252
X4.465Y-6.6193
X4.4669Y-3.2732
X4.4831Y-7.59
X4.4831Y-7.83
X4.4831Y-8.3878
X4.4835Y-6.4228
X4.5Y-3.6935
X4.5Y-8.1929
X4.5015Y-7.4067
X4.522Y-7.35
X4.53Y-3.01
X4.5395Y-8.112
X4.54Y-3.14
X4.54Y-3.98
X4.54Y-4.71
X4.54Y-6.1521
X4.5421Y-5.5748
X4.5429Y-8.7244
X4.55Y-5.08
X4.55Y-6.28
X4.55Y-8.16
X4.5582Y-6.3187
X4.57Y-5.72
X4.57Y-7.28
X4.576Y-6.68
X4.58Y-5.3
X4.5823Y-8.7244
X4.5934Y-2.7053
X4.6358Y-5.6169
X4.6583Y-5.0433
X4.6591Y-8.1929
X4.6594Y-5.2382
X4.6602Y-8.3878
X4.6606Y-6.0252
X4.6606Y-7.6031
X4.661Y-7.0106
X4.6614Y-4.2571
X4.6618Y-4.8433
X4.6618Y-7.7972
X4.6622Y-6.224
X4.6622Y-7.4067
X4.6626Y-7.9929
X4.663Y-5.4335
X4.6634Y-6.8146
X4.6638Y-8.5831
X4.6642Y-4.0594
X4.6646Y-3.4697
X4.665Y-7.2091
X4.6654Y-6.6193
X4.6717Y-3.2732
X4.6724Y-6.4228
X4.68Y-4.4535
X4.68Y-4.6476
X4.6806Y-2.8756
X4.681Y-3.0744
X4.681Y-3.861
X4.69Y-7.6317
X4.71Y-3.3071
X4.7215Y-3.6635
X4.7272Y-5.576
X4.728Y-8.7256
X4.7346Y-7.357
X4.74Y-6.19
X4.74Y-7.25
X4.75Y-3.89
X4.75Y-5.34
X4.75Y-6.39
X4.75Y-6.53
X4.75Y-7.83
X4.75Y-8.11
X4.76Y-4.52
X4.76Y-5.75
X4.76Y-6.66
X4.7839Y-8.7228
X4.7884Y-2.7057
X4.8335Y-5.6169
X4.8346Y-5.0433
X4.85Y-3.665
X4.8508Y-6.8146
X4.852Y-3.0744
X4.8528Y-5.2382
X4.8528Y-6.224
X4.8535Y-8.3878
X4.8547Y-2.8756
X4.8547Y-4.4535
X4.8551Y-4.0594
X4.8555Y-6.0252
X4.8555Y-7.6031
X4.8559Y-7.2091
X4.8563Y-3.4697
X4.8571Y-3.861
X4.8571Y-4.8433
X4.8571Y-6.6193
X4.8571Y-8.1929
X4.8579Y-5.4335
X4.8579Y-7.0106
X4.8579Y-7.9929
X4.8587Y-4.6476
X4.8587Y-8.5831
X4.8594Y-7.7972
X4.8614Y-4.2571
X4.8622Y-7.4067
X4.8642Y-3.2732
X4.865Y-6.4228
X4.8811Y-5.06
X4.9Y-3.4982
X4.928Y-7.7485
X4.93Y-7.69
X4.93Y-8.43
X4.9382Y-5.5756
X4.95Y-5.77
X4.9634Y-8.7232
X4.9875Y-2.9041
X5.0287Y-5.6169
X5.0469Y-3.6637
X5.0477Y-6.8133
X5.0516Y-3.0744
X5.052Y-4.2571
X5.0524Y-4.4535
X5.0524Y-5.2382
X5.0524Y-6.224
X5.0528Y-7.4067
X5.0531Y-7.6031
X5.0531Y-8.3878
X5.0539Y-3.861
X5.0543Y-5.4335
X5.0547Y-7.0106
X5.0551Y-4.8433
X5.0551Y-8.5831
X5.0555Y-2.8756
X5.0559Y-7.9929
X5.0563Y-6.0252
X5.0567Y-4.6476
X5.0575Y-7.7972
X5.0579Y-4.0594
X5.0583Y-5.0433
X5.0587Y-7.2091
X5.0591Y-3.4697
X5.0591Y-8.1929
X5.0594Y-3.2732
X5.0598Y-6.6193
X5.0602Y-6.4228
X5.092Y-3.4982
X5.11Y-7.6317
X5.1272Y-5.5768
X5.13Y-8.33
X5.14Y-3.99
X5.15Y-4.88
X5.15Y-5.72
X5.15Y-5.79
X5.1572Y-4.4917
X5.1681Y-8.724
X5.1817Y-2.7057
X5.226Y-5.6169
X5.2449Y-3.0744
X5.2457Y-6.224
X5.2472Y-3.4697
X5.2476Y-4.8433
X5.248Y-3.2732
X5.248Y-6.6193
X5.2484Y-4.4535
X5.2484Y-7.9929
X5.2488Y-3.861
X5.2488Y-5.2382
X5.2488Y-6.4228
X5.2492Y-5.0433
X5.2492Y-7.6031
X5.2496Y-7.0106
X5.2496Y-8.3878
X5.25Y-4.6476
X5.25Y-8.1929
X5.2504Y-4.2571
X5.2508Y-7.7972
X5.2512Y-7.4067
X5.2516Y-5.4335
X5.252Y-3.665
X5.2524Y-8.5831
X5.2528Y-2.8756
X5.2528Y-6.8146
X5.2535Y-6.0252
X5.2547Y-4.0594
X5.2555Y-7.2091
X5.3Y-3.5
X5.31Y-7.57
X5.3291Y-5.5756
X5.33Y-8.31
X5.35Y-3.15
X5.35Y-5.8
X5.35Y-5.95
X5.35Y-6.87
X5.36Y-3.34
X5.37Y-2.73
X5.376Y-8.7236
X5.4244Y-5.6173
X5.43Y-4.8433
X5.4407Y-3.0737
X5.4465Y-5.4335
X5.448Y-8.5831
X5.45Y-3.4697
X5.45Y-3.665
X5.45Y-3.861
X5.45Y-4.4535
X5.45Y-4.6476
X5.45Y-7.6031
X5.45Y-7.9929
X5.4508Y-4.2571
X5.4508Y-5.0437
X5.4516Y-3.2732
X5.4516Y-7.4067
X5.4516Y-8.1933
X5.452Y-7.0102
X5.4528Y-6.4228
X5.4535Y-4.0591
X5.4536Y-6.2236
X5.4539Y-2.8752
X5.4539Y-5.2382
X5.4547Y-8.3878
X5.4548Y-6.0248
X5.4571Y-6.6193
X5.4571Y-6.8146
X5.4571Y-7.7972
X5.46Y-7.2087
X5.5Y-3.5
X5.5015Y-7.24
X5.5154Y-5.5752
X5.53Y-8.03
X5.5315Y-3.5902
X5.55Y-2.59
X5.55Y-4.72
X5.55Y-5.82
X5.5689Y-8.7236
X5.6201Y-5.6165
X5.6398Y-5.2378
X5.6406Y-8.3874
X5.6413Y-2.8752
X5.6421Y-6.0248
X5.6425Y-3.074
X5.6425Y-3.2728
X5.6425Y-4.4531
X5.6429Y-4.6472
X5.6433Y-6.2236
X5.6433Y-6.4224
X5.6433Y-7.6028
X5.6437Y-7.7969
X5.6441Y-4.0591
X5.6441Y-5.4331
X5.6445Y-3.8606
X5.6449Y-3.4693
X5.6449Y-5.0429
X5.6449Y-7.2087
X5.6449Y-8.5827
X5.6453Y-3.6646
X5.6453Y-7.0102
X5.6457Y-6.6189
X5.6457Y-8.1925
X5.6461Y-6.8142
X5.6484Y-4.2567
X5.6492Y-4.8429
X5.6492Y-7.4063
X5.65Y-7.9925
X5.69Y-3.89
X5.6915Y-7.2427
X5.72Y-7.96
X5.7205Y-3.69
X5.7252Y-5.5764
X5.75Y-2.63
X5.75Y-5.83
X5.7622Y-8.7244
X5.8185Y-5.6165
X5.8382Y-5.4331
X5.839Y-8.5827
X5.8398Y-5.2378
X5.8402Y-4.2567
X5.8406Y-8.3874
X5.8409Y-7.4063
X5.8421Y-4.6472
X5.8429Y-7.7969
X5.8433Y-4.8429
X5.8437Y-2.8752
X5.8437Y-3.8606
X5.8441Y-7.9925
X5.8445Y-6.0248
X5.8445Y-7.0102
X5.8449Y-3.074
X5.8453Y-3.4693
X5.8453Y-4.4531
X5.8457Y-4.0591
X5.8457Y-6.2236
X5.8461Y-6.6189
X5.8461Y-7.6028
X5.8465Y-7.2087
X5.8469Y-5.0429
X5.8472Y-3.6646
X5.8476Y-8.1925
X5.848Y-6.8142
X5.85Y-3.2728
X5.8508Y-6.4224
X5.88Y-3.8892
X5.88Y-7.24
X5.9079Y-5.578
X5.92Y-7.94
X5.93Y-7.14
X5.95Y-5.85
X5.96Y-2.56
X5.96Y-4.91
X5.9642Y-8.7252
X6.0142Y-5.6165
X6.0366Y-4.6472
X6.0374Y-3.8606
X6.0374Y-7.7969
X6.0378Y-4.2567
X6.0378Y-5.2378
X6.0382Y-7.0102
X6.0386Y-3.074
X6.0386Y-5.0429
X6.0386Y-7.4063
X6.0386Y-8.3874
X6.0394Y-2.8752
X6.0394Y-6.2236
X6.0394Y-8.1925
X6.0402Y-6.0248
X6.0409Y-4.8429
X6.0417Y-3.6646
X6.0417Y-7.9925
X6.0421Y-3.4693
X6.0425Y-6.8142
X6.0429Y-4.0591
X6.0429Y-6.6189
X6.0433Y-5.4331
X6.0437Y-7.2087
X6.0441Y-8.5827
X6.0465Y-3.2728
X6.0465Y-4.4531
X6.0472Y-6.4224
X6.0472Y-7.6028
X6.0715Y-7.04
X6.08Y-3.8892
X6.12Y-7.92
X6.1205Y-5.578
X6.13Y-3.6
X6.13Y-5.15
X6.13Y-5.99
X6.13Y-6.86
X6.13Y-7.54
X6.1585Y-6.8885
X6.16Y-2.56
X6.1606Y-8.7232
X6.2126Y-5.6165
X6.2335Y-5.4331
X6.2343Y-4.6472
X6.2343Y-8.5827
X6.235Y-7.7969
X6.2358Y-4.4531
X6.2358Y-5.2378
X6.2366Y-3.8606
X6.2366Y-4.2567
X6.2366Y-7.6028
X6.2366Y-8.3874
X6.2374Y-7.0102
X6.2374Y-7.4063
X6.2378Y-2.8752
X6.2382Y-3.4693
X6.2386Y-4.0591
X6.2386Y-6.0248
X6.239Y-5.0429
X6.239Y-6.6189
X6.2394Y-7.2087
X6.2398Y-8.1925
X6.2402Y-3.074
X6.2409Y-3.6646
X6.2409Y-6.2236
X6.2413Y-3.2728
X6.2417Y-6.8142
X6.2421Y-6.4224
X6.2433Y-4.8429
X6.2441Y-7.9925
X6.28Y-3.89
X6.28Y-7.04
X6.3052Y-3.9961
X6.3067Y-5.576
X6.3114Y-8.7197
X6.32Y-3.03
X6.32Y-7.88
X6.35Y-6.66
X6.3599Y-7.8601
X6.36Y-8.72
X6.4067Y-5.6165
X6.4268Y-4.6472
X6.4276Y-7.7969
X6.4291Y-4.8429
X6.4295Y-3.074
X6.4295Y-4.2567
X6.4299Y-7.9925
X6.4303Y-2.8752
X6.4303Y-6.2236
X6.4303Y-7.4063
X6.4307Y-3.8606
X6.4311Y-3.6646
X6.4311Y-6.0248
X6.4315Y-7.0102
X6.4319Y-6.8142
X6.4323Y-3.4693
X6.4331Y-5.4331
X6.4331Y-6.6189
X6.4339Y-5.2378
X6.4339Y-8.5827
X6.4346Y-3.2728
X6.4346Y-5.0429
X6.4346Y-8.3874
X6.4354Y-6.4224
X6.4354Y-8.1925
X6.4362Y-4.0591
X6.4366Y-4.4531
X6.437Y-7.2087
X6.4374Y-7.6028
X6.48Y-4.8144
X6.49Y-7.24
X6.4927Y-3.0157
X6.5Y-3.81
X6.51Y-7.75
X6.51Y-8.3
X6.5118Y-5.5772
X6.52Y-7.05
X6.53Y-6.58
X6.53Y-8.1
X6.548Y-8.714
X6.6047Y-5.6165
X6.6264Y-4.2567
X6.6264Y-5.2378
X6.6272Y-7.4063
X6.6272Y-8.3874
X6.6283Y-4.8429
X6.6287Y-3.4693
X6.6287Y-4.6472
X6.6291Y-7.9925
X6.6295Y-3.8606
X6.6295Y-6.6189
X6.6295Y-7.7969
X6.6299Y-3.074
X6.6303Y-5.4331
X6.6303Y-7.0102
X6.6307Y-4.4531
X6.6307Y-6.2236
X6.6311Y-4.0591
X6.6311Y-8.5827
X6.6315Y-7.6028
X6.6319Y-7.2087
X6.6323Y-2.8752
X6.6331Y-5.0429
X6.6331Y-6.0248
X6.6339Y-3.6646
X6.6339Y-8.1925
X6.6346Y-6.8142
X6.635Y-3.2728
X6.6358Y-6.4224
X6.68Y-7.24
X6.684Y-4.6758
X6.702Y-5.578
X6.707Y-3.72
X6.7108Y-7.9355
X6.72Y-2.99
X6.72Y-7.69
X6.72Y-8.08
X6.73Y-6.55
X6.7378Y-8.7256
X6.8016Y-5.6165
X6.8213Y-3.6646
X6.822Y-4.6472
X6.822Y-5.2378
X6.822Y-6.8142
X6.8224Y-3.074
X6.8228Y-7.7969
X6.8228Y-8.3874
X6.8232Y-5.4331
X6.8232Y-6.2236
X6.8236Y-4.4531
X6.824Y-4.8429
X6.824Y-5.0429
X6.824Y-8.5827
X6.8244Y-4.0591
X6.8244Y-7.6028
X6.8248Y-7.9925
X6.8248Y-8.1925
X6.8252Y-3.8606
X6.8252Y-7.2087
X6.826Y-7.0102
X6.8272Y-2.8752
X6.8272Y-3.4693
X6.8272Y-4.2567
X6.828Y-6.0248
X6.828Y-6.6189
X6.828Y-7.4063
X6.8299Y-3.2728
X6.8307Y-6.4224
X6.87Y-7.24
X6.9091Y-5.5748
X6.91Y-8.33
X6.92Y-3.72
X6.92Y-7.71
X6.92Y-7.9177
X6.92Y-8.03
X6.9201Y-7.1799
X6.93Y-3.54
X6.93Y-6.46
X6.9327Y-8.7244
X6.94Y-3.15
X6.94Y-3.94
X6.9465Y-5.5165
X6.9988Y-5.6165
X7.0213Y-5.0429
X7.022Y-8.1925
X7.0224Y-5.2378
X7.0228Y-2.8752
X7.0228Y-4.4531
X7.0232Y-3.8606
X7.0232Y-8.3874
X7.0236Y-6.0248
X7.0236Y-7.6028
X7.024Y-4.6472
X7.024Y-7.0102
X7.0244Y-3.074
X7.0244Y-4.2567
X7.0248Y-4.8429
X7.0248Y-7.7969
X7.0252Y-6.2236
X7.0252Y-7.4063
X7.0256Y-3.6646
X7.0256Y-7.9925
X7.026Y-5.4331
X7.0264Y-6.8142
X7.0268Y-8.5827
X7.0272Y-4.0591
X7.0276Y-3.4693
X7.028Y-7.2087
X7.0283Y-6.6189
X7.0346Y-3.2728
X7.0354Y-6.4224
X7.06Y-7.24
X7.0894Y-5.5776
X7.0926Y-3.9926
X7.1001Y-7.9102
X7.1007Y-2.94
X7.1015Y-5.0111
X7.11Y-3.15
X7.11Y-7.56
X7.11Y-8.16
X7.1192Y-4.03
X7.1192Y-4.79
X7.12Y-6.36
X7.1215Y-3.1876
X7.1356Y-3.0356
X7.137Y-5.5091
X7.137Y-8.7224
X7.14Y-6.68
X7.1443Y-3.7259
X7.15Y-5.5492
X7.17Y-3.3014
X7.1779Y-5.0218
X7.1965Y-5.6165
X7.1968Y-3.05
X7.1976Y-2.8531
X7.1976Y-4.82
X7.213Y-3.6646
X7.2138Y-6.8142
X7.2157Y-5.2378
X7.2157Y-6.2236
X7.2165Y-8.3874
X7.2177Y-4.4531
X7.2181Y-4.0591
X7.2185Y-6.0248
X7.2185Y-7.6028
X7.2189Y-7.2087
X7.2193Y-3.4693
X7.2201Y-3.8606
X7.2201Y-6.6189
X7.2201Y-8.1925
X7.2209Y-5.4331
X7.2209Y-7.0102
X7.2209Y-7.9925
X7.2217Y-4.6472
X7.2217Y-8.5827
X7.2224Y-7.7969
X7.2244Y-4.2567
X7.2252Y-7.4063
X7.2272Y-3.2728
X7.228Y-6.4224
X7.26Y-7.2372
X7.29Y-3.61
X7.3Y-2.8
X7.3Y-6.76
X7.3012Y-5.5756
X7.3085Y-7.9272
X7.31Y-7.54
X7.31Y-8.5
X7.32Y-4.72
X7.33Y-4.52
X7.3323Y-5.5059
X7.3323Y-8.7217
X7.34Y-3.14
X7.35Y-3.31
X7.35Y-3.5
X7.3513Y-6.0533
X7.3762Y-8.37
X7.3917Y-5.6165
X7.3971Y-7.19
X7.3975Y-6.2092
X7.3975Y-8.1749
X7.3975Y-7.39
X7.3995Y-6.4071
X7.4099Y-3.6633
X7.4107Y-6.813
X7.4146Y-3.074
X7.415Y-4.2567
X7.4154Y-4.4531
X7.4154Y-5.2378
X7.4161Y-7.6028
X7.4173Y-5.4331
X7.4177Y-7.0102
X7.4181Y-4.8429
X7.4181Y-8.5827
X7.4185Y-2.8752
X7.4189Y-7.9925
X7.4193Y-6.0248
X7.4197Y-4.6472
X7.4205Y-7.7969
X7.4213Y-5.0429
X7.422Y-3.4693
X7.4224Y-3.2728
X7.4228Y-6.6189
X7.4381Y-3.8606
X7.4385Y-4.04
X7.47Y-7.04
X7.4809Y-5.1806
X7.487Y-5.5728
X7.49Y-3.21
X7.5Y-7.95
X7.5002Y-7.8398
X7.51Y-2.74
X7.51Y-3.93
X7.51Y-5.2093
X7.51Y-5.31
X7.5185Y-3.52
X7.52Y-6.1
X7.52Y-6.87
X7.52Y-7.66
X7.5246Y-3.3154
X7.5283Y-5.5087
X7.5358Y-8.7236
X7.544Y-6.2875
X7.56Y-3.8606
X7.5702Y-4.0398
X7.589Y-5.6165
X7.6087Y-6.2236
X7.6102Y-3.4693
X7.611Y-3.2728
X7.611Y-6.6189
X7.6114Y-4.4531
X7.6114Y-7.9925
X7.6118Y-5.2378
X7.6118Y-6.4224
X7.6122Y-7.6028
X7.6126Y-7.0102
X7.6126Y-8.3874
X7.613Y-4.6472
X7.613Y-8.1925
X7.6134Y-4.2567
X7.6138Y-7.7969
X7.6142Y-7.4063
X7.615Y-3.6646
X7.6154Y-8.5827
X7.6157Y-2.8752
X7.6157Y-6.8142
X7.6165Y-6.0248
X7.6185Y-7.2087
X7.62Y-5.4331
X7.6319Y-5.021
X7.6323Y-3.074
X7.6327Y-4.8429
X7.64Y-7.04
X7.68Y-7.35
X7.6824Y-5.1878
X7.6897Y-5.08
X7.69Y-6.55
X7.69Y-7.85
X7.6949Y-5.5772
X7.7Y-3.23
X7.7Y-3.5
X7.7Y-7.94
X7.7Y-8.52
X7.73Y-2.75
X7.73Y-7.67
X7.735Y-8.7236
X7.74Y-4.33
X7.7402Y-5.3015
X7.7446Y-6.0533
X7.787Y-5.6185
X7.81Y-4.0591
X7.81Y-7.9925
X7.811Y-8.5827
X7.8134Y-3.074
X7.8138Y-4.2567
X7.8138Y-7.0102
X7.8142Y-5.0429
X7.8165Y-2.8752
X7.8169Y-4.4531
X7.8169Y-5.2378
X7.8173Y-6.0248
X7.8177Y-7.6028
X7.8193Y-3.4693
X7.8193Y-4.6472
X7.82Y-3.2728
X7.82Y-3.665
X7.82Y-3.861
X7.82Y-4.8429
X7.8201Y-6.6189
X7.8201Y-6.8142
X7.8201Y-7.7969
X7.8285Y-7.4066
X7.83Y-5.4331
X7.8326Y-8.4074
X7.8515Y-7.04
X7.8526Y-6.2241
X7.86Y-6.4224
X7.87Y-7.19
X7.87Y-8.1915
X7.8799Y-5.5744
X7.88Y-4.98
X7.89Y-2.91
X7.89Y-3.14
X7.89Y-3.74
X7.89Y-7.54
X7.89Y-7.9
X7.9Y-8.65
X7.9146Y-8.7252
X7.92Y-3.35
X7.92Y-6.1
X7.9819Y-5.6165
X8.0016Y-5.2378
X8.0024Y-8.3874
X8.0031Y-2.8752
X8.0039Y-6.0248
X8.0043Y-3.074
X8.0043Y-3.2728
X8.0043Y-4.4531
X8.0047Y-4.6472
X8.0051Y-6.2236
X8.0051Y-6.4224
X8.0051Y-7.6028
X8.0055Y-7.7969
X8.0059Y-4.0591
X8.0059Y-5.4331
X8.0063Y-3.8606
X8.0067Y-3.4693
X8.0067Y-5.0429
X8.0067Y-7.2087
X8.0067Y-8.5827
X8.0071Y-3.6646
X8.0071Y-7.0102
X8.0075Y-6.6189
X8.0075Y-8.1925
X8.0079Y-6.8142
X8.0102Y-4.2567
X8.011Y-4.8429
X8.011Y-7.4063
X8.0118Y-7.9925
X8.04Y-7.04
X8.0823Y-3.71
X8.087Y-5.5764
X8.09Y-2.95
X8.09Y-6.7
X8.09Y-8.03
X8.1Y-8.31
X8.1035Y-8.7319
X8.11Y-4.1
X8.1375Y-6.0533
X8.1803Y-5.6165
X8.2Y-5.4331
X8.2008Y-8.5827
X8.2016Y-5.2378
X8.202Y-4.2567
X8.2024Y-8.3874
X8.2028Y-7.4063
X8.2039Y-4.6472
X8.2047Y-7.7969
X8.2051Y-4.8429
X8.2055Y-2.8752
X8.2055Y-3.8606
X8.2059Y-7.9925
X8.2063Y-6.0248
X8.2063Y-7.0102
X8.2067Y-3.074
X8.2071Y-3.4693
X8.2071Y-4.4531
X8.2075Y-4.0591
X8.2075Y-6.2236
X8.2079Y-6.6189
X8.2079Y-7.6028
X8.2083Y-7.2087
X8.2087Y-5.0429
X8.2091Y-3.6646
X8.2094Y-8.1925
X8.2098Y-6.8142
X8.2118Y-3.2728
X8.2126Y-6.4224
X8.24Y-7.04
X8.2768Y-5.5705
X8.29Y-3.62
X8.29Y-8.06
X8.3Y-3.0
X8.3Y-7.37
X8.3Y-8.28
X8.3028Y-8.7429
X8.32Y-6.06
X8.376Y-5.6165
X8.3984Y-4.6472
X8.3992Y-3.8606
X8.3992Y-7.7969
X8.3996Y-4.2567
X8.3996Y-5.2378
X8.4Y-7.0102
X8.4004Y-3.074
X8.4004Y-5.0429
X8.4004Y-7.4063
X8.4004Y-8.3874
X8.4012Y-2.8752
X8.4012Y-6.2236
X8.4012Y-8.1925
X8.402Y-6.0248
X8.4028Y-4.8429
X8.4035Y-3.6646
X8.4035Y-7.9925
X8.4039Y-3.4693
X8.4043Y-6.8142
X8.4047Y-4.0591
X8.4047Y-6.6189
X8.4051Y-5.4331
X8.4055Y-7.2087
X8.4059Y-8.5827
X8.4083Y-3.2728
X8.4083Y-4.4531
X8.4091Y-6.4224
X8.4091Y-7.6028
X8.44Y-7.04
X8.4703Y-3.6003
X8.48Y-3.03
X8.4846Y-5.5783
X8.5Y-8.09
X8.5Y-8.53
X8.5276Y-8.7244
X8.5323Y-6.2521
X8.5744Y-5.6165
X8.5953Y-5.4331
X8.5961Y-4.6472
X8.5961Y-8.5827
X8.5969Y-7.7969
X8.5976Y-4.4531
X8.5976Y-5.2378
X8.5984Y-3.8606
X8.5984Y-4.2567
X8.5984Y-7.6028
X8.5984Y-8.3874
X8.5992Y-7.0102
X8.5992Y-7.4063
X8.5996Y-2.8752
X8.6Y-3.4693
X8.6004Y-4.0591
X8.6004Y-6.0248
X8.6008Y-5.0429
X8.6008Y-6.6189
X8.6012Y-7.2087
X8.6016Y-8.1925
X8.602Y-3.074
X8.6028Y-3.6646
X8.6028Y-6.2236
X8.6031Y-3.2728
X8.6035Y-6.8142
X8.6039Y-6.4224
X8.6051Y-4.8429
X8.6059Y-7.9925
X8.64Y-7.0431
X8.6709Y-5.5748
X8.6751Y-3.5922
X8.68Y-8.12
X8.69Y-3.11
X8.7Y-6.26
X8.7193Y-8.7244
X8.7685Y-5.6165
X8.7886Y-4.6472
X8.7894Y-7.7969
X8.7909Y-4.8429
X8.7913Y-3.074
X8.7913Y-4.2567
X8.7917Y-7.9925
X8.7921Y-2.8752
X8.7921Y-6.2236
X8.7921Y-7.4063
X8.7925Y-3.8606
X8.7929Y-3.6646
X8.7929Y-6.0248
X8.7933Y-7.0102
X8.7937Y-6.8142
X8.7941Y-3.4693
X8.7949Y-5.4331
X8.7949Y-6.6189
X8.7957Y-5.2378
X8.7957Y-8.5827
X8.7965Y-3.2728
X8.7965Y-5.0429
X8.7965Y-8.3874
X8.7972Y-6.4224
X8.7972Y-8.1925
X8.798Y-4.0591
X8.7984Y-4.4531
X8.7988Y-7.2087
X8.7992Y-7.6028
X8.8215Y-7.04
X8.87Y-8.13
X8.8701Y-3.57
X8.8756Y-5.5768
X8.88Y-2.83
X8.9173Y-8.7252
X8.924Y-6.2521
X8.9665Y-5.6165
X8.9882Y-4.2567
X8.9882Y-5.2378
X8.989Y-7.4063
X8.989Y-8.3874
X8.9902Y-4.8429
X8.9906Y-3.4693
X8.9906Y-4.6472
X8.9909Y-7.9925
X8.9913Y-3.8606
X8.9913Y-6.6189
X8.9913Y-7.7969
X8.9917Y-3.074
X8.9921Y-5.4331
X8.9921Y-7.0102
X8.9925Y-4.4531
X8.9925Y-6.2236
X8.9929Y-4.0591
X8.9929Y-8.5827
X8.9933Y-7.6028
X8.9937Y-7.2087
X8.9941Y-2.8752
X8.9949Y-5.0429
X8.9949Y-6.0248
X8.9957Y-3.6646
X8.9957Y-8.1925
X8.9965Y-6.8142
X8.9969Y-3.2728
X8.9976Y-6.4224
X9.0125Y-7.0439
X9.0583Y-5.5748
X9.07Y-3.78
X9.07Y-8.23
X9.08Y-3.12
X9.1Y-6.27
X9.1094Y-8.7236
X9.1634Y-5.6165
X9.1831Y-3.6646
X9.1839Y-4.6472
X9.1839Y-5.2378
X9.1839Y-6.8142
X9.1843Y-3.074
X9.1846Y-7.7969
X9.1846Y-8.3874
X9.185Y-5.4331
X9.185Y-6.2236
X9.1854Y-4.4531
X9.1858Y-4.8429
X9.1858Y-5.0429
X9.1858Y-8.5827
X9.1862Y-4.0591
X9.1862Y-7.6028
X9.1866Y-7.9925
X9.1866Y-8.1925
X9.187Y-3.8606
X9.187Y-7.2087
X9.1878Y-7.0102
X9.189Y-2.8752
X9.189Y-3.4693
X9.189Y-4.2567
X9.1898Y-6.0248
X9.1898Y-6.6189
X9.1898Y-7.4063
X9.1917Y-3.2728
X9.1925Y-6.4224
X9.22Y-7.04
X9.26Y-3.81
X9.26Y-8.32
X9.2697Y-5.5756
X9.27Y-2.8
X9.3Y-6.29
X9.3091Y-8.7232
X9.3606Y-5.6165
X9.3831Y-5.0429
X9.3839Y-8.1925
X9.3843Y-5.2378
X9.3846Y-2.8752
X9.3846Y-4.4531
X9.385Y-3.8606
X9.385Y-8.3874
X9.3854Y-6.0248
X9.3854Y-7.6028
X9.3858Y-4.6472
X9.3858Y-7.0102
X9.3862Y-3.074
X9.3862Y-4.2567
X9.3866Y-4.8429
X9.3866Y-7.7969
X9.387Y-6.2236
X9.387Y-7.4063
X9.3874Y-3.6646
X9.3874Y-7.9925
X9.3878Y-5.4331
X9.3882Y-6.8142
X9.3886Y-8.5827
X9.389Y-4.0591
X9.3894Y-3.4693
X9.3898Y-7.2087
X9.3902Y-6.6189
X9.3965Y-3.2728
X9.3972Y-6.4224
X9.42Y-7.0436
X9.452Y-4.1926
X9.4579Y-5.588
X9.46Y-8.34
X9.49Y-6.28
X9.498Y-5.5106
X9.5067Y-8.724
X9.5583Y-5.6165
X9.5748Y-3.6646
X9.5756Y-6.8142
X9.5768Y-3.074
X9.5776Y-5.2378
X9.5776Y-6.2236
X9.5783Y-8.3874
X9.5795Y-2.8752
X9.5795Y-4.4531
X9.5799Y-4.0591
X9.5803Y-6.0248
X9.5803Y-7.6028
X9.5807Y-7.2087
X9.5811Y-3.4693
X9.5811Y-5.0429
X9.5819Y-3.8606
X9.5819Y-4.8429
X9.5819Y-6.6189
X9.5819Y-8.1925
X9.5827Y-5.4331
X9.5827Y-7.0102
X9.5827Y-7.9925
X9.5835Y-4.6472
X9.5835Y-8.5827
X9.5843Y-7.7969
X9.5862Y-4.2567
X9.587Y-7.4063
X9.589Y-3.2728
X9.5898Y-6.4224
X9.63Y-7.0447
X9.66Y-4.93
X9.66Y-8.26
X9.68Y-6.19
X9.69Y-3.16
X9.7008Y-8.7217
X9.7535Y-5.6165
X9.7717Y-3.6633
X9.7725Y-6.813
X9.7764Y-3.074
X9.7768Y-4.2567
X9.7772Y-4.4531
X9.7772Y-5.2378
X9.7772Y-6.2236
X9.7776Y-7.4063
X9.778Y-7.6028
X9.778Y-8.3874
X9.7787Y-3.8606
X9.7791Y-5.4331
X9.7795Y-7.0102
X9.7799Y-4.8429
X9.7799Y-8.5827
X9.7803Y-2.8752
X9.7807Y-7.9925
X9.7811Y-6.0248
X9.7815Y-4.6472
X9.7823Y-7.7969
X9.7827Y-4.0591
X9.7831Y-5.0429
X9.7835Y-7.2087
X9.7839Y-3.4693
X9.7839Y-8.1925
X9.7843Y-3.2728
X9.7846Y-6.6189
X9.785Y-6.4224
X9.8007Y-6.8427
X9.81Y-8.021
X9.84Y-3.8938
X9.85Y-6.36
X9.85Y-7.15
X9.8516Y-8.3387
X9.86Y-4.9
X9.87Y-6.19
X9.88Y-3.13
X9.889Y-7.09
X9.89Y-6.3
X9.89Y-8.26
X9.9055Y-8.722
X9.9508Y-5.6165
X9.9697Y-3.074
X9.9705Y-6.2236
X9.972Y-3.4693
X9.9724Y-4.8429
X9.9728Y-3.2728
X9.9728Y-6.6189
X9.9732Y-4.4531
X9.9732Y-7.9925
X9.9736Y-3.8606
X9.9736Y-5.2378
X9.9736Y-6.4224
X9.974Y-5.0429
X9.974Y-7.6028
X9.9744Y-7.0102
X9.9744Y-8.3874
X9.9748Y-4.6472
X9.9748Y-8.1925
X9.9752Y-4.2567
X9.9756Y-7.7969
X9.976Y-7.4063
X9.9764Y-5.4331
X9.9768Y-3.6646
X9.9772Y-8.5827
X9.9776Y-2.8752
X9.9776Y-6.8142
X9.9783Y-6.0248
X9.9795Y-4.0591
X9.9803Y-7.2087
X10.02Y-6.85
X10.03Y-3.89
X10.0507Y-8.1193
X10.0519Y-3.24
X10.06Y-3.0455
X10.06Y-4.88
X10.07Y-3.8
X10.07Y-6.1951
X10.07Y-7.37
X10.0771Y-4.2
X10.0885Y-6.8775
X10.0937Y-8.726
X10.1492Y-5.6169
X10.17Y-2.8752
X10.17Y-3.074
X10.17Y-3.2728
X10.17Y-3.86
X10.17Y-5.4331
X10.1728Y-8.5827
X10.1756Y-4.2585
X10.1756Y-5.0433
X10.176Y-6.2223
X10.1764Y-7.4063
X10.1768Y-7.0098
X10.1772Y-6.4224
X10.1783Y-4.059
X10.1787Y-4.4531
X10.1787Y-7.2087
X10.1791Y-6.0248
X10.1795Y-8.3874
X10.18Y-4.8429
X10.18Y-5.2378
X10.18Y-7.9925
X10.18Y-8.1899
X10.1807Y-7.6024
X10.1811Y-3.4693
X10.1811Y-3.6646
X10.1811Y-4.6472
X10.1819Y-6.6189
X10.1819Y-6.8142
X10.1819Y-7.7969
X10.2044Y-3.89
X10.22Y-7.04
X10.2409Y-5.5744
X10.2415Y-4.2
X10.25Y-3.22
X10.25Y-8.09
X10.2502Y-3.04
X10.2507Y-4.9472
X10.2511Y-3.32
X10.26Y-5.1002
X10.2628Y-5.1791
X10.27Y-6.19
X10.2715Y-4.99
X10.28Y-4.14
X10.289Y-8.7244
X10.2985Y-4.5207
X10.3Y-6.9
X10.3262Y-7.1869
X10.3449Y-5.6161
X10.346Y-3.0536
X10.3464Y-3.25
X10.3468Y-4.2366
X10.3468Y-4.8268
X10.3468Y-5.0244
X10.3468Y-6.21
X10.3472Y-6.3992
X10.3472Y-6.99
X10.3476Y-7.98
X10.3476Y-8.17
X10.3501Y-4.0399
X10.3646Y-5.2374
X10.3654Y-8.387
X10.3661Y-2.8748
X10.3669Y-6.0244
X10.3673Y-4.4528
X10.3677Y-4.6469
X10.3681Y-7.6024
X10.3685Y-7.7965
X10.3689Y-5.4327
X10.3693Y-3.8602
X10.3697Y-3.4689
X10.3697Y-8.5823
X10.3701Y-3.6642
X10.3705Y-6.6185
X10.3709Y-6.8138
X10.374Y-7.4059
X10.42Y-3.89
X10.45Y-4.68
X10.45Y-5.2
X10.46Y-6.52
X10.46Y-7.3
X10.46Y-7.93
X10.47Y-2.63
X10.4776Y-8.7244
X10.48Y-3.15
X10.48Y-3.53
X10.4936Y-8.0537
X10.5107Y-6.2593
X10.5433Y-5.6161
X10.563Y-5.4327
X10.5638Y-8.5823
X10.5646Y-5.2374
X10.565Y-4.2563
X10.5654Y-8.387
X10.5657Y-7.4059
X10.5669Y-4.6469
X10.5677Y-7.7965
X10.5681Y-4.8425
X10.5685Y-2.8748
X10.5685Y-3.8602
X10.5689Y-7.9921
X10.5693Y-6.0244
X10.5693Y-7.0098
X10.5697Y-3.0736
X10.5701Y-3.4689
X10.5701Y-4.4528
X10.5705Y-4.0587
X10.5705Y-6.2232
X10.5709Y-6.6185
X10.5709Y-7.6024
X10.5713Y-7.2083
X10.5717Y-5.0425
X10.572Y-3.6642
X10.5724Y-8.1921
X10.5728Y-6.8138
X10.5748Y-3.2724
X10.5756Y-6.422
X10.5881Y-7.0444
X10.5904Y-4.8754
X10.61Y-3.6927
X10.617Y-7.83
X10.6326Y-7.1514
X10.64Y-3.41
X10.64Y-4.19
X10.64Y-5.18
X10.64Y-6.37
X10.65Y-5.97
X10.66Y-2.69
X10.66Y-5.39
X10.66Y-8.42
X10.68Y-4.32
X10.6886Y-8.7252
X10.739Y-5.6161
X10.7614Y-4.6469
X10.7622Y-3.8602
X10.7622Y-7.7965
X10.7626Y-5.2374
X10.7634Y-7.4059
X10.7634Y-8.387
X10.7642Y-2.8748
X10.765Y-6.0244
X10.7665Y-3.6642
X10.7673Y-6.8138
X10.7677Y-6.6185
X10.7681Y-5.4327
X10.7689Y-8.5823
X10.77Y-3.4689
X10.7713Y-3.2724
X10.7713Y-4.4528
X10.772Y-7.6024
X10.7839Y-3.0736
X10.7843Y-4.0587
X10.7843Y-4.2563
X10.7843Y-4.8425
X10.7843Y-5.0425
X10.7847Y-6.2232
X10.7847Y-7.0098
X10.7851Y-7.2083
X10.7851Y-7.9921
X10.7851Y-8.1921
X10.7855Y-6.422
X10.81Y-6.647
X10.8136Y-7.83
X10.82Y-3.8931
X10.8417Y-3.31
X10.8421Y-5.9383
X10.8434Y-8.6266
X10.85Y-4.68
X10.85Y-6.56
X10.85Y-8.24
X10.86Y-2.6
X10.86Y-5.08
X10.86Y-7.35
X10.8724Y-8.7236
X10.9374Y-5.6161
X10.9583Y-5.4327
X10.9591Y-4.6469
X10.9591Y-8.5823
X10.9598Y-7.7965
X10.9606Y-4.4528
X10.9606Y-5.2374
X10.9614Y-3.8602
X10.9614Y-4.2563
X10.9614Y-7.6024
X10.9614Y-8.387
X10.9622Y-7.0098
X10.9622Y-7.4059
X10.9626Y-2.8748
X10.963Y-3.4689
X10.9634Y-4.0587
X10.9634Y-6.0244
X10.9638Y-5.0425
X10.9638Y-6.6185
X10.9642Y-7.2083
X10.9646Y-8.1921
X10.965Y-3.0736
X10.9657Y-3.6642
X10.9657Y-6.2232
X10.9661Y-3.2724
X10.9665Y-6.8138
X10.9669Y-6.422
X10.9681Y-4.8425
X10.9689Y-7.9921
X11.01Y-6.8492
X11.0315Y-3.7248
X11.05Y-4.6
X11.05Y-7.89
X11.06Y-2.59
X11.06Y-6.07
X11.0728Y-8.724
X11.1Y-7.04
X11.1315Y-5.6161
X11.1516Y-4.6469
X11.1524Y-7.7965
X11.1539Y-4.8425
X11.1543Y-3.0736
X11.1543Y-4.2563
X11.1547Y-7.9921
X11.1551Y-2.8748
X11.1551Y-6.2232
X11.1551Y-7.4059
X11.1555Y-3.8602
X11.1559Y-3.6642
X11.1559Y-6.0244
X11.1563Y-7.0098
X11.1567Y-6.8138
X11.1579Y-5.4327
X11.1579Y-6.6185
X11.1587Y-5.2374
X11.1587Y-8.5823
X11.1594Y-3.2724
X11.1594Y-5.0425
X11.1594Y-8.387
X11.16Y-3.4689
X11.1602Y-6.422
X11.1602Y-8.1921
X11.161Y-4.0587
X11.1614Y-4.4528
X11.1618Y-7.2083
X11.1622Y-7.6024
X11.2Y-3.89
X11.2053Y-8.0206
X11.23Y-4.75
X11.25Y-4.33
X11.26Y-2.58
X11.2803Y-8.7228
X11.2879Y-6.053
X11.3295Y-5.6161
X11.35Y-3.84
X11.3512Y-4.2563
X11.3512Y-5.2374
X11.352Y-7.4059
X11.352Y-8.387
X11.3531Y-4.8425
X11.3535Y-3.4689
X11.3535Y-4.6469
X11.3539Y-7.9921
X11.3543Y-6.6185
X11.3543Y-7.7965
X11.3547Y-3.0736
X11.3551Y-5.4327
X11.3551Y-7.0098
X11.3555Y-4.4528
X11.3555Y-6.2232
X11.3559Y-4.0587
X11.3559Y-8.5823
X11.3563Y-7.6024
X11.3567Y-7.2083
X11.3571Y-2.8748
X11.3579Y-5.0425
X11.3579Y-6.0244
X11.3587Y-3.6642
X11.3587Y-8.1921
X11.3594Y-6.8138
X11.3598Y-3.2724
X11.3606Y-6.422
X11.3699Y-3.8888
X11.4044Y-8.0206
X11.42Y-7.0435
X11.44Y-4.72
X11.44Y-7.36
X11.45Y-2.57
X11.45Y-8.05
X11.45Y-8.33
X11.46Y-6.0529
X11.4697Y-8.722
X11.4995Y-7.0493
X11.5264Y-5.6161
X11.54Y-3.84
X11.5461Y-3.6642
X11.5469Y-4.6469
X11.5469Y-5.2374
X11.5469Y-6.8138
X11.5472Y-3.0736
X11.5476Y-7.7965
X11.5476Y-8.387
X11.548Y-5.4327
X11.548Y-6.2232
X11.5484Y-4.4528
X11.5488Y-4.8425
X11.5488Y-5.0425
X11.5488Y-8.5823
X11.5492Y-4.0587
X11.5492Y-7.6024
X11.5496Y-7.9921
X11.5496Y-8.1921
X11.55Y-7.2083
X11.5508Y-7.0098
X11.552Y-2.8748
X11.552Y-3.4689
X11.552Y-4.2563
X11.5528Y-6.0244
X11.5528Y-6.6185
X11.5528Y-7.4059
X11.5547Y-3.2724
X11.5555Y-6.422
X11.5697Y-3.8888
X11.5994Y-8.03
X11.63Y-4.7
X11.65Y-2.59
X11.65Y-5.98
X11.6697Y-8.7244
X11.7236Y-5.6161
X11.74Y-3.85
X11.7406Y-3.8994
X11.7461Y-5.0425
X11.7469Y-8.1921
X11.7472Y-5.2374
X11.7476Y-2.8748
X11.7476Y-4.4528
X11.748Y-8.387
X11.7484Y-6.0244
X11.7484Y-7.6024
X11.7488Y-7.0508
X11.7488Y-4.6469
X11.7488Y-7.0098
X11.7492Y-3.0736
X11.7492Y-4.2563
X11.7496Y-4.8425
X11.7496Y-7.7965
X11.75Y-6.2232
X11.75Y-7.4059
X11.7504Y-3.6642
X11.7504Y-7.9921
X11.7508Y-5.4327
X11.7512Y-6.8138
X11.7516Y-8.5823
X11.752Y-4.0587
X11.7524Y-3.4689
X11.7528Y-7.2083
X11.7531Y-6.6185
X11.7594Y-3.2724
X11.7602Y-6.422
X11.7977Y-4.88
X11.7985Y-8.0206
X11.85Y-2.57
X11.86Y-6.08
X11.8654Y-8.7232
X11.9213Y-5.6161
X11.9231Y-3.8886
X11.9378Y-3.6642
X11.9386Y-6.8138
X11.9398Y-3.0736
X11.94Y-3.84
X11.9406Y-5.2374
X11.9406Y-6.2232
X11.9413Y-8.387
X11.9425Y-2.8748
X11.9425Y-4.4528
X11.9429Y-4.0587
X11.9433Y-6.0244
X11.9433Y-7.6024
X11.9437Y-7.2083
X11.9441Y-3.4689
X11.9441Y-5.0425
X11.9449Y-4.8425
X11.9449Y-6.6185
X11.9449Y-8.1921
X11.9457Y-5.4327
X11.9457Y-7.0098
X11.9457Y-7.9921
X11.9465Y-4.6469
X11.9465Y-8.5823
X11.9472Y-7.7965
X11.9492Y-4.2563
X11.95Y-7.4059
X11.952Y-3.2724
X11.9528Y-6.422
X11.99Y-7.04
X11.9927Y-4.88
X11.9935Y-8.03
X12.04Y-2.58
X12.0622Y-8.7224
X12.0761Y-6.0529
X12.1165Y-5.6161
X12.1247Y-3.8902
X12.1347Y-3.663
X12.1355Y-6.8126
X12.1371Y-3.8343
X12.1394Y-3.0736
X12.1398Y-4.2563
X12.1402Y-4.4528
X12.1402Y-5.2374
X12.1402Y-6.2232
X12.1406Y-7.4059
X12.1409Y-7.6024
X12.1409Y-8.387
X12.1421Y-5.4327
X12.1425Y-7.0098
X12.1429Y-4.8425
X12.1429Y-8.5823
X12.1433Y-2.8748
X12.1437Y-7.9921
X12.1441Y-6.0244
X12.1445Y-4.6469
X12.1453Y-7.7965
X12.1457Y-4.0587
X12.1461Y-5.0425
X12.1465Y-7.2083
X12.1469Y-3.4689
X12.1469Y-8.1921
X12.1472Y-3.2724
X12.1476Y-6.6185
X12.148Y-6.422
X12.1637Y-7.043
X12.1657Y-4.8746
X12.1926Y-8.03
X12.23Y-2.6
X12.2693Y-8.7228
X12.2703Y-5.8545
X12.3138Y-5.6161
X12.3211Y-4.0889
X12.3327Y-3.0736
X12.3335Y-6.2232
X12.335Y-3.4689
X12.3354Y-4.8425
X12.3358Y-3.2724
X12.3358Y-6.6185
X12.3362Y-4.4528
X12.3362Y-7.9921
X12.3366Y-3.8602
X12.3366Y-5.2374
X12.3366Y-6.422
X12.337Y-5.0425
X12.337Y-7.6024
X12.3374Y-4.0363
X12.3374Y-7.0098
X12.3374Y-8.387
X12.3378Y-4.6469
X12.3378Y-8.1921
X12.3382Y-4.2563
X12.3386Y-7.7965
X12.339Y-7.4059
X12.3394Y-5.4327
X12.3398Y-3.6642
X12.3402Y-8.5823
X12.3406Y-2.8748
X12.3406Y-6.8138
X12.3413Y-6.0244
X12.3433Y-7.2083
X12.3579Y-7.0434
X12.3868Y-7.83
X12.4008Y-7.7392
X12.4134Y-6.9656
X12.43Y-2.59
X12.43Y-4.9
X12.43Y-6.14
X12.43Y-8.04
X12.4587Y-8.7228
X12.4722Y-5.8578
X12.5154Y-4.6754
X12.53Y-2.8748
X12.53Y-3.6642
X12.53Y-6.0244
X12.53Y-7.0098
X12.5327Y-7.9854
X12.5331Y-7.789
X12.5331Y-4.0587
X12.5382Y-3.0736
X12.5382Y-5.0425
X12.5382Y-8.1882
X12.5382Y-8.585
X12.5386Y-3.861
X12.5386Y-4.2563
X12.539Y-6.2232
X12.5394Y-3.2724
X12.5394Y-7.4059
X12.54Y-5.4327
X12.54Y-5.6165
X12.54Y-6.422
X12.54Y-6.6185
X12.54Y-6.8138
X12.54Y-7.19
X12.54Y-7.6024
X12.5413Y-8.3835
X12.5417Y-4.4528
X12.5417Y-5.2374
X12.5441Y-3.4689
X12.5484Y-4.8433
X12.5566Y-4.6476
X12.57Y-7.04
X12.5859Y-8.03
X12.6012Y-5.587
X12.62Y-6.16
X12.63Y-7.88
X12.6398Y-7.1002
X12.64Y-3.11
X12.65Y-4.13
X12.65Y-6.09
X12.6563Y-8.7283
X12.7063Y-5.6169
X12.726Y-5.2382
X12.7268Y-8.3878
X12.7276Y-2.8756
X12.7283Y-6.0252
X12.7287Y-3.0744
X12.7287Y-3.2732
X12.7287Y-4.4535
X12.7291Y-4.6476
X12.7295Y-6.224
X12.7295Y-6.4228
X12.7295Y-7.6031
X12.7299Y-7.7972
X12.7303Y-4.0594
X12.7303Y-5.4335
X12.7307Y-3.861
X12.7311Y-3.4697
X12.7311Y-5.0433
X12.7311Y-7.2091
X12.7311Y-8.5831
X12.7315Y-3.665
X12.7315Y-7.0106
X12.7319Y-6.6193
X12.7319Y-8.1929
X12.7323Y-6.8146
X12.7346Y-4.2571
X12.7354Y-4.8433
X12.7354Y-7.4067
X12.7362Y-7.9929
X12.77Y-6.8431
X12.8Y-4.99
X12.8Y-7.94
X12.8227Y-4.0115
X12.83Y-3.04
X12.83Y-6.08
X12.8433Y-8.728
X12.9047Y-5.6169
X12.9244Y-5.4335
X12.9252Y-8.5831
X12.926Y-5.2382
X12.9268Y-8.3878
X12.9272Y-7.4067
X12.9283Y-4.6476
X12.9291Y-7.7972
X12.9295Y-4.8433
X12.9299Y-2.8756
X12.9299Y-3.861
X12.9303Y-7.9929
X12.9307Y-6.0252
X12.9307Y-7.0106
X12.9311Y-3.0744
X12.9315Y-3.4697
X12.9315Y-4.4535
X12.9319Y-6.224
X12.9323Y-6.6193
X12.9323Y-7.6031
X12.9327Y-7.2091
X12.9331Y-5.0433
X12.9335Y-3.665
X12.9339Y-8.1929
X12.9343Y-6.8146
X12.9362Y-3.2732
X12.937Y-6.4228
X12.948Y-4.2349
X12.9491Y-4.04
X12.9715Y-6.8431
X13.01Y-3.01
X13.01Y-7.95
X13.02Y-3.97
X13.02Y-4.91
X13.02Y-6.0638
X13.0445Y-8.7264
X13.1004Y-5.6169
X13.1228Y-4.6476
X13.1236Y-3.861
X13.1236Y-7.7972
X13.124Y-4.2571
X13.124Y-5.2382
X13.1244Y-7.0106
X13.1248Y-3.0744
X13.1248Y-5.0433
X13.1248Y-7.4067
X13.1248Y-8.3878
X13.1256Y-2.8756
X13.1256Y-6.224
X13.1256Y-8.1929
X13.1264Y-6.0252
X13.1272Y-4.8433
X13.128Y-3.665
X13.128Y-7.9929
X13.1283Y-3.4697
X13.1287Y-6.8146
X13.1291Y-4.0594
X13.1291Y-6.6193
X13.1295Y-5.4335
X13.1299Y-7.2091
X13.1303Y-8.5831
X13.1327Y-3.2732
X13.1327Y-4.4535
X13.1335Y-6.4228
X13.1335Y-7.6031
X13.17Y-6.8431
X13.175Y-7.3742
X13.1905Y-3.2105
X13.2027Y-5.0148
X13.2079Y-5.5791
X13.2087Y-3.1703
X13.21Y-3.01
X13.22Y-4.19
X13.22Y-5.17
X13.22Y-7.51
X13.2208Y-4.13
X13.2208Y-4.3
X13.2208Y-4.9795
X13.24Y-5.71
X13.2409Y-8.7236
X13.2528Y-5.5504
X13.2988Y-5.6169
X13.3197Y-5.4335
X13.3205Y-4.6476
X13.3205Y-8.5831
X13.3213Y-7.7972
X13.322Y-4.4535
X13.322Y-5.2382
X13.3228Y-3.861
X13.3228Y-4.2571
X13.3228Y-7.6031
X13.3228Y-8.3878
X13.3236Y-7.0106
X13.3236Y-7.4067
X13.324Y-2.8756
X13.3244Y-3.4697
X13.3248Y-4.0594
X13.3248Y-6.0252
X13.3252Y-5.0433
X13.3252Y-6.6193
X13.3256Y-7.2091
X13.326Y-8.1929
X13.3264Y-3.0744
X13.3272Y-3.665
X13.3272Y-6.224
X13.3276Y-3.2732
X13.328Y-6.8146
X13.3283Y-6.4228
X13.3295Y-4.8433
X13.3303Y-7.9929
X13.36Y-6.8431
X13.3741Y-7.83
X13.39Y-4.0
X13.41Y-3.04
X13.41Y-3.35
X13.41Y-4.92
X13.41Y-5.0
X13.41Y-5.86
X13.41Y-6.69
X13.42Y-4.38
X13.42Y-5.74
X13.4362Y-5.552
X13.4504Y-8.724
X13.4929Y-5.6169
X13.4949Y-3.05
X13.4953Y-3.2581
X13.4953Y-4.0395
X13.4957Y-5.02
X13.4957Y-5.22
X13.496Y-6.99
X13.4964Y-6.7971
X13.4964Y-7.9774
X13.4964Y-8.18
X13.4976Y-6.2221
X13.4993Y-4.2407
X13.5Y-6.0252
X13.513Y-4.6476
X13.5138Y-7.7972
X13.5154Y-4.8433
X13.5165Y-2.8756
X13.5165Y-7.4067
X13.5169Y-3.861
X13.5173Y-3.665
X13.5185Y-3.4697
X13.5193Y-5.4335
X13.5193Y-6.6193
X13.5201Y-8.5831
X13.5209Y-8.3878
X13.5217Y-6.4228
X13.5228Y-4.4535
X13.5232Y-7.2091
X13.5236Y-7.6031
X13.5424Y-6.6511
X13.61Y-3.81
X13.61Y-4.37
X13.61Y-6.37
X13.61Y-7.25
X13.62Y-5.86
X13.63Y-6.68
X13.64Y-3.14
X13.64Y-4.13
X13.64Y-5.12
X13.64Y-7.88
X13.6406Y-8.7244
X13.6429Y-5.5575
X13.6909Y-5.6169
X13.7126Y-5.2382
X13.7134Y-7.4067
X13.7134Y-8.3878
X13.7146Y-4.8433
X13.715Y-3.4697
X13.715Y-4.6476
X13.7154Y-7.9929
X13.7157Y-3.861
X13.7157Y-6.6193
X13.7157Y-7.7972
X13.7161Y-3.0744
X13.7165Y-5.4335
X13.7165Y-7.0106
X13.7169Y-4.4535
X13.7169Y-6.224
X13.7173Y-4.0594
X13.7173Y-8.5831
X13.7177Y-7.6031
X13.7181Y-7.2091
X13.7185Y-2.8756
X13.7193Y-4.2322
X13.7193Y-5.0433
X13.7193Y-6.0252
X13.7201Y-3.665
X13.7201Y-8.1929
X13.7209Y-6.8146
X13.7213Y-3.2732
X13.722Y-6.4228
X13.76Y-6.8505
X13.7658Y-7.3742
X13.7804Y-5.1804
X13.7854Y-5.5884
X13.79Y-6.37
X13.8Y-3.39
X13.8Y-4.32
X13.8Y-7.04
X13.8Y-8.23
X13.81Y-2.83
X13.81Y-5.32
X13.8268Y-5.55
X13.83Y-5.71
X13.83Y-7.28
X13.8374Y-8.724
X13.8878Y-5.6169
X13.9075Y-3.665
X13.9083Y-4.6476
X13.9091Y-7.7972
X13.9091Y-8.3878
X13.9094Y-5.4335
X13.9098Y-4.4535
X13.9102Y-4.8433
X13.9102Y-8.5831
X13.9106Y-7.6031
X13.9114Y-3.861
X13.9114Y-7.2091
X13.9134Y-2.8756
X13.9134Y-3.4697
X13.9142Y-6.6193
X13.9142Y-7.4067
X13.9169Y-6.4228
X13.9285Y-4.2338
X13.9311Y-3.0744
X13.9315Y-5.2382
X13.9315Y-6.0252
X13.9319Y-3.2971
X13.9319Y-6.224
X13.9323Y-8.1929
X13.96Y-4.0594
X13.96Y-6.6542
X13.96Y-7.9929
X13.97Y-6.8146
X13.97Y-7.0106
X13.9715Y-5.0433
X13.9793Y-7.3475
X13.98Y-5.38
X13.98Y-5.66
X13.99Y-4.19
X13.9953Y-5.578
X14.0Y-3.24
X14.0Y-3.77
X14.0Y-4.4
X14.0Y-5.462
X14.0Y-6.48
X14.0Y-8.15
X14.0035Y-3.6293
X14.0089Y-5.1715
X14.01Y-2.91
X14.01Y-3.72
X14.01Y-4.3
X14.0225Y-5.7125
X14.0232Y-8.7236
X14.0339Y-5.5465
X14.085Y-5.6169
X14.1075Y-5.0433
X14.1083Y-8.1929
X14.1087Y-5.2382
X14.1091Y-2.8756
X14.1091Y-4.4535
X14.1094Y-3.861
X14.1094Y-8.3878
X14.1098Y-6.0252
X14.1098Y-7.6031
X14.1102Y-4.6476
X14.1102Y-7.0106
X14.1106Y-3.0744
X14.1106Y-4.2571
X14.111Y-4.8433
X14.111Y-7.7972
X14.1114Y-6.224
X14.1114Y-7.4067
X14.1118Y-3.665
X14.1118Y-7.9929
X14.1122Y-5.4335
X14.1126Y-6.8146
X14.113Y-8.5831
X14.1134Y-4.0594
X14.1138Y-3.4697
X14.1142Y-7.2091
X14.1146Y-6.6193
X14.1209Y-3.2732
X14.1217Y-6.4228
X14.1599Y-7.3726
X14.16Y-6.6478
X14.18Y-4.1915
X14.1807Y-5.5884
X14.19Y-4.1165
X14.2Y-5.99
X14.21Y-2.95
X14.21Y-5.72
X14.22Y-3.93
X14.22Y-8.05
X14.2291Y-8.7236
X14.2827Y-5.6169
X14.2992Y-3.665
X14.3Y-6.8146
X14.3012Y-3.0744
X14.302Y-5.2382
X14.302Y-6.224
X14.3028Y-8.3878
X14.3039Y-2.8756
X14.3039Y-4.4535
X14.3043Y-4.0594
X14.3047Y-6.0252
X14.3047Y-7.6031
X14.3051Y-7.2091
X14.3055Y-3.4697
X14.3055Y-5.0433
X14.3063Y-3.861
X14.3063Y-4.8433
X14.3063Y-6.6193
X14.3063Y-8.1929
X14.3071Y-5.4335
X14.3071Y-7.0106
X14.3071Y-7.9929
X14.3079Y-4.6476
X14.3079Y-8.5831
X14.3087Y-7.7972
X14.3106Y-4.2571
X14.3114Y-7.4067
X14.3134Y-3.2732
X14.3142Y-6.4228
X14.34Y-6.65
X14.3549Y-7.7663
X14.38Y-4.98
X14.4Y-2.95
X14.4Y-5.82
X14.4Y-6.48
X14.42Y-5.72
X14.4252Y-8.7228
X14.43Y-3.93
X14.478Y-5.6169
X14.4961Y-3.6637
X14.4969Y-6.8133
X14.5008Y-3.0744
X14.5012Y-4.2571
X14.5016Y-4.4535
X14.5016Y-5.2382
X14.5016Y-6.224
X14.502Y-7.4067
X14.5024Y-7.6031
X14.5024Y-8.3878
X14.5031Y-3.861
X14.5035Y-5.4335
X14.5039Y-7.0106
X14.5043Y-4.8433
X14.5043Y-8.5831
X14.5047Y-2.8756
X14.5051Y-7.9929
X14.5055Y-6.0252
X14.5059Y-4.6476
X14.5067Y-7.7972
X14.5071Y-4.0594
X14.5075Y-5.0433
X14.5079Y-7.2091
X14.5083Y-3.4697
X14.5083Y-8.1929
X14.5087Y-3.2732
X14.5091Y-6.6193
X14.5094Y-6.4228
X14.55Y-6.655
X14.554Y-7.83
X14.57Y-4.98
X14.6Y-2.96
X14.61Y-3.94
X14.61Y-5.71
X14.6173Y-8.724
X14.6752Y-5.6169
X14.6941Y-3.0744
X14.6949Y-6.224
X14.6965Y-3.4697
X14.6969Y-4.8433
X14.6972Y-3.2732
X14.6972Y-6.6193
X14.6976Y-4.4535
X14.6976Y-7.9929
X14.698Y-3.861
X14.698Y-5.2382
X14.698Y-6.4228
X14.6984Y-5.0433
X14.6984Y-7.6031
X14.6988Y-7.0106
X14.6988Y-8.3878
X14.6992Y-4.6476
X14.6992Y-8.1929
X14.6996Y-4.2571
X14.7Y-7.7972
X14.7004Y-7.4067
X14.7008Y-5.4335
X14.7012Y-3.665
X14.7016Y-8.5831
X14.702Y-2.8756
X14.702Y-6.8146
X14.7028Y-6.0252
X14.7039Y-4.0594
X14.7047Y-7.2091
X14.74Y-6.6516
X14.7482Y-7.83
X14.77Y-5.18
X14.7756Y-3.9656
X14.8Y-3.03
X14.81Y-5.71
X14.8189Y-8.7244
X14.878Y-6.8431
X14.88Y-5.6173
X14.89Y-2.8756
X14.89Y-6.0252
X14.8903Y-3.0741
X14.8965Y-5.4335
X14.8972Y-8.5831
X14.8996Y-5.0433
X14.9Y-3.4697
X14.9Y-4.8433
X14.9Y-6.6193
X14.9Y-7.7972
X14.9004Y-3.8606
X14.9004Y-8.1929
X14.9008Y-3.2732
X14.9008Y-6.2236
X14.9008Y-7.4067
X14.9012Y-7.0102
X14.9016Y-6.4228
X14.9031Y-4.4535
X14.9031Y-5.2382
X14.9035Y-7.2087
X14.9039Y-7.6031
X14.9039Y-8.3878
X14.9055Y-3.665
X14.9055Y-4.6476
X14.91Y-4.2571
X14.91Y-6.8142
X14.9125Y-7.9925
X14.93Y-4.08
X14.9473Y-7.83
X14.97Y-5.18
X15.0Y-3.13
X15.0Y-5.71
X15.0083Y-8.7248
X15.0497Y-3.6993
X15.0693Y-5.6165
X15.089Y-5.2378
X15.0898Y-8.3874
X15.0906Y-2.8752
X15.0913Y-6.0248
X15.0917Y-3.074
X15.0917Y-3.2728
X15.0917Y-4.4531
X15.0921Y-4.6472
X15.0925Y-6.2236
X15.0925Y-6.4224
X15.0925Y-7.6028
X15.0929Y-7.7969
X15.0933Y-4.0591
X15.0933Y-5.4331
X15.0937Y-3.8606
X15.0941Y-3.4693
X15.0941Y-5.0429
X15.0941Y-7.2087
X15.0941Y-8.5827
X15.0945Y-3.6646
X15.0945Y-7.0102
X15.0949Y-6.6189
X15.0949Y-8.1925
X15.0953Y-6.8142
X15.0976Y-4.2567
X15.0984Y-4.8429
X15.0984Y-7.4063
X15.0992Y-7.9925
X15.1134Y-6.8491
X15.1423Y-7.83
X15.16Y-5.18
X15.19Y-3.14
X15.2Y-4.11
X15.2Y-5.78
X15.2079Y-8.7244
X15.2677Y-5.6165
X15.2687Y-6.8427
X15.2874Y-5.4331
X15.2882Y-8.5827
X15.289Y-5.2378
X15.2894Y-4.2567
X15.2898Y-8.3874
X15.2902Y-7.4063
X15.2913Y-4.6472
X15.2921Y-7.7969
X15.2925Y-4.8429
X15.2929Y-2.8752
X15.2929Y-3.8606
X15.2933Y-7.9925
X15.2937Y-6.0248
X15.2937Y-7.0102
X15.2941Y-3.074
X15.2945Y-3.4693
X15.2945Y-4.4531
X15.2949Y-4.0591
X15.2949Y-6.2236
X15.2953Y-6.6189
X15.2953Y-7.6028
X15.2957Y-7.2087
X15.2961Y-5.0429
X15.2965Y-3.6646
X15.2969Y-8.1925
X15.2972Y-6.8142
X15.2992Y-3.2728
X15.3Y-6.4224
X15.3414Y-7.83
X15.361Y-5.588
X15.381Y-4.1915
X15.39Y-3.14
X15.39Y-5.8
X15.39Y-6.29
X15.411Y-8.726
X15.4634Y-5.6165
X15.4858Y-4.6472
X15.4866Y-3.8606
X15.4866Y-7.7969
X15.487Y-4.2567
X15.487Y-5.2378
X15.4874Y-7.0102
X15.4878Y-3.074
X15.4878Y-5.0429
X15.4878Y-7.4063
X15.4878Y-8.3874
X15.4886Y-2.8752
X15.4886Y-6.2236
X15.4886Y-8.1925
X15.4894Y-6.0248
X15.4902Y-4.8429
X15.4909Y-3.6646
X15.4909Y-7.9925
X15.4913Y-3.4693
X15.4917Y-6.8142
X15.4921Y-4.0591
X15.4921Y-6.6189
X15.4925Y-5.4331
X15.4929Y-7.2087
X15.4933Y-8.5827
X15.4957Y-3.2728
X15.4957Y-4.4531
X15.4965Y-6.4224
X15.4965Y-7.6028
X15.5215Y-6.8427
X15.538Y-7.83
X15.5546Y-4.9854
X15.58Y-3.14
X15.58Y-4.4
X15.58Y-5.89
X15.58Y-5.98
X15.58Y-6.94
X15.59Y-5.72
X15.59Y-6.7
X15.6004Y-8.7252
X15.6618Y-5.6165
X15.6659Y-6.8445
X15.6827Y-5.4331
X15.6835Y-4.6472
X15.6835Y-8.5827
X15.6843Y-7.7969
X15.685Y-4.4531
X15.685Y-5.2378
X15.6858Y-3.8606
X15.6858Y-4.2567
X15.6858Y-7.6028
X15.6858Y-8.3874
X15.6866Y-7.0102
X15.6866Y-7.4063
X15.687Y-2.8752
X15.6874Y-3.4693
X15.6878Y-4.0591
X15.6878Y-6.0248
X15.6882Y-5.0429
X15.6882Y-6.6189
X15.6886Y-7.2087
X15.689Y-8.1925
X15.6894Y-3.074
X15.6902Y-3.6646
X15.6902Y-6.2236
X15.6906Y-3.2728
X15.6909Y-6.8142
X15.6913Y-6.4224
X15.6925Y-4.8429
X15.6933Y-7.9925
X15.7371Y-7.83
X15.7548Y-4.9844
X15.76Y-5.97
X15.79Y-6.48
X15.79Y-6.98
X15.7961Y-8.7236
X15.8Y-3.13
X15.8035Y-6.3257
X15.8559Y-5.6165
X15.876Y-4.6472
X15.8768Y-7.7969
X15.8783Y-4.8429
X15.8787Y-3.074
X15.8787Y-4.2567
X15.8791Y-7.9925
X15.8795Y-2.8752
X15.8795Y-6.2236
X15.8795Y-7.4063
X15.8799Y-3.8606
X15.8803Y-3.6646
X15.8803Y-6.0248
X15.8807Y-7.0102
X15.8811Y-6.8142
X15.8815Y-3.4693
X15.8823Y-5.4331
X15.8823Y-6.6189
X15.8831Y-5.2378
X15.8831Y-8.5827
X15.8839Y-3.2728
X15.8839Y-5.0429
X15.8839Y-8.3874
X15.8846Y-6.4224
X15.8846Y-8.1925
X15.8854Y-4.0591
X15.8858Y-4.4531
X15.8862Y-7.2087
X15.8866Y-7.6028
X15.92Y-4.0876
X15.939Y-8.6296
X15.9517Y-6.9438
X15.96Y-3.41
X15.96Y-5.16
X15.96Y-6.32
X15.97Y-6.451
X15.97Y-8.31
X15.97Y-8.35
X15.98Y-6.8427
X15.98Y-8.23
X15.98Y-8.27
X15.98Y-8.42
X15.99Y-3.16
X15.99Y-7.09
X16.0Y-7.17
X16.0008Y-8.724
X16.0539Y-5.6165
X16.0582Y-6.9944
X16.0585Y-6.0075
X16.0585Y-6.796
X16.0585Y-8.1761
X16.0585Y-8.3679
X16.0631Y-6.2069
X16.0756Y-4.2567
X16.0756Y-5.2378
X16.0764Y-7.4063
X16.0776Y-4.8429
X16.078Y-3.4693
X16.078Y-4.6472
X16.0783Y-7.9925
X16.0787Y-3.8606
X16.0787Y-6.6189
X16.0791Y-3.074
X16.0795Y-5.4331
X16.0799Y-4.4531
X16.08Y-7.78
X16.0803Y-4.0591
X16.0803Y-8.5827
X16.0807Y-7.6028
X16.0811Y-7.2087
X16.0815Y-2.8752
X16.0823Y-5.0429
X16.0831Y-3.6646
X16.0843Y-3.2728
X16.085Y-6.4224
X16.0995Y-4.0934
X16.1284Y-8.5542
X16.1524Y-8.7358
X16.1524Y-6.3515
X16.16Y-5.12
X16.16Y-8.47
X16.17Y-5.38
X16.17Y-7.94
X16.18Y-3.15
X16.1902Y-6.4798
X16.2Y-8.7
X16.21Y-7.24
X16.2508Y-5.6165
X16.2705Y-3.6646
X16.2713Y-4.6472
X16.2713Y-5.2378
X16.2713Y-6.8142
X16.2717Y-3.074
X16.272Y-7.7969
X16.272Y-8.3874
X16.2724Y-5.4331
X16.2724Y-6.2236
X16.2728Y-4.4531
X16.2732Y-4.8429
X16.2732Y-5.0429
X16.2732Y-8.5827
X16.2736Y-4.0591
X16.2736Y-7.6028
X16.274Y-7.9925
X16.274Y-8.1925
X16.2744Y-3.8606
X16.2744Y-7.2087
X16.2752Y-7.0102
X16.2764Y-2.8752
X16.2764Y-3.4693
X16.2764Y-4.2567
X16.2772Y-6.0248
X16.2772Y-6.6189
X16.2772Y-7.4063
X16.2791Y-3.2728
X16.2799Y-6.4224
X16.3115Y-3.6931
X16.3297Y-8.7503
X16.35Y-5.1035
X16.3511Y-6.5404
X16.3523Y-8.5004
X16.3523Y-8.2585
X16.36Y-5.65
X16.36Y-6.31
X16.36Y-6.46
X16.36Y-6.69
X16.36Y-8.7
X16.37Y-7.1563
X16.37Y-4.21
X16.37Y-6.65
X16.38Y-8.46
X16.3885Y-6.3413
X16.39Y-3.14
X16.4Y-8.73
X16.41Y-7.25
X16.448Y-5.6165
X16.4705Y-5.0429
X16.4717Y-5.2378
X16.472Y-2.8752
X16.472Y-4.4531
X16.4724Y-3.8606
X16.4728Y-7.6028
X16.4732Y-4.6472
X16.4736Y-3.074
X16.4736Y-4.2567
X16.474Y-4.8429
X16.474Y-7.7969
X16.4744Y-7.4063
X16.4748Y-3.6646
X16.4748Y-7.9925
X16.4752Y-5.4331
X16.476Y-8.5827
X16.4764Y-4.0591
X16.4768Y-3.4693
X16.4772Y-7.2087
X16.4776Y-6.6189
X16.4839Y-3.2728
X16.4846Y-6.4224
X16.4944Y-8.3874
X16.5082Y-7.0115
X16.51Y-4.0876
X16.51Y-6.8142
X16.5224Y-8.1927
X16.53Y-6.2236
X16.54Y-6.0248
X16.54Y-8.53
X16.55Y-5.0779
X16.559Y-8.3115
X16.5596Y-8.6296
X16.56Y-3.24
X16.56Y-5.86
X16.56Y-6.52
X16.57Y-3.12
X16.57Y-5.93
X16.57Y-8.15
X16.5725Y-6.97
X16.5794Y-8.263
X16.58Y-6.16
X16.587Y-8.73
X16.59Y-6.88
X16.59Y-8.69
X16.6457Y-5.6165
X16.6622Y-3.6646
X16.663Y-6.8142
X16.6642Y-3.074
X16.665Y-5.2378
X16.665Y-6.2236
X16.6657Y-8.3874
X16.6669Y-2.8752
X16.6669Y-4.4531
X16.6673Y-4.0591
X16.6677Y-6.0248
X16.6677Y-7.6028
X16.6681Y-7.2087
X16.6685Y-3.4693
X16.6685Y-5.0429
X16.6693Y-3.8606
X16.6693Y-4.8429
X16.6693Y-6.6189
X16.6693Y-8.1925
X16.6701Y-5.4331
X16.6701Y-7.0102
X16.6701Y-7.9925
X16.6709Y-4.6472
X16.6709Y-8.5827
X16.6717Y-7.7969
X16.6736Y-4.2567
X16.6744Y-7.4063
X16.6764Y-3.2728
X16.6772Y-6.4224
X16.7Y-4.09
X16.74Y-4.99
X16.75Y-6.78
X16.75Y-8.16
X16.76Y-5.19
X16.76Y-6.07
X16.76Y-8.04
X16.78Y-3.15
X16.78Y-3.94
X16.78Y-4.34
X16.78Y-6.97
X16.7831Y-8.7091
X16.8Y-6.2988
X16.8409Y-5.6165
X16.8591Y-3.6633
X16.8599Y-6.813
X16.8638Y-3.074
X16.8642Y-4.2567
X16.8646Y-4.4531
X16.8646Y-5.2378
X16.8646Y-6.2236
X16.865Y-7.4063
X16.8654Y-7.6028
X16.8654Y-8.3874
X16.8661Y-3.8606
X16.8665Y-5.4331
X16.8669Y-7.0102
X16.8673Y-4.8429
X16.8673Y-8.5827
X16.8677Y-2.8752
X16.8681Y-7.9925
X16.8685Y-6.0248
X16.8689Y-4.6472
X16.8697Y-7.7969
X16.8701Y-4.0591
X16.8705Y-5.0429
X16.8709Y-7.2087
X16.8713Y-3.4693
X16.8713Y-8.1925
X16.8717Y-3.2728
X16.872Y-6.6189
X16.8724Y-6.4224
X16.9Y-3.6931
X16.9311Y-4.3927
X16.9354Y-8.7376
X16.936Y-4.98
X16.94Y-8.13
X16.9429Y-5.1972
X16.9448Y-6.11
X16.95Y-3.33
X16.95Y-6.7856
X16.95Y-7.94
X16.96Y-5.28
X16.96Y-6.89
X16.9658Y-6.97
X16.97Y-3.13
X16.98Y-6.3
X16.98Y-8.06
X16.98Y-8.66
X16.9862Y-3.2243
X16.9898Y-8.7217
X16.99Y-3.34
X17.0382Y-5.6165
X17.0401Y-4.23
X17.0401Y-4.4307
X17.0401Y-5.02
X17.0401Y-5.215
X17.0409Y-8.18
X17.0571Y-3.074
X17.0579Y-6.2236
X17.0594Y-3.4693
X17.0598Y-4.8429
X17.0602Y-6.6189
X17.0606Y-7.9925
X17.061Y-3.8606
X17.061Y-6.4224
X17.0614Y-7.6028
X17.0618Y-7.0102
X17.0618Y-8.3874
X17.0622Y-4.6472
X17.063Y-7.7969
X17.0634Y-7.4063
X17.0638Y-5.4331
X17.0642Y-3.6646
X17.0646Y-8.5827
X17.065Y-2.8752
X17.065Y-6.8142
X17.0657Y-6.0248
X17.0669Y-4.0591
X17.0677Y-7.2087
X17.0915Y-4.0954
X17.14Y-8.53
X17.15Y-7.91
X17.15Y-7.95
X17.16Y-4.91
X17.1649Y-6.97
X17.17Y-7.87
X17.18Y-3.14
X17.18Y-6.3
X17.1866Y-8.7244
X17.24Y-5.6169
X17.2504Y-8.5822
X17.251Y-5.2368
X17.2514Y-8.386
X17.2522Y-5.0407
X17.2594Y-5.4331
X17.26Y-3.074
X17.26Y-3.4693
X17.26Y-3.6646
X17.26Y-4.4531
X17.26Y-4.8429
X17.26Y-6.0248
X17.26Y-6.4224
X17.26Y-7.2087
X17.26Y-7.7969
X17.2622Y-3.8606
X17.263Y-4.2567
X17.263Y-7.0102
X17.2634Y-6.2236
X17.2634Y-8.1925
X17.2638Y-3.2728
X17.2638Y-7.4063
X17.2654Y-4.0591
X17.2657Y-2.8752
X17.2658Y-6.8142
X17.2669Y-7.6028
X17.2693Y-6.6189
X17.27Y-4.6472
X17.29Y-7.9925
X17.2915Y-3.7
X17.3099Y-8.5537
X17.3284Y-5.6587
X17.33Y-8.13
X17.33Y-8.2214
X17.34Y-4.8
X17.35Y-3.01
X17.35Y-4.54
X17.35Y-6.68
X17.35Y-7.84
X17.36Y-5.71
X17.37Y-5.5
X17.37Y-6.31
X17.3752Y-8.7248
X17.38Y-7.04
X17.4307Y-5.6169
X17.4512Y-8.3878
X17.452Y-2.8756
X17.4528Y-6.0252
X17.4531Y-3.0744
X17.4535Y-4.6476
X17.4539Y-6.224
X17.4539Y-6.4228
X17.4539Y-7.6031
X17.4543Y-7.7972
X17.4547Y-4.0594
X17.4547Y-5.4335
X17.4551Y-3.861
X17.4555Y-3.4697
X17.4555Y-7.2091
X17.4555Y-8.5831
X17.4559Y-3.665
X17.4559Y-7.0106
X17.4563Y-6.6193
X17.4567Y-6.8146
X17.4598Y-4.8433
X17.4598Y-7.4067
X17.4606Y-7.9929
X17.47Y-5.0208
X17.4744Y-4.2571
X17.4744Y-4.4535
X17.4744Y-5.22
X17.4752Y-8.1929
X17.49Y-4.09
X17.4915Y-3.2983
X17.5177Y-6.8199
X17.5285Y-4.9785
X17.53Y-5.97
X17.53Y-8.54
X17.5323Y-8.2214
X17.54Y-5.39
X17.54Y-8.31
X17.55Y-8.06
X17.55Y-3.36
X17.55Y-4.38
X17.55Y-4.5
X17.5694Y-7.0606
X17.57Y-3.14
X17.57Y-5.9
X17.57Y-6.09
X17.57Y-7.28
X17.57Y-8.27
X17.5799Y-8.7236
X17.58Y-6.57
X17.6291Y-5.6169
X17.6322Y-7.19
X17.6326Y-6.9974
X17.633Y-6.6
X17.6367Y-6.405
X17.6488Y-5.4335
X17.6496Y-8.5831
X17.6504Y-5.2382
X17.6508Y-4.2571
X17.6512Y-8.3878
X17.6516Y-7.4067
X17.6528Y-4.6476
X17.6535Y-7.7972
X17.6539Y-4.8433
X17.6543Y-2.8756
X17.6543Y-3.861
X17.6547Y-7.9929
X17.6551Y-6.0252
X17.6555Y-3.0744
X17.6559Y-3.4697
X17.6559Y-4.4535
X17.6563Y-4.0594
X17.6563Y-6.224
X17.6567Y-7.6031
X17.6575Y-5.0433
X17.6579Y-3.665
X17.6583Y-8.1929
X17.6587Y-6.8146
X17.6606Y-3.2732
X17.69Y-4.09
X17.7205Y-4.98
X17.7298Y-8.3198
X17.7314Y-8.09
X17.74Y-5.75
X17.74Y-6.32
X17.7458Y-5.6455
X17.75Y-3.6
X17.75Y-6.69
X17.75Y-8.23
X17.7551Y-7.8312
X17.76Y-8.27
X17.77Y-3.14
X17.77Y-6.1
X17.77Y-8.07
X17.7772Y-8.7236
X17.78Y-5.9
X17.78Y-6.77
X17.8248Y-5.6169
X17.8472Y-4.6476
X17.848Y-3.861
X17.848Y-7.7972
X17.8484Y-4.2571
X17.8484Y-5.2382
X17.8488Y-7.0106
X17.8492Y-3.0744
X17.8492Y-5.0433
X17.8492Y-7.4067
X17.8492Y-8.3878
X17.85Y-2.8756
X17.85Y-6.224
X17.85Y-8.1929
X17.8508Y-6.0252
X17.8516Y-4.8433
X17.8524Y-3.665
X17.8524Y-7.9929
X17.8528Y-3.4697
X17.8531Y-6.8146
X17.8535Y-4.0594
X17.8535Y-6.6193
X17.8539Y-5.4335
X17.8543Y-7.2091
X17.8547Y-8.5831
X17.8571Y-3.2732
X17.8571Y-4.4535
X17.8579Y-6.4228
X17.8579Y-7.6031
X17.89Y-4.09
X17.92Y-4.99
X17.94Y-5.31
X17.95Y-6.31
X17.96Y-5.87
X17.96Y-6.68
X17.9665Y-8.7244
X17.97Y-3.14
X18.0232Y-5.6169
X18.0441Y-5.4335
X18.0449Y-4.6476
X18.0449Y-8.5831
X18.0457Y-7.7972
X18.0465Y-4.4535
X18.0465Y-5.2382
X18.0472Y-3.861
X18.0472Y-4.2571
X18.0472Y-7.6031
X18.0472Y-8.3878
X18.048Y-7.4067
X18.0484Y-2.8756
X18.0488Y-3.4697
X18.0492Y-4.0594
X18.0492Y-6.0252
X18.0496Y-5.0433
X18.0504Y-8.1929
X18.0508Y-3.0744
X18.0516Y-3.665
X18.0516Y-6.224
X18.052Y-3.2732
X18.0524Y-6.8146
X18.0539Y-4.8433
X18.0547Y-7.9929
X18.0696Y-7.0106
X18.07Y-6.6193
X18.07Y-7.2091
X18.0704Y-6.4228
X18.09Y-4.09
X18.12Y-4.59
X18.12Y-4.98
X18.12Y-8.04
X18.14Y-3.75
X18.14Y-5.85
X18.14Y-6.47
X18.15Y-3.13
X18.1538Y-6.56
X18.1661Y-8.724
X18.2173Y-5.6169
X18.2208Y-7.3846
X18.223Y-7.5781
X18.2374Y-4.6476
X18.2382Y-7.7972
X18.2398Y-4.8433
X18.2402Y-3.0744
X18.2402Y-4.2571
X18.2409Y-2.8756
X18.2409Y-6.224
X18.2413Y-3.861
X18.2417Y-3.665
X18.2417Y-6.0252
X18.2421Y-7.0106
X18.2425Y-6.8146
X18.2429Y-3.4697
X18.2437Y-5.4335
X18.2437Y-6.6193
X18.2445Y-5.2382
X18.2445Y-8.5831
X18.2453Y-3.2732
X18.2453Y-5.0433
X18.2453Y-8.3878
X18.2461Y-6.4228
X18.2461Y-8.1929
X18.2469Y-4.0594
X18.2472Y-4.4535
X18.2476Y-7.2091
X18.25Y-7.9929
X18.2815Y-4.088
X18.32Y-7.95
X18.33Y-3.99
X18.33Y-4.53
X18.33Y-4.97
X18.33Y-5.77
X18.34Y-3.14
X18.3421Y-3.9059
X18.36Y-4.32
X18.3713Y-8.726
X18.4154Y-5.6169
X18.4266Y-3.647
X18.4297Y-3.8587
X18.437Y-4.2571
X18.437Y-5.2382
X18.4378Y-7.4067
X18.4378Y-8.3878
X18.439Y-4.8433
X18.4394Y-3.4697
X18.4394Y-4.6476
X18.4398Y-7.9929
X18.4402Y-6.6193
X18.4402Y-7.7972
X18.4406Y-3.0744
X18.4409Y-5.4335
X18.4409Y-7.0106
X18.4413Y-4.4535
X18.4413Y-6.224
X18.4417Y-4.0594
X18.4417Y-8.5831
X18.4421Y-7.6031
X18.4425Y-7.2091
X18.4429Y-2.8756
X18.4437Y-5.0433
X18.4437Y-6.0252
X18.4445Y-8.1929
X18.4453Y-6.8146
X18.4457Y-3.2732
X18.4465Y-6.4228
X18.48Y-4.088
X18.4891Y-5.5494
X18.5144Y-7.5328
X18.5192Y-6.5242
X18.52Y-5.97
X18.5224Y-7.9488
X18.53Y-4.3
X18.53Y-5.74
X18.53Y-5.87
X18.53Y-6.07
X18.5351Y-4.3755
X18.55Y-3.13
X18.55Y-7.27
X18.5602Y-4.1298
X18.5623Y-8.7395
X18.574Y-4.0594
X18.6122Y-5.6169
X18.6319Y-3.665
X18.6327Y-4.6476
X18.6327Y-5.2382
X18.6327Y-6.8146
X18.6331Y-3.0744
X18.6335Y-7.7972
X18.6335Y-8.3878
X18.6339Y-5.4335
X18.6339Y-6.224
X18.6343Y-4.4535
X18.6346Y-4.8433
X18.6346Y-5.0433
X18.6346Y-8.5831
X18.6354Y-7.9929
X18.6354Y-8.1929
X18.6358Y-3.861
X18.6358Y-7.2091
X18.6366Y-7.0106
X18.6378Y-2.8756
X18.6378Y-3.4697
X18.6378Y-4.2571
X18.6386Y-6.0252
X18.6386Y-6.6193
X18.6406Y-3.2732
X18.6413Y-6.4228
X18.6563Y-7.6031
X18.6646Y-7.437
X18.68Y-7.9644
X18.6841Y-5.5474
X18.6898Y-7.4067
X18.6982Y-4.1961
X18.7004Y-6.4011
X18.7106Y-3.6118
X18.7122Y-2.94
X18.713Y-4.6476
X18.713Y-4.8455
X18.7138Y-7.2963
X18.72Y-3.73
X18.72Y-5.77
X18.72Y-6.17
X18.72Y-6.56
X18.72Y-6.75
X18.73Y-5.11
X18.73Y-6.34
X18.73Y-6.95
X18.7307Y-4.4185
X18.7411Y-5.56
X18.75Y-5.71
X18.763Y-8.7316
X18.8094Y-5.6169
X18.8307Y-5.813
X18.8319Y-5.0433
X18.8327Y-8.1929
X18.8331Y-5.2382
X18.8335Y-2.8756
X18.8335Y-4.4535
X18.8339Y-8.3878
X18.8343Y-6.0252
X18.8343Y-7.6031
X18.8346Y-4.6476
X18.8346Y-7.0106
X18.835Y-3.0744
X18.835Y-4.2571
X18.8354Y-2.6681
X18.8354Y-4.8433
X18.8354Y-7.7972
X18.8358Y-6.224
X18.8358Y-7.4067
X18.8362Y-7.9929
X18.8366Y-5.4335
X18.837Y-6.8146
X18.8374Y-8.5831
X18.8378Y-4.0594
X18.8382Y-3.4697
X18.8386Y-7.2091
X18.839Y-6.6193
X18.8453Y-3.2732
X18.8461Y-6.4228
X18.8496Y-3.6432
X18.85Y-5.61
X18.8546Y-3.6823
X18.8546Y-3.8421
X18.8576Y-6.2568
X18.8704Y-7.7791
X18.89Y-8.75
T0
M30
