%TF.GenerationSoftware,KiCad,Pcbnew,7.0.2*%
%TF.CreationDate,2024-01-05T22:36:05+05:30*%
%TF.ProjectId,matrixleddisplay,6d617472-6978-46c6-9564-646973706c61,rev?*%
%TF.SameCoordinates,Original*%
%TF.FileFunction,Drillmap*%
%TF.FilePolarity,Positive*%
%FSLAX45Y45*%
G04 Gerber Fmt 4.5, Leading zero omitted, Abs format (unit mm)*
G04 Created by KiCad (PCBNEW 7.0.2) date 2024-01-05 22:36:05*
%MOMM*%
%LPD*%
G01*
G04 APERTURE LIST*
%ADD10C,0.100000*%
%ADD11C,0.200000*%
G04 APERTURE END LIST*
D10*
X8077200Y-6298416D02*
X48082200Y-6298416D01*
X48082200Y-22324837D01*
X8077200Y-22324837D01*
X8077200Y-6298416D01*
D11*
X8319819Y-22642361D02*
X8319819Y-22442361D01*
X8319819Y-22442361D02*
X8367438Y-22442361D01*
X8367438Y-22442361D02*
X8396010Y-22451885D01*
X8396010Y-22451885D02*
X8415057Y-22470932D01*
X8415057Y-22470932D02*
X8424581Y-22489980D01*
X8424581Y-22489980D02*
X8434105Y-22528075D01*
X8434105Y-22528075D02*
X8434105Y-22556647D01*
X8434105Y-22556647D02*
X8424581Y-22594742D01*
X8424581Y-22594742D02*
X8415057Y-22613789D01*
X8415057Y-22613789D02*
X8396010Y-22632837D01*
X8396010Y-22632837D02*
X8367438Y-22642361D01*
X8367438Y-22642361D02*
X8319819Y-22642361D01*
X8519819Y-22642361D02*
X8519819Y-22509028D01*
X8519819Y-22547123D02*
X8529343Y-22528075D01*
X8529343Y-22528075D02*
X8538867Y-22518551D01*
X8538867Y-22518551D02*
X8557914Y-22509028D01*
X8557914Y-22509028D02*
X8576962Y-22509028D01*
X8643629Y-22642361D02*
X8643629Y-22509028D01*
X8643629Y-22442361D02*
X8634105Y-22451885D01*
X8634105Y-22451885D02*
X8643629Y-22461409D01*
X8643629Y-22461409D02*
X8653152Y-22451885D01*
X8653152Y-22451885D02*
X8643629Y-22442361D01*
X8643629Y-22442361D02*
X8643629Y-22461409D01*
X8767438Y-22642361D02*
X8748390Y-22632837D01*
X8748390Y-22632837D02*
X8738867Y-22613789D01*
X8738867Y-22613789D02*
X8738867Y-22442361D01*
X8872200Y-22642361D02*
X8853152Y-22632837D01*
X8853152Y-22632837D02*
X8843629Y-22613789D01*
X8843629Y-22613789D02*
X8843629Y-22442361D01*
X9100771Y-22642361D02*
X9100771Y-22442361D01*
X9100771Y-22442361D02*
X9167438Y-22585218D01*
X9167438Y-22585218D02*
X9234105Y-22442361D01*
X9234105Y-22442361D02*
X9234105Y-22642361D01*
X9415057Y-22642361D02*
X9415057Y-22537599D01*
X9415057Y-22537599D02*
X9405533Y-22518551D01*
X9405533Y-22518551D02*
X9386486Y-22509028D01*
X9386486Y-22509028D02*
X9348390Y-22509028D01*
X9348390Y-22509028D02*
X9329343Y-22518551D01*
X9415057Y-22632837D02*
X9396010Y-22642361D01*
X9396010Y-22642361D02*
X9348390Y-22642361D01*
X9348390Y-22642361D02*
X9329343Y-22632837D01*
X9329343Y-22632837D02*
X9319819Y-22613789D01*
X9319819Y-22613789D02*
X9319819Y-22594742D01*
X9319819Y-22594742D02*
X9329343Y-22575694D01*
X9329343Y-22575694D02*
X9348390Y-22566170D01*
X9348390Y-22566170D02*
X9396010Y-22566170D01*
X9396010Y-22566170D02*
X9415057Y-22556647D01*
X9510295Y-22509028D02*
X9510295Y-22709028D01*
X9510295Y-22518551D02*
X9529343Y-22509028D01*
X9529343Y-22509028D02*
X9567438Y-22509028D01*
X9567438Y-22509028D02*
X9586486Y-22518551D01*
X9586486Y-22518551D02*
X9596010Y-22528075D01*
X9596010Y-22528075D02*
X9605533Y-22547123D01*
X9605533Y-22547123D02*
X9605533Y-22604266D01*
X9605533Y-22604266D02*
X9596010Y-22623313D01*
X9596010Y-22623313D02*
X9586486Y-22632837D01*
X9586486Y-22632837D02*
X9567438Y-22642361D01*
X9567438Y-22642361D02*
X9529343Y-22642361D01*
X9529343Y-22642361D02*
X9510295Y-22632837D01*
X9691248Y-22623313D02*
X9700771Y-22632837D01*
X9700771Y-22632837D02*
X9691248Y-22642361D01*
X9691248Y-22642361D02*
X9681724Y-22632837D01*
X9681724Y-22632837D02*
X9691248Y-22623313D01*
X9691248Y-22623313D02*
X9691248Y-22642361D01*
X9691248Y-22518551D02*
X9700771Y-22528075D01*
X9700771Y-22528075D02*
X9691248Y-22537599D01*
X9691248Y-22537599D02*
X9681724Y-22528075D01*
X9681724Y-22528075D02*
X9691248Y-22518551D01*
X9691248Y-22518551D02*
X9691248Y-22537599D01*
M02*
