*
*
G04 PADS VX.2.4 Build Number: 11282995 generated Gerber (RS-274-X) file*
G04 PC Version=2.1*
*
%IN "COUNT_WONDER_V1_0.pcb"*%
*
%MOIN*%
*
%FSLAX35Y35*%
*
*
*
*
G04 PC Standard Apertures*
*
*
G04 Thermal Relief Aperture macro.*
%AMTER*
1,1,$1,0,0*
1,0,$1-$2,0,0*
21,0,$3,$4,0,0,45*
21,0,$3,$4,0,0,135*
%
*
*
G04 Annular Aperture macro.*
%AMANN*
1,1,$1,0,0*
1,0,$2,0,0*
%
*
*
G04 Odd Aperture macro.*
%AMODD*
1,1,$1,0,0*
1,0,$1-0.005,0,0*
%
*
*
G04 PC Custom Aperture Macros*
*
*
*
*
*
*
G04 PC Aperture Table*
*
%ADD010C,0.001*%
%ADD028C,0.01*%
%ADD092C,0.006*%
%ADD104C,0.015*%
%ADD255C,0.12811*%
%ADD261R,0.13992X0.07378*%
%ADD294C,0.1478*%
%ADD295C,0.0789*%
%ADD296R,0.08874X0.07299*%
%ADD297O,0.08874X0.07299*%
%ADD298R,0.12811X0.12811*%
%ADD299C,0.22654*%
*
*
*
*
G04 PC Circuitry*
G04 Layer Name COUNT_WONDER_V1_0.pcb - circuitry*
%LPD*%
*
*
G04 PC Custom Flashes*
G04 Layer Name COUNT_WONDER_V1_0.pcb - flashes*
%LPD*%
*
*
G04 PC Circuitry*
G04 Layer Name COUNT_WONDER_V1_0.pcb - circuitry*
%LPD*%
*
G54D10*
G01X1493701Y100000D02*
X1493704D01*
X1493701Y533071D02*
X1493704D01*
X1485827D02*
X1485829D01*
X375591D02*
X375593D01*
G54D28*
X1524809Y318098D02*
X1525263Y318410D01*
X1525945Y319348*
Y312785*
X1527990Y318098D02*
X1528445Y318410D01*
X1529127Y319348*
Y312785*
X1532536Y319348D02*
X1531854Y319035D01*
X1531399Y318098*
X1531172Y316535*
Y315598*
X1531399Y314035*
X1531854Y313098*
X1532536Y312785*
X1532990*
X1533672Y313098*
X1534127Y314035*
X1534354Y315598*
Y316535*
X1534127Y318098*
X1533672Y319035*
X1532990Y319348*
X1532536*
X1536627Y313410D02*
X1536399Y313098D01*
X1536627Y312785*
X1536854Y313098*
X1536627Y313410*
X1540263Y319348D02*
X1539581Y319035D01*
X1539127Y318098*
X1538899Y316535*
Y315598*
X1539127Y314035*
X1539581Y313098*
X1540263Y312785*
X1540718*
X1541399Y313098*
X1541854Y314035*
X1542081Y315598*
Y316535*
X1541854Y318098*
X1541399Y319035*
X1540718Y319348*
X1540263*
X1544127Y317160D02*
Y312785D01*
Y315910D02*
X1544809Y316848D01*
X1545263Y317160*
X1545945*
X1546399Y316848*
X1546627Y315910*
Y312785*
Y315910D02*
X1547309Y316848D01*
X1547763Y317160*
X1548445*
X1548899Y316848*
X1549127Y315910*
Y312785*
X1551172Y317160D02*
Y312785D01*
Y315910D02*
X1551854Y316848D01*
X1552309Y317160*
X1552990*
X1553445Y316848*
X1553672Y315910*
Y312785*
Y315910D02*
X1554354Y316848D01*
X1554809Y317160*
X1555490*
X1555945Y316848*
X1556172Y315910*
Y312785*
X1519761Y154851D02*
X1526323Y156670D01*
X1519761Y158488D02*
X1526323Y156670D01*
X1527573Y160533D02*
Y165306D01*
X1521323Y170079D02*
X1520698Y169851D01*
X1520073Y169397*
X1519761Y168942*
Y168033*
X1520073Y167579*
X1520698Y167124*
X1521323Y166897*
X1522261Y166670*
X1523823*
X1524761Y166897*
X1525386Y167124*
X1526011Y167579*
X1526323Y168033*
Y168942*
X1526011Y169397*
X1525386Y169851*
X1524761Y170079*
X1523823*
Y168942D02*
Y170079D01*
X1519761Y172124D02*
X1526323D01*
X1519761D02*
Y174170D01*
X1520073Y174851*
X1520386Y175079*
X1521011Y175306*
X1521636*
X1522261Y175079*
X1522573Y174851*
X1522886Y174170*
Y172124*
Y173715D02*
X1526323Y175306D01*
X1519761Y178715D02*
X1520073Y178261D01*
X1520698Y177806*
X1521323Y177579*
X1522261Y177351*
X1523823*
X1524761Y177579*
X1525386Y177806*
X1526011Y178261*
X1526323Y178715*
Y179624*
X1526011Y180079*
X1525386Y180533*
X1524761Y180761*
X1523823Y180988*
X1522261*
X1521323Y180761*
X1520698Y180533*
X1520073Y180079*
X1519761Y179624*
Y178715*
Y184397D02*
X1520073Y183942D01*
X1520698Y183488*
X1521323Y183261*
X1522261Y183033*
X1523823*
X1524761Y183261*
X1525386Y183488*
X1526011Y183942*
X1526323Y184397*
Y185306*
X1526011Y185761*
X1525386Y186215*
X1524761Y186442*
X1523823Y186670*
X1522261*
X1521323Y186442*
X1520698Y186215*
X1520073Y185761*
X1519761Y185306*
Y184397*
Y188715D02*
X1526323Y190533D01*
X1519761Y192351D02*
X1526323Y190533D01*
X1519761Y194397D02*
X1526323D01*
X1519761D02*
Y197351D01*
X1522886Y194397D02*
Y196215D01*
X1526323Y194397D02*
Y197351D01*
X1475984Y82940D02*
X1477802Y76378D01*
X1479621Y82940D02*
X1477802Y76378D01*
X1481666Y75128D02*
X1486439D01*
X1491212Y81378D02*
X1490984Y82003D01*
X1490530Y82628*
X1490075Y82940*
X1489166*
X1488712Y82628*
X1488257Y82003*
X1488030Y81378*
X1487802Y80440*
Y78878*
X1488030Y77940*
X1488257Y77315*
X1488712Y76690*
X1489166Y76378*
X1490075*
X1490530Y76690*
X1490984Y77315*
X1491212Y77940*
Y78878*
X1490075D02*
X1491212D01*
X1493257Y82940D02*
Y76378D01*
Y82940D02*
X1495302D01*
X1495984Y82628*
X1496212Y82315*
X1496439Y81690*
Y81065*
X1496212Y80440*
X1495984Y80128*
X1495302Y79815*
X1493257*
X1494848D02*
X1496439Y76378D01*
X1499848Y82940D02*
X1499393Y82628D01*
X1498939Y82003*
X1498712Y81378*
X1498484Y80440*
Y78878*
X1498712Y77940*
X1498939Y77315*
X1499393Y76690*
X1499848Y76378*
X1500757*
X1501212Y76690*
X1501666Y77315*
X1501893Y77940*
X1502121Y78878*
Y80440*
X1501893Y81378*
X1501666Y82003*
X1501212Y82628*
X1500757Y82940*
X1499848*
X1505530D02*
X1505075Y82628D01*
X1504621Y82003*
X1504393Y81378*
X1504166Y80440*
Y78878*
X1504393Y77940*
X1504621Y77315*
X1505075Y76690*
X1505530Y76378*
X1506439*
X1506893Y76690*
X1507348Y77315*
X1507575Y77940*
X1507802Y78878*
Y80440*
X1507575Y81378*
X1507348Y82003*
X1506893Y82628*
X1506439Y82940*
X1505530*
X1509848D02*
X1511666Y76378D01*
X1513484Y82940D02*
X1511666Y76378D01*
X1515530Y82940D02*
Y76378D01*
Y82940D02*
X1518484D01*
X1515530Y79815D02*
X1517348D01*
X1515530Y76378D02*
X1518484D01*
X1409055Y82940D02*
X1410873Y76378D01*
X1412691Y82940D02*
X1410873Y76378D01*
X1414737Y75128D02*
X1419510D01*
X1424282Y81378D02*
X1424055Y82003D01*
X1423601Y82628*
X1423146Y82940*
X1422237*
X1421782Y82628*
X1421328Y82003*
X1421101Y81378*
X1420873Y80440*
Y78878*
X1421101Y77940*
X1421328Y77315*
X1421782Y76690*
X1422237Y76378*
X1423146*
X1423601Y76690*
X1424055Y77315*
X1424282Y77940*
Y78878*
X1423146D02*
X1424282D01*
X1426328Y82940D02*
Y76378D01*
Y82940D02*
X1428373D01*
X1429055Y82628*
X1429282Y82315*
X1429510Y81690*
Y81065*
X1429282Y80440*
X1429055Y80128*
X1428373Y79815*
X1426328*
X1427919D02*
X1429510Y76378D01*
X1432919Y82940D02*
X1432464Y82628D01*
X1432010Y82003*
X1431782Y81378*
X1431555Y80440*
Y78878*
X1431782Y77940*
X1432010Y77315*
X1432464Y76690*
X1432919Y76378*
X1433828*
X1434282Y76690*
X1434737Y77315*
X1434964Y77940*
X1435191Y78878*
Y80440*
X1434964Y81378*
X1434737Y82003*
X1434282Y82628*
X1433828Y82940*
X1432919*
X1438601D02*
X1438146Y82628D01*
X1437691Y82003*
X1437464Y81378*
X1437237Y80440*
Y78878*
X1437464Y77940*
X1437691Y77315*
X1438146Y76690*
X1438601Y76378*
X1439510*
X1439964Y76690*
X1440419Y77315*
X1440646Y77940*
X1440873Y78878*
Y80440*
X1440646Y81378*
X1440419Y82003*
X1439964Y82628*
X1439510Y82940*
X1438601*
X1442919D02*
X1444737Y76378D01*
X1446555Y82940D02*
X1444737Y76378D01*
X1448601Y82940D02*
Y76378D01*
Y82940D02*
X1451555D01*
X1448601Y79815D02*
X1450419D01*
X1448601Y76378D02*
X1451555D01*
X1519761Y241466D02*
X1526323Y243284D01*
X1519761Y245102D02*
X1526323Y243284D01*
X1527573Y247147D02*
Y251920D01*
X1521323Y256693D02*
X1520698Y256466D01*
X1520073Y256011*
X1519761Y255557*
Y254647*
X1520073Y254193*
X1520698Y253738*
X1521323Y253511*
X1522261Y253284*
X1523823*
X1524761Y253511*
X1525386Y253738*
X1526011Y254193*
X1526323Y254647*
Y255557*
X1526011Y256011*
X1525386Y256466*
X1524761Y256693*
X1523823*
Y255557D02*
Y256693D01*
X1519761Y258738D02*
X1526323D01*
X1519761D02*
Y260784D01*
X1520073Y261466*
X1520386Y261693*
X1521011Y261920*
X1521636*
X1522261Y261693*
X1522573Y261466*
X1522886Y260784*
Y258738*
Y260329D02*
X1526323Y261920D01*
X1519761Y265329D02*
X1520073Y264875D01*
X1520698Y264420*
X1521323Y264193*
X1522261Y263966*
X1523823*
X1524761Y264193*
X1525386Y264420*
X1526011Y264875*
X1526323Y265329*
Y266238*
X1526011Y266693*
X1525386Y267147*
X1524761Y267375*
X1523823Y267602*
X1522261*
X1521323Y267375*
X1520698Y267147*
X1520073Y266693*
X1519761Y266238*
Y265329*
Y271011D02*
X1520073Y270557D01*
X1520698Y270102*
X1521323Y269875*
X1522261Y269647*
X1523823*
X1524761Y269875*
X1525386Y270102*
X1526011Y270557*
X1526323Y271011*
Y271920*
X1526011Y272375*
X1525386Y272829*
X1524761Y273057*
X1523823Y273284*
X1522261*
X1521323Y273057*
X1520698Y272829*
X1520073Y272375*
X1519761Y271920*
Y271011*
Y275329D02*
X1526323Y277147D01*
X1519761Y278966D02*
X1526323Y277147D01*
X1519761Y281011D02*
X1526323D01*
X1519761D02*
Y283966D01*
X1522886Y281011D02*
Y282829D01*
X1526323Y281011D02*
Y283966D01*
X1519761Y328080D02*
X1526323Y329898D01*
X1519761Y331716D02*
X1526323Y329898D01*
X1527573Y333762D02*
Y338534D01*
X1521323Y343307D02*
X1520698Y343080D01*
X1520073Y342625*
X1519761Y342171*
Y341262*
X1520073Y340807*
X1520698Y340353*
X1521323Y340125*
X1522261Y339898*
X1523823*
X1524761Y340125*
X1525386Y340353*
X1526011Y340807*
X1526323Y341262*
Y342171*
X1526011Y342625*
X1525386Y343080*
X1524761Y343307*
X1523823*
Y342171D02*
Y343307D01*
X1519761Y345353D02*
X1526323D01*
X1519761D02*
Y347398D01*
X1520073Y348080*
X1520386Y348307*
X1521011Y348534*
X1521636*
X1522261Y348307*
X1522573Y348080*
X1522886Y347398*
Y345353*
Y346943D02*
X1526323Y348534D01*
X1519761Y351943D02*
X1520073Y351489D01*
X1520698Y351034*
X1521323Y350807*
X1522261Y350580*
X1523823*
X1524761Y350807*
X1525386Y351034*
X1526011Y351489*
X1526323Y351943*
Y352853*
X1526011Y353307*
X1525386Y353762*
X1524761Y353989*
X1523823Y354216*
X1522261*
X1521323Y353989*
X1520698Y353762*
X1520073Y353307*
X1519761Y352853*
Y351943*
Y357625D02*
X1520073Y357171D01*
X1520698Y356716*
X1521323Y356489*
X1522261Y356262*
X1523823*
X1524761Y356489*
X1525386Y356716*
X1526011Y357171*
X1526323Y357625*
Y358534*
X1526011Y358989*
X1525386Y359443*
X1524761Y359671*
X1523823Y359898*
X1522261*
X1521323Y359671*
X1520698Y359443*
X1520073Y358989*
X1519761Y358534*
Y357625*
Y361943D02*
X1526323Y363762D01*
X1519761Y365580D02*
X1526323Y363762D01*
X1519761Y367625D02*
X1526323D01*
X1519761D02*
Y370580D01*
X1522886Y367625D02*
Y369443D01*
X1526323Y367625D02*
Y370580D01*
X1519761Y414694D02*
X1526323Y416512D01*
X1519761Y418330D02*
X1526323Y416512D01*
X1527573Y420376D02*
Y425149D01*
X1521323Y429921D02*
X1520698Y429694D01*
X1520073Y429239*
X1519761Y428785*
Y427876*
X1520073Y427421*
X1520698Y426967*
X1521323Y426739*
X1522261Y426512*
X1523823*
X1524761Y426739*
X1525386Y426967*
X1526011Y427421*
X1526323Y427876*
Y428785*
X1526011Y429239*
X1525386Y429694*
X1524761Y429921*
X1523823*
Y428785D02*
Y429921D01*
X1519761Y431967D02*
X1526323D01*
X1519761D02*
Y434012D01*
X1520073Y434694*
X1520386Y434921*
X1521011Y435149*
X1521636*
X1522261Y434921*
X1522573Y434694*
X1522886Y434012*
Y431967*
Y433558D02*
X1526323Y435149D01*
X1519761Y438558D02*
X1520073Y438103D01*
X1520698Y437649*
X1521323Y437421*
X1522261Y437194*
X1523823*
X1524761Y437421*
X1525386Y437649*
X1526011Y438103*
X1526323Y438558*
Y439467*
X1526011Y439921*
X1525386Y440376*
X1524761Y440603*
X1523823Y440830*
X1522261*
X1521323Y440603*
X1520698Y440376*
X1520073Y439921*
X1519761Y439467*
Y438558*
Y444239D02*
X1520073Y443785D01*
X1520698Y443330*
X1521323Y443103*
X1522261Y442876*
X1523823*
X1524761Y443103*
X1525386Y443330*
X1526011Y443785*
X1526323Y444239*
Y445149*
X1526011Y445603*
X1525386Y446058*
X1524761Y446285*
X1523823Y446512*
X1522261*
X1521323Y446285*
X1520698Y446058*
X1520073Y445603*
X1519761Y445149*
Y444239*
Y448558D02*
X1526323Y450376D01*
X1519761Y452194D02*
X1526323Y450376D01*
X1519761Y454239D02*
X1526323D01*
X1519761D02*
Y457194D01*
X1522886Y454239D02*
Y456058D01*
X1526323Y454239D02*
Y457194D01*
X912754Y548100D02*
Y548413D01*
X912981Y549038*
X913209Y549350*
X913663Y549663*
X914572*
X915027Y549350*
X915254Y549038*
X915481Y548413*
Y547788*
X915254Y547163*
X914800Y546225*
X912527Y543100*
X915709*
X918890Y549663D02*
X918209Y549350D01*
X917981Y548725*
Y548100*
X918209Y547475*
X918663Y547163*
X919572Y546850*
X920254Y546538*
X920709Y545913*
X920936Y545288*
Y544350*
X920709Y543725*
X920481Y543413*
X919800Y543100*
X918890*
X918209Y543413*
X917981Y543725*
X917754Y544350*
Y545288*
X917981Y545913*
X918436Y546538*
X919118Y546850*
X920027Y547163*
X920481Y547475*
X920709Y548100*
Y548725*
X920481Y549350*
X919800Y549663*
X918890*
X923209Y548100D02*
Y548413D01*
X923436Y549038*
X923663Y549350*
X924118Y549663*
X925027*
X925481Y549350*
X925709Y549038*
X925936Y548413*
Y547788*
X925709Y547163*
X925254Y546225*
X922981Y543100*
X926163*
X928436Y543725D02*
X928209Y543413D01*
X928436Y543100*
X928663Y543413*
X928436Y543725*
X932072Y549663D02*
X931390Y549350D01*
X930936Y548413*
X930709Y546850*
Y545913*
X930936Y544350*
X931390Y543413*
X932072Y543100*
X932527*
X933209Y543413*
X933663Y544350*
X933890Y545913*
Y546850*
X933663Y548413*
X933209Y549350*
X932527Y549663*
X932072*
X935936Y547475D02*
Y543100D01*
Y546225D02*
X936618Y547163D01*
X937072Y547475*
X937754*
X938209Y547163*
X938436Y546225*
Y543100*
Y546225D02*
X939118Y547163D01*
X939572Y547475*
X940254*
X940709Y547163*
X940936Y546225*
Y543100*
X942981Y547475D02*
Y543100D01*
Y546225D02*
X943663Y547163D01*
X944118Y547475*
X944800*
X945254Y547163*
X945481Y546225*
Y543100*
Y546225D02*
X946163Y547163D01*
X946618Y547475*
X947300*
X947754Y547163*
X947981Y546225*
Y543100*
X1540945Y100000D02*
Y309785D01*
Y100000D02*
X1538445Y110000D01*
X1543445*
X1540945Y100000*
Y533071D02*
Y323285D01*
Y533071D02*
X1543445Y523071D01*
X1538445*
X1540945Y533071*
X1498701Y100000D02*
X1545945D01*
X1498701Y533071D02*
X1545945D01*
X1494827Y186348D02*
X1505698Y175476D01*
X1506638Y174537*
X1494827Y186348D02*
X1503666Y181044D01*
X1500130Y177509*
X1494827Y186348*
X1506638Y174537D02*
X1516638D01*
X1458268Y98031D02*
X1469139Y87160D01*
X1470079Y86220*
X1458268Y98031D02*
X1467107Y92728D01*
X1463571Y89193*
X1458268Y98031*
X1470079Y86220D02*
X1480079D01*
X1430709Y98031D02*
X1441580Y87160D01*
X1442520Y86220*
X1430709Y98031D02*
X1439547Y92728D01*
X1436012Y89193*
X1430709Y98031*
X1442520Y86220D02*
X1452520D01*
X1494827Y272962D02*
X1505698Y262090D01*
X1506638Y261151*
X1494827Y272962D02*
X1503666Y267658D01*
X1500130Y264123*
X1494827Y272962*
X1506638Y261151D02*
X1516638D01*
X1494827Y359576D02*
X1505698Y348704D01*
X1506638Y347765*
X1494827Y359576D02*
X1503666Y354273D01*
X1500130Y350737*
X1494827Y359576*
X1506638Y347765D02*
X1516638D01*
X1494827Y446190D02*
X1505698Y435319D01*
X1506638Y434379*
X1494827Y446190D02*
X1503666Y440887D01*
X1500130Y437351*
X1494827Y446190*
X1506638Y434379D02*
X1516638D01*
X1485827Y546850D02*
X951890D01*
X1485827D02*
X1475827Y544350D01*
Y549350*
X1485827Y546850*
X375591D02*
X909527D01*
X375591D02*
X385591Y549350D01*
Y544350*
X375591Y546850*
X1485827Y538071D02*
Y551850D01*
X375591Y538071D02*
Y551850D01*
G54D92*
Y100000D02*
X1485827D01*
Y533071*
X375591*
Y100000*
X1430709D02*
Y533071D01*
X1458268Y100000D02*
Y533071D01*
X1430709Y186614D02*
X1493701D01*
X1430709Y273228D02*
X1493701D01*
X1430709Y359843D02*
X1493701D01*
X1430709Y446457D02*
X1493701D01*
X1458268Y186614D02*
X1521260D01*
X1458268Y273228D02*
X1521260D01*
X1458268Y359843D02*
X1521260D01*
X1458268Y446457D02*
X1521260D01*
G54D104*
X451457Y612144D02*
Y602300D01*
Y612144D02*
X454525D01*
X455548Y611675*
X455889Y611206*
X456229Y610269*
Y608863*
X456229D02*
X455889Y607925D01*
X455548Y607456*
X454525Y606988*
X454525D02*
X451457D01*
X464411Y609800D02*
X464070Y610738D01*
X464070D02*
X463389Y611675D01*
X462707Y612144*
X461343*
X460661Y611675*
X459979Y610738*
X459979D02*
X459639Y609800D01*
X459298Y608394*
Y606050*
X459639Y604644*
X459979Y603706*
X460661Y602769*
X461343Y602300*
X462707*
X463389Y602769*
X464070Y603706*
X464411Y604644*
X467479Y612144D02*
Y602300D01*
Y612144D02*
X470548D01*
X471570Y611675*
X471911Y611206*
X472252Y610269*
Y609331*
X471911Y608394*
X471570Y607925*
X470548Y607456*
X467479D02*
X470548D01*
X471570Y606988*
X471570D02*
X471911Y606519D01*
X472252Y605581*
Y604175*
X471911Y603238*
X471911D02*
X471570Y602769D01*
X470548Y602300*
X467479*
X483161Y612144D02*
Y602300D01*
Y612144D02*
X487934Y602300D01*
Y612144D02*
Y602300D01*
X493729Y612144D02*
X491002Y602300D01*
X493729Y612144D02*
X496457Y602300D01*
X492025Y605581D02*
X495434D01*
X499525Y612144D02*
Y602300D01*
Y612144D02*
X502252Y602300D01*
X504979Y612144D02*
X502252Y602300D01*
X504979Y612144D02*
Y602300D01*
X508048Y612144D02*
Y602300D01*
Y612144D02*
X512479D01*
X508048Y607456D02*
X510775D01*
X508048Y602300D02*
X512479D01*
X523389Y607925D02*
X529525D01*
X523389Y605113D02*
X529525D01*
X540434Y612144D02*
Y602300D01*
Y612144D02*
X544866D01*
X540434Y607456D02*
X543161D01*
X540434Y602300D02*
X544866D01*
X547934Y612144D02*
Y602300D01*
Y612144D02*
X552707Y602300D01*
Y612144D02*
Y602300D01*
X563616Y612144D02*
Y602300D01*
Y612144D02*
X566002D01*
X567025Y611675*
X567707Y610738*
X567707D02*
X568048Y609800D01*
X568389Y608394*
Y606050*
X568048Y604644*
X567707Y603706*
X567025Y602769*
X566002Y602300*
X563616*
X571457Y612144D02*
Y602300D01*
Y612144D02*
X575889D01*
X571457Y607456D02*
X574184D01*
X571457Y602300D02*
X575889D01*
X578957Y612144D02*
Y602300D01*
Y612144D02*
X581684Y602300D01*
X584411Y612144D02*
X581684Y602300D01*
X584411Y612144D02*
Y602300D01*
X589525Y612144D02*
X588843Y611675D01*
X588161Y610738*
X588161D02*
X587820Y609800D01*
X587479Y608394*
Y606050*
X587820Y604644*
X588161Y603706*
X588843Y602769*
X589525Y602300*
X590889*
X591570Y602769*
X592252Y603706*
X592593Y604644*
X592934Y606050*
Y608394*
X592593Y609800*
X592252Y610738*
X592252D02*
X591570Y611675D01*
X590889Y612144*
X589525*
X600775Y610738D02*
X600093Y611675D01*
X599070Y612144*
X597707*
X596684Y611675*
X596002Y610738*
X596002D02*
Y609800D01*
X596343Y608863*
X596343D02*
X596684Y608394D01*
X597366Y607925*
X599411Y606988*
X599411D02*
X600093Y606519D01*
X600434Y606050*
X600775Y605113*
X600775D02*
Y603706D01*
X600093Y602769*
X599070Y602300*
X597707*
X596684Y602769*
X596002Y603706*
X616798Y609800D02*
X616457Y610738D01*
X616457D02*
X615775Y611675D01*
X615093Y612144*
X613729*
X613048Y611675*
X612366Y610738*
X612366D02*
X612025Y609800D01*
X611684Y608394*
Y606050*
X612025Y604644*
X612366Y603706*
X613048Y602769*
X613729Y602300*
X615093*
X615775Y602769*
X616457Y603706*
X616798Y604644*
X621911Y612144D02*
X621229Y611675D01*
X620548Y610738*
X620548D02*
X620207Y609800D01*
X619866Y608394*
Y606050*
X620207Y604644*
X620548Y603706*
X621229Y602769*
X621911Y602300*
X623275*
X623957Y602769*
X624639Y603706*
X624979Y604644*
X625320Y606050*
Y608394*
X624979Y609800*
X624639Y610738*
X624639D02*
X623957Y611675D01*
X623275Y612144*
X621911*
X628389D02*
Y602300D01*
Y612144D02*
X633161Y602300D01*
Y612144D02*
Y602300D01*
X636229Y612144D02*
Y602300D01*
Y612144D02*
X641002Y602300D01*
Y612144D02*
Y602300D01*
X644070Y612144D02*
Y602300D01*
Y612144D02*
X648502D01*
X644070Y607456D02*
X646798D01*
X644070Y602300D02*
X648502D01*
X656684Y609800D02*
X656343Y610738D01*
X656343D02*
X655661Y611675D01*
X654979Y612144*
X653616*
X652934Y611675*
X652252Y610738*
X652252D02*
X651911Y609800D01*
X651570Y608394*
Y606050*
X651911Y604644*
X652252Y603706*
X652934Y602769*
X653616Y602300*
X654979*
X655661Y602769*
X656343Y603706*
X656684Y604644*
X662139Y612144D02*
Y602300D01*
X659752Y612144D02*
X664525D01*
X669639D02*
X668957Y611675D01*
X668275Y610738*
X668275D02*
X667934Y609800D01*
X667593Y608394*
Y606050*
X667934Y604644*
X668275Y603706*
X668957Y602769*
X669639Y602300*
X671002*
X671684Y602769*
X672366Y603706*
X672707Y604644*
X673048Y606050*
Y608394*
X672707Y609800*
X672366Y610738*
X672366D02*
X671684Y611675D01*
X671002Y612144*
X669639*
X676116D02*
Y602300D01*
Y612144D02*
X679184D01*
X680207Y611675*
X680548Y611206*
X680889Y610269*
Y609331*
X680548Y608394*
X680207Y607925*
X679184Y607456*
X676116*
X678502D02*
X680889Y602300D01*
X691798Y612144D02*
Y602300D01*
Y612144D02*
X694866D01*
X695889Y611675*
X696229Y611206*
X696570Y610269*
Y608863*
X696570D02*
X696229Y607925D01*
X695889Y607456*
X694866Y606988*
X694866D02*
X691798D01*
X704752Y609800D02*
X704411Y610738D01*
X704411D02*
X703729Y611675D01*
X703048Y612144*
X701684*
X701002Y611675*
X700320Y610738*
X700320D02*
X699979Y609800D01*
X699639Y608394*
Y606050*
X699979Y604644*
X700320Y603706*
X701002Y602769*
X701684Y602300*
X703048*
X703729Y602769*
X704411Y603706*
X704752Y604644*
X707820Y612144D02*
Y602300D01*
Y612144D02*
X710889D01*
X711911Y611675*
X712252Y611206*
X712593Y610269*
Y609331*
X712252Y608394*
X711911Y607925*
X710889Y607456*
X707820D02*
X710889D01*
X711911Y606988*
X711911D02*
X712252Y606519D01*
X712593Y605581*
Y604175*
X712252Y603238*
X712252D02*
X711911Y602769D01*
X710889Y602300*
X707820*
X715661Y600425D02*
X722820D01*
X724866Y612144D02*
X727593Y602300D01*
X730320Y612144D02*
X727593Y602300D01*
X733389Y610269D02*
X734070Y610738D01*
X734070D02*
X735093Y612144D01*
Y602300*
X738161Y600425D02*
X745320D01*
X747366Y610269D02*
X748048Y610738D01*
X748048D02*
X749070Y612144D01*
Y602300*
X451457Y592144D02*
Y582300D01*
Y592144D02*
X454525D01*
X455548Y591675*
X455889Y591206*
X456229Y590269*
Y588863*
X456229D02*
X455889Y587925D01*
X455548Y587456*
X454525Y586988*
X454525D02*
X451457D01*
X464411Y589800D02*
X464070Y590738D01*
X464070D02*
X463389Y591675D01*
X462707Y592144*
X461343*
X460661Y591675*
X459979Y590738*
X459979D02*
X459639Y589800D01*
X459298Y588394*
Y586050*
X459639Y584644*
X459979Y583706*
X460661Y582769*
X461343Y582300*
X462707*
X463389Y582769*
X464070Y583706*
X464411Y584644*
X467479Y592144D02*
Y582300D01*
Y592144D02*
X470548D01*
X471570Y591675*
X471911Y591206*
X472252Y590269*
Y589331*
X471911Y588394*
X471570Y587925*
X470548Y587456*
X467479D02*
X470548D01*
X471570Y586988*
X471570D02*
X471911Y586519D01*
X472252Y585581*
Y584175*
X471911Y583238*
X471911D02*
X471570Y582769D01*
X470548Y582300*
X467479*
X485548Y592144D02*
Y582300D01*
X483161Y592144D02*
X487934D01*
X491002D02*
X493729Y587456D01*
Y582300*
X496457Y592144D02*
X493729Y587456D01*
X499525Y592144D02*
Y582300D01*
Y592144D02*
X502593D01*
X503616Y591675*
X503957Y591206*
X504298Y590269*
Y588863*
X504298D02*
X503957Y587925D01*
X503616Y587456*
X502593Y586988*
X502593D02*
X499525D01*
X507366Y592144D02*
Y582300D01*
Y592144D02*
X511798D01*
X507366Y587456D02*
X510093D01*
X507366Y582300D02*
X511798D01*
X522707Y587925D02*
X528843D01*
X522707Y585113D02*
X528843D01*
X540093Y589800D02*
Y590269D01*
X540434Y591206*
X540775Y591675*
X541457Y592144*
X542820*
X543502Y591675*
X543843Y591206*
X544184Y590269*
Y589331*
X543843Y588394*
X543161Y586988*
X543161D02*
X539752Y582300D01*
X544525*
X555434Y592144D02*
Y582300D01*
X559525*
X565320Y592144D02*
X562593Y582300D01*
X565320Y592144D02*
X568048Y582300D01*
X563616Y585581D02*
X567025D01*
X571116Y592144D02*
X573843Y587456D01*
Y582300*
X576570Y592144D02*
X573843Y587456D01*
X579639Y592144D02*
Y582300D01*
Y592144D02*
X584070D01*
X579639Y587456D02*
X582366D01*
X579639Y582300D02*
X584070D01*
X587139Y592144D02*
Y582300D01*
Y592144D02*
X590207D01*
X591229Y591675*
X591570Y591206*
X591911Y590269*
Y589331*
X591570Y588394*
X591229Y587925*
X590207Y587456*
X587139*
X589525D02*
X591911Y582300D01*
X599752Y590738D02*
X599070Y591675D01*
X598048Y592144*
X596684*
X595661Y591675*
X594979Y590738*
X594979D02*
Y589800D01*
X595320Y588863*
X595320D02*
X595661Y588394D01*
X596343Y587925*
X598389Y586988*
X598389D02*
X599070Y586519D01*
X599411Y586050*
X599752Y585113*
X599752D02*
Y583706D01*
X599070Y582769*
X598048Y582300*
X596684*
X595661Y582769*
X594979Y583706*
X610661Y592144D02*
Y582300D01*
Y592144D02*
X613729D01*
X614752Y591675*
X615093Y591206*
X615434Y590269*
Y588863*
X615434D02*
X615093Y587925D01*
X614752Y587456*
X613729Y586988*
X613729D02*
X610661D01*
X620889Y592144D02*
Y582300D01*
X618502Y592144D02*
X623275D01*
X626343D02*
Y582300D01*
X631116Y592144D02*
Y582300D01*
X626343Y587456D02*
X631116D01*
X451457Y574644D02*
Y564800D01*
Y574644D02*
X454525D01*
X455548Y574175*
X455889Y573706*
X456229Y572769*
Y571363*
X456229D02*
X455889Y570425D01*
X455548Y569956*
X454525Y569488*
X454525D02*
X451457D01*
X464411Y572300D02*
X464070Y573238D01*
X464070D02*
X463389Y574175D01*
X462707Y574644*
X461343*
X460661Y574175*
X459979Y573238*
X459979D02*
X459639Y572300D01*
X459298Y570894*
Y568550*
X459639Y567144*
X459979Y566206*
X460661Y565269*
X461343Y564800*
X462707*
X463389Y565269*
X464070Y566206*
X464411Y567144*
X467479Y574644D02*
Y564800D01*
Y574644D02*
X470548D01*
X471570Y574175*
X471911Y573706*
X472252Y572769*
Y571831*
X471911Y570894*
X471570Y570425*
X470548Y569956*
X467479D02*
X470548D01*
X471570Y569488*
X471570D02*
X471911Y569019D01*
X472252Y568081*
Y566675*
X471911Y565738*
X471911D02*
X471570Y565269D01*
X470548Y564800*
X467479*
X485548Y574644D02*
Y564800D01*
X483161Y574644D02*
X487934D01*
X491002D02*
Y564800D01*
X495775Y574644D02*
Y564800D01*
X491002Y569956D02*
X495775D01*
X498843Y574644D02*
Y564800D01*
X507025Y572300D02*
X506684Y573238D01*
X506684D02*
X506002Y574175D01*
X505320Y574644*
X503957*
X503275Y574175*
X502593Y573238*
X502593D02*
X502252Y572300D01*
X501911Y570894*
Y568550*
X502252Y567144*
X502593Y566206*
X503275Y565269*
X503957Y564800*
X505320*
X506002Y565269*
X506684Y566206*
X507025Y567144*
X510093Y574644D02*
Y564800D01*
X514866Y574644D02*
X510093Y568081D01*
X511798Y570425D02*
X514866Y564800D01*
X517934Y574644D02*
Y564800D01*
Y574644D02*
X522707Y564800D01*
Y574644D02*
Y564800D01*
X525775Y574644D02*
Y564800D01*
Y574644D02*
X530207D01*
X525775Y569956D02*
X528502D01*
X525775Y564800D02*
X530207D01*
X538048Y573238D02*
X537366Y574175D01*
X536343Y574644*
X534979*
X533957Y574175*
X533275Y573238*
X533275D02*
Y572300D01*
X533616Y571363*
X533616D02*
X533957Y570894D01*
X534639Y570425*
X536684Y569488*
X536684D02*
X537366Y569019D01*
X537707Y568550*
X538048Y567613*
X538048D02*
Y566206D01*
X537366Y565269*
X536343Y564800*
X534979*
X533957Y565269*
X533275Y566206*
X545889Y573238D02*
X545207Y574175D01*
X544184Y574644*
X542820*
X541798Y574175*
X541116Y573238*
X541116D02*
Y572300D01*
X541457Y571363*
X541457D02*
X541798Y570894D01*
X542479Y570425*
X544525Y569488*
X544525D02*
X545207Y569019D01*
X545548Y568550*
X545889Y567613*
X545889D02*
Y566206D01*
X545207Y565269*
X544184Y564800*
X542820*
X541798Y565269*
X541116Y566206*
X556798Y570425D02*
X562934D01*
X556798Y567613D02*
X562934D01*
X573843Y572769D02*
X574525Y573238D01*
X574525D02*
X575548Y574644D01*
Y564800*
X578957Y565738D02*
X578616Y565269D01*
X578957Y564800*
X579298Y565269*
X578957Y565738*
X586457Y573238D02*
X586116Y574175D01*
X585093Y574644*
X584411*
X583389Y574175*
X582707Y572769*
X582366Y570425*
Y568081*
X582707Y566206*
X583389Y565269*
X584411Y564800*
X584752*
X585775Y565269*
X586457Y566206*
X586798Y567613*
X586798D02*
Y568081D01*
X586457Y569488*
X586457D02*
X585775Y570425D01*
X584752Y570894*
X584411*
X583389Y570425*
X582707Y569488*
X582707D02*
X582366Y568081D01*
X589866Y574644D02*
Y564800D01*
Y574644D02*
X592593Y564800D01*
X595320Y574644D02*
X592593Y564800D01*
X595320Y574644D02*
Y564800D01*
X598389Y574644D02*
Y564800D01*
Y574644D02*
X601116Y564800D01*
X603843Y574644D02*
X601116Y564800D01*
X603843Y574644D02*
Y564800D01*
X201843Y432167D02*
Y422323D01*
X199457Y432167D02*
X204229D01*
X209343D02*
X208661Y431698D01*
X207979Y430760*
X207639Y429823*
X207298Y428417*
Y426073*
X207639Y424667*
X207979Y423729*
X208661Y422792*
X209343Y422323*
X210707*
X211389Y422792*
X212070Y423729*
X212411Y424667*
X212752Y426073*
Y428417*
X212411Y429823*
X212070Y430760*
X211389Y431698*
X210707Y432167*
X209343*
X215820D02*
Y422323D01*
Y432167D02*
X218889D01*
X219911Y431698*
X220252Y431229*
X220593Y430292*
Y428885*
X220252Y427948*
X219911Y427479*
X218889Y427010*
X215820*
X236275Y430760D02*
X235593Y431698D01*
X234570Y432167*
X233207*
X232184Y431698*
X231502Y430760*
Y429823*
X231843Y428885*
X232184Y428417*
X232866Y427948*
X234911Y427010*
X235593Y426542*
X235934Y426073*
X236275Y425135*
Y423729*
X235593Y422792*
X234570Y422323*
X233207*
X232184Y422792*
X231502Y423729*
X239343Y432167D02*
Y422323D01*
X242411Y432167D02*
Y422323D01*
Y432167D02*
X244798D01*
X245820Y431698*
X246502Y430760*
X246843Y429823*
X247184Y428417*
Y426073*
X246843Y424667*
X246502Y423729*
X245820Y422792*
X244798Y422323*
X242411*
X250252Y432167D02*
Y422323D01*
Y432167D02*
X254684D01*
X250252Y427479D02*
X252979D01*
X250252Y422323D02*
X254684D01*
X265593Y432167D02*
Y422323D01*
Y432167D02*
X268320Y422323D01*
X271048Y432167D02*
X268320Y422323D01*
X271048Y432167D02*
Y422323D01*
X276843Y432167D02*
X274116Y422323D01*
X276843Y432167D02*
X279570Y422323D01*
X275139Y425604D02*
X278548D01*
X287411Y430760D02*
X286729Y431698D01*
X285707Y432167*
X284343*
X283320Y431698*
X282639Y430760*
Y429823*
X282979Y428885*
X283320Y428417*
X284002Y427948*
X286048Y427010*
X286729Y426542*
X287070Y426073*
X287411Y425135*
Y423729*
X286729Y422792*
X285707Y422323*
X284343*
X283320Y422792*
X282639Y423729*
X290479Y432167D02*
Y422323D01*
X295252Y432167D02*
X290479Y425604D01*
X292184Y427948D02*
X295252Y422323D01*
G54D255*
X1359299Y214173D03*
X1162449D03*
X1142449D03*
X1122449D03*
X1260874D03*
G54D261*
X1444488Y156299D03*
Y130315D03*
Y242913D03*
Y216929D03*
Y329528D03*
Y303543D03*
Y416142D03*
Y390157D03*
Y502756D03*
Y476772D03*
X1472047Y156299D03*
Y130315D03*
Y242913D03*
Y216929D03*
Y329528D03*
Y303543D03*
Y416142D03*
Y390157D03*
Y502756D03*
Y476772D03*
G54D294*
X409457Y470472D03*
Y273228D03*
X529457Y470472D03*
Y273228D03*
X769457Y470472D03*
Y273228D03*
X889457Y470472D03*
Y273228D03*
X1009457Y470472D03*
Y273228D03*
X1129457Y470472D03*
Y273228D03*
X1249457Y470472D03*
Y273228D03*
X1369457Y470472D03*
Y273228D03*
X649457Y470472D03*
Y273228D03*
G54D295*
X891457Y517300D03*
X1371457D03*
X1251457D03*
X1131457D03*
X1011457D03*
X771457D03*
X651457D03*
X531457D03*
X1371457Y116000D03*
X1251457D03*
X1131457D03*
X1011457D03*
X891457D03*
X771457D03*
X651457D03*
X531457D03*
X411457D03*
Y517300D03*
G54D296*
X419457Y446850D03*
X539457D03*
X779457D03*
X899457D03*
X1019457D03*
X1139457D03*
X1259457D03*
X1379457D03*
X659457D03*
G54D297*
X419457Y436850D03*
Y426850D03*
Y416850D03*
Y406850D03*
Y396850D03*
Y386850D03*
Y376850D03*
Y366850D03*
Y356850D03*
Y346850D03*
Y336850D03*
Y326850D03*
Y316850D03*
Y306850D03*
Y296850D03*
X399457Y446850D03*
Y436850D03*
Y426850D03*
Y416850D03*
Y406850D03*
Y396850D03*
Y386850D03*
Y376850D03*
Y366850D03*
Y356850D03*
Y346850D03*
Y336850D03*
Y326850D03*
Y316850D03*
Y306850D03*
Y296850D03*
X539457Y436850D03*
Y426850D03*
Y416850D03*
Y406850D03*
Y396850D03*
Y386850D03*
Y376850D03*
Y366850D03*
Y356850D03*
Y346850D03*
Y336850D03*
Y326850D03*
Y316850D03*
Y306850D03*
Y296850D03*
X519457Y446850D03*
Y436850D03*
Y426850D03*
Y416850D03*
Y406850D03*
Y396850D03*
Y386850D03*
Y376850D03*
Y366850D03*
Y356850D03*
Y346850D03*
Y336850D03*
Y326850D03*
Y316850D03*
Y306850D03*
Y296850D03*
X779457Y436850D03*
Y426850D03*
Y416850D03*
Y406850D03*
Y396850D03*
Y386850D03*
Y376850D03*
Y366850D03*
Y356850D03*
Y346850D03*
Y336850D03*
Y326850D03*
Y316850D03*
Y306850D03*
Y296850D03*
X759457Y446850D03*
Y436850D03*
Y426850D03*
Y416850D03*
Y406850D03*
Y396850D03*
Y386850D03*
Y376850D03*
Y366850D03*
Y356850D03*
Y346850D03*
Y336850D03*
Y326850D03*
Y316850D03*
Y306850D03*
Y296850D03*
X899457Y436850D03*
Y426850D03*
Y416850D03*
Y406850D03*
Y396850D03*
Y386850D03*
Y376850D03*
Y366850D03*
Y356850D03*
Y346850D03*
Y336850D03*
Y326850D03*
Y316850D03*
Y306850D03*
Y296850D03*
X879457Y446850D03*
Y436850D03*
Y426850D03*
Y416850D03*
Y406850D03*
Y396850D03*
Y386850D03*
Y376850D03*
Y366850D03*
Y356850D03*
Y346850D03*
Y336850D03*
Y326850D03*
Y316850D03*
Y306850D03*
Y296850D03*
X1019457Y436850D03*
Y426850D03*
Y416850D03*
Y406850D03*
Y396850D03*
Y386850D03*
Y376850D03*
Y366850D03*
Y356850D03*
Y346850D03*
Y336850D03*
Y326850D03*
Y316850D03*
Y306850D03*
Y296850D03*
X999457Y446850D03*
Y436850D03*
Y426850D03*
Y416850D03*
Y406850D03*
Y396850D03*
Y386850D03*
Y376850D03*
Y366850D03*
Y356850D03*
Y346850D03*
Y336850D03*
Y326850D03*
Y316850D03*
Y306850D03*
Y296850D03*
X1139457Y436850D03*
Y426850D03*
Y416850D03*
Y406850D03*
Y396850D03*
Y386850D03*
Y376850D03*
Y366850D03*
Y356850D03*
Y346850D03*
Y336850D03*
Y326850D03*
Y316850D03*
Y306850D03*
Y296850D03*
X1119457Y446850D03*
Y436850D03*
Y426850D03*
Y416850D03*
Y406850D03*
Y396850D03*
Y386850D03*
Y376850D03*
Y366850D03*
Y356850D03*
Y346850D03*
Y336850D03*
Y326850D03*
Y316850D03*
Y306850D03*
Y296850D03*
X1259457Y436850D03*
Y426850D03*
Y416850D03*
Y406850D03*
Y396850D03*
Y386850D03*
Y376850D03*
Y366850D03*
Y356850D03*
Y346850D03*
Y336850D03*
Y326850D03*
Y316850D03*
Y306850D03*
Y296850D03*
X1239457Y446850D03*
Y436850D03*
Y426850D03*
Y416850D03*
Y406850D03*
Y396850D03*
Y386850D03*
Y376850D03*
Y366850D03*
Y356850D03*
Y346850D03*
Y336850D03*
Y326850D03*
Y316850D03*
Y306850D03*
Y296850D03*
X1379457Y436850D03*
Y426850D03*
Y416850D03*
Y406850D03*
Y396850D03*
Y386850D03*
Y376850D03*
Y366850D03*
Y356850D03*
Y346850D03*
Y336850D03*
Y326850D03*
Y316850D03*
Y306850D03*
Y296850D03*
X1359457Y446850D03*
Y436850D03*
Y426850D03*
Y416850D03*
Y406850D03*
Y396850D03*
Y386850D03*
Y376850D03*
Y366850D03*
Y356850D03*
Y346850D03*
Y336850D03*
Y326850D03*
Y316850D03*
Y306850D03*
Y296850D03*
X659457Y436850D03*
Y426850D03*
Y416850D03*
Y406850D03*
Y396850D03*
Y386850D03*
Y376850D03*
Y366850D03*
Y356850D03*
Y346850D03*
Y336850D03*
Y326850D03*
Y316850D03*
Y306850D03*
Y296850D03*
X639457Y446850D03*
Y436850D03*
Y426850D03*
Y416850D03*
Y406850D03*
Y396850D03*
Y386850D03*
Y376850D03*
Y366850D03*
Y356850D03*
Y346850D03*
Y336850D03*
Y326850D03*
Y316850D03*
Y306850D03*
Y296850D03*
G54D298*
X1379299Y214173D03*
X1182449D03*
X1280874D03*
G54D299*
X1444488Y113780D03*
Y172835D03*
Y200394D03*
Y259449D03*
Y287008D03*
Y346063D03*
Y373622D03*
Y432677D03*
Y460236D03*
Y519291D03*
X1472047Y113780D03*
Y172835D03*
Y200394D03*
Y259449D03*
Y287008D03*
Y346063D03*
Y373622D03*
Y432677D03*
Y460236D03*
Y519291D03*
X0Y0D02*
M02*
