M48
;FILE_FORMAT=2:4
INCH,LZ
FMAT,2
ICI,OFF
;TYPE=PLATED
T1C.03543
T2C.05906
T3C.06299
T4C.09843
;TYPE=NON_PLATED
T5C.1378
%
M72
G90
G93X0Y0
T1C.03543F197S55
X039946Y030685
X039946Y029685
X041946Y030685
X041946Y029685
X051946Y030685
X051946Y029685
X053946Y030685
X053946Y029685
X063946Y030685
X063946Y029685
X065946Y030685
X065946Y029685
X075946Y030685
X075946Y029685
X077946Y030685
X077946Y029685
X087946Y030685
X087946Y029685
X089946Y030685
X089946Y029685
X099946Y030685
X099946Y029685
X101946Y030685
X101946Y029685
X111946Y030685
X111946Y029685
X113946Y030685
X113946Y029685
X123946Y030685
X123946Y029685
X125946Y030685
X125946Y029685
X135946Y030685
X135946Y029685
X137946Y030685
X137946Y029685
X137946Y033685
X137946Y032685
X137946Y031685
X135946Y033685
X135946Y032685
X135946Y031685
X125946Y033685
X125946Y032685
X125946Y031685
X123946Y033685
X123946Y032685
X123946Y031685
X113946Y033685
X113946Y032685
X113946Y031685
X111946Y033685
X111946Y032685
X111946Y031685
X101946Y033685
X101946Y032685
X101946Y031685
X099946Y033685
X099946Y032685
X099946Y031685
X089946Y033685
X089946Y032685
X089946Y031685
X087946Y033685
X087946Y032685
X087946Y031685
X077946Y033685
X077946Y032685
X077946Y031685
X075946Y033685
X075946Y032685
X075946Y031685
X065946Y033685
X065946Y032685
X065946Y031685
X063946Y033685
X063946Y032685
X063946Y031685
X053946Y031685
X053946Y033685
X053946Y032685
X051946Y033685
X051946Y032685
X051946Y031685
X041946Y033685
X041946Y032685
X041946Y031685
X039946Y033685
X039946Y032685
X039946Y031685
X039946Y035685
X039946Y034685
X039946Y038685
X039946Y037685
X039946Y036685
X041946Y034685
X041946Y035685
X041946Y038685
X041946Y037685
X041946Y036685
X051946Y035685
X051946Y034685
X051946Y038685
X051946Y037685
X051946Y036685
X053946Y034685
X053946Y037685
X053946Y036685
X053946Y038685
X053946Y035685
X063946Y035685
X063946Y034685
X063946Y038685
X063946Y037685
X063946Y036685
X065946Y035685
X065946Y034685
X065946Y038685
X065946Y037685
X065946Y036685
X075946Y035685
X075946Y038685
X075946Y034685
X075946Y037685
X075946Y036685
X077946Y038685
X077946Y037685
X077946Y036685
X077946Y035685
X077946Y034685
X087946Y035685
X087946Y038685
X087946Y037685
X087946Y036685
X087946Y034685
X089946Y037685
X089946Y036685
X089946Y035685
X089946Y034685
X089946Y038685
X099946Y035685
X099946Y038685
X099946Y034685
X099946Y037685
X099946Y036685
X101946Y038685
X101946Y037685
X101946Y035685
X101946Y036685
X101946Y034685
X111946Y038685
X111946Y037685
X111946Y036685
X111946Y035685
X111946Y034685
X113946Y036685
X113946Y037685
X113946Y038685
X113946Y035685
X113946Y034685
X123946Y036685
X123946Y038685
X123946Y037685
X123946Y035685
X123946Y034685
X125946Y035685
X125946Y038685
X125946Y034685
X125946Y037685
X125946Y036685
X135946Y034685
X135946Y038685
X135946Y035685
X135946Y037685
X135946Y036685
X137946Y035685
X137946Y037685
X137946Y034685
X137946Y038685
X137946Y036685
X137946Y040685
X137946Y039685
X137946Y043685
X137946Y042685
X137946Y041685
X135946Y040685
X135946Y039685
X135946Y043685
X135946Y042685
X135946Y041685
X125946Y040685
X125946Y039685
X125946Y041685
X125946Y043685
X125946Y042685
X123946Y040685
X123946Y039685
X123946Y043685
X123946Y042685
X123946Y041685
X113946Y040685
X113946Y039685
X113946Y043685
X113946Y042685
X113946Y041685
X111946Y040685
X111946Y039685
X111946Y043685
X111946Y042685
X111946Y041685
X101946Y042685
X101946Y041685
X101946Y040685
X101946Y039685
X101946Y043685
X099946Y041685
X099946Y040685
X099946Y039685
X099946Y043685
X099946Y042685
X089946Y043685
X089946Y042685
X089946Y041685
X089946Y040685
X089946Y039685
X087946Y043685
X087946Y041685
X087946Y040685
X087946Y042685
X087946Y039685
X077946Y039685
X077946Y042685
X077946Y043685
X077946Y040685
X077946Y041685
X075946Y040685
X075946Y039685
X075946Y043685
X075946Y042685
X075946Y041685
X065946Y043685
X065946Y042685
X065946Y041685
X065946Y040685
X065946Y039685
X063946Y039685
X063946Y043685
X063946Y042685
X063946Y041685
X063946Y040685
X053946Y043685
X053946Y040685
X053946Y039685
X053946Y042685
X053946Y041685
X051946Y039685
X051946Y042685
X051946Y041685
X051946Y040685
X051946Y043685
X041946Y043685
X041946Y041685
X041946Y040685
X041946Y039685
X041946Y042685
X039946Y043685
X039946Y042685
X039946Y040685
X039946Y041685
X039946Y039685
X039946Y044685
X041946Y044685
X051946Y044685
X053946Y044685
X063946Y044685
X065946Y044685
X075946Y044685
X077946Y044685
X087946Y044685
X089946Y044685
X099946Y044685
X101946Y044685
X111946Y044685
X113946Y044685
X123946Y044685
X125946Y044685
X135946Y044685
X137946Y044685
T2C.05906F107S55
X126087Y021417
X128087Y021417
X13593Y021417
X13793Y021417
T3C.06299F089S55
X112245Y021417
X114245Y021417
X116245Y021417
X118245Y021417
T4C.09843F066S55
X144449Y011378
X144449Y017283
X144449Y020039
X144449Y025945
X147205Y011378
X147205Y020039
X147205Y017283
X147205Y025945
X147205Y028701
X147205Y034606
X147205Y037362
X147205Y043268
X144449Y037362
X144449Y034606
X144449Y043268
X144449Y028701
X144449Y046024
X144449Y051929
X147205Y046024
X147205Y051929
T5C.1378F035S794
X041146Y0116
X053146Y0116
X065146Y0116
X077146Y0116
X089146Y0116
X101146Y0116
X113146Y0116
X125146Y0116
X137146Y0116
X136946Y027323
X124946Y027323
X112946Y027323
X100946Y027323
X088946Y027323
X076946Y027323
X064946Y027323
X052946Y027323
X040946Y027323
X040946Y047047
X052946Y047047
X064946Y047047
X076946Y047047
X088946Y047047
X100946Y047047
X112946Y047047
X124946Y047047
X136946Y047047
X137146Y05173
X125146Y05173
X113146Y05173
X101146Y05173
X089146Y05173
X077146Y05173
X065146Y05173
X053146Y05173
X041146Y05173
M30
