*
*
G04 PADS VX.2.4 Build Number: 11282995 generated Gerber (RS-274-X) file*
G04 PC Version=2.1*
*
%IN "COUNT_WONDER_V1_0.pcb"*%
*
%MOIN*%
*
%FSLAX35Y35*%
*
*
*
*
G04 PC Standard Apertures*
*
*
G04 Thermal Relief Aperture macro.*
%AMTER*
1,1,$1,0,0*
1,0,$1-$2,0,0*
21,0,$3,$4,0,0,45*
21,0,$3,$4,0,0,135*
%
*
*
G04 Annular Aperture macro.*
%AMANN*
1,1,$1,0,0*
1,0,$2,0,0*
%
*
*
G04 Odd Aperture macro.*
%AMODD*
1,1,$1,0,0*
1,0,$1-0.005,0,0*
%
*
*
G04 PC Custom Aperture Macros*
*
*
*
*
*
*
G04 PC Aperture Table*
*
%ADD010C,0.001*%
%ADD028C,0.01*%
%ADD030C,0.008*%
%ADD033C,0.02*%
%ADD091C,0.005*%
%ADD092C,0.006*%
%ADD104C,0.015*%
%ADD121C,0.00787*%
*
*
*
*
G04 PC Circuitry*
G04 Layer Name COUNT_WONDER_V1_0.pcb - circuitry*
%LPD*%
*
*
G04 PC Custom Flashes*
G04 Layer Name COUNT_WONDER_V1_0.pcb - flashes*
%LPD*%
*
*
G04 PC Circuitry*
G04 Layer Name COUNT_WONDER_V1_0.pcb - circuitry*
%LPD*%
*
G54D10*
G01X1493701Y100000D02*
X1493704D01*
X1493701Y533071D02*
X1493704D01*
X1485827D02*
X1485829D01*
X375591D02*
X375593D01*
G54D28*
X692557Y175263D02*
Y168700D01*
Y175263D02*
X695511D01*
X692557Y172138D02*
X694375D01*
X692557Y168700D02*
X695511D01*
X697557Y175263D02*
Y168700D01*
Y175263D02*
X700739Y168700D01*
Y175263D02*
Y168700D01*
X708011Y175263D02*
Y168700D01*
Y175263D02*
X709602D01*
X709602D02*
X710284Y174950D01*
X710739Y174325*
X710966Y173700*
X711193Y172763*
X711193D02*
Y171200D01*
X710966Y170263*
X710966D02*
X710739Y169638D01*
X710739D02*
X710284Y169013D01*
X710284D02*
X709602Y168700D01*
X708011*
X713239Y175263D02*
Y168700D01*
Y175263D02*
X716193D01*
X713239Y172138D02*
X715057D01*
X713239Y168700D02*
X716193D01*
X718239Y175263D02*
Y168700D01*
Y175263D02*
X720057Y168700D01*
X721875Y175263D02*
X720057Y168700D01*
X721875Y175263D02*
Y168700D01*
X725284Y175263D02*
X724829Y174950D01*
X724375Y174325*
X724148Y173700*
X723920Y172763*
X723920D02*
Y171200D01*
X724148Y170263*
X724148D02*
X724375Y169638D01*
X724375D02*
X724829Y169013D01*
X724829D02*
X725284Y168700D01*
X726193*
X726648Y169013*
X726648D02*
X727102Y169638D01*
X727102D02*
X727329Y170263D01*
X727329D02*
X727557Y171200D01*
Y172763*
X727557D02*
X727329Y173700D01*
X727102Y174325*
X726648Y174950*
X726193Y175263*
X726193D02*
X725284D01*
X732784Y174325D02*
X732329Y174950D01*
X731648Y175263*
X731648D02*
X730739D01*
X730739D02*
X730057Y174950D01*
X729602Y174325*
Y173700*
X729829Y173075*
X730057Y172763*
X730057D02*
X730511Y172450D01*
X731875Y171825*
X732329Y171513*
X732329D02*
X732557Y171200D01*
X732784Y170575*
Y169638*
X732784D02*
X732329Y169013D01*
X732329D02*
X731648Y168700D01*
X730739*
X730057Y169013*
X730057D02*
X729602Y169638D01*
X743466Y173700D02*
X743239Y174325D01*
X742784Y174950*
X742329Y175263*
X742329D02*
X741420D01*
X741420D02*
X740966Y174950D01*
X740511Y174325*
X740284Y173700*
X740057Y172763*
X740057D02*
Y171200D01*
X740284Y170263*
X740284D02*
X740511Y169638D01*
X740511D02*
X740966Y169013D01*
X740966D02*
X741420Y168700D01*
X742329*
X742784Y169013*
X742784D02*
X743239Y169638D01*
X743239D02*
X743466Y170263D01*
X746875Y175263D02*
X746420Y174950D01*
X745966Y174325*
X745739Y173700*
X745511Y172763*
X745511D02*
Y171200D01*
X745739Y170263*
X745739D02*
X745966Y169638D01*
X745966D02*
X746420Y169013D01*
X746420D02*
X746875Y168700D01*
X747784*
X748239Y169013*
X748239D02*
X748693Y169638D01*
X748693D02*
X748920Y170263D01*
X748920D02*
X749148Y171200D01*
Y172763*
X749148D02*
X748920Y173700D01*
X748693Y174325*
X748239Y174950*
X747784Y175263*
X747784D02*
X746875D01*
X751193D02*
Y168700D01*
Y175263D02*
X754375Y168700D01*
Y175263D02*
Y168700D01*
X756420Y175263D02*
Y168700D01*
Y175263D02*
X759602Y168700D01*
Y175263D02*
Y168700D01*
X761648Y175263D02*
Y168700D01*
Y175263D02*
X764602D01*
X761648Y172138D02*
X763466D01*
X761648Y168700D02*
X764602D01*
X770057Y173700D02*
X769829Y174325D01*
X769375Y174950*
X768920Y175263*
X768920D02*
X768011D01*
X768011D02*
X767557Y174950D01*
X767102Y174325*
X766875Y173700*
X766648Y172763*
X766648D02*
Y171200D01*
X766875Y170263*
X766875D02*
X767102Y169638D01*
X767102D02*
X767557Y169013D01*
X767557D02*
X768011Y168700D01*
X768920*
X769375Y169013*
X769375D02*
X769829Y169638D01*
X769829D02*
X770057Y170263D01*
X773693Y175263D02*
Y168700D01*
X772102Y175263D02*
X775284D01*
X778693D02*
X778239Y174950D01*
X777784Y174325*
X777557Y173700*
X777329Y172763*
X777329D02*
Y171200D01*
X777557Y170263*
X777557D02*
X777784Y169638D01*
X777784D02*
X778239Y169013D01*
X778239D02*
X778693Y168700D01*
X779602*
X780057Y169013*
X780057D02*
X780511Y169638D01*
X780511D02*
X780739Y170263D01*
X780739D02*
X780966Y171200D01*
Y172763*
X780966D02*
X780739Y173700D01*
X780511Y174325*
X780057Y174950*
X779602Y175263*
X779602D02*
X778693D01*
X783011D02*
Y168700D01*
Y175263D02*
X785057D01*
X785057D02*
X785739Y174950D01*
X785966Y174638*
X785966D02*
X786193Y174013D01*
X786193D02*
Y173388D01*
X786193D02*
X785966Y172763D01*
X785966D02*
X785739Y172450D01*
X785057Y172138*
X785057D02*
X783011D01*
X784602D02*
X786193Y168700D01*
X793466Y175263D02*
Y168700D01*
Y175263D02*
X795511D01*
X795511D02*
X796193Y174950D01*
X796420Y174638*
X796420D02*
X796648Y174013D01*
X796648D02*
Y173075D01*
X796420Y172450*
X796193Y172138*
X796193D02*
X795511Y171825D01*
X793466*
X802102Y173700D02*
X801875Y174325D01*
X801420Y174950*
X800966Y175263*
X800966D02*
X800057D01*
X800057D02*
X799602Y174950D01*
X799148Y174325*
X798920Y173700*
X798693Y172763*
X798693D02*
Y171200D01*
X798920Y170263*
X798920D02*
X799148Y169638D01*
X799148D02*
X799602Y169013D01*
X799602D02*
X800057Y168700D01*
X800966*
X801420Y169013*
X801420D02*
X801875Y169638D01*
X801875D02*
X802102Y170263D01*
X804148Y175263D02*
Y168700D01*
Y175263D02*
X806193D01*
X806193D02*
X806875Y174950D01*
X807102Y174638*
X807102D02*
X807329Y174013D01*
X807329D02*
Y173388D01*
X807329D02*
X807102Y172763D01*
X807102D02*
X806875Y172450D01*
X806193Y172138*
X804148D02*
X806193D01*
X806193D02*
X806875Y171825D01*
X807102Y171513*
X807102D02*
X807329Y170888D01*
X807329D02*
Y169950D01*
X807102Y169325*
X806875Y169013*
X806875D02*
X806193Y168700D01*
X804148*
X809375Y167450D02*
X814148D01*
X815511Y175263D02*
X817329Y168700D01*
X819148Y175263D02*
X817329Y168700D01*
X821193Y174013D02*
X821648Y174325D01*
X822329Y175263*
X822329D02*
Y168700D01*
X824375Y167450D02*
X829148D01*
X830511Y174013D02*
X830966Y174325D01*
X831648Y175263*
X831648D02*
Y168700D01*
X700843Y199844D02*
Y190000D01*
X698457Y199844D02*
X703229D01*
X706298D02*
Y190000D01*
Y199844D02*
X710729D01*
X706298Y195156D02*
X709025D01*
X706298Y190000D02*
X710729D01*
X713798Y199844D02*
Y190000D01*
X717889*
X720957Y199844D02*
Y190000D01*
Y199844D02*
X725389D01*
X720957Y195156D02*
X723684D01*
X720957Y190000D02*
X725389D01*
X730843Y199844D02*
Y190000D01*
X728457Y199844D02*
X733229D01*
X736298D02*
Y190000D01*
Y199844D02*
X740729D01*
X736298Y195156D02*
X739025D01*
X736298Y190000D02*
X740729D01*
X748911Y197500D02*
X748570Y198438D01*
X748570D02*
X747889Y199375D01*
X747207Y199844*
X745843*
X745161Y199375*
X744479Y198438*
X744479D02*
X744139Y197500D01*
X743798Y196094*
Y193750*
X744139Y192344*
X744479Y191406*
X745161Y190469*
X745843Y190000*
X747207*
X747889Y190469*
X748570Y191406*
X748911Y192344*
X751979Y199844D02*
Y190000D01*
X756752Y199844D02*
Y190000D01*
X751979Y195156D02*
X756752D01*
X772434Y198438D02*
X771752Y199375D01*
X770729Y199844*
X769366*
X768343Y199375*
X767661Y198438*
X767661D02*
Y197500D01*
X768002Y196563*
X768002D02*
X768343Y196094D01*
X769025Y195625*
X771070Y194688*
X771070D02*
X771752Y194219D01*
X772093Y193750*
X772434Y192813*
X772434D02*
Y191406D01*
X771752Y190469*
X770729Y190000*
X769366*
X768343Y190469*
X767661Y191406*
X775502Y199844D02*
Y190000D01*
Y199844D02*
X779934D01*
X775502Y195156D02*
X778229D01*
X775502Y190000D02*
X779934D01*
X783002Y199844D02*
Y190000D01*
Y199844D02*
X786070D01*
X787093Y199375*
X787434Y198906*
X787775Y197969*
Y197031*
X787434Y196094*
X787093Y195625*
X786070Y195156*
X783002*
X785389D02*
X787775Y190000D01*
X790843Y199844D02*
X793570Y190000D01*
X796298Y199844D02*
X793570Y190000D01*
X799366Y199844D02*
Y190000D01*
X807548Y197500D02*
X807207Y198438D01*
X807207D02*
X806525Y199375D01*
X805843Y199844*
X804479*
X803798Y199375*
X803116Y198438*
X803116D02*
X802775Y197500D01*
X802434Y196094*
Y193750*
X802775Y192344*
X803116Y191406*
X803798Y190469*
X804479Y190000*
X805843*
X806525Y190469*
X807207Y191406*
X807548Y192344*
X810616Y199844D02*
Y190000D01*
Y199844D02*
X815048D01*
X810616Y195156D02*
X813343D01*
X810616Y190000D02*
X815048D01*
X822889Y198438D02*
X822207Y199375D01*
X821184Y199844*
X819820*
X818798Y199375*
X818116Y198438*
X818116D02*
Y197500D01*
X818457Y196563*
X818457D02*
X818798Y196094D01*
X819479Y195625*
X821525Y194688*
X821525D02*
X822207Y194219D01*
X822548Y193750*
X822889Y192813*
X822889D02*
Y191406D01*
X822207Y190469*
X821184Y190000*
X819820*
X818798Y190469*
X818116Y191406*
X1524809Y318098D02*
X1525263Y318410D01*
X1525945Y319348*
Y312785*
X1527990Y318098D02*
X1528445Y318410D01*
X1529127Y319348*
Y312785*
X1532536Y319348D02*
X1531854Y319035D01*
X1531399Y318098*
X1531172Y316535*
Y315598*
X1531399Y314035*
X1531854Y313098*
X1532536Y312785*
X1532990*
X1533672Y313098*
X1534127Y314035*
X1534354Y315598*
Y316535*
X1534127Y318098*
X1533672Y319035*
X1532990Y319348*
X1532536*
X1536627Y313410D02*
X1536399Y313098D01*
X1536627Y312785*
X1536854Y313098*
X1536627Y313410*
X1540263Y319348D02*
X1539581Y319035D01*
X1539127Y318098*
X1538899Y316535*
Y315598*
X1539127Y314035*
X1539581Y313098*
X1540263Y312785*
X1540718*
X1541399Y313098*
X1541854Y314035*
X1542081Y315598*
Y316535*
X1541854Y318098*
X1541399Y319035*
X1540718Y319348*
X1540263*
X1544127Y317160D02*
Y312785D01*
Y315910D02*
X1544809Y316848D01*
X1545263Y317160*
X1545945*
X1546399Y316848*
X1546627Y315910*
Y312785*
Y315910D02*
X1547309Y316848D01*
X1547763Y317160*
X1548445*
X1548899Y316848*
X1549127Y315910*
Y312785*
X1551172Y317160D02*
Y312785D01*
Y315910D02*
X1551854Y316848D01*
X1552309Y317160*
X1552990*
X1553445Y316848*
X1553672Y315910*
Y312785*
Y315910D02*
X1554354Y316848D01*
X1554809Y317160*
X1555490*
X1555945Y316848*
X1556172Y315910*
Y312785*
X1519761Y154851D02*
X1526323Y156670D01*
X1519761Y158488D02*
X1526323Y156670D01*
X1527573Y160533D02*
Y165306D01*
X1521323Y170079D02*
X1520698Y169851D01*
X1520073Y169397*
X1519761Y168942*
Y168033*
X1520073Y167579*
X1520698Y167124*
X1521323Y166897*
X1522261Y166670*
X1523823*
X1524761Y166897*
X1525386Y167124*
X1526011Y167579*
X1526323Y168033*
Y168942*
X1526011Y169397*
X1525386Y169851*
X1524761Y170079*
X1523823*
Y168942D02*
Y170079D01*
X1519761Y172124D02*
X1526323D01*
X1519761D02*
Y174170D01*
X1520073Y174851*
X1520386Y175079*
X1521011Y175306*
X1521636*
X1522261Y175079*
X1522573Y174851*
X1522886Y174170*
Y172124*
Y173715D02*
X1526323Y175306D01*
X1519761Y178715D02*
X1520073Y178261D01*
X1520698Y177806*
X1521323Y177579*
X1522261Y177351*
X1523823*
X1524761Y177579*
X1525386Y177806*
X1526011Y178261*
X1526323Y178715*
Y179624*
X1526011Y180079*
X1525386Y180533*
X1524761Y180761*
X1523823Y180988*
X1522261*
X1521323Y180761*
X1520698Y180533*
X1520073Y180079*
X1519761Y179624*
Y178715*
Y184397D02*
X1520073Y183942D01*
X1520698Y183488*
X1521323Y183261*
X1522261Y183033*
X1523823*
X1524761Y183261*
X1525386Y183488*
X1526011Y183942*
X1526323Y184397*
Y185306*
X1526011Y185761*
X1525386Y186215*
X1524761Y186442*
X1523823Y186670*
X1522261*
X1521323Y186442*
X1520698Y186215*
X1520073Y185761*
X1519761Y185306*
Y184397*
Y188715D02*
X1526323Y190533D01*
X1519761Y192351D02*
X1526323Y190533D01*
X1519761Y194397D02*
X1526323D01*
X1519761D02*
Y197351D01*
X1522886Y194397D02*
Y196215D01*
X1526323Y194397D02*
Y197351D01*
X1475984Y82940D02*
X1477802Y76378D01*
X1479621Y82940D02*
X1477802Y76378D01*
X1481666Y75128D02*
X1486439D01*
X1491212Y81378D02*
X1490984Y82003D01*
X1490530Y82628*
X1490075Y82940*
X1489166*
X1488712Y82628*
X1488257Y82003*
X1488030Y81378*
X1487802Y80440*
Y78878*
X1488030Y77940*
X1488257Y77315*
X1488712Y76690*
X1489166Y76378*
X1490075*
X1490530Y76690*
X1490984Y77315*
X1491212Y77940*
Y78878*
X1490075D02*
X1491212D01*
X1493257Y82940D02*
Y76378D01*
Y82940D02*
X1495302D01*
X1495984Y82628*
X1496212Y82315*
X1496439Y81690*
Y81065*
X1496212Y80440*
X1495984Y80128*
X1495302Y79815*
X1493257*
X1494848D02*
X1496439Y76378D01*
X1499848Y82940D02*
X1499393Y82628D01*
X1498939Y82003*
X1498712Y81378*
X1498484Y80440*
Y78878*
X1498712Y77940*
X1498939Y77315*
X1499393Y76690*
X1499848Y76378*
X1500757*
X1501212Y76690*
X1501666Y77315*
X1501893Y77940*
X1502121Y78878*
Y80440*
X1501893Y81378*
X1501666Y82003*
X1501212Y82628*
X1500757Y82940*
X1499848*
X1505530D02*
X1505075Y82628D01*
X1504621Y82003*
X1504393Y81378*
X1504166Y80440*
Y78878*
X1504393Y77940*
X1504621Y77315*
X1505075Y76690*
X1505530Y76378*
X1506439*
X1506893Y76690*
X1507348Y77315*
X1507575Y77940*
X1507802Y78878*
Y80440*
X1507575Y81378*
X1507348Y82003*
X1506893Y82628*
X1506439Y82940*
X1505530*
X1509848D02*
X1511666Y76378D01*
X1513484Y82940D02*
X1511666Y76378D01*
X1515530Y82940D02*
Y76378D01*
Y82940D02*
X1518484D01*
X1515530Y79815D02*
X1517348D01*
X1515530Y76378D02*
X1518484D01*
X1409055Y82940D02*
X1410873Y76378D01*
X1412691Y82940D02*
X1410873Y76378D01*
X1414737Y75128D02*
X1419510D01*
X1424282Y81378D02*
X1424055Y82003D01*
X1423601Y82628*
X1423146Y82940*
X1422237*
X1421782Y82628*
X1421328Y82003*
X1421101Y81378*
X1420873Y80440*
Y78878*
X1421101Y77940*
X1421328Y77315*
X1421782Y76690*
X1422237Y76378*
X1423146*
X1423601Y76690*
X1424055Y77315*
X1424282Y77940*
Y78878*
X1423146D02*
X1424282D01*
X1426328Y82940D02*
Y76378D01*
Y82940D02*
X1428373D01*
X1429055Y82628*
X1429282Y82315*
X1429510Y81690*
Y81065*
X1429282Y80440*
X1429055Y80128*
X1428373Y79815*
X1426328*
X1427919D02*
X1429510Y76378D01*
X1432919Y82940D02*
X1432464Y82628D01*
X1432010Y82003*
X1431782Y81378*
X1431555Y80440*
Y78878*
X1431782Y77940*
X1432010Y77315*
X1432464Y76690*
X1432919Y76378*
X1433828*
X1434282Y76690*
X1434737Y77315*
X1434964Y77940*
X1435191Y78878*
Y80440*
X1434964Y81378*
X1434737Y82003*
X1434282Y82628*
X1433828Y82940*
X1432919*
X1438601D02*
X1438146Y82628D01*
X1437691Y82003*
X1437464Y81378*
X1437237Y80440*
Y78878*
X1437464Y77940*
X1437691Y77315*
X1438146Y76690*
X1438601Y76378*
X1439510*
X1439964Y76690*
X1440419Y77315*
X1440646Y77940*
X1440873Y78878*
Y80440*
X1440646Y81378*
X1440419Y82003*
X1439964Y82628*
X1439510Y82940*
X1438601*
X1442919D02*
X1444737Y76378D01*
X1446555Y82940D02*
X1444737Y76378D01*
X1448601Y82940D02*
Y76378D01*
Y82940D02*
X1451555D01*
X1448601Y79815D02*
X1450419D01*
X1448601Y76378D02*
X1451555D01*
X1519761Y241466D02*
X1526323Y243284D01*
X1519761Y245102D02*
X1526323Y243284D01*
X1527573Y247147D02*
Y251920D01*
X1521323Y256693D02*
X1520698Y256466D01*
X1520073Y256011*
X1519761Y255557*
Y254647*
X1520073Y254193*
X1520698Y253738*
X1521323Y253511*
X1522261Y253284*
X1523823*
X1524761Y253511*
X1525386Y253738*
X1526011Y254193*
X1526323Y254647*
Y255557*
X1526011Y256011*
X1525386Y256466*
X1524761Y256693*
X1523823*
Y255557D02*
Y256693D01*
X1519761Y258738D02*
X1526323D01*
X1519761D02*
Y260784D01*
X1520073Y261466*
X1520386Y261693*
X1521011Y261920*
X1521636*
X1522261Y261693*
X1522573Y261466*
X1522886Y260784*
Y258738*
Y260329D02*
X1526323Y261920D01*
X1519761Y265329D02*
X1520073Y264875D01*
X1520698Y264420*
X1521323Y264193*
X1522261Y263966*
X1523823*
X1524761Y264193*
X1525386Y264420*
X1526011Y264875*
X1526323Y265329*
Y266238*
X1526011Y266693*
X1525386Y267147*
X1524761Y267375*
X1523823Y267602*
X1522261*
X1521323Y267375*
X1520698Y267147*
X1520073Y266693*
X1519761Y266238*
Y265329*
Y271011D02*
X1520073Y270557D01*
X1520698Y270102*
X1521323Y269875*
X1522261Y269647*
X1523823*
X1524761Y269875*
X1525386Y270102*
X1526011Y270557*
X1526323Y271011*
Y271920*
X1526011Y272375*
X1525386Y272829*
X1524761Y273057*
X1523823Y273284*
X1522261*
X1521323Y273057*
X1520698Y272829*
X1520073Y272375*
X1519761Y271920*
Y271011*
Y275329D02*
X1526323Y277147D01*
X1519761Y278966D02*
X1526323Y277147D01*
X1519761Y281011D02*
X1526323D01*
X1519761D02*
Y283966D01*
X1522886Y281011D02*
Y282829D01*
X1526323Y281011D02*
Y283966D01*
X1519761Y328080D02*
X1526323Y329898D01*
X1519761Y331716D02*
X1526323Y329898D01*
X1527573Y333762D02*
Y338534D01*
X1521323Y343307D02*
X1520698Y343080D01*
X1520073Y342625*
X1519761Y342171*
Y341262*
X1520073Y340807*
X1520698Y340353*
X1521323Y340125*
X1522261Y339898*
X1523823*
X1524761Y340125*
X1525386Y340353*
X1526011Y340807*
X1526323Y341262*
Y342171*
X1526011Y342625*
X1525386Y343080*
X1524761Y343307*
X1523823*
Y342171D02*
Y343307D01*
X1519761Y345353D02*
X1526323D01*
X1519761D02*
Y347398D01*
X1520073Y348080*
X1520386Y348307*
X1521011Y348534*
X1521636*
X1522261Y348307*
X1522573Y348080*
X1522886Y347398*
Y345353*
Y346943D02*
X1526323Y348534D01*
X1519761Y351943D02*
X1520073Y351489D01*
X1520698Y351034*
X1521323Y350807*
X1522261Y350580*
X1523823*
X1524761Y350807*
X1525386Y351034*
X1526011Y351489*
X1526323Y351943*
Y352853*
X1526011Y353307*
X1525386Y353762*
X1524761Y353989*
X1523823Y354216*
X1522261*
X1521323Y353989*
X1520698Y353762*
X1520073Y353307*
X1519761Y352853*
Y351943*
Y357625D02*
X1520073Y357171D01*
X1520698Y356716*
X1521323Y356489*
X1522261Y356262*
X1523823*
X1524761Y356489*
X1525386Y356716*
X1526011Y357171*
X1526323Y357625*
Y358534*
X1526011Y358989*
X1525386Y359443*
X1524761Y359671*
X1523823Y359898*
X1522261*
X1521323Y359671*
X1520698Y359443*
X1520073Y358989*
X1519761Y358534*
Y357625*
Y361943D02*
X1526323Y363762D01*
X1519761Y365580D02*
X1526323Y363762D01*
X1519761Y367625D02*
X1526323D01*
X1519761D02*
Y370580D01*
X1522886Y367625D02*
Y369443D01*
X1526323Y367625D02*
Y370580D01*
X1519761Y414694D02*
X1526323Y416512D01*
X1519761Y418330D02*
X1526323Y416512D01*
X1527573Y420376D02*
Y425149D01*
X1521323Y429921D02*
X1520698Y429694D01*
X1520073Y429239*
X1519761Y428785*
Y427876*
X1520073Y427421*
X1520698Y426967*
X1521323Y426739*
X1522261Y426512*
X1523823*
X1524761Y426739*
X1525386Y426967*
X1526011Y427421*
X1526323Y427876*
Y428785*
X1526011Y429239*
X1525386Y429694*
X1524761Y429921*
X1523823*
Y428785D02*
Y429921D01*
X1519761Y431967D02*
X1526323D01*
X1519761D02*
Y434012D01*
X1520073Y434694*
X1520386Y434921*
X1521011Y435149*
X1521636*
X1522261Y434921*
X1522573Y434694*
X1522886Y434012*
Y431967*
Y433558D02*
X1526323Y435149D01*
X1519761Y438558D02*
X1520073Y438103D01*
X1520698Y437649*
X1521323Y437421*
X1522261Y437194*
X1523823*
X1524761Y437421*
X1525386Y437649*
X1526011Y438103*
X1526323Y438558*
Y439467*
X1526011Y439921*
X1525386Y440376*
X1524761Y440603*
X1523823Y440830*
X1522261*
X1521323Y440603*
X1520698Y440376*
X1520073Y439921*
X1519761Y439467*
Y438558*
Y444239D02*
X1520073Y443785D01*
X1520698Y443330*
X1521323Y443103*
X1522261Y442876*
X1523823*
X1524761Y443103*
X1525386Y443330*
X1526011Y443785*
X1526323Y444239*
Y445149*
X1526011Y445603*
X1525386Y446058*
X1524761Y446285*
X1523823Y446512*
X1522261*
X1521323Y446285*
X1520698Y446058*
X1520073Y445603*
X1519761Y445149*
Y444239*
Y448558D02*
X1526323Y450376D01*
X1519761Y452194D02*
X1526323Y450376D01*
X1519761Y454239D02*
X1526323D01*
X1519761D02*
Y457194D01*
X1522886Y454239D02*
Y456058D01*
X1526323Y454239D02*
Y457194D01*
X912754Y548100D02*
Y548413D01*
X912981Y549038*
X913209Y549350*
X913663Y549663*
X914572*
X915027Y549350*
X915254Y549038*
X915481Y548413*
Y547788*
X915254Y547163*
X914800Y546225*
X912527Y543100*
X915709*
X918890Y549663D02*
X918209Y549350D01*
X917981Y548725*
Y548100*
X918209Y547475*
X918663Y547163*
X919572Y546850*
X920254Y546538*
X920709Y545913*
X920936Y545288*
Y544350*
X920709Y543725*
X920481Y543413*
X919800Y543100*
X918890*
X918209Y543413*
X917981Y543725*
X917754Y544350*
Y545288*
X917981Y545913*
X918436Y546538*
X919118Y546850*
X920027Y547163*
X920481Y547475*
X920709Y548100*
Y548725*
X920481Y549350*
X919800Y549663*
X918890*
X923209Y548100D02*
Y548413D01*
X923436Y549038*
X923663Y549350*
X924118Y549663*
X925027*
X925481Y549350*
X925709Y549038*
X925936Y548413*
Y547788*
X925709Y547163*
X925254Y546225*
X922981Y543100*
X926163*
X928436Y543725D02*
X928209Y543413D01*
X928436Y543100*
X928663Y543413*
X928436Y543725*
X932072Y549663D02*
X931390Y549350D01*
X930936Y548413*
X930709Y546850*
Y545913*
X930936Y544350*
X931390Y543413*
X932072Y543100*
X932527*
X933209Y543413*
X933663Y544350*
X933890Y545913*
Y546850*
X933663Y548413*
X933209Y549350*
X932527Y549663*
X932072*
X935936Y547475D02*
Y543100D01*
Y546225D02*
X936618Y547163D01*
X937072Y547475*
X937754*
X938209Y547163*
X938436Y546225*
Y543100*
Y546225D02*
X939118Y547163D01*
X939572Y547475*
X940254*
X940709Y547163*
X940936Y546225*
Y543100*
X942981Y547475D02*
Y543100D01*
Y546225D02*
X943663Y547163D01*
X944118Y547475*
X944800*
X945254Y547163*
X945481Y546225*
Y543100*
Y546225D02*
X946163Y547163D01*
X946618Y547475*
X947300*
X947754Y547163*
X947981Y546225*
Y543100*
X1540945Y100000D02*
Y309785D01*
Y100000D02*
X1538445Y110000D01*
X1543445*
X1540945Y100000*
Y533071D02*
Y323285D01*
Y533071D02*
X1543445Y523071D01*
X1538445*
X1540945Y533071*
X1498701Y100000D02*
X1545945D01*
X1498701Y533071D02*
X1545945D01*
X1494827Y186348D02*
X1505698Y175476D01*
X1506638Y174537*
X1494827Y186348D02*
X1503666Y181044D01*
X1500130Y177509*
X1494827Y186348*
X1506638Y174537D02*
X1516638D01*
X1458268Y98031D02*
X1469139Y87160D01*
X1470079Y86220*
X1458268Y98031D02*
X1467107Y92728D01*
X1463571Y89193*
X1458268Y98031*
X1470079Y86220D02*
X1480079D01*
X1430709Y98031D02*
X1441580Y87160D01*
X1442520Y86220*
X1430709Y98031D02*
X1439547Y92728D01*
X1436012Y89193*
X1430709Y98031*
X1442520Y86220D02*
X1452520D01*
X1494827Y272962D02*
X1505698Y262090D01*
X1506638Y261151*
X1494827Y272962D02*
X1503666Y267658D01*
X1500130Y264123*
X1494827Y272962*
X1506638Y261151D02*
X1516638D01*
X1494827Y359576D02*
X1505698Y348704D01*
X1506638Y347765*
X1494827Y359576D02*
X1503666Y354273D01*
X1500130Y350737*
X1494827Y359576*
X1506638Y347765D02*
X1516638D01*
X1494827Y446190D02*
X1505698Y435319D01*
X1506638Y434379*
X1494827Y446190D02*
X1503666Y440887D01*
X1500130Y437351*
X1494827Y446190*
X1506638Y434379D02*
X1516638D01*
X1485827Y546850D02*
X951890D01*
X1485827D02*
X1475827Y544350D01*
Y549350*
X1485827Y546850*
X375591D02*
X909527D01*
X375591D02*
X385591Y549350D01*
Y544350*
X375591Y546850*
X1485827Y538071D02*
Y551850D01*
X375591Y538071D02*
Y551850D01*
G54D30*
X1457087Y113780D02*
G75*
G03X1457087I-12599J0D01*
G01Y172835D02*
G03X1457087I-12599J0D01*
G01Y200394D02*
G03X1457087I-12599J0D01*
G01Y259449D02*
G03X1457087I-12599J0D01*
G01Y287008D02*
G03X1457087I-12599J0D01*
G01Y346063D02*
G03X1457087I-12599J0D01*
G01Y373622D02*
G03X1457087I-12599J0D01*
G01Y432677D02*
G03X1457087I-12599J0D01*
G01Y460236D02*
G03X1457087I-12599J0D01*
G01Y519291D02*
G03X1457087I-12599J0D01*
G01X1484646Y113780D02*
G03X1484646I-12599J0D01*
G01Y172835D02*
G03X1484646I-12599J0D01*
G01Y200394D02*
G03X1484646I-12599J0D01*
G01Y259449D02*
G03X1484646I-12599J0D01*
G01Y287008D02*
G03X1484646I-12599J0D01*
G01Y346063D02*
G03X1484646I-12599J0D01*
G01Y373622D02*
G03X1484646I-12599J0D01*
G01Y432677D02*
G03X1484646I-12599J0D01*
G01Y460236D02*
G03X1484646I-12599J0D01*
G01Y519291D02*
G03X1484646I-12599J0D01*
G01X405729Y494600D02*
Y489350D01*
X404457Y494600D02*
X407002D01*
X411366Y493350D02*
X411184Y493850D01*
X410820Y494350*
X410457Y494600*
X409729*
X409366Y494350*
X409002Y493850*
X408820Y493350*
X408639Y492600*
Y491350*
X408820Y490600*
X409002Y490100*
X409366Y489600*
X409729Y489350*
X410457*
X410820Y489600*
X411184Y490100*
X411366Y490600*
X413002Y494600D02*
Y489350D01*
Y494600D02*
X414639D01*
X415184Y494350*
X415366Y494100*
X415548Y493600*
Y492850*
X415366Y492350*
X415184Y492100*
X414639Y491850*
X413002*
X417184Y493600D02*
X417548Y493850D01*
X418093Y494600*
Y489350*
X523229Y494600D02*
Y489350D01*
X521957Y494600D02*
X524502D01*
X528866Y493350D02*
X528684Y493850D01*
X528320Y494350*
X527957Y494600*
X527229*
X526866Y494350*
X526502Y493850*
X526320Y493350*
X526139Y492600*
Y491350*
X526320Y490600*
X526502Y490100*
X526866Y489600*
X527229Y489350*
X527957*
X528320Y489600*
X528684Y490100*
X528866Y490600*
X530502Y494600D02*
Y489350D01*
Y494600D02*
X532139D01*
X532684Y494350*
X532866Y494100*
X533048Y493600*
Y492850*
X532866Y492350*
X532684Y492100*
X532139Y491850*
X530502*
X534866Y493350D02*
Y493600D01*
X535048Y494100*
X535229Y494350*
X535593Y494600*
X536320*
X536684Y494350*
X536866Y494100*
X537048Y493600*
Y493100*
X536866Y492600*
X536502Y491850*
X534684Y489350*
X537229*
X761957Y494600D02*
Y489350D01*
Y494600D02*
X763229D01*
X763775Y494350*
X764139Y493850*
X764320Y493350*
X764502Y492600*
Y491350*
X764320Y490600*
X764139Y490100*
X763775Y489600*
X763229Y489350*
X761957*
X766139Y494600D02*
Y489350D01*
Y494600D02*
X768502D01*
X766139Y492100D02*
X767593D01*
X766139Y489350D02*
X768502D01*
X770139Y494600D02*
Y489350D01*
Y494600D02*
X771593Y489350D01*
X773048Y494600D02*
X771593Y489350D01*
X773048Y494600D02*
Y489350D01*
X775775Y494600D02*
X775411Y494350D01*
X775048Y493850*
X774866Y493350*
X774684Y492600*
Y491350*
X774866Y490600*
X775048Y490100*
X775411Y489600*
X775775Y489350*
X776502*
X776866Y489600*
X777229Y490100*
X777411Y490600*
X777593Y491350*
Y492600*
X777411Y493350*
X777229Y493850*
X776866Y494350*
X776502Y494600*
X775775*
X779411Y493350D02*
Y493600D01*
X779593Y494100*
X779775Y494350*
X780139Y494600*
X780866*
X781229Y494350*
X781411Y494100*
X781593Y493600*
Y493100*
X781411Y492600*
X781048Y491850*
X779229Y489350*
X781775*
X879457Y494600D02*
Y489350D01*
Y494600D02*
X880729D01*
X881275Y494350*
X881639Y493850*
X881820Y493350*
X882002Y492600*
Y491350*
X881820Y490600*
X881639Y490100*
X881275Y489600*
X880729Y489350*
X879457*
X883639Y494600D02*
Y489350D01*
Y494600D02*
X886002D01*
X883639Y492100D02*
X885093D01*
X883639Y489350D02*
X886002D01*
X887639Y494600D02*
Y489350D01*
Y494600D02*
X889093Y489350D01*
X890548Y494600D02*
X889093Y489350D01*
X890548Y494600D02*
Y489350D01*
X893275Y494600D02*
X892911Y494350D01*
X892548Y493850*
X892366Y493350*
X892184Y492600*
Y491350*
X892366Y490600*
X892548Y490100*
X892911Y489600*
X893275Y489350*
X894002*
X894366Y489600*
X894729Y490100*
X894911Y490600*
X895093Y491350*
Y492600*
X894911Y493350*
X894729Y493850*
X894366Y494350*
X894002Y494600*
X893275*
X897093D02*
X899093D01*
X898002Y492600*
X898548*
X898911Y492350*
X899093Y492100*
X899275Y491350*
Y490850*
X899093Y490100*
X898729Y489600*
X898184Y489350*
X897639*
X897093Y489600*
X896911Y489850*
X896729Y490350*
X1001957Y494600D02*
Y489350D01*
Y494600D02*
X1003229D01*
X1003775Y494350*
X1004139Y493850*
X1004320Y493350*
X1004502Y492600*
Y491350*
X1004320Y490600*
X1004139Y490100*
X1003775Y489600*
X1003229Y489350*
X1001957*
X1006139Y494600D02*
Y489350D01*
Y494600D02*
X1008502D01*
X1006139Y492100D02*
X1007593D01*
X1006139Y489350D02*
X1008502D01*
X1010139Y494600D02*
Y489350D01*
Y494600D02*
X1011593Y489350D01*
X1013048Y494600D02*
X1011593Y489350D01*
X1013048Y494600D02*
Y489350D01*
X1015775Y494600D02*
X1015411Y494350D01*
X1015048Y493850*
X1014866Y493350*
X1014684Y492600*
Y491350*
X1014866Y490600*
X1015048Y490100*
X1015411Y489600*
X1015775Y489350*
X1016502*
X1016866Y489600*
X1017229Y490100*
X1017411Y490600*
X1017593Y491350*
Y492600*
X1017411Y493350*
X1017229Y493850*
X1016866Y494350*
X1016502Y494600*
X1015775*
X1021048D02*
X1019229Y491100D01*
X1021957*
X1021048Y494600D02*
Y489350D01*
X1119457Y494600D02*
Y489350D01*
Y494600D02*
X1120729D01*
X1121275Y494350*
X1121639Y493850*
X1121820Y493350*
X1122002Y492600*
Y491350*
X1121820Y490600*
X1121639Y490100*
X1121275Y489600*
X1120729Y489350*
X1119457*
X1123639Y494600D02*
Y489350D01*
Y494600D02*
X1126002D01*
X1123639Y492100D02*
X1125093D01*
X1123639Y489350D02*
X1126002D01*
X1127639Y494600D02*
Y489350D01*
Y494600D02*
X1129093Y489350D01*
X1130548Y494600D02*
X1129093Y489350D01*
X1130548Y494600D02*
Y489350D01*
X1133275Y494600D02*
X1132911Y494350D01*
X1132548Y493850*
X1132366Y493350*
X1132184Y492600*
Y491350*
X1132366Y490600*
X1132548Y490100*
X1132911Y489600*
X1133275Y489350*
X1134002*
X1134366Y489600*
X1134729Y490100*
X1134911Y490600*
X1135093Y491350*
Y492600*
X1134911Y493350*
X1134729Y493850*
X1134366Y494350*
X1134002Y494600*
X1133275*
X1139093D02*
X1137275D01*
X1137093Y492350*
X1137275Y492600*
X1137820Y492850*
X1138366*
X1138911Y492600*
X1139275Y492100*
X1139457Y491350*
X1139275Y490850*
X1139093Y490100*
X1138729Y489600*
X1138184Y489350*
X1137639*
X1137093Y489600*
X1136911Y489850*
X1136729Y490350*
X1241957Y494600D02*
Y489350D01*
Y494600D02*
X1243229D01*
X1243775Y494350*
X1244139Y493850*
X1244320Y493350*
X1244502Y492600*
Y491350*
X1244320Y490600*
X1244139Y490100*
X1243775Y489600*
X1243229Y489350*
X1241957*
X1246139Y494600D02*
Y489350D01*
Y494600D02*
X1248502D01*
X1246139Y492100D02*
X1247593D01*
X1246139Y489350D02*
X1248502D01*
X1250139Y494600D02*
Y489350D01*
Y494600D02*
X1251593Y489350D01*
X1253048Y494600D02*
X1251593Y489350D01*
X1253048Y494600D02*
Y489350D01*
X1255775Y494600D02*
X1255411Y494350D01*
X1255048Y493850*
X1254866Y493350*
X1254684Y492600*
Y491350*
X1254866Y490600*
X1255048Y490100*
X1255411Y489600*
X1255775Y489350*
X1256502*
X1256866Y489600*
X1257229Y490100*
X1257411Y490600*
X1257593Y491350*
Y492600*
X1257411Y493350*
X1257229Y493850*
X1256866Y494350*
X1256502Y494600*
X1255775*
X1261411Y493850D02*
X1261229Y494350D01*
X1260684Y494600*
X1260320*
X1259775Y494350*
X1259411Y493600*
X1259229Y492350*
Y491100*
X1259411Y490100*
X1259775Y489600*
X1260320Y489350*
X1260502*
X1261048Y489600*
X1261411Y490100*
X1261593Y490850*
Y491100*
X1261411Y491850*
X1261048Y492350*
X1260502Y492600*
X1260320*
X1259775Y492350*
X1259411Y491850*
X1259229Y491100*
X1361957Y494600D02*
Y489350D01*
Y494600D02*
X1363229D01*
X1363775Y494350*
X1364139Y493850*
X1364320Y493350*
X1364502Y492600*
Y491350*
X1364320Y490600*
X1364139Y490100*
X1363775Y489600*
X1363229Y489350*
X1361957*
X1366139Y494600D02*
Y489350D01*
Y494600D02*
X1368502D01*
X1366139Y492100D02*
X1367593D01*
X1366139Y489350D02*
X1368502D01*
X1370139Y494600D02*
Y489350D01*
Y494600D02*
X1371593Y489350D01*
X1373048Y494600D02*
X1371593Y489350D01*
X1373048Y494600D02*
Y489350D01*
X1375775Y494600D02*
X1375411Y494350D01*
X1375048Y493850*
X1374866Y493350*
X1374684Y492600*
Y491350*
X1374866Y490600*
X1375048Y490100*
X1375411Y489600*
X1375775Y489350*
X1376502*
X1376866Y489600*
X1377229Y490100*
X1377411Y490600*
X1377593Y491350*
Y492600*
X1377411Y493350*
X1377229Y493850*
X1376866Y494350*
X1376502Y494600*
X1375775*
X1381775D02*
X1379957Y489350D01*
X1379229Y494600D02*
X1381775D01*
X641957D02*
Y489350D01*
Y494600D02*
X643229D01*
X643775Y494350*
X644139Y493850*
X644320Y493350*
X644502Y492600*
Y491350*
X644320Y490600*
X644139Y490100*
X643775Y489600*
X643229Y489350*
X641957*
X646139Y494600D02*
Y489350D01*
Y494600D02*
X648502D01*
X646139Y492100D02*
X647593D01*
X646139Y489350D02*
X648502D01*
X650139Y494600D02*
Y489350D01*
Y494600D02*
X651593Y489350D01*
X653048Y494600D02*
X651593Y489350D01*
X653048Y494600D02*
Y489350D01*
X655775Y494600D02*
X655411Y494350D01*
X655048Y493850*
X654866Y493350*
X654684Y492600*
Y491350*
X654866Y490600*
X655048Y490100*
X655411Y489600*
X655775Y489350*
X656502*
X656866Y489600*
X657229Y490100*
X657411Y490600*
X657593Y491350*
Y492600*
X657411Y493350*
X657229Y493850*
X656866Y494350*
X656502Y494600*
X655775*
X659229Y493600D02*
X659593Y493850D01*
X660139Y494600*
Y489350*
X495820Y146250D02*
X497820D01*
X496729Y144250*
X497275*
X497639Y144000*
X497820Y143750*
X498002Y143000*
Y142500*
X497820Y141750*
X497457Y141250*
X496911Y141000*
X496366*
X495820Y141250*
X495639Y141500*
X495457Y142000*
X500729Y146250D02*
X500184Y146000D01*
X499820Y145250*
X499639Y144000*
Y143250*
X499820Y142000*
X500184Y141250*
X500729Y141000*
X501093*
X501639Y141250*
X502002Y142000*
X502184Y143250*
Y144000*
X502002Y145250*
X501639Y146000*
X501093Y146250*
X500729*
X507093Y147250D02*
X503820Y139250D01*
X509820Y146250D02*
X509275Y146000D01*
X508911Y145250*
X508729Y144000*
Y143250*
X508911Y142000*
X509275Y141250*
X509820Y141000*
X510184*
X510729Y141250*
X511093Y142000*
X511275Y143250*
Y144000*
X511093Y145250*
X510729Y146000*
X510184Y146250*
X509820*
X515275Y144500D02*
X515093Y143750D01*
X514729Y143250*
X514184Y143000*
X514002*
X513457Y143250*
X513093Y143750*
X512911Y144500*
Y144750*
X513093Y145500*
X513457Y146000*
X514002Y146250*
X514184*
X514729Y146000*
X515093Y145500*
X515275Y144500*
Y143250*
X515093Y142000*
X514729Y141250*
X514184Y141000*
X513820*
X513275Y141250*
X513093Y141750*
X520184Y147250D02*
X516911Y139250D01*
X522002Y145000D02*
Y145250D01*
X522184Y145750*
X522366Y146000*
X522729Y146250*
X523457*
X523820Y146000*
X524002Y145750*
X524184Y145250*
Y144750*
X524002Y144250*
X523639Y143500*
X521820Y141000*
X524366*
X527093Y146250D02*
X526548Y146000D01*
X526184Y145250*
X526002Y144000*
Y143250*
X526184Y142000*
X526548Y141250*
X527093Y141000*
X527457*
X528002Y141250*
X528366Y142000*
X528548Y143250*
Y144000*
X528366Y145250*
X528002Y146000*
X527457Y146250*
X527093*
X530366Y145000D02*
Y145250D01*
X530548Y145750*
X530729Y146000*
X531093Y146250*
X531820*
X532184Y146000*
X532366Y145750*
X532548Y145250*
Y144750*
X532366Y144250*
X532002Y143500*
X530184Y141000*
X532729*
X534729Y146250D02*
X536729D01*
X535639Y144250*
X536184*
X536548Y144000*
X536729Y143750*
X536911Y143000*
Y142500*
X536729Y141750*
X536366Y141250*
X535820Y141000*
X535275*
X534729Y141250*
X534548Y141500*
X534366Y142000*
G54D33*
X1455478Y150727D02*
Y148977D01*
X1433678*
Y150727*
X1455478*
Y237341D02*
Y235591D01*
X1433678*
Y237341*
X1455478*
Y323955D02*
Y322205D01*
X1433678*
Y323955*
X1455478*
Y410570D02*
Y408820D01*
X1433678*
Y410570*
X1455478*
Y497184D02*
Y495434D01*
X1433678*
Y497184*
X1455478*
X1483037Y150727D02*
Y148977D01*
X1461237*
Y150727*
X1483037*
Y237341D02*
Y235591D01*
X1461237*
Y237341*
X1483037*
Y323955D02*
Y322205D01*
X1461237*
Y323955*
X1483037*
Y410570D02*
Y408820D01*
X1461237*
Y410570*
X1483037*
Y497184D02*
Y495434D01*
X1461237*
Y497184*
X1483037*
G54D91*
X891457Y520581D02*
Y517300D01*
Y520581D02*
X892366Y517300D01*
X893275Y520581D02*
X892366Y517300D01*
X893275Y520581D02*
Y517300D01*
X895775Y520581D02*
X894639D01*
X894525Y519175*
X894639Y519331*
X894979Y519488*
X894979D02*
X895320D01*
X895320D02*
X895661Y519331D01*
X895889Y519019*
X896002Y518550*
X895889Y518238*
X895889D02*
X895775Y517769D01*
X895548Y517456*
X895207Y517300*
X894866*
X894525Y517456*
X894411Y517613*
X894411D02*
X894298Y517925D01*
X1371457Y520581D02*
Y517300D01*
Y520581D02*
X1372366Y517300D01*
X1373275Y520581D02*
X1372366Y517300D01*
X1373275Y520581D02*
Y517300D01*
X1374411Y519800D02*
Y519956D01*
X1374525Y520269*
X1374639Y520425*
X1374866Y520581*
X1375320*
X1375548Y520425*
X1375661Y520269*
X1375775Y519956*
Y519644*
X1375661Y519331*
X1375434Y518863*
X1375434D02*
X1374298Y517300D01*
X1375889*
X1251457Y520581D02*
Y517300D01*
Y520581D02*
X1252366Y517300D01*
X1253275Y520581D02*
X1252366Y517300D01*
X1253275Y520581D02*
Y517300D01*
X1254525Y520581D02*
X1255775D01*
X1255093Y519331*
X1255434*
X1255661Y519175*
X1255775Y519019*
X1255889Y518550*
Y518238*
X1255889D02*
X1255775Y517769D01*
X1255548Y517456*
X1255207Y517300*
X1254866*
X1254525Y517456*
X1254411Y517613*
X1254411D02*
X1254298Y517925D01*
X1131457Y520581D02*
Y517300D01*
Y520581D02*
X1132366Y517300D01*
X1133275Y520581D02*
X1132366Y517300D01*
X1133275Y520581D02*
Y517300D01*
X1135434Y520581D02*
X1134298Y518394D01*
X1136002*
X1135434Y520581D02*
Y517300D01*
X1011457Y520581D02*
Y517300D01*
Y520581D02*
X1012366Y517300D01*
X1013275Y520581D02*
X1012366Y517300D01*
X1013275Y520581D02*
Y517300D01*
X1015889Y520581D02*
X1014752Y517300D01*
X1014298Y520581D02*
X1015889D01*
X771457D02*
Y517300D01*
Y520581D02*
X772366Y517300D01*
X773275Y520581D02*
X772366Y517300D01*
X773275Y520581D02*
Y517300D01*
X774866Y520581D02*
X774525Y520425D01*
X774411Y520113*
X774411D02*
Y519800D01*
X774525Y519488*
X774525D02*
X774752Y519331D01*
X775207Y519175*
X775548Y519019*
X775775Y518706*
X775889Y518394*
Y517925*
X775775Y517613*
X775775D02*
X775661Y517456D01*
X775320Y517300*
X774866*
X774525Y517456*
X774411Y517613*
X774411D02*
X774298Y517925D01*
Y518394*
X774411Y518706*
X774639Y519019*
X774979Y519175*
X775434Y519331*
X775661Y519488*
X775661D02*
X775775Y519800D01*
Y520113*
X775775D02*
X775661Y520425D01*
X775320Y520581*
X774866*
X651457D02*
Y517300D01*
Y520581D02*
X652366Y517300D01*
X653275Y520581D02*
X652366Y517300D01*
X653275Y520581D02*
Y517300D01*
X655775Y519488D02*
X655661Y519019D01*
X655434Y518706*
X655093Y518550*
X654979*
X654639Y518706*
X654411Y519019*
X654298Y519488*
X654298D02*
Y519644D01*
X654411Y520113*
X654411D02*
X654639Y520425D01*
X654979Y520581*
X655093*
X655434Y520425*
X655661Y520113*
X655661D02*
X655775Y519488D01*
X655775D02*
Y518706D01*
X655661Y517925*
X655434Y517456*
X655093Y517300*
X654866*
X654525Y517456*
X654411Y517769*
X531457Y520581D02*
Y517300D01*
Y520581D02*
X532366Y517300D01*
X533275Y520581D02*
X532366Y517300D01*
X533275Y520581D02*
Y517300D01*
X534298Y519956D02*
X534525Y520113D01*
X534525D02*
X534866Y520581D01*
Y517300*
X536570Y520581D02*
X536229Y520425D01*
X536002Y519956*
X535889Y519175*
Y518706*
X536002Y517925*
X536229Y517456*
X536570Y517300*
X536798*
X537139Y517456*
X537366Y517925*
X537479Y518706*
Y519175*
X537366Y519956*
X537139Y520425*
X536798Y520581*
X536570*
X1371457Y119281D02*
Y116000D01*
Y119281D02*
X1372366Y116000D01*
X1373275Y119281D02*
X1372366Y116000D01*
X1373275Y119281D02*
Y116000D01*
X1374298Y118656D02*
X1374525Y118813D01*
X1374525D02*
X1374866Y119281D01*
Y116000*
X1376116Y119281D02*
X1377366D01*
X1376684Y118031*
X1377025*
X1377252Y117875*
X1377366Y117719*
X1377479Y117250*
Y116938*
X1377479D02*
X1377366Y116469D01*
X1377139Y116156*
X1376798Y116000*
X1376457*
X1376116Y116156*
X1376002Y116313*
X1376002D02*
X1375889Y116625D01*
X1251457Y119281D02*
Y116000D01*
Y119281D02*
X1252366Y116000D01*
X1253275Y119281D02*
X1252366Y116000D01*
X1253275Y119281D02*
Y116000D01*
X1254298Y118656D02*
X1254525Y118813D01*
X1254525D02*
X1254866Y119281D01*
Y116000*
X1257025Y119281D02*
X1255889Y117094D01*
X1257593*
X1257025Y119281D02*
Y116000D01*
X1131457Y119281D02*
Y116000D01*
Y119281D02*
X1132366Y116000D01*
X1133275Y119281D02*
X1132366Y116000D01*
X1133275Y119281D02*
Y116000D01*
X1134298Y118656D02*
X1134525Y118813D01*
X1134525D02*
X1134866Y119281D01*
Y116000*
X1137366Y119281D02*
X1136229D01*
X1136116Y117875*
X1136229Y118031*
X1136570Y118188*
X1136570D02*
X1136911D01*
X1136911D02*
X1137252Y118031D01*
X1137479Y117719*
X1137593Y117250*
X1137479Y116938*
X1137479D02*
X1137366Y116469D01*
X1137139Y116156*
X1136798Y116000*
X1136457*
X1136116Y116156*
X1136002Y116313*
X1136002D02*
X1135889Y116625D01*
X1011457Y119281D02*
Y116000D01*
Y119281D02*
X1012366Y116000D01*
X1013275Y119281D02*
X1012366Y116000D01*
X1013275Y119281D02*
Y116000D01*
X1014298Y118656D02*
X1014525Y118813D01*
X1014525D02*
X1014866Y119281D01*
Y116000*
X1017252Y118813D02*
X1017139Y119125D01*
X1016798Y119281*
X1016570*
X1016229Y119125*
X1016002Y118656*
X1015889Y117875*
Y117094*
X1016002Y116469*
X1016229Y116156*
X1016570Y116000*
X1016684*
X1017025Y116156*
X1017252Y116469*
X1017366Y116938*
X1017366D02*
Y117094D01*
X1017252Y117563*
X1017252D02*
X1017025Y117875D01*
X1016684Y118031*
X1016570*
X1016229Y117875*
X1016002Y117563*
X1016002D02*
X1015889Y117094D01*
X891457Y119281D02*
Y116000D01*
Y119281D02*
X892366Y116000D01*
X893275Y119281D02*
X892366Y116000D01*
X893275Y119281D02*
Y116000D01*
X894298Y118656D02*
X894525Y118813D01*
X894525D02*
X894866Y119281D01*
Y116000*
X897479Y119281D02*
X896343Y116000D01*
X895889Y119281D02*
X897479D01*
X771457D02*
Y116000D01*
Y119281D02*
X772366Y116000D01*
X773275Y119281D02*
X772366Y116000D01*
X773275Y119281D02*
Y116000D01*
X774298Y118656D02*
X774525Y118813D01*
X774525D02*
X774866Y119281D01*
Y116000*
X776457Y119281D02*
X776116Y119125D01*
X776002Y118813*
X776002D02*
Y118500D01*
X776116Y118188*
X776116D02*
X776343Y118031D01*
X776798Y117875*
X777139Y117719*
X777366Y117406*
X777479Y117094*
Y116625*
X777366Y116313*
X777366D02*
X777252Y116156D01*
X776911Y116000*
X776457*
X776116Y116156*
X776002Y116313*
X776002D02*
X775889Y116625D01*
Y117094*
X776002Y117406*
X776229Y117719*
X776570Y117875*
X777025Y118031*
X777252Y118188*
X777252D02*
X777366Y118500D01*
Y118813*
X777366D02*
X777252Y119125D01*
X776911Y119281*
X776457*
X651457D02*
Y116000D01*
Y119281D02*
X652366Y116000D01*
X653275Y119281D02*
X652366Y116000D01*
X653275Y119281D02*
Y116000D01*
X654298Y118656D02*
X654525Y118813D01*
X654525D02*
X654866Y119281D01*
Y116000*
X657366Y118188D02*
X657252Y117719D01*
X657025Y117406*
X656684Y117250*
X656570*
X656229Y117406*
X656002Y117719*
X655889Y118188*
X655889D02*
Y118344D01*
X656002Y118813*
X656002D02*
X656229Y119125D01*
X656570Y119281*
X656684*
X657025Y119125*
X657252Y118813*
X657252D02*
X657366Y118188D01*
X657366D02*
Y117406D01*
X657252Y116625*
X657025Y116156*
X656684Y116000*
X656457*
X656116Y116156*
X656002Y116469*
X531457Y119281D02*
Y116000D01*
Y119281D02*
X532366Y116000D01*
X533275Y119281D02*
X532366Y116000D01*
X533275Y119281D02*
Y116000D01*
X534411Y118500D02*
Y118656D01*
X534525Y118969*
X534639Y119125*
X534866Y119281*
X535320*
X535548Y119125*
X535661Y118969*
X535775Y118656*
Y118344*
X535661Y118031*
X535434Y117563*
X535434D02*
X534298Y116000D01*
X535889*
X537593Y119281D02*
X537252Y119125D01*
X537025Y118656*
X536911Y117875*
Y117406*
X537025Y116625*
X537252Y116156*
X537593Y116000*
X537820*
X538161Y116156*
X538389Y116625*
X538502Y117406*
Y117875*
X538389Y118656*
X538161Y119125*
X537820Y119281*
X537593*
X411457D02*
Y116000D01*
Y119281D02*
X412366Y116000D01*
X413275Y119281D02*
X412366Y116000D01*
X413275Y119281D02*
Y116000D01*
X414411Y118500D02*
Y118656D01*
X414525Y118969*
X414639Y119125*
X414866Y119281*
X415320*
X415548Y119125*
X415661Y118969*
X415775Y118656*
Y118344*
X415661Y118031*
X415434Y117563*
X415434D02*
X414298Y116000D01*
X415889*
X417025Y118500D02*
Y118656D01*
X417139Y118969*
X417252Y119125*
X417479Y119281*
X417934*
X418161Y119125*
X418275Y118969*
X418389Y118656*
Y118344*
X418275Y118031*
X418048Y117563*
X418048D02*
X416911Y116000D01*
X418502*
X411457Y520581D02*
Y517300D01*
Y520581D02*
X412366Y517300D01*
X413275Y520581D02*
X412366Y517300D01*
X413275Y520581D02*
Y517300D01*
X414411Y519800D02*
Y519956D01*
X414525Y520269*
X414639Y520425*
X414866Y520581*
X415320*
X415548Y520425*
X415661Y520269*
X415775Y519956*
Y519644*
X415661Y519331*
X415434Y518863*
X415434D02*
X414298Y517300D01*
X415889*
X417139Y520581D02*
X418389D01*
X417707Y519331*
X418048*
X418275Y519175*
X418389Y519019*
X418502Y518550*
Y518238*
X418502D02*
X418389Y517769D01*
X418161Y517456*
X417820Y517300*
X417479*
X417139Y517456*
X417025Y517613*
X417025D02*
X416911Y517925D01*
G54D92*
X389457Y484252D02*
Y259448D01*
X429457*
Y484252*
X389457*
Y286850D02*
X429457D01*
X389457Y456850D02*
X429457D01*
X509457Y484252D02*
Y259448D01*
X549457*
Y484252*
X509457*
Y286850D02*
X549457D01*
X509457Y456850D02*
X549457D01*
X749457Y484252D02*
Y259448D01*
X789457*
Y484252*
X749457*
Y286850D02*
X789457D01*
X749457Y456850D02*
X789457D01*
X869457Y484252D02*
Y259448D01*
X909457*
Y484252*
X869457*
Y286850D02*
X909457D01*
X869457Y456850D02*
X909457D01*
X989457Y484252D02*
Y259448D01*
X1029457*
Y484252*
X989457*
Y286850D02*
X1029457D01*
X989457Y456850D02*
X1029457D01*
X1109457Y484252D02*
Y259448D01*
X1149457*
Y484252*
X1109457*
Y286850D02*
X1149457D01*
X1109457Y456850D02*
X1149457D01*
X1229457Y484252D02*
Y259448D01*
X1269457*
Y484252*
X1229457*
Y286850D02*
X1269457D01*
X1229457Y456850D02*
X1269457D01*
X1349457Y484252D02*
Y259448D01*
X1389457*
Y484252*
X1349457*
Y286850D02*
X1389457D01*
X1349457Y456850D02*
X1389457D01*
X1436614Y157087D02*
X1432677D01*
Y129528*
X1436614*
X1452362Y157087D02*
X1456299D01*
Y129528*
X1452362*
X1436614Y243701D02*
X1432677D01*
Y216142*
X1436614*
X1452362Y243701D02*
X1456299D01*
Y216142*
X1452362*
X1436614Y330315D02*
X1432677D01*
Y302756*
X1436614*
X1452362Y330315D02*
X1456299D01*
Y302756*
X1452362*
X1436614Y416929D02*
X1432677D01*
Y389370*
X1436614*
X1452362Y416929D02*
X1456299D01*
Y389370*
X1452362*
X1436614Y503543D02*
X1432677D01*
Y475984*
X1436614*
X1452362Y503543D02*
X1456299D01*
Y475984*
X1452362*
X629457Y484252D02*
Y259448D01*
X669457*
Y484252*
X629457*
Y286850D02*
X669457D01*
X629457Y456850D02*
X669457D01*
X1464173Y157087D02*
X1460236D01*
Y129528*
X1464173*
X1479921Y157087D02*
X1483858D01*
Y129528*
X1479921*
X1464173Y243701D02*
X1460236D01*
Y216142*
X1464173*
X1479921Y243701D02*
X1483858D01*
Y216142*
X1479921*
X1464173Y330315D02*
X1460236D01*
Y302756*
X1464173*
X1479921Y330315D02*
X1483858D01*
Y302756*
X1479921*
X1464173Y416929D02*
X1460236D01*
Y389370*
X1464173*
X1479921Y416929D02*
X1483858D01*
Y389370*
X1479921*
X1464173Y503543D02*
X1460236D01*
Y475984*
X1464173*
X1479921Y503543D02*
X1483858D01*
Y475984*
X1479921*
X422207Y477705D02*
X427457Y476250D01*
X422207Y477705D02*
X427457Y479159D01*
X425707Y476795D02*
Y478614D01*
X423207Y480795D02*
X422957Y481159D01*
X422207Y481705*
X427457*
X392757Y264677D02*
X392257Y264495D01*
X391757Y264132*
X391507Y263768*
Y263041*
X391757Y262677*
X392257Y262314*
X392757Y262132*
X393507Y261950*
X394757*
X395507Y262132*
X396007Y262314*
X396507Y262677*
X396757Y263041*
Y263768*
X396507Y264132*
X396007Y264495*
X395507Y264677*
X392507Y266314D02*
X392257Y266677D01*
X391507Y267223*
X396757*
X392257Y271041D02*
X391757Y270859D01*
X391507Y270314*
Y269950*
X391757Y269405*
X392507Y269041*
X393757Y268859*
X395007*
X396007Y269041*
X396507Y269405*
X396757Y269950*
Y270132*
X396507Y270677*
X396007Y271041*
X395257Y271223*
X395007*
X394257Y271041*
X393757Y270677*
X393507Y270132*
Y269950*
X393757Y269405*
X394257Y269041*
X395007Y268859*
X421807Y264505D02*
X427057Y263050D01*
X421807Y264505D02*
X427057Y265959D01*
X425307Y263595D02*
Y265414D01*
X422807Y267595D02*
X422557Y267959D01*
X421807Y268505*
X427057*
X422557Y272323D02*
X422057Y272141D01*
X421807Y271595*
Y271232*
X422057Y270686*
X422807Y270323*
X424057Y270141*
X425307*
X426307Y270323*
X426807Y270686*
X427057Y271232*
Y271414*
X426807Y271959*
X426307Y272323*
X425557Y272505*
X425307*
X424557Y272323*
X424057Y271959*
X423807Y271414*
Y271232*
X424057Y270686*
X424557Y270323*
X425307Y270141*
X392757Y478877D02*
X392257Y478695D01*
X391757Y478332*
X391507Y477968*
Y477241*
X391757Y476877*
X392257Y476514*
X392757Y476332*
X393507Y476150*
X394757*
X395507Y476332*
X396007Y476514*
X396507Y476877*
X396757Y477241*
Y477968*
X396507Y478332*
X396007Y478695*
X395507Y478877*
X392507Y480514D02*
X392257Y480877D01*
X391507Y481423*
X396757*
X542207Y477705D02*
X547457Y476250D01*
X542207Y477705D02*
X547457Y479159D01*
X545707Y476795D02*
Y478614D01*
X543207Y480795D02*
X542957Y481159D01*
X542207Y481705*
X547457*
X512757Y264677D02*
X512257Y264495D01*
X511757Y264132*
X511507Y263768*
Y263041*
X511757Y262677*
X512257Y262314*
X512757Y262132*
X513507Y261950*
X514757*
X515507Y262132*
X516007Y262314*
X516507Y262677*
X516757Y263041*
Y263768*
X516507Y264132*
X516007Y264495*
X515507Y264677*
X512507Y266314D02*
X512257Y266677D01*
X511507Y267223*
X516757*
X512257Y271041D02*
X511757Y270859D01*
X511507Y270314*
Y269950*
X511757Y269405*
X512507Y269041*
X513757Y268859*
X515007*
X516007Y269041*
X516507Y269405*
X516757Y269950*
Y270132*
X516507Y270677*
X516007Y271041*
X515257Y271223*
X515007*
X514257Y271041*
X513757Y270677*
X513507Y270132*
Y269950*
X513757Y269405*
X514257Y269041*
X515007Y268859*
X541807Y264505D02*
X547057Y263050D01*
X541807Y264505D02*
X547057Y265959D01*
X545307Y263595D02*
Y265414D01*
X542807Y267595D02*
X542557Y267959D01*
X541807Y268505*
X547057*
X542557Y272323D02*
X542057Y272141D01*
X541807Y271595*
Y271232*
X542057Y270686*
X542807Y270323*
X544057Y270141*
X545307*
X546307Y270323*
X546807Y270686*
X547057Y271232*
Y271414*
X546807Y271959*
X546307Y272323*
X545557Y272505*
X545307*
X544557Y272323*
X544057Y271959*
X543807Y271414*
Y271232*
X544057Y270686*
X544557Y270323*
X545307Y270141*
X512757Y478877D02*
X512257Y478695D01*
X511757Y478332*
X511507Y477968*
Y477241*
X511757Y476877*
X512257Y476514*
X512757Y476332*
X513507Y476150*
X514757*
X515507Y476332*
X516007Y476514*
X516507Y476877*
X516757Y477241*
Y477968*
X516507Y478332*
X516007Y478695*
X515507Y478877*
X512507Y480514D02*
X512257Y480877D01*
X511507Y481423*
X516757*
X782207Y477705D02*
X787457Y476250D01*
X782207Y477705D02*
X787457Y479159D01*
X785707Y476795D02*
Y478614D01*
X783207Y480795D02*
X782957Y481159D01*
X782207Y481705*
X787457*
X752757Y264677D02*
X752257Y264495D01*
X751757Y264132*
X751507Y263768*
Y263041*
X751757Y262677*
X752257Y262314*
X752757Y262132*
X753507Y261950*
X754757*
X755507Y262132*
X756007Y262314*
X756507Y262677*
X756757Y263041*
Y263768*
X756507Y264132*
X756007Y264495*
X755507Y264677*
X752507Y266314D02*
X752257Y266677D01*
X751507Y267223*
X756757*
X752257Y271041D02*
X751757Y270859D01*
X751507Y270314*
Y269950*
X751757Y269405*
X752507Y269041*
X753757Y268859*
X755007*
X756007Y269041*
X756507Y269405*
X756757Y269950*
Y270132*
X756507Y270677*
X756007Y271041*
X755257Y271223*
X755007*
X754257Y271041*
X753757Y270677*
X753507Y270132*
Y269950*
X753757Y269405*
X754257Y269041*
X755007Y268859*
X781807Y264505D02*
X787057Y263050D01*
X781807Y264505D02*
X787057Y265959D01*
X785307Y263595D02*
Y265414D01*
X782807Y267595D02*
X782557Y267959D01*
X781807Y268505*
X787057*
X782557Y272323D02*
X782057Y272141D01*
X781807Y271595*
Y271232*
X782057Y270686*
X782807Y270323*
X784057Y270141*
X785307*
X786307Y270323*
X786807Y270686*
X787057Y271232*
Y271414*
X786807Y271959*
X786307Y272323*
X785557Y272505*
X785307*
X784557Y272323*
X784057Y271959*
X783807Y271414*
Y271232*
X784057Y270686*
X784557Y270323*
X785307Y270141*
X752757Y478877D02*
X752257Y478695D01*
X751757Y478332*
X751507Y477968*
Y477241*
X751757Y476877*
X752257Y476514*
X752757Y476332*
X753507Y476150*
X754757*
X755507Y476332*
X756007Y476514*
X756507Y476877*
X756757Y477241*
Y477968*
X756507Y478332*
X756007Y478695*
X755507Y478877*
X752507Y480514D02*
X752257Y480877D01*
X751507Y481423*
X756757*
X902207Y477705D02*
X907457Y476250D01*
X902207Y477705D02*
X907457Y479159D01*
X905707Y476795D02*
Y478614D01*
X903207Y480795D02*
X902957Y481159D01*
X902207Y481705*
X907457*
X872757Y264677D02*
X872257Y264495D01*
X871757Y264132*
X871507Y263768*
Y263041*
X871757Y262677*
X872257Y262314*
X872757Y262132*
X873507Y261950*
X874757*
X875507Y262132*
X876007Y262314*
X876507Y262677*
X876757Y263041*
Y263768*
X876507Y264132*
X876007Y264495*
X875507Y264677*
X872507Y266314D02*
X872257Y266677D01*
X871507Y267223*
X876757*
X872257Y271041D02*
X871757Y270859D01*
X871507Y270314*
Y269950*
X871757Y269405*
X872507Y269041*
X873757Y268859*
X875007*
X876007Y269041*
X876507Y269405*
X876757Y269950*
Y270132*
X876507Y270677*
X876007Y271041*
X875257Y271223*
X875007*
X874257Y271041*
X873757Y270677*
X873507Y270132*
Y269950*
X873757Y269405*
X874257Y269041*
X875007Y268859*
X901807Y264505D02*
X907057Y263050D01*
X901807Y264505D02*
X907057Y265959D01*
X905307Y263595D02*
Y265414D01*
X902807Y267595D02*
X902557Y267959D01*
X901807Y268505*
X907057*
X902557Y272323D02*
X902057Y272141D01*
X901807Y271595*
Y271232*
X902057Y270686*
X902807Y270323*
X904057Y270141*
X905307*
X906307Y270323*
X906807Y270686*
X907057Y271232*
Y271414*
X906807Y271959*
X906307Y272323*
X905557Y272505*
X905307*
X904557Y272323*
X904057Y271959*
X903807Y271414*
Y271232*
X904057Y270686*
X904557Y270323*
X905307Y270141*
X872757Y478877D02*
X872257Y478695D01*
X871757Y478332*
X871507Y477968*
Y477241*
X871757Y476877*
X872257Y476514*
X872757Y476332*
X873507Y476150*
X874757*
X875507Y476332*
X876007Y476514*
X876507Y476877*
X876757Y477241*
Y477968*
X876507Y478332*
X876007Y478695*
X875507Y478877*
X872507Y480514D02*
X872257Y480877D01*
X871507Y481423*
X876757*
X1022207Y477705D02*
X1027457Y476250D01*
X1022207Y477705D02*
X1027457Y479159D01*
X1025707Y476795D02*
Y478614D01*
X1023207Y480795D02*
X1022957Y481159D01*
X1022207Y481705*
X1027457*
X992757Y264677D02*
X992257Y264495D01*
X991757Y264132*
X991507Y263768*
Y263041*
X991757Y262677*
X992257Y262314*
X992757Y262132*
X993507Y261950*
X994757*
X995507Y262132*
X996007Y262314*
X996507Y262677*
X996757Y263041*
Y263768*
X996507Y264132*
X996007Y264495*
X995507Y264677*
X992507Y266314D02*
X992257Y266677D01*
X991507Y267223*
X996757*
X992257Y271041D02*
X991757Y270859D01*
X991507Y270314*
Y269950*
X991757Y269405*
X992507Y269041*
X993757Y268859*
X995007*
X996007Y269041*
X996507Y269405*
X996757Y269950*
Y270132*
X996507Y270677*
X996007Y271041*
X995257Y271223*
X995007*
X994257Y271041*
X993757Y270677*
X993507Y270132*
Y269950*
X993757Y269405*
X994257Y269041*
X995007Y268859*
X1021807Y264505D02*
X1027057Y263050D01*
X1021807Y264505D02*
X1027057Y265959D01*
X1025307Y263595D02*
Y265414D01*
X1022807Y267595D02*
X1022557Y267959D01*
X1021807Y268505*
X1027057*
X1022557Y272323D02*
X1022057Y272141D01*
X1021807Y271595*
Y271232*
X1022057Y270686*
X1022807Y270323*
X1024057Y270141*
X1025307*
X1026307Y270323*
X1026807Y270686*
X1027057Y271232*
Y271414*
X1026807Y271959*
X1026307Y272323*
X1025557Y272505*
X1025307*
X1024557Y272323*
X1024057Y271959*
X1023807Y271414*
Y271232*
X1024057Y270686*
X1024557Y270323*
X1025307Y270141*
X992757Y478877D02*
X992257Y478695D01*
X991757Y478332*
X991507Y477968*
Y477241*
X991757Y476877*
X992257Y476514*
X992757Y476332*
X993507Y476150*
X994757*
X995507Y476332*
X996007Y476514*
X996507Y476877*
X996757Y477241*
Y477968*
X996507Y478332*
X996007Y478695*
X995507Y478877*
X992507Y480514D02*
X992257Y480877D01*
X991507Y481423*
X996757*
X1142207Y477705D02*
X1147457Y476250D01*
X1142207Y477705D02*
X1147457Y479159D01*
X1145707Y476795D02*
Y478614D01*
X1143207Y480795D02*
X1142957Y481159D01*
X1142207Y481705*
X1147457*
X1112757Y264677D02*
X1112257Y264495D01*
X1111757Y264132*
X1111507Y263768*
Y263041*
X1111757Y262677*
X1112257Y262314*
X1112757Y262132*
X1113507Y261950*
X1114757*
X1115507Y262132*
X1116007Y262314*
X1116507Y262677*
X1116757Y263041*
Y263768*
X1116507Y264132*
X1116007Y264495*
X1115507Y264677*
X1112507Y266314D02*
X1112257Y266677D01*
X1111507Y267223*
X1116757*
X1112257Y271041D02*
X1111757Y270859D01*
X1111507Y270314*
Y269950*
X1111757Y269405*
X1112507Y269041*
X1113757Y268859*
X1115007*
X1116007Y269041*
X1116507Y269405*
X1116757Y269950*
Y270132*
X1116507Y270677*
X1116007Y271041*
X1115257Y271223*
X1115007*
X1114257Y271041*
X1113757Y270677*
X1113507Y270132*
Y269950*
X1113757Y269405*
X1114257Y269041*
X1115007Y268859*
X1141807Y264505D02*
X1147057Y263050D01*
X1141807Y264505D02*
X1147057Y265959D01*
X1145307Y263595D02*
Y265414D01*
X1142807Y267595D02*
X1142557Y267959D01*
X1141807Y268505*
X1147057*
X1142557Y272323D02*
X1142057Y272141D01*
X1141807Y271595*
Y271232*
X1142057Y270686*
X1142807Y270323*
X1144057Y270141*
X1145307*
X1146307Y270323*
X1146807Y270686*
X1147057Y271232*
Y271414*
X1146807Y271959*
X1146307Y272323*
X1145557Y272505*
X1145307*
X1144557Y272323*
X1144057Y271959*
X1143807Y271414*
Y271232*
X1144057Y270686*
X1144557Y270323*
X1145307Y270141*
X1112757Y478877D02*
X1112257Y478695D01*
X1111757Y478332*
X1111507Y477968*
Y477241*
X1111757Y476877*
X1112257Y476514*
X1112757Y476332*
X1113507Y476150*
X1114757*
X1115507Y476332*
X1116007Y476514*
X1116507Y476877*
X1116757Y477241*
Y477968*
X1116507Y478332*
X1116007Y478695*
X1115507Y478877*
X1112507Y480514D02*
X1112257Y480877D01*
X1111507Y481423*
X1116757*
X1262207Y477705D02*
X1267457Y476250D01*
X1262207Y477705D02*
X1267457Y479159D01*
X1265707Y476795D02*
Y478614D01*
X1263207Y480795D02*
X1262957Y481159D01*
X1262207Y481705*
X1267457*
X1232757Y264677D02*
X1232257Y264495D01*
X1231757Y264132*
X1231507Y263768*
Y263041*
X1231757Y262677*
X1232257Y262314*
X1232757Y262132*
X1233507Y261950*
X1234757*
X1235507Y262132*
X1236007Y262314*
X1236507Y262677*
X1236757Y263041*
Y263768*
X1236507Y264132*
X1236007Y264495*
X1235507Y264677*
X1232507Y266314D02*
X1232257Y266677D01*
X1231507Y267223*
X1236757*
X1232257Y271041D02*
X1231757Y270859D01*
X1231507Y270314*
Y269950*
X1231757Y269405*
X1232507Y269041*
X1233757Y268859*
X1235007*
X1236007Y269041*
X1236507Y269405*
X1236757Y269950*
Y270132*
X1236507Y270677*
X1236007Y271041*
X1235257Y271223*
X1235007*
X1234257Y271041*
X1233757Y270677*
X1233507Y270132*
Y269950*
X1233757Y269405*
X1234257Y269041*
X1235007Y268859*
X1261807Y264505D02*
X1267057Y263050D01*
X1261807Y264505D02*
X1267057Y265959D01*
X1265307Y263595D02*
Y265414D01*
X1262807Y267595D02*
X1262557Y267959D01*
X1261807Y268505*
X1267057*
X1262557Y272323D02*
X1262057Y272141D01*
X1261807Y271595*
Y271232*
X1262057Y270686*
X1262807Y270323*
X1264057Y270141*
X1265307*
X1266307Y270323*
X1266807Y270686*
X1267057Y271232*
Y271414*
X1266807Y271959*
X1266307Y272323*
X1265557Y272505*
X1265307*
X1264557Y272323*
X1264057Y271959*
X1263807Y271414*
Y271232*
X1264057Y270686*
X1264557Y270323*
X1265307Y270141*
X1232757Y478877D02*
X1232257Y478695D01*
X1231757Y478332*
X1231507Y477968*
Y477241*
X1231757Y476877*
X1232257Y476514*
X1232757Y476332*
X1233507Y476150*
X1234757*
X1235507Y476332*
X1236007Y476514*
X1236507Y476877*
X1236757Y477241*
Y477968*
X1236507Y478332*
X1236007Y478695*
X1235507Y478877*
X1232507Y480514D02*
X1232257Y480877D01*
X1231507Y481423*
X1236757*
X1382207Y477705D02*
X1387457Y476250D01*
X1382207Y477705D02*
X1387457Y479159D01*
X1385707Y476795D02*
Y478614D01*
X1383207Y480795D02*
X1382957Y481159D01*
X1382207Y481705*
X1387457*
X1352757Y264677D02*
X1352257Y264495D01*
X1351757Y264132*
X1351507Y263768*
Y263041*
X1351757Y262677*
X1352257Y262314*
X1352757Y262132*
X1353507Y261950*
X1354757*
X1355507Y262132*
X1356007Y262314*
X1356507Y262677*
X1356757Y263041*
Y263768*
X1356507Y264132*
X1356007Y264495*
X1355507Y264677*
X1352507Y266314D02*
X1352257Y266677D01*
X1351507Y267223*
X1356757*
X1352257Y271041D02*
X1351757Y270859D01*
X1351507Y270314*
Y269950*
X1351757Y269405*
X1352507Y269041*
X1353757Y268859*
X1355007*
X1356007Y269041*
X1356507Y269405*
X1356757Y269950*
Y270132*
X1356507Y270677*
X1356007Y271041*
X1355257Y271223*
X1355007*
X1354257Y271041*
X1353757Y270677*
X1353507Y270132*
Y269950*
X1353757Y269405*
X1354257Y269041*
X1355007Y268859*
X1381807Y264505D02*
X1387057Y263050D01*
X1381807Y264505D02*
X1387057Y265959D01*
X1385307Y263595D02*
Y265414D01*
X1382807Y267595D02*
X1382557Y267959D01*
X1381807Y268505*
X1387057*
X1382557Y272323D02*
X1382057Y272141D01*
X1381807Y271595*
Y271232*
X1382057Y270686*
X1382807Y270323*
X1384057Y270141*
X1385307*
X1386307Y270323*
X1386807Y270686*
X1387057Y271232*
Y271414*
X1386807Y271959*
X1386307Y272323*
X1385557Y272505*
X1385307*
X1384557Y272323*
X1384057Y271959*
X1383807Y271414*
Y271232*
X1384057Y270686*
X1384557Y270323*
X1385307Y270141*
X1352757Y478877D02*
X1352257Y478695D01*
X1351757Y478332*
X1351507Y477968*
Y477241*
X1351757Y476877*
X1352257Y476514*
X1352757Y476332*
X1353507Y476150*
X1354757*
X1355507Y476332*
X1356007Y476514*
X1356507Y476877*
X1356757Y477241*
Y477968*
X1356507Y478332*
X1356007Y478695*
X1355507Y478877*
X1352507Y480514D02*
X1352257Y480877D01*
X1351507Y481423*
X1356757*
X662207Y477705D02*
X667457Y476250D01*
X662207Y477705D02*
X667457Y479159D01*
X665707Y476795D02*
Y478614D01*
X663207Y480795D02*
X662957Y481159D01*
X662207Y481705*
X667457*
X632757Y264677D02*
X632257Y264495D01*
X631757Y264132*
X631507Y263768*
Y263041*
X631757Y262677*
X632257Y262314*
X632757Y262132*
X633507Y261950*
X634757*
X635507Y262132*
X636007Y262314*
X636507Y262677*
X636757Y263041*
Y263768*
X636507Y264132*
X636007Y264495*
X635507Y264677*
X632507Y266314D02*
X632257Y266677D01*
X631507Y267223*
X636757*
X632257Y271041D02*
X631757Y270859D01*
X631507Y270314*
Y269950*
X631757Y269405*
X632507Y269041*
X633757Y268859*
X635007*
X636007Y269041*
X636507Y269405*
X636757Y269950*
Y270132*
X636507Y270677*
X636007Y271041*
X635257Y271223*
X635007*
X634257Y271041*
X633757Y270677*
X633507Y270132*
Y269950*
X633757Y269405*
X634257Y269041*
X635007Y268859*
X661807Y264505D02*
X667057Y263050D01*
X661807Y264505D02*
X667057Y265959D01*
X665307Y263595D02*
Y265414D01*
X662807Y267595D02*
X662557Y267959D01*
X661807Y268505*
X667057*
X662557Y272323D02*
X662057Y272141D01*
X661807Y271595*
Y271232*
X662057Y270686*
X662807Y270323*
X664057Y270141*
X665307*
X666307Y270323*
X666807Y270686*
X667057Y271232*
Y271414*
X666807Y271959*
X666307Y272323*
X665557Y272505*
X665307*
X664557Y272323*
X664057Y271959*
X663807Y271414*
Y271232*
X664057Y270686*
X664557Y270323*
X665307Y270141*
X632757Y478877D02*
X632257Y478695D01*
X631757Y478332*
X631507Y477968*
Y477241*
X631757Y476877*
X632257Y476514*
X632757Y476332*
X633507Y476150*
X634757*
X635507Y476332*
X636007Y476514*
X636507Y476877*
X636757Y477241*
Y477968*
X636507Y478332*
X636007Y478695*
X635507Y478877*
X632507Y480514D02*
X632257Y480877D01*
X631507Y481423*
X636757*
X1432271Y124400D02*
X1436209D01*
X1432271D02*
Y125355D01*
X1432459Y125764*
X1432834Y126036*
X1433209Y126173*
X1433771Y126309*
X1434709*
X1435271Y126173*
X1435646Y126036*
X1436021Y125764*
X1436209Y125355*
Y124400*
X1433021Y127536D02*
X1432834Y127809D01*
X1432271Y128218*
X1436209*
X1452171Y125164D02*
X1455171D01*
X1455734Y125027*
X1455921Y124891*
X1456109Y124618*
Y124345*
X1455921Y124073*
X1455734Y123936*
X1455171Y123800*
X1454796*
X1453109Y126527D02*
X1452921D01*
X1452546Y126664*
X1452359Y126800*
X1452171Y127073*
Y127618*
X1452359Y127891*
X1452546Y128027*
X1452921Y128164*
X1453296*
X1453671Y128027*
X1454234Y127755*
X1456109Y126391*
Y128300*
X1452371Y159364D02*
X1455371D01*
X1455934Y159227*
X1456121Y159091*
X1456309Y158818*
Y158545*
X1456121Y158273*
X1455934Y158136*
X1455371Y158000*
X1454996*
X1453121Y160591D02*
X1452934Y160864D01*
X1452371Y161273*
X1456309*
X1432271Y211014D02*
X1436209D01*
X1432271D02*
Y211969D01*
X1432459Y212378*
X1432834Y212651*
X1433209Y212787*
X1433771Y212923*
X1434709*
X1435271Y212787*
X1435646Y212651*
X1436021Y212378*
X1436209Y211969*
Y211014*
X1433021Y214151D02*
X1432834Y214423D01*
X1432271Y214832*
X1436209*
X1452171Y211778D02*
X1455171D01*
X1455734Y211641*
X1455921Y211505*
X1456109Y211232*
Y210960*
X1455921Y210687*
X1455734Y210551*
X1455171Y210414*
X1454796*
X1453109Y213141D02*
X1452921D01*
X1452546Y213278*
X1452359Y213414*
X1452171Y213687*
Y214232*
X1452359Y214505*
X1452546Y214641*
X1452921Y214778*
X1453296*
X1453671Y214641*
X1454234Y214369*
X1456109Y213005*
Y214914*
X1452371Y245978D02*
X1455371D01*
X1455934Y245841*
X1456121Y245705*
X1456309Y245432*
Y245160*
X1456121Y244887*
X1455934Y244751*
X1455371Y244614*
X1454996*
X1453121Y247205D02*
X1452934Y247478D01*
X1452371Y247887*
X1456309*
X1432271Y297628D02*
X1436209D01*
X1432271D02*
Y298583D01*
X1432459Y298992*
X1432834Y299265*
X1433209Y299401*
X1433771Y299537*
X1434709*
X1435271Y299401*
X1435646Y299265*
X1436021Y298992*
X1436209Y298583*
Y297628*
X1433021Y300765D02*
X1432834Y301037D01*
X1432271Y301447*
X1436209*
X1452171Y298392D02*
X1455171D01*
X1455734Y298256*
X1455921Y298119*
X1456109Y297847*
Y297574*
X1455921Y297301*
X1455734Y297165*
X1455171Y297028*
X1454796*
X1453109Y299756D02*
X1452921D01*
X1452546Y299892*
X1452359Y300028*
X1452171Y300301*
Y300847*
X1452359Y301119*
X1452546Y301256*
X1452921Y301392*
X1453296*
X1453671Y301256*
X1454234Y300983*
X1456109Y299619*
Y301528*
X1452371Y332592D02*
X1455371D01*
X1455934Y332456*
X1456121Y332319*
X1456309Y332047*
Y331774*
X1456121Y331501*
X1455934Y331365*
X1455371Y331228*
X1454996*
X1453121Y333819D02*
X1452934Y334092D01*
X1452371Y334501*
X1456309*
X1432271Y384243D02*
X1436209D01*
X1432271D02*
Y385197D01*
X1432459Y385606*
X1432834Y385879*
X1433209Y386015*
X1433771Y386152*
X1434709*
X1435271Y386015*
X1435646Y385879*
X1436021Y385606*
X1436209Y385197*
Y384243*
X1433021Y387379D02*
X1432834Y387652D01*
X1432271Y388061*
X1436209*
X1452171Y385006D02*
X1455171D01*
X1455734Y384870*
X1455921Y384733*
X1456109Y384461*
Y384188*
X1455921Y383915*
X1455734Y383779*
X1455171Y383643*
X1454796*
X1453109Y386370D02*
X1452921D01*
X1452546Y386506*
X1452359Y386643*
X1452171Y386915*
Y387461*
X1452359Y387733*
X1452546Y387870*
X1452921Y388006*
X1453296*
X1453671Y387870*
X1454234Y387597*
X1456109Y386233*
Y388143*
X1452371Y419206D02*
X1455371D01*
X1455934Y419070*
X1456121Y418933*
X1456309Y418661*
Y418388*
X1456121Y418115*
X1455934Y417979*
X1455371Y417843*
X1454996*
X1453121Y420433D02*
X1452934Y420706D01*
X1452371Y421115*
X1456309*
X1432271Y470857D02*
X1436209D01*
X1432271D02*
Y471811D01*
X1432459Y472220*
X1432834Y472493*
X1433209Y472629*
X1433771Y472766*
X1434709*
X1435271Y472629*
X1435646Y472493*
X1436021Y472220*
X1436209Y471811*
Y470857*
X1433021Y473993D02*
X1432834Y474266D01*
X1432271Y474675*
X1436209*
X1452171Y471620D02*
X1455171D01*
X1455734Y471484*
X1455921Y471348*
X1456109Y471075*
Y470802*
X1455921Y470529*
X1455734Y470393*
X1455171Y470257*
X1454796*
X1453109Y472984D02*
X1452921D01*
X1452546Y473120*
X1452359Y473257*
X1452171Y473529*
Y474075*
X1452359Y474348*
X1452546Y474484*
X1452921Y474620*
X1453296*
X1453671Y474484*
X1454234Y474211*
X1456109Y472848*
Y474757*
X1452371Y505820D02*
X1455371D01*
X1455934Y505684*
X1456121Y505548*
X1456309Y505275*
Y505002*
X1456121Y504729*
X1455934Y504593*
X1455371Y504457*
X1454996*
X1453121Y507048D02*
X1452934Y507320D01*
X1452371Y507729*
X1456309*
X1459830Y124400D02*
X1463768D01*
X1459830D02*
Y125355D01*
X1460018Y125764*
X1460393Y126036*
X1460768Y126173*
X1461330Y126309*
X1462268*
X1462830Y126173*
X1463205Y126036*
X1463580Y125764*
X1463768Y125355*
Y124400*
X1460580Y127536D02*
X1460393Y127809D01*
X1459830Y128218*
X1463768*
X1459830Y211014D02*
X1463768D01*
X1459830D02*
Y211969D01*
X1460018Y212378*
X1460393Y212651*
X1460768Y212787*
X1461330Y212923*
X1462268*
X1462830Y212787*
X1463205Y212651*
X1463580Y212378*
X1463768Y211969*
Y211014*
X1460580Y214151D02*
X1460393Y214423D01*
X1459830Y214832*
X1463768*
X1459830Y297628D02*
X1463768D01*
X1459830D02*
Y298583D01*
X1460018Y298992*
X1460393Y299265*
X1460768Y299401*
X1461330Y299537*
X1462268*
X1462830Y299401*
X1463205Y299265*
X1463580Y298992*
X1463768Y298583*
Y297628*
X1460580Y300765D02*
X1460393Y301037D01*
X1459830Y301447*
X1463768*
X1459830Y384243D02*
X1463768D01*
X1459830D02*
Y385197D01*
X1460018Y385606*
X1460393Y385879*
X1460768Y386015*
X1461330Y386152*
X1462268*
X1462830Y386015*
X1463205Y385879*
X1463580Y385606*
X1463768Y385197*
Y384243*
X1460580Y387379D02*
X1460393Y387652D01*
X1459830Y388061*
X1463768*
X1459830Y470857D02*
X1463768D01*
X1459830D02*
Y471811D01*
X1460018Y472220*
X1460393Y472493*
X1460768Y472629*
X1461330Y472766*
X1462268*
X1462830Y472629*
X1463205Y472493*
X1463580Y472220*
X1463768Y471811*
Y470857*
X1460580Y473993D02*
X1460393Y474266D01*
X1459830Y474675*
X1463768*
X375591Y100000D02*
X1485827D01*
Y533071*
X375591*
Y100000*
X1430709D02*
Y533071D01*
X1458268Y100000D02*
Y533071D01*
X1430709Y186614D02*
X1493701D01*
X1430709Y273228D02*
X1493701D01*
X1430709Y359843D02*
X1493701D01*
X1430709Y446457D02*
X1493701D01*
X1458268Y186614D02*
X1521260D01*
X1458268Y273228D02*
X1521260D01*
X1458268Y359843D02*
X1521260D01*
X1458268Y446457D02*
X1521260D01*
G54D104*
X451457Y612144D02*
Y602300D01*
Y612144D02*
X454525D01*
X455548Y611675*
X455889Y611206*
X456229Y610269*
Y608863*
X456229D02*
X455889Y607925D01*
X455548Y607456*
X454525Y606988*
X454525D02*
X451457D01*
X464411Y609800D02*
X464070Y610738D01*
X464070D02*
X463389Y611675D01*
X462707Y612144*
X461343*
X460661Y611675*
X459979Y610738*
X459979D02*
X459639Y609800D01*
X459298Y608394*
Y606050*
X459639Y604644*
X459979Y603706*
X460661Y602769*
X461343Y602300*
X462707*
X463389Y602769*
X464070Y603706*
X464411Y604644*
X467479Y612144D02*
Y602300D01*
Y612144D02*
X470548D01*
X471570Y611675*
X471911Y611206*
X472252Y610269*
Y609331*
X471911Y608394*
X471570Y607925*
X470548Y607456*
X467479D02*
X470548D01*
X471570Y606988*
X471570D02*
X471911Y606519D01*
X472252Y605581*
Y604175*
X471911Y603238*
X471911D02*
X471570Y602769D01*
X470548Y602300*
X467479*
X483161Y612144D02*
Y602300D01*
Y612144D02*
X487934Y602300D01*
Y612144D02*
Y602300D01*
X493729Y612144D02*
X491002Y602300D01*
X493729Y612144D02*
X496457Y602300D01*
X492025Y605581D02*
X495434D01*
X499525Y612144D02*
Y602300D01*
Y612144D02*
X502252Y602300D01*
X504979Y612144D02*
X502252Y602300D01*
X504979Y612144D02*
Y602300D01*
X508048Y612144D02*
Y602300D01*
Y612144D02*
X512479D01*
X508048Y607456D02*
X510775D01*
X508048Y602300D02*
X512479D01*
X523389Y607925D02*
X529525D01*
X523389Y605113D02*
X529525D01*
X540434Y612144D02*
Y602300D01*
Y612144D02*
X544866D01*
X540434Y607456D02*
X543161D01*
X540434Y602300D02*
X544866D01*
X547934Y612144D02*
Y602300D01*
Y612144D02*
X552707Y602300D01*
Y612144D02*
Y602300D01*
X563616Y612144D02*
Y602300D01*
Y612144D02*
X566002D01*
X567025Y611675*
X567707Y610738*
X567707D02*
X568048Y609800D01*
X568389Y608394*
Y606050*
X568048Y604644*
X567707Y603706*
X567025Y602769*
X566002Y602300*
X563616*
X571457Y612144D02*
Y602300D01*
Y612144D02*
X575889D01*
X571457Y607456D02*
X574184D01*
X571457Y602300D02*
X575889D01*
X578957Y612144D02*
Y602300D01*
Y612144D02*
X581684Y602300D01*
X584411Y612144D02*
X581684Y602300D01*
X584411Y612144D02*
Y602300D01*
X589525Y612144D02*
X588843Y611675D01*
X588161Y610738*
X588161D02*
X587820Y609800D01*
X587479Y608394*
Y606050*
X587820Y604644*
X588161Y603706*
X588843Y602769*
X589525Y602300*
X590889*
X591570Y602769*
X592252Y603706*
X592593Y604644*
X592934Y606050*
Y608394*
X592593Y609800*
X592252Y610738*
X592252D02*
X591570Y611675D01*
X590889Y612144*
X589525*
X600775Y610738D02*
X600093Y611675D01*
X599070Y612144*
X597707*
X596684Y611675*
X596002Y610738*
X596002D02*
Y609800D01*
X596343Y608863*
X596343D02*
X596684Y608394D01*
X597366Y607925*
X599411Y606988*
X599411D02*
X600093Y606519D01*
X600434Y606050*
X600775Y605113*
X600775D02*
Y603706D01*
X600093Y602769*
X599070Y602300*
X597707*
X596684Y602769*
X596002Y603706*
X616798Y609800D02*
X616457Y610738D01*
X616457D02*
X615775Y611675D01*
X615093Y612144*
X613729*
X613048Y611675*
X612366Y610738*
X612366D02*
X612025Y609800D01*
X611684Y608394*
Y606050*
X612025Y604644*
X612366Y603706*
X613048Y602769*
X613729Y602300*
X615093*
X615775Y602769*
X616457Y603706*
X616798Y604644*
X621911Y612144D02*
X621229Y611675D01*
X620548Y610738*
X620548D02*
X620207Y609800D01*
X619866Y608394*
Y606050*
X620207Y604644*
X620548Y603706*
X621229Y602769*
X621911Y602300*
X623275*
X623957Y602769*
X624639Y603706*
X624979Y604644*
X625320Y606050*
Y608394*
X624979Y609800*
X624639Y610738*
X624639D02*
X623957Y611675D01*
X623275Y612144*
X621911*
X628389D02*
Y602300D01*
Y612144D02*
X633161Y602300D01*
Y612144D02*
Y602300D01*
X636229Y612144D02*
Y602300D01*
Y612144D02*
X641002Y602300D01*
Y612144D02*
Y602300D01*
X644070Y612144D02*
Y602300D01*
Y612144D02*
X648502D01*
X644070Y607456D02*
X646798D01*
X644070Y602300D02*
X648502D01*
X656684Y609800D02*
X656343Y610738D01*
X656343D02*
X655661Y611675D01*
X654979Y612144*
X653616*
X652934Y611675*
X652252Y610738*
X652252D02*
X651911Y609800D01*
X651570Y608394*
Y606050*
X651911Y604644*
X652252Y603706*
X652934Y602769*
X653616Y602300*
X654979*
X655661Y602769*
X656343Y603706*
X656684Y604644*
X662139Y612144D02*
Y602300D01*
X659752Y612144D02*
X664525D01*
X669639D02*
X668957Y611675D01*
X668275Y610738*
X668275D02*
X667934Y609800D01*
X667593Y608394*
Y606050*
X667934Y604644*
X668275Y603706*
X668957Y602769*
X669639Y602300*
X671002*
X671684Y602769*
X672366Y603706*
X672707Y604644*
X673048Y606050*
Y608394*
X672707Y609800*
X672366Y610738*
X672366D02*
X671684Y611675D01*
X671002Y612144*
X669639*
X676116D02*
Y602300D01*
Y612144D02*
X679184D01*
X680207Y611675*
X680548Y611206*
X680889Y610269*
Y609331*
X680548Y608394*
X680207Y607925*
X679184Y607456*
X676116*
X678502D02*
X680889Y602300D01*
X691798Y612144D02*
Y602300D01*
Y612144D02*
X694866D01*
X695889Y611675*
X696229Y611206*
X696570Y610269*
Y608863*
X696570D02*
X696229Y607925D01*
X695889Y607456*
X694866Y606988*
X694866D02*
X691798D01*
X704752Y609800D02*
X704411Y610738D01*
X704411D02*
X703729Y611675D01*
X703048Y612144*
X701684*
X701002Y611675*
X700320Y610738*
X700320D02*
X699979Y609800D01*
X699639Y608394*
Y606050*
X699979Y604644*
X700320Y603706*
X701002Y602769*
X701684Y602300*
X703048*
X703729Y602769*
X704411Y603706*
X704752Y604644*
X707820Y612144D02*
Y602300D01*
Y612144D02*
X710889D01*
X711911Y611675*
X712252Y611206*
X712593Y610269*
Y609331*
X712252Y608394*
X711911Y607925*
X710889Y607456*
X707820D02*
X710889D01*
X711911Y606988*
X711911D02*
X712252Y606519D01*
X712593Y605581*
Y604175*
X712252Y603238*
X712252D02*
X711911Y602769D01*
X710889Y602300*
X707820*
X715661Y600425D02*
X722820D01*
X724866Y612144D02*
X727593Y602300D01*
X730320Y612144D02*
X727593Y602300D01*
X733389Y610269D02*
X734070Y610738D01*
X734070D02*
X735093Y612144D01*
Y602300*
X738161Y600425D02*
X745320D01*
X747366Y610269D02*
X748048Y610738D01*
X748048D02*
X749070Y612144D01*
Y602300*
X451457Y592144D02*
Y582300D01*
Y592144D02*
X454525D01*
X455548Y591675*
X455889Y591206*
X456229Y590269*
Y588863*
X456229D02*
X455889Y587925D01*
X455548Y587456*
X454525Y586988*
X454525D02*
X451457D01*
X464411Y589800D02*
X464070Y590738D01*
X464070D02*
X463389Y591675D01*
X462707Y592144*
X461343*
X460661Y591675*
X459979Y590738*
X459979D02*
X459639Y589800D01*
X459298Y588394*
Y586050*
X459639Y584644*
X459979Y583706*
X460661Y582769*
X461343Y582300*
X462707*
X463389Y582769*
X464070Y583706*
X464411Y584644*
X467479Y592144D02*
Y582300D01*
Y592144D02*
X470548D01*
X471570Y591675*
X471911Y591206*
X472252Y590269*
Y589331*
X471911Y588394*
X471570Y587925*
X470548Y587456*
X467479D02*
X470548D01*
X471570Y586988*
X471570D02*
X471911Y586519D01*
X472252Y585581*
Y584175*
X471911Y583238*
X471911D02*
X471570Y582769D01*
X470548Y582300*
X467479*
X485548Y592144D02*
Y582300D01*
X483161Y592144D02*
X487934D01*
X491002D02*
X493729Y587456D01*
Y582300*
X496457Y592144D02*
X493729Y587456D01*
X499525Y592144D02*
Y582300D01*
Y592144D02*
X502593D01*
X503616Y591675*
X503957Y591206*
X504298Y590269*
Y588863*
X504298D02*
X503957Y587925D01*
X503616Y587456*
X502593Y586988*
X502593D02*
X499525D01*
X507366Y592144D02*
Y582300D01*
Y592144D02*
X511798D01*
X507366Y587456D02*
X510093D01*
X507366Y582300D02*
X511798D01*
X522707Y587925D02*
X528843D01*
X522707Y585113D02*
X528843D01*
X540093Y589800D02*
Y590269D01*
X540434Y591206*
X540775Y591675*
X541457Y592144*
X542820*
X543502Y591675*
X543843Y591206*
X544184Y590269*
Y589331*
X543843Y588394*
X543161Y586988*
X543161D02*
X539752Y582300D01*
X544525*
X555434Y592144D02*
Y582300D01*
X559525*
X565320Y592144D02*
X562593Y582300D01*
X565320Y592144D02*
X568048Y582300D01*
X563616Y585581D02*
X567025D01*
X571116Y592144D02*
X573843Y587456D01*
Y582300*
X576570Y592144D02*
X573843Y587456D01*
X579639Y592144D02*
Y582300D01*
Y592144D02*
X584070D01*
X579639Y587456D02*
X582366D01*
X579639Y582300D02*
X584070D01*
X587139Y592144D02*
Y582300D01*
Y592144D02*
X590207D01*
X591229Y591675*
X591570Y591206*
X591911Y590269*
Y589331*
X591570Y588394*
X591229Y587925*
X590207Y587456*
X587139*
X589525D02*
X591911Y582300D01*
X599752Y590738D02*
X599070Y591675D01*
X598048Y592144*
X596684*
X595661Y591675*
X594979Y590738*
X594979D02*
Y589800D01*
X595320Y588863*
X595320D02*
X595661Y588394D01*
X596343Y587925*
X598389Y586988*
X598389D02*
X599070Y586519D01*
X599411Y586050*
X599752Y585113*
X599752D02*
Y583706D01*
X599070Y582769*
X598048Y582300*
X596684*
X595661Y582769*
X594979Y583706*
X610661Y592144D02*
Y582300D01*
Y592144D02*
X613729D01*
X614752Y591675*
X615093Y591206*
X615434Y590269*
Y588863*
X615434D02*
X615093Y587925D01*
X614752Y587456*
X613729Y586988*
X613729D02*
X610661D01*
X620889Y592144D02*
Y582300D01*
X618502Y592144D02*
X623275D01*
X626343D02*
Y582300D01*
X631116Y592144D02*
Y582300D01*
X626343Y587456D02*
X631116D01*
X201843Y524844D02*
Y515000D01*
X199457Y524844D02*
X204229D01*
X209343D02*
X208661Y524375D01*
X207979Y523438*
X207979D02*
X207639Y522500D01*
X207298Y521094*
Y518750*
X207639Y517344*
X207979Y516406*
X208661Y515469*
X209343Y515000*
X210707*
X211389Y515469*
X212070Y516406*
X212411Y517344*
X212752Y518750*
Y521094*
X212411Y522500*
X212070Y523438*
X212070D02*
X211389Y524375D01*
X210707Y524844*
X209343*
X215820D02*
Y515000D01*
Y524844D02*
X218889D01*
X219911Y524375*
X220252Y523906*
X220593Y522969*
Y521563*
X220593D02*
X220252Y520625D01*
X219911Y520156*
X218889Y519688*
X218889D02*
X215820D01*
X236275Y523438D02*
X235593Y524375D01*
X234570Y524844*
X233207*
X232184Y524375*
X231502Y523438*
X231502D02*
Y522500D01*
X231843Y521563*
X231843D02*
X232184Y521094D01*
X232866Y520625*
X234911Y519688*
X234911D02*
X235593Y519219D01*
X235934Y518750*
X236275Y517813*
X236275D02*
Y516406D01*
X235593Y515469*
X234570Y515000*
X233207*
X232184Y515469*
X231502Y516406*
X239343Y524844D02*
Y515000D01*
X242411Y524844D02*
Y515000D01*
Y524844D02*
X244798D01*
X245820Y524375*
X246502Y523438*
X246502D02*
X246843Y522500D01*
X247184Y521094*
Y518750*
X246843Y517344*
X246502Y516406*
X245820Y515469*
X244798Y515000*
X242411*
X250252Y524844D02*
Y515000D01*
Y524844D02*
X254684D01*
X250252Y520156D02*
X252979D01*
X250252Y515000D02*
X254684D01*
X265593Y524844D02*
Y515000D01*
X268661Y524844D02*
Y515000D01*
Y524844D02*
X273434Y515000D01*
Y524844D02*
Y515000D01*
X276502Y524844D02*
Y515000D01*
Y524844D02*
X278889D01*
X279911Y524375*
X280593Y523438*
X280593D02*
X280934Y522500D01*
X281275Y521094*
Y518750*
X280934Y517344*
X280593Y516406*
X279911Y515469*
X278889Y515000*
X276502*
X284343Y524844D02*
Y515000D01*
Y524844D02*
X288775D01*
X284343Y520156D02*
X287070D01*
X284343Y515000D02*
X288775D01*
X291843Y524844D02*
Y515000D01*
Y524844D02*
X296616Y515000D01*
Y524844D02*
Y515000D01*
X302070Y524844D02*
Y515000D01*
X299684Y524844D02*
X304457D01*
X451457Y574644D02*
Y564800D01*
Y574644D02*
X454525D01*
X455548Y574175*
X455889Y573706*
X456229Y572769*
Y571363*
X456229D02*
X455889Y570425D01*
X455548Y569956*
X454525Y569488*
X454525D02*
X451457D01*
X464411Y572300D02*
X464070Y573238D01*
X464070D02*
X463389Y574175D01*
X462707Y574644*
X461343*
X460661Y574175*
X459979Y573238*
X459979D02*
X459639Y572300D01*
X459298Y570894*
Y568550*
X459639Y567144*
X459979Y566206*
X460661Y565269*
X461343Y564800*
X462707*
X463389Y565269*
X464070Y566206*
X464411Y567144*
X467479Y574644D02*
Y564800D01*
Y574644D02*
X470548D01*
X471570Y574175*
X471911Y573706*
X472252Y572769*
Y571831*
X471911Y570894*
X471570Y570425*
X470548Y569956*
X467479D02*
X470548D01*
X471570Y569488*
X471570D02*
X471911Y569019D01*
X472252Y568081*
Y566675*
X471911Y565738*
X471911D02*
X471570Y565269D01*
X470548Y564800*
X467479*
X485548Y574644D02*
Y564800D01*
X483161Y574644D02*
X487934D01*
X491002D02*
Y564800D01*
X495775Y574644D02*
Y564800D01*
X491002Y569956D02*
X495775D01*
X498843Y574644D02*
Y564800D01*
X507025Y572300D02*
X506684Y573238D01*
X506684D02*
X506002Y574175D01*
X505320Y574644*
X503957*
X503275Y574175*
X502593Y573238*
X502593D02*
X502252Y572300D01*
X501911Y570894*
Y568550*
X502252Y567144*
X502593Y566206*
X503275Y565269*
X503957Y564800*
X505320*
X506002Y565269*
X506684Y566206*
X507025Y567144*
X510093Y574644D02*
Y564800D01*
X514866Y574644D02*
X510093Y568081D01*
X511798Y570425D02*
X514866Y564800D01*
X517934Y574644D02*
Y564800D01*
Y574644D02*
X522707Y564800D01*
Y574644D02*
Y564800D01*
X525775Y574644D02*
Y564800D01*
Y574644D02*
X530207D01*
X525775Y569956D02*
X528502D01*
X525775Y564800D02*
X530207D01*
X538048Y573238D02*
X537366Y574175D01*
X536343Y574644*
X534979*
X533957Y574175*
X533275Y573238*
X533275D02*
Y572300D01*
X533616Y571363*
X533616D02*
X533957Y570894D01*
X534639Y570425*
X536684Y569488*
X536684D02*
X537366Y569019D01*
X537707Y568550*
X538048Y567613*
X538048D02*
Y566206D01*
X537366Y565269*
X536343Y564800*
X534979*
X533957Y565269*
X533275Y566206*
X545889Y573238D02*
X545207Y574175D01*
X544184Y574644*
X542820*
X541798Y574175*
X541116Y573238*
X541116D02*
Y572300D01*
X541457Y571363*
X541457D02*
X541798Y570894D01*
X542479Y570425*
X544525Y569488*
X544525D02*
X545207Y569019D01*
X545548Y568550*
X545889Y567613*
X545889D02*
Y566206D01*
X545207Y565269*
X544184Y564800*
X542820*
X541798Y565269*
X541116Y566206*
X556798Y570425D02*
X562934D01*
X556798Y567613D02*
X562934D01*
X573843Y572769D02*
X574525Y573238D01*
X574525D02*
X575548Y574644D01*
Y564800*
X578957Y565738D02*
X578616Y565269D01*
X578957Y564800*
X579298Y565269*
X578957Y565738*
X586457Y573238D02*
X586116Y574175D01*
X585093Y574644*
X584411*
X583389Y574175*
X582707Y572769*
X582366Y570425*
Y568081*
X582707Y566206*
X583389Y565269*
X584411Y564800*
X584752*
X585775Y565269*
X586457Y566206*
X586798Y567613*
X586798D02*
Y568081D01*
X586457Y569488*
X586457D02*
X585775Y570425D01*
X584752Y570894*
X584411*
X583389Y570425*
X582707Y569488*
X582707D02*
X582366Y568081D01*
X589866Y574644D02*
Y564800D01*
Y574644D02*
X592593Y564800D01*
X595320Y574644D02*
X592593Y564800D01*
X595320Y574644D02*
Y564800D01*
X598389Y574644D02*
Y564800D01*
Y574644D02*
X601116Y564800D01*
X603843Y574644D02*
X601116Y564800D01*
X603843Y574644D02*
Y564800D01*
G54D121*
X901299Y517300D02*
G03X901299I-9842J0D01*
G01X1381299D02*
G03X1381299I-9842J0D01*
G01X1261299D02*
G03X1261299I-9842J0D01*
G01X1141299D02*
G03X1141299I-9842J0D01*
G01X1021299D02*
G03X1021299I-9842J0D01*
G01X781299D02*
G03X781299I-9842J0D01*
G01X661299D02*
G03X661299I-9842J0D01*
G01X541299D02*
G03X541299I-9842J0D01*
G01X1381299Y116000D02*
G03X1381299I-9842J0D01*
G01X1261299D02*
G03X1261299I-9842J0D01*
G01X1141299D02*
G03X1141299I-9842J0D01*
G01X1021299D02*
G03X1021299I-9842J0D01*
G01X901299D02*
G03X901299I-9842J0D01*
G01X781299D02*
G03X781299I-9842J0D01*
G01X661299D02*
G03X661299I-9842J0D01*
G01X541299D02*
G03X541299I-9842J0D01*
G01X421299D02*
G03X421299I-9842J0D01*
G01Y517300D02*
G03X421299I-9842J0D01*
G74*
G01X0Y0D02*
M02*
