*
*
G04 PADS VX.2.4 Build Number: 11282995 generated Gerber (RS-274-X) file*
G04 PC Version=2.1*
*
%IN "COUNT_WONDER_V1_0.pcb"*%
*
%MOIN*%
*
%FSLAX35Y35*%
*
*
*
*
G04 PC Standard Apertures*
*
*
G04 Thermal Relief Aperture macro.*
%AMTER*
1,1,$1,0,0*
1,0,$1-$2,0,0*
21,0,$3,$4,0,0,45*
21,0,$3,$4,0,0,135*
%
*
*
G04 Annular Aperture macro.*
%AMANN*
1,1,$1,0,0*
1,0,$2,0,0*
%
*
*
G04 Odd Aperture macro.*
%AMODD*
1,1,$1,0,0*
1,0,$1-0.005,0,0*
%
*
*
G04 PC Custom Aperture Macros*
*
*
*
*
*
*
G04 PC Aperture Table*
*
%ADD010C,0.001*%
%ADD028C,0.01*%
%ADD092C,0.006*%
%ADD104C,0.015*%
*
*
*
*
G04 PC Circuitry*
G04 Layer Name COUNT_WONDER_V1_0.pcb - circuitry*
%LPD*%
*
*
G04 PC Custom Flashes*
G04 Layer Name COUNT_WONDER_V1_0.pcb - flashes*
%LPD*%
*
*
G04 PC Circuitry*
G04 Layer Name COUNT_WONDER_V1_0.pcb - circuitry*
%LPD*%
*
G54D10*
G01X1493701Y100000D02*
X1493704D01*
X1493701Y533071D02*
X1493704D01*
X1485827D02*
X1485829D01*
X375591D02*
X375593D01*
G54D28*
X1378821Y245625D02*
Y240000D01*
X1380866Y242813D02*
X1376775D01*
X1371775Y246563D02*
X1374048D01*
X1374048D02*
X1374275Y243750D01*
X1374048Y244063*
X1374048D02*
X1373366Y244375D01*
X1372684*
X1372003Y244063*
X1372003D02*
X1371548Y243438D01*
X1371548D02*
X1371321Y242500D01*
X1371548Y241875*
X1371775Y240938*
X1371775D02*
X1372230Y240313D01*
X1372230D02*
X1372912Y240000D01*
X1373593*
X1374275Y240313*
X1374275D02*
X1374503Y240625D01*
X1374730Y241250*
X1369275Y246563D02*
X1367457Y240000D01*
X1365639Y246563D02*
X1367457Y240000D01*
X1363593Y242813D02*
X1359503D01*
X1357457Y245313D02*
X1357003Y245625D01*
X1356321Y246563*
X1356321D02*
Y240000D01*
X1160821Y246625D02*
Y241000D01*
X1162866Y243813D02*
X1158775D01*
X1156503Y246000D02*
Y246313D01*
X1156503D02*
X1156275Y246938D01*
X1156275D02*
X1156048Y247250D01*
X1155593Y247563*
X1155593D02*
X1154684D01*
X1154684D02*
X1154230Y247250D01*
X1154003Y246938*
X1154003D02*
X1153775Y246313D01*
X1153775D02*
Y245688D01*
X1153775D02*
X1154003Y245063D01*
X1154003D02*
X1154457Y244125D01*
X1156730Y241000*
X1153548*
X1149230Y247563D02*
X1151503Y243188D01*
X1151503D02*
X1148093D01*
X1149230Y247563D02*
Y241000D01*
X1146048Y247563D02*
X1144230Y241000D01*
X1142412Y247563D02*
X1144230Y241000D01*
X1282821Y244625D02*
Y239000D01*
X1284866Y241813D02*
X1280775D01*
X1275775Y245563D02*
X1278048D01*
X1278048D02*
X1278275Y242750D01*
X1278048Y243063*
X1278048D02*
X1277366Y243375D01*
X1276684*
X1276003Y243063*
X1276003D02*
X1275548Y242438D01*
X1275548D02*
X1275321Y241500D01*
X1275548Y240875*
X1275775Y239938*
X1275775D02*
X1276230Y239313D01*
X1276230D02*
X1276912Y239000D01*
X1277593*
X1278275Y239313*
X1278275D02*
X1278503Y239625D01*
X1278730Y240250*
X1273275Y245563D02*
X1271457Y239000D01*
X1269639Y245563D02*
X1271457Y239000D01*
X1267593Y241813D02*
X1263503D01*
X1261230Y244000D02*
Y244313D01*
X1261230D02*
X1261003Y244938D01*
X1261003D02*
X1260775Y245250D01*
X1260321Y245563*
X1260321D02*
X1259412D01*
X1259412D02*
X1258957Y245250D01*
X1258730Y244938*
X1258730D02*
X1258503Y244313D01*
X1258503D02*
Y243688D01*
X1258503D02*
X1258730Y243063D01*
X1258730D02*
X1259184Y242125D01*
X1261457Y239000*
X1258275*
X1182821Y187625D02*
Y182000D01*
X1184866Y184813D02*
X1180775D01*
X1178503Y187000D02*
Y187313D01*
X1178503D02*
X1178275Y187938D01*
X1178275D02*
X1178048Y188250D01*
X1177593Y188563*
X1177593D02*
X1176684D01*
X1176684D02*
X1176230Y188250D01*
X1176003Y187938*
X1176003D02*
X1175775Y187313D01*
X1175775D02*
Y186688D01*
X1175775D02*
X1176003Y186063D01*
X1176003D02*
X1176457Y185125D01*
X1178730Y182000*
X1175548*
X1171230Y188563D02*
X1173503Y184188D01*
X1173503D02*
X1170093D01*
X1171230Y188563D02*
Y182000D01*
X1168048Y188563D02*
X1166230Y182000D01*
X1164412Y188563D02*
X1166230Y182000D01*
X1134457Y187000D02*
X1134684Y187625D01*
X1135139Y188250*
X1135593Y188563*
X1135593D02*
X1136503D01*
X1136503D02*
X1136957Y188250D01*
X1137412Y187625*
X1137639Y187000*
X1137866Y186063*
X1137866D02*
Y184500D01*
X1137639Y183563*
X1137639D02*
X1137412Y182938D01*
X1137412D02*
X1136957Y182313D01*
X1136957D02*
X1136503Y182000D01*
X1135593*
X1135139Y182313*
X1135139D02*
X1134684Y182938D01*
X1134684D02*
X1134457Y183563D01*
X1134457D02*
Y184500D01*
X1135593D02*
X1134457D01*
X1132412Y188563D02*
Y182000D01*
Y188563D02*
X1129230Y182000D01*
Y188563D02*
Y182000D01*
X1127184Y188563D02*
Y182000D01*
Y188563D02*
X1125593D01*
X1125593D02*
X1124912Y188250D01*
X1124457Y187625*
X1124230Y187000*
X1124003Y186063*
X1124003D02*
Y184500D01*
X1124230Y183563*
X1124230D02*
X1124457Y182938D01*
X1124457D02*
X1124912Y182313D01*
X1124912D02*
X1125593Y182000D01*
X1127184*
X1256457Y186000D02*
X1256684Y186625D01*
X1257139Y187250*
X1257593Y187563*
X1257593D02*
X1258503D01*
X1258503D02*
X1258957Y187250D01*
X1259412Y186625*
X1259639Y186000*
X1259866Y185063*
X1259866D02*
Y183500D01*
X1259639Y182563*
X1259639D02*
X1259412Y181938D01*
X1259412D02*
X1258957Y181313D01*
X1258957D02*
X1258503Y181000D01*
X1257593*
X1257139Y181313*
X1257139D02*
X1256684Y181938D01*
X1256684D02*
X1256457Y182563D01*
X1256457D02*
Y183500D01*
X1257593D02*
X1256457D01*
X1254412Y187563D02*
Y181000D01*
Y187563D02*
X1251230Y181000D01*
Y187563D02*
Y181000D01*
X1249184Y187563D02*
Y181000D01*
Y187563D02*
X1247593D01*
X1247593D02*
X1246912Y187250D01*
X1246457Y186625*
X1246230Y186000*
X1246003Y185063*
X1246003D02*
Y183500D01*
X1246230Y182563*
X1246230D02*
X1246457Y181938D01*
X1246457D02*
X1246912Y181313D01*
X1246912D02*
X1247593Y181000D01*
X1249184*
X1295821Y186625D02*
Y181000D01*
X1297866Y183813D02*
X1293775D01*
X1288775Y187563D02*
X1291048D01*
X1291048D02*
X1291275Y184750D01*
X1291048Y185063*
X1291048D02*
X1290366Y185375D01*
X1289684*
X1289003Y185063*
X1289003D02*
X1288548Y184438D01*
X1288548D02*
X1288321Y183500D01*
X1288548Y182875*
X1288775Y181938*
X1288775D02*
X1289230Y181313D01*
X1289230D02*
X1289912Y181000D01*
X1290593*
X1291275Y181313*
X1291275D02*
X1291503Y181625D01*
X1291730Y182250*
X1286275Y187563D02*
X1284457Y181000D01*
X1282639Y187563D02*
X1284457Y181000D01*
X1524809Y318098D02*
X1525263Y318410D01*
X1525945Y319348*
Y312785*
X1527990Y318098D02*
X1528445Y318410D01*
X1529127Y319348*
Y312785*
X1532536Y319348D02*
X1531854Y319035D01*
X1531399Y318098*
X1531172Y316535*
Y315598*
X1531399Y314035*
X1531854Y313098*
X1532536Y312785*
X1532990*
X1533672Y313098*
X1534127Y314035*
X1534354Y315598*
Y316535*
X1534127Y318098*
X1533672Y319035*
X1532990Y319348*
X1532536*
X1536627Y313410D02*
X1536399Y313098D01*
X1536627Y312785*
X1536854Y313098*
X1536627Y313410*
X1540263Y319348D02*
X1539581Y319035D01*
X1539127Y318098*
X1538899Y316535*
Y315598*
X1539127Y314035*
X1539581Y313098*
X1540263Y312785*
X1540718*
X1541399Y313098*
X1541854Y314035*
X1542081Y315598*
Y316535*
X1541854Y318098*
X1541399Y319035*
X1540718Y319348*
X1540263*
X1544127Y317160D02*
Y312785D01*
Y315910D02*
X1544809Y316848D01*
X1545263Y317160*
X1545945*
X1546399Y316848*
X1546627Y315910*
Y312785*
Y315910D02*
X1547309Y316848D01*
X1547763Y317160*
X1548445*
X1548899Y316848*
X1549127Y315910*
Y312785*
X1551172Y317160D02*
Y312785D01*
Y315910D02*
X1551854Y316848D01*
X1552309Y317160*
X1552990*
X1553445Y316848*
X1553672Y315910*
Y312785*
Y315910D02*
X1554354Y316848D01*
X1554809Y317160*
X1555490*
X1555945Y316848*
X1556172Y315910*
Y312785*
X1519761Y154851D02*
X1526323Y156670D01*
X1519761Y158488D02*
X1526323Y156670D01*
X1527573Y160533D02*
Y165306D01*
X1521323Y170079D02*
X1520698Y169851D01*
X1520073Y169397*
X1519761Y168942*
Y168033*
X1520073Y167579*
X1520698Y167124*
X1521323Y166897*
X1522261Y166670*
X1523823*
X1524761Y166897*
X1525386Y167124*
X1526011Y167579*
X1526323Y168033*
Y168942*
X1526011Y169397*
X1525386Y169851*
X1524761Y170079*
X1523823*
Y168942D02*
Y170079D01*
X1519761Y172124D02*
X1526323D01*
X1519761D02*
Y174170D01*
X1520073Y174851*
X1520386Y175079*
X1521011Y175306*
X1521636*
X1522261Y175079*
X1522573Y174851*
X1522886Y174170*
Y172124*
Y173715D02*
X1526323Y175306D01*
X1519761Y178715D02*
X1520073Y178261D01*
X1520698Y177806*
X1521323Y177579*
X1522261Y177351*
X1523823*
X1524761Y177579*
X1525386Y177806*
X1526011Y178261*
X1526323Y178715*
Y179624*
X1526011Y180079*
X1525386Y180533*
X1524761Y180761*
X1523823Y180988*
X1522261*
X1521323Y180761*
X1520698Y180533*
X1520073Y180079*
X1519761Y179624*
Y178715*
Y184397D02*
X1520073Y183942D01*
X1520698Y183488*
X1521323Y183261*
X1522261Y183033*
X1523823*
X1524761Y183261*
X1525386Y183488*
X1526011Y183942*
X1526323Y184397*
Y185306*
X1526011Y185761*
X1525386Y186215*
X1524761Y186442*
X1523823Y186670*
X1522261*
X1521323Y186442*
X1520698Y186215*
X1520073Y185761*
X1519761Y185306*
Y184397*
Y188715D02*
X1526323Y190533D01*
X1519761Y192351D02*
X1526323Y190533D01*
X1519761Y194397D02*
X1526323D01*
X1519761D02*
Y197351D01*
X1522886Y194397D02*
Y196215D01*
X1526323Y194397D02*
Y197351D01*
X1475984Y82940D02*
X1477802Y76378D01*
X1479621Y82940D02*
X1477802Y76378D01*
X1481666Y75128D02*
X1486439D01*
X1491212Y81378D02*
X1490984Y82003D01*
X1490530Y82628*
X1490075Y82940*
X1489166*
X1488712Y82628*
X1488257Y82003*
X1488030Y81378*
X1487802Y80440*
Y78878*
X1488030Y77940*
X1488257Y77315*
X1488712Y76690*
X1489166Y76378*
X1490075*
X1490530Y76690*
X1490984Y77315*
X1491212Y77940*
Y78878*
X1490075D02*
X1491212D01*
X1493257Y82940D02*
Y76378D01*
Y82940D02*
X1495302D01*
X1495984Y82628*
X1496212Y82315*
X1496439Y81690*
Y81065*
X1496212Y80440*
X1495984Y80128*
X1495302Y79815*
X1493257*
X1494848D02*
X1496439Y76378D01*
X1499848Y82940D02*
X1499393Y82628D01*
X1498939Y82003*
X1498712Y81378*
X1498484Y80440*
Y78878*
X1498712Y77940*
X1498939Y77315*
X1499393Y76690*
X1499848Y76378*
X1500757*
X1501212Y76690*
X1501666Y77315*
X1501893Y77940*
X1502121Y78878*
Y80440*
X1501893Y81378*
X1501666Y82003*
X1501212Y82628*
X1500757Y82940*
X1499848*
X1505530D02*
X1505075Y82628D01*
X1504621Y82003*
X1504393Y81378*
X1504166Y80440*
Y78878*
X1504393Y77940*
X1504621Y77315*
X1505075Y76690*
X1505530Y76378*
X1506439*
X1506893Y76690*
X1507348Y77315*
X1507575Y77940*
X1507802Y78878*
Y80440*
X1507575Y81378*
X1507348Y82003*
X1506893Y82628*
X1506439Y82940*
X1505530*
X1509848D02*
X1511666Y76378D01*
X1513484Y82940D02*
X1511666Y76378D01*
X1515530Y82940D02*
Y76378D01*
Y82940D02*
X1518484D01*
X1515530Y79815D02*
X1517348D01*
X1515530Y76378D02*
X1518484D01*
X1409055Y82940D02*
X1410873Y76378D01*
X1412691Y82940D02*
X1410873Y76378D01*
X1414737Y75128D02*
X1419510D01*
X1424282Y81378D02*
X1424055Y82003D01*
X1423601Y82628*
X1423146Y82940*
X1422237*
X1421782Y82628*
X1421328Y82003*
X1421101Y81378*
X1420873Y80440*
Y78878*
X1421101Y77940*
X1421328Y77315*
X1421782Y76690*
X1422237Y76378*
X1423146*
X1423601Y76690*
X1424055Y77315*
X1424282Y77940*
Y78878*
X1423146D02*
X1424282D01*
X1426328Y82940D02*
Y76378D01*
Y82940D02*
X1428373D01*
X1429055Y82628*
X1429282Y82315*
X1429510Y81690*
Y81065*
X1429282Y80440*
X1429055Y80128*
X1428373Y79815*
X1426328*
X1427919D02*
X1429510Y76378D01*
X1432919Y82940D02*
X1432464Y82628D01*
X1432010Y82003*
X1431782Y81378*
X1431555Y80440*
Y78878*
X1431782Y77940*
X1432010Y77315*
X1432464Y76690*
X1432919Y76378*
X1433828*
X1434282Y76690*
X1434737Y77315*
X1434964Y77940*
X1435191Y78878*
Y80440*
X1434964Y81378*
X1434737Y82003*
X1434282Y82628*
X1433828Y82940*
X1432919*
X1438601D02*
X1438146Y82628D01*
X1437691Y82003*
X1437464Y81378*
X1437237Y80440*
Y78878*
X1437464Y77940*
X1437691Y77315*
X1438146Y76690*
X1438601Y76378*
X1439510*
X1439964Y76690*
X1440419Y77315*
X1440646Y77940*
X1440873Y78878*
Y80440*
X1440646Y81378*
X1440419Y82003*
X1439964Y82628*
X1439510Y82940*
X1438601*
X1442919D02*
X1444737Y76378D01*
X1446555Y82940D02*
X1444737Y76378D01*
X1448601Y82940D02*
Y76378D01*
Y82940D02*
X1451555D01*
X1448601Y79815D02*
X1450419D01*
X1448601Y76378D02*
X1451555D01*
X1519761Y241466D02*
X1526323Y243284D01*
X1519761Y245102D02*
X1526323Y243284D01*
X1527573Y247147D02*
Y251920D01*
X1521323Y256693D02*
X1520698Y256466D01*
X1520073Y256011*
X1519761Y255557*
Y254647*
X1520073Y254193*
X1520698Y253738*
X1521323Y253511*
X1522261Y253284*
X1523823*
X1524761Y253511*
X1525386Y253738*
X1526011Y254193*
X1526323Y254647*
Y255557*
X1526011Y256011*
X1525386Y256466*
X1524761Y256693*
X1523823*
Y255557D02*
Y256693D01*
X1519761Y258738D02*
X1526323D01*
X1519761D02*
Y260784D01*
X1520073Y261466*
X1520386Y261693*
X1521011Y261920*
X1521636*
X1522261Y261693*
X1522573Y261466*
X1522886Y260784*
Y258738*
Y260329D02*
X1526323Y261920D01*
X1519761Y265329D02*
X1520073Y264875D01*
X1520698Y264420*
X1521323Y264193*
X1522261Y263966*
X1523823*
X1524761Y264193*
X1525386Y264420*
X1526011Y264875*
X1526323Y265329*
Y266238*
X1526011Y266693*
X1525386Y267147*
X1524761Y267375*
X1523823Y267602*
X1522261*
X1521323Y267375*
X1520698Y267147*
X1520073Y266693*
X1519761Y266238*
Y265329*
Y271011D02*
X1520073Y270557D01*
X1520698Y270102*
X1521323Y269875*
X1522261Y269647*
X1523823*
X1524761Y269875*
X1525386Y270102*
X1526011Y270557*
X1526323Y271011*
Y271920*
X1526011Y272375*
X1525386Y272829*
X1524761Y273057*
X1523823Y273284*
X1522261*
X1521323Y273057*
X1520698Y272829*
X1520073Y272375*
X1519761Y271920*
Y271011*
Y275329D02*
X1526323Y277147D01*
X1519761Y278966D02*
X1526323Y277147D01*
X1519761Y281011D02*
X1526323D01*
X1519761D02*
Y283966D01*
X1522886Y281011D02*
Y282829D01*
X1526323Y281011D02*
Y283966D01*
X1519761Y328080D02*
X1526323Y329898D01*
X1519761Y331716D02*
X1526323Y329898D01*
X1527573Y333762D02*
Y338534D01*
X1521323Y343307D02*
X1520698Y343080D01*
X1520073Y342625*
X1519761Y342171*
Y341262*
X1520073Y340807*
X1520698Y340353*
X1521323Y340125*
X1522261Y339898*
X1523823*
X1524761Y340125*
X1525386Y340353*
X1526011Y340807*
X1526323Y341262*
Y342171*
X1526011Y342625*
X1525386Y343080*
X1524761Y343307*
X1523823*
Y342171D02*
Y343307D01*
X1519761Y345353D02*
X1526323D01*
X1519761D02*
Y347398D01*
X1520073Y348080*
X1520386Y348307*
X1521011Y348534*
X1521636*
X1522261Y348307*
X1522573Y348080*
X1522886Y347398*
Y345353*
Y346943D02*
X1526323Y348534D01*
X1519761Y351943D02*
X1520073Y351489D01*
X1520698Y351034*
X1521323Y350807*
X1522261Y350580*
X1523823*
X1524761Y350807*
X1525386Y351034*
X1526011Y351489*
X1526323Y351943*
Y352853*
X1526011Y353307*
X1525386Y353762*
X1524761Y353989*
X1523823Y354216*
X1522261*
X1521323Y353989*
X1520698Y353762*
X1520073Y353307*
X1519761Y352853*
Y351943*
Y357625D02*
X1520073Y357171D01*
X1520698Y356716*
X1521323Y356489*
X1522261Y356262*
X1523823*
X1524761Y356489*
X1525386Y356716*
X1526011Y357171*
X1526323Y357625*
Y358534*
X1526011Y358989*
X1525386Y359443*
X1524761Y359671*
X1523823Y359898*
X1522261*
X1521323Y359671*
X1520698Y359443*
X1520073Y358989*
X1519761Y358534*
Y357625*
Y361943D02*
X1526323Y363762D01*
X1519761Y365580D02*
X1526323Y363762D01*
X1519761Y367625D02*
X1526323D01*
X1519761D02*
Y370580D01*
X1522886Y367625D02*
Y369443D01*
X1526323Y367625D02*
Y370580D01*
X1519761Y414694D02*
X1526323Y416512D01*
X1519761Y418330D02*
X1526323Y416512D01*
X1527573Y420376D02*
Y425149D01*
X1521323Y429921D02*
X1520698Y429694D01*
X1520073Y429239*
X1519761Y428785*
Y427876*
X1520073Y427421*
X1520698Y426967*
X1521323Y426739*
X1522261Y426512*
X1523823*
X1524761Y426739*
X1525386Y426967*
X1526011Y427421*
X1526323Y427876*
Y428785*
X1526011Y429239*
X1525386Y429694*
X1524761Y429921*
X1523823*
Y428785D02*
Y429921D01*
X1519761Y431967D02*
X1526323D01*
X1519761D02*
Y434012D01*
X1520073Y434694*
X1520386Y434921*
X1521011Y435149*
X1521636*
X1522261Y434921*
X1522573Y434694*
X1522886Y434012*
Y431967*
Y433558D02*
X1526323Y435149D01*
X1519761Y438558D02*
X1520073Y438103D01*
X1520698Y437649*
X1521323Y437421*
X1522261Y437194*
X1523823*
X1524761Y437421*
X1525386Y437649*
X1526011Y438103*
X1526323Y438558*
Y439467*
X1526011Y439921*
X1525386Y440376*
X1524761Y440603*
X1523823Y440830*
X1522261*
X1521323Y440603*
X1520698Y440376*
X1520073Y439921*
X1519761Y439467*
Y438558*
Y444239D02*
X1520073Y443785D01*
X1520698Y443330*
X1521323Y443103*
X1522261Y442876*
X1523823*
X1524761Y443103*
X1525386Y443330*
X1526011Y443785*
X1526323Y444239*
Y445149*
X1526011Y445603*
X1525386Y446058*
X1524761Y446285*
X1523823Y446512*
X1522261*
X1521323Y446285*
X1520698Y446058*
X1520073Y445603*
X1519761Y445149*
Y444239*
Y448558D02*
X1526323Y450376D01*
X1519761Y452194D02*
X1526323Y450376D01*
X1519761Y454239D02*
X1526323D01*
X1519761D02*
Y457194D01*
X1522886Y454239D02*
Y456058D01*
X1526323Y454239D02*
Y457194D01*
X1013386Y173492D02*
Y166929D01*
Y173492D02*
X1010431D01*
X1013386Y170367D02*
X1011568D01*
X1013386Y166929D02*
X1010431D01*
X1008386Y173492D02*
Y166929D01*
Y173492D02*
X1005204Y166929D01*
Y173492D02*
Y166929D01*
X997931Y173492D02*
Y166929D01*
Y173492D02*
X996341D01*
X995659Y173179*
X995204Y172554*
X994977Y171929*
X994750Y170992*
Y169429*
X994977Y168492*
X995204Y167867*
X995659Y167242*
X996341Y166929*
X997931*
X992704Y173492D02*
Y166929D01*
Y173492D02*
X989750D01*
X992704Y170367D02*
X990886D01*
X992704Y166929D02*
X989750D01*
X987704Y173492D02*
Y166929D01*
Y173492D02*
X985886Y166929D01*
X984068Y173492D02*
X985886Y166929D01*
X984068Y173492D02*
Y166929D01*
X980659Y173492D02*
X981113Y173179D01*
X981568Y172554*
X981795Y171929*
X982022Y170992*
Y169429*
X981795Y168492*
X981568Y167867*
X981113Y167242*
X980659Y166929*
X979750*
X979295Y167242*
X978841Y167867*
X978613Y168492*
X978386Y169429*
Y170992*
X978613Y171929*
X978841Y172554*
X979295Y173179*
X979750Y173492*
X980659*
X973159Y172554D02*
X973613Y173179D01*
X974295Y173492*
X975204*
X975886Y173179*
X976341Y172554*
Y171929*
X976113Y171304*
X975886Y170992*
X975431Y170679*
X974068Y170054*
X973613Y169742*
X973386Y169429*
X973159Y168804*
Y167867*
X973613Y167242*
X974295Y166929*
X975204*
X975886Y167242*
X976341Y167867*
X962477Y171929D02*
X962704Y172554D01*
X963159Y173179*
X963613Y173492*
X964522*
X964977Y173179*
X965431Y172554*
X965659Y171929*
X965886Y170992*
Y169429*
X965659Y168492*
X965431Y167867*
X964977Y167242*
X964522Y166929*
X963613*
X963159Y167242*
X962704Y167867*
X962477Y168492*
X959068Y173492D02*
X959522Y173179D01*
X959977Y172554*
X960204Y171929*
X960431Y170992*
Y169429*
X960204Y168492*
X959977Y167867*
X959522Y167242*
X959068Y166929*
X958159*
X957704Y167242*
X957250Y167867*
X957022Y168492*
X956795Y169429*
Y170992*
X957022Y171929*
X957250Y172554*
X957704Y173179*
X958159Y173492*
X959068*
X954750D02*
Y166929D01*
Y173492D02*
X951568Y166929D01*
Y173492D02*
Y166929D01*
X949522Y173492D02*
Y166929D01*
Y173492D02*
X946341Y166929D01*
Y173492D02*
Y166929D01*
X944295Y173492D02*
Y166929D01*
Y173492D02*
X941341D01*
X944295Y170367D02*
X942477D01*
X944295Y166929D02*
X941341D01*
X935886Y171929D02*
X936113Y172554D01*
X936568Y173179*
X937022Y173492*
X937931*
X938386Y173179*
X938841Y172554*
X939068Y171929*
X939295Y170992*
Y169429*
X939068Y168492*
X938841Y167867*
X938386Y167242*
X937931Y166929*
X937022*
X936568Y167242*
X936113Y167867*
X935886Y168492*
X932250Y173492D02*
Y166929D01*
X933841Y173492D02*
X930659D01*
X927250D02*
X927704Y173179D01*
X928159Y172554*
X928386Y171929*
X928613Y170992*
Y169429*
X928386Y168492*
X928159Y167867*
X927704Y167242*
X927250Y166929*
X926341*
X925886Y167242*
X925431Y167867*
X925204Y168492*
X924977Y169429*
Y170992*
X925204Y171929*
X925431Y172554*
X925886Y173179*
X926341Y173492*
X927250*
X922931D02*
Y166929D01*
Y173492D02*
X920886D01*
X920204Y173179*
X919977Y172867*
X919750Y172242*
Y171617*
X919977Y170992*
X920204Y170679*
X920886Y170367*
X922931*
X921341D02*
X919750Y166929D01*
X912477Y173492D02*
Y166929D01*
Y173492D02*
X910431D01*
X909750Y173179*
X909522Y172867*
X909295Y172242*
Y171304*
X909522Y170679*
X909750Y170367*
X910431Y170054*
X912477*
X903841Y171929D02*
X904068Y172554D01*
X904522Y173179*
X904977Y173492*
X905886*
X906341Y173179*
X906795Y172554*
X907022Y171929*
X907250Y170992*
Y169429*
X907022Y168492*
X906795Y167867*
X906341Y167242*
X905886Y166929*
X904977*
X904522Y167242*
X904068Y167867*
X903841Y168492*
X901795Y173492D02*
Y166929D01*
Y173492D02*
X899750D01*
X899068Y173179*
X898841Y172867*
X898613Y172242*
Y171617*
X898841Y170992*
X899068Y170679*
X899750Y170367*
X901795D02*
X899750D01*
X899068Y170054*
X898841Y169742*
X898613Y169117*
Y168179*
X898841Y167554*
X899068Y167242*
X899750Y166929*
X901795*
X896568Y165679D02*
X891795D01*
X890431Y173492D02*
X888613Y166929D01*
X886795Y173492D02*
X888613Y166929D01*
X884750Y172242D02*
X884295Y172554D01*
X883613Y173492*
Y166929*
X881568Y165679D02*
X876795D01*
X875431Y172242D02*
X874977Y172554D01*
X874295Y173492*
Y166929*
X1003126Y200395D02*
Y190551D01*
X1005512Y200395D02*
X1000739D01*
X997671D02*
Y190551D01*
Y200395D02*
X993239D01*
X997671Y195707D02*
X994944D01*
X997671Y190551D02*
X993239D01*
X990171Y200395D02*
Y190551D01*
X986080*
X983012Y200395D02*
Y190551D01*
Y200395D02*
X978580D01*
X983012Y195707D02*
X980285D01*
X983012Y190551D02*
X978580D01*
X973126Y200395D02*
Y190551D01*
X975512Y200395D02*
X970739D01*
X967671D02*
Y190551D01*
Y200395D02*
X963239D01*
X967671Y195707D02*
X964944D01*
X967671Y190551D02*
X963239D01*
X955057Y198051D02*
X955398Y198989D01*
X956080Y199926*
X956762Y200395*
X958126*
X958807Y199926*
X959489Y198989*
X959830Y198051*
X960171Y196645*
Y194301*
X959830Y192895*
X959489Y191957*
X958807Y191020*
X958126Y190551*
X956762*
X956080Y191020*
X955398Y191957*
X955057Y192895*
X951989Y200395D02*
Y190551D01*
X947217Y200395D02*
Y190551D01*
X951989Y195707D02*
X947217D01*
X931535Y198989D02*
X932217Y199926D01*
X933239Y200395*
X934603*
X935626Y199926*
X936307Y198989*
Y198051*
X935967Y197114*
X935626Y196645*
X934944Y196176*
X932898Y195239*
X932217Y194770*
X931876Y194301*
X931535Y193364*
Y191957*
X932217Y191020*
X933239Y190551*
X934603*
X935626Y191020*
X936307Y191957*
X928467Y200395D02*
Y190551D01*
Y200395D02*
X924035D01*
X928467Y195707D02*
X925739D01*
X928467Y190551D02*
X924035D01*
X920967Y200395D02*
Y190551D01*
Y200395D02*
X917898D01*
X916876Y199926*
X916535Y199457*
X916194Y198520*
Y197582*
X916535Y196645*
X916876Y196176*
X917898Y195707*
X920967*
X918580D02*
X916194Y190551D01*
X913126Y200395D02*
X910398Y190551D01*
X907671Y200395D02*
X910398Y190551D01*
X904603Y200395D02*
Y190551D01*
X896421Y198051D02*
X896762Y198989D01*
X897444Y199926*
X898126Y200395*
X899489*
X900171Y199926*
X900853Y198989*
X901194Y198051*
X901535Y196645*
Y194301*
X901194Y192895*
X900853Y191957*
X900171Y191020*
X899489Y190551*
X898126*
X897444Y191020*
X896762Y191957*
X896421Y192895*
X893353Y200395D02*
Y190551D01*
Y200395D02*
X888921D01*
X893353Y195707D02*
X890626D01*
X893353Y190551D02*
X888921D01*
X881080Y198989D02*
X881762Y199926D01*
X882785Y200395*
X884148*
X885171Y199926*
X885853Y198989*
Y198051*
X885512Y197114*
X885171Y196645*
X884489Y196176*
X882444Y195239*
X881762Y194770*
X881421Y194301*
X881080Y193364*
Y191957*
X881762Y191020*
X882785Y190551*
X884148*
X885171Y191020*
X885853Y191957*
X1393821Y186625D02*
Y181000D01*
X1395866Y183813D02*
X1391775D01*
X1386775Y187563D02*
X1389048D01*
X1389048D02*
X1389275Y184750D01*
X1389048Y185063*
X1389048D02*
X1388366Y185375D01*
X1387684*
X1387003Y185063*
X1387003D02*
X1386548Y184438D01*
X1386548D02*
X1386321Y183500D01*
X1386548Y182875*
X1386775Y181938*
X1386775D02*
X1387230Y181313D01*
X1387230D02*
X1387912Y181000D01*
X1388593*
X1389275Y181313*
X1389275D02*
X1389503Y181625D01*
X1389730Y182250*
X1384275Y187563D02*
X1382457Y181000D01*
X1380639Y187563D02*
X1382457Y181000D01*
X1354457Y186000D02*
X1354684Y186625D01*
X1355139Y187250*
X1355593Y187563*
X1355593D02*
X1356503D01*
X1356503D02*
X1356957Y187250D01*
X1357412Y186625*
X1357639Y186000*
X1357866Y185063*
X1357866D02*
Y183500D01*
X1357639Y182563*
X1357639D02*
X1357412Y181938D01*
X1357412D02*
X1356957Y181313D01*
X1356957D02*
X1356503Y181000D01*
X1355593*
X1355139Y181313*
X1355139D02*
X1354684Y181938D01*
X1354684D02*
X1354457Y182563D01*
X1354457D02*
Y183500D01*
X1355593D02*
X1354457D01*
X1352412Y187563D02*
Y181000D01*
Y187563D02*
X1349230Y181000D01*
Y187563D02*
Y181000D01*
X1347184Y187563D02*
Y181000D01*
Y187563D02*
X1345593D01*
X1345593D02*
X1344912Y187250D01*
X1344457Y186625*
X1344230Y186000*
X1344003Y185063*
X1344003D02*
Y183500D01*
X1344230Y182563*
X1344230D02*
X1344457Y181938D01*
X1344457D02*
X1344912Y181313D01*
X1344912D02*
X1345593Y181000D01*
X1347184*
X912754Y548100D02*
Y548413D01*
X912981Y549038*
X913209Y549350*
X913663Y549663*
X914572*
X915027Y549350*
X915254Y549038*
X915481Y548413*
Y547788*
X915254Y547163*
X914800Y546225*
X912527Y543100*
X915709*
X918890Y549663D02*
X918209Y549350D01*
X917981Y548725*
Y548100*
X918209Y547475*
X918663Y547163*
X919572Y546850*
X920254Y546538*
X920709Y545913*
X920936Y545288*
Y544350*
X920709Y543725*
X920481Y543413*
X919800Y543100*
X918890*
X918209Y543413*
X917981Y543725*
X917754Y544350*
Y545288*
X917981Y545913*
X918436Y546538*
X919118Y546850*
X920027Y547163*
X920481Y547475*
X920709Y548100*
Y548725*
X920481Y549350*
X919800Y549663*
X918890*
X923209Y548100D02*
Y548413D01*
X923436Y549038*
X923663Y549350*
X924118Y549663*
X925027*
X925481Y549350*
X925709Y549038*
X925936Y548413*
Y547788*
X925709Y547163*
X925254Y546225*
X922981Y543100*
X926163*
X928436Y543725D02*
X928209Y543413D01*
X928436Y543100*
X928663Y543413*
X928436Y543725*
X932072Y549663D02*
X931390Y549350D01*
X930936Y548413*
X930709Y546850*
Y545913*
X930936Y544350*
X931390Y543413*
X932072Y543100*
X932527*
X933209Y543413*
X933663Y544350*
X933890Y545913*
Y546850*
X933663Y548413*
X933209Y549350*
X932527Y549663*
X932072*
X935936Y547475D02*
Y543100D01*
Y546225D02*
X936618Y547163D01*
X937072Y547475*
X937754*
X938209Y547163*
X938436Y546225*
Y543100*
Y546225D02*
X939118Y547163D01*
X939572Y547475*
X940254*
X940709Y547163*
X940936Y546225*
Y543100*
X942981Y547475D02*
Y543100D01*
Y546225D02*
X943663Y547163D01*
X944118Y547475*
X944800*
X945254Y547163*
X945481Y546225*
Y543100*
Y546225D02*
X946163Y547163D01*
X946618Y547475*
X947300*
X947754Y547163*
X947981Y546225*
Y543100*
X1540945Y100000D02*
Y309785D01*
Y100000D02*
X1538445Y110000D01*
X1543445*
X1540945Y100000*
Y533071D02*
Y323285D01*
Y533071D02*
X1543445Y523071D01*
X1538445*
X1540945Y533071*
X1498701Y100000D02*
X1545945D01*
X1498701Y533071D02*
X1545945D01*
X1494827Y186348D02*
X1505698Y175476D01*
X1506638Y174537*
X1494827Y186348D02*
X1503666Y181044D01*
X1500130Y177509*
X1494827Y186348*
X1506638Y174537D02*
X1516638D01*
X1458268Y98031D02*
X1469139Y87160D01*
X1470079Y86220*
X1458268Y98031D02*
X1467107Y92728D01*
X1463571Y89193*
X1458268Y98031*
X1470079Y86220D02*
X1480079D01*
X1430709Y98031D02*
X1441580Y87160D01*
X1442520Y86220*
X1430709Y98031D02*
X1439547Y92728D01*
X1436012Y89193*
X1430709Y98031*
X1442520Y86220D02*
X1452520D01*
X1494827Y272962D02*
X1505698Y262090D01*
X1506638Y261151*
X1494827Y272962D02*
X1503666Y267658D01*
X1500130Y264123*
X1494827Y272962*
X1506638Y261151D02*
X1516638D01*
X1494827Y359576D02*
X1505698Y348704D01*
X1506638Y347765*
X1494827Y359576D02*
X1503666Y354273D01*
X1500130Y350737*
X1494827Y359576*
X1506638Y347765D02*
X1516638D01*
X1494827Y446190D02*
X1505698Y435319D01*
X1506638Y434379*
X1494827Y446190D02*
X1503666Y440887D01*
X1500130Y437351*
X1494827Y446190*
X1506638Y434379D02*
X1516638D01*
X1485827Y546850D02*
X951890D01*
X1485827D02*
X1475827Y544350D01*
Y549350*
X1485827Y546850*
X375591D02*
X909527D01*
X375591D02*
X385591Y549350D01*
Y544350*
X375591Y546850*
X1485827Y538071D02*
Y551850D01*
X375591Y538071D02*
Y551850D01*
G54D92*
X1390953Y231890D02*
X1387016Y235827D01*
X1347646*
Y192519*
X1387016*
X1390953Y196456*
Y231890*
X1197449Y231673D02*
X1194949Y234173D01*
X1107449*
Y194173*
X1194949*
X1197449Y196673*
Y231673*
X1292528Y231890D02*
X1288591Y235827D01*
X1249220*
Y192519*
X1288591*
X1292528Y196456*
Y231890*
X375591Y100000D02*
X1485827D01*
Y533071*
X375591*
Y100000*
X1430709D02*
Y533071D01*
X1458268Y100000D02*
Y533071D01*
X1430709Y186614D02*
X1493701D01*
X1430709Y273228D02*
X1493701D01*
X1430709Y359843D02*
X1493701D01*
X1430709Y446457D02*
X1493701D01*
X1458268Y186614D02*
X1521260D01*
X1458268Y273228D02*
X1521260D01*
X1458268Y359843D02*
X1521260D01*
X1458268Y446457D02*
X1521260D01*
G54D104*
X451457Y612144D02*
Y602300D01*
Y612144D02*
X454525D01*
X455548Y611675*
X455889Y611206*
X456229Y610269*
Y608863*
X456229D02*
X455889Y607925D01*
X455548Y607456*
X454525Y606988*
X454525D02*
X451457D01*
X464411Y609800D02*
X464070Y610738D01*
X464070D02*
X463389Y611675D01*
X462707Y612144*
X461343*
X460661Y611675*
X459979Y610738*
X459979D02*
X459639Y609800D01*
X459298Y608394*
Y606050*
X459639Y604644*
X459979Y603706*
X460661Y602769*
X461343Y602300*
X462707*
X463389Y602769*
X464070Y603706*
X464411Y604644*
X467479Y612144D02*
Y602300D01*
Y612144D02*
X470548D01*
X471570Y611675*
X471911Y611206*
X472252Y610269*
Y609331*
X471911Y608394*
X471570Y607925*
X470548Y607456*
X467479D02*
X470548D01*
X471570Y606988*
X471570D02*
X471911Y606519D01*
X472252Y605581*
Y604175*
X471911Y603238*
X471911D02*
X471570Y602769D01*
X470548Y602300*
X467479*
X483161Y612144D02*
Y602300D01*
Y612144D02*
X487934Y602300D01*
Y612144D02*
Y602300D01*
X493729Y612144D02*
X491002Y602300D01*
X493729Y612144D02*
X496457Y602300D01*
X492025Y605581D02*
X495434D01*
X499525Y612144D02*
Y602300D01*
Y612144D02*
X502252Y602300D01*
X504979Y612144D02*
X502252Y602300D01*
X504979Y612144D02*
Y602300D01*
X508048Y612144D02*
Y602300D01*
Y612144D02*
X512479D01*
X508048Y607456D02*
X510775D01*
X508048Y602300D02*
X512479D01*
X523389Y607925D02*
X529525D01*
X523389Y605113D02*
X529525D01*
X540434Y612144D02*
Y602300D01*
Y612144D02*
X544866D01*
X540434Y607456D02*
X543161D01*
X540434Y602300D02*
X544866D01*
X547934Y612144D02*
Y602300D01*
Y612144D02*
X552707Y602300D01*
Y612144D02*
Y602300D01*
X563616Y612144D02*
Y602300D01*
Y612144D02*
X566002D01*
X567025Y611675*
X567707Y610738*
X567707D02*
X568048Y609800D01*
X568389Y608394*
Y606050*
X568048Y604644*
X567707Y603706*
X567025Y602769*
X566002Y602300*
X563616*
X571457Y612144D02*
Y602300D01*
Y612144D02*
X575889D01*
X571457Y607456D02*
X574184D01*
X571457Y602300D02*
X575889D01*
X578957Y612144D02*
Y602300D01*
Y612144D02*
X581684Y602300D01*
X584411Y612144D02*
X581684Y602300D01*
X584411Y612144D02*
Y602300D01*
X589525Y612144D02*
X588843Y611675D01*
X588161Y610738*
X588161D02*
X587820Y609800D01*
X587479Y608394*
Y606050*
X587820Y604644*
X588161Y603706*
X588843Y602769*
X589525Y602300*
X590889*
X591570Y602769*
X592252Y603706*
X592593Y604644*
X592934Y606050*
Y608394*
X592593Y609800*
X592252Y610738*
X592252D02*
X591570Y611675D01*
X590889Y612144*
X589525*
X600775Y610738D02*
X600093Y611675D01*
X599070Y612144*
X597707*
X596684Y611675*
X596002Y610738*
X596002D02*
Y609800D01*
X596343Y608863*
X596343D02*
X596684Y608394D01*
X597366Y607925*
X599411Y606988*
X599411D02*
X600093Y606519D01*
X600434Y606050*
X600775Y605113*
X600775D02*
Y603706D01*
X600093Y602769*
X599070Y602300*
X597707*
X596684Y602769*
X596002Y603706*
X616798Y609800D02*
X616457Y610738D01*
X616457D02*
X615775Y611675D01*
X615093Y612144*
X613729*
X613048Y611675*
X612366Y610738*
X612366D02*
X612025Y609800D01*
X611684Y608394*
Y606050*
X612025Y604644*
X612366Y603706*
X613048Y602769*
X613729Y602300*
X615093*
X615775Y602769*
X616457Y603706*
X616798Y604644*
X621911Y612144D02*
X621229Y611675D01*
X620548Y610738*
X620548D02*
X620207Y609800D01*
X619866Y608394*
Y606050*
X620207Y604644*
X620548Y603706*
X621229Y602769*
X621911Y602300*
X623275*
X623957Y602769*
X624639Y603706*
X624979Y604644*
X625320Y606050*
Y608394*
X624979Y609800*
X624639Y610738*
X624639D02*
X623957Y611675D01*
X623275Y612144*
X621911*
X628389D02*
Y602300D01*
Y612144D02*
X633161Y602300D01*
Y612144D02*
Y602300D01*
X636229Y612144D02*
Y602300D01*
Y612144D02*
X641002Y602300D01*
Y612144D02*
Y602300D01*
X644070Y612144D02*
Y602300D01*
Y612144D02*
X648502D01*
X644070Y607456D02*
X646798D01*
X644070Y602300D02*
X648502D01*
X656684Y609800D02*
X656343Y610738D01*
X656343D02*
X655661Y611675D01*
X654979Y612144*
X653616*
X652934Y611675*
X652252Y610738*
X652252D02*
X651911Y609800D01*
X651570Y608394*
Y606050*
X651911Y604644*
X652252Y603706*
X652934Y602769*
X653616Y602300*
X654979*
X655661Y602769*
X656343Y603706*
X656684Y604644*
X662139Y612144D02*
Y602300D01*
X659752Y612144D02*
X664525D01*
X669639D02*
X668957Y611675D01*
X668275Y610738*
X668275D02*
X667934Y609800D01*
X667593Y608394*
Y606050*
X667934Y604644*
X668275Y603706*
X668957Y602769*
X669639Y602300*
X671002*
X671684Y602769*
X672366Y603706*
X672707Y604644*
X673048Y606050*
Y608394*
X672707Y609800*
X672366Y610738*
X672366D02*
X671684Y611675D01*
X671002Y612144*
X669639*
X676116D02*
Y602300D01*
Y612144D02*
X679184D01*
X680207Y611675*
X680548Y611206*
X680889Y610269*
Y609331*
X680548Y608394*
X680207Y607925*
X679184Y607456*
X676116*
X678502D02*
X680889Y602300D01*
X691798Y612144D02*
Y602300D01*
Y612144D02*
X694866D01*
X695889Y611675*
X696229Y611206*
X696570Y610269*
Y608863*
X696570D02*
X696229Y607925D01*
X695889Y607456*
X694866Y606988*
X694866D02*
X691798D01*
X704752Y609800D02*
X704411Y610738D01*
X704411D02*
X703729Y611675D01*
X703048Y612144*
X701684*
X701002Y611675*
X700320Y610738*
X700320D02*
X699979Y609800D01*
X699639Y608394*
Y606050*
X699979Y604644*
X700320Y603706*
X701002Y602769*
X701684Y602300*
X703048*
X703729Y602769*
X704411Y603706*
X704752Y604644*
X707820Y612144D02*
Y602300D01*
Y612144D02*
X710889D01*
X711911Y611675*
X712252Y611206*
X712593Y610269*
Y609331*
X712252Y608394*
X711911Y607925*
X710889Y607456*
X707820D02*
X710889D01*
X711911Y606988*
X711911D02*
X712252Y606519D01*
X712593Y605581*
Y604175*
X712252Y603238*
X712252D02*
X711911Y602769D01*
X710889Y602300*
X707820*
X715661Y600425D02*
X722820D01*
X724866Y612144D02*
X727593Y602300D01*
X730320Y612144D02*
X727593Y602300D01*
X733389Y610269D02*
X734070Y610738D01*
X734070D02*
X735093Y612144D01*
Y602300*
X738161Y600425D02*
X745320D01*
X747366Y610269D02*
X748048Y610738D01*
X748048D02*
X749070Y612144D01*
Y602300*
X451457Y592144D02*
Y582300D01*
Y592144D02*
X454525D01*
X455548Y591675*
X455889Y591206*
X456229Y590269*
Y588863*
X456229D02*
X455889Y587925D01*
X455548Y587456*
X454525Y586988*
X454525D02*
X451457D01*
X464411Y589800D02*
X464070Y590738D01*
X464070D02*
X463389Y591675D01*
X462707Y592144*
X461343*
X460661Y591675*
X459979Y590738*
X459979D02*
X459639Y589800D01*
X459298Y588394*
Y586050*
X459639Y584644*
X459979Y583706*
X460661Y582769*
X461343Y582300*
X462707*
X463389Y582769*
X464070Y583706*
X464411Y584644*
X467479Y592144D02*
Y582300D01*
Y592144D02*
X470548D01*
X471570Y591675*
X471911Y591206*
X472252Y590269*
Y589331*
X471911Y588394*
X471570Y587925*
X470548Y587456*
X467479D02*
X470548D01*
X471570Y586988*
X471570D02*
X471911Y586519D01*
X472252Y585581*
Y584175*
X471911Y583238*
X471911D02*
X471570Y582769D01*
X470548Y582300*
X467479*
X485548Y592144D02*
Y582300D01*
X483161Y592144D02*
X487934D01*
X491002D02*
X493729Y587456D01*
Y582300*
X496457Y592144D02*
X493729Y587456D01*
X499525Y592144D02*
Y582300D01*
Y592144D02*
X502593D01*
X503616Y591675*
X503957Y591206*
X504298Y590269*
Y588863*
X504298D02*
X503957Y587925D01*
X503616Y587456*
X502593Y586988*
X502593D02*
X499525D01*
X507366Y592144D02*
Y582300D01*
Y592144D02*
X511798D01*
X507366Y587456D02*
X510093D01*
X507366Y582300D02*
X511798D01*
X522707Y587925D02*
X528843D01*
X522707Y585113D02*
X528843D01*
X540093Y589800D02*
Y590269D01*
X540434Y591206*
X540775Y591675*
X541457Y592144*
X542820*
X543502Y591675*
X543843Y591206*
X544184Y590269*
Y589331*
X543843Y588394*
X543161Y586988*
X543161D02*
X539752Y582300D01*
X544525*
X555434Y592144D02*
Y582300D01*
X559525*
X565320Y592144D02*
X562593Y582300D01*
X565320Y592144D02*
X568048Y582300D01*
X563616Y585581D02*
X567025D01*
X571116Y592144D02*
X573843Y587456D01*
Y582300*
X576570Y592144D02*
X573843Y587456D01*
X579639Y592144D02*
Y582300D01*
Y592144D02*
X584070D01*
X579639Y587456D02*
X582366D01*
X579639Y582300D02*
X584070D01*
X587139Y592144D02*
Y582300D01*
Y592144D02*
X590207D01*
X591229Y591675*
X591570Y591206*
X591911Y590269*
Y589331*
X591570Y588394*
X591229Y587925*
X590207Y587456*
X587139*
X589525D02*
X591911Y582300D01*
X599752Y590738D02*
X599070Y591675D01*
X598048Y592144*
X596684*
X595661Y591675*
X594979Y590738*
X594979D02*
Y589800D01*
X595320Y588863*
X595320D02*
X595661Y588394D01*
X596343Y587925*
X598389Y586988*
X598389D02*
X599070Y586519D01*
X599411Y586050*
X599752Y585113*
X599752D02*
Y583706D01*
X599070Y582769*
X598048Y582300*
X596684*
X595661Y582769*
X594979Y583706*
X610661Y592144D02*
Y582300D01*
Y592144D02*
X613729D01*
X614752Y591675*
X615093Y591206*
X615434Y590269*
Y588863*
X615434D02*
X615093Y587925D01*
X614752Y587456*
X613729Y586988*
X613729D02*
X610661D01*
X620889Y592144D02*
Y582300D01*
X618502Y592144D02*
X623275D01*
X626343D02*
Y582300D01*
X631116Y592144D02*
Y582300D01*
X626343Y587456D02*
X631116D01*
X300457Y455844D02*
Y446000D01*
Y455844D02*
X297389D01*
X296366Y455375*
X296025Y454906*
X295684Y453969*
Y453031*
X296025Y452094*
X296366Y451625*
X297389Y451156*
X300457D02*
X297389D01*
X296366Y450688*
X296366D02*
X296025Y450219D01*
X295684Y449281*
Y447875*
X296025Y446938*
X296025D02*
X296366Y446469D01*
X297389Y446000*
X300457*
X290570Y455844D02*
X291252Y455375D01*
X291934Y454438*
X291934D02*
X292275Y453500D01*
X292616Y452094*
Y449750*
X292275Y448344*
X291934Y447406*
X291252Y446469*
X290570Y446000*
X289207*
X288525Y446469*
X287843Y447406*
X287502Y448344*
X287161Y449750*
Y452094*
X287502Y453500*
X287843Y454438*
X287843D02*
X288525Y455375D01*
X289207Y455844*
X290570*
X281707D02*
Y446000D01*
X284093Y455844D02*
X279320D01*
X273866D02*
Y446000D01*
X276252Y455844D02*
X271479D01*
X266366D02*
X267048Y455375D01*
X267729Y454438*
X267729D02*
X268070Y453500D01*
X268411Y452094*
Y449750*
X268070Y448344*
X267729Y447406*
X267048Y446469*
X266366Y446000*
X265002*
X264320Y446469*
X263639Y447406*
X263298Y448344*
X262957Y449750*
Y452094*
X263298Y453500*
X263639Y454438*
X263639D02*
X264320Y455375D01*
X265002Y455844*
X266366*
X259889D02*
Y446000D01*
Y455844D02*
X257161Y446000D01*
X254434Y455844D02*
X257161Y446000D01*
X254434Y455844D02*
Y446000D01*
X238752Y454438D02*
X239434Y455375D01*
X240457Y455844*
X241820*
X242843Y455375*
X243525Y454438*
X243525D02*
Y453500D01*
X243184Y452563*
X243184D02*
X242843Y452094D01*
X242161Y451625*
X240116Y450688*
X240116D02*
X239434Y450219D01*
X239093Y449750*
X238752Y448813*
X238752D02*
Y447406D01*
X239434Y446469*
X240457Y446000*
X241820*
X242843Y446469*
X243525Y447406*
X235684Y455844D02*
Y446000D01*
X232616Y455844D02*
Y446000D01*
Y455844D02*
X230229D01*
X229207Y455375*
X228525Y454438*
X228525D02*
X228184Y453500D01*
X227843Y452094*
Y449750*
X228184Y448344*
X228525Y447406*
X229207Y446469*
X230229Y446000*
X232616*
X224775Y455844D02*
Y446000D01*
Y455844D02*
X220343D01*
X224775Y451156D02*
X222048D01*
X224775Y446000D02*
X220343D01*
X209434Y455844D02*
Y446000D01*
X206366Y455844D02*
Y446000D01*
Y455844D02*
X201593Y446000D01*
Y455844D02*
Y446000D01*
X198525Y455844D02*
Y446000D01*
Y455844D02*
X196139D01*
X195116Y455375*
X194434Y454438*
X194434D02*
X194093Y453500D01*
X193752Y452094*
Y449750*
X194093Y448344*
X194434Y447406*
X195116Y446469*
X196139Y446000*
X198525*
X190684Y455844D02*
Y446000D01*
Y455844D02*
X186252D01*
X190684Y451156D02*
X187957D01*
X190684Y446000D02*
X186252D01*
X183184Y455844D02*
Y446000D01*
Y455844D02*
X178411Y446000D01*
Y455844D02*
Y446000D01*
X172957Y455844D02*
Y446000D01*
X175343Y455844D02*
X170570D01*
X451457Y574644D02*
Y564800D01*
Y574644D02*
X454525D01*
X455548Y574175*
X455889Y573706*
X456229Y572769*
Y571363*
X456229D02*
X455889Y570425D01*
X455548Y569956*
X454525Y569488*
X454525D02*
X451457D01*
X464411Y572300D02*
X464070Y573238D01*
X464070D02*
X463389Y574175D01*
X462707Y574644*
X461343*
X460661Y574175*
X459979Y573238*
X459979D02*
X459639Y572300D01*
X459298Y570894*
Y568550*
X459639Y567144*
X459979Y566206*
X460661Y565269*
X461343Y564800*
X462707*
X463389Y565269*
X464070Y566206*
X464411Y567144*
X467479Y574644D02*
Y564800D01*
Y574644D02*
X470548D01*
X471570Y574175*
X471911Y573706*
X472252Y572769*
Y571831*
X471911Y570894*
X471570Y570425*
X470548Y569956*
X467479D02*
X470548D01*
X471570Y569488*
X471570D02*
X471911Y569019D01*
X472252Y568081*
Y566675*
X471911Y565738*
X471911D02*
X471570Y565269D01*
X470548Y564800*
X467479*
X485548Y574644D02*
Y564800D01*
X483161Y574644D02*
X487934D01*
X491002D02*
Y564800D01*
X495775Y574644D02*
Y564800D01*
X491002Y569956D02*
X495775D01*
X498843Y574644D02*
Y564800D01*
X507025Y572300D02*
X506684Y573238D01*
X506684D02*
X506002Y574175D01*
X505320Y574644*
X503957*
X503275Y574175*
X502593Y573238*
X502593D02*
X502252Y572300D01*
X501911Y570894*
Y568550*
X502252Y567144*
X502593Y566206*
X503275Y565269*
X503957Y564800*
X505320*
X506002Y565269*
X506684Y566206*
X507025Y567144*
X510093Y574644D02*
Y564800D01*
X514866Y574644D02*
X510093Y568081D01*
X511798Y570425D02*
X514866Y564800D01*
X517934Y574644D02*
Y564800D01*
Y574644D02*
X522707Y564800D01*
Y574644D02*
Y564800D01*
X525775Y574644D02*
Y564800D01*
Y574644D02*
X530207D01*
X525775Y569956D02*
X528502D01*
X525775Y564800D02*
X530207D01*
X538048Y573238D02*
X537366Y574175D01*
X536343Y574644*
X534979*
X533957Y574175*
X533275Y573238*
X533275D02*
Y572300D01*
X533616Y571363*
X533616D02*
X533957Y570894D01*
X534639Y570425*
X536684Y569488*
X536684D02*
X537366Y569019D01*
X537707Y568550*
X538048Y567613*
X538048D02*
Y566206D01*
X537366Y565269*
X536343Y564800*
X534979*
X533957Y565269*
X533275Y566206*
X545889Y573238D02*
X545207Y574175D01*
X544184Y574644*
X542820*
X541798Y574175*
X541116Y573238*
X541116D02*
Y572300D01*
X541457Y571363*
X541457D02*
X541798Y570894D01*
X542479Y570425*
X544525Y569488*
X544525D02*
X545207Y569019D01*
X545548Y568550*
X545889Y567613*
X545889D02*
Y566206D01*
X545207Y565269*
X544184Y564800*
X542820*
X541798Y565269*
X541116Y566206*
X556798Y570425D02*
X562934D01*
X556798Y567613D02*
X562934D01*
X573843Y572769D02*
X574525Y573238D01*
X574525D02*
X575548Y574644D01*
Y564800*
X578957Y565738D02*
X578616Y565269D01*
X578957Y564800*
X579298Y565269*
X578957Y565738*
X586457Y573238D02*
X586116Y574175D01*
X585093Y574644*
X584411*
X583389Y574175*
X582707Y572769*
X582366Y570425*
Y568081*
X582707Y566206*
X583389Y565269*
X584411Y564800*
X584752*
X585775Y565269*
X586457Y566206*
X586798Y567613*
X586798D02*
Y568081D01*
X586457Y569488*
X586457D02*
X585775Y570425D01*
X584752Y570894*
X584411*
X583389Y570425*
X582707Y569488*
X582707D02*
X582366Y568081D01*
X589866Y574644D02*
Y564800D01*
Y574644D02*
X592593Y564800D01*
X595320Y574644D02*
X592593Y564800D01*
X595320Y574644D02*
Y564800D01*
X598389Y574644D02*
Y564800D01*
Y574644D02*
X601116Y564800D01*
X603843Y574644D02*
X601116Y564800D01*
X603843Y574644D02*
Y564800D01*
X0Y0D02*
M02*
