M48
; DRILL file {KiCad 7.0.2} date Thu Dec 28 23:35:22 2023
; FORMAT={-:-/ absolute / metric / decimal}
; #@! TF.CreationDate,2023-12-28T23:35:22+05:30
; #@! TF.GenerationSoftware,Kicad,Pcbnew,7.0.2
; #@! TF.FileFunction,Plated,1,4,PTH
FMAT,2
METRIC
; #@! TA.AperFunction,Plated,PTH,ViaDrill
T1C0.500
%
G90
G05
T1
X81.534Y-94.742
X81.534Y-179.832
X81.534Y-184.912
X81.552Y-194.677
X81.567Y-79.722
X81.627Y-74.889
X81.642Y-189.767
X81.695Y-69.85
X81.705Y-84.84
X81.758Y-63.938
X81.8Y-221.7
X82.15Y-142.24
X82.484Y-218.492
X82.513Y-163.83
X82.8Y-187.706
X82.82Y-63.9
X82.835Y-192.75
X83.12Y-67.66
X83.23Y-133.05
X83.25Y-213.05
X83.27Y-73.04
X83.29Y-153.04
X83.3Y-78.09
X83.3Y-83.14
X83.3Y-113.12
X83.31Y-118.05
X83.32Y-158.09
X83.32Y-162.56
X83.33Y-198.05
X83.34Y-103.11
X83.34Y-138.01
X83.35Y-98.07
X83.36Y-88.13
X83.36Y-128.1
X83.36Y-183.11
X83.36Y-218.01
X83.37Y-93.09
X83.37Y-178.07
X83.38Y-168.13
X83.38Y-208.1
X83.39Y-173.09
X83.45Y-108.13
X83.47Y-123.02
X83.49Y-203.02
X84.074Y-143.764
X85.007Y-86.683
X85.038Y-126.492
X85.09Y-91.44
X85.091Y-186.454
X85.16Y-211.365
X85.299Y-174.244
X85.344Y-151.384
X85.344Y-160.274
X85.344Y-200.152
X85.355Y-150.124
X85.4Y-141.65
X85.42Y-221.65
X85.471Y-184.657
X85.58Y-145.077
X85.598Y-73.764
X85.598Y-104.648
X85.84Y-63.924
X85.852Y-92.202
X85.852Y-94.234
X85.852Y-115.062
X86.197Y-214.285
X86.388Y-99.822
X86.418Y-189.717
X86.54Y-185.092
X86.614Y-90.17
X86.672Y-169.888
X87.049Y-222.319
X87.77Y-142.67
X87.837Y-122.6
X87.837Y-127.64
X88.138Y-67.564
X88.203Y-83.075
X88.27Y-138.01
X88.29Y-218.01
X88.31Y-133.05
X88.32Y-108.13
X88.33Y-213.05
X88.34Y-188.13
X88.37Y-118.05
X88.39Y-198.05
X88.41Y-73.04
X88.41Y-98.07
X88.42Y-203.02
X88.43Y-153.04
X88.43Y-178.07
X88.44Y-78.09
X88.45Y-88.13
X88.45Y-113.12
X88.46Y-103.11
X88.46Y-158.09
X88.47Y-168.13
X88.47Y-193.12
X88.48Y-183.11
X88.5Y-93.09
X88.51Y-208.1
X88.52Y-173.09
X88.59Y-163.14
X89.408Y-198.774
X89.632Y-218.948
X89.983Y-76.624
X89.996Y-111.586
X90.17Y-140.462
X90.17Y-141.732
X90.346Y-86.614
X90.347Y-89.916
X90.424Y-109.474
X90.424Y-179.832
X90.424Y-186.436
X90.424Y-201.422
X90.678Y-78.994
X90.678Y-94.234
X90.678Y-216.916
X90.8Y-221.96
X90.854Y-88.978
X90.932Y-100.076
X91.186Y-134.874
X91.186Y-145.288
X91.186Y-170.434
X91.44Y-96.774
X91.44Y-184.912
X91.694Y-90.17
X92.74Y-142.67
X92.83Y-92.668
X92.83Y-107.656
X92.832Y-102.748
X93.22Y-88.136
X93.31Y-118.05
X93.33Y-98.07
X93.33Y-198.05
X93.34Y-133.05
X93.35Y-178.07
X93.36Y-78.09
X93.36Y-128.1
X93.36Y-213.05
X93.38Y-73.04
X93.38Y-158.09
X93.38Y-208.1
X93.4Y-153.04
X93.42Y-123.02
X93.44Y-203.02
X93.46Y-173.09
X93.47Y-168.13
X93.48Y-138.01
X93.49Y-183.11
X93.5Y-218.01
X93.56Y-113.12
X93.56Y-83.349
X93.58Y-163.14
X93.58Y-193.12
X93.91Y-188.13
X94.234Y-198.882
X95.158Y-124.036
X95.25Y-71.628
X95.25Y-126.492
X95.254Y-69.084
X95.339Y-153.764
X95.38Y-141.68
X95.47Y-221.67
X95.504Y-172.212
X95.504Y-184.404
X95.702Y-100.094
X95.758Y-101.092
X95.758Y-130.048
X95.758Y-145.796
X95.758Y-151.892
X95.758Y-191.77
X95.988Y-68.072
X96.012Y-170.942
X96.012Y-209.804
X96.139Y-65.405
X96.53Y-221.04
X96.713Y-84.836
X96.713Y-89.916
X97.78Y-142.67
X98.31Y-138.01
X98.33Y-118.05
X98.33Y-218.01
X98.35Y-198.05
X98.37Y-113.12
X98.37Y-133.05
X98.39Y-98.07
X98.39Y-108.13
X98.39Y-193.12
X98.39Y-213.05
X98.41Y-178.07
X98.41Y-188.13
X98.42Y-73.04
X98.43Y-88.13
X98.44Y-103.11
X98.44Y-153.04
X98.45Y-168.13
X98.46Y-183.11
X98.47Y-208.1
X98.48Y-78.09
X98.5Y-93.09
X98.5Y-158.09
X98.51Y-83.14
X98.52Y-173.09
X98.53Y-163.14
X98.58Y-203.02
X98.948Y-123.698
X98.948Y-128.1
X98.968Y-198.882
X99.822Y-94.861
X100.076Y-141.478
X100.076Y-221.488
X100.095Y-161.567
X100.345Y-191.269
X100.387Y-99.53
X100.397Y-110.236
X100.409Y-73.764
X100.417Y-192.278
X100.417Y-195.58
X100.417Y-208.825
X100.498Y-101.178
X100.584Y-66.802
X100.584Y-111.506
X100.584Y-116.586
X100.584Y-120.65
X100.584Y-128.825
X100.838Y-70.104
X100.838Y-74.676
X100.838Y-210.312
X100.838Y-211.582
X100.838Y-214.122
X100.877Y-187.276
X100.901Y-153.764
X101.092Y-139.954
X101.49Y-221.49
X101.567Y-79.732
X101.6Y-84.836
X101.803Y-173.814
X102.316Y-193.12
X102.52Y-162.938
X102.71Y-142.67
X102.76Y-77.723
X102.8Y-187.706
X102.8Y-207.518
X102.919Y-212.549
X103.22Y-118.05
X103.24Y-198.05
X103.28Y-123.02
X103.3Y-203.02
X103.31Y-73.04
X103.31Y-158.09
X103.32Y-98.07
X103.33Y-153.04
X103.34Y-178.07
X103.35Y-173.09
X103.38Y-138.01
X103.38Y-168.13
X103.4Y-133.05
X103.4Y-218.01
X103.42Y-83.14
X103.42Y-128.1
X103.47Y-113.12
X103.48Y-183.11
X103.84Y-88.13
X103.84Y-103.11
X103.84Y-108.13
X104.236Y-92.525
X104.236Y-93.955
X104.902Y-199.39
X104.934Y-106.639
X104.99Y-121.534
X105.309Y-195.072
X105.41Y-78.814
X105.41Y-155.956
X105.41Y-205.486
X105.44Y-141.68
X105.46Y-221.68
X105.664Y-102.362
X105.664Y-120.142
X105.664Y-151.638
X105.664Y-171.958
X105.664Y-182.118
X106.172Y-99.314
X106.246Y-79.539
X106.426Y-139.954
X106.49Y-221.2
X106.663Y-73.765
X106.68Y-89.916
X107.74Y-142.67
X107.815Y-77.723
X107.827Y-97.429
X107.837Y-72.547
X107.837Y-92.489
X107.837Y-112.46
X107.837Y-117.602
X108.29Y-108.13
X108.29Y-133.05
X108.31Y-213.05
X108.34Y-123.02
X108.35Y-88.13
X108.37Y-198.05
X108.39Y-138.01
X108.39Y-178.07
X108.4Y-158.09
X108.41Y-103.11
X108.41Y-218.01
X108.43Y-183.11
X108.46Y-128.1
X108.46Y-153.04
X108.5Y-173.09
X108.51Y-83.14
X108.53Y-163.14
X108.712Y-67.818
X108.783Y-192.6
X108.918Y-168.656
X108.918Y-203.02
X108.918Y-208.1
X109.232Y-83.864
X109.474Y-198.882
X110.1Y-141.64
X110.12Y-221.64
X110.236Y-101.6
X110.236Y-126.746
X110.34Y-188.101
X110.347Y-108.966
X110.347Y-134.366
X110.367Y-169.418
X110.49Y-106.934
X110.49Y-111.506
X110.49Y-130.302
X110.49Y-185.42
X110.49Y-204.47
X110.744Y-89.662
X110.744Y-139.192
X111.506Y-74.676
X111.506Y-79.756
X111.506Y-119.634
X111.506Y-141.945
X111.52Y-221.2
X112.74Y-142.67
X113.24Y-93.09
X113.26Y-133.05
X113.26Y-173.09
X113.27Y-78.09
X113.271Y-117.366
X113.28Y-198.05
X113.29Y-138.01
X113.29Y-158.09
X113.3Y-113.12
X113.31Y-123.02
X113.31Y-128.1
X113.31Y-218.01
X113.32Y-103.11
X113.33Y-203.02
X113.34Y-98.07
X113.34Y-183.11
X113.36Y-178.07
X113.39Y-73.04
X113.39Y-88.13
X113.39Y-108.13
X113.41Y-153.04
X113.41Y-168.13
X113.46Y-83.14
X113.87Y-192.786
X113.87Y-198.882
X113.87Y-213.05
X113.88Y-163.14
X114.3Y-93.814
X114.3Y-208.1
X114.337Y-188.13
X114.859Y-186.69
X115.062Y-76.454
X115.304Y-206.045
X115.316Y-79.756
X115.316Y-101.092
X115.316Y-119.634
X115.316Y-156.264
X115.37Y-141.6
X115.39Y-221.6
X115.57Y-129.032
X115.57Y-159.512
X115.57Y-207.264
X115.779Y-160.495
X116.078Y-145.288
X116.078Y-184.912
X116.229Y-169.672
X116.332Y-134.62
X116.39Y-221.6
X116.673Y-68.715
X117.75Y-142.67
X118.32Y-128.1
X118.34Y-208.1
X118.35Y-133.05
X118.37Y-213.05
X118.38Y-153.04
X118.38Y-193.12
X118.39Y-178.07
X118.4Y-108.13
X118.41Y-123.02
X118.41Y-198.05
X118.42Y-158.09
X118.42Y-188.13
X118.43Y-203.02
X118.44Y-138.01
X118.45Y-173.09
X118.46Y-218.01
X118.47Y-103.11
X118.48Y-88.13
X118.49Y-183.11
X118.5Y-168.13
X118.66Y-83.14
X118.68Y-163.14
X118.872Y-113.12
X118.872Y-118.05
X118.888Y-73.04
X118.898Y-78.09
X118.898Y-98.07
X119.126Y-193.844
X119.634Y-83.864
X119.925Y-93.053
X120.07Y-141.63
X120.09Y-221.63
X120.258Y-186.868
X120.396Y-157.226
X120.396Y-184.15
X120.65Y-98.806
X120.65Y-135.636
X120.65Y-162.306
X120.65Y-165.862
X120.65Y-198.882
X120.65Y-205.994
X120.904Y-114.808
X120.904Y-146.05
X120.904Y-169.164
X121.51Y-221.56
X121.625Y-68.725
X122.77Y-142.67
X122.8Y-128.1
X123.19Y-93.09
X123.21Y-173.09
X123.24Y-78.09
X123.26Y-133.05
X123.26Y-158.09
X123.28Y-213.05
X123.31Y-73.04
X123.31Y-113.12
X123.32Y-103.11
X123.33Y-153.04
X123.33Y-193.12
X123.34Y-183.11
X123.35Y-88.13
X123.37Y-98.07
X123.37Y-123.02
X123.37Y-168.13
X123.37Y-208.1
X123.39Y-138.01
X123.39Y-178.07
X123.39Y-203.02
X123.41Y-118.05
X123.41Y-218.01
X123.43Y-198.05
X123.48Y-108.13
X123.5Y-188.13
X123.55Y-83.14
X123.57Y-163.14
X123.98Y-128.524
X124.46Y-88.855
X125.171Y-196.812
X125.222Y-195.326
X125.222Y-214.122
X125.43Y-141.62
X125.73Y-146.558
X126.07Y-221.57
X126.683Y-73.764
X127.73Y-142.67
X128.191Y-93.059
X128.211Y-173.059
X128.31Y-78.09
X128.32Y-108.13
X128.33Y-113.12
X128.33Y-133.05
X128.33Y-158.09
X128.34Y-188.13
X128.35Y-193.12
X128.35Y-213.05
X128.37Y-98.07
X128.38Y-138.01
X128.39Y-178.07
X128.4Y-123.02
X128.4Y-218.01
X128.41Y-73.04
X128.42Y-203.02
X128.43Y-153.04
X128.44Y-118.05
X128.46Y-198.05
X128.47Y-103.11
X128.48Y-128.1
X128.49Y-183.11
X128.5Y-88.13
X128.5Y-208.1
X128.51Y-83.14
X128.52Y-168.13
X128.53Y-163.14
X129.336Y-88.855
X129.794Y-193.844
X130.23Y-141.65
X130.302Y-211.582
X130.556Y-101.346
X130.81Y-123.952
X130.81Y-145.288
X130.81Y-147.066
X130.994Y-114.088
X131.27Y-221.59
X131.615Y-68.725
X132.74Y-142.67
X133.22Y-78.09
X133.24Y-158.09
X133.28Y-88.13
X133.29Y-123.02
X133.3Y-83.14
X133.3Y-168.13
X133.31Y-113.12
X133.31Y-203.02
X133.32Y-98.07
X133.32Y-133.05
X133.32Y-163.14
X133.33Y-128.1
X133.33Y-193.12
X133.34Y-178.07
X133.34Y-213.05
X133.35Y-118.05
X133.35Y-208.1
X133.36Y-108.13
X133.37Y-198.05
X133.38Y-188.13
X133.39Y-138.01
X133.4Y-93.09
X133.41Y-218.01
X133.42Y-73.04
X133.42Y-173.09
X133.44Y-153.04
X133.47Y-103.11
X133.49Y-183.11
X134.62Y-88.9
X134.874Y-192.278
X135.36Y-141.62
X135.382Y-211.074
X135.89Y-80.01
X135.89Y-147.32
X135.89Y-151.13
X135.89Y-174.498
X136.144Y-84.836
X136.398Y-69.342
X136.55Y-221.58
X137.78Y-142.68
X137.922Y-123.02
X138.194Y-78.072
X138.342Y-138.01
X138.38Y-218.01
X138.43Y-88.13
X138.43Y-93.09
X138.43Y-98.07
X138.43Y-113.12
X138.43Y-118.05
X138.43Y-193.12
X138.43Y-203.02
X138.45Y-108.13
X138.45Y-128.11
X138.47Y-83.14
X138.47Y-188.13
X138.47Y-208.11
X138.48Y-178.06
X138.502Y-163.14
X138.52Y-103.1
X138.522Y-158.08
X138.53Y-73.03
X138.53Y-133.05
X138.55Y-213.05
X138.552Y-153.03
X138.61Y-168.13
X138.61Y-173.09
X138.61Y-198.05
X138.684Y-183.1
X139.7Y-88.9
X139.737Y-183.896
X140.09Y-141.61
X140.462Y-203.962
X140.499Y-91.19
X140.97Y-65.786
X140.97Y-119.888
X140.97Y-147.828
X141.45Y-221.58
X142.75Y-142.66
X143.25Y-133.04
X143.27Y-213.04
X143.29Y-73.03
X143.31Y-153.03
X143.32Y-78.08
X143.32Y-83.13
X143.32Y-113.11
X143.33Y-118.04
X143.34Y-158.08
X143.34Y-163.13
X143.34Y-193.11
X143.35Y-198.04
X143.36Y-103.1
X143.36Y-138.0
X143.37Y-98.06
X143.38Y-88.12
X143.38Y-128.09
X143.38Y-183.1
X143.38Y-218.0
X143.39Y-93.08
X143.39Y-178.06
X143.4Y-168.12
X143.4Y-208.09
X143.41Y-173.08
X143.47Y-108.12
X143.49Y-123.01
X143.49Y-188.12
X143.51Y-203.01
X144.526Y-98.806
X144.564Y-183.965
X145.288Y-202.184
X145.299Y-93.726
X145.42Y-141.64
X146.05Y-66.802
X146.05Y-148.082
X146.36Y-221.6
X147.79Y-142.66
X148.29Y-138.0
X148.31Y-218.0
X148.33Y-133.04
X148.34Y-108.12
X148.35Y-213.04
X148.36Y-188.12
X148.39Y-118.04
X148.41Y-198.04
X148.42Y-123.01
X148.43Y-73.03
X148.43Y-98.06
X148.44Y-203.01
X148.45Y-153.03
X148.45Y-178.06
X148.46Y-78.08
X148.47Y-88.12
X148.47Y-113.11
X148.48Y-103.1
X148.48Y-158.08
X148.49Y-168.12
X148.49Y-193.11
X148.5Y-183.1
X148.51Y-128.09
X148.52Y-93.08
X148.53Y-208.09
X148.54Y-173.08
X148.59Y-83.13
X148.61Y-163.13
X149.352Y-98.784
X149.352Y-183.896
X150.06Y-141.68
X150.368Y-201.676
X150.622Y-181.356
X151.13Y-148.59
X151.384Y-65.024
X151.384Y-124.714
X151.49Y-221.62
X152.76Y-142.66
X153.33Y-118.04
X153.35Y-98.06
X153.35Y-198.04
X153.36Y-108.12
X153.36Y-133.04
X153.37Y-178.06
X153.38Y-78.08
X153.38Y-128.09
X153.38Y-188.12
X153.38Y-213.04
X153.4Y-73.03
X153.4Y-158.08
X153.4Y-208.09
X153.42Y-153.03
X153.44Y-123.01
X153.46Y-93.08
X153.46Y-203.01
X153.47Y-88.12
X153.48Y-173.08
X153.49Y-103.1
X153.49Y-168.12
X153.5Y-138.0
X153.51Y-183.1
X153.52Y-218.0
X153.58Y-83.13
X153.58Y-113.11
X153.6Y-163.13
X153.6Y-193.11
X154.215Y-178.816
X154.432Y-98.784
X155.448Y-201.168
X155.46Y-141.68
X155.702Y-91.44
X155.702Y-130.81
X155.702Y-152.146
X155.702Y-174.244
X155.702Y-191.516
X156.427Y-174.969
X156.464Y-65.024
X156.48Y-221.57
X157.8Y-142.66
X158.33Y-138.0
X158.35Y-118.04
X158.35Y-218.0
X158.37Y-198.04
X158.39Y-113.11
X158.39Y-133.04
X158.41Y-98.06
X158.41Y-108.12
X158.41Y-193.11
X158.41Y-213.04
X158.43Y-178.06
X158.43Y-188.12
X158.44Y-73.03
X158.45Y-88.12
X158.46Y-103.1
X158.46Y-153.03
X158.47Y-128.09
X158.47Y-168.12
X158.48Y-183.1
X158.49Y-208.09
X158.5Y-78.08
X158.52Y-93.08
X158.52Y-158.08
X158.53Y-83.13
X158.54Y-173.08
X158.55Y-163.13
X158.58Y-123.01
X158.6Y-203.01
X159.512Y-98.806
X159.512Y-178.816
X160.151Y-101.501
X160.19Y-141.63
X160.31Y-221.48
X160.528Y-76.962
X160.528Y-200.152
X161.29Y-169.164
X161.542Y-199.646
X161.544Y-221.488
X162.73Y-142.66
X163.24Y-118.04
X163.26Y-198.04
X163.3Y-123.01
X163.31Y-78.08
X163.31Y-108.12
X163.32Y-203.01
X163.33Y-73.03
X163.33Y-158.08
X163.33Y-188.12
X163.34Y-98.06
X163.35Y-93.08
X163.35Y-153.03
X163.36Y-178.06
X163.37Y-173.08
X163.38Y-88.12
X163.4Y-138.0
X163.4Y-168.12
X163.42Y-133.04
X163.42Y-218.0
X163.44Y-83.13
X163.44Y-128.09
X163.44Y-213.04
X163.46Y-163.13
X163.46Y-208.09
X163.48Y-103.1
X163.49Y-113.11
X163.5Y-183.1
X163.51Y-193.11
X164.592Y-122.285
X164.846Y-183.896
X164.915Y-76.6
X165.1Y-96.774
X165.354Y-196.85
X165.354Y-210.82
X165.4Y-141.66
X165.608Y-179.07
X165.862Y-167.132
X165.862Y-205.74
X166.32Y-221.334
X167.76Y-142.66
X168.31Y-108.12
X168.31Y-133.04
X168.33Y-188.12
X168.33Y-213.04
X168.36Y-123.01
X168.37Y-88.12
X168.37Y-118.04
X168.38Y-203.01
X168.39Y-98.06
X168.39Y-168.12
X168.39Y-198.04
X168.4Y-78.08
X168.41Y-138.0
X168.41Y-178.06
X168.42Y-113.11
X168.42Y-158.08
X168.43Y-103.1
X168.43Y-218.0
X168.44Y-193.11
X168.45Y-183.1
X168.46Y-73.03
X168.48Y-128.09
X168.48Y-153.03
X168.5Y-93.08
X168.5Y-208.09
X168.52Y-173.08
X168.53Y-83.13
X168.55Y-163.13
X169.672Y-183.896
X169.773Y-118.764
X170.23Y-141.68
X170.357Y-94.488
X170.454Y-201.56
X170.688Y-75.946
X170.688Y-195.326
X170.688Y-205.232
X170.942Y-166.37
X171.14Y-221.63
X172.76Y-142.66
X173.26Y-93.08
X173.28Y-118.04
X173.28Y-133.04
X173.28Y-173.08
X173.29Y-78.08
X173.3Y-198.04
X173.3Y-213.04
X173.31Y-138.0
X173.31Y-158.08
X173.32Y-113.11
X173.33Y-123.01
X173.33Y-128.09
X173.33Y-218.0
X173.34Y-103.1
X173.34Y-193.11
X173.35Y-203.01
X173.35Y-208.09
X173.36Y-98.06
X173.36Y-183.1
X173.38Y-178.06
X173.41Y-73.03
X173.41Y-88.12
X173.41Y-108.12
X173.43Y-153.03
X173.43Y-168.12
X173.43Y-188.12
X173.48Y-83.13
X173.5Y-163.13
X174.498Y-183.896
X175.49Y-141.6
X175.514Y-211.582
X175.768Y-94.488
X175.768Y-195.834
X175.768Y-201.111
X175.768Y-203.962
X175.77Y-182.37
X176.022Y-89.916
X176.022Y-164.084
X176.09Y-221.6
X176.276Y-80.01
X176.276Y-100.076
X176.44Y-140.12
X177.77Y-142.66
X178.34Y-128.09
X178.36Y-208.09
X178.37Y-133.04
X178.38Y-73.03
X178.38Y-113.11
X178.39Y-98.06
X178.39Y-213.04
X178.4Y-153.03
X178.4Y-193.11
X178.41Y-118.04
X178.41Y-178.06
X178.42Y-78.08
X178.42Y-108.12
X178.43Y-123.01
X178.43Y-198.04
X178.44Y-158.08
X178.44Y-188.12
X178.45Y-93.08
X178.45Y-203.01
X178.46Y-138.0
X178.47Y-173.08
X178.48Y-218.0
X178.49Y-103.1
X178.5Y-88.12
X178.51Y-183.1
X178.52Y-168.12
X178.68Y-83.13
X178.7Y-163.13
X179.324Y-183.896
X180.07Y-141.67
X180.151Y-101.411
X180.344Y-200.918
X180.357Y-74.676
X180.377Y-127.281
X180.594Y-80.01
X180.594Y-192.024
X180.594Y-207.264
X180.827Y-102.362
X180.827Y-121.666
X180.848Y-161.544
X180.885Y-80.966
X181.102Y-76.962
X181.28Y-139.93
X181.28Y-221.55
X181.356Y-169.672
X181.466Y-94.638
X182.118Y-83.855
X182.32Y-127.553
X182.79Y-142.66
X182.8Y-77.47
X182.82Y-72.47
X182.82Y-122.428
X183.21Y-93.08
X183.23Y-173.08
X183.28Y-133.04
X183.28Y-158.08
X183.3Y-213.04
X183.33Y-113.11
X183.34Y-103.1
X183.35Y-153.03
X183.35Y-193.11
X183.36Y-183.1
X183.37Y-88.12
X183.39Y-98.06
X183.39Y-168.12
X183.39Y-208.09
X183.41Y-138.0
X183.41Y-178.06
X183.41Y-203.01
X183.43Y-118.04
X183.43Y-218.0
X183.45Y-198.04
X183.5Y-108.12
X183.52Y-188.12
X183.57Y-83.13
X183.59Y-163.13
X184.404Y-183.825
X185.166Y-91.694
X185.42Y-71.12
X185.42Y-171.704
X185.45Y-141.62
X185.636Y-201.35
X185.674Y-191.516
X185.674Y-215.9
X185.928Y-119.888
X186.182Y-114.808
X186.24Y-139.85
X186.24Y-221.53
X186.436Y-79.756
X186.69Y-84.074
X186.69Y-88.9
X186.723Y-153.754
X187.356Y-212.598
X187.75Y-142.66
X187.887Y-182.626
X187.895Y-157.713
X187.897Y-207.643
X187.898Y-187.705
X187.948Y-162.74
X188.211Y-93.049
X188.231Y-173.049
X188.33Y-78.08
X188.34Y-108.12
X188.35Y-113.11
X188.35Y-133.04
X188.37Y-193.11
X188.4Y-138.0
X188.41Y-178.06
X188.42Y-123.01
X188.42Y-218.0
X188.43Y-73.03
X188.44Y-203.01
X188.45Y-153.03
X188.46Y-118.04
X188.48Y-198.04
X188.5Y-128.09
X188.52Y-88.12
X188.53Y-83.13
X188.54Y-168.12
X188.928Y-98.06
X188.938Y-102.616
X189.738Y-178.816
X190.016Y-131.587
X190.17Y-141.55
X190.246Y-81.534
X190.5Y-201.93
X190.504Y-199.132
X190.754Y-69.596
X190.754Y-99.822
X190.754Y-134.874
X190.97Y-89.408
X191.008Y-154.94
X191.008Y-174.498
X191.008Y-194.564
X191.22Y-139.92
X191.41Y-221.58
X191.617Y-159.702
X192.024Y-98.06
X192.282Y-102.612
X192.76Y-142.66
X193.26Y-158.08
X193.3Y-88.12
X193.32Y-83.13
X193.32Y-168.12
X193.33Y-113.11
X193.33Y-203.01
X193.34Y-133.04
X193.34Y-163.13
X193.35Y-193.11
X193.36Y-178.06
X193.36Y-213.04
X193.37Y-118.04
X193.37Y-208.09
X193.38Y-108.12
X193.39Y-198.04
X193.4Y-188.12
X193.42Y-93.08
X193.43Y-218.0
X193.44Y-73.03
X193.44Y-173.08
X193.46Y-153.03
X193.51Y-183.1
X193.548Y-138.0
X193.849Y-127.534
X193.86Y-78.08
X193.87Y-123.01
X194.056Y-178.816
X195.072Y-186.69
X195.134Y-131.771
X195.319Y-129.032
X195.326Y-166.37
X195.326Y-199.39
X195.45Y-141.66
X195.58Y-82.042
X195.58Y-88.9
X195.58Y-201.676
X195.58Y-216.408
X196.342Y-69.85
X196.342Y-194.818
X196.47Y-221.58
X196.596Y-109.982
X196.713Y-153.754
X197.79Y-142.71
X198.374Y-103.1
X198.374Y-203.01
X198.4Y-218.0
X198.46Y-78.08
X198.47Y-108.12
X198.47Y-178.06
X198.48Y-128.09
X198.54Y-73.03
X198.55Y-113.11
X198.55Y-133.04
X198.56Y-153.03
X198.57Y-193.11
X198.61Y-88.12
X198.61Y-118.04
X198.628Y-83.13
X198.628Y-93.09
X198.628Y-98.07
X198.628Y-123.01
X198.63Y-168.12
X198.63Y-173.08
X198.63Y-198.04
X198.844Y-188.129
X198.882Y-138.0
X198.948Y-213.548
X199.427Y-178.816
X199.456Y-158.093
X199.644Y-163.13
X199.898Y-182.626
X199.898Y-208.064
X200.15Y-141.59
X200.152Y-126.492
X200.406Y-73.914
X200.406Y-79.756
X200.406Y-94.996
X200.406Y-191.516
X200.406Y-200.66
X200.66Y-219.71
X201.03Y-221.62
X201.168Y-85.09
X201.168Y-154.94
X202.74Y-142.66
X203.24Y-133.04
X203.26Y-213.04
X203.28Y-73.03
X203.3Y-153.03
X203.31Y-78.08
X203.31Y-83.13
X203.31Y-113.11
X203.32Y-118.04
X203.33Y-158.08
X203.33Y-163.13
X203.33Y-193.11
X203.34Y-198.04
X203.35Y-103.1
X203.35Y-138.0
X203.36Y-98.06
X203.37Y-88.12
X203.37Y-128.09
X203.37Y-183.1
X203.37Y-218.0
X203.38Y-93.08
X203.38Y-178.06
X203.39Y-168.12
X203.39Y-208.09
X203.4Y-173.08
X203.46Y-108.12
X203.48Y-123.01
X203.48Y-188.12
X203.5Y-203.01
X204.216Y-178.816
X205.289Y-94.234
X205.41Y-141.64
X205.486Y-74.93
X205.486Y-170.18
X205.486Y-203.962
X205.74Y-211.074
X205.83Y-221.79
X205.994Y-104.14
X206.693Y-153.754
X207.78Y-142.66
X208.28Y-138.0
X208.3Y-218.0
X208.32Y-133.04
X208.33Y-108.12
X208.34Y-213.04
X208.35Y-188.12
X208.38Y-118.04
X208.4Y-198.04
X208.41Y-123.01
X208.42Y-73.03
X208.42Y-98.06
X208.43Y-203.01
X208.44Y-153.03
X208.44Y-178.06
X208.45Y-78.08
X208.46Y-88.12
X208.46Y-113.11
X208.47Y-103.1
X208.47Y-158.08
X208.48Y-168.12
X208.48Y-193.11
X208.49Y-183.1
X208.5Y-128.09
X208.51Y-93.08
X208.52Y-208.09
X208.53Y-173.08
X208.58Y-83.13
X208.6Y-163.13
X209.296Y-178.816
X210.23Y-141.49
X210.566Y-91.948
X210.566Y-204.724
X210.82Y-76.2
X210.82Y-187.198
X210.82Y-210.312
X210.89Y-222.07
X211.328Y-153.924
X212.75Y-142.66
X213.32Y-118.04
X213.34Y-98.06
X213.34Y-198.04
X213.35Y-108.12
X213.35Y-133.04
X213.36Y-178.06
X213.37Y-78.08
X213.37Y-128.09
X213.37Y-188.12
X213.37Y-213.04
X213.39Y-73.03
X213.39Y-158.08
X213.39Y-208.09
X213.41Y-153.03
X213.43Y-123.01
X213.45Y-93.08
X213.45Y-203.01
X213.46Y-88.12
X213.47Y-173.08
X213.48Y-103.1
X213.48Y-168.12
X213.49Y-138.0
X213.5Y-183.1
X213.51Y-218.0
X213.57Y-83.13
X213.57Y-113.11
X213.59Y-163.13
X213.59Y-193.11
X214.376Y-178.816
X215.146Y-91.448
X215.392Y-76.962
X215.51Y-141.69
X215.9Y-205.486
X215.9Y-216.662
X216.6Y-221.6
X216.72Y-158.804
X217.79Y-142.66
X218.32Y-138.0
X218.34Y-118.04
X218.34Y-218.0
X218.36Y-198.04
X218.38Y-113.11
X218.38Y-133.04
X218.4Y-98.06
X218.4Y-108.12
X218.4Y-193.11
X218.4Y-213.04
X218.42Y-178.06
X218.42Y-188.12
X218.43Y-73.03
X218.44Y-88.12
X218.45Y-103.1
X218.45Y-153.03
X218.46Y-128.09
X218.46Y-168.12
X218.47Y-183.1
X218.48Y-208.09
X218.49Y-78.08
X218.51Y-93.08
X218.51Y-158.08
X218.52Y-83.13
X218.53Y-173.08
X218.54Y-163.13
X218.57Y-123.01
X218.59Y-203.01
X219.456Y-178.896
X220.24Y-141.6
X220.348Y-91.242
X220.472Y-206.248
X220.726Y-78.994
X220.98Y-159.004
X221.47Y-221.6
X222.72Y-142.66
X223.23Y-118.04
X223.25Y-198.04
X223.29Y-123.01
X223.3Y-78.08
X223.3Y-108.12
X223.31Y-203.01
X223.32Y-73.03
X223.32Y-158.08
X223.32Y-188.12
X223.33Y-98.06
X223.34Y-93.08
X223.34Y-153.03
X223.35Y-178.06
X223.36Y-173.08
X223.37Y-88.12
X223.39Y-138.0
X223.39Y-168.12
X223.41Y-133.04
X223.41Y-218.0
X223.43Y-83.13
X223.43Y-128.09
X223.43Y-213.04
X223.45Y-163.13
X223.45Y-208.09
X223.47Y-103.1
X223.48Y-113.11
X223.49Y-183.1
X223.5Y-193.11
X224.065Y-178.816
X225.298Y-206.502
X225.299Y-90.678
X225.44Y-141.65
X225.552Y-71.882
X226.5Y-221.62
X226.67Y-158.804
X227.75Y-142.66
X228.3Y-108.12
X228.3Y-133.04
X228.32Y-188.12
X228.32Y-213.04
X228.35Y-123.01
X228.36Y-88.12
X228.36Y-118.04
X228.37Y-203.01
X228.38Y-98.06
X228.38Y-168.12
X228.38Y-198.04
X228.39Y-78.08
X228.4Y-138.0
X228.4Y-178.06
X228.41Y-113.11
X228.41Y-158.08
X228.42Y-103.1
X228.42Y-218.0
X228.43Y-193.11
X228.44Y-183.1
X228.45Y-73.03
X228.47Y-128.09
X228.47Y-153.03
X228.49Y-93.08
X228.49Y-208.09
X228.51Y-173.08
X228.52Y-83.13
X228.54Y-163.13
X228.918Y-178.915
X230.08Y-141.6
X230.378Y-96.012
X230.378Y-209.042
X230.632Y-79.248
X231.14Y-159.258
X231.38Y-221.58
X232.75Y-142.66
X233.25Y-93.08
X233.27Y-118.04
X233.27Y-133.04
X233.27Y-173.08
X233.28Y-78.08
X233.29Y-198.04
X233.29Y-213.04
X233.3Y-138.0
X233.3Y-158.08
X233.31Y-113.11
X233.32Y-123.01
X233.32Y-128.09
X233.32Y-218.0
X233.33Y-103.1
X233.33Y-193.11
X233.34Y-203.01
X233.34Y-208.09
X233.35Y-98.06
X233.35Y-183.1
X233.37Y-178.06
X233.4Y-73.03
X233.4Y-88.12
X233.4Y-108.12
X233.42Y-153.03
X233.42Y-168.12
X233.42Y-188.12
X233.47Y-83.13
X233.49Y-163.13
X234.188Y-178.816
X235.204Y-96.774
X235.204Y-211.328
X235.45Y-141.62
X235.458Y-71.12
X236.22Y-159.766
X236.45Y-221.57
X237.76Y-142.66
X238.33Y-128.09
X238.35Y-208.09
X238.36Y-133.04
X238.37Y-73.03
X238.37Y-113.11
X238.38Y-98.06
X238.38Y-213.04
X238.39Y-153.03
X238.39Y-193.11
X238.4Y-118.04
X238.4Y-178.06
X238.41Y-78.08
X238.41Y-108.12
X238.42Y-123.01
X238.42Y-198.04
X238.43Y-158.08
X238.43Y-188.12
X238.44Y-93.08
X238.44Y-203.01
X238.45Y-138.0
X238.46Y-173.08
X238.47Y-218.0
X238.48Y-103.1
X238.49Y-88.12
X238.5Y-183.1
X238.51Y-168.12
X238.67Y-83.13
X238.69Y-163.13
X239.268Y-178.909
X240.08Y-106.492
X240.23Y-141.935
X240.284Y-211.836
X241.046Y-159.512
X241.25Y-139.97
X241.47Y-221.59
X242.78Y-142.66
X243.2Y-93.08
X243.22Y-173.08
X243.25Y-78.08
X243.27Y-133.04
X243.27Y-158.08
X243.29Y-213.04
X243.32Y-73.03
X243.32Y-113.11
X243.33Y-103.1
X243.34Y-153.03
X243.34Y-193.11
X243.35Y-183.1
X243.36Y-88.12
X243.36Y-128.09
X243.38Y-98.06
X243.38Y-123.01
X243.38Y-168.12
X243.38Y-208.09
X243.4Y-138.0
X243.4Y-178.06
X243.4Y-203.01
X243.42Y-118.04
X243.42Y-218.0
X243.44Y-198.04
X243.49Y-108.12
X243.51Y-188.12
X243.56Y-83.13
X243.58Y-163.13
X244.602Y-178.936
X245.364Y-125.222
X245.364Y-209.804
X245.872Y-157.226
X246.126Y-80.264
X246.4Y-221.53
X247.74Y-142.66
X248.201Y-93.049
X248.221Y-173.049
X248.32Y-78.08
X248.33Y-108.12
X248.34Y-113.11
X248.34Y-133.04
X248.34Y-158.08
X248.35Y-188.12
X248.36Y-193.11
X248.36Y-213.04
X248.38Y-98.06
X248.39Y-138.0
X248.4Y-178.06
X248.41Y-123.01
X248.41Y-218.0
X248.42Y-73.03
X248.43Y-203.01
X248.44Y-153.03
X248.45Y-118.04
X248.47Y-198.04
X248.48Y-103.1
X248.49Y-128.09
X248.5Y-183.1
X248.51Y-88.12
X248.51Y-208.09
X248.52Y-83.13
X248.53Y-168.12
X248.54Y-163.13
X248.938Y-173.804
X249.174Y-203.734
X249.936Y-98.902
X250.19Y-161.544
X250.19Y-181.61
X250.23Y-211.803
X250.444Y-124.46
X250.698Y-157.226
X250.952Y-79.502
X251.18Y-180.086
X251.206Y-160.02
X251.206Y-209.804
X251.6Y-221.54
X252.75Y-142.66
X253.23Y-78.08
X253.25Y-158.08
X253.29Y-88.12
X253.3Y-123.01
X253.31Y-83.13
X253.31Y-168.12
X253.32Y-113.11
X253.32Y-203.01
X253.33Y-98.06
X253.33Y-133.04
X253.33Y-163.13
X253.34Y-128.09
X253.34Y-193.11
X253.35Y-178.06
X253.35Y-213.04
X253.36Y-118.04
X253.36Y-208.09
X253.37Y-108.12
X253.38Y-198.04
X253.39Y-188.12
X253.4Y-138.0
X253.41Y-93.08
X253.42Y-218.0
X253.43Y-73.03
X253.43Y-173.08
X253.45Y-153.03
X253.48Y-103.1
X253.5Y-183.1
X254.508Y-173.99
X254.762Y-98.806
X255.289Y-206.229
X255.319Y-82.296
X255.524Y-77.355
X255.524Y-123.952
X255.778Y-96.52
X255.778Y-157.356
X255.778Y-187.198
X255.958Y-106.68
X256.38Y-221.64
X257.79Y-142.67
X258.318Y-73.03
X258.318Y-78.08
X258.318Y-83.13
X258.318Y-98.044
X258.318Y-138.0
X258.39Y-218.0
X258.46Y-108.166
X258.46Y-128.1
X258.47Y-158.047
X258.48Y-188.12
X258.49Y-178.05
X258.5Y-163.13
X258.53Y-103.099
X258.54Y-113.11
X258.54Y-183.1
X258.55Y-153.03
X258.56Y-213.04
X258.572Y-123.01
X258.572Y-133.04
X258.572Y-203.01
X258.572Y-208.022
X258.59Y-193.1
X258.6Y-88.12
X258.6Y-93.08
X258.6Y-118.04
X258.62Y-168.12
X258.62Y-173.08
X258.62Y-198.04
X259.192Y-98.806
X259.588Y-178.816
X260.12Y-141.59
X260.133Y-106.68
X260.35Y-81.788
X260.35Y-205.486
X260.355Y-77.216
X260.367Y-125.658
X260.377Y-84.328
X260.603Y-129.545
X260.675Y-131.55
X260.858Y-157.226
X260.895Y-126.746
X261.112Y-105.156
X261.34Y-221.6
X261.582Y-114.825
X261.62Y-175.26
X262.286Y-182.548
X262.76Y-142.65
X262.79Y-77.561
X262.8Y-82.55
X262.81Y-107.609
X262.81Y-122.602
X262.81Y-127.621
X262.81Y-157.734
X262.82Y-162.54
X262.82Y-177.546
X262.83Y-202.692
X262.83Y-207.518
X262.893Y-102.613
X263.26Y-133.03
X263.28Y-213.03
X263.3Y-73.02
X263.32Y-153.02
X263.33Y-113.1
X263.34Y-118.03
X263.35Y-193.1
X263.36Y-198.03
X263.37Y-137.99
X263.38Y-98.05
X263.39Y-88.11
X263.39Y-217.99
X263.4Y-93.07
X263.41Y-168.11
X263.42Y-173.07
X263.5Y-188.11
X264.668Y-98.806
X265.43Y-118.872
X265.43Y-132.08
X265.684Y-165.608
X265.684Y-185.42
X265.684Y-201.422
X265.938Y-66.802
X266.13Y-221.6
X266.192Y-80.01
X266.192Y-89.662
X266.536Y-204.563
X266.973Y-158.985
X267.8Y-142.65
X268.3Y-137.99
X268.32Y-217.99
X268.34Y-133.03
X268.35Y-108.11
X268.36Y-213.03
X268.37Y-188.11
X268.4Y-118.03
X268.42Y-198.03
X268.43Y-123.0
X268.44Y-73.02
X268.44Y-98.05
X268.45Y-203.0
X268.46Y-153.02
X268.46Y-178.05
X268.47Y-78.07
X268.48Y-88.11
X268.48Y-113.1
X268.49Y-103.09
X268.49Y-158.07
X268.5Y-168.11
X268.5Y-193.1
X268.51Y-183.09
X268.52Y-128.08
X268.53Y-93.07
X268.54Y-208.08
X268.55Y-173.07
X268.6Y-83.12
X268.62Y-163.12
X268.938Y-178.928
X268.996Y-123.834
X269.494Y-93.794
X269.672Y-198.882
X270.068Y-181.645
X270.256Y-86.614
X270.256Y-106.426
X270.256Y-131.572
X270.256Y-161.798
X270.51Y-151.638
X270.764Y-68.326
X270.764Y-136.906
X270.764Y-213.868
X271.272Y-109.728
X271.49Y-221.62
X272.77Y-142.65
X273.34Y-118.03
X273.36Y-98.05
X273.36Y-198.03
X273.37Y-133.03
X273.39Y-188.11
X273.39Y-213.03
X273.41Y-73.02
X273.43Y-153.02
X273.47Y-93.07
X273.49Y-173.07
X273.5Y-168.11
X273.51Y-137.99
X273.53Y-217.99
X273.558Y-88.11
X273.59Y-83.12
X273.59Y-113.1
X273.61Y-193.1
X273.91Y-78.07
X273.92Y-103.09
X273.92Y-108.11
X273.92Y-123.0
X273.92Y-128.08
X273.93Y-158.07
X273.93Y-178.05
X273.94Y-183.09
X273.94Y-203.0
X273.94Y-208.08
X273.95Y-163.12
X274.574Y-168.834
X274.665Y-198.882
X274.828Y-98.884
X275.379Y-84.074
X275.389Y-150.833
X275.423Y-219.115
X275.59Y-118.872
X275.59Y-166.624
X275.59Y-209.296
X275.844Y-66.04
X275.844Y-129.032
X275.844Y-186.69
X276.16Y-221.58
X277.81Y-142.65
X278.34Y-137.99
X278.36Y-118.03
X278.36Y-217.99
X278.38Y-198.03
X278.4Y-113.1
X278.4Y-133.03
X278.42Y-98.05
X278.42Y-108.11
X278.42Y-193.1
X278.42Y-213.03
X278.44Y-178.05
X278.44Y-188.11
X278.45Y-73.02
X278.46Y-88.11
X278.47Y-103.09
X278.47Y-153.02
X278.48Y-128.08
X278.48Y-168.11
X278.49Y-183.09
X278.5Y-208.08
X278.51Y-78.07
X278.53Y-93.07
X278.53Y-158.07
X278.54Y-83.12
X278.55Y-173.07
X278.56Y-163.12
X278.59Y-123.0
X278.61Y-203.0
X279.654Y-173.968
X280.2Y-94.611
X280.67Y-116.84
X280.67Y-200.406
X280.924Y-65.786
X280.924Y-154.178
X281.25Y-221.59
X281.94Y-178.816
X282.74Y-142.65
X283.25Y-118.03
X283.27Y-198.03
X283.31Y-123.0
X283.32Y-78.07
X283.32Y-108.11
X283.33Y-203.0
X283.34Y-73.02
X283.34Y-158.07
X283.34Y-188.11
X283.35Y-98.05
X283.36Y-93.07
X283.36Y-153.02
X283.37Y-178.05
X283.38Y-173.07
X283.41Y-137.99
X283.41Y-168.11
X283.43Y-133.03
X283.43Y-217.99
X283.45Y-83.12
X283.45Y-128.08
X283.45Y-213.03
X283.464Y-88.11
X283.47Y-163.12
X283.47Y-208.08
X283.49Y-103.09
X283.5Y-113.1
X283.51Y-183.09
X283.52Y-193.1
X284.48Y-98.806
X284.615Y-203.724
X285.242Y-120.65
X285.75Y-109.982
X286.004Y-65.532
X286.52Y-221.56
X286.713Y-153.745
X287.77Y-142.65
X288.29Y-97.536
X288.32Y-108.11
X288.32Y-133.03
X288.34Y-188.11
X288.34Y-213.03
X288.37Y-123.0
X288.38Y-88.11
X288.38Y-118.03
X288.39Y-203.0
X288.4Y-168.11
X288.4Y-198.03
X288.41Y-78.07
X288.42Y-137.99
X288.42Y-178.05
X288.43Y-113.1
X288.43Y-158.07
X288.44Y-103.09
X288.44Y-217.99
X288.45Y-193.1
X288.46Y-183.09
X288.47Y-73.02
X288.49Y-128.08
X288.49Y-153.02
X288.51Y-93.07
X288.51Y-208.08
X288.53Y-173.07
X288.54Y-83.12
X288.56Y-163.12
X288.795Y-98.774
X289.672Y-203.724
X290.068Y-178.905
X290.576Y-119.888
X290.576Y-186.944
X290.83Y-65.278
X290.83Y-211.582
X291.084Y-153.744
X291.33Y-221.54
X292.088Y-179.053
X292.77Y-142.65
X293.116Y-97.536
X293.27Y-93.07
X293.29Y-118.03
X293.29Y-133.03
X293.29Y-173.07
X293.3Y-78.07
X293.31Y-198.03
X293.31Y-213.03
X293.32Y-137.99
X293.32Y-158.07
X293.33Y-113.1
X293.34Y-123.0
X293.34Y-128.08
X293.34Y-217.99
X293.35Y-103.09
X293.35Y-193.1
X293.36Y-203.0
X293.36Y-208.08
X293.37Y-183.09
X293.39Y-178.05
X293.42Y-73.02
X293.42Y-88.11
X293.42Y-108.11
X293.44Y-153.02
X293.44Y-168.11
X293.44Y-188.11
X293.49Y-83.12
X293.51Y-163.12
X293.87Y-98.774
X294.625Y-203.962
X295.402Y-119.38
X295.91Y-65.786
X295.91Y-151.892
X296.41Y-221.6
X297.78Y-142.65
X298.196Y-97.79
X298.212Y-99.044
X298.35Y-128.08
X298.37Y-208.08
X298.38Y-133.03
X298.39Y-73.02
X298.39Y-113.1
X298.4Y-213.03
X298.41Y-153.02
X298.41Y-193.1
X298.419Y-179.092
X298.42Y-118.03
X298.42Y-178.05
X298.43Y-78.07
X298.43Y-108.11
X298.44Y-123.0
X298.44Y-198.03
X298.45Y-158.07
X298.45Y-188.11
X298.46Y-93.07
X298.46Y-203.0
X298.47Y-137.99
X298.48Y-173.07
X298.49Y-217.99
X298.5Y-103.09
X298.51Y-88.11
X298.52Y-183.09
X298.53Y-168.11
X298.69Y-83.12
X298.71Y-163.12
X299.662Y-123.952
X299.682Y-203.724
X300.99Y-65.278
X301.244Y-154.432
X301.38Y-221.57
X302.8Y-142.65
X302.846Y-98.77
X303.22Y-93.07
X303.24Y-173.07
X303.27Y-78.07
X303.276Y-97.536
X303.29Y-133.03
X303.29Y-158.07
X303.31Y-213.03
X303.34Y-73.02
X303.34Y-113.1
X303.35Y-103.09
X303.36Y-153.02
X303.36Y-193.1
X303.37Y-183.09
X303.38Y-88.11
X303.38Y-128.08
X303.4Y-123.0
X303.4Y-168.11
X303.4Y-208.08
X303.42Y-137.99
X303.42Y-178.05
X303.42Y-203.0
X303.44Y-118.03
X303.44Y-217.99
X303.46Y-198.03
X303.51Y-108.11
X303.53Y-188.11
X303.58Y-83.12
X303.6Y-163.12
X304.546Y-178.816
X304.615Y-123.952
X304.635Y-203.962
X305.816Y-65.532
X306.38Y-221.55
X306.733Y-153.744
X307.76Y-142.65
X307.968Y-98.81
X308.221Y-93.039
X308.241Y-173.039
X308.284Y-97.392
X308.34Y-78.07
X308.35Y-108.11
X308.36Y-113.1
X308.36Y-133.03
X308.36Y-158.07
X308.37Y-188.11
X308.38Y-193.1
X308.38Y-213.03
X308.41Y-137.99
X308.42Y-178.05
X308.43Y-123.0
X308.43Y-217.99
X308.44Y-73.02
X308.45Y-203.0
X308.46Y-153.02
X308.47Y-118.03
X308.49Y-198.03
X308.5Y-103.09
X308.51Y-128.08
X308.52Y-183.09
X308.53Y-88.11
X308.53Y-208.08
X308.54Y-83.12
X308.55Y-168.11
X308.56Y-163.12
X308.958Y-178.892
X309.008Y-123.816
X309.692Y-203.962
X310.642Y-66.04
X311.64Y-221.56
X311.665Y-148.705
X312.77Y-142.65
X312.957Y-103.857
X313.25Y-78.07
X313.27Y-158.07
X313.31Y-88.11
X313.32Y-123.0
X313.33Y-83.12
X313.33Y-168.11
X313.34Y-113.1
X313.34Y-203.0
X313.35Y-98.05
X313.35Y-133.03
X313.35Y-163.12
X313.36Y-128.08
X313.36Y-193.1
X313.369Y-102.521
X313.37Y-178.05
X313.37Y-213.03
X313.38Y-118.03
X313.38Y-208.08
X313.39Y-108.11
X313.4Y-198.03
X313.41Y-188.11
X313.42Y-137.99
X313.43Y-93.07
X313.44Y-217.99
X313.45Y-73.02
X313.45Y-173.07
X313.47Y-153.02
X313.52Y-183.09
X313.89Y-178.903
X314.625Y-198.882
X314.98Y-196.576
X315.3Y-176.925
X315.722Y-65.786
X315.722Y-124.46
X315.722Y-155.956
X315.722Y-204.216
X316.795Y-148.787
X317.892Y-118.754
X318.262Y-73.02
X318.262Y-93.07
X318.262Y-153.02
X318.262Y-178.05
X318.33Y-202.83
X318.34Y-197.84
X318.341Y-103.09
X318.47Y-78.07
X318.47Y-128.08
X318.47Y-207.98
X318.47Y-218.06
X318.48Y-98.07
X318.48Y-108.11
X318.49Y-158.07
X318.5Y-83.12
X318.5Y-188.11
X318.516Y-137.99
X318.516Y-142.66
X318.516Y-163.12
X318.516Y-168.11
X318.516Y-173.07
X318.516Y-182.626
X318.516Y-193.1
X318.55Y-212.94
X318.56Y-113.1
X318.56Y-133.03
X318.62Y-88.11
X318.73Y-123.02
X318.938Y-118.05
X319.278Y-178.816
X319.682Y-203.962
X320.07Y-141.91
X320.548Y-156.464
X320.802Y-200.152
X321.052Y-180.344
X321.056Y-78.994
X321.31Y-104.902
X321.31Y-154.686
X321.47Y-221.7
X322.74Y-142.67
X323.24Y-133.05
X323.26Y-213.05
X323.28Y-73.04
X323.3Y-153.04
X323.31Y-78.09
X323.31Y-83.14
X323.31Y-113.12
X323.32Y-118.05
X323.33Y-158.09
X323.33Y-163.14
X323.33Y-193.12
X323.34Y-198.05
X323.35Y-103.11
X323.35Y-138.01
X323.36Y-98.07
X323.37Y-88.13
X323.37Y-128.1
X323.37Y-183.11
X323.37Y-218.01
X323.38Y-93.09
X323.38Y-178.07
X323.39Y-168.13
X323.39Y-208.1
X323.4Y-173.09
X323.46Y-108.13
X323.48Y-123.02
X323.48Y-188.13
X323.5Y-203.02
X324.358Y-173.814
X325.12Y-126.746
X325.12Y-201.676
X325.696Y-101.893
X325.882Y-77.216
X325.882Y-154.432
X326.22Y-221.69
X327.78Y-142.67
X328.28Y-138.01
X328.3Y-218.01
X328.32Y-133.05
X328.34Y-213.05
X328.35Y-188.13
X328.38Y-118.05
X328.4Y-198.05
X328.41Y-123.02
X328.42Y-73.04
X328.42Y-98.07
X328.43Y-203.02
X328.44Y-153.04
X328.44Y-178.07
X328.45Y-78.09
X328.46Y-88.13
X328.46Y-113.12
X328.47Y-158.09
X328.48Y-168.13
X328.48Y-193.12
X328.49Y-183.11
X328.5Y-128.1
X328.51Y-93.09
X328.52Y-208.1
X328.53Y-173.09
X328.58Y-83.14
X328.6Y-163.14
X328.879Y-107.567
X328.908Y-102.616
X329.476Y-173.814
X330.454Y-76.454
X330.454Y-201.93
X330.708Y-100.838
X330.708Y-124.714
X330.708Y-154.019
X331.33Y-221.65
X332.75Y-142.67
X333.32Y-118.05
X333.34Y-98.07
X333.34Y-198.05
X333.35Y-108.13
X333.35Y-133.05
X333.36Y-178.07
X333.37Y-78.09
X333.37Y-128.1
X333.37Y-188.13
X333.37Y-213.05
X333.39Y-73.04
X333.39Y-158.09
X333.39Y-208.1
X333.41Y-153.04
X333.43Y-123.02
X333.45Y-93.09
X333.45Y-203.02
X333.46Y-88.13
X333.47Y-173.09
X333.48Y-103.11
X333.48Y-168.13
X333.49Y-138.01
X333.5Y-183.11
X333.51Y-218.01
X333.57Y-83.14
X333.57Y-113.12
X333.59Y-163.14
X333.59Y-193.12
X334.518Y-173.814
X334.645Y-187.305
X335.038Y-81.546
X335.349Y-127.375
X335.48Y-141.71
X335.5Y-80.525
X335.534Y-76.454
X335.788Y-106.426
X335.788Y-131.318
X335.788Y-190.754
X335.809Y-104.902
X335.809Y-109.22
X335.809Y-126.48
X336.296Y-145.034
X336.32Y-221.58
X336.62Y-140.98
X337.79Y-142.67
X338.32Y-138.01
X338.34Y-118.05
X338.34Y-218.01
X338.36Y-198.05
X338.38Y-113.12
X338.38Y-133.05
X338.4Y-98.07
X338.4Y-108.13
X338.4Y-193.12
X338.4Y-213.05
X338.42Y-178.07
X338.42Y-188.13
X338.43Y-73.04
X338.44Y-88.13
X338.45Y-103.11
X338.45Y-153.04
X338.46Y-128.1
X338.46Y-168.13
X338.47Y-183.11
X338.48Y-208.1
X338.49Y-78.09
X338.51Y-93.09
X338.51Y-158.09
X338.52Y-83.14
X338.53Y-173.09
X338.54Y-163.14
X338.57Y-123.02
X338.59Y-203.02
X339.344Y-173.814
X339.702Y-198.882
X340.106Y-101.6
X340.614Y-77.216
X340.614Y-85.09
X340.614Y-124.968
X340.614Y-127.0
X340.614Y-148.844
X340.614Y-169.926
X340.868Y-111.252
X340.868Y-145.796
X341.28Y-141.02
X341.64Y-221.59
X342.72Y-142.67
X342.77Y-77.47
X342.78Y-82.755
X342.78Y-102.604
X342.79Y-127.508
X342.79Y-132.588
X342.8Y-177.546
X342.81Y-172.646
X342.81Y-202.627
X342.81Y-207.772
X342.839Y-158.041
X342.883Y-107.713
X342.9Y-153.04
X343.23Y-118.05
X343.25Y-198.05
X343.29Y-123.02
X343.32Y-73.04
X343.32Y-188.13
X343.33Y-98.07
X343.34Y-93.09
X343.37Y-88.13
X343.39Y-138.01
X343.39Y-168.13
X343.41Y-218.01
X343.43Y-213.05
X343.45Y-163.14
X343.48Y-113.12
X343.49Y-183.11
X343.5Y-193.12
X343.977Y-168.939
X345.694Y-96.774
X345.694Y-110.998
X345.694Y-161.798
X345.694Y-184.15
X345.948Y-148.844
X346.202Y-169.672
X346.456Y-79.756
X346.456Y-104.902
X346.456Y-130.048
X346.456Y-200.152
X346.47Y-221.6
X346.53Y-141.16
X347.75Y-142.67
X348.3Y-133.05
X348.32Y-188.13
X348.32Y-213.05
X348.35Y-123.02
X348.36Y-88.13
X348.36Y-118.05
X348.37Y-203.02
X348.38Y-98.07
X348.38Y-168.13
X348.38Y-198.05
X348.39Y-78.09
X348.4Y-138.01
X348.4Y-178.07
X348.41Y-113.12
X348.41Y-158.09
X348.42Y-103.11
X348.42Y-218.01
X348.43Y-193.12
X348.44Y-183.11
X348.45Y-73.04
X348.469Y-107.498
X348.47Y-128.1
X348.47Y-153.04
X348.49Y-93.09
X348.49Y-208.1
X348.51Y-173.09
X348.52Y-83.14
X348.54Y-163.14
X349.504Y-174.002
X349.652Y-187.304
X350.021Y-131.581
X350.15Y-141.945
X350.266Y-161.798
X350.52Y-86.106
X350.52Y-109.728
X350.52Y-178.816
X350.52Y-209.042
X350.774Y-71.882
X350.774Y-135.128
X351.2Y-140.97
X351.282Y-145.034
X351.282Y-184.912
X351.47Y-221.59
X352.75Y-142.67
X353.25Y-93.09
X353.27Y-118.05
X353.29Y-198.05
X353.29Y-213.05
X353.3Y-138.01
X353.31Y-113.12
X353.32Y-123.02
X353.32Y-218.01
X353.33Y-193.12
X353.35Y-98.07
X353.35Y-183.11
X353.4Y-73.04
X353.4Y-88.13
X353.42Y-168.13
X353.42Y-188.13
X353.49Y-163.14
X353.785Y-107.538
X353.85Y-78.09
X353.86Y-133.05
X353.86Y-153.04
X353.87Y-83.746
X353.87Y-158.09
X353.88Y-208.1
X354.584Y-103.11
X354.584Y-169.017
X354.584Y-203.02
X354.838Y-173.09
X354.838Y-178.07
X354.875Y-128.1
X355.074Y-186.626
X355.092Y-136.652
X355.092Y-143.764
X355.346Y-106.426
X355.48Y-141.68
X355.6Y-82.296
X355.6Y-95.758
X355.6Y-111.76
X355.6Y-164.592
X355.6Y-207.01
X355.689Y-92.184
X355.825Y-131.356
X355.854Y-73.914
X355.854Y-94.488
X355.854Y-109.22
X356.172Y-145.098
X356.19Y-221.58
X356.46Y-140.88
X357.76Y-142.67
X358.33Y-128.1
X358.35Y-208.1
X358.36Y-133.05
X358.37Y-73.04
X358.37Y-113.12
X358.38Y-98.07
X358.38Y-213.05
X358.39Y-153.04
X358.39Y-193.12
X358.4Y-118.05
X358.4Y-178.07
X358.41Y-78.09
X358.41Y-108.13
X358.42Y-123.02
X358.42Y-198.05
X358.43Y-158.09
X358.43Y-188.13
X358.44Y-93.09
X358.44Y-203.02
X358.45Y-138.01
X358.46Y-173.09
X358.47Y-218.01
X358.48Y-103.11
X358.49Y-88.13
X358.5Y-183.11
X358.51Y-168.13
X358.67Y-83.14
X358.69Y-163.14
X359.662Y-187.265
X359.664Y-168.855
X360.172Y-106.463
X360.19Y-141.945
X360.426Y-104.559
X360.68Y-152.146
X360.934Y-74.93
X360.934Y-145.288
X361.188Y-99.822
X361.188Y-204.47
X361.42Y-221.58
X362.78Y-142.67
X363.2Y-93.09
X363.22Y-173.09
X363.25Y-78.09
X363.27Y-133.05
X363.27Y-158.09
X363.29Y-213.05
X363.32Y-73.04
X363.32Y-113.12
X363.33Y-103.11
X363.34Y-153.04
X363.34Y-193.12
X363.35Y-183.11
X363.36Y-88.13
X363.36Y-128.1
X363.38Y-98.07
X363.38Y-123.02
X363.38Y-168.13
X363.38Y-208.1
X363.4Y-138.01
X363.4Y-178.07
X363.4Y-203.02
X363.42Y-118.05
X363.42Y-218.01
X363.44Y-198.05
X363.49Y-108.13
X363.51Y-188.13
X363.56Y-83.14
X363.58Y-163.14
X364.236Y-168.91
X364.615Y-197.265
X365.252Y-126.492
X365.76Y-74.93
X365.76Y-164.592
X366.268Y-145.288
X366.4Y-221.56
X366.522Y-99.822
X367.74Y-142.67
X368.201Y-93.059
X368.221Y-173.059
X368.32Y-78.09
X368.33Y-108.13
X368.34Y-113.12
X368.34Y-133.05
X368.34Y-158.09
X368.35Y-188.13
X368.36Y-193.12
X368.36Y-213.05
X368.38Y-98.07
X368.39Y-138.01
X368.4Y-178.07
X368.41Y-123.02
X368.41Y-218.01
X368.42Y-73.04
X368.43Y-203.02
X368.44Y-153.04
X368.45Y-118.05
X368.47Y-198.05
X368.48Y-103.11
X368.49Y-128.1
X368.5Y-183.11
X368.51Y-88.13
X368.51Y-208.1
X368.52Y-83.14
X368.53Y-168.13
X368.54Y-163.14
X369.57Y-169.038
X369.672Y-198.882
X370.078Y-126.492
X370.84Y-75.184
X371.094Y-100.076
X371.094Y-145.034
X371.28Y-221.59
X372.75Y-142.67
X373.23Y-78.09
X373.25Y-158.09
X373.29Y-88.13
X373.3Y-123.02
X373.31Y-83.14
X373.31Y-168.13
X373.32Y-113.12
X373.32Y-203.02
X373.33Y-98.07
X373.33Y-133.05
X373.33Y-163.14
X373.34Y-128.1
X373.34Y-193.12
X373.35Y-178.07
X373.35Y-213.05
X373.36Y-118.05
X373.36Y-208.1
X373.37Y-108.13
X373.38Y-198.05
X373.39Y-188.13
X373.4Y-138.01
X373.41Y-93.09
X373.42Y-218.01
X373.43Y-73.04
X373.43Y-173.09
X373.45Y-153.04
X373.48Y-103.11
X373.5Y-183.11
X374.396Y-168.951
X374.605Y-198.882
X375.158Y-131.572
X375.299Y-100.725
X375.92Y-76.962
X376.174Y-145.034
X376.4Y-221.6
X377.902Y-173.814
X377.952Y-142.68
X378.206Y-73.04
X378.206Y-153.04
X378.214Y-78.082
X378.37Y-138.01
X378.39Y-218.01
X378.45Y-128.1
X378.46Y-88.13
X378.46Y-123.02
X378.46Y-168.13
X378.46Y-198.05
X378.47Y-98.06
X378.47Y-208.1
X378.48Y-83.14
X378.48Y-158.08
X378.48Y-188.13
X378.49Y-178.06
X378.5Y-163.14
X378.54Y-113.12
X378.54Y-133.05
X378.55Y-183.1
X378.56Y-193.12
X378.56Y-213.05
X378.6Y-93.09
X378.6Y-118.05
X378.714Y-108.13
X378.714Y-173.08
X378.778Y-203.01
X379.222Y-103.632
X379.662Y-198.882
X380.238Y-131.572
X381.0Y-79.502
X381.0Y-145.034
X381.21Y-221.61
X382.263Y-93.962
X382.76Y-142.66
X383.26Y-133.04
X383.28Y-213.04
X383.3Y-73.03
X383.32Y-153.03
X383.33Y-78.08
X383.33Y-83.13
X383.33Y-113.11
X383.34Y-118.04
X383.35Y-158.08
X383.35Y-163.13
X383.35Y-193.11
X383.36Y-198.04
X383.37Y-103.1
X383.37Y-138.0
X383.38Y-98.06
X383.39Y-88.12
X383.39Y-128.09
X383.39Y-183.1
X383.39Y-218.0
X383.4Y-93.08
X383.4Y-178.06
X383.41Y-168.12
X383.41Y-208.09
X383.42Y-173.08
X383.48Y-108.12
X383.5Y-123.01
X383.5Y-188.12
X383.52Y-203.01
X383.88Y-173.967
X384.615Y-198.882
X385.064Y-131.572
X385.826Y-79.756
X386.08Y-104.394
X386.08Y-146.812
X386.28Y-221.6
X387.8Y-142.66
X387.824Y-173.804
X388.3Y-138.0
X388.32Y-218.0
X388.34Y-133.04
X388.35Y-108.12
X388.36Y-213.04
X388.37Y-188.12
X388.4Y-118.04
X388.42Y-198.04
X388.43Y-123.01
X388.44Y-73.03
X388.44Y-98.06
X388.45Y-203.01
X388.46Y-153.03
X388.46Y-178.06
X388.47Y-78.08
X388.48Y-88.12
X388.48Y-113.11
X388.49Y-103.1
X388.49Y-158.08
X388.5Y-168.12
X388.5Y-193.11
X388.51Y-183.1
X388.52Y-128.09
X388.53Y-93.08
X388.54Y-208.09
X388.55Y-173.08
X388.6Y-83.13
X388.62Y-163.13
X389.672Y-198.882
X390.17Y-141.935
X390.677Y-106.463
X390.906Y-79.756
X390.906Y-147.32
X390.906Y-159.766
X391.44Y-221.64
X392.77Y-142.66
X393.34Y-118.04
X393.36Y-98.06
X393.36Y-198.04
X393.37Y-108.12
X393.37Y-133.04
X393.38Y-178.06
X393.39Y-78.08
X393.39Y-128.09
X393.39Y-188.12
X393.39Y-213.04
X393.41Y-73.03
X393.41Y-158.08
X393.41Y-208.09
X393.43Y-153.03
X393.45Y-123.01
X393.47Y-93.08
X393.47Y-203.01
X393.48Y-88.12
X393.49Y-173.08
X393.5Y-103.1
X393.5Y-168.12
X393.51Y-138.0
X393.52Y-183.1
X393.53Y-218.0
X393.59Y-83.13
X393.59Y-113.11
X393.61Y-163.13
X393.61Y-193.11
X394.245Y-173.804
X394.665Y-198.882
X395.087Y-126.629
X395.732Y-79.756
X395.732Y-111.76
X395.732Y-149.606
X395.732Y-151.892
X395.732Y-176.276
X395.986Y-145.288
X395.986Y-170.18
X396.25Y-221.62
X397.81Y-142.66
X397.913Y-173.851
X398.34Y-138.0
X398.36Y-118.04
X398.36Y-218.0
X398.38Y-198.04
X398.4Y-113.11
X398.4Y-133.04
X398.42Y-98.06
X398.42Y-108.12
X398.42Y-193.11
X398.42Y-213.04
X398.44Y-178.06
X398.44Y-188.12
X398.45Y-73.03
X398.46Y-88.12
X398.47Y-103.1
X398.47Y-153.03
X398.48Y-128.09
X398.48Y-168.12
X398.49Y-183.1
X398.5Y-208.09
X398.51Y-78.08
X398.53Y-93.08
X398.53Y-158.08
X398.54Y-83.13
X398.55Y-173.08
X398.56Y-163.13
X398.59Y-123.01
X398.61Y-203.01
X399.722Y-198.882
X400.172Y-126.604
X400.304Y-151.638
X401.066Y-164.592
X401.066Y-177.292
X401.22Y-221.58
X401.32Y-79.502
X401.409Y-160.672
X402.74Y-142.66
X403.25Y-118.04
X403.27Y-198.04
X403.31Y-123.01
X403.32Y-78.08
X403.32Y-108.12
X403.33Y-203.01
X403.34Y-73.03
X403.34Y-158.08
X403.34Y-188.12
X403.35Y-98.06
X403.36Y-93.08
X403.36Y-153.03
X403.37Y-178.06
X403.38Y-173.08
X403.39Y-88.12
X403.41Y-138.0
X403.41Y-168.12
X403.43Y-133.04
X403.43Y-218.0
X403.45Y-83.13
X403.45Y-128.09
X403.45Y-213.04
X403.47Y-163.13
X403.47Y-208.09
X403.49Y-103.1
X403.5Y-113.11
X403.51Y-183.1
X403.52Y-193.11
X404.368Y-103.825
X404.849Y-219.192
X405.174Y-176.373
X405.384Y-86.614
X405.384Y-131.064
X405.384Y-160.528
X405.638Y-163.855
X405.638Y-211.074
X405.638Y-212.09
X405.892Y-173.804
X405.892Y-209.042
X405.892Y-210.058
X405.892Y-213.868
X406.146Y-80.264
X406.146Y-180.086
X406.4Y-182.118
X406.42Y-221.59
X407.77Y-142.66
X407.877Y-177.659
X407.887Y-152.591
X407.887Y-172.619
X407.887Y-207.672
X407.887Y-212.544
X408.004Y-157.654
X408.32Y-108.12
X408.32Y-133.04
X408.34Y-188.12
X408.37Y-123.01
X408.38Y-88.12
X408.38Y-118.04
X408.39Y-203.01
X408.4Y-98.06
X408.4Y-168.12
X408.41Y-78.08
X408.42Y-138.0
X408.43Y-113.11
X408.432Y-197.612
X408.44Y-103.1
X408.44Y-218.0
X408.45Y-193.11
X408.46Y-183.1
X408.47Y-73.03
X408.49Y-128.09
X408.51Y-93.08
X408.54Y-83.13
X408.56Y-163.13
X408.928Y-103.972
X409.662Y-217.275
X410.27Y-221.89
X410.271Y-161.327
X410.464Y-130.048
X410.464Y-215.138
X410.718Y-136.652
X410.718Y-201.676
X410.972Y-80.01
X411.23Y-164.588
X411.48Y-220.98
X411.734Y-183.896
X412.77Y-142.66
X413.27Y-93.08
X413.29Y-118.04
X413.29Y-133.04
X413.29Y-173.08
X413.3Y-78.08
X413.31Y-198.04
X413.31Y-213.04
X413.32Y-138.0
X413.32Y-158.08
X413.33Y-113.11
X413.34Y-123.01
X413.34Y-128.09
X413.34Y-218.0
X413.35Y-103.1
X413.35Y-193.11
X413.36Y-203.01
X413.36Y-208.09
X413.37Y-98.06
X413.37Y-183.1
X413.39Y-178.06
X413.42Y-73.03
X413.42Y-88.12
X413.42Y-108.12
X413.44Y-153.03
X413.44Y-168.12
X413.44Y-188.12
X413.49Y-83.13
X413.51Y-163.13
X414.311Y-93.804
X414.775Y-222.258
X415.29Y-129.63
X415.318Y-166.126
X415.349Y-215.91
X415.349Y-209.766
X415.544Y-143.51
X415.544Y-160.274
X415.544Y-164.084
X415.544Y-169.926
X415.544Y-220.98
X415.798Y-106.934
X415.798Y-168.91
X416.052Y-214.884
X416.268Y-161.068
X416.306Y-79.756
X416.56Y-221.742
X416.814Y-184.15
X417.78Y-142.66
X418.35Y-128.09
X418.38Y-133.04
X418.39Y-73.03
X418.39Y-113.11
X418.4Y-98.06
X418.41Y-193.11
X418.42Y-118.04
X418.43Y-78.08
X418.43Y-108.12
X418.44Y-123.01
X418.44Y-198.04
X418.45Y-188.12
X418.46Y-93.08
X418.46Y-203.01
X418.47Y-138.0
X418.49Y-218.0
X418.5Y-103.1
X418.51Y-88.12
X418.52Y-183.1
X418.53Y-168.12
X418.69Y-83.13
X418.71Y-163.13
X418.958Y-213.04
X419.308Y-178.091
X419.354Y-103.825
X419.354Y-173.08
X419.668Y-208.095
X419.862Y-158.08
X420.116Y-153.03
X420.116Y-216.662
X420.37Y-128.98
X420.599Y-211.111
X420.614Y-219.192
X420.624Y-82.296
X420.624Y-148.844
X420.624Y-165.608
X420.878Y-79.248
X420.878Y-150.622
X420.878Y-207.01
X420.941Y-177.038
X421.118Y-209.88
X421.132Y-156.464
X421.31Y-221.742
X421.386Y-174.752
X421.386Y-220.726
X422.8Y-142.66
X423.22Y-93.08
X423.24Y-173.08
X423.27Y-78.08
X423.29Y-133.04
X423.29Y-158.08
X423.31Y-213.04
X423.34Y-73.03
X423.34Y-113.11
X423.35Y-103.1
X423.36Y-153.03
X423.36Y-193.11
X423.37Y-183.1
X423.38Y-88.12
X423.38Y-128.09
X423.4Y-98.06
X423.4Y-123.01
X423.4Y-168.12
X423.4Y-208.09
X423.42Y-138.0
X423.42Y-178.06
X423.42Y-203.01
X423.44Y-118.04
X423.44Y-218.0
X423.46Y-198.04
X423.51Y-108.12
X423.53Y-188.12
X423.58Y-83.13
X423.6Y-163.13
X424.18Y-103.886
X425.196Y-126.746
X425.45Y-172.212
X425.45Y-207.264
X425.704Y-131.826
X425.704Y-154.178
X425.704Y-204.216
X426.212Y-80.01
X426.212Y-100.076
X426.212Y-110.236
X426.212Y-177.038
X426.29Y-221.211
X426.72Y-159.989
X427.76Y-142.66
X428.221Y-93.049
X428.241Y-173.049
X428.34Y-78.08
X428.35Y-108.12
X428.36Y-113.11
X428.36Y-133.04
X428.36Y-158.08
X428.37Y-188.12
X428.38Y-193.11
X428.38Y-213.04
X428.4Y-98.06
X428.41Y-138.0
X428.42Y-178.06
X428.43Y-123.01
X428.43Y-218.0
X428.44Y-73.03
X428.45Y-203.01
X428.46Y-153.03
X428.47Y-118.04
X428.49Y-198.04
X428.5Y-103.1
X428.51Y-128.09
X428.52Y-183.1
X428.53Y-88.12
X428.53Y-208.09
X428.54Y-83.13
X428.55Y-168.12
X428.56Y-163.13
X429.26Y-93.804
X430.05Y-111.575
X430.16Y-221.935
X430.174Y-126.492
X430.276Y-206.502
X430.35Y-132.01
X430.397Y-155.194
X430.53Y-84.582
X430.53Y-172.356
X430.53Y-201.676
X430.784Y-134.112
X430.784Y-175.006
X430.931Y-177.038
X431.038Y-79.502
X431.292Y-160.02
X431.292Y-204.724
X431.292Y-219.964
X431.45Y-81.898
X431.54Y-221.53
X431.546Y-84.836
X432.77Y-142.66
X432.82Y-107.442
X432.82Y-112.54
X432.82Y-127.508
X432.82Y-132.46
X432.84Y-207.772
X433.25Y-78.08
X433.27Y-158.08
X433.31Y-88.12
X433.32Y-123.01
X433.33Y-168.12
X433.34Y-203.01
X433.35Y-98.06
X433.35Y-163.13
X433.36Y-193.11
X433.37Y-178.06
X433.37Y-213.04
X433.38Y-118.04
X433.4Y-198.04
X433.41Y-188.12
X433.42Y-138.0
X433.43Y-93.08
X433.44Y-218.0
X433.45Y-73.03
X433.45Y-173.08
X433.47Y-153.03
X433.5Y-103.1
X433.52Y-183.1
X434.123Y-104.024
X435.356Y-216.662
X435.61Y-200.914
X435.61Y-201.93
X435.864Y-124.714
X435.988Y-177.038
X436.118Y-199.898
X436.372Y-79.756
X436.372Y-160.02
X436.54Y-221.6
X437.896Y-142.67
X438.161Y-217.989
X438.176Y-133.014
X438.186Y-213.004
X438.206Y-128.034
X438.39Y-138.0
X438.404Y-78.08
X438.404Y-88.12
X438.404Y-93.08
X438.404Y-113.11
X438.404Y-123.01
X438.404Y-153.03
X438.404Y-163.13
X438.404Y-183.1
X438.404Y-198.04
X438.46Y-98.06
X438.48Y-108.12
X438.48Y-178.06
X438.49Y-158.08
X438.49Y-208.09
X438.5Y-83.13
X438.5Y-188.12
X438.54Y-103.1
X438.55Y-73.03
X438.552Y-173.08
X438.58Y-193.11
X438.64Y-168.12
X438.658Y-118.04
X439.166Y-203.01
X439.203Y-93.98
X439.672Y-217.265
X440.141Y-143.731
X440.182Y-206.502
X440.182Y-208.825
X440.436Y-121.92
X440.69Y-76.454
X440.69Y-115.316
X440.69Y-169.672
X440.69Y-199.136
X440.944Y-145.034
X441.198Y-139.7
X441.198Y-160.274
X441.33Y-221.61
X441.452Y-178.816
X442.74Y-142.67
X443.26Y-213.05
X443.28Y-73.04
X443.3Y-153.04
X443.31Y-78.09
X443.32Y-118.05
X443.33Y-158.09
X443.33Y-163.14
X443.33Y-193.12
X443.34Y-198.05
X443.35Y-103.11
X443.35Y-138.01
X443.36Y-98.07
X443.37Y-88.13
X443.37Y-183.11
X443.37Y-218.01
X443.38Y-93.09
X443.38Y-178.07
X443.39Y-168.13
X443.4Y-173.09
X443.48Y-123.02
X443.48Y-188.13
X443.5Y-203.02
X443.738Y-127.528
X443.85Y-108.13
X443.85Y-113.12
X443.85Y-132.588
X443.87Y-208.1
X444.246Y-103.886
X444.284Y-83.776
X444.95Y-173.225
X445.224Y-126.454
X445.262Y-151.638
X445.262Y-216.916
X445.319Y-208.825
X445.516Y-136.906
X445.516Y-211.074
X445.769Y-204.724
X445.77Y-85.344
X445.77Y-111.252
X445.77Y-114.3
X446.262Y-179.34
X446.278Y-79.756
X446.278Y-149.86
X446.278Y-154.686
X446.278Y-184.912
X446.278Y-210.058
X446.53Y-221.58
X446.532Y-166.878
X447.78Y-142.67
X447.857Y-182.626
X447.867Y-177.735
X447.877Y-167.64
X447.971Y-162.687
X448.28Y-138.01
X448.3Y-218.01
X448.32Y-133.05
X448.33Y-108.13
X448.34Y-213.05
X448.35Y-188.13
X448.38Y-118.05
X448.4Y-198.05
X448.41Y-123.02
X448.42Y-73.04
X448.42Y-98.07
X448.43Y-203.02
X448.44Y-153.04
X448.45Y-78.09
X448.46Y-88.13
X448.46Y-113.12
X448.47Y-103.11
X448.47Y-158.09
X448.48Y-193.12
X448.5Y-128.1
X448.51Y-93.09
X448.52Y-208.1
X448.53Y-173.09
X448.58Y-83.14
X449.326Y-103.886
X450.099Y-126.492
X450.338Y-211.324
X450.377Y-205.486
X450.596Y-146.05
X450.596Y-160.528
X450.743Y-143.394
X450.85Y-91.44
X450.85Y-169.926
X450.85Y-209.042
X450.98Y-198.911
X451.104Y-210.058
X451.358Y-79.756
X451.358Y-154.94
X451.358Y-204.978
X451.54Y-221.58
X451.612Y-149.86
X451.612Y-171.958
X452.75Y-142.67
X453.32Y-118.05
X453.34Y-98.07
X453.34Y-198.05
X453.35Y-108.13
X453.35Y-133.05
X453.36Y-178.07
X453.37Y-78.09
X453.37Y-128.1
X453.37Y-188.13
X453.37Y-213.05
X453.39Y-73.04
X453.39Y-158.09
X453.39Y-208.1
X453.41Y-153.04
X453.43Y-123.02
X453.45Y-93.09
X453.45Y-203.02
X453.46Y-88.13
X453.47Y-173.09
X453.48Y-103.11
X453.48Y-168.13
X453.49Y-138.01
X453.5Y-183.11
X453.51Y-218.01
X453.57Y-83.14
X453.57Y-113.12
X453.59Y-163.14
X453.59Y-193.12
X454.406Y-103.886
X455.168Y-126.746
X455.676Y-134.874
X455.93Y-160.274
X456.184Y-149.098
X456.184Y-169.672
X456.35Y-221.6
X456.438Y-79.756
X457.79Y-142.67
X458.32Y-138.01
X458.34Y-118.05
X458.34Y-218.01
X458.36Y-198.05
X458.38Y-113.12
X458.38Y-133.05
X458.4Y-98.07
X458.4Y-108.13
X458.4Y-193.12
X458.4Y-213.05
X458.42Y-188.13
X458.43Y-73.04
X458.44Y-88.13
X458.45Y-103.11
X458.45Y-153.04
X458.46Y-128.1
X458.48Y-208.1
X458.49Y-78.09
X458.51Y-93.09
X458.51Y-158.09
X458.52Y-83.14
X458.53Y-173.09
X458.57Y-123.02
X458.59Y-203.02
X458.968Y-178.07
X458.978Y-168.13
X458.978Y-183.11
X458.988Y-163.14
X459.486Y-103.886
X460.248Y-116.586
X460.248Y-126.492
X460.248Y-204.216
X460.756Y-95.25
X460.756Y-148.59
X460.756Y-164.338
X461.01Y-79.502
X461.106Y-166.624
X461.42Y-221.59
X462.72Y-142.67
X462.81Y-187.57
X462.865Y-192.485
X463.23Y-118.05
X463.25Y-198.05
X463.29Y-123.02
X463.3Y-78.09
X463.3Y-108.13
X463.32Y-73.04
X463.32Y-158.09
X463.33Y-98.07
X463.34Y-93.09
X463.34Y-153.04
X463.35Y-178.07
X463.36Y-173.09
X463.37Y-88.13
X463.39Y-138.01
X463.39Y-168.13
X463.41Y-133.05
X463.41Y-218.01
X463.43Y-83.14
X463.43Y-128.1
X463.43Y-213.05
X463.45Y-163.14
X463.45Y-208.1
X463.47Y-103.11
X463.48Y-113.12
X463.49Y-183.11
X463.55Y-203.02
X464.349Y-103.834
X465.328Y-201.93
X465.582Y-101.346
X465.582Y-115.062
X465.582Y-126.238
X465.582Y-146.558
X465.836Y-79.756
X465.89Y-99.21
X466.344Y-109.728
X466.63Y-221.64
X467.75Y-142.67
X468.035Y-92.635
X468.113Y-98.011
X468.3Y-108.13
X468.3Y-133.05
X468.32Y-188.13
X468.32Y-213.05
X468.35Y-123.02
X468.36Y-88.13
X468.36Y-118.05
X468.37Y-203.02
X468.38Y-168.13
X468.38Y-198.05
X468.39Y-78.09
X468.4Y-138.01
X468.4Y-178.07
X468.41Y-113.12
X468.41Y-158.09
X468.42Y-103.11
X468.42Y-218.01
X468.43Y-193.12
X468.44Y-183.11
X468.45Y-73.04
X468.47Y-128.1
X468.47Y-153.04
X468.49Y-208.1
X468.51Y-173.09
X468.52Y-83.14
X468.54Y-163.14
X469.392Y-103.834
X469.622Y-140.955
X470.265Y-191.332
X470.387Y-165.715
X470.408Y-151.638
X470.47Y-201.9
X470.662Y-109.22
X470.662Y-145.796
X470.662Y-149.098
X470.662Y-154.178
X470.791Y-111.137
X471.17Y-79.502
X471.17Y-184.658
X471.428Y-104.898
X471.483Y-221.984
X471.778Y-103.11
X472.75Y-142.67
X473.25Y-93.09
X473.27Y-118.05
X473.27Y-133.05
X473.27Y-173.09
X473.28Y-78.09
X473.29Y-198.05
X473.29Y-213.05
X473.3Y-138.01
X473.3Y-158.09
X473.31Y-113.12
X473.32Y-123.02
X473.32Y-128.1
X473.32Y-218.01
X473.34Y-203.02
X473.34Y-208.1
X473.35Y-98.07
X473.35Y-183.11
X473.37Y-178.07
X473.4Y-73.04
X473.4Y-88.13
X473.4Y-108.13
X473.42Y-153.04
X473.42Y-168.13
X473.47Y-83.14
X473.49Y-163.14
X473.87Y-193.12
X474.082Y-188.899
X474.472Y-202.296
X474.575Y-140.905
X474.722Y-188.13
X474.935Y-106.58
X475.25Y-91.74
X475.289Y-74.676
X475.309Y-118.05
X475.309Y-123.075
X475.329Y-185.325
X475.488Y-94.742
X475.488Y-146.558
X475.488Y-156.718
X475.488Y-166.624
X475.488Y-171.45
X475.742Y-129.794
X475.742Y-161.036
X475.742Y-176.53
X475.759Y-112.23
X476.024Y-141.225
X476.25Y-145.034
X476.581Y-221.782
X477.76Y-142.67
X478.3Y-147.65
X478.33Y-128.1
X478.35Y-208.1
X478.36Y-133.05
X478.37Y-73.04
X478.37Y-113.12
X478.38Y-213.05
X478.39Y-153.04
X478.39Y-193.12
X478.4Y-118.05
X478.4Y-178.07
X478.41Y-78.09
X478.41Y-108.13
X478.42Y-67.77
X478.42Y-123.02
X478.42Y-198.05
X478.43Y-158.09
X478.43Y-188.13
X478.44Y-203.02
X478.45Y-138.01
X478.46Y-173.09
X478.47Y-218.01
X478.48Y-103.11
X478.49Y-88.13
X478.5Y-183.11
X478.51Y-168.13
X478.67Y-83.14
X478.69Y-163.14
X478.78Y-92.538
X478.79Y-142.494
X478.908Y-93.529
X478.908Y-97.59
X478.982Y-158.923
X479.307Y-197.59
X479.806Y-222.25
T0
M30
