%TF.GenerationSoftware,KiCad,Pcbnew,(6.0.10)*%
%TF.CreationDate,2023-02-08T22:59:17+05:30*%
%TF.ProjectId,macrokeypad13,6d616372-6f6b-4657-9970-616431332e6b,rev?*%
%TF.SameCoordinates,Original*%
%TF.FileFunction,Drillmap*%
%TF.FilePolarity,Positive*%
%FSLAX45Y45*%
G04 Gerber Fmt 4.5, Leading zero omitted, Abs format (unit mm)*
G04 Created by KiCad (PCBNEW (6.0.10)) date 2023-02-08 22:59:17*
%MOMM*%
%LPD*%
G01*
G04 APERTURE LIST*
%ADD10C,0.100000*%
%ADD11C,0.200000*%
%ADD12C,0.040000*%
%ADD13C,0.060000*%
%ADD14C,0.075000*%
%ADD15C,0.150000*%
%ADD16C,0.220000*%
%ADD17C,0.235000*%
%ADD18C,0.065000*%
%ADD19C,0.090000*%
%ADD20C,0.170000*%
%ADD21C,0.400000*%
G04 APERTURE END LIST*
D10*
X2653000Y-2326000D02*
X14453000Y-2326000D01*
X14453000Y-2326000D02*
X14453000Y-10126000D01*
X14453000Y-10126000D02*
X2653000Y-10126000D01*
X2653000Y-10126000D02*
X2653000Y-2326000D01*
D11*
D12*
X4225000Y-3425000D02*
X4265000Y-3465000D01*
X4265000Y-3425000D02*
X4225000Y-3465000D01*
X4293000Y-3097000D02*
X4333000Y-3137000D01*
X4333000Y-3097000D02*
X4293000Y-3137000D01*
X4686726Y-3940415D02*
X4726726Y-3980415D01*
X4726726Y-3940415D02*
X4686726Y-3980415D01*
X4687872Y-4040359D02*
X4727872Y-4080359D01*
X4727872Y-4040359D02*
X4687872Y-4080359D01*
X4699868Y-3567814D02*
X4739868Y-3607814D01*
X4739868Y-3567814D02*
X4699868Y-3607814D01*
X4775000Y-3102000D02*
X4815000Y-3142000D01*
X4815000Y-3102000D02*
X4775000Y-3142000D01*
X4799000Y-5193000D02*
X4839000Y-5233000D01*
X4839000Y-5193000D02*
X4799000Y-5233000D01*
X4801000Y-4609000D02*
X4841000Y-4649000D01*
X4841000Y-4609000D02*
X4801000Y-4649000D01*
X4957000Y-4598000D02*
X4997000Y-4638000D01*
X4997000Y-4598000D02*
X4957000Y-4638000D01*
X4957000Y-5206000D02*
X4997000Y-5246000D01*
X4997000Y-5206000D02*
X4957000Y-5246000D01*
X4981000Y-6017000D02*
X5021000Y-6057000D01*
X5021000Y-6017000D02*
X4981000Y-6057000D01*
X4981000Y-6456000D02*
X5021000Y-6496000D01*
X5021000Y-6456000D02*
X4981000Y-6496000D01*
X5167000Y-2652000D02*
X5207000Y-2692000D01*
X5207000Y-2652000D02*
X5167000Y-2692000D01*
X5210000Y-3329000D02*
X5250000Y-3369000D01*
X5250000Y-3329000D02*
X5210000Y-3369000D01*
X5375000Y-3332000D02*
X5415000Y-3372000D01*
X5415000Y-3332000D02*
X5375000Y-3372000D01*
X5513000Y-6070000D02*
X5553000Y-6110000D01*
X5553000Y-6070000D02*
X5513000Y-6110000D01*
X5513000Y-6448000D02*
X5553000Y-6488000D01*
X5553000Y-6448000D02*
X5513000Y-6488000D01*
X5617000Y-3320000D02*
X5657000Y-3360000D01*
X5657000Y-3320000D02*
X5617000Y-3360000D01*
X5629000Y-5276000D02*
X5669000Y-5316000D01*
X5669000Y-5276000D02*
X5629000Y-5316000D01*
X5761000Y-4257000D02*
X5801000Y-4297000D01*
X5801000Y-4257000D02*
X5761000Y-4297000D01*
X5998000Y-4310000D02*
X6038000Y-4350000D01*
X6038000Y-4310000D02*
X5998000Y-4350000D01*
X6356000Y-5962000D02*
X6396000Y-6002000D01*
X6396000Y-5962000D02*
X6356000Y-6002000D01*
X6529000Y-3642000D02*
X6569000Y-3682000D01*
X6569000Y-3642000D02*
X6529000Y-3682000D01*
X7095000Y-5547000D02*
X7135000Y-5587000D01*
X7135000Y-5547000D02*
X7095000Y-5587000D01*
X7237000Y-5527000D02*
X7277000Y-5567000D01*
X7277000Y-5527000D02*
X7237000Y-5567000D01*
X7593000Y-6167000D02*
X7633000Y-6207000D01*
X7633000Y-6167000D02*
X7593000Y-6207000D01*
X7596000Y-8073000D02*
X7636000Y-8113000D01*
X7636000Y-8073000D02*
X7596000Y-8113000D01*
X7688000Y-5510000D02*
X7728000Y-5550000D01*
X7728000Y-5510000D02*
X7688000Y-5550000D01*
X7931000Y-4927000D02*
X7971000Y-4967000D01*
X7971000Y-4927000D02*
X7931000Y-4967000D01*
X7940000Y-4128000D02*
X7980000Y-4168000D01*
X7980000Y-4128000D02*
X7940000Y-4168000D01*
X7960000Y-5052000D02*
X8000000Y-5092000D01*
X8000000Y-5052000D02*
X7960000Y-5092000D01*
X8473000Y-3838000D02*
X8513000Y-3878000D01*
X8513000Y-3838000D02*
X8473000Y-3878000D01*
X8481000Y-5812000D02*
X8521000Y-5852000D01*
X8521000Y-5812000D02*
X8481000Y-5852000D01*
X8538000Y-5506000D02*
X8578000Y-5546000D01*
X8578000Y-5506000D02*
X8538000Y-5546000D01*
X8687000Y-3937000D02*
X8727000Y-3977000D01*
X8727000Y-3937000D02*
X8687000Y-3977000D01*
X8701000Y-4909000D02*
X8741000Y-4949000D01*
X8741000Y-4909000D02*
X8701000Y-4949000D01*
X8824000Y-4907000D02*
X8864000Y-4947000D01*
X8864000Y-4907000D02*
X8824000Y-4947000D01*
X8923000Y-5409000D02*
X8963000Y-5449000D01*
X8963000Y-5409000D02*
X8923000Y-5449000D01*
X8947000Y-4582000D02*
X8987000Y-4622000D01*
X8987000Y-4582000D02*
X8947000Y-4622000D01*
X8952000Y-4907000D02*
X8992000Y-4947000D01*
X8992000Y-4907000D02*
X8952000Y-4947000D01*
X9026000Y-5394000D02*
X9066000Y-5434000D01*
X9066000Y-5394000D02*
X9026000Y-5434000D01*
X9050000Y-5293000D02*
X9090000Y-5333000D01*
X9090000Y-5293000D02*
X9050000Y-5333000D01*
X9092000Y-4907000D02*
X9132000Y-4947000D01*
X9132000Y-4907000D02*
X9092000Y-4947000D01*
X9100929Y-4591305D02*
X9140929Y-4631305D01*
X9140929Y-4591305D02*
X9100929Y-4631305D01*
X9137000Y-5380000D02*
X9177000Y-5420000D01*
X9177000Y-5380000D02*
X9137000Y-5420000D01*
X9185000Y-4654000D02*
X9225000Y-4694000D01*
X9225000Y-4654000D02*
X9185000Y-4694000D01*
X9536000Y-8163000D02*
X9576000Y-8203000D01*
X9576000Y-8163000D02*
X9536000Y-8203000D01*
X9540000Y-6155000D02*
X9580000Y-6195000D01*
X9580000Y-6155000D02*
X9540000Y-6195000D01*
X9613000Y-5108000D02*
X9653000Y-5148000D01*
X9653000Y-5108000D02*
X9613000Y-5148000D01*
X9632000Y-3769000D02*
X9672000Y-3809000D01*
X9672000Y-3769000D02*
X9632000Y-3809000D01*
X9637000Y-4478000D02*
X9677000Y-4518000D01*
X9677000Y-4478000D02*
X9637000Y-4518000D01*
X10109000Y-5783000D02*
X10149000Y-5823000D01*
X10149000Y-5783000D02*
X10109000Y-5823000D01*
X10418000Y-6114000D02*
X10458000Y-6154000D01*
X10458000Y-6114000D02*
X10418000Y-6154000D01*
X10545000Y-3882000D02*
X10585000Y-3922000D01*
X10585000Y-3882000D02*
X10545000Y-3922000D01*
X11437000Y-6213000D02*
X11477000Y-6253000D01*
X11477000Y-6213000D02*
X11437000Y-6253000D01*
X11440000Y-8116000D02*
X11480000Y-8156000D01*
X11480000Y-8116000D02*
X11440000Y-8156000D01*
X12150000Y-5397000D02*
X12190000Y-5437000D01*
X12190000Y-5397000D02*
X12150000Y-5437000D01*
X12175000Y-5615000D02*
X12215000Y-5655000D01*
X12215000Y-5615000D02*
X12175000Y-5655000D01*
X12295000Y-5850000D02*
X12335000Y-5890000D01*
X12335000Y-5850000D02*
X12295000Y-5890000D01*
X13287000Y-6227000D02*
X13327000Y-6267000D01*
X13327000Y-6227000D02*
X13287000Y-6267000D01*
X13320000Y-8112000D02*
X13360000Y-8152000D01*
X13360000Y-8112000D02*
X13320000Y-8152000D01*
X13359000Y-5851000D02*
X13399000Y-5891000D01*
X13399000Y-5851000D02*
X13359000Y-5891000D01*
X13884000Y-4654000D02*
X13924000Y-4694000D01*
X13924000Y-4654000D02*
X13884000Y-4694000D01*
X13941000Y-6229000D02*
X13981000Y-6269000D01*
X13981000Y-6229000D02*
X13941000Y-6269000D01*
D13*
X4151681Y-2511047D02*
G75*
G03*
X4151681Y-2511047I-30000J0D01*
G01*
D11*
X4151681Y-2551047D02*
X4151681Y-2471047D01*
X4091681Y-2551047D02*
X4091681Y-2471047D01*
X4151681Y-2471047D02*
G75*
G03*
X4091681Y-2471047I-30000J0D01*
G01*
X4091681Y-2551047D02*
G75*
G03*
X4151681Y-2551047I30000J0D01*
G01*
D13*
X4151681Y-2931047D02*
G75*
G03*
X4151681Y-2931047I-30000J0D01*
G01*
D11*
X4151681Y-2986047D02*
X4151681Y-2876047D01*
X4091681Y-2986047D02*
X4091681Y-2876047D01*
X4151681Y-2876047D02*
G75*
G03*
X4091681Y-2876047I-30000J0D01*
G01*
X4091681Y-2986047D02*
G75*
G03*
X4151681Y-2986047I30000J0D01*
G01*
D13*
X5015681Y-2511047D02*
G75*
G03*
X5015681Y-2511047I-30000J0D01*
G01*
D11*
X5015681Y-2551047D02*
X5015681Y-2471047D01*
X4955681Y-2551047D02*
X4955681Y-2471047D01*
X5015681Y-2471047D02*
G75*
G03*
X4955681Y-2471047I-30000J0D01*
G01*
X4955681Y-2551047D02*
G75*
G03*
X5015681Y-2551047I30000J0D01*
G01*
D13*
X5015681Y-2931047D02*
G75*
G03*
X5015681Y-2931047I-30000J0D01*
G01*
D11*
X5015681Y-2986047D02*
X5015681Y-2876047D01*
X4955681Y-2986047D02*
X4955681Y-2876047D01*
X5015681Y-2876047D02*
G75*
G03*
X4955681Y-2876047I-30000J0D01*
G01*
X4955681Y-2986047D02*
G75*
G03*
X5015681Y-2986047I30000J0D01*
G01*
D14*
X8005000Y-6194500D02*
X8005000Y-6269500D01*
X7967500Y-6232000D02*
X8042500Y-6232000D01*
X8005000Y-7210500D02*
X8005000Y-7285500D01*
X7967500Y-7248000D02*
X8042500Y-7248000D01*
X8005000Y-8102500D02*
X8005000Y-8177500D01*
X7967500Y-8140000D02*
X8042500Y-8140000D01*
X8005000Y-9118500D02*
X8005000Y-9193500D01*
X7967500Y-9156000D02*
X8042500Y-9156000D01*
X9917000Y-8103500D02*
X9917000Y-8178500D01*
X9879500Y-8141000D02*
X9954500Y-8141000D01*
X9917000Y-9119500D02*
X9917000Y-9194500D01*
X9879500Y-9157000D02*
X9954500Y-9157000D01*
X9926000Y-6198500D02*
X9926000Y-6273500D01*
X9888500Y-6236000D02*
X9963500Y-6236000D01*
X9926000Y-7214500D02*
X9926000Y-7289500D01*
X9888500Y-7252000D02*
X9963500Y-7252000D01*
X11814000Y-8104500D02*
X11814000Y-8179500D01*
X11776500Y-8142000D02*
X11851500Y-8142000D01*
X11814000Y-9120500D02*
X11814000Y-9195500D01*
X11776500Y-9158000D02*
X11851500Y-9158000D01*
X11824000Y-6203500D02*
X11824000Y-6278500D01*
X11786500Y-6241000D02*
X11861500Y-6241000D01*
X11824000Y-7219500D02*
X11824000Y-7294500D01*
X11786500Y-7257000D02*
X11861500Y-7257000D01*
X13738000Y-8163500D02*
X13738000Y-8238500D01*
X13700500Y-8201000D02*
X13775500Y-8201000D01*
X13738000Y-9179500D02*
X13738000Y-9254500D01*
X13700500Y-9217000D02*
X13775500Y-9217000D01*
X13742000Y-6511500D02*
X13742000Y-6586500D01*
X13704500Y-6549000D02*
X13779500Y-6549000D01*
X13742000Y-7527500D02*
X13742000Y-7602500D01*
X13704500Y-7565000D02*
X13779500Y-7565000D01*
D10*
X4084356Y-5862356D02*
X4084356Y-5791644D01*
X4013644Y-5791644D01*
X4013644Y-5862356D01*
X4084356Y-5862356D01*
X4084356Y-6112356D02*
X4084356Y-6041644D01*
X4013644Y-6041644D01*
X4013644Y-6112356D01*
X4084356Y-6112356D01*
X4084356Y-6312356D02*
X4084356Y-6241644D01*
X4013644Y-6241644D01*
X4013644Y-6312356D01*
X4084356Y-6312356D01*
X4084356Y-6562356D02*
X4084356Y-6491644D01*
X4013644Y-6491644D01*
X4013644Y-6562356D01*
X4084356Y-6562356D01*
X4086356Y-8113356D02*
X4086356Y-8042644D01*
X4015644Y-8042644D01*
X4015644Y-8113356D01*
X4086356Y-8113356D01*
X4086356Y-8363356D02*
X4086356Y-8292644D01*
X4015644Y-8292644D01*
X4015644Y-8363356D01*
X4086356Y-8363356D01*
X4086356Y-8563356D02*
X4086356Y-8492644D01*
X4015644Y-8492644D01*
X4015644Y-8563356D01*
X4086356Y-8563356D01*
X4086356Y-8813356D02*
X4086356Y-8742644D01*
X4015644Y-8742644D01*
X4015644Y-8813356D01*
X4086356Y-8813356D01*
X4090356Y-3604356D02*
X4090356Y-3533644D01*
X4019644Y-3533644D01*
X4019644Y-3604356D01*
X4090356Y-3604356D01*
X4090356Y-3854356D02*
X4090356Y-3783644D01*
X4019644Y-3783644D01*
X4019644Y-3854356D01*
X4090356Y-3854356D01*
X4090356Y-4054356D02*
X4090356Y-3983644D01*
X4019644Y-3983644D01*
X4019644Y-4054356D01*
X4090356Y-4054356D01*
X4090356Y-4304356D02*
X4090356Y-4233644D01*
X4019644Y-4233644D01*
X4019644Y-4304356D01*
X4090356Y-4304356D01*
X8753356Y-3679856D02*
X8753356Y-3609144D01*
X8682644Y-3609144D01*
X8682644Y-3679856D01*
X8753356Y-3679856D01*
X9007356Y-3679856D02*
X9007356Y-3609144D01*
X8936644Y-3609144D01*
X8936644Y-3679856D01*
X9007356Y-3679856D01*
X12189521Y-3733919D02*
X12189521Y-3663208D01*
X12118809Y-3663208D01*
X12118809Y-3733919D01*
X12189521Y-3733919D01*
X12189521Y-3983919D02*
X12189521Y-3913208D01*
X12118809Y-3913208D01*
X12118809Y-3983919D01*
X12189521Y-3983919D01*
X12189521Y-4233919D02*
X12189521Y-4163208D01*
X12118809Y-4163208D01*
X12118809Y-4233919D01*
X12189521Y-4233919D01*
X13639521Y-3733919D02*
X13639521Y-3663208D01*
X13568809Y-3663208D01*
X13568809Y-3733919D01*
X13639521Y-3733919D01*
X13639521Y-4233919D02*
X13639521Y-4163208D01*
X13568809Y-4163208D01*
X13568809Y-4233919D01*
X13639521Y-4233919D01*
D15*
X6922000Y-7228000D02*
X6997000Y-7153000D01*
X6922000Y-7078000D01*
X6847000Y-7153000D01*
X6922000Y-7228000D01*
X6923000Y-9141000D02*
X6998000Y-9066000D01*
X6923000Y-8991000D01*
X6848000Y-9066000D01*
X6923000Y-9141000D01*
X7557000Y-6974000D02*
X7632000Y-6899000D01*
X7557000Y-6824000D01*
X7482000Y-6899000D01*
X7557000Y-6974000D01*
X7558000Y-8887000D02*
X7633000Y-8812000D01*
X7558000Y-8737000D01*
X7483000Y-8812000D01*
X7558000Y-8887000D01*
X8836000Y-9142000D02*
X8911000Y-9067000D01*
X8836000Y-8992000D01*
X8761000Y-9067000D01*
X8836000Y-9142000D01*
X8838000Y-7230000D02*
X8913000Y-7155000D01*
X8838000Y-7080000D01*
X8763000Y-7155000D01*
X8838000Y-7230000D01*
X9471000Y-8888000D02*
X9546000Y-8813000D01*
X9471000Y-8738000D01*
X9396000Y-8813000D01*
X9471000Y-8888000D01*
X9473000Y-6976000D02*
X9548000Y-6901000D01*
X9473000Y-6826000D01*
X9398000Y-6901000D01*
X9473000Y-6976000D01*
X10745000Y-9133000D02*
X10820000Y-9058000D01*
X10745000Y-8983000D01*
X10670000Y-9058000D01*
X10745000Y-9133000D01*
X10749000Y-7234000D02*
X10824000Y-7159000D01*
X10749000Y-7084000D01*
X10674000Y-7159000D01*
X10749000Y-7234000D01*
X11380000Y-8879000D02*
X11455000Y-8804000D01*
X11380000Y-8729000D01*
X11305000Y-8804000D01*
X11380000Y-8879000D01*
X11384000Y-6980000D02*
X11459000Y-6905000D01*
X11384000Y-6830000D01*
X11309000Y-6905000D01*
X11384000Y-6980000D01*
X12638000Y-9142000D02*
X12713000Y-9067000D01*
X12638000Y-8992000D01*
X12563000Y-9067000D01*
X12638000Y-9142000D01*
X12645000Y-7237000D02*
X12720000Y-7162000D01*
X12645000Y-7087000D01*
X12570000Y-7162000D01*
X12645000Y-7237000D01*
X12904165Y-3463563D02*
X12979165Y-3388563D01*
X12904165Y-3313563D01*
X12829165Y-3388563D01*
X12904165Y-3463563D01*
D11*
X12839165Y-3463563D02*
X12969165Y-3463563D01*
X12839165Y-3313563D02*
X12969165Y-3313563D01*
X12969165Y-3463563D02*
G75*
G03*
X12969165Y-3313563I0J75000D01*
G01*
X12839165Y-3313563D02*
G75*
G03*
X12839165Y-3463563I0J-75000D01*
G01*
D15*
X12904165Y-4583563D02*
X12979165Y-4508563D01*
X12904165Y-4433563D01*
X12829165Y-4508563D01*
X12904165Y-4583563D01*
D11*
X12839165Y-4583563D02*
X12969165Y-4583563D01*
X12839165Y-4433563D02*
X12969165Y-4433563D01*
X12969165Y-4583563D02*
G75*
G03*
X12969165Y-4433563I0J75000D01*
G01*
X12839165Y-4433563D02*
G75*
G03*
X12839165Y-4583563I0J-75000D01*
G01*
D15*
X13273000Y-8888000D02*
X13348000Y-8813000D01*
X13273000Y-8738000D01*
X13198000Y-8813000D01*
X13273000Y-8888000D01*
X13280000Y-6983000D02*
X13355000Y-6908000D01*
X13280000Y-6833000D01*
X13205000Y-6908000D01*
X13280000Y-6983000D01*
D16*
X2943000Y-2622000D02*
X3163000Y-2842000D01*
X3163000Y-2622000D02*
X2943000Y-2842000D01*
X3163000Y-2732000D02*
G75*
G03*
X3163000Y-2732000I-110000J0D01*
G01*
X2953000Y-9601000D02*
X3173000Y-9821000D01*
X3173000Y-9601000D02*
X2953000Y-9821000D01*
X3173000Y-9711000D02*
G75*
G03*
X3173000Y-9711000I-110000J0D01*
G01*
X13941000Y-9621000D02*
X14161000Y-9841000D01*
X14161000Y-9621000D02*
X13941000Y-9841000D01*
X14161000Y-9731000D02*
G75*
G03*
X14161000Y-9731000I-110000J0D01*
G01*
X13949000Y-2612000D02*
X14169000Y-2832000D01*
X14169000Y-2612000D02*
X13949000Y-2832000D01*
X14169000Y-2722000D02*
G75*
G03*
X14169000Y-2722000I-110000J0D01*
G01*
D17*
X3691500Y-5402500D02*
X3926500Y-5637500D01*
X3926500Y-5402500D02*
X3691500Y-5637500D01*
X3809000Y-5402500D02*
X3809000Y-5637500D01*
X3691500Y-5520000D02*
X3926500Y-5520000D01*
X3691500Y-6716500D02*
X3926500Y-6951500D01*
X3926500Y-6716500D02*
X3691500Y-6951500D01*
X3809000Y-6716500D02*
X3809000Y-6951500D01*
X3691500Y-6834000D02*
X3926500Y-6834000D01*
X3693500Y-7653500D02*
X3928500Y-7888500D01*
X3928500Y-7653500D02*
X3693500Y-7888500D01*
X3811000Y-7653500D02*
X3811000Y-7888500D01*
X3693500Y-7771000D02*
X3928500Y-7771000D01*
X3693500Y-8967500D02*
X3928500Y-9202500D01*
X3928500Y-8967500D02*
X3693500Y-9202500D01*
X3811000Y-8967500D02*
X3811000Y-9202500D01*
X3693500Y-9085000D02*
X3928500Y-9085000D01*
X3697500Y-3144500D02*
X3932500Y-3379500D01*
X3932500Y-3144500D02*
X3697500Y-3379500D01*
X3815000Y-3144500D02*
X3815000Y-3379500D01*
X3697500Y-3262000D02*
X3932500Y-3262000D01*
X3697500Y-4458500D02*
X3932500Y-4693500D01*
X3932500Y-4458500D02*
X3697500Y-4693500D01*
X3815000Y-4458500D02*
X3815000Y-4693500D01*
X3697500Y-4576000D02*
X3932500Y-4576000D01*
D18*
X4232181Y-2846547D02*
X4297181Y-2911547D01*
X4297181Y-2846547D02*
X4232181Y-2911547D01*
X4287663Y-2902028D02*
X4287663Y-2856066D01*
X4241700Y-2856066D01*
X4241700Y-2902028D01*
X4287663Y-2902028D01*
X4810181Y-2846547D02*
X4875181Y-2911547D01*
X4875181Y-2846547D02*
X4810181Y-2911547D01*
X4865663Y-2902028D02*
X4865663Y-2856066D01*
X4819700Y-2856066D01*
X4819700Y-2902028D01*
X4865663Y-2902028D01*
D19*
X14207000Y-4486000D02*
X14297000Y-4576000D01*
X14297000Y-4486000D02*
X14207000Y-4576000D01*
X14252000Y-4576000D02*
X14297000Y-4531000D01*
X14252000Y-4486000D01*
X14207000Y-4531000D01*
X14252000Y-4576000D01*
X14207000Y-4786000D02*
X14297000Y-4876000D01*
X14297000Y-4786000D02*
X14207000Y-4876000D01*
X14252000Y-4876000D02*
X14297000Y-4831000D01*
X14252000Y-4786000D01*
X14207000Y-4831000D01*
X14252000Y-4876000D01*
D20*
X6668000Y-6560000D02*
X6668000Y-6730000D01*
X6583000Y-6645000D02*
X6753000Y-6645000D01*
X6753000Y-6645000D02*
G75*
G03*
X6753000Y-6645000I-85000J0D01*
G01*
X6669000Y-8473000D02*
X6669000Y-8643000D01*
X6584000Y-8558000D02*
X6754000Y-8558000D01*
X6754000Y-8558000D02*
G75*
G03*
X6754000Y-8558000I-85000J0D01*
G01*
X7684000Y-6560000D02*
X7684000Y-6730000D01*
X7599000Y-6645000D02*
X7769000Y-6645000D01*
X7769000Y-6645000D02*
G75*
G03*
X7769000Y-6645000I-85000J0D01*
G01*
X7685000Y-8473000D02*
X7685000Y-8643000D01*
X7600000Y-8558000D02*
X7770000Y-8558000D01*
X7770000Y-8558000D02*
G75*
G03*
X7770000Y-8558000I-85000J0D01*
G01*
X8582000Y-8474000D02*
X8582000Y-8644000D01*
X8497000Y-8559000D02*
X8667000Y-8559000D01*
X8667000Y-8559000D02*
G75*
G03*
X8667000Y-8559000I-85000J0D01*
G01*
X8584000Y-6562000D02*
X8584000Y-6732000D01*
X8499000Y-6647000D02*
X8669000Y-6647000D01*
X8669000Y-6647000D02*
G75*
G03*
X8669000Y-6647000I-85000J0D01*
G01*
X9598000Y-8474000D02*
X9598000Y-8644000D01*
X9513000Y-8559000D02*
X9683000Y-8559000D01*
X9683000Y-8559000D02*
G75*
G03*
X9683000Y-8559000I-85000J0D01*
G01*
X9600000Y-6562000D02*
X9600000Y-6732000D01*
X9515000Y-6647000D02*
X9685000Y-6647000D01*
X9685000Y-6647000D02*
G75*
G03*
X9685000Y-6647000I-85000J0D01*
G01*
X10491000Y-8465000D02*
X10491000Y-8635000D01*
X10406000Y-8550000D02*
X10576000Y-8550000D01*
X10576000Y-8550000D02*
G75*
G03*
X10576000Y-8550000I-85000J0D01*
G01*
X10495000Y-6566000D02*
X10495000Y-6736000D01*
X10410000Y-6651000D02*
X10580000Y-6651000D01*
X10580000Y-6651000D02*
G75*
G03*
X10580000Y-6651000I-85000J0D01*
G01*
X11507000Y-8465000D02*
X11507000Y-8635000D01*
X11422000Y-8550000D02*
X11592000Y-8550000D01*
X11592000Y-8550000D02*
G75*
G03*
X11592000Y-8550000I-85000J0D01*
G01*
X11511000Y-6566000D02*
X11511000Y-6736000D01*
X11426000Y-6651000D02*
X11596000Y-6651000D01*
X11596000Y-6651000D02*
G75*
G03*
X11596000Y-6651000I-85000J0D01*
G01*
X12384000Y-8474000D02*
X12384000Y-8644000D01*
X12299000Y-8559000D02*
X12469000Y-8559000D01*
X12469000Y-8559000D02*
G75*
G03*
X12469000Y-8559000I-85000J0D01*
G01*
X12391000Y-6569000D02*
X12391000Y-6739000D01*
X12306000Y-6654000D02*
X12476000Y-6654000D01*
X12476000Y-6654000D02*
G75*
G03*
X12476000Y-6654000I-85000J0D01*
G01*
X13400000Y-8474000D02*
X13400000Y-8644000D01*
X13315000Y-8559000D02*
X13485000Y-8559000D01*
X13485000Y-8559000D02*
G75*
G03*
X13485000Y-8559000I-85000J0D01*
G01*
X13407000Y-6569000D02*
X13407000Y-6739000D01*
X13322000Y-6654000D02*
X13492000Y-6654000D01*
X13492000Y-6654000D02*
G75*
G03*
X13492000Y-6654000I-85000J0D01*
G01*
D21*
X7317423Y-6786423D02*
X7317423Y-6503577D01*
X7034577Y-6503577D01*
X7034577Y-6786423D01*
X7317423Y-6786423D01*
X7376000Y-6645000D02*
G75*
G03*
X7376000Y-6645000I-200000J0D01*
G01*
X7318423Y-8699423D02*
X7318423Y-8416577D01*
X7035577Y-8416577D01*
X7035577Y-8699423D01*
X7318423Y-8699423D01*
X7377000Y-8558000D02*
G75*
G03*
X7377000Y-8558000I-200000J0D01*
G01*
X9231423Y-8700423D02*
X9231423Y-8417577D01*
X8948577Y-8417577D01*
X8948577Y-8700423D01*
X9231423Y-8700423D01*
X9290000Y-8559000D02*
G75*
G03*
X9290000Y-8559000I-200000J0D01*
G01*
X9233423Y-6788423D02*
X9233423Y-6505577D01*
X8950577Y-6505577D01*
X8950577Y-6788423D01*
X9233423Y-6788423D01*
X9292000Y-6647000D02*
G75*
G03*
X9292000Y-6647000I-200000J0D01*
G01*
X11140423Y-8691423D02*
X11140423Y-8408577D01*
X10857577Y-8408577D01*
X10857577Y-8691423D01*
X11140423Y-8691423D01*
X11199000Y-8550000D02*
G75*
G03*
X11199000Y-8550000I-200000J0D01*
G01*
X11144423Y-6792423D02*
X11144423Y-6509577D01*
X10861577Y-6509577D01*
X10861577Y-6792423D01*
X11144423Y-6792423D01*
X11203000Y-6651000D02*
G75*
G03*
X11203000Y-6651000I-200000J0D01*
G01*
X13033423Y-8700423D02*
X13033423Y-8417577D01*
X12750577Y-8417577D01*
X12750577Y-8700423D01*
X13033423Y-8700423D01*
X13092000Y-8559000D02*
G75*
G03*
X13092000Y-8559000I-200000J0D01*
G01*
X13040423Y-6795423D02*
X13040423Y-6512577D01*
X12757577Y-6512577D01*
X12757577Y-6795423D01*
X13040423Y-6795423D01*
X13099000Y-6654000D02*
G75*
G03*
X13099000Y-6654000I-200000J0D01*
G01*
D11*
X2905619Y-10441476D02*
X2905619Y-10241476D01*
X2953238Y-10241476D01*
X2981809Y-10251000D01*
X3000857Y-10270048D01*
X3010381Y-10289095D01*
X3019905Y-10327190D01*
X3019905Y-10355762D01*
X3010381Y-10393857D01*
X3000857Y-10412905D01*
X2981809Y-10431952D01*
X2953238Y-10441476D01*
X2905619Y-10441476D01*
X3105619Y-10441476D02*
X3105619Y-10308143D01*
X3105619Y-10346238D02*
X3115143Y-10327190D01*
X3124667Y-10317667D01*
X3143714Y-10308143D01*
X3162762Y-10308143D01*
X3229428Y-10441476D02*
X3229428Y-10308143D01*
X3229428Y-10241476D02*
X3219905Y-10251000D01*
X3229428Y-10260524D01*
X3238952Y-10251000D01*
X3229428Y-10241476D01*
X3229428Y-10260524D01*
X3353238Y-10441476D02*
X3334190Y-10431952D01*
X3324667Y-10412905D01*
X3324667Y-10241476D01*
X3458000Y-10441476D02*
X3438952Y-10431952D01*
X3429428Y-10412905D01*
X3429428Y-10241476D01*
X3686571Y-10441476D02*
X3686571Y-10241476D01*
X3753238Y-10384333D01*
X3819905Y-10241476D01*
X3819905Y-10441476D01*
X4000857Y-10441476D02*
X4000857Y-10336714D01*
X3991333Y-10317667D01*
X3972286Y-10308143D01*
X3934190Y-10308143D01*
X3915143Y-10317667D01*
X4000857Y-10431952D02*
X3981809Y-10441476D01*
X3934190Y-10441476D01*
X3915143Y-10431952D01*
X3905619Y-10412905D01*
X3905619Y-10393857D01*
X3915143Y-10374810D01*
X3934190Y-10365286D01*
X3981809Y-10365286D01*
X4000857Y-10355762D01*
X4096095Y-10308143D02*
X4096095Y-10508143D01*
X4096095Y-10317667D02*
X4115143Y-10308143D01*
X4153238Y-10308143D01*
X4172286Y-10317667D01*
X4181809Y-10327190D01*
X4191333Y-10346238D01*
X4191333Y-10403381D01*
X4181809Y-10422429D01*
X4172286Y-10431952D01*
X4153238Y-10441476D01*
X4115143Y-10441476D01*
X4096095Y-10431952D01*
X4277048Y-10422429D02*
X4286571Y-10431952D01*
X4277048Y-10441476D01*
X4267524Y-10431952D01*
X4277048Y-10422429D01*
X4277048Y-10441476D01*
X4277048Y-10317667D02*
X4286571Y-10327190D01*
X4277048Y-10336714D01*
X4267524Y-10327190D01*
X4277048Y-10317667D01*
X4277048Y-10336714D01*
D12*
X2608000Y-10751000D02*
X2648000Y-10791000D01*
X2648000Y-10751000D02*
X2608000Y-10791000D01*
D11*
X2943714Y-10661476D02*
X2962762Y-10661476D01*
X2981809Y-10671000D01*
X2991333Y-10680524D01*
X3000857Y-10699571D01*
X3010381Y-10737667D01*
X3010381Y-10785286D01*
X3000857Y-10823381D01*
X2991333Y-10842429D01*
X2981809Y-10851952D01*
X2962762Y-10861476D01*
X2943714Y-10861476D01*
X2924667Y-10851952D01*
X2915143Y-10842429D01*
X2905619Y-10823381D01*
X2896095Y-10785286D01*
X2896095Y-10737667D01*
X2905619Y-10699571D01*
X2915143Y-10680524D01*
X2924667Y-10671000D01*
X2943714Y-10661476D01*
X3096095Y-10842429D02*
X3105619Y-10851952D01*
X3096095Y-10861476D01*
X3086571Y-10851952D01*
X3096095Y-10842429D01*
X3096095Y-10861476D01*
X3277048Y-10728143D02*
X3277048Y-10861476D01*
X3229428Y-10651952D02*
X3181809Y-10794810D01*
X3305619Y-10794810D01*
X3419905Y-10661476D02*
X3438952Y-10661476D01*
X3458000Y-10671000D01*
X3467524Y-10680524D01*
X3477048Y-10699571D01*
X3486571Y-10737667D01*
X3486571Y-10785286D01*
X3477048Y-10823381D01*
X3467524Y-10842429D01*
X3458000Y-10851952D01*
X3438952Y-10861476D01*
X3419905Y-10861476D01*
X3400857Y-10851952D01*
X3391333Y-10842429D01*
X3381809Y-10823381D01*
X3372286Y-10785286D01*
X3372286Y-10737667D01*
X3381809Y-10699571D01*
X3391333Y-10680524D01*
X3400857Y-10671000D01*
X3419905Y-10661476D01*
X3610381Y-10661476D02*
X3629428Y-10661476D01*
X3648476Y-10671000D01*
X3658000Y-10680524D01*
X3667524Y-10699571D01*
X3677048Y-10737667D01*
X3677048Y-10785286D01*
X3667524Y-10823381D01*
X3658000Y-10842429D01*
X3648476Y-10851952D01*
X3629428Y-10861476D01*
X3610381Y-10861476D01*
X3591333Y-10851952D01*
X3581809Y-10842429D01*
X3572286Y-10823381D01*
X3562762Y-10785286D01*
X3562762Y-10737667D01*
X3572286Y-10699571D01*
X3581809Y-10680524D01*
X3591333Y-10671000D01*
X3610381Y-10661476D01*
X3762762Y-10861476D02*
X3762762Y-10728143D01*
X3762762Y-10747190D02*
X3772286Y-10737667D01*
X3791333Y-10728143D01*
X3819905Y-10728143D01*
X3838952Y-10737667D01*
X3848476Y-10756714D01*
X3848476Y-10861476D01*
X3848476Y-10756714D02*
X3858000Y-10737667D01*
X3877048Y-10728143D01*
X3905619Y-10728143D01*
X3924667Y-10737667D01*
X3934190Y-10756714D01*
X3934190Y-10861476D01*
X4029428Y-10861476D02*
X4029428Y-10728143D01*
X4029428Y-10747190D02*
X4038952Y-10737667D01*
X4058000Y-10728143D01*
X4086571Y-10728143D01*
X4105619Y-10737667D01*
X4115143Y-10756714D01*
X4115143Y-10861476D01*
X4115143Y-10756714D02*
X4124667Y-10737667D01*
X4143714Y-10728143D01*
X4172286Y-10728143D01*
X4191333Y-10737667D01*
X4200857Y-10756714D01*
X4200857Y-10861476D01*
X4591333Y-10651952D02*
X4419905Y-10909095D01*
X4848476Y-10661476D02*
X4867524Y-10661476D01*
X4886571Y-10671000D01*
X4896095Y-10680524D01*
X4905619Y-10699571D01*
X4915143Y-10737667D01*
X4915143Y-10785286D01*
X4905619Y-10823381D01*
X4896095Y-10842429D01*
X4886571Y-10851952D01*
X4867524Y-10861476D01*
X4848476Y-10861476D01*
X4829429Y-10851952D01*
X4819905Y-10842429D01*
X4810381Y-10823381D01*
X4800857Y-10785286D01*
X4800857Y-10737667D01*
X4810381Y-10699571D01*
X4819905Y-10680524D01*
X4829429Y-10671000D01*
X4848476Y-10661476D01*
X5000857Y-10842429D02*
X5010381Y-10851952D01*
X5000857Y-10861476D01*
X4991333Y-10851952D01*
X5000857Y-10842429D01*
X5000857Y-10861476D01*
X5134190Y-10661476D02*
X5153238Y-10661476D01*
X5172286Y-10671000D01*
X5181810Y-10680524D01*
X5191333Y-10699571D01*
X5200857Y-10737667D01*
X5200857Y-10785286D01*
X5191333Y-10823381D01*
X5181810Y-10842429D01*
X5172286Y-10851952D01*
X5153238Y-10861476D01*
X5134190Y-10861476D01*
X5115143Y-10851952D01*
X5105619Y-10842429D01*
X5096095Y-10823381D01*
X5086571Y-10785286D01*
X5086571Y-10737667D01*
X5096095Y-10699571D01*
X5105619Y-10680524D01*
X5115143Y-10671000D01*
X5134190Y-10661476D01*
X5391333Y-10861476D02*
X5277048Y-10861476D01*
X5334190Y-10861476D02*
X5334190Y-10661476D01*
X5315143Y-10690048D01*
X5296095Y-10709095D01*
X5277048Y-10718619D01*
X5572286Y-10661476D02*
X5477048Y-10661476D01*
X5467524Y-10756714D01*
X5477048Y-10747190D01*
X5496095Y-10737667D01*
X5543714Y-10737667D01*
X5562762Y-10747190D01*
X5572286Y-10756714D01*
X5581810Y-10775762D01*
X5581810Y-10823381D01*
X5572286Y-10842429D01*
X5562762Y-10851952D01*
X5543714Y-10861476D01*
X5496095Y-10861476D01*
X5477048Y-10851952D01*
X5467524Y-10842429D01*
X5648476Y-10661476D02*
X5781809Y-10661476D01*
X5696095Y-10861476D01*
X5848476Y-10661476D02*
X5848476Y-10699571D01*
X5924667Y-10661476D02*
X5924667Y-10699571D01*
X6219905Y-10937667D02*
X6210381Y-10928143D01*
X6191333Y-10899571D01*
X6181809Y-10880524D01*
X6172286Y-10851952D01*
X6162762Y-10804333D01*
X6162762Y-10766238D01*
X6172286Y-10718619D01*
X6181809Y-10690048D01*
X6191333Y-10671000D01*
X6210381Y-10642429D01*
X6219905Y-10632905D01*
X6381809Y-10661476D02*
X6343714Y-10661476D01*
X6324667Y-10671000D01*
X6315143Y-10680524D01*
X6296095Y-10709095D01*
X6286571Y-10747190D01*
X6286571Y-10823381D01*
X6296095Y-10842429D01*
X6305619Y-10851952D01*
X6324667Y-10861476D01*
X6362762Y-10861476D01*
X6381809Y-10851952D01*
X6391333Y-10842429D01*
X6400857Y-10823381D01*
X6400857Y-10775762D01*
X6391333Y-10756714D01*
X6381809Y-10747190D01*
X6362762Y-10737667D01*
X6324667Y-10737667D01*
X6305619Y-10747190D01*
X6296095Y-10756714D01*
X6286571Y-10775762D01*
X6572286Y-10728143D02*
X6572286Y-10861476D01*
X6524667Y-10651952D02*
X6477048Y-10794810D01*
X6600857Y-10794810D01*
X6829428Y-10861476D02*
X6829428Y-10661476D01*
X6915143Y-10861476D02*
X6915143Y-10756714D01*
X6905619Y-10737667D01*
X6886571Y-10728143D01*
X6858000Y-10728143D01*
X6838952Y-10737667D01*
X6829428Y-10747190D01*
X7038952Y-10861476D02*
X7019905Y-10851952D01*
X7010381Y-10842429D01*
X7000857Y-10823381D01*
X7000857Y-10766238D01*
X7010381Y-10747190D01*
X7019905Y-10737667D01*
X7038952Y-10728143D01*
X7067524Y-10728143D01*
X7086571Y-10737667D01*
X7096095Y-10747190D01*
X7105619Y-10766238D01*
X7105619Y-10823381D01*
X7096095Y-10842429D01*
X7086571Y-10851952D01*
X7067524Y-10861476D01*
X7038952Y-10861476D01*
X7219905Y-10861476D02*
X7200857Y-10851952D01*
X7191333Y-10832905D01*
X7191333Y-10661476D01*
X7372286Y-10851952D02*
X7353238Y-10861476D01*
X7315143Y-10861476D01*
X7296095Y-10851952D01*
X7286571Y-10832905D01*
X7286571Y-10756714D01*
X7296095Y-10737667D01*
X7315143Y-10728143D01*
X7353238Y-10728143D01*
X7372286Y-10737667D01*
X7381809Y-10756714D01*
X7381809Y-10775762D01*
X7286571Y-10794810D01*
X7458000Y-10851952D02*
X7477048Y-10861476D01*
X7515143Y-10861476D01*
X7534190Y-10851952D01*
X7543714Y-10832905D01*
X7543714Y-10823381D01*
X7534190Y-10804333D01*
X7515143Y-10794810D01*
X7486571Y-10794810D01*
X7467524Y-10785286D01*
X7458000Y-10766238D01*
X7458000Y-10756714D01*
X7467524Y-10737667D01*
X7486571Y-10728143D01*
X7515143Y-10728143D01*
X7534190Y-10737667D01*
X7610381Y-10937667D02*
X7619905Y-10928143D01*
X7638952Y-10899571D01*
X7648476Y-10880524D01*
X7658000Y-10851952D01*
X7667524Y-10804333D01*
X7667524Y-10766238D01*
X7658000Y-10718619D01*
X7648476Y-10690048D01*
X7638952Y-10671000D01*
X7619905Y-10642429D01*
X7610381Y-10632905D01*
D13*
X2648000Y-11035000D02*
G75*
G03*
X2648000Y-11035000I-30000J0D01*
G01*
D11*
X2943714Y-10925476D02*
X2962762Y-10925476D01*
X2981809Y-10935000D01*
X2991333Y-10944524D01*
X3000857Y-10963571D01*
X3010381Y-11001667D01*
X3010381Y-11049286D01*
X3000857Y-11087381D01*
X2991333Y-11106429D01*
X2981809Y-11115952D01*
X2962762Y-11125476D01*
X2943714Y-11125476D01*
X2924667Y-11115952D01*
X2915143Y-11106429D01*
X2905619Y-11087381D01*
X2896095Y-11049286D01*
X2896095Y-11001667D01*
X2905619Y-10963571D01*
X2915143Y-10944524D01*
X2924667Y-10935000D01*
X2943714Y-10925476D01*
X3096095Y-11106429D02*
X3105619Y-11115952D01*
X3096095Y-11125476D01*
X3086571Y-11115952D01*
X3096095Y-11106429D01*
X3096095Y-11125476D01*
X3277048Y-10925476D02*
X3238952Y-10925476D01*
X3219905Y-10935000D01*
X3210381Y-10944524D01*
X3191333Y-10973095D01*
X3181809Y-11011190D01*
X3181809Y-11087381D01*
X3191333Y-11106429D01*
X3200857Y-11115952D01*
X3219905Y-11125476D01*
X3258000Y-11125476D01*
X3277048Y-11115952D01*
X3286571Y-11106429D01*
X3296095Y-11087381D01*
X3296095Y-11039762D01*
X3286571Y-11020714D01*
X3277048Y-11011190D01*
X3258000Y-11001667D01*
X3219905Y-11001667D01*
X3200857Y-11011190D01*
X3191333Y-11020714D01*
X3181809Y-11039762D01*
X3419905Y-10925476D02*
X3438952Y-10925476D01*
X3458000Y-10935000D01*
X3467524Y-10944524D01*
X3477048Y-10963571D01*
X3486571Y-11001667D01*
X3486571Y-11049286D01*
X3477048Y-11087381D01*
X3467524Y-11106429D01*
X3458000Y-11115952D01*
X3438952Y-11125476D01*
X3419905Y-11125476D01*
X3400857Y-11115952D01*
X3391333Y-11106429D01*
X3381809Y-11087381D01*
X3372286Y-11049286D01*
X3372286Y-11001667D01*
X3381809Y-10963571D01*
X3391333Y-10944524D01*
X3400857Y-10935000D01*
X3419905Y-10925476D01*
X3610381Y-10925476D02*
X3629428Y-10925476D01*
X3648476Y-10935000D01*
X3658000Y-10944524D01*
X3667524Y-10963571D01*
X3677048Y-11001667D01*
X3677048Y-11049286D01*
X3667524Y-11087381D01*
X3658000Y-11106429D01*
X3648476Y-11115952D01*
X3629428Y-11125476D01*
X3610381Y-11125476D01*
X3591333Y-11115952D01*
X3581809Y-11106429D01*
X3572286Y-11087381D01*
X3562762Y-11049286D01*
X3562762Y-11001667D01*
X3572286Y-10963571D01*
X3581809Y-10944524D01*
X3591333Y-10935000D01*
X3610381Y-10925476D01*
X3762762Y-11125476D02*
X3762762Y-10992143D01*
X3762762Y-11011190D02*
X3772286Y-11001667D01*
X3791333Y-10992143D01*
X3819905Y-10992143D01*
X3838952Y-11001667D01*
X3848476Y-11020714D01*
X3848476Y-11125476D01*
X3848476Y-11020714D02*
X3858000Y-11001667D01*
X3877048Y-10992143D01*
X3905619Y-10992143D01*
X3924667Y-11001667D01*
X3934190Y-11020714D01*
X3934190Y-11125476D01*
X4029428Y-11125476D02*
X4029428Y-10992143D01*
X4029428Y-11011190D02*
X4038952Y-11001667D01*
X4058000Y-10992143D01*
X4086571Y-10992143D01*
X4105619Y-11001667D01*
X4115143Y-11020714D01*
X4115143Y-11125476D01*
X4115143Y-11020714D02*
X4124667Y-11001667D01*
X4143714Y-10992143D01*
X4172286Y-10992143D01*
X4191333Y-11001667D01*
X4200857Y-11020714D01*
X4200857Y-11125476D01*
X4591333Y-10915952D02*
X4419905Y-11173095D01*
X4848476Y-10925476D02*
X4867524Y-10925476D01*
X4886571Y-10935000D01*
X4896095Y-10944524D01*
X4905619Y-10963571D01*
X4915143Y-11001667D01*
X4915143Y-11049286D01*
X4905619Y-11087381D01*
X4896095Y-11106429D01*
X4886571Y-11115952D01*
X4867524Y-11125476D01*
X4848476Y-11125476D01*
X4829429Y-11115952D01*
X4819905Y-11106429D01*
X4810381Y-11087381D01*
X4800857Y-11049286D01*
X4800857Y-11001667D01*
X4810381Y-10963571D01*
X4819905Y-10944524D01*
X4829429Y-10935000D01*
X4848476Y-10925476D01*
X5000857Y-11106429D02*
X5010381Y-11115952D01*
X5000857Y-11125476D01*
X4991333Y-11115952D01*
X5000857Y-11106429D01*
X5000857Y-11125476D01*
X5134190Y-10925476D02*
X5153238Y-10925476D01*
X5172286Y-10935000D01*
X5181810Y-10944524D01*
X5191333Y-10963571D01*
X5200857Y-11001667D01*
X5200857Y-11049286D01*
X5191333Y-11087381D01*
X5181810Y-11106429D01*
X5172286Y-11115952D01*
X5153238Y-11125476D01*
X5134190Y-11125476D01*
X5115143Y-11115952D01*
X5105619Y-11106429D01*
X5096095Y-11087381D01*
X5086571Y-11049286D01*
X5086571Y-11001667D01*
X5096095Y-10963571D01*
X5105619Y-10944524D01*
X5115143Y-10935000D01*
X5134190Y-10925476D01*
X5277048Y-10944524D02*
X5286571Y-10935000D01*
X5305619Y-10925476D01*
X5353238Y-10925476D01*
X5372286Y-10935000D01*
X5381810Y-10944524D01*
X5391333Y-10963571D01*
X5391333Y-10982619D01*
X5381810Y-11011190D01*
X5267524Y-11125476D01*
X5391333Y-11125476D01*
X5458000Y-10925476D02*
X5581810Y-10925476D01*
X5515143Y-11001667D01*
X5543714Y-11001667D01*
X5562762Y-11011190D01*
X5572286Y-11020714D01*
X5581810Y-11039762D01*
X5581810Y-11087381D01*
X5572286Y-11106429D01*
X5562762Y-11115952D01*
X5543714Y-11125476D01*
X5486571Y-11125476D01*
X5467524Y-11115952D01*
X5458000Y-11106429D01*
X5753238Y-10925476D02*
X5715143Y-10925476D01*
X5696095Y-10935000D01*
X5686571Y-10944524D01*
X5667524Y-10973095D01*
X5658000Y-11011190D01*
X5658000Y-11087381D01*
X5667524Y-11106429D01*
X5677048Y-11115952D01*
X5696095Y-11125476D01*
X5734190Y-11125476D01*
X5753238Y-11115952D01*
X5762762Y-11106429D01*
X5772286Y-11087381D01*
X5772286Y-11039762D01*
X5762762Y-11020714D01*
X5753238Y-11011190D01*
X5734190Y-11001667D01*
X5696095Y-11001667D01*
X5677048Y-11011190D01*
X5667524Y-11020714D01*
X5658000Y-11039762D01*
X5848476Y-10925476D02*
X5848476Y-10963571D01*
X5924667Y-10925476D02*
X5924667Y-10963571D01*
X6219905Y-11201667D02*
X6210381Y-11192143D01*
X6191333Y-11163571D01*
X6181809Y-11144524D01*
X6172286Y-11115952D01*
X6162762Y-11068333D01*
X6162762Y-11030238D01*
X6172286Y-10982619D01*
X6181809Y-10954048D01*
X6191333Y-10935000D01*
X6210381Y-10906429D01*
X6219905Y-10896905D01*
X6334190Y-10925476D02*
X6353238Y-10925476D01*
X6372286Y-10935000D01*
X6381809Y-10944524D01*
X6391333Y-10963571D01*
X6400857Y-11001667D01*
X6400857Y-11049286D01*
X6391333Y-11087381D01*
X6381809Y-11106429D01*
X6372286Y-11115952D01*
X6353238Y-11125476D01*
X6334190Y-11125476D01*
X6315143Y-11115952D01*
X6305619Y-11106429D01*
X6296095Y-11087381D01*
X6286571Y-11049286D01*
X6286571Y-11001667D01*
X6296095Y-10963571D01*
X6305619Y-10944524D01*
X6315143Y-10935000D01*
X6334190Y-10925476D01*
X6638952Y-11125476D02*
X6638952Y-10925476D01*
X6724667Y-11125476D02*
X6724667Y-11020714D01*
X6715143Y-11001667D01*
X6696095Y-10992143D01*
X6667524Y-10992143D01*
X6648476Y-11001667D01*
X6638952Y-11011190D01*
X6848476Y-11125476D02*
X6829428Y-11115952D01*
X6819905Y-11106429D01*
X6810381Y-11087381D01*
X6810381Y-11030238D01*
X6819905Y-11011190D01*
X6829428Y-11001667D01*
X6848476Y-10992143D01*
X6877048Y-10992143D01*
X6896095Y-11001667D01*
X6905619Y-11011190D01*
X6915143Y-11030238D01*
X6915143Y-11087381D01*
X6905619Y-11106429D01*
X6896095Y-11115952D01*
X6877048Y-11125476D01*
X6848476Y-11125476D01*
X7029428Y-11125476D02*
X7010381Y-11115952D01*
X7000857Y-11096905D01*
X7000857Y-10925476D01*
X7181809Y-11115952D02*
X7162762Y-11125476D01*
X7124667Y-11125476D01*
X7105619Y-11115952D01*
X7096095Y-11096905D01*
X7096095Y-11020714D01*
X7105619Y-11001667D01*
X7124667Y-10992143D01*
X7162762Y-10992143D01*
X7181809Y-11001667D01*
X7191333Y-11020714D01*
X7191333Y-11039762D01*
X7096095Y-11058810D01*
X7267524Y-11115952D02*
X7286571Y-11125476D01*
X7324667Y-11125476D01*
X7343714Y-11115952D01*
X7353238Y-11096905D01*
X7353238Y-11087381D01*
X7343714Y-11068333D01*
X7324667Y-11058810D01*
X7296095Y-11058810D01*
X7277048Y-11049286D01*
X7267524Y-11030238D01*
X7267524Y-11020714D01*
X7277048Y-11001667D01*
X7296095Y-10992143D01*
X7324667Y-10992143D01*
X7343714Y-11001667D01*
X7591333Y-11049286D02*
X7743714Y-11049286D01*
X7667524Y-11125476D02*
X7667524Y-10973095D01*
X8077048Y-10992143D02*
X8077048Y-11125476D01*
X8029428Y-10915952D02*
X7981809Y-11058810D01*
X8105619Y-11058810D01*
X8324667Y-11115952D02*
X8343714Y-11125476D01*
X8381809Y-11125476D01*
X8400857Y-11115952D01*
X8410381Y-11096905D01*
X8410381Y-11087381D01*
X8400857Y-11068333D01*
X8381809Y-11058810D01*
X8353238Y-11058810D01*
X8334190Y-11049286D01*
X8324667Y-11030238D01*
X8324667Y-11020714D01*
X8334190Y-11001667D01*
X8353238Y-10992143D01*
X8381809Y-10992143D01*
X8400857Y-11001667D01*
X8524667Y-11125476D02*
X8505619Y-11115952D01*
X8496095Y-11096905D01*
X8496095Y-10925476D01*
X8629429Y-11125476D02*
X8610381Y-11115952D01*
X8600857Y-11106429D01*
X8591333Y-11087381D01*
X8591333Y-11030238D01*
X8600857Y-11011190D01*
X8610381Y-11001667D01*
X8629429Y-10992143D01*
X8658000Y-10992143D01*
X8677048Y-11001667D01*
X8686571Y-11011190D01*
X8696095Y-11030238D01*
X8696095Y-11087381D01*
X8686571Y-11106429D01*
X8677048Y-11115952D01*
X8658000Y-11125476D01*
X8629429Y-11125476D01*
X8753238Y-10992143D02*
X8829429Y-10992143D01*
X8781810Y-10925476D02*
X8781810Y-11096905D01*
X8791333Y-11115952D01*
X8810381Y-11125476D01*
X8829429Y-11125476D01*
X8886571Y-11115952D02*
X8905619Y-11125476D01*
X8943714Y-11125476D01*
X8962762Y-11115952D01*
X8972286Y-11096905D01*
X8972286Y-11087381D01*
X8962762Y-11068333D01*
X8943714Y-11058810D01*
X8915143Y-11058810D01*
X8896095Y-11049286D01*
X8886571Y-11030238D01*
X8886571Y-11020714D01*
X8896095Y-11001667D01*
X8915143Y-10992143D01*
X8943714Y-10992143D01*
X8962762Y-11001667D01*
X9038952Y-11201667D02*
X9048476Y-11192143D01*
X9067524Y-11163571D01*
X9077048Y-11144524D01*
X9086571Y-11115952D01*
X9096095Y-11068333D01*
X9096095Y-11030238D01*
X9086571Y-10982619D01*
X9077048Y-10954048D01*
X9067524Y-10935000D01*
X9048476Y-10906429D01*
X9038952Y-10896905D01*
D14*
X2610500Y-11261500D02*
X2610500Y-11336500D01*
X2573000Y-11299000D02*
X2648000Y-11299000D01*
D11*
X2943714Y-11189476D02*
X2962762Y-11189476D01*
X2981809Y-11199000D01*
X2991333Y-11208524D01*
X3000857Y-11227571D01*
X3010381Y-11265667D01*
X3010381Y-11313286D01*
X3000857Y-11351381D01*
X2991333Y-11370428D01*
X2981809Y-11379952D01*
X2962762Y-11389476D01*
X2943714Y-11389476D01*
X2924667Y-11379952D01*
X2915143Y-11370428D01*
X2905619Y-11351381D01*
X2896095Y-11313286D01*
X2896095Y-11265667D01*
X2905619Y-11227571D01*
X2915143Y-11208524D01*
X2924667Y-11199000D01*
X2943714Y-11189476D01*
X3096095Y-11370428D02*
X3105619Y-11379952D01*
X3096095Y-11389476D01*
X3086571Y-11379952D01*
X3096095Y-11370428D01*
X3096095Y-11389476D01*
X3172286Y-11189476D02*
X3305619Y-11189476D01*
X3219905Y-11389476D01*
X3477048Y-11189476D02*
X3381809Y-11189476D01*
X3372286Y-11284714D01*
X3381809Y-11275190D01*
X3400857Y-11265667D01*
X3448476Y-11265667D01*
X3467524Y-11275190D01*
X3477048Y-11284714D01*
X3486571Y-11303762D01*
X3486571Y-11351381D01*
X3477048Y-11370428D01*
X3467524Y-11379952D01*
X3448476Y-11389476D01*
X3400857Y-11389476D01*
X3381809Y-11379952D01*
X3372286Y-11370428D01*
X3610381Y-11189476D02*
X3629428Y-11189476D01*
X3648476Y-11199000D01*
X3658000Y-11208524D01*
X3667524Y-11227571D01*
X3677048Y-11265667D01*
X3677048Y-11313286D01*
X3667524Y-11351381D01*
X3658000Y-11370428D01*
X3648476Y-11379952D01*
X3629428Y-11389476D01*
X3610381Y-11389476D01*
X3591333Y-11379952D01*
X3581809Y-11370428D01*
X3572286Y-11351381D01*
X3562762Y-11313286D01*
X3562762Y-11265667D01*
X3572286Y-11227571D01*
X3581809Y-11208524D01*
X3591333Y-11199000D01*
X3610381Y-11189476D01*
X3762762Y-11389476D02*
X3762762Y-11256143D01*
X3762762Y-11275190D02*
X3772286Y-11265667D01*
X3791333Y-11256143D01*
X3819905Y-11256143D01*
X3838952Y-11265667D01*
X3848476Y-11284714D01*
X3848476Y-11389476D01*
X3848476Y-11284714D02*
X3858000Y-11265667D01*
X3877048Y-11256143D01*
X3905619Y-11256143D01*
X3924667Y-11265667D01*
X3934190Y-11284714D01*
X3934190Y-11389476D01*
X4029428Y-11389476D02*
X4029428Y-11256143D01*
X4029428Y-11275190D02*
X4038952Y-11265667D01*
X4058000Y-11256143D01*
X4086571Y-11256143D01*
X4105619Y-11265667D01*
X4115143Y-11284714D01*
X4115143Y-11389476D01*
X4115143Y-11284714D02*
X4124667Y-11265667D01*
X4143714Y-11256143D01*
X4172286Y-11256143D01*
X4191333Y-11265667D01*
X4200857Y-11284714D01*
X4200857Y-11389476D01*
X4591333Y-11179952D02*
X4419905Y-11437095D01*
X4848476Y-11189476D02*
X4867524Y-11189476D01*
X4886571Y-11199000D01*
X4896095Y-11208524D01*
X4905619Y-11227571D01*
X4915143Y-11265667D01*
X4915143Y-11313286D01*
X4905619Y-11351381D01*
X4896095Y-11370428D01*
X4886571Y-11379952D01*
X4867524Y-11389476D01*
X4848476Y-11389476D01*
X4829429Y-11379952D01*
X4819905Y-11370428D01*
X4810381Y-11351381D01*
X4800857Y-11313286D01*
X4800857Y-11265667D01*
X4810381Y-11227571D01*
X4819905Y-11208524D01*
X4829429Y-11199000D01*
X4848476Y-11189476D01*
X5000857Y-11370428D02*
X5010381Y-11379952D01*
X5000857Y-11389476D01*
X4991333Y-11379952D01*
X5000857Y-11370428D01*
X5000857Y-11389476D01*
X5134190Y-11189476D02*
X5153238Y-11189476D01*
X5172286Y-11199000D01*
X5181810Y-11208524D01*
X5191333Y-11227571D01*
X5200857Y-11265667D01*
X5200857Y-11313286D01*
X5191333Y-11351381D01*
X5181810Y-11370428D01*
X5172286Y-11379952D01*
X5153238Y-11389476D01*
X5134190Y-11389476D01*
X5115143Y-11379952D01*
X5105619Y-11370428D01*
X5096095Y-11351381D01*
X5086571Y-11313286D01*
X5086571Y-11265667D01*
X5096095Y-11227571D01*
X5105619Y-11208524D01*
X5115143Y-11199000D01*
X5134190Y-11189476D01*
X5277048Y-11208524D02*
X5286571Y-11199000D01*
X5305619Y-11189476D01*
X5353238Y-11189476D01*
X5372286Y-11199000D01*
X5381810Y-11208524D01*
X5391333Y-11227571D01*
X5391333Y-11246619D01*
X5381810Y-11275190D01*
X5267524Y-11389476D01*
X5391333Y-11389476D01*
X5486571Y-11389476D02*
X5524667Y-11389476D01*
X5543714Y-11379952D01*
X5553238Y-11370428D01*
X5572286Y-11341857D01*
X5581810Y-11303762D01*
X5581810Y-11227571D01*
X5572286Y-11208524D01*
X5562762Y-11199000D01*
X5543714Y-11189476D01*
X5505619Y-11189476D01*
X5486571Y-11199000D01*
X5477048Y-11208524D01*
X5467524Y-11227571D01*
X5467524Y-11275190D01*
X5477048Y-11294238D01*
X5486571Y-11303762D01*
X5505619Y-11313286D01*
X5543714Y-11313286D01*
X5562762Y-11303762D01*
X5572286Y-11294238D01*
X5581810Y-11275190D01*
X5762762Y-11189476D02*
X5667524Y-11189476D01*
X5658000Y-11284714D01*
X5667524Y-11275190D01*
X5686571Y-11265667D01*
X5734190Y-11265667D01*
X5753238Y-11275190D01*
X5762762Y-11284714D01*
X5772286Y-11303762D01*
X5772286Y-11351381D01*
X5762762Y-11370428D01*
X5753238Y-11379952D01*
X5734190Y-11389476D01*
X5686571Y-11389476D01*
X5667524Y-11379952D01*
X5658000Y-11370428D01*
X5848476Y-11189476D02*
X5848476Y-11227571D01*
X5924667Y-11189476D02*
X5924667Y-11227571D01*
X6219905Y-11465667D02*
X6210381Y-11456143D01*
X6191333Y-11427571D01*
X6181809Y-11408524D01*
X6172286Y-11379952D01*
X6162762Y-11332333D01*
X6162762Y-11294238D01*
X6172286Y-11246619D01*
X6181809Y-11218048D01*
X6191333Y-11199000D01*
X6210381Y-11170429D01*
X6219905Y-11160905D01*
X6400857Y-11389476D02*
X6286571Y-11389476D01*
X6343714Y-11389476D02*
X6343714Y-11189476D01*
X6324667Y-11218048D01*
X6305619Y-11237095D01*
X6286571Y-11246619D01*
X6572286Y-11189476D02*
X6534190Y-11189476D01*
X6515143Y-11199000D01*
X6505619Y-11208524D01*
X6486571Y-11237095D01*
X6477048Y-11275190D01*
X6477048Y-11351381D01*
X6486571Y-11370428D01*
X6496095Y-11379952D01*
X6515143Y-11389476D01*
X6553238Y-11389476D01*
X6572286Y-11379952D01*
X6581809Y-11370428D01*
X6591333Y-11351381D01*
X6591333Y-11303762D01*
X6581809Y-11284714D01*
X6572286Y-11275190D01*
X6553238Y-11265667D01*
X6515143Y-11265667D01*
X6496095Y-11275190D01*
X6486571Y-11284714D01*
X6477048Y-11303762D01*
X6829428Y-11389476D02*
X6829428Y-11189476D01*
X6915143Y-11389476D02*
X6915143Y-11284714D01*
X6905619Y-11265667D01*
X6886571Y-11256143D01*
X6858000Y-11256143D01*
X6838952Y-11265667D01*
X6829428Y-11275190D01*
X7038952Y-11389476D02*
X7019905Y-11379952D01*
X7010381Y-11370428D01*
X7000857Y-11351381D01*
X7000857Y-11294238D01*
X7010381Y-11275190D01*
X7019905Y-11265667D01*
X7038952Y-11256143D01*
X7067524Y-11256143D01*
X7086571Y-11265667D01*
X7096095Y-11275190D01*
X7105619Y-11294238D01*
X7105619Y-11351381D01*
X7096095Y-11370428D01*
X7086571Y-11379952D01*
X7067524Y-11389476D01*
X7038952Y-11389476D01*
X7219905Y-11389476D02*
X7200857Y-11379952D01*
X7191333Y-11360905D01*
X7191333Y-11189476D01*
X7372286Y-11379952D02*
X7353238Y-11389476D01*
X7315143Y-11389476D01*
X7296095Y-11379952D01*
X7286571Y-11360905D01*
X7286571Y-11284714D01*
X7296095Y-11265667D01*
X7315143Y-11256143D01*
X7353238Y-11256143D01*
X7372286Y-11265667D01*
X7381809Y-11284714D01*
X7381809Y-11303762D01*
X7286571Y-11322809D01*
X7458000Y-11379952D02*
X7477048Y-11389476D01*
X7515143Y-11389476D01*
X7534190Y-11379952D01*
X7543714Y-11360905D01*
X7543714Y-11351381D01*
X7534190Y-11332333D01*
X7515143Y-11322809D01*
X7486571Y-11322809D01*
X7467524Y-11313286D01*
X7458000Y-11294238D01*
X7458000Y-11284714D01*
X7467524Y-11265667D01*
X7486571Y-11256143D01*
X7515143Y-11256143D01*
X7534190Y-11265667D01*
X7610381Y-11465667D02*
X7619905Y-11456143D01*
X7638952Y-11427571D01*
X7648476Y-11408524D01*
X7658000Y-11379952D01*
X7667524Y-11332333D01*
X7667524Y-11294238D01*
X7658000Y-11246619D01*
X7648476Y-11218048D01*
X7638952Y-11199000D01*
X7619905Y-11170429D01*
X7610381Y-11160905D01*
D10*
X2633356Y-11598356D02*
X2633356Y-11527644D01*
X2562644Y-11527644D01*
X2562644Y-11598356D01*
X2633356Y-11598356D01*
D11*
X3010381Y-11653476D02*
X2896095Y-11653476D01*
X2953238Y-11653476D02*
X2953238Y-11453476D01*
X2934190Y-11482048D01*
X2915143Y-11501095D01*
X2896095Y-11510619D01*
X3096095Y-11634428D02*
X3105619Y-11643952D01*
X3096095Y-11653476D01*
X3086571Y-11643952D01*
X3096095Y-11634428D01*
X3096095Y-11653476D01*
X3229428Y-11453476D02*
X3248476Y-11453476D01*
X3267524Y-11463000D01*
X3277048Y-11472524D01*
X3286571Y-11491571D01*
X3296095Y-11529667D01*
X3296095Y-11577286D01*
X3286571Y-11615381D01*
X3277048Y-11634428D01*
X3267524Y-11643952D01*
X3248476Y-11653476D01*
X3229428Y-11653476D01*
X3210381Y-11643952D01*
X3200857Y-11634428D01*
X3191333Y-11615381D01*
X3181809Y-11577286D01*
X3181809Y-11529667D01*
X3191333Y-11491571D01*
X3200857Y-11472524D01*
X3210381Y-11463000D01*
X3229428Y-11453476D01*
X3419905Y-11453476D02*
X3438952Y-11453476D01*
X3458000Y-11463000D01*
X3467524Y-11472524D01*
X3477048Y-11491571D01*
X3486571Y-11529667D01*
X3486571Y-11577286D01*
X3477048Y-11615381D01*
X3467524Y-11634428D01*
X3458000Y-11643952D01*
X3438952Y-11653476D01*
X3419905Y-11653476D01*
X3400857Y-11643952D01*
X3391333Y-11634428D01*
X3381809Y-11615381D01*
X3372286Y-11577286D01*
X3372286Y-11529667D01*
X3381809Y-11491571D01*
X3391333Y-11472524D01*
X3400857Y-11463000D01*
X3419905Y-11453476D01*
X3610381Y-11453476D02*
X3629428Y-11453476D01*
X3648476Y-11463000D01*
X3658000Y-11472524D01*
X3667524Y-11491571D01*
X3677048Y-11529667D01*
X3677048Y-11577286D01*
X3667524Y-11615381D01*
X3658000Y-11634428D01*
X3648476Y-11643952D01*
X3629428Y-11653476D01*
X3610381Y-11653476D01*
X3591333Y-11643952D01*
X3581809Y-11634428D01*
X3572286Y-11615381D01*
X3562762Y-11577286D01*
X3562762Y-11529667D01*
X3572286Y-11491571D01*
X3581809Y-11472524D01*
X3591333Y-11463000D01*
X3610381Y-11453476D01*
X3762762Y-11653476D02*
X3762762Y-11520143D01*
X3762762Y-11539190D02*
X3772286Y-11529667D01*
X3791333Y-11520143D01*
X3819905Y-11520143D01*
X3838952Y-11529667D01*
X3848476Y-11548714D01*
X3848476Y-11653476D01*
X3848476Y-11548714D02*
X3858000Y-11529667D01*
X3877048Y-11520143D01*
X3905619Y-11520143D01*
X3924667Y-11529667D01*
X3934190Y-11548714D01*
X3934190Y-11653476D01*
X4029428Y-11653476D02*
X4029428Y-11520143D01*
X4029428Y-11539190D02*
X4038952Y-11529667D01*
X4058000Y-11520143D01*
X4086571Y-11520143D01*
X4105619Y-11529667D01*
X4115143Y-11548714D01*
X4115143Y-11653476D01*
X4115143Y-11548714D02*
X4124667Y-11529667D01*
X4143714Y-11520143D01*
X4172286Y-11520143D01*
X4191333Y-11529667D01*
X4200857Y-11548714D01*
X4200857Y-11653476D01*
X4591333Y-11443952D02*
X4419905Y-11701095D01*
X4848476Y-11453476D02*
X4867524Y-11453476D01*
X4886571Y-11463000D01*
X4896095Y-11472524D01*
X4905619Y-11491571D01*
X4915143Y-11529667D01*
X4915143Y-11577286D01*
X4905619Y-11615381D01*
X4896095Y-11634428D01*
X4886571Y-11643952D01*
X4867524Y-11653476D01*
X4848476Y-11653476D01*
X4829429Y-11643952D01*
X4819905Y-11634428D01*
X4810381Y-11615381D01*
X4800857Y-11577286D01*
X4800857Y-11529667D01*
X4810381Y-11491571D01*
X4819905Y-11472524D01*
X4829429Y-11463000D01*
X4848476Y-11453476D01*
X5000857Y-11634428D02*
X5010381Y-11643952D01*
X5000857Y-11653476D01*
X4991333Y-11643952D01*
X5000857Y-11634428D01*
X5000857Y-11653476D01*
X5134190Y-11453476D02*
X5153238Y-11453476D01*
X5172286Y-11463000D01*
X5181810Y-11472524D01*
X5191333Y-11491571D01*
X5200857Y-11529667D01*
X5200857Y-11577286D01*
X5191333Y-11615381D01*
X5181810Y-11634428D01*
X5172286Y-11643952D01*
X5153238Y-11653476D01*
X5134190Y-11653476D01*
X5115143Y-11643952D01*
X5105619Y-11634428D01*
X5096095Y-11615381D01*
X5086571Y-11577286D01*
X5086571Y-11529667D01*
X5096095Y-11491571D01*
X5105619Y-11472524D01*
X5115143Y-11463000D01*
X5134190Y-11453476D01*
X5267524Y-11453476D02*
X5391333Y-11453476D01*
X5324667Y-11529667D01*
X5353238Y-11529667D01*
X5372286Y-11539190D01*
X5381810Y-11548714D01*
X5391333Y-11567762D01*
X5391333Y-11615381D01*
X5381810Y-11634428D01*
X5372286Y-11643952D01*
X5353238Y-11653476D01*
X5296095Y-11653476D01*
X5277048Y-11643952D01*
X5267524Y-11634428D01*
X5486571Y-11653476D02*
X5524667Y-11653476D01*
X5543714Y-11643952D01*
X5553238Y-11634428D01*
X5572286Y-11605857D01*
X5581810Y-11567762D01*
X5581810Y-11491571D01*
X5572286Y-11472524D01*
X5562762Y-11463000D01*
X5543714Y-11453476D01*
X5505619Y-11453476D01*
X5486571Y-11463000D01*
X5477048Y-11472524D01*
X5467524Y-11491571D01*
X5467524Y-11539190D01*
X5477048Y-11558238D01*
X5486571Y-11567762D01*
X5505619Y-11577286D01*
X5543714Y-11577286D01*
X5562762Y-11567762D01*
X5572286Y-11558238D01*
X5581810Y-11539190D01*
X5753238Y-11520143D02*
X5753238Y-11653476D01*
X5705619Y-11443952D02*
X5658000Y-11586809D01*
X5781809Y-11586809D01*
X5848476Y-11453476D02*
X5848476Y-11491571D01*
X5924667Y-11453476D02*
X5924667Y-11491571D01*
X6219905Y-11729667D02*
X6210381Y-11720143D01*
X6191333Y-11691571D01*
X6181809Y-11672524D01*
X6172286Y-11643952D01*
X6162762Y-11596333D01*
X6162762Y-11558238D01*
X6172286Y-11510619D01*
X6181809Y-11482048D01*
X6191333Y-11463000D01*
X6210381Y-11434428D01*
X6219905Y-11424905D01*
X6400857Y-11653476D02*
X6286571Y-11653476D01*
X6343714Y-11653476D02*
X6343714Y-11453476D01*
X6324667Y-11482048D01*
X6305619Y-11501095D01*
X6286571Y-11510619D01*
X6496095Y-11653476D02*
X6534190Y-11653476D01*
X6553238Y-11643952D01*
X6562762Y-11634428D01*
X6581809Y-11605857D01*
X6591333Y-11567762D01*
X6591333Y-11491571D01*
X6581809Y-11472524D01*
X6572286Y-11463000D01*
X6553238Y-11453476D01*
X6515143Y-11453476D01*
X6496095Y-11463000D01*
X6486571Y-11472524D01*
X6477048Y-11491571D01*
X6477048Y-11539190D01*
X6486571Y-11558238D01*
X6496095Y-11567762D01*
X6515143Y-11577286D01*
X6553238Y-11577286D01*
X6572286Y-11567762D01*
X6581809Y-11558238D01*
X6591333Y-11539190D01*
X6829428Y-11653476D02*
X6829428Y-11453476D01*
X6915143Y-11653476D02*
X6915143Y-11548714D01*
X6905619Y-11529667D01*
X6886571Y-11520143D01*
X6858000Y-11520143D01*
X6838952Y-11529667D01*
X6829428Y-11539190D01*
X7038952Y-11653476D02*
X7019905Y-11643952D01*
X7010381Y-11634428D01*
X7000857Y-11615381D01*
X7000857Y-11558238D01*
X7010381Y-11539190D01*
X7019905Y-11529667D01*
X7038952Y-11520143D01*
X7067524Y-11520143D01*
X7086571Y-11529667D01*
X7096095Y-11539190D01*
X7105619Y-11558238D01*
X7105619Y-11615381D01*
X7096095Y-11634428D01*
X7086571Y-11643952D01*
X7067524Y-11653476D01*
X7038952Y-11653476D01*
X7219905Y-11653476D02*
X7200857Y-11643952D01*
X7191333Y-11624905D01*
X7191333Y-11453476D01*
X7372286Y-11643952D02*
X7353238Y-11653476D01*
X7315143Y-11653476D01*
X7296095Y-11643952D01*
X7286571Y-11624905D01*
X7286571Y-11548714D01*
X7296095Y-11529667D01*
X7315143Y-11520143D01*
X7353238Y-11520143D01*
X7372286Y-11529667D01*
X7381809Y-11548714D01*
X7381809Y-11567762D01*
X7286571Y-11586809D01*
X7458000Y-11643952D02*
X7477048Y-11653476D01*
X7515143Y-11653476D01*
X7534190Y-11643952D01*
X7543714Y-11624905D01*
X7543714Y-11615381D01*
X7534190Y-11596333D01*
X7515143Y-11586809D01*
X7486571Y-11586809D01*
X7467524Y-11577286D01*
X7458000Y-11558238D01*
X7458000Y-11548714D01*
X7467524Y-11529667D01*
X7486571Y-11520143D01*
X7515143Y-11520143D01*
X7534190Y-11529667D01*
X7610381Y-11729667D02*
X7619905Y-11720143D01*
X7638952Y-11691571D01*
X7648476Y-11672524D01*
X7658000Y-11643952D01*
X7667524Y-11596333D01*
X7667524Y-11558238D01*
X7658000Y-11510619D01*
X7648476Y-11482048D01*
X7638952Y-11463000D01*
X7619905Y-11434428D01*
X7610381Y-11424905D01*
D15*
X2573000Y-11902000D02*
X2648000Y-11827000D01*
X2573000Y-11752000D01*
X2498000Y-11827000D01*
X2573000Y-11902000D01*
D11*
X3010381Y-11917476D02*
X2896095Y-11917476D01*
X2953238Y-11917476D02*
X2953238Y-11717476D01*
X2934190Y-11746048D01*
X2915143Y-11765095D01*
X2896095Y-11774619D01*
X3096095Y-11898428D02*
X3105619Y-11907952D01*
X3096095Y-11917476D01*
X3086571Y-11907952D01*
X3096095Y-11898428D01*
X3096095Y-11917476D01*
X3286571Y-11717476D02*
X3191333Y-11717476D01*
X3181809Y-11812714D01*
X3191333Y-11803190D01*
X3210381Y-11793667D01*
X3258000Y-11793667D01*
X3277048Y-11803190D01*
X3286571Y-11812714D01*
X3296095Y-11831762D01*
X3296095Y-11879381D01*
X3286571Y-11898428D01*
X3277048Y-11907952D01*
X3258000Y-11917476D01*
X3210381Y-11917476D01*
X3191333Y-11907952D01*
X3181809Y-11898428D01*
X3419905Y-11717476D02*
X3438952Y-11717476D01*
X3458000Y-11727000D01*
X3467524Y-11736524D01*
X3477048Y-11755571D01*
X3486571Y-11793667D01*
X3486571Y-11841286D01*
X3477048Y-11879381D01*
X3467524Y-11898428D01*
X3458000Y-11907952D01*
X3438952Y-11917476D01*
X3419905Y-11917476D01*
X3400857Y-11907952D01*
X3391333Y-11898428D01*
X3381809Y-11879381D01*
X3372286Y-11841286D01*
X3372286Y-11793667D01*
X3381809Y-11755571D01*
X3391333Y-11736524D01*
X3400857Y-11727000D01*
X3419905Y-11717476D01*
X3610381Y-11717476D02*
X3629428Y-11717476D01*
X3648476Y-11727000D01*
X3658000Y-11736524D01*
X3667524Y-11755571D01*
X3677048Y-11793667D01*
X3677048Y-11841286D01*
X3667524Y-11879381D01*
X3658000Y-11898428D01*
X3648476Y-11907952D01*
X3629428Y-11917476D01*
X3610381Y-11917476D01*
X3591333Y-11907952D01*
X3581809Y-11898428D01*
X3572286Y-11879381D01*
X3562762Y-11841286D01*
X3562762Y-11793667D01*
X3572286Y-11755571D01*
X3581809Y-11736524D01*
X3591333Y-11727000D01*
X3610381Y-11717476D01*
X3762762Y-11917476D02*
X3762762Y-11784143D01*
X3762762Y-11803190D02*
X3772286Y-11793667D01*
X3791333Y-11784143D01*
X3819905Y-11784143D01*
X3838952Y-11793667D01*
X3848476Y-11812714D01*
X3848476Y-11917476D01*
X3848476Y-11812714D02*
X3858000Y-11793667D01*
X3877048Y-11784143D01*
X3905619Y-11784143D01*
X3924667Y-11793667D01*
X3934190Y-11812714D01*
X3934190Y-11917476D01*
X4029428Y-11917476D02*
X4029428Y-11784143D01*
X4029428Y-11803190D02*
X4038952Y-11793667D01*
X4058000Y-11784143D01*
X4086571Y-11784143D01*
X4105619Y-11793667D01*
X4115143Y-11812714D01*
X4115143Y-11917476D01*
X4115143Y-11812714D02*
X4124667Y-11793667D01*
X4143714Y-11784143D01*
X4172286Y-11784143D01*
X4191333Y-11793667D01*
X4200857Y-11812714D01*
X4200857Y-11917476D01*
X4591333Y-11707952D02*
X4419905Y-11965095D01*
X4848476Y-11717476D02*
X4867524Y-11717476D01*
X4886571Y-11727000D01*
X4896095Y-11736524D01*
X4905619Y-11755571D01*
X4915143Y-11793667D01*
X4915143Y-11841286D01*
X4905619Y-11879381D01*
X4896095Y-11898428D01*
X4886571Y-11907952D01*
X4867524Y-11917476D01*
X4848476Y-11917476D01*
X4829429Y-11907952D01*
X4819905Y-11898428D01*
X4810381Y-11879381D01*
X4800857Y-11841286D01*
X4800857Y-11793667D01*
X4810381Y-11755571D01*
X4819905Y-11736524D01*
X4829429Y-11727000D01*
X4848476Y-11717476D01*
X5000857Y-11898428D02*
X5010381Y-11907952D01*
X5000857Y-11917476D01*
X4991333Y-11907952D01*
X5000857Y-11898428D01*
X5000857Y-11917476D01*
X5134190Y-11717476D02*
X5153238Y-11717476D01*
X5172286Y-11727000D01*
X5181810Y-11736524D01*
X5191333Y-11755571D01*
X5200857Y-11793667D01*
X5200857Y-11841286D01*
X5191333Y-11879381D01*
X5181810Y-11898428D01*
X5172286Y-11907952D01*
X5153238Y-11917476D01*
X5134190Y-11917476D01*
X5115143Y-11907952D01*
X5105619Y-11898428D01*
X5096095Y-11879381D01*
X5086571Y-11841286D01*
X5086571Y-11793667D01*
X5096095Y-11755571D01*
X5105619Y-11736524D01*
X5115143Y-11727000D01*
X5134190Y-11717476D01*
X5381810Y-11717476D02*
X5286571Y-11717476D01*
X5277048Y-11812714D01*
X5286571Y-11803190D01*
X5305619Y-11793667D01*
X5353238Y-11793667D01*
X5372286Y-11803190D01*
X5381810Y-11812714D01*
X5391333Y-11831762D01*
X5391333Y-11879381D01*
X5381810Y-11898428D01*
X5372286Y-11907952D01*
X5353238Y-11917476D01*
X5305619Y-11917476D01*
X5286571Y-11907952D01*
X5277048Y-11898428D01*
X5486571Y-11917476D02*
X5524667Y-11917476D01*
X5543714Y-11907952D01*
X5553238Y-11898428D01*
X5572286Y-11869857D01*
X5581810Y-11831762D01*
X5581810Y-11755571D01*
X5572286Y-11736524D01*
X5562762Y-11727000D01*
X5543714Y-11717476D01*
X5505619Y-11717476D01*
X5486571Y-11727000D01*
X5477048Y-11736524D01*
X5467524Y-11755571D01*
X5467524Y-11803190D01*
X5477048Y-11822238D01*
X5486571Y-11831762D01*
X5505619Y-11841286D01*
X5543714Y-11841286D01*
X5562762Y-11831762D01*
X5572286Y-11822238D01*
X5581810Y-11803190D01*
X5772286Y-11917476D02*
X5658000Y-11917476D01*
X5715143Y-11917476D02*
X5715143Y-11717476D01*
X5696095Y-11746048D01*
X5677048Y-11765095D01*
X5658000Y-11774619D01*
X5848476Y-11717476D02*
X5848476Y-11755571D01*
X5924667Y-11717476D02*
X5924667Y-11755571D01*
X6219905Y-11993667D02*
X6210381Y-11984143D01*
X6191333Y-11955571D01*
X6181809Y-11936524D01*
X6172286Y-11907952D01*
X6162762Y-11860333D01*
X6162762Y-11822238D01*
X6172286Y-11774619D01*
X6181809Y-11746048D01*
X6191333Y-11727000D01*
X6210381Y-11698428D01*
X6219905Y-11688905D01*
X6400857Y-11917476D02*
X6286571Y-11917476D01*
X6343714Y-11917476D02*
X6343714Y-11717476D01*
X6324667Y-11746048D01*
X6305619Y-11765095D01*
X6286571Y-11774619D01*
X6572286Y-11717476D02*
X6534190Y-11717476D01*
X6515143Y-11727000D01*
X6505619Y-11736524D01*
X6486571Y-11765095D01*
X6477048Y-11803190D01*
X6477048Y-11879381D01*
X6486571Y-11898428D01*
X6496095Y-11907952D01*
X6515143Y-11917476D01*
X6553238Y-11917476D01*
X6572286Y-11907952D01*
X6581809Y-11898428D01*
X6591333Y-11879381D01*
X6591333Y-11831762D01*
X6581809Y-11812714D01*
X6572286Y-11803190D01*
X6553238Y-11793667D01*
X6515143Y-11793667D01*
X6496095Y-11803190D01*
X6486571Y-11812714D01*
X6477048Y-11831762D01*
X6829428Y-11917476D02*
X6829428Y-11717476D01*
X6915143Y-11917476D02*
X6915143Y-11812714D01*
X6905619Y-11793667D01*
X6886571Y-11784143D01*
X6858000Y-11784143D01*
X6838952Y-11793667D01*
X6829428Y-11803190D01*
X7038952Y-11917476D02*
X7019905Y-11907952D01*
X7010381Y-11898428D01*
X7000857Y-11879381D01*
X7000857Y-11822238D01*
X7010381Y-11803190D01*
X7019905Y-11793667D01*
X7038952Y-11784143D01*
X7067524Y-11784143D01*
X7086571Y-11793667D01*
X7096095Y-11803190D01*
X7105619Y-11822238D01*
X7105619Y-11879381D01*
X7096095Y-11898428D01*
X7086571Y-11907952D01*
X7067524Y-11917476D01*
X7038952Y-11917476D01*
X7219905Y-11917476D02*
X7200857Y-11907952D01*
X7191333Y-11888905D01*
X7191333Y-11717476D01*
X7372286Y-11907952D02*
X7353238Y-11917476D01*
X7315143Y-11917476D01*
X7296095Y-11907952D01*
X7286571Y-11888905D01*
X7286571Y-11812714D01*
X7296095Y-11793667D01*
X7315143Y-11784143D01*
X7353238Y-11784143D01*
X7372286Y-11793667D01*
X7381809Y-11812714D01*
X7381809Y-11831762D01*
X7286571Y-11850809D01*
X7458000Y-11907952D02*
X7477048Y-11917476D01*
X7515143Y-11917476D01*
X7534190Y-11907952D01*
X7543714Y-11888905D01*
X7543714Y-11879381D01*
X7534190Y-11860333D01*
X7515143Y-11850809D01*
X7486571Y-11850809D01*
X7467524Y-11841286D01*
X7458000Y-11822238D01*
X7458000Y-11812714D01*
X7467524Y-11793667D01*
X7486571Y-11784143D01*
X7515143Y-11784143D01*
X7534190Y-11793667D01*
X7781809Y-11841286D02*
X7934190Y-11841286D01*
X7858000Y-11917476D02*
X7858000Y-11765095D01*
X8172286Y-11736524D02*
X8181809Y-11727000D01*
X8200857Y-11717476D01*
X8248476Y-11717476D01*
X8267524Y-11727000D01*
X8277048Y-11736524D01*
X8286571Y-11755571D01*
X8286571Y-11774619D01*
X8277048Y-11803190D01*
X8162762Y-11917476D01*
X8286571Y-11917476D01*
X8515143Y-11907952D02*
X8534190Y-11917476D01*
X8572286Y-11917476D01*
X8591333Y-11907952D01*
X8600857Y-11888905D01*
X8600857Y-11879381D01*
X8591333Y-11860333D01*
X8572286Y-11850809D01*
X8543714Y-11850809D01*
X8524667Y-11841286D01*
X8515143Y-11822238D01*
X8515143Y-11812714D01*
X8524667Y-11793667D01*
X8543714Y-11784143D01*
X8572286Y-11784143D01*
X8591333Y-11793667D01*
X8715143Y-11917476D02*
X8696095Y-11907952D01*
X8686571Y-11888905D01*
X8686571Y-11717476D01*
X8819905Y-11917476D02*
X8800857Y-11907952D01*
X8791333Y-11898428D01*
X8781810Y-11879381D01*
X8781810Y-11822238D01*
X8791333Y-11803190D01*
X8800857Y-11793667D01*
X8819905Y-11784143D01*
X8848476Y-11784143D01*
X8867524Y-11793667D01*
X8877048Y-11803190D01*
X8886571Y-11822238D01*
X8886571Y-11879381D01*
X8877048Y-11898428D01*
X8867524Y-11907952D01*
X8848476Y-11917476D01*
X8819905Y-11917476D01*
X8943714Y-11784143D02*
X9019905Y-11784143D01*
X8972286Y-11717476D02*
X8972286Y-11888905D01*
X8981810Y-11907952D01*
X9000857Y-11917476D01*
X9019905Y-11917476D01*
X9077048Y-11907952D02*
X9096095Y-11917476D01*
X9134190Y-11917476D01*
X9153238Y-11907952D01*
X9162762Y-11888905D01*
X9162762Y-11879381D01*
X9153238Y-11860333D01*
X9134190Y-11850809D01*
X9105619Y-11850809D01*
X9086571Y-11841286D01*
X9077048Y-11822238D01*
X9077048Y-11812714D01*
X9086571Y-11793667D01*
X9105619Y-11784143D01*
X9134190Y-11784143D01*
X9153238Y-11793667D01*
X9229429Y-11993667D02*
X9238952Y-11984143D01*
X9258000Y-11955571D01*
X9267524Y-11936524D01*
X9277048Y-11907952D01*
X9286571Y-11860333D01*
X9286571Y-11822238D01*
X9277048Y-11774619D01*
X9267524Y-11746048D01*
X9258000Y-11727000D01*
X9238952Y-11698428D01*
X9229429Y-11688905D01*
X2448000Y-11997000D02*
X2648000Y-12197000D01*
X2648000Y-11997000D02*
X2448000Y-12197000D01*
X2648000Y-12097000D02*
G75*
G03*
X2648000Y-12097000I-100000J0D01*
G01*
X2896095Y-12006524D02*
X2905619Y-11997000D01*
X2924667Y-11987476D01*
X2972286Y-11987476D01*
X2991333Y-11997000D01*
X3000857Y-12006524D01*
X3010381Y-12025571D01*
X3010381Y-12044619D01*
X3000857Y-12073190D01*
X2886571Y-12187476D01*
X3010381Y-12187476D01*
X3096095Y-12168428D02*
X3105619Y-12177952D01*
X3096095Y-12187476D01*
X3086571Y-12177952D01*
X3096095Y-12168428D01*
X3096095Y-12187476D01*
X3181809Y-12006524D02*
X3191333Y-11997000D01*
X3210381Y-11987476D01*
X3258000Y-11987476D01*
X3277048Y-11997000D01*
X3286571Y-12006524D01*
X3296095Y-12025571D01*
X3296095Y-12044619D01*
X3286571Y-12073190D01*
X3172286Y-12187476D01*
X3296095Y-12187476D01*
X3419905Y-11987476D02*
X3438952Y-11987476D01*
X3458000Y-11997000D01*
X3467524Y-12006524D01*
X3477048Y-12025571D01*
X3486571Y-12063667D01*
X3486571Y-12111286D01*
X3477048Y-12149381D01*
X3467524Y-12168428D01*
X3458000Y-12177952D01*
X3438952Y-12187476D01*
X3419905Y-12187476D01*
X3400857Y-12177952D01*
X3391333Y-12168428D01*
X3381809Y-12149381D01*
X3372286Y-12111286D01*
X3372286Y-12063667D01*
X3381809Y-12025571D01*
X3391333Y-12006524D01*
X3400857Y-11997000D01*
X3419905Y-11987476D01*
X3610381Y-11987476D02*
X3629428Y-11987476D01*
X3648476Y-11997000D01*
X3658000Y-12006524D01*
X3667524Y-12025571D01*
X3677048Y-12063667D01*
X3677048Y-12111286D01*
X3667524Y-12149381D01*
X3658000Y-12168428D01*
X3648476Y-12177952D01*
X3629428Y-12187476D01*
X3610381Y-12187476D01*
X3591333Y-12177952D01*
X3581809Y-12168428D01*
X3572286Y-12149381D01*
X3562762Y-12111286D01*
X3562762Y-12063667D01*
X3572286Y-12025571D01*
X3581809Y-12006524D01*
X3591333Y-11997000D01*
X3610381Y-11987476D01*
X3762762Y-12187476D02*
X3762762Y-12054143D01*
X3762762Y-12073190D02*
X3772286Y-12063667D01*
X3791333Y-12054143D01*
X3819905Y-12054143D01*
X3838952Y-12063667D01*
X3848476Y-12082714D01*
X3848476Y-12187476D01*
X3848476Y-12082714D02*
X3858000Y-12063667D01*
X3877048Y-12054143D01*
X3905619Y-12054143D01*
X3924667Y-12063667D01*
X3934190Y-12082714D01*
X3934190Y-12187476D01*
X4029428Y-12187476D02*
X4029428Y-12054143D01*
X4029428Y-12073190D02*
X4038952Y-12063667D01*
X4058000Y-12054143D01*
X4086571Y-12054143D01*
X4105619Y-12063667D01*
X4115143Y-12082714D01*
X4115143Y-12187476D01*
X4115143Y-12082714D02*
X4124667Y-12063667D01*
X4143714Y-12054143D01*
X4172286Y-12054143D01*
X4191333Y-12063667D01*
X4200857Y-12082714D01*
X4200857Y-12187476D01*
X4591333Y-11977952D02*
X4419905Y-12235095D01*
X4848476Y-11987476D02*
X4867524Y-11987476D01*
X4886571Y-11997000D01*
X4896095Y-12006524D01*
X4905619Y-12025571D01*
X4915143Y-12063667D01*
X4915143Y-12111286D01*
X4905619Y-12149381D01*
X4896095Y-12168428D01*
X4886571Y-12177952D01*
X4867524Y-12187476D01*
X4848476Y-12187476D01*
X4829429Y-12177952D01*
X4819905Y-12168428D01*
X4810381Y-12149381D01*
X4800857Y-12111286D01*
X4800857Y-12063667D01*
X4810381Y-12025571D01*
X4819905Y-12006524D01*
X4829429Y-11997000D01*
X4848476Y-11987476D01*
X5000857Y-12168428D02*
X5010381Y-12177952D01*
X5000857Y-12187476D01*
X4991333Y-12177952D01*
X5000857Y-12168428D01*
X5000857Y-12187476D01*
X5134190Y-11987476D02*
X5153238Y-11987476D01*
X5172286Y-11997000D01*
X5181810Y-12006524D01*
X5191333Y-12025571D01*
X5200857Y-12063667D01*
X5200857Y-12111286D01*
X5191333Y-12149381D01*
X5181810Y-12168428D01*
X5172286Y-12177952D01*
X5153238Y-12187476D01*
X5134190Y-12187476D01*
X5115143Y-12177952D01*
X5105619Y-12168428D01*
X5096095Y-12149381D01*
X5086571Y-12111286D01*
X5086571Y-12063667D01*
X5096095Y-12025571D01*
X5105619Y-12006524D01*
X5115143Y-11997000D01*
X5134190Y-11987476D01*
X5315143Y-12073190D02*
X5296095Y-12063667D01*
X5286571Y-12054143D01*
X5277048Y-12035095D01*
X5277048Y-12025571D01*
X5286571Y-12006524D01*
X5296095Y-11997000D01*
X5315143Y-11987476D01*
X5353238Y-11987476D01*
X5372286Y-11997000D01*
X5381810Y-12006524D01*
X5391333Y-12025571D01*
X5391333Y-12035095D01*
X5381810Y-12054143D01*
X5372286Y-12063667D01*
X5353238Y-12073190D01*
X5315143Y-12073190D01*
X5296095Y-12082714D01*
X5286571Y-12092238D01*
X5277048Y-12111286D01*
X5277048Y-12149381D01*
X5286571Y-12168428D01*
X5296095Y-12177952D01*
X5315143Y-12187476D01*
X5353238Y-12187476D01*
X5372286Y-12177952D01*
X5381810Y-12168428D01*
X5391333Y-12149381D01*
X5391333Y-12111286D01*
X5381810Y-12092238D01*
X5372286Y-12082714D01*
X5353238Y-12073190D01*
X5562762Y-11987476D02*
X5524667Y-11987476D01*
X5505619Y-11997000D01*
X5496095Y-12006524D01*
X5477048Y-12035095D01*
X5467524Y-12073190D01*
X5467524Y-12149381D01*
X5477048Y-12168428D01*
X5486571Y-12177952D01*
X5505619Y-12187476D01*
X5543714Y-12187476D01*
X5562762Y-12177952D01*
X5572286Y-12168428D01*
X5581810Y-12149381D01*
X5581810Y-12101762D01*
X5572286Y-12082714D01*
X5562762Y-12073190D01*
X5543714Y-12063667D01*
X5505619Y-12063667D01*
X5486571Y-12073190D01*
X5477048Y-12082714D01*
X5467524Y-12101762D01*
X5753238Y-11987476D02*
X5715143Y-11987476D01*
X5696095Y-11997000D01*
X5686571Y-12006524D01*
X5667524Y-12035095D01*
X5658000Y-12073190D01*
X5658000Y-12149381D01*
X5667524Y-12168428D01*
X5677048Y-12177952D01*
X5696095Y-12187476D01*
X5734190Y-12187476D01*
X5753238Y-12177952D01*
X5762762Y-12168428D01*
X5772286Y-12149381D01*
X5772286Y-12101762D01*
X5762762Y-12082714D01*
X5753238Y-12073190D01*
X5734190Y-12063667D01*
X5696095Y-12063667D01*
X5677048Y-12073190D01*
X5667524Y-12082714D01*
X5658000Y-12101762D01*
X5848476Y-11987476D02*
X5848476Y-12025571D01*
X5924667Y-11987476D02*
X5924667Y-12025571D01*
X6219905Y-12263667D02*
X6210381Y-12254143D01*
X6191333Y-12225571D01*
X6181809Y-12206524D01*
X6172286Y-12177952D01*
X6162762Y-12130333D01*
X6162762Y-12092238D01*
X6172286Y-12044619D01*
X6181809Y-12016048D01*
X6191333Y-11997000D01*
X6210381Y-11968428D01*
X6219905Y-11958905D01*
X6381809Y-12054143D02*
X6381809Y-12187476D01*
X6334190Y-11977952D02*
X6286571Y-12120809D01*
X6410381Y-12120809D01*
X6638952Y-12187476D02*
X6638952Y-11987476D01*
X6724667Y-12187476D02*
X6724667Y-12082714D01*
X6715143Y-12063667D01*
X6696095Y-12054143D01*
X6667524Y-12054143D01*
X6648476Y-12063667D01*
X6638952Y-12073190D01*
X6848476Y-12187476D02*
X6829428Y-12177952D01*
X6819905Y-12168428D01*
X6810381Y-12149381D01*
X6810381Y-12092238D01*
X6819905Y-12073190D01*
X6829428Y-12063667D01*
X6848476Y-12054143D01*
X6877048Y-12054143D01*
X6896095Y-12063667D01*
X6905619Y-12073190D01*
X6915143Y-12092238D01*
X6915143Y-12149381D01*
X6905619Y-12168428D01*
X6896095Y-12177952D01*
X6877048Y-12187476D01*
X6848476Y-12187476D01*
X7029428Y-12187476D02*
X7010381Y-12177952D01*
X7000857Y-12158905D01*
X7000857Y-11987476D01*
X7181809Y-12177952D02*
X7162762Y-12187476D01*
X7124667Y-12187476D01*
X7105619Y-12177952D01*
X7096095Y-12158905D01*
X7096095Y-12082714D01*
X7105619Y-12063667D01*
X7124667Y-12054143D01*
X7162762Y-12054143D01*
X7181809Y-12063667D01*
X7191333Y-12082714D01*
X7191333Y-12101762D01*
X7096095Y-12120809D01*
X7267524Y-12177952D02*
X7286571Y-12187476D01*
X7324667Y-12187476D01*
X7343714Y-12177952D01*
X7353238Y-12158905D01*
X7353238Y-12149381D01*
X7343714Y-12130333D01*
X7324667Y-12120809D01*
X7296095Y-12120809D01*
X7277048Y-12111286D01*
X7267524Y-12092238D01*
X7267524Y-12082714D01*
X7277048Y-12063667D01*
X7296095Y-12054143D01*
X7324667Y-12054143D01*
X7343714Y-12063667D01*
X7419905Y-12263667D02*
X7429428Y-12254143D01*
X7448476Y-12225571D01*
X7458000Y-12206524D01*
X7467524Y-12177952D01*
X7477048Y-12130333D01*
X7477048Y-12092238D01*
X7467524Y-12044619D01*
X7458000Y-12016048D01*
X7448476Y-11997000D01*
X7429428Y-11968428D01*
X7419905Y-11958905D01*
X2448000Y-12317000D02*
X2648000Y-12517000D01*
X2648000Y-12317000D02*
X2448000Y-12517000D01*
X2548000Y-12317000D02*
X2548000Y-12517000D01*
X2448000Y-12417000D02*
X2648000Y-12417000D01*
X2896095Y-12326524D02*
X2905619Y-12317000D01*
X2924667Y-12307476D01*
X2972286Y-12307476D01*
X2991333Y-12317000D01*
X3000857Y-12326524D01*
X3010381Y-12345571D01*
X3010381Y-12364619D01*
X3000857Y-12393190D01*
X2886571Y-12507476D01*
X3010381Y-12507476D01*
X3096095Y-12488428D02*
X3105619Y-12497952D01*
X3096095Y-12507476D01*
X3086571Y-12497952D01*
X3096095Y-12488428D01*
X3096095Y-12507476D01*
X3172286Y-12307476D02*
X3296095Y-12307476D01*
X3229428Y-12383667D01*
X3258000Y-12383667D01*
X3277048Y-12393190D01*
X3286571Y-12402714D01*
X3296095Y-12421762D01*
X3296095Y-12469381D01*
X3286571Y-12488428D01*
X3277048Y-12497952D01*
X3258000Y-12507476D01*
X3200857Y-12507476D01*
X3181809Y-12497952D01*
X3172286Y-12488428D01*
X3477048Y-12307476D02*
X3381809Y-12307476D01*
X3372286Y-12402714D01*
X3381809Y-12393190D01*
X3400857Y-12383667D01*
X3448476Y-12383667D01*
X3467524Y-12393190D01*
X3477048Y-12402714D01*
X3486571Y-12421762D01*
X3486571Y-12469381D01*
X3477048Y-12488428D01*
X3467524Y-12497952D01*
X3448476Y-12507476D01*
X3400857Y-12507476D01*
X3381809Y-12497952D01*
X3372286Y-12488428D01*
X3610381Y-12307476D02*
X3629428Y-12307476D01*
X3648476Y-12317000D01*
X3658000Y-12326524D01*
X3667524Y-12345571D01*
X3677048Y-12383667D01*
X3677048Y-12431286D01*
X3667524Y-12469381D01*
X3658000Y-12488428D01*
X3648476Y-12497952D01*
X3629428Y-12507476D01*
X3610381Y-12507476D01*
X3591333Y-12497952D01*
X3581809Y-12488428D01*
X3572286Y-12469381D01*
X3562762Y-12431286D01*
X3562762Y-12383667D01*
X3572286Y-12345571D01*
X3581809Y-12326524D01*
X3591333Y-12317000D01*
X3610381Y-12307476D01*
X3762762Y-12507476D02*
X3762762Y-12374143D01*
X3762762Y-12393190D02*
X3772286Y-12383667D01*
X3791333Y-12374143D01*
X3819905Y-12374143D01*
X3838952Y-12383667D01*
X3848476Y-12402714D01*
X3848476Y-12507476D01*
X3848476Y-12402714D02*
X3858000Y-12383667D01*
X3877048Y-12374143D01*
X3905619Y-12374143D01*
X3924667Y-12383667D01*
X3934190Y-12402714D01*
X3934190Y-12507476D01*
X4029428Y-12507476D02*
X4029428Y-12374143D01*
X4029428Y-12393190D02*
X4038952Y-12383667D01*
X4058000Y-12374143D01*
X4086571Y-12374143D01*
X4105619Y-12383667D01*
X4115143Y-12402714D01*
X4115143Y-12507476D01*
X4115143Y-12402714D02*
X4124667Y-12383667D01*
X4143714Y-12374143D01*
X4172286Y-12374143D01*
X4191333Y-12383667D01*
X4200857Y-12402714D01*
X4200857Y-12507476D01*
X4591333Y-12297952D02*
X4419905Y-12555095D01*
X4848476Y-12307476D02*
X4867524Y-12307476D01*
X4886571Y-12317000D01*
X4896095Y-12326524D01*
X4905619Y-12345571D01*
X4915143Y-12383667D01*
X4915143Y-12431286D01*
X4905619Y-12469381D01*
X4896095Y-12488428D01*
X4886571Y-12497952D01*
X4867524Y-12507476D01*
X4848476Y-12507476D01*
X4829429Y-12497952D01*
X4819905Y-12488428D01*
X4810381Y-12469381D01*
X4800857Y-12431286D01*
X4800857Y-12383667D01*
X4810381Y-12345571D01*
X4819905Y-12326524D01*
X4829429Y-12317000D01*
X4848476Y-12307476D01*
X5000857Y-12488428D02*
X5010381Y-12497952D01*
X5000857Y-12507476D01*
X4991333Y-12497952D01*
X5000857Y-12488428D01*
X5000857Y-12507476D01*
X5134190Y-12307476D02*
X5153238Y-12307476D01*
X5172286Y-12317000D01*
X5181810Y-12326524D01*
X5191333Y-12345571D01*
X5200857Y-12383667D01*
X5200857Y-12431286D01*
X5191333Y-12469381D01*
X5181810Y-12488428D01*
X5172286Y-12497952D01*
X5153238Y-12507476D01*
X5134190Y-12507476D01*
X5115143Y-12497952D01*
X5105619Y-12488428D01*
X5096095Y-12469381D01*
X5086571Y-12431286D01*
X5086571Y-12383667D01*
X5096095Y-12345571D01*
X5105619Y-12326524D01*
X5115143Y-12317000D01*
X5134190Y-12307476D01*
X5296095Y-12507476D02*
X5334190Y-12507476D01*
X5353238Y-12497952D01*
X5362762Y-12488428D01*
X5381810Y-12459857D01*
X5391333Y-12421762D01*
X5391333Y-12345571D01*
X5381810Y-12326524D01*
X5372286Y-12317000D01*
X5353238Y-12307476D01*
X5315143Y-12307476D01*
X5296095Y-12317000D01*
X5286571Y-12326524D01*
X5277048Y-12345571D01*
X5277048Y-12393190D01*
X5286571Y-12412238D01*
X5296095Y-12421762D01*
X5315143Y-12431286D01*
X5353238Y-12431286D01*
X5372286Y-12421762D01*
X5381810Y-12412238D01*
X5391333Y-12393190D01*
X5467524Y-12326524D02*
X5477048Y-12317000D01*
X5496095Y-12307476D01*
X5543714Y-12307476D01*
X5562762Y-12317000D01*
X5572286Y-12326524D01*
X5581810Y-12345571D01*
X5581810Y-12364619D01*
X5572286Y-12393190D01*
X5458000Y-12507476D01*
X5581810Y-12507476D01*
X5762762Y-12307476D02*
X5667524Y-12307476D01*
X5658000Y-12402714D01*
X5667524Y-12393190D01*
X5686571Y-12383667D01*
X5734190Y-12383667D01*
X5753238Y-12393190D01*
X5762762Y-12402714D01*
X5772286Y-12421762D01*
X5772286Y-12469381D01*
X5762762Y-12488428D01*
X5753238Y-12497952D01*
X5734190Y-12507476D01*
X5686571Y-12507476D01*
X5667524Y-12497952D01*
X5658000Y-12488428D01*
X5848476Y-12307476D02*
X5848476Y-12345571D01*
X5924667Y-12307476D02*
X5924667Y-12345571D01*
X6219905Y-12583667D02*
X6210381Y-12574143D01*
X6191333Y-12545571D01*
X6181809Y-12526524D01*
X6172286Y-12497952D01*
X6162762Y-12450333D01*
X6162762Y-12412238D01*
X6172286Y-12364619D01*
X6181809Y-12336048D01*
X6191333Y-12317000D01*
X6210381Y-12288428D01*
X6219905Y-12278905D01*
X6381809Y-12307476D02*
X6343714Y-12307476D01*
X6324667Y-12317000D01*
X6315143Y-12326524D01*
X6296095Y-12355095D01*
X6286571Y-12393190D01*
X6286571Y-12469381D01*
X6296095Y-12488428D01*
X6305619Y-12497952D01*
X6324667Y-12507476D01*
X6362762Y-12507476D01*
X6381809Y-12497952D01*
X6391333Y-12488428D01*
X6400857Y-12469381D01*
X6400857Y-12421762D01*
X6391333Y-12402714D01*
X6381809Y-12393190D01*
X6362762Y-12383667D01*
X6324667Y-12383667D01*
X6305619Y-12393190D01*
X6296095Y-12402714D01*
X6286571Y-12421762D01*
X6638952Y-12507476D02*
X6638952Y-12307476D01*
X6724667Y-12507476D02*
X6724667Y-12402714D01*
X6715143Y-12383667D01*
X6696095Y-12374143D01*
X6667524Y-12374143D01*
X6648476Y-12383667D01*
X6638952Y-12393190D01*
X6848476Y-12507476D02*
X6829428Y-12497952D01*
X6819905Y-12488428D01*
X6810381Y-12469381D01*
X6810381Y-12412238D01*
X6819905Y-12393190D01*
X6829428Y-12383667D01*
X6848476Y-12374143D01*
X6877048Y-12374143D01*
X6896095Y-12383667D01*
X6905619Y-12393190D01*
X6915143Y-12412238D01*
X6915143Y-12469381D01*
X6905619Y-12488428D01*
X6896095Y-12497952D01*
X6877048Y-12507476D01*
X6848476Y-12507476D01*
X7029428Y-12507476D02*
X7010381Y-12497952D01*
X7000857Y-12478905D01*
X7000857Y-12307476D01*
X7181809Y-12497952D02*
X7162762Y-12507476D01*
X7124667Y-12507476D01*
X7105619Y-12497952D01*
X7096095Y-12478905D01*
X7096095Y-12402714D01*
X7105619Y-12383667D01*
X7124667Y-12374143D01*
X7162762Y-12374143D01*
X7181809Y-12383667D01*
X7191333Y-12402714D01*
X7191333Y-12421762D01*
X7096095Y-12440809D01*
X7267524Y-12497952D02*
X7286571Y-12507476D01*
X7324667Y-12507476D01*
X7343714Y-12497952D01*
X7353238Y-12478905D01*
X7353238Y-12469381D01*
X7343714Y-12450333D01*
X7324667Y-12440809D01*
X7296095Y-12440809D01*
X7277048Y-12431286D01*
X7267524Y-12412238D01*
X7267524Y-12402714D01*
X7277048Y-12383667D01*
X7296095Y-12374143D01*
X7324667Y-12374143D01*
X7343714Y-12383667D01*
X7419905Y-12583667D02*
X7429428Y-12574143D01*
X7448476Y-12545571D01*
X7458000Y-12526524D01*
X7467524Y-12497952D01*
X7477048Y-12450333D01*
X7477048Y-12412238D01*
X7467524Y-12364619D01*
X7458000Y-12336048D01*
X7448476Y-12317000D01*
X7429428Y-12288428D01*
X7419905Y-12278905D01*
D18*
X2583000Y-12704500D02*
X2648000Y-12769500D01*
X2648000Y-12704500D02*
X2583000Y-12769500D01*
X2638481Y-12759981D02*
X2638481Y-12714019D01*
X2592519Y-12714019D01*
X2592519Y-12759981D01*
X2638481Y-12759981D01*
D11*
X2943714Y-12627476D02*
X2962762Y-12627476D01*
X2981809Y-12637000D01*
X2991333Y-12646524D01*
X3000857Y-12665571D01*
X3010381Y-12703667D01*
X3010381Y-12751286D01*
X3000857Y-12789381D01*
X2991333Y-12808428D01*
X2981809Y-12817952D01*
X2962762Y-12827476D01*
X2943714Y-12827476D01*
X2924667Y-12817952D01*
X2915143Y-12808428D01*
X2905619Y-12789381D01*
X2896095Y-12751286D01*
X2896095Y-12703667D01*
X2905619Y-12665571D01*
X2915143Y-12646524D01*
X2924667Y-12637000D01*
X2943714Y-12627476D01*
X3096095Y-12808428D02*
X3105619Y-12817952D01*
X3096095Y-12827476D01*
X3086571Y-12817952D01*
X3096095Y-12808428D01*
X3096095Y-12827476D01*
X3277048Y-12627476D02*
X3238952Y-12627476D01*
X3219905Y-12637000D01*
X3210381Y-12646524D01*
X3191333Y-12675095D01*
X3181809Y-12713190D01*
X3181809Y-12789381D01*
X3191333Y-12808428D01*
X3200857Y-12817952D01*
X3219905Y-12827476D01*
X3258000Y-12827476D01*
X3277048Y-12817952D01*
X3286571Y-12808428D01*
X3296095Y-12789381D01*
X3296095Y-12741762D01*
X3286571Y-12722714D01*
X3277048Y-12713190D01*
X3258000Y-12703667D01*
X3219905Y-12703667D01*
X3200857Y-12713190D01*
X3191333Y-12722714D01*
X3181809Y-12741762D01*
X3477048Y-12627476D02*
X3381809Y-12627476D01*
X3372286Y-12722714D01*
X3381809Y-12713190D01*
X3400857Y-12703667D01*
X3448476Y-12703667D01*
X3467524Y-12713190D01*
X3477048Y-12722714D01*
X3486571Y-12741762D01*
X3486571Y-12789381D01*
X3477048Y-12808428D01*
X3467524Y-12817952D01*
X3448476Y-12827476D01*
X3400857Y-12827476D01*
X3381809Y-12817952D01*
X3372286Y-12808428D01*
X3610381Y-12627476D02*
X3629428Y-12627476D01*
X3648476Y-12637000D01*
X3658000Y-12646524D01*
X3667524Y-12665571D01*
X3677048Y-12703667D01*
X3677048Y-12751286D01*
X3667524Y-12789381D01*
X3658000Y-12808428D01*
X3648476Y-12817952D01*
X3629428Y-12827476D01*
X3610381Y-12827476D01*
X3591333Y-12817952D01*
X3581809Y-12808428D01*
X3572286Y-12789381D01*
X3562762Y-12751286D01*
X3562762Y-12703667D01*
X3572286Y-12665571D01*
X3581809Y-12646524D01*
X3591333Y-12637000D01*
X3610381Y-12627476D01*
X3762762Y-12827476D02*
X3762762Y-12694143D01*
X3762762Y-12713190D02*
X3772286Y-12703667D01*
X3791333Y-12694143D01*
X3819905Y-12694143D01*
X3838952Y-12703667D01*
X3848476Y-12722714D01*
X3848476Y-12827476D01*
X3848476Y-12722714D02*
X3858000Y-12703667D01*
X3877048Y-12694143D01*
X3905619Y-12694143D01*
X3924667Y-12703667D01*
X3934190Y-12722714D01*
X3934190Y-12827476D01*
X4029428Y-12827476D02*
X4029428Y-12694143D01*
X4029428Y-12713190D02*
X4038952Y-12703667D01*
X4058000Y-12694143D01*
X4086571Y-12694143D01*
X4105619Y-12703667D01*
X4115143Y-12722714D01*
X4115143Y-12827476D01*
X4115143Y-12722714D02*
X4124667Y-12703667D01*
X4143714Y-12694143D01*
X4172286Y-12694143D01*
X4191333Y-12703667D01*
X4200857Y-12722714D01*
X4200857Y-12827476D01*
X4591333Y-12617952D02*
X4419905Y-12875095D01*
X4848476Y-12627476D02*
X4867524Y-12627476D01*
X4886571Y-12637000D01*
X4896095Y-12646524D01*
X4905619Y-12665571D01*
X4915143Y-12703667D01*
X4915143Y-12751286D01*
X4905619Y-12789381D01*
X4896095Y-12808428D01*
X4886571Y-12817952D01*
X4867524Y-12827476D01*
X4848476Y-12827476D01*
X4829429Y-12817952D01*
X4819905Y-12808428D01*
X4810381Y-12789381D01*
X4800857Y-12751286D01*
X4800857Y-12703667D01*
X4810381Y-12665571D01*
X4819905Y-12646524D01*
X4829429Y-12637000D01*
X4848476Y-12627476D01*
X5000857Y-12808428D02*
X5010381Y-12817952D01*
X5000857Y-12827476D01*
X4991333Y-12817952D01*
X5000857Y-12808428D01*
X5000857Y-12827476D01*
X5134190Y-12627476D02*
X5153238Y-12627476D01*
X5172286Y-12637000D01*
X5181810Y-12646524D01*
X5191333Y-12665571D01*
X5200857Y-12703667D01*
X5200857Y-12751286D01*
X5191333Y-12789381D01*
X5181810Y-12808428D01*
X5172286Y-12817952D01*
X5153238Y-12827476D01*
X5134190Y-12827476D01*
X5115143Y-12817952D01*
X5105619Y-12808428D01*
X5096095Y-12789381D01*
X5086571Y-12751286D01*
X5086571Y-12703667D01*
X5096095Y-12665571D01*
X5105619Y-12646524D01*
X5115143Y-12637000D01*
X5134190Y-12627476D01*
X5277048Y-12646524D02*
X5286571Y-12637000D01*
X5305619Y-12627476D01*
X5353238Y-12627476D01*
X5372286Y-12637000D01*
X5381810Y-12646524D01*
X5391333Y-12665571D01*
X5391333Y-12684619D01*
X5381810Y-12713190D01*
X5267524Y-12827476D01*
X5391333Y-12827476D01*
X5572286Y-12627476D02*
X5477048Y-12627476D01*
X5467524Y-12722714D01*
X5477048Y-12713190D01*
X5496095Y-12703667D01*
X5543714Y-12703667D01*
X5562762Y-12713190D01*
X5572286Y-12722714D01*
X5581810Y-12741762D01*
X5581810Y-12789381D01*
X5572286Y-12808428D01*
X5562762Y-12817952D01*
X5543714Y-12827476D01*
X5496095Y-12827476D01*
X5477048Y-12817952D01*
X5467524Y-12808428D01*
X5753238Y-12627476D02*
X5715143Y-12627476D01*
X5696095Y-12637000D01*
X5686571Y-12646524D01*
X5667524Y-12675095D01*
X5658000Y-12713190D01*
X5658000Y-12789381D01*
X5667524Y-12808428D01*
X5677048Y-12817952D01*
X5696095Y-12827476D01*
X5734190Y-12827476D01*
X5753238Y-12817952D01*
X5762762Y-12808428D01*
X5772286Y-12789381D01*
X5772286Y-12741762D01*
X5762762Y-12722714D01*
X5753238Y-12713190D01*
X5734190Y-12703667D01*
X5696095Y-12703667D01*
X5677048Y-12713190D01*
X5667524Y-12722714D01*
X5658000Y-12741762D01*
X5848476Y-12627476D02*
X5848476Y-12665571D01*
X5924667Y-12627476D02*
X5924667Y-12665571D01*
X6219905Y-12903667D02*
X6210381Y-12894143D01*
X6191333Y-12865571D01*
X6181809Y-12846524D01*
X6172286Y-12817952D01*
X6162762Y-12770333D01*
X6162762Y-12732238D01*
X6172286Y-12684619D01*
X6181809Y-12656048D01*
X6191333Y-12637000D01*
X6210381Y-12608428D01*
X6219905Y-12598905D01*
X6286571Y-12646524D02*
X6296095Y-12637000D01*
X6315143Y-12627476D01*
X6362762Y-12627476D01*
X6381809Y-12637000D01*
X6391333Y-12646524D01*
X6400857Y-12665571D01*
X6400857Y-12684619D01*
X6391333Y-12713190D01*
X6277048Y-12827476D01*
X6400857Y-12827476D01*
X6638952Y-12827476D02*
X6638952Y-12627476D01*
X6724667Y-12827476D02*
X6724667Y-12722714D01*
X6715143Y-12703667D01*
X6696095Y-12694143D01*
X6667524Y-12694143D01*
X6648476Y-12703667D01*
X6638952Y-12713190D01*
X6848476Y-12827476D02*
X6829428Y-12817952D01*
X6819905Y-12808428D01*
X6810381Y-12789381D01*
X6810381Y-12732238D01*
X6819905Y-12713190D01*
X6829428Y-12703667D01*
X6848476Y-12694143D01*
X6877048Y-12694143D01*
X6896095Y-12703667D01*
X6905619Y-12713190D01*
X6915143Y-12732238D01*
X6915143Y-12789381D01*
X6905619Y-12808428D01*
X6896095Y-12817952D01*
X6877048Y-12827476D01*
X6848476Y-12827476D01*
X7029428Y-12827476D02*
X7010381Y-12817952D01*
X7000857Y-12798905D01*
X7000857Y-12627476D01*
X7181809Y-12817952D02*
X7162762Y-12827476D01*
X7124667Y-12827476D01*
X7105619Y-12817952D01*
X7096095Y-12798905D01*
X7096095Y-12722714D01*
X7105619Y-12703667D01*
X7124667Y-12694143D01*
X7162762Y-12694143D01*
X7181809Y-12703667D01*
X7191333Y-12722714D01*
X7191333Y-12741762D01*
X7096095Y-12760809D01*
X7267524Y-12817952D02*
X7286571Y-12827476D01*
X7324667Y-12827476D01*
X7343714Y-12817952D01*
X7353238Y-12798905D01*
X7353238Y-12789381D01*
X7343714Y-12770333D01*
X7324667Y-12760809D01*
X7296095Y-12760809D01*
X7277048Y-12751286D01*
X7267524Y-12732238D01*
X7267524Y-12722714D01*
X7277048Y-12703667D01*
X7296095Y-12694143D01*
X7324667Y-12694143D01*
X7343714Y-12703667D01*
X7419905Y-12903667D02*
X7429428Y-12894143D01*
X7448476Y-12865571D01*
X7458000Y-12846524D01*
X7467524Y-12817952D01*
X7477048Y-12770333D01*
X7477048Y-12732238D01*
X7467524Y-12684619D01*
X7458000Y-12656048D01*
X7448476Y-12637000D01*
X7429428Y-12608428D01*
X7419905Y-12598905D01*
X7781809Y-12903667D02*
X7772286Y-12894143D01*
X7753238Y-12865571D01*
X7743714Y-12846524D01*
X7734190Y-12817952D01*
X7724667Y-12770333D01*
X7724667Y-12732238D01*
X7734190Y-12684619D01*
X7743714Y-12656048D01*
X7753238Y-12637000D01*
X7772286Y-12608428D01*
X7781809Y-12598905D01*
X7858000Y-12694143D02*
X7858000Y-12827476D01*
X7858000Y-12713190D02*
X7867524Y-12703667D01*
X7886571Y-12694143D01*
X7915143Y-12694143D01*
X7934190Y-12703667D01*
X7943714Y-12722714D01*
X7943714Y-12827476D01*
X8067524Y-12827476D02*
X8048476Y-12817952D01*
X8038952Y-12808428D01*
X8029428Y-12789381D01*
X8029428Y-12732238D01*
X8038952Y-12713190D01*
X8048476Y-12703667D01*
X8067524Y-12694143D01*
X8096095Y-12694143D01*
X8115143Y-12703667D01*
X8124667Y-12713190D01*
X8134190Y-12732238D01*
X8134190Y-12789381D01*
X8124667Y-12808428D01*
X8115143Y-12817952D01*
X8096095Y-12827476D01*
X8067524Y-12827476D01*
X8191333Y-12694143D02*
X8267524Y-12694143D01*
X8219905Y-12627476D02*
X8219905Y-12798905D01*
X8229428Y-12817952D01*
X8248476Y-12827476D01*
X8267524Y-12827476D01*
X8486571Y-12694143D02*
X8486571Y-12894143D01*
X8486571Y-12703667D02*
X8505619Y-12694143D01*
X8543714Y-12694143D01*
X8562762Y-12703667D01*
X8572286Y-12713190D01*
X8581810Y-12732238D01*
X8581810Y-12789381D01*
X8572286Y-12808428D01*
X8562762Y-12817952D01*
X8543714Y-12827476D01*
X8505619Y-12827476D01*
X8486571Y-12817952D01*
X8696095Y-12827476D02*
X8677048Y-12817952D01*
X8667524Y-12798905D01*
X8667524Y-12627476D01*
X8858000Y-12827476D02*
X8858000Y-12722714D01*
X8848476Y-12703667D01*
X8829429Y-12694143D01*
X8791333Y-12694143D01*
X8772286Y-12703667D01*
X8858000Y-12817952D02*
X8838952Y-12827476D01*
X8791333Y-12827476D01*
X8772286Y-12817952D01*
X8762762Y-12798905D01*
X8762762Y-12779857D01*
X8772286Y-12760809D01*
X8791333Y-12751286D01*
X8838952Y-12751286D01*
X8858000Y-12741762D01*
X8924667Y-12694143D02*
X9000857Y-12694143D01*
X8953238Y-12627476D02*
X8953238Y-12798905D01*
X8962762Y-12817952D01*
X8981810Y-12827476D01*
X9000857Y-12827476D01*
X9143714Y-12817952D02*
X9124667Y-12827476D01*
X9086571Y-12827476D01*
X9067524Y-12817952D01*
X9058000Y-12798905D01*
X9058000Y-12722714D01*
X9067524Y-12703667D01*
X9086571Y-12694143D01*
X9124667Y-12694143D01*
X9143714Y-12703667D01*
X9153238Y-12722714D01*
X9153238Y-12741762D01*
X9058000Y-12760809D01*
X9324667Y-12827476D02*
X9324667Y-12627476D01*
X9324667Y-12817952D02*
X9305619Y-12827476D01*
X9267524Y-12827476D01*
X9248476Y-12817952D01*
X9238952Y-12808428D01*
X9229429Y-12789381D01*
X9229429Y-12732238D01*
X9238952Y-12713190D01*
X9248476Y-12703667D01*
X9267524Y-12694143D01*
X9305619Y-12694143D01*
X9324667Y-12703667D01*
X9400857Y-12903667D02*
X9410381Y-12894143D01*
X9429429Y-12865571D01*
X9438952Y-12846524D01*
X9448476Y-12817952D01*
X9458000Y-12770333D01*
X9458000Y-12732238D01*
X9448476Y-12684619D01*
X9438952Y-12656048D01*
X9429429Y-12637000D01*
X9410381Y-12608428D01*
X9400857Y-12598905D01*
D19*
X2558000Y-12956000D02*
X2648000Y-13046000D01*
X2648000Y-12956000D02*
X2558000Y-13046000D01*
X2603000Y-13046000D02*
X2648000Y-13001000D01*
X2603000Y-12956000D01*
X2558000Y-13001000D01*
X2603000Y-13046000D01*
D11*
X2943714Y-12891476D02*
X2962762Y-12891476D01*
X2981809Y-12901000D01*
X2991333Y-12910524D01*
X3000857Y-12929571D01*
X3010381Y-12967667D01*
X3010381Y-13015286D01*
X3000857Y-13053381D01*
X2991333Y-13072428D01*
X2981809Y-13081952D01*
X2962762Y-13091476D01*
X2943714Y-13091476D01*
X2924667Y-13081952D01*
X2915143Y-13072428D01*
X2905619Y-13053381D01*
X2896095Y-13015286D01*
X2896095Y-12967667D01*
X2905619Y-12929571D01*
X2915143Y-12910524D01*
X2924667Y-12901000D01*
X2943714Y-12891476D01*
X3096095Y-13072428D02*
X3105619Y-13081952D01*
X3096095Y-13091476D01*
X3086571Y-13081952D01*
X3096095Y-13072428D01*
X3096095Y-13091476D01*
X3200857Y-13091476D02*
X3238952Y-13091476D01*
X3258000Y-13081952D01*
X3267524Y-13072428D01*
X3286571Y-13043857D01*
X3296095Y-13005762D01*
X3296095Y-12929571D01*
X3286571Y-12910524D01*
X3277048Y-12901000D01*
X3258000Y-12891476D01*
X3219905Y-12891476D01*
X3200857Y-12901000D01*
X3191333Y-12910524D01*
X3181809Y-12929571D01*
X3181809Y-12977190D01*
X3191333Y-12996238D01*
X3200857Y-13005762D01*
X3219905Y-13015286D01*
X3258000Y-13015286D01*
X3277048Y-13005762D01*
X3286571Y-12996238D01*
X3296095Y-12977190D01*
X3419905Y-12891476D02*
X3438952Y-12891476D01*
X3458000Y-12901000D01*
X3467524Y-12910524D01*
X3477048Y-12929571D01*
X3486571Y-12967667D01*
X3486571Y-13015286D01*
X3477048Y-13053381D01*
X3467524Y-13072428D01*
X3458000Y-13081952D01*
X3438952Y-13091476D01*
X3419905Y-13091476D01*
X3400857Y-13081952D01*
X3391333Y-13072428D01*
X3381809Y-13053381D01*
X3372286Y-13015286D01*
X3372286Y-12967667D01*
X3381809Y-12929571D01*
X3391333Y-12910524D01*
X3400857Y-12901000D01*
X3419905Y-12891476D01*
X3610381Y-12891476D02*
X3629428Y-12891476D01*
X3648476Y-12901000D01*
X3658000Y-12910524D01*
X3667524Y-12929571D01*
X3677048Y-12967667D01*
X3677048Y-13015286D01*
X3667524Y-13053381D01*
X3658000Y-13072428D01*
X3648476Y-13081952D01*
X3629428Y-13091476D01*
X3610381Y-13091476D01*
X3591333Y-13081952D01*
X3581809Y-13072428D01*
X3572286Y-13053381D01*
X3562762Y-13015286D01*
X3562762Y-12967667D01*
X3572286Y-12929571D01*
X3581809Y-12910524D01*
X3591333Y-12901000D01*
X3610381Y-12891476D01*
X3762762Y-13091476D02*
X3762762Y-12958143D01*
X3762762Y-12977190D02*
X3772286Y-12967667D01*
X3791333Y-12958143D01*
X3819905Y-12958143D01*
X3838952Y-12967667D01*
X3848476Y-12986714D01*
X3848476Y-13091476D01*
X3848476Y-12986714D02*
X3858000Y-12967667D01*
X3877048Y-12958143D01*
X3905619Y-12958143D01*
X3924667Y-12967667D01*
X3934190Y-12986714D01*
X3934190Y-13091476D01*
X4029428Y-13091476D02*
X4029428Y-12958143D01*
X4029428Y-12977190D02*
X4038952Y-12967667D01*
X4058000Y-12958143D01*
X4086571Y-12958143D01*
X4105619Y-12967667D01*
X4115143Y-12986714D01*
X4115143Y-13091476D01*
X4115143Y-12986714D02*
X4124667Y-12967667D01*
X4143714Y-12958143D01*
X4172286Y-12958143D01*
X4191333Y-12967667D01*
X4200857Y-12986714D01*
X4200857Y-13091476D01*
X4591333Y-12881952D02*
X4419905Y-13139095D01*
X4848476Y-12891476D02*
X4867524Y-12891476D01*
X4886571Y-12901000D01*
X4896095Y-12910524D01*
X4905619Y-12929571D01*
X4915143Y-12967667D01*
X4915143Y-13015286D01*
X4905619Y-13053381D01*
X4896095Y-13072428D01*
X4886571Y-13081952D01*
X4867524Y-13091476D01*
X4848476Y-13091476D01*
X4829429Y-13081952D01*
X4819905Y-13072428D01*
X4810381Y-13053381D01*
X4800857Y-13015286D01*
X4800857Y-12967667D01*
X4810381Y-12929571D01*
X4819905Y-12910524D01*
X4829429Y-12901000D01*
X4848476Y-12891476D01*
X5000857Y-13072428D02*
X5010381Y-13081952D01*
X5000857Y-13091476D01*
X4991333Y-13081952D01*
X5000857Y-13072428D01*
X5000857Y-13091476D01*
X5134190Y-12891476D02*
X5153238Y-12891476D01*
X5172286Y-12901000D01*
X5181810Y-12910524D01*
X5191333Y-12929571D01*
X5200857Y-12967667D01*
X5200857Y-13015286D01*
X5191333Y-13053381D01*
X5181810Y-13072428D01*
X5172286Y-13081952D01*
X5153238Y-13091476D01*
X5134190Y-13091476D01*
X5115143Y-13081952D01*
X5105619Y-13072428D01*
X5096095Y-13053381D01*
X5086571Y-13015286D01*
X5086571Y-12967667D01*
X5096095Y-12929571D01*
X5105619Y-12910524D01*
X5115143Y-12901000D01*
X5134190Y-12891476D01*
X5267524Y-12891476D02*
X5391333Y-12891476D01*
X5324667Y-12967667D01*
X5353238Y-12967667D01*
X5372286Y-12977190D01*
X5381810Y-12986714D01*
X5391333Y-13005762D01*
X5391333Y-13053381D01*
X5381810Y-13072428D01*
X5372286Y-13081952D01*
X5353238Y-13091476D01*
X5296095Y-13091476D01*
X5277048Y-13081952D01*
X5267524Y-13072428D01*
X5572286Y-12891476D02*
X5477048Y-12891476D01*
X5467524Y-12986714D01*
X5477048Y-12977190D01*
X5496095Y-12967667D01*
X5543714Y-12967667D01*
X5562762Y-12977190D01*
X5572286Y-12986714D01*
X5581810Y-13005762D01*
X5581810Y-13053381D01*
X5572286Y-13072428D01*
X5562762Y-13081952D01*
X5543714Y-13091476D01*
X5496095Y-13091476D01*
X5477048Y-13081952D01*
X5467524Y-13072428D01*
X5753238Y-12958143D02*
X5753238Y-13091476D01*
X5705619Y-12881952D02*
X5658000Y-13024809D01*
X5781809Y-13024809D01*
X5848476Y-12891476D02*
X5848476Y-12929571D01*
X5924667Y-12891476D02*
X5924667Y-12929571D01*
X6219905Y-13167667D02*
X6210381Y-13158143D01*
X6191333Y-13129571D01*
X6181809Y-13110524D01*
X6172286Y-13081952D01*
X6162762Y-13034333D01*
X6162762Y-12996238D01*
X6172286Y-12948619D01*
X6181809Y-12920048D01*
X6191333Y-12901000D01*
X6210381Y-12872428D01*
X6219905Y-12862905D01*
X6286571Y-12910524D02*
X6296095Y-12901000D01*
X6315143Y-12891476D01*
X6362762Y-12891476D01*
X6381809Y-12901000D01*
X6391333Y-12910524D01*
X6400857Y-12929571D01*
X6400857Y-12948619D01*
X6391333Y-12977190D01*
X6277048Y-13091476D01*
X6400857Y-13091476D01*
X6638952Y-13091476D02*
X6638952Y-12891476D01*
X6724667Y-13091476D02*
X6724667Y-12986714D01*
X6715143Y-12967667D01*
X6696095Y-12958143D01*
X6667524Y-12958143D01*
X6648476Y-12967667D01*
X6638952Y-12977190D01*
X6848476Y-13091476D02*
X6829428Y-13081952D01*
X6819905Y-13072428D01*
X6810381Y-13053381D01*
X6810381Y-12996238D01*
X6819905Y-12977190D01*
X6829428Y-12967667D01*
X6848476Y-12958143D01*
X6877048Y-12958143D01*
X6896095Y-12967667D01*
X6905619Y-12977190D01*
X6915143Y-12996238D01*
X6915143Y-13053381D01*
X6905619Y-13072428D01*
X6896095Y-13081952D01*
X6877048Y-13091476D01*
X6848476Y-13091476D01*
X7029428Y-13091476D02*
X7010381Y-13081952D01*
X7000857Y-13062905D01*
X7000857Y-12891476D01*
X7181809Y-13081952D02*
X7162762Y-13091476D01*
X7124667Y-13091476D01*
X7105619Y-13081952D01*
X7096095Y-13062905D01*
X7096095Y-12986714D01*
X7105619Y-12967667D01*
X7124667Y-12958143D01*
X7162762Y-12958143D01*
X7181809Y-12967667D01*
X7191333Y-12986714D01*
X7191333Y-13005762D01*
X7096095Y-13024809D01*
X7267524Y-13081952D02*
X7286571Y-13091476D01*
X7324667Y-13091476D01*
X7343714Y-13081952D01*
X7353238Y-13062905D01*
X7353238Y-13053381D01*
X7343714Y-13034333D01*
X7324667Y-13024809D01*
X7296095Y-13024809D01*
X7277048Y-13015286D01*
X7267524Y-12996238D01*
X7267524Y-12986714D01*
X7277048Y-12967667D01*
X7296095Y-12958143D01*
X7324667Y-12958143D01*
X7343714Y-12967667D01*
X7419905Y-13167667D02*
X7429428Y-13158143D01*
X7448476Y-13129571D01*
X7458000Y-13110524D01*
X7467524Y-13081952D01*
X7477048Y-13034333D01*
X7477048Y-12996238D01*
X7467524Y-12948619D01*
X7458000Y-12920048D01*
X7448476Y-12901000D01*
X7429428Y-12872428D01*
X7419905Y-12862905D01*
X7781809Y-13167667D02*
X7772286Y-13158143D01*
X7753238Y-13129571D01*
X7743714Y-13110524D01*
X7734190Y-13081952D01*
X7724667Y-13034333D01*
X7724667Y-12996238D01*
X7734190Y-12948619D01*
X7743714Y-12920048D01*
X7753238Y-12901000D01*
X7772286Y-12872428D01*
X7781809Y-12862905D01*
X7858000Y-12958143D02*
X7858000Y-13091476D01*
X7858000Y-12977190D02*
X7867524Y-12967667D01*
X7886571Y-12958143D01*
X7915143Y-12958143D01*
X7934190Y-12967667D01*
X7943714Y-12986714D01*
X7943714Y-13091476D01*
X8067524Y-13091476D02*
X8048476Y-13081952D01*
X8038952Y-13072428D01*
X8029428Y-13053381D01*
X8029428Y-12996238D01*
X8038952Y-12977190D01*
X8048476Y-12967667D01*
X8067524Y-12958143D01*
X8096095Y-12958143D01*
X8115143Y-12967667D01*
X8124667Y-12977190D01*
X8134190Y-12996238D01*
X8134190Y-13053381D01*
X8124667Y-13072428D01*
X8115143Y-13081952D01*
X8096095Y-13091476D01*
X8067524Y-13091476D01*
X8191333Y-12958143D02*
X8267524Y-12958143D01*
X8219905Y-12891476D02*
X8219905Y-13062905D01*
X8229428Y-13081952D01*
X8248476Y-13091476D01*
X8267524Y-13091476D01*
X8486571Y-12958143D02*
X8486571Y-13158143D01*
X8486571Y-12967667D02*
X8505619Y-12958143D01*
X8543714Y-12958143D01*
X8562762Y-12967667D01*
X8572286Y-12977190D01*
X8581810Y-12996238D01*
X8581810Y-13053381D01*
X8572286Y-13072428D01*
X8562762Y-13081952D01*
X8543714Y-13091476D01*
X8505619Y-13091476D01*
X8486571Y-13081952D01*
X8696095Y-13091476D02*
X8677048Y-13081952D01*
X8667524Y-13062905D01*
X8667524Y-12891476D01*
X8858000Y-13091476D02*
X8858000Y-12986714D01*
X8848476Y-12967667D01*
X8829429Y-12958143D01*
X8791333Y-12958143D01*
X8772286Y-12967667D01*
X8858000Y-13081952D02*
X8838952Y-13091476D01*
X8791333Y-13091476D01*
X8772286Y-13081952D01*
X8762762Y-13062905D01*
X8762762Y-13043857D01*
X8772286Y-13024809D01*
X8791333Y-13015286D01*
X8838952Y-13015286D01*
X8858000Y-13005762D01*
X8924667Y-12958143D02*
X9000857Y-12958143D01*
X8953238Y-12891476D02*
X8953238Y-13062905D01*
X8962762Y-13081952D01*
X8981810Y-13091476D01*
X9000857Y-13091476D01*
X9143714Y-13081952D02*
X9124667Y-13091476D01*
X9086571Y-13091476D01*
X9067524Y-13081952D01*
X9058000Y-13062905D01*
X9058000Y-12986714D01*
X9067524Y-12967667D01*
X9086571Y-12958143D01*
X9124667Y-12958143D01*
X9143714Y-12967667D01*
X9153238Y-12986714D01*
X9153238Y-13005762D01*
X9058000Y-13024809D01*
X9324667Y-13091476D02*
X9324667Y-12891476D01*
X9324667Y-13081952D02*
X9305619Y-13091476D01*
X9267524Y-13091476D01*
X9248476Y-13081952D01*
X9238952Y-13072428D01*
X9229429Y-13053381D01*
X9229429Y-12996238D01*
X9238952Y-12977190D01*
X9248476Y-12967667D01*
X9267524Y-12958143D01*
X9305619Y-12958143D01*
X9324667Y-12967667D01*
X9400857Y-13167667D02*
X9410381Y-13158143D01*
X9429429Y-13129571D01*
X9438952Y-13110524D01*
X9448476Y-13081952D01*
X9458000Y-13034333D01*
X9458000Y-12996238D01*
X9448476Y-12948619D01*
X9438952Y-12920048D01*
X9429429Y-12901000D01*
X9410381Y-12872428D01*
X9400857Y-12862905D01*
D20*
X2563000Y-13180000D02*
X2563000Y-13350000D01*
X2478000Y-13265000D02*
X2648000Y-13265000D01*
X2648000Y-13265000D02*
G75*
G03*
X2648000Y-13265000I-85000J0D01*
G01*
D11*
X3010381Y-13355476D02*
X2896095Y-13355476D01*
X2953238Y-13355476D02*
X2953238Y-13155476D01*
X2934190Y-13184048D01*
X2915143Y-13203095D01*
X2896095Y-13212619D01*
X3096095Y-13336428D02*
X3105619Y-13345952D01*
X3096095Y-13355476D01*
X3086571Y-13345952D01*
X3096095Y-13336428D01*
X3096095Y-13355476D01*
X3172286Y-13155476D02*
X3305619Y-13155476D01*
X3219905Y-13355476D01*
X3419905Y-13155476D02*
X3438952Y-13155476D01*
X3458000Y-13165000D01*
X3467524Y-13174524D01*
X3477048Y-13193571D01*
X3486571Y-13231667D01*
X3486571Y-13279286D01*
X3477048Y-13317381D01*
X3467524Y-13336428D01*
X3458000Y-13345952D01*
X3438952Y-13355476D01*
X3419905Y-13355476D01*
X3400857Y-13345952D01*
X3391333Y-13336428D01*
X3381809Y-13317381D01*
X3372286Y-13279286D01*
X3372286Y-13231667D01*
X3381809Y-13193571D01*
X3391333Y-13174524D01*
X3400857Y-13165000D01*
X3419905Y-13155476D01*
X3610381Y-13155476D02*
X3629428Y-13155476D01*
X3648476Y-13165000D01*
X3658000Y-13174524D01*
X3667524Y-13193571D01*
X3677048Y-13231667D01*
X3677048Y-13279286D01*
X3667524Y-13317381D01*
X3658000Y-13336428D01*
X3648476Y-13345952D01*
X3629428Y-13355476D01*
X3610381Y-13355476D01*
X3591333Y-13345952D01*
X3581809Y-13336428D01*
X3572286Y-13317381D01*
X3562762Y-13279286D01*
X3562762Y-13231667D01*
X3572286Y-13193571D01*
X3581809Y-13174524D01*
X3591333Y-13165000D01*
X3610381Y-13155476D01*
X3762762Y-13355476D02*
X3762762Y-13222143D01*
X3762762Y-13241190D02*
X3772286Y-13231667D01*
X3791333Y-13222143D01*
X3819905Y-13222143D01*
X3838952Y-13231667D01*
X3848476Y-13250714D01*
X3848476Y-13355476D01*
X3848476Y-13250714D02*
X3858000Y-13231667D01*
X3877048Y-13222143D01*
X3905619Y-13222143D01*
X3924667Y-13231667D01*
X3934190Y-13250714D01*
X3934190Y-13355476D01*
X4029428Y-13355476D02*
X4029428Y-13222143D01*
X4029428Y-13241190D02*
X4038952Y-13231667D01*
X4058000Y-13222143D01*
X4086571Y-13222143D01*
X4105619Y-13231667D01*
X4115143Y-13250714D01*
X4115143Y-13355476D01*
X4115143Y-13250714D02*
X4124667Y-13231667D01*
X4143714Y-13222143D01*
X4172286Y-13222143D01*
X4191333Y-13231667D01*
X4200857Y-13250714D01*
X4200857Y-13355476D01*
X4591333Y-13145952D02*
X4419905Y-13403095D01*
X4848476Y-13155476D02*
X4867524Y-13155476D01*
X4886571Y-13165000D01*
X4896095Y-13174524D01*
X4905619Y-13193571D01*
X4915143Y-13231667D01*
X4915143Y-13279286D01*
X4905619Y-13317381D01*
X4896095Y-13336428D01*
X4886571Y-13345952D01*
X4867524Y-13355476D01*
X4848476Y-13355476D01*
X4829429Y-13345952D01*
X4819905Y-13336428D01*
X4810381Y-13317381D01*
X4800857Y-13279286D01*
X4800857Y-13231667D01*
X4810381Y-13193571D01*
X4819905Y-13174524D01*
X4829429Y-13165000D01*
X4848476Y-13155476D01*
X5000857Y-13336428D02*
X5010381Y-13345952D01*
X5000857Y-13355476D01*
X4991333Y-13345952D01*
X5000857Y-13336428D01*
X5000857Y-13355476D01*
X5134190Y-13155476D02*
X5153238Y-13155476D01*
X5172286Y-13165000D01*
X5181810Y-13174524D01*
X5191333Y-13193571D01*
X5200857Y-13231667D01*
X5200857Y-13279286D01*
X5191333Y-13317381D01*
X5181810Y-13336428D01*
X5172286Y-13345952D01*
X5153238Y-13355476D01*
X5134190Y-13355476D01*
X5115143Y-13345952D01*
X5105619Y-13336428D01*
X5096095Y-13317381D01*
X5086571Y-13279286D01*
X5086571Y-13231667D01*
X5096095Y-13193571D01*
X5105619Y-13174524D01*
X5115143Y-13165000D01*
X5134190Y-13155476D01*
X5372286Y-13155476D02*
X5334190Y-13155476D01*
X5315143Y-13165000D01*
X5305619Y-13174524D01*
X5286571Y-13203095D01*
X5277048Y-13241190D01*
X5277048Y-13317381D01*
X5286571Y-13336428D01*
X5296095Y-13345952D01*
X5315143Y-13355476D01*
X5353238Y-13355476D01*
X5372286Y-13345952D01*
X5381810Y-13336428D01*
X5391333Y-13317381D01*
X5391333Y-13269762D01*
X5381810Y-13250714D01*
X5372286Y-13241190D01*
X5353238Y-13231667D01*
X5315143Y-13231667D01*
X5296095Y-13241190D01*
X5286571Y-13250714D01*
X5277048Y-13269762D01*
X5562762Y-13155476D02*
X5524667Y-13155476D01*
X5505619Y-13165000D01*
X5496095Y-13174524D01*
X5477048Y-13203095D01*
X5467524Y-13241190D01*
X5467524Y-13317381D01*
X5477048Y-13336428D01*
X5486571Y-13345952D01*
X5505619Y-13355476D01*
X5543714Y-13355476D01*
X5562762Y-13345952D01*
X5572286Y-13336428D01*
X5581810Y-13317381D01*
X5581810Y-13269762D01*
X5572286Y-13250714D01*
X5562762Y-13241190D01*
X5543714Y-13231667D01*
X5505619Y-13231667D01*
X5486571Y-13241190D01*
X5477048Y-13250714D01*
X5467524Y-13269762D01*
X5677048Y-13355476D02*
X5715143Y-13355476D01*
X5734190Y-13345952D01*
X5743714Y-13336428D01*
X5762762Y-13307857D01*
X5772286Y-13269762D01*
X5772286Y-13193571D01*
X5762762Y-13174524D01*
X5753238Y-13165000D01*
X5734190Y-13155476D01*
X5696095Y-13155476D01*
X5677048Y-13165000D01*
X5667524Y-13174524D01*
X5658000Y-13193571D01*
X5658000Y-13241190D01*
X5667524Y-13260238D01*
X5677048Y-13269762D01*
X5696095Y-13279286D01*
X5734190Y-13279286D01*
X5753238Y-13269762D01*
X5762762Y-13260238D01*
X5772286Y-13241190D01*
X5848476Y-13155476D02*
X5848476Y-13193571D01*
X5924667Y-13155476D02*
X5924667Y-13193571D01*
X6219905Y-13431667D02*
X6210381Y-13422143D01*
X6191333Y-13393571D01*
X6181809Y-13374524D01*
X6172286Y-13345952D01*
X6162762Y-13298333D01*
X6162762Y-13260238D01*
X6172286Y-13212619D01*
X6181809Y-13184048D01*
X6191333Y-13165000D01*
X6210381Y-13136428D01*
X6219905Y-13126905D01*
X6400857Y-13355476D02*
X6286571Y-13355476D01*
X6343714Y-13355476D02*
X6343714Y-13155476D01*
X6324667Y-13184048D01*
X6305619Y-13203095D01*
X6286571Y-13212619D01*
X6572286Y-13155476D02*
X6534190Y-13155476D01*
X6515143Y-13165000D01*
X6505619Y-13174524D01*
X6486571Y-13203095D01*
X6477048Y-13241190D01*
X6477048Y-13317381D01*
X6486571Y-13336428D01*
X6496095Y-13345952D01*
X6515143Y-13355476D01*
X6553238Y-13355476D01*
X6572286Y-13345952D01*
X6581809Y-13336428D01*
X6591333Y-13317381D01*
X6591333Y-13269762D01*
X6581809Y-13250714D01*
X6572286Y-13241190D01*
X6553238Y-13231667D01*
X6515143Y-13231667D01*
X6496095Y-13241190D01*
X6486571Y-13250714D01*
X6477048Y-13269762D01*
X6829428Y-13355476D02*
X6829428Y-13155476D01*
X6915143Y-13355476D02*
X6915143Y-13250714D01*
X6905619Y-13231667D01*
X6886571Y-13222143D01*
X6858000Y-13222143D01*
X6838952Y-13231667D01*
X6829428Y-13241190D01*
X7038952Y-13355476D02*
X7019905Y-13345952D01*
X7010381Y-13336428D01*
X7000857Y-13317381D01*
X7000857Y-13260238D01*
X7010381Y-13241190D01*
X7019905Y-13231667D01*
X7038952Y-13222143D01*
X7067524Y-13222143D01*
X7086571Y-13231667D01*
X7096095Y-13241190D01*
X7105619Y-13260238D01*
X7105619Y-13317381D01*
X7096095Y-13336428D01*
X7086571Y-13345952D01*
X7067524Y-13355476D01*
X7038952Y-13355476D01*
X7219905Y-13355476D02*
X7200857Y-13345952D01*
X7191333Y-13326905D01*
X7191333Y-13155476D01*
X7372286Y-13345952D02*
X7353238Y-13355476D01*
X7315143Y-13355476D01*
X7296095Y-13345952D01*
X7286571Y-13326905D01*
X7286571Y-13250714D01*
X7296095Y-13231667D01*
X7315143Y-13222143D01*
X7353238Y-13222143D01*
X7372286Y-13231667D01*
X7381809Y-13250714D01*
X7381809Y-13269762D01*
X7286571Y-13288809D01*
X7458000Y-13345952D02*
X7477048Y-13355476D01*
X7515143Y-13355476D01*
X7534190Y-13345952D01*
X7543714Y-13326905D01*
X7543714Y-13317381D01*
X7534190Y-13298333D01*
X7515143Y-13288809D01*
X7486571Y-13288809D01*
X7467524Y-13279286D01*
X7458000Y-13260238D01*
X7458000Y-13250714D01*
X7467524Y-13231667D01*
X7486571Y-13222143D01*
X7515143Y-13222143D01*
X7534190Y-13231667D01*
X7610381Y-13431667D02*
X7619905Y-13422143D01*
X7638952Y-13393571D01*
X7648476Y-13374524D01*
X7658000Y-13345952D01*
X7667524Y-13298333D01*
X7667524Y-13260238D01*
X7658000Y-13212619D01*
X7648476Y-13184048D01*
X7638952Y-13165000D01*
X7619905Y-13136428D01*
X7610381Y-13126905D01*
X7972286Y-13431667D02*
X7962762Y-13422143D01*
X7943714Y-13393571D01*
X7934190Y-13374524D01*
X7924667Y-13345952D01*
X7915143Y-13298333D01*
X7915143Y-13260238D01*
X7924667Y-13212619D01*
X7934190Y-13184048D01*
X7943714Y-13165000D01*
X7962762Y-13136428D01*
X7972286Y-13126905D01*
X8048476Y-13222143D02*
X8048476Y-13355476D01*
X8048476Y-13241190D02*
X8058000Y-13231667D01*
X8077048Y-13222143D01*
X8105619Y-13222143D01*
X8124667Y-13231667D01*
X8134190Y-13250714D01*
X8134190Y-13355476D01*
X8258000Y-13355476D02*
X8238952Y-13345952D01*
X8229428Y-13336428D01*
X8219905Y-13317381D01*
X8219905Y-13260238D01*
X8229428Y-13241190D01*
X8238952Y-13231667D01*
X8258000Y-13222143D01*
X8286571Y-13222143D01*
X8305619Y-13231667D01*
X8315143Y-13241190D01*
X8324667Y-13260238D01*
X8324667Y-13317381D01*
X8315143Y-13336428D01*
X8305619Y-13345952D01*
X8286571Y-13355476D01*
X8258000Y-13355476D01*
X8381809Y-13222143D02*
X8458000Y-13222143D01*
X8410381Y-13155476D02*
X8410381Y-13326905D01*
X8419905Y-13345952D01*
X8438952Y-13355476D01*
X8458000Y-13355476D01*
X8677048Y-13222143D02*
X8677048Y-13422143D01*
X8677048Y-13231667D02*
X8696095Y-13222143D01*
X8734190Y-13222143D01*
X8753238Y-13231667D01*
X8762762Y-13241190D01*
X8772286Y-13260238D01*
X8772286Y-13317381D01*
X8762762Y-13336428D01*
X8753238Y-13345952D01*
X8734190Y-13355476D01*
X8696095Y-13355476D01*
X8677048Y-13345952D01*
X8886571Y-13355476D02*
X8867524Y-13345952D01*
X8858000Y-13326905D01*
X8858000Y-13155476D01*
X9048476Y-13355476D02*
X9048476Y-13250714D01*
X9038952Y-13231667D01*
X9019905Y-13222143D01*
X8981810Y-13222143D01*
X8962762Y-13231667D01*
X9048476Y-13345952D02*
X9029429Y-13355476D01*
X8981810Y-13355476D01*
X8962762Y-13345952D01*
X8953238Y-13326905D01*
X8953238Y-13307857D01*
X8962762Y-13288809D01*
X8981810Y-13279286D01*
X9029429Y-13279286D01*
X9048476Y-13269762D01*
X9115143Y-13222143D02*
X9191333Y-13222143D01*
X9143714Y-13155476D02*
X9143714Y-13326905D01*
X9153238Y-13345952D01*
X9172286Y-13355476D01*
X9191333Y-13355476D01*
X9334190Y-13345952D02*
X9315143Y-13355476D01*
X9277048Y-13355476D01*
X9258000Y-13345952D01*
X9248476Y-13326905D01*
X9248476Y-13250714D01*
X9258000Y-13231667D01*
X9277048Y-13222143D01*
X9315143Y-13222143D01*
X9334190Y-13231667D01*
X9343714Y-13250714D01*
X9343714Y-13269762D01*
X9248476Y-13288809D01*
X9515143Y-13355476D02*
X9515143Y-13155476D01*
X9515143Y-13345952D02*
X9496095Y-13355476D01*
X9458000Y-13355476D01*
X9438952Y-13345952D01*
X9429429Y-13336428D01*
X9419905Y-13317381D01*
X9419905Y-13260238D01*
X9429429Y-13241190D01*
X9438952Y-13231667D01*
X9458000Y-13222143D01*
X9496095Y-13222143D01*
X9515143Y-13231667D01*
X9591333Y-13431667D02*
X9600857Y-13422143D01*
X9619905Y-13393571D01*
X9629429Y-13374524D01*
X9638952Y-13345952D01*
X9648476Y-13298333D01*
X9648476Y-13260238D01*
X9638952Y-13212619D01*
X9629429Y-13184048D01*
X9619905Y-13165000D01*
X9600857Y-13136428D01*
X9591333Y-13126905D01*
X2618711Y-13625711D02*
X2618711Y-13484289D01*
X2477289Y-13484289D01*
X2477289Y-13625711D01*
X2618711Y-13625711D01*
X2648000Y-13555000D02*
G75*
G03*
X2648000Y-13555000I-100000J0D01*
G01*
X2991333Y-13512143D02*
X2991333Y-13645476D01*
X2943714Y-13435952D02*
X2896095Y-13578809D01*
X3019905Y-13578809D01*
X3096095Y-13626428D02*
X3105619Y-13635952D01*
X3096095Y-13645476D01*
X3086571Y-13635952D01*
X3096095Y-13626428D01*
X3096095Y-13645476D01*
X3229428Y-13445476D02*
X3248476Y-13445476D01*
X3267524Y-13455000D01*
X3277048Y-13464524D01*
X3286571Y-13483571D01*
X3296095Y-13521667D01*
X3296095Y-13569286D01*
X3286571Y-13607381D01*
X3277048Y-13626428D01*
X3267524Y-13635952D01*
X3248476Y-13645476D01*
X3229428Y-13645476D01*
X3210381Y-13635952D01*
X3200857Y-13626428D01*
X3191333Y-13607381D01*
X3181809Y-13569286D01*
X3181809Y-13521667D01*
X3191333Y-13483571D01*
X3200857Y-13464524D01*
X3210381Y-13455000D01*
X3229428Y-13445476D01*
X3419905Y-13445476D02*
X3438952Y-13445476D01*
X3458000Y-13455000D01*
X3467524Y-13464524D01*
X3477048Y-13483571D01*
X3486571Y-13521667D01*
X3486571Y-13569286D01*
X3477048Y-13607381D01*
X3467524Y-13626428D01*
X3458000Y-13635952D01*
X3438952Y-13645476D01*
X3419905Y-13645476D01*
X3400857Y-13635952D01*
X3391333Y-13626428D01*
X3381809Y-13607381D01*
X3372286Y-13569286D01*
X3372286Y-13521667D01*
X3381809Y-13483571D01*
X3391333Y-13464524D01*
X3400857Y-13455000D01*
X3419905Y-13445476D01*
X3610381Y-13445476D02*
X3629428Y-13445476D01*
X3648476Y-13455000D01*
X3658000Y-13464524D01*
X3667524Y-13483571D01*
X3677048Y-13521667D01*
X3677048Y-13569286D01*
X3667524Y-13607381D01*
X3658000Y-13626428D01*
X3648476Y-13635952D01*
X3629428Y-13645476D01*
X3610381Y-13645476D01*
X3591333Y-13635952D01*
X3581809Y-13626428D01*
X3572286Y-13607381D01*
X3562762Y-13569286D01*
X3562762Y-13521667D01*
X3572286Y-13483571D01*
X3581809Y-13464524D01*
X3591333Y-13455000D01*
X3610381Y-13445476D01*
X3762762Y-13645476D02*
X3762762Y-13512143D01*
X3762762Y-13531190D02*
X3772286Y-13521667D01*
X3791333Y-13512143D01*
X3819905Y-13512143D01*
X3838952Y-13521667D01*
X3848476Y-13540714D01*
X3848476Y-13645476D01*
X3848476Y-13540714D02*
X3858000Y-13521667D01*
X3877048Y-13512143D01*
X3905619Y-13512143D01*
X3924667Y-13521667D01*
X3934190Y-13540714D01*
X3934190Y-13645476D01*
X4029428Y-13645476D02*
X4029428Y-13512143D01*
X4029428Y-13531190D02*
X4038952Y-13521667D01*
X4058000Y-13512143D01*
X4086571Y-13512143D01*
X4105619Y-13521667D01*
X4115143Y-13540714D01*
X4115143Y-13645476D01*
X4115143Y-13540714D02*
X4124667Y-13521667D01*
X4143714Y-13512143D01*
X4172286Y-13512143D01*
X4191333Y-13521667D01*
X4200857Y-13540714D01*
X4200857Y-13645476D01*
X4591333Y-13435952D02*
X4419905Y-13693095D01*
X4848476Y-13445476D02*
X4867524Y-13445476D01*
X4886571Y-13455000D01*
X4896095Y-13464524D01*
X4905619Y-13483571D01*
X4915143Y-13521667D01*
X4915143Y-13569286D01*
X4905619Y-13607381D01*
X4896095Y-13626428D01*
X4886571Y-13635952D01*
X4867524Y-13645476D01*
X4848476Y-13645476D01*
X4829429Y-13635952D01*
X4819905Y-13626428D01*
X4810381Y-13607381D01*
X4800857Y-13569286D01*
X4800857Y-13521667D01*
X4810381Y-13483571D01*
X4819905Y-13464524D01*
X4829429Y-13455000D01*
X4848476Y-13445476D01*
X5000857Y-13626428D02*
X5010381Y-13635952D01*
X5000857Y-13645476D01*
X4991333Y-13635952D01*
X5000857Y-13626428D01*
X5000857Y-13645476D01*
X5200857Y-13645476D02*
X5086571Y-13645476D01*
X5143714Y-13645476D02*
X5143714Y-13445476D01*
X5124667Y-13474048D01*
X5105619Y-13493095D01*
X5086571Y-13502619D01*
X5381810Y-13445476D02*
X5286571Y-13445476D01*
X5277048Y-13540714D01*
X5286571Y-13531190D01*
X5305619Y-13521667D01*
X5353238Y-13521667D01*
X5372286Y-13531190D01*
X5381810Y-13540714D01*
X5391333Y-13559762D01*
X5391333Y-13607381D01*
X5381810Y-13626428D01*
X5372286Y-13635952D01*
X5353238Y-13645476D01*
X5305619Y-13645476D01*
X5286571Y-13635952D01*
X5277048Y-13626428D01*
X5458000Y-13445476D02*
X5591333Y-13445476D01*
X5505619Y-13645476D01*
X5762762Y-13445476D02*
X5667524Y-13445476D01*
X5658000Y-13540714D01*
X5667524Y-13531190D01*
X5686571Y-13521667D01*
X5734190Y-13521667D01*
X5753238Y-13531190D01*
X5762762Y-13540714D01*
X5772286Y-13559762D01*
X5772286Y-13607381D01*
X5762762Y-13626428D01*
X5753238Y-13635952D01*
X5734190Y-13645476D01*
X5686571Y-13645476D01*
X5667524Y-13635952D01*
X5658000Y-13626428D01*
X5848476Y-13445476D02*
X5848476Y-13483571D01*
X5924667Y-13445476D02*
X5924667Y-13483571D01*
X6219905Y-13721667D02*
X6210381Y-13712143D01*
X6191333Y-13683571D01*
X6181809Y-13664524D01*
X6172286Y-13635952D01*
X6162762Y-13588333D01*
X6162762Y-13550238D01*
X6172286Y-13502619D01*
X6181809Y-13474048D01*
X6191333Y-13455000D01*
X6210381Y-13426428D01*
X6219905Y-13416905D01*
X6324667Y-13531190D02*
X6305619Y-13521667D01*
X6296095Y-13512143D01*
X6286571Y-13493095D01*
X6286571Y-13483571D01*
X6296095Y-13464524D01*
X6305619Y-13455000D01*
X6324667Y-13445476D01*
X6362762Y-13445476D01*
X6381809Y-13455000D01*
X6391333Y-13464524D01*
X6400857Y-13483571D01*
X6400857Y-13493095D01*
X6391333Y-13512143D01*
X6381809Y-13521667D01*
X6362762Y-13531190D01*
X6324667Y-13531190D01*
X6305619Y-13540714D01*
X6296095Y-13550238D01*
X6286571Y-13569286D01*
X6286571Y-13607381D01*
X6296095Y-13626428D01*
X6305619Y-13635952D01*
X6324667Y-13645476D01*
X6362762Y-13645476D01*
X6381809Y-13635952D01*
X6391333Y-13626428D01*
X6400857Y-13607381D01*
X6400857Y-13569286D01*
X6391333Y-13550238D01*
X6381809Y-13540714D01*
X6362762Y-13531190D01*
X6638952Y-13645476D02*
X6638952Y-13445476D01*
X6724667Y-13645476D02*
X6724667Y-13540714D01*
X6715143Y-13521667D01*
X6696095Y-13512143D01*
X6667524Y-13512143D01*
X6648476Y-13521667D01*
X6638952Y-13531190D01*
X6848476Y-13645476D02*
X6829428Y-13635952D01*
X6819905Y-13626428D01*
X6810381Y-13607381D01*
X6810381Y-13550238D01*
X6819905Y-13531190D01*
X6829428Y-13521667D01*
X6848476Y-13512143D01*
X6877048Y-13512143D01*
X6896095Y-13521667D01*
X6905619Y-13531190D01*
X6915143Y-13550238D01*
X6915143Y-13607381D01*
X6905619Y-13626428D01*
X6896095Y-13635952D01*
X6877048Y-13645476D01*
X6848476Y-13645476D01*
X7029428Y-13645476D02*
X7010381Y-13635952D01*
X7000857Y-13616905D01*
X7000857Y-13445476D01*
X7181809Y-13635952D02*
X7162762Y-13645476D01*
X7124667Y-13645476D01*
X7105619Y-13635952D01*
X7096095Y-13616905D01*
X7096095Y-13540714D01*
X7105619Y-13521667D01*
X7124667Y-13512143D01*
X7162762Y-13512143D01*
X7181809Y-13521667D01*
X7191333Y-13540714D01*
X7191333Y-13559762D01*
X7096095Y-13578809D01*
X7267524Y-13635952D02*
X7286571Y-13645476D01*
X7324667Y-13645476D01*
X7343714Y-13635952D01*
X7353238Y-13616905D01*
X7353238Y-13607381D01*
X7343714Y-13588333D01*
X7324667Y-13578809D01*
X7296095Y-13578809D01*
X7277048Y-13569286D01*
X7267524Y-13550238D01*
X7267524Y-13540714D01*
X7277048Y-13521667D01*
X7296095Y-13512143D01*
X7324667Y-13512143D01*
X7343714Y-13521667D01*
X7419905Y-13721667D02*
X7429428Y-13712143D01*
X7448476Y-13683571D01*
X7458000Y-13664524D01*
X7467524Y-13635952D01*
X7477048Y-13588333D01*
X7477048Y-13550238D01*
X7467524Y-13502619D01*
X7458000Y-13474048D01*
X7448476Y-13455000D01*
X7429428Y-13426428D01*
X7419905Y-13416905D01*
X7781809Y-13721667D02*
X7772286Y-13712143D01*
X7753238Y-13683571D01*
X7743714Y-13664524D01*
X7734190Y-13635952D01*
X7724667Y-13588333D01*
X7724667Y-13550238D01*
X7734190Y-13502619D01*
X7743714Y-13474048D01*
X7753238Y-13455000D01*
X7772286Y-13426428D01*
X7781809Y-13416905D01*
X7858000Y-13512143D02*
X7858000Y-13645476D01*
X7858000Y-13531190D02*
X7867524Y-13521667D01*
X7886571Y-13512143D01*
X7915143Y-13512143D01*
X7934190Y-13521667D01*
X7943714Y-13540714D01*
X7943714Y-13645476D01*
X8067524Y-13645476D02*
X8048476Y-13635952D01*
X8038952Y-13626428D01*
X8029428Y-13607381D01*
X8029428Y-13550238D01*
X8038952Y-13531190D01*
X8048476Y-13521667D01*
X8067524Y-13512143D01*
X8096095Y-13512143D01*
X8115143Y-13521667D01*
X8124667Y-13531190D01*
X8134190Y-13550238D01*
X8134190Y-13607381D01*
X8124667Y-13626428D01*
X8115143Y-13635952D01*
X8096095Y-13645476D01*
X8067524Y-13645476D01*
X8191333Y-13512143D02*
X8267524Y-13512143D01*
X8219905Y-13445476D02*
X8219905Y-13616905D01*
X8229428Y-13635952D01*
X8248476Y-13645476D01*
X8267524Y-13645476D01*
X8486571Y-13512143D02*
X8486571Y-13712143D01*
X8486571Y-13521667D02*
X8505619Y-13512143D01*
X8543714Y-13512143D01*
X8562762Y-13521667D01*
X8572286Y-13531190D01*
X8581810Y-13550238D01*
X8581810Y-13607381D01*
X8572286Y-13626428D01*
X8562762Y-13635952D01*
X8543714Y-13645476D01*
X8505619Y-13645476D01*
X8486571Y-13635952D01*
X8696095Y-13645476D02*
X8677048Y-13635952D01*
X8667524Y-13616905D01*
X8667524Y-13445476D01*
X8858000Y-13645476D02*
X8858000Y-13540714D01*
X8848476Y-13521667D01*
X8829429Y-13512143D01*
X8791333Y-13512143D01*
X8772286Y-13521667D01*
X8858000Y-13635952D02*
X8838952Y-13645476D01*
X8791333Y-13645476D01*
X8772286Y-13635952D01*
X8762762Y-13616905D01*
X8762762Y-13597857D01*
X8772286Y-13578809D01*
X8791333Y-13569286D01*
X8838952Y-13569286D01*
X8858000Y-13559762D01*
X8924667Y-13512143D02*
X9000857Y-13512143D01*
X8953238Y-13445476D02*
X8953238Y-13616905D01*
X8962762Y-13635952D01*
X8981810Y-13645476D01*
X9000857Y-13645476D01*
X9143714Y-13635952D02*
X9124667Y-13645476D01*
X9086571Y-13645476D01*
X9067524Y-13635952D01*
X9058000Y-13616905D01*
X9058000Y-13540714D01*
X9067524Y-13521667D01*
X9086571Y-13512143D01*
X9124667Y-13512143D01*
X9143714Y-13521667D01*
X9153238Y-13540714D01*
X9153238Y-13559762D01*
X9058000Y-13578809D01*
X9324667Y-13645476D02*
X9324667Y-13445476D01*
X9324667Y-13635952D02*
X9305619Y-13645476D01*
X9267524Y-13645476D01*
X9248476Y-13635952D01*
X9238952Y-13626428D01*
X9229429Y-13607381D01*
X9229429Y-13550238D01*
X9238952Y-13531190D01*
X9248476Y-13521667D01*
X9267524Y-13512143D01*
X9305619Y-13512143D01*
X9324667Y-13521667D01*
X9400857Y-13721667D02*
X9410381Y-13712143D01*
X9429429Y-13683571D01*
X9438952Y-13664524D01*
X9448476Y-13635952D01*
X9458000Y-13588333D01*
X9458000Y-13550238D01*
X9448476Y-13502619D01*
X9438952Y-13474048D01*
X9429429Y-13455000D01*
X9410381Y-13426428D01*
X9400857Y-13416905D01*
M02*
