M48
; DRILL file {KiCad (6.0.10)} date Wed Feb  8 22:59:15 2023
; FORMAT={-:-/ absolute / inch / decimal}
; #@! TF.CreationDate,2023-02-08T22:59:15+05:30
; #@! TF.GenerationSoftware,Kicad,Pcbnew,(6.0.10)
; #@! TF.FileFunction,MixedPlating,1,2
FMAT,2
INCH
; #@! TA.AperFunction,Plated,PTH,ViaDrill
T1C0.0157
; #@! TA.AperFunction,Plated,PTH,ComponentDrill
T2C0.0236
; #@! TA.AperFunction,Plated,PTH,ComponentDrill
T3C0.0295
; #@! TA.AperFunction,Plated,PTH,ComponentDrill
T4C0.0394
; #@! TA.AperFunction,Plated,PTH,ComponentDrill
T5C0.0591
; #@! TA.AperFunction,Plated,PTH,ComponentDrill
T6C0.0866
; #@! TA.AperFunction,Plated,PTH,ComponentDrill
T7C0.0925
; #@! TA.AperFunction,NonPlated,NPTH,ComponentDrill
T8C0.0256
; #@! TA.AperFunction,NonPlated,NPTH,ComponentDrill
T9C0.0354
; #@! TA.AperFunction,NonPlated,NPTH,ComponentDrill
T10C0.0669
; #@! TA.AperFunction,NonPlated,NPTH,ComponentDrill
T11C0.1575
%
G90
G05
T1
X1.6713Y-1.3563
X1.698Y-1.2272
X1.853Y-1.5592
X1.8535Y-1.5986
X1.8582Y-1.4125
X1.8878Y-1.2291
X1.8972Y-2.0524
X1.898Y-1.8224
X1.9594Y-1.8181
X1.9594Y-2.0575
X1.9689Y-2.3768
X1.9689Y-2.5496
X2.0421Y-1.052
X2.0591Y-1.3185
X2.124Y-1.3197
X2.1783Y-2.3976
X2.1783Y-2.5465
X2.2193Y-1.315
X2.224Y-2.085
X2.276Y-1.6839
X2.3693Y-1.7047
X2.5102Y-2.3551
X2.5783Y-1.4417
X2.8012Y-2.1917
X2.8571Y-2.1839
X2.9972Y-2.4358
X2.9984Y-3.1862
X3.0346Y-2.1772
X3.1303Y-1.9476
X3.1339Y-1.6331
X3.1417Y-1.9969
X3.3437Y-1.5189
X3.3469Y-2.2961
X3.3693Y-2.1756
X3.428Y-1.5579
X3.4335Y-1.9406
X3.4819Y-1.9398
X3.5209Y-2.1374
X3.5303Y-1.8118
X3.5323Y-1.9398
X3.5614Y-2.1315
X3.5709Y-2.0917
X3.5874Y-1.9398
X3.5909Y-1.8155
X3.6051Y-2.126
X3.624Y-1.8402
X3.7622Y-3.2217
X3.7638Y-2.4311
X3.7925Y-2.0189
X3.8Y-1.4917
X3.802Y-1.7709
X3.9878Y-2.2846
X4.1094Y-2.415
X4.1594Y-1.5362
X4.5106Y-2.4539
X4.5118Y-3.2031
X4.7913Y-2.1327
X4.8012Y-2.2185
X4.8484Y-2.311
X5.239Y-2.4594
X5.252Y-3.2016
X5.2673Y-2.3114
X5.474Y-1.8402
X5.4965Y-2.4602
T3
X3.1516Y-2.4535
X3.1516Y-2.8535
X3.1516Y-3.2047
X3.1516Y-3.6047
X3.9043Y-3.2051
X3.9043Y-3.6051
X3.9079Y-2.4551
X3.9079Y-2.8551
X4.6512Y-3.2055
X4.6512Y-3.6055
X4.6551Y-2.4571
X4.6551Y-2.8571
X5.4087Y-3.2287
X5.4087Y-3.6287
X5.4102Y-2.5783
X5.4102Y-2.9783
T4
X1.5941Y-2.2941
X1.5941Y-2.3925
X1.5941Y-2.4713
X1.5941Y-2.5697
X1.5949Y-3.1803
X1.5949Y-3.2787
X1.5949Y-3.3575
X1.5949Y-3.4559
X1.5965Y-1.4051
X1.5965Y-1.5035
X1.5965Y-1.5823
X1.5965Y-1.6807
X3.4323Y-1.4348
X3.5323Y-1.4348
X4.7851Y-1.4561
X4.7851Y-1.5546
X4.7851Y-1.653
X5.356Y-1.4561
X5.356Y-1.653
T5
X2.7252Y-2.8161
X2.7256Y-3.5693
X2.9752Y-2.7161
X2.9756Y-3.4693
X3.4787Y-3.5697
X3.4795Y-2.8169
X3.7287Y-3.4697
X3.7295Y-2.7169
X4.2303Y-3.5661
X4.2319Y-2.8185
X4.4803Y-3.4661
X4.4819Y-2.7185
X4.9756Y-3.5697
X4.9783Y-2.8197
X5.2256Y-3.4697
X5.2283Y-2.7197
T6
X1.202Y-1.0756
X1.2059Y-3.8232
X5.5319Y-3.8311
X5.535Y-1.0717
T7
X1.4996Y-2.1732
X1.4996Y-2.6906
X1.5004Y-3.0594
X1.5004Y-3.5768
X1.502Y-1.2843
X1.502Y-1.8016
T8
X1.679Y-1.1335
X1.9066Y-1.1335
T9
X5.611Y-1.7839
X5.611Y-1.902
T10
X2.6252Y-2.6161
X2.6256Y-3.3693
X3.0252Y-2.6161
X3.0256Y-3.3693
X3.3787Y-3.3697
X3.3795Y-2.6169
X3.7787Y-3.3697
X3.7795Y-2.6169
X4.1303Y-3.3661
X4.1319Y-2.6185
X4.5303Y-3.3661
X4.5319Y-2.6185
X4.8756Y-3.3697
X4.8783Y-2.6197
X5.2756Y-3.3697
X5.2783Y-2.6197
T11
X2.8252Y-2.6161
X2.8256Y-3.3693
X3.5787Y-3.3697
X3.5795Y-2.6169
X4.3303Y-3.3661
X4.3319Y-2.6185
X5.0756Y-3.3697
X5.0783Y-2.6197
T2
G00X1.6227Y-1.0043
M15
G01X1.6227Y-0.9729
M16
G05
G00X1.6227Y-1.1756
M15
G01X1.6227Y-1.1323
M16
G05
G00X1.9629Y-1.0043
M15
G01X1.9629Y-0.9729
M16
G05
G00X1.9629Y-1.1756
M15
G01X1.9629Y-1.1323
M16
G05
T5
G00X5.0548Y-1.3341
M15
G01X5.106Y-1.3341
M16
G05
G00X5.0548Y-1.775
M15
G01X5.106Y-1.775
M16
G05
T0
M30
