%TF.GenerationSoftware,KiCad,Pcbnew,(6.0.10)*%
%TF.CreationDate,2023-02-08T22:59:09+05:30*%
%TF.ProjectId,macrokeypad13,6d616372-6f6b-4657-9970-616431332e6b,rev?*%
%TF.SameCoordinates,Original*%
%TF.FileFunction,Legend,Top*%
%TF.FilePolarity,Positive*%
%FSLAX46Y46*%
G04 Gerber Fmt 4.6, Leading zero omitted, Abs format (unit mm)*
G04 Created by KiCad (PCBNEW (6.0.10)) date 2023-02-08 22:59:09*
%MOMM*%
%LPD*%
G01*
G04 APERTURE LIST*
%ADD10C,0.150000*%
%ADD11C,0.125000*%
%ADD12C,0.120000*%
%ADD13C,0.127000*%
%ADD14C,0.200000*%
%ADD15C,0.152400*%
%ADD16C,0.050800*%
G04 APERTURE END LIST*
D10*
X28050000Y-99660000D02*
X50750000Y-99660000D01*
X50750000Y-99660000D02*
X50750000Y-24670000D01*
X50750000Y-24670000D02*
X28050000Y-24670000D01*
X28050000Y-24670000D02*
X28050000Y-99660000D01*
X107566969Y-36467386D02*
G75*
G03*
X107749999Y-36900000I-7486969J-3422614D01*
G01*
X42900000Y-68970000D02*
X35930000Y-68970000D01*
X35930000Y-68970000D02*
X35930000Y-54470000D01*
X35930000Y-54470000D02*
X42900000Y-54470000D01*
X42900000Y-54470000D02*
X42900000Y-68970000D01*
X50870000Y-99580000D02*
X54870000Y-99580000D01*
X54870000Y-99580000D02*
X54870000Y-24610000D01*
X54870000Y-24610000D02*
X50870000Y-24610000D01*
X50870000Y-24610000D02*
X50870000Y-99580000D01*
X26990000Y-23770000D02*
X143990000Y-23770000D01*
X143990000Y-23770000D02*
X143990000Y-100770000D01*
X143990000Y-100770000D02*
X26990000Y-100770000D01*
X26990000Y-100770000D02*
X26990000Y-23770000D01*
X35910000Y-91530000D02*
X42930000Y-91530000D01*
X42930000Y-91530000D02*
X42930000Y-77030000D01*
X42930000Y-77030000D02*
X35910000Y-77030000D01*
X35910000Y-77030000D02*
X35910000Y-91530000D01*
X136030000Y-32600000D02*
X122030000Y-32600000D01*
X122030000Y-32600000D02*
X122030000Y-46600000D01*
X122030000Y-46600000D02*
X136030000Y-46600000D01*
X136030000Y-46600000D02*
X136030000Y-32600000D01*
X42920000Y-46470000D02*
X35970000Y-46470000D01*
X35970000Y-46470000D02*
X35970000Y-31970000D01*
X35970000Y-31970000D02*
X42920000Y-31970000D01*
X42920000Y-31970000D02*
X42920000Y-46470000D01*
X138440000Y-95080000D02*
X62240000Y-95080000D01*
X62240000Y-95080000D02*
X62240000Y-56980000D01*
X62240000Y-56980000D02*
X138440000Y-56980000D01*
X138440000Y-56980000D02*
X138440000Y-95080000D01*
X93405714Y-26802380D02*
X93405714Y-25802380D01*
X93739047Y-26516666D01*
X94072380Y-25802380D01*
X94072380Y-26802380D01*
X94977142Y-26802380D02*
X94977142Y-26278571D01*
X94929523Y-26183333D01*
X94834285Y-26135714D01*
X94643809Y-26135714D01*
X94548571Y-26183333D01*
X94977142Y-26754761D02*
X94881904Y-26802380D01*
X94643809Y-26802380D01*
X94548571Y-26754761D01*
X94500952Y-26659523D01*
X94500952Y-26564285D01*
X94548571Y-26469047D01*
X94643809Y-26421428D01*
X94881904Y-26421428D01*
X94977142Y-26373809D01*
X95881904Y-26754761D02*
X95786666Y-26802380D01*
X95596190Y-26802380D01*
X95500952Y-26754761D01*
X95453333Y-26707142D01*
X95405714Y-26611904D01*
X95405714Y-26326190D01*
X95453333Y-26230952D01*
X95500952Y-26183333D01*
X95596190Y-26135714D01*
X95786666Y-26135714D01*
X95881904Y-26183333D01*
X96310476Y-26802380D02*
X96310476Y-26135714D01*
X96310476Y-26326190D02*
X96358095Y-26230952D01*
X96405714Y-26183333D01*
X96500952Y-26135714D01*
X96596190Y-26135714D01*
X97072380Y-26802380D02*
X96977142Y-26754761D01*
X96929523Y-26707142D01*
X96881904Y-26611904D01*
X96881904Y-26326190D01*
X96929523Y-26230952D01*
X96977142Y-26183333D01*
X97072380Y-26135714D01*
X97215238Y-26135714D01*
X97310476Y-26183333D01*
X97358095Y-26230952D01*
X97405714Y-26326190D01*
X97405714Y-26611904D01*
X97358095Y-26707142D01*
X97310476Y-26754761D01*
X97215238Y-26802380D01*
X97072380Y-26802380D01*
X97834285Y-26135714D02*
X97834285Y-27135714D01*
X97834285Y-26183333D02*
X97929523Y-26135714D01*
X98120000Y-26135714D01*
X98215238Y-26183333D01*
X98262857Y-26230952D01*
X98310476Y-26326190D01*
X98310476Y-26611904D01*
X98262857Y-26707142D01*
X98215238Y-26754761D01*
X98120000Y-26802380D01*
X97929523Y-26802380D01*
X97834285Y-26754761D01*
X99167619Y-26802380D02*
X99167619Y-26278571D01*
X99120000Y-26183333D01*
X99024761Y-26135714D01*
X98834285Y-26135714D01*
X98739047Y-26183333D01*
X99167619Y-26754761D02*
X99072380Y-26802380D01*
X98834285Y-26802380D01*
X98739047Y-26754761D01*
X98691428Y-26659523D01*
X98691428Y-26564285D01*
X98739047Y-26469047D01*
X98834285Y-26421428D01*
X99072380Y-26421428D01*
X99167619Y-26373809D01*
X100072380Y-26802380D02*
X100072380Y-25802380D01*
X100072380Y-26754761D02*
X99977142Y-26802380D01*
X99786666Y-26802380D01*
X99691428Y-26754761D01*
X99643809Y-26707142D01*
X99596190Y-26611904D01*
X99596190Y-26326190D01*
X99643809Y-26230952D01*
X99691428Y-26183333D01*
X99786666Y-26135714D01*
X99977142Y-26135714D01*
X100072380Y-26183333D01*
X101881904Y-26802380D02*
X101548571Y-26326190D01*
X101310476Y-26802380D02*
X101310476Y-25802380D01*
X101691428Y-25802380D01*
X101786666Y-25850000D01*
X101834285Y-25897619D01*
X101881904Y-25992857D01*
X101881904Y-26135714D01*
X101834285Y-26230952D01*
X101786666Y-26278571D01*
X101691428Y-26326190D01*
X101310476Y-26326190D01*
X102453333Y-26802380D02*
X102358095Y-26754761D01*
X102310476Y-26707142D01*
X102262857Y-26611904D01*
X102262857Y-26326190D01*
X102310476Y-26230952D01*
X102358095Y-26183333D01*
X102453333Y-26135714D01*
X102596190Y-26135714D01*
X102691428Y-26183333D01*
X102739047Y-26230952D01*
X102786666Y-26326190D01*
X102786666Y-26611904D01*
X102739047Y-26707142D01*
X102691428Y-26754761D01*
X102596190Y-26802380D01*
X102453333Y-26802380D01*
X103643809Y-26754761D02*
X103548571Y-26802380D01*
X103358095Y-26802380D01*
X103262857Y-26754761D01*
X103215238Y-26707142D01*
X103167619Y-26611904D01*
X103167619Y-26326190D01*
X103215238Y-26230952D01*
X103262857Y-26183333D01*
X103358095Y-26135714D01*
X103548571Y-26135714D01*
X103643809Y-26183333D01*
X104072380Y-26802380D02*
X104072380Y-25802380D01*
X104167619Y-26421428D02*
X104453333Y-26802380D01*
X104453333Y-26135714D02*
X104072380Y-26516666D01*
X105262857Y-26754761D02*
X105167619Y-26802380D01*
X104977142Y-26802380D01*
X104881904Y-26754761D01*
X104834285Y-26659523D01*
X104834285Y-26278571D01*
X104881904Y-26183333D01*
X104977142Y-26135714D01*
X105167619Y-26135714D01*
X105262857Y-26183333D01*
X105310476Y-26278571D01*
X105310476Y-26373809D01*
X104834285Y-26469047D01*
X105596190Y-26135714D02*
X105977142Y-26135714D01*
X105739047Y-25802380D02*
X105739047Y-26659523D01*
X105786666Y-26754761D01*
X105881904Y-26802380D01*
X105977142Y-26802380D01*
X94956666Y-97226666D02*
X95432857Y-97226666D01*
X94861428Y-97512380D02*
X95194761Y-96512380D01*
X95528095Y-97512380D01*
X95861428Y-97417142D02*
X95909047Y-97464761D01*
X95861428Y-97512380D01*
X95813809Y-97464761D01*
X95861428Y-97417142D01*
X95861428Y-97512380D01*
X95861428Y-97131428D02*
X95813809Y-96560000D01*
X95861428Y-96512380D01*
X95909047Y-96560000D01*
X95861428Y-97131428D01*
X95861428Y-96512380D01*
X96861428Y-96560000D02*
X96766190Y-96512380D01*
X96623333Y-96512380D01*
X96480476Y-96560000D01*
X96385238Y-96655238D01*
X96337619Y-96750476D01*
X96290000Y-96940952D01*
X96290000Y-97083809D01*
X96337619Y-97274285D01*
X96385238Y-97369523D01*
X96480476Y-97464761D01*
X96623333Y-97512380D01*
X96718571Y-97512380D01*
X96861428Y-97464761D01*
X96909047Y-97417142D01*
X96909047Y-97083809D01*
X96718571Y-97083809D01*
X98099523Y-97512380D02*
X98099523Y-96512380D01*
X98337619Y-96512380D01*
X98480476Y-96560000D01*
X98575714Y-96655238D01*
X98623333Y-96750476D01*
X98670952Y-96940952D01*
X98670952Y-97083809D01*
X98623333Y-97274285D01*
X98575714Y-97369523D01*
X98480476Y-97464761D01*
X98337619Y-97512380D01*
X98099523Y-97512380D01*
X99480476Y-97464761D02*
X99385238Y-97512380D01*
X99194761Y-97512380D01*
X99099523Y-97464761D01*
X99051904Y-97369523D01*
X99051904Y-96988571D01*
X99099523Y-96893333D01*
X99194761Y-96845714D01*
X99385238Y-96845714D01*
X99480476Y-96893333D01*
X99528095Y-96988571D01*
X99528095Y-97083809D01*
X99051904Y-97179047D01*
X99909047Y-97464761D02*
X100004285Y-97512380D01*
X100194761Y-97512380D01*
X100290000Y-97464761D01*
X100337619Y-97369523D01*
X100337619Y-97321904D01*
X100290000Y-97226666D01*
X100194761Y-97179047D01*
X100051904Y-97179047D01*
X99956666Y-97131428D01*
X99909047Y-97036190D01*
X99909047Y-96988571D01*
X99956666Y-96893333D01*
X100051904Y-96845714D01*
X100194761Y-96845714D01*
X100290000Y-96893333D01*
X100766190Y-97512380D02*
X100766190Y-96845714D01*
X100766190Y-96512380D02*
X100718571Y-96560000D01*
X100766190Y-96607619D01*
X100813809Y-96560000D01*
X100766190Y-96512380D01*
X100766190Y-96607619D01*
X101670952Y-96845714D02*
X101670952Y-97655238D01*
X101623333Y-97750476D01*
X101575714Y-97798095D01*
X101480476Y-97845714D01*
X101337619Y-97845714D01*
X101242380Y-97798095D01*
X101670952Y-97464761D02*
X101575714Y-97512380D01*
X101385238Y-97512380D01*
X101290000Y-97464761D01*
X101242380Y-97417142D01*
X101194761Y-97321904D01*
X101194761Y-97036190D01*
X101242380Y-96940952D01*
X101290000Y-96893333D01*
X101385238Y-96845714D01*
X101575714Y-96845714D01*
X101670952Y-96893333D01*
X102147142Y-96845714D02*
X102147142Y-97512380D01*
X102147142Y-96940952D02*
X102194761Y-96893333D01*
X102290000Y-96845714D01*
X102432857Y-96845714D01*
X102528095Y-96893333D01*
X102575714Y-96988571D01*
X102575714Y-97512380D01*
%TO.C,R4*%
X46512380Y-40016666D02*
X46036190Y-40350000D01*
X46512380Y-40588095D02*
X45512380Y-40588095D01*
X45512380Y-40207142D01*
X45560000Y-40111904D01*
X45607619Y-40064285D01*
X45702857Y-40016666D01*
X45845714Y-40016666D01*
X45940952Y-40064285D01*
X45988571Y-40111904D01*
X46036190Y-40207142D01*
X46036190Y-40588095D01*
X45845714Y-39159523D02*
X46512380Y-39159523D01*
X45464761Y-39397619D02*
X46179047Y-39635714D01*
X46179047Y-39016666D01*
%TO.C,D4*%
X123091904Y-77482380D02*
X123091904Y-76482380D01*
X123330000Y-76482380D01*
X123472857Y-76530000D01*
X123568095Y-76625238D01*
X123615714Y-76720476D01*
X123663333Y-76910952D01*
X123663333Y-77053809D01*
X123615714Y-77244285D01*
X123568095Y-77339523D01*
X123472857Y-77434761D01*
X123330000Y-77482380D01*
X123091904Y-77482380D01*
X124520476Y-76815714D02*
X124520476Y-77482380D01*
X124282380Y-76434761D02*
X124044285Y-77149047D01*
X124663333Y-77149047D01*
X125345714Y-78232380D02*
X124774285Y-78232380D01*
X125060000Y-78232380D02*
X125060000Y-77232380D01*
X124964761Y-77375238D01*
X124869523Y-77470476D01*
X124774285Y-77518095D01*
%TO.C,K2*%
X71031904Y-93906380D02*
X71031904Y-92906380D01*
X71603333Y-93906380D02*
X71174761Y-93334952D01*
X71603333Y-92906380D02*
X71031904Y-93477809D01*
X71984285Y-93001619D02*
X72031904Y-92954000D01*
X72127142Y-92906380D01*
X72365238Y-92906380D01*
X72460476Y-92954000D01*
X72508095Y-93001619D01*
X72555714Y-93096857D01*
X72555714Y-93192095D01*
X72508095Y-93334952D01*
X71936666Y-93906380D01*
X72555714Y-93906380D01*
%TO.C,K4*%
X90161904Y-93916380D02*
X90161904Y-92916380D01*
X90733333Y-93916380D02*
X90304761Y-93344952D01*
X90733333Y-92916380D02*
X90161904Y-93487809D01*
X91590476Y-93249714D02*
X91590476Y-93916380D01*
X91352380Y-92868761D02*
X91114285Y-93583047D01*
X91733333Y-93583047D01*
%TO.C,K5*%
X109291904Y-74836380D02*
X109291904Y-73836380D01*
X109863333Y-74836380D02*
X109434761Y-74264952D01*
X109863333Y-73836380D02*
X109291904Y-74407809D01*
X110768095Y-73836380D02*
X110291904Y-73836380D01*
X110244285Y-74312571D01*
X110291904Y-74264952D01*
X110387142Y-74217333D01*
X110625238Y-74217333D01*
X110720476Y-74264952D01*
X110768095Y-74312571D01*
X110815714Y-74407809D01*
X110815714Y-74645904D01*
X110768095Y-74741142D01*
X110720476Y-74788761D01*
X110625238Y-74836380D01*
X110387142Y-74836380D01*
X110291904Y-74788761D01*
X110244285Y-74741142D01*
%TO.C,R6*%
X96058333Y-34902380D02*
X95725000Y-34426190D01*
X95486904Y-34902380D02*
X95486904Y-33902380D01*
X95867857Y-33902380D01*
X95963095Y-33950000D01*
X96010714Y-33997619D01*
X96058333Y-34092857D01*
X96058333Y-34235714D01*
X96010714Y-34330952D01*
X95963095Y-34378571D01*
X95867857Y-34426190D01*
X95486904Y-34426190D01*
X96915476Y-33902380D02*
X96725000Y-33902380D01*
X96629761Y-33950000D01*
X96582142Y-33997619D01*
X96486904Y-34140476D01*
X96439285Y-34330952D01*
X96439285Y-34711904D01*
X96486904Y-34807142D01*
X96534523Y-34854761D01*
X96629761Y-34902380D01*
X96820238Y-34902380D01*
X96915476Y-34854761D01*
X96963095Y-34807142D01*
X97010714Y-34711904D01*
X97010714Y-34473809D01*
X96963095Y-34378571D01*
X96915476Y-34330952D01*
X96820238Y-34283333D01*
X96629761Y-34283333D01*
X96534523Y-34330952D01*
X96486904Y-34378571D01*
X96439285Y-34473809D01*
%TO.C,U2*%
X88898095Y-40602380D02*
X88898095Y-41411904D01*
X88945714Y-41507142D01*
X88993333Y-41554761D01*
X89088571Y-41602380D01*
X89279047Y-41602380D01*
X89374285Y-41554761D01*
X89421904Y-41507142D01*
X89469523Y-41411904D01*
X89469523Y-40602380D01*
X89898095Y-40697619D02*
X89945714Y-40650000D01*
X90040952Y-40602380D01*
X90279047Y-40602380D01*
X90374285Y-40650000D01*
X90421904Y-40697619D01*
X90469523Y-40792857D01*
X90469523Y-40888095D01*
X90421904Y-41030952D01*
X89850476Y-41602380D01*
X90469523Y-41602380D01*
%TO.C,K1*%
X71021904Y-74776380D02*
X71021904Y-73776380D01*
X71593333Y-74776380D02*
X71164761Y-74204952D01*
X71593333Y-73776380D02*
X71021904Y-74347809D01*
X72545714Y-74776380D02*
X71974285Y-74776380D01*
X72260000Y-74776380D02*
X72260000Y-73776380D01*
X72164761Y-73919238D01*
X72069523Y-74014476D01*
X71974285Y-74062095D01*
%TO.C,S1*%
X138911949Y-48897363D02*
X138959579Y-48754473D01*
X138959579Y-48516324D01*
X138911949Y-48421064D01*
X138864319Y-48373434D01*
X138769059Y-48325804D01*
X138673799Y-48325804D01*
X138578539Y-48373434D01*
X138530909Y-48421064D01*
X138483280Y-48516324D01*
X138435650Y-48706843D01*
X138388020Y-48802103D01*
X138340390Y-48849733D01*
X138245130Y-48897363D01*
X138149870Y-48897363D01*
X138054610Y-48849733D01*
X138006981Y-48802103D01*
X137959351Y-48706843D01*
X137959351Y-48468694D01*
X138006981Y-48325804D01*
X138959579Y-47373206D02*
X138959579Y-47944765D01*
X138959579Y-47658985D02*
X137959351Y-47658985D01*
X138102240Y-47754245D01*
X138197500Y-47849505D01*
X138245130Y-47944765D01*
%TO.C,D14*%
X63685714Y-58662380D02*
X63685714Y-57662380D01*
X63923809Y-57662380D01*
X64066666Y-57710000D01*
X64161904Y-57805238D01*
X64209523Y-57900476D01*
X64257142Y-58090952D01*
X64257142Y-58233809D01*
X64209523Y-58424285D01*
X64161904Y-58519523D01*
X64066666Y-58614761D01*
X63923809Y-58662380D01*
X63685714Y-58662380D01*
X65209523Y-58662380D02*
X64638095Y-58662380D01*
X64923809Y-58662380D02*
X64923809Y-57662380D01*
X64828571Y-57805238D01*
X64733333Y-57900476D01*
X64638095Y-57948095D01*
X66066666Y-57995714D02*
X66066666Y-58662380D01*
X65828571Y-57614761D02*
X65590476Y-58329047D01*
X66209523Y-58329047D01*
X67755714Y-58782380D02*
X67184285Y-58782380D01*
X67470000Y-58782380D02*
X67470000Y-57782380D01*
X67374761Y-57925238D01*
X67279523Y-58020476D01*
X67184285Y-58068095D01*
%TO.C,D2*%
X78582380Y-68138095D02*
X77582380Y-68138095D01*
X77582380Y-67900000D01*
X77630000Y-67757142D01*
X77725238Y-67661904D01*
X77820476Y-67614285D01*
X78010952Y-67566666D01*
X78153809Y-67566666D01*
X78344285Y-67614285D01*
X78439523Y-67661904D01*
X78534761Y-67757142D01*
X78582380Y-67900000D01*
X78582380Y-68138095D01*
X77677619Y-67185714D02*
X77630000Y-67138095D01*
X77582380Y-67042857D01*
X77582380Y-66804761D01*
X77630000Y-66709523D01*
X77677619Y-66661904D01*
X77772857Y-66614285D01*
X77868095Y-66614285D01*
X78010952Y-66661904D01*
X78582380Y-67233333D01*
X78582380Y-66614285D01*
X78752380Y-72741904D02*
X77752380Y-72741904D01*
X78752380Y-72170476D02*
X78180952Y-72599047D01*
X77752380Y-72170476D02*
X78323809Y-72741904D01*
%TO.C,C6*%
X77903333Y-51127142D02*
X77855714Y-51174761D01*
X77712857Y-51222380D01*
X77617619Y-51222380D01*
X77474761Y-51174761D01*
X77379523Y-51079523D01*
X77331904Y-50984285D01*
X77284285Y-50793809D01*
X77284285Y-50650952D01*
X77331904Y-50460476D01*
X77379523Y-50365238D01*
X77474761Y-50270000D01*
X77617619Y-50222380D01*
X77712857Y-50222380D01*
X77855714Y-50270000D01*
X77903333Y-50317619D01*
X78760476Y-50222380D02*
X78570000Y-50222380D01*
X78474761Y-50270000D01*
X78427142Y-50317619D01*
X78331904Y-50460476D01*
X78284285Y-50650952D01*
X78284285Y-51031904D01*
X78331904Y-51127142D01*
X78379523Y-51174761D01*
X78474761Y-51222380D01*
X78665238Y-51222380D01*
X78760476Y-51174761D01*
X78808095Y-51127142D01*
X78855714Y-51031904D01*
X78855714Y-50793809D01*
X78808095Y-50698571D01*
X78760476Y-50650952D01*
X78665238Y-50603333D01*
X78474761Y-50603333D01*
X78379523Y-50650952D01*
X78331904Y-50698571D01*
X78284285Y-50793809D01*
%TO.C,D13*%
X64115714Y-77902380D02*
X64115714Y-76902380D01*
X64353809Y-76902380D01*
X64496666Y-76950000D01*
X64591904Y-77045238D01*
X64639523Y-77140476D01*
X64687142Y-77330952D01*
X64687142Y-77473809D01*
X64639523Y-77664285D01*
X64591904Y-77759523D01*
X64496666Y-77854761D01*
X64353809Y-77902380D01*
X64115714Y-77902380D01*
X65639523Y-77902380D02*
X65068095Y-77902380D01*
X65353809Y-77902380D02*
X65353809Y-76902380D01*
X65258571Y-77045238D01*
X65163333Y-77140476D01*
X65068095Y-77188095D01*
X65972857Y-76902380D02*
X66591904Y-76902380D01*
X66258571Y-77283333D01*
X66401428Y-77283333D01*
X66496666Y-77330952D01*
X66544285Y-77378571D01*
X66591904Y-77473809D01*
X66591904Y-77711904D01*
X66544285Y-77807142D01*
X66496666Y-77854761D01*
X66401428Y-77902380D01*
X66115714Y-77902380D01*
X66020476Y-77854761D01*
X65972857Y-77807142D01*
X67985714Y-78142380D02*
X67414285Y-78142380D01*
X67700000Y-78142380D02*
X67700000Y-77142380D01*
X67604761Y-77285238D01*
X67509523Y-77380476D01*
X67414285Y-77428095D01*
D11*
%TO.C,R2*%
X47276190Y-32033333D02*
X47038095Y-32200000D01*
X47276190Y-32319047D02*
X46776190Y-32319047D01*
X46776190Y-32128571D01*
X46800000Y-32080952D01*
X46823809Y-32057142D01*
X46871428Y-32033333D01*
X46942857Y-32033333D01*
X46990476Y-32057142D01*
X47014285Y-32080952D01*
X47038095Y-32128571D01*
X47038095Y-32319047D01*
X46823809Y-31842857D02*
X46800000Y-31819047D01*
X46776190Y-31771428D01*
X46776190Y-31652380D01*
X46800000Y-31604761D01*
X46823809Y-31580952D01*
X46871428Y-31557142D01*
X46919047Y-31557142D01*
X46990476Y-31580952D01*
X47276190Y-31866666D01*
X47276190Y-31557142D01*
D10*
%TO.C,D21*%
X49942380Y-95954285D02*
X48942380Y-95954285D01*
X48942380Y-95716190D01*
X48990000Y-95573333D01*
X49085238Y-95478095D01*
X49180476Y-95430476D01*
X49370952Y-95382857D01*
X49513809Y-95382857D01*
X49704285Y-95430476D01*
X49799523Y-95478095D01*
X49894761Y-95573333D01*
X49942380Y-95716190D01*
X49942380Y-95954285D01*
X49037619Y-95001904D02*
X48990000Y-94954285D01*
X48942380Y-94859047D01*
X48942380Y-94620952D01*
X48990000Y-94525714D01*
X49037619Y-94478095D01*
X49132857Y-94430476D01*
X49228095Y-94430476D01*
X49370952Y-94478095D01*
X49942380Y-95049523D01*
X49942380Y-94430476D01*
X49942380Y-93478095D02*
X49942380Y-94049523D01*
X49942380Y-93763809D02*
X48942380Y-93763809D01*
X49085238Y-93859047D01*
X49180476Y-93954285D01*
X49228095Y-94049523D01*
X51842380Y-98604285D02*
X51842380Y-99175714D01*
X51842380Y-98890000D02*
X50842380Y-98890000D01*
X50985238Y-98985238D01*
X51080476Y-99080476D01*
X51128095Y-99175714D01*
%TO.C,H4*%
X29868095Y-94662380D02*
X29868095Y-93662380D01*
X29868095Y-94138571D02*
X30439523Y-94138571D01*
X30439523Y-94662380D02*
X30439523Y-93662380D01*
X31344285Y-93995714D02*
X31344285Y-94662380D01*
X31106190Y-93614761D02*
X30868095Y-94329047D01*
X31487142Y-94329047D01*
%TO.C,C14*%
X73919748Y-55306012D02*
X73872129Y-55353631D01*
X73729272Y-55401250D01*
X73634034Y-55401250D01*
X73491177Y-55353631D01*
X73395939Y-55258393D01*
X73348320Y-55163155D01*
X73300701Y-54972679D01*
X73300701Y-54829822D01*
X73348320Y-54639346D01*
X73395939Y-54544108D01*
X73491177Y-54448870D01*
X73634034Y-54401250D01*
X73729272Y-54401250D01*
X73872129Y-54448870D01*
X73919748Y-54496489D01*
X74872129Y-55401250D02*
X74300701Y-55401250D01*
X74586415Y-55401250D02*
X74586415Y-54401250D01*
X74491177Y-54544108D01*
X74395939Y-54639346D01*
X74300701Y-54686965D01*
X75729272Y-54734584D02*
X75729272Y-55401250D01*
X75491177Y-54353631D02*
X75253082Y-55067917D01*
X75872129Y-55067917D01*
%TO.C,R1*%
X125078333Y-54652380D02*
X124745000Y-54176190D01*
X124506904Y-54652380D02*
X124506904Y-53652380D01*
X124887857Y-53652380D01*
X124983095Y-53700000D01*
X125030714Y-53747619D01*
X125078333Y-53842857D01*
X125078333Y-53985714D01*
X125030714Y-54080952D01*
X124983095Y-54128571D01*
X124887857Y-54176190D01*
X124506904Y-54176190D01*
X126030714Y-54652380D02*
X125459285Y-54652380D01*
X125745000Y-54652380D02*
X125745000Y-53652380D01*
X125649761Y-53795238D01*
X125554523Y-53890476D01*
X125459285Y-53938095D01*
%TO.C,K6*%
X109251904Y-93826380D02*
X109251904Y-92826380D01*
X109823333Y-93826380D02*
X109394761Y-93254952D01*
X109823333Y-92826380D02*
X109251904Y-93397809D01*
X110680476Y-92826380D02*
X110490000Y-92826380D01*
X110394761Y-92874000D01*
X110347142Y-92921619D01*
X110251904Y-93064476D01*
X110204285Y-93254952D01*
X110204285Y-93635904D01*
X110251904Y-93731142D01*
X110299523Y-93778761D01*
X110394761Y-93826380D01*
X110585238Y-93826380D01*
X110680476Y-93778761D01*
X110728095Y-93731142D01*
X110775714Y-93635904D01*
X110775714Y-93397809D01*
X110728095Y-93302571D01*
X110680476Y-93254952D01*
X110585238Y-93207333D01*
X110394761Y-93207333D01*
X110299523Y-93254952D01*
X110251904Y-93302571D01*
X110204285Y-93397809D01*
%TO.C,J4*%
X36712380Y-59323333D02*
X37426666Y-59323333D01*
X37569523Y-59370952D01*
X37664761Y-59466190D01*
X37712380Y-59609047D01*
X37712380Y-59704285D01*
X37045714Y-58418571D02*
X37712380Y-58418571D01*
X36664761Y-58656666D02*
X37379047Y-58894761D01*
X37379047Y-58275714D01*
%TO.C,Y1*%
X80646190Y-45616190D02*
X81122380Y-45616190D01*
X80122380Y-45949523D02*
X80646190Y-45616190D01*
X80122380Y-45282857D01*
X81122380Y-44425714D02*
X81122380Y-44997142D01*
X81122380Y-44711428D02*
X80122380Y-44711428D01*
X80265238Y-44806666D01*
X80360476Y-44901904D01*
X80408095Y-44997142D01*
%TO.C,D20*%
X51625714Y-72662380D02*
X51625714Y-71662380D01*
X51863809Y-71662380D01*
X52006666Y-71710000D01*
X52101904Y-71805238D01*
X52149523Y-71900476D01*
X52197142Y-72090952D01*
X52197142Y-72233809D01*
X52149523Y-72424285D01*
X52101904Y-72519523D01*
X52006666Y-72614761D01*
X51863809Y-72662380D01*
X51625714Y-72662380D01*
X52578095Y-71757619D02*
X52625714Y-71710000D01*
X52720952Y-71662380D01*
X52959047Y-71662380D01*
X53054285Y-71710000D01*
X53101904Y-71757619D01*
X53149523Y-71852857D01*
X53149523Y-71948095D01*
X53101904Y-72090952D01*
X52530476Y-72662380D01*
X53149523Y-72662380D01*
X53768571Y-71662380D02*
X53863809Y-71662380D01*
X53959047Y-71710000D01*
X54006666Y-71757619D01*
X54054285Y-71852857D01*
X54101904Y-72043333D01*
X54101904Y-72281428D01*
X54054285Y-72471904D01*
X54006666Y-72567142D01*
X53959047Y-72614761D01*
X53863809Y-72662380D01*
X53768571Y-72662380D01*
X53673333Y-72614761D01*
X53625714Y-72567142D01*
X53578095Y-72471904D01*
X53530476Y-72281428D01*
X53530476Y-72043333D01*
X53578095Y-71852857D01*
X53625714Y-71757619D01*
X53673333Y-71710000D01*
X53768571Y-71662380D01*
X48975714Y-74562380D02*
X48404285Y-74562380D01*
X48690000Y-74562380D02*
X48690000Y-73562380D01*
X48594761Y-73705238D01*
X48499523Y-73800476D01*
X48404285Y-73848095D01*
%TO.C,J1*%
X42853480Y-25272849D02*
X42853480Y-25987135D01*
X42805861Y-26129992D01*
X42710623Y-26225230D01*
X42567766Y-26272849D01*
X42472528Y-26272849D01*
X43853480Y-26272849D02*
X43282052Y-26272849D01*
X43567766Y-26272849D02*
X43567766Y-25272849D01*
X43472528Y-25415707D01*
X43377290Y-25510945D01*
X43282052Y-25558564D01*
%TO.C,C3*%
X62957142Y-34626666D02*
X63004761Y-34674285D01*
X63052380Y-34817142D01*
X63052380Y-34912380D01*
X63004761Y-35055238D01*
X62909523Y-35150476D01*
X62814285Y-35198095D01*
X62623809Y-35245714D01*
X62480952Y-35245714D01*
X62290476Y-35198095D01*
X62195238Y-35150476D01*
X62100000Y-35055238D01*
X62052380Y-34912380D01*
X62052380Y-34817142D01*
X62100000Y-34674285D01*
X62147619Y-34626666D01*
X62052380Y-34293333D02*
X62052380Y-33674285D01*
X62433333Y-34007619D01*
X62433333Y-33864761D01*
X62480952Y-33769523D01*
X62528571Y-33721904D01*
X62623809Y-33674285D01*
X62861904Y-33674285D01*
X62957142Y-33721904D01*
X63004761Y-33769523D01*
X63052380Y-33864761D01*
X63052380Y-34150476D01*
X63004761Y-34245714D01*
X62957142Y-34293333D01*
%TO.C,C1*%
X51594285Y-33740000D02*
X51622857Y-33768571D01*
X51651428Y-33854285D01*
X51651428Y-33911428D01*
X51622857Y-33997142D01*
X51565714Y-34054285D01*
X51508571Y-34082857D01*
X51394285Y-34111428D01*
X51308571Y-34111428D01*
X51194285Y-34082857D01*
X51137142Y-34054285D01*
X51080000Y-33997142D01*
X51051428Y-33911428D01*
X51051428Y-33854285D01*
X51080000Y-33768571D01*
X51108571Y-33740000D01*
X51651428Y-33168571D02*
X51651428Y-33511428D01*
X51651428Y-33340000D02*
X51051428Y-33340000D01*
X51137142Y-33397142D01*
X51194285Y-33454285D01*
X51222857Y-33511428D01*
%TO.C,C7*%
X92713333Y-54587142D02*
X92665714Y-54634761D01*
X92522857Y-54682380D01*
X92427619Y-54682380D01*
X92284761Y-54634761D01*
X92189523Y-54539523D01*
X92141904Y-54444285D01*
X92094285Y-54253809D01*
X92094285Y-54110952D01*
X92141904Y-53920476D01*
X92189523Y-53825238D01*
X92284761Y-53730000D01*
X92427619Y-53682380D01*
X92522857Y-53682380D01*
X92665714Y-53730000D01*
X92713333Y-53777619D01*
X93046666Y-53682380D02*
X93713333Y-53682380D01*
X93284761Y-54682380D01*
%TO.C,D9*%
X116672380Y-87238095D02*
X115672380Y-87238095D01*
X115672380Y-87000000D01*
X115720000Y-86857142D01*
X115815238Y-86761904D01*
X115910476Y-86714285D01*
X116100952Y-86666666D01*
X116243809Y-86666666D01*
X116434285Y-86714285D01*
X116529523Y-86761904D01*
X116624761Y-86857142D01*
X116672380Y-87000000D01*
X116672380Y-87238095D01*
X116672380Y-86190476D02*
X116672380Y-86000000D01*
X116624761Y-85904761D01*
X116577142Y-85857142D01*
X116434285Y-85761904D01*
X116243809Y-85714285D01*
X115862857Y-85714285D01*
X115767619Y-85761904D01*
X115720000Y-85809523D01*
X115672380Y-85904761D01*
X115672380Y-86095238D01*
X115720000Y-86190476D01*
X115767619Y-86238095D01*
X115862857Y-86285714D01*
X116100952Y-86285714D01*
X116196190Y-86238095D01*
X116243809Y-86190476D01*
X116291428Y-86095238D01*
X116291428Y-85904761D01*
X116243809Y-85809523D01*
X116196190Y-85761904D01*
X116100952Y-85714285D01*
X116842380Y-91841904D02*
X115842380Y-91841904D01*
X116842380Y-91270476D02*
X116270952Y-91699047D01*
X115842380Y-91270476D02*
X116413809Y-91841904D01*
%TO.C,R5*%
X44872380Y-40026666D02*
X44396190Y-40360000D01*
X44872380Y-40598095D02*
X43872380Y-40598095D01*
X43872380Y-40217142D01*
X43920000Y-40121904D01*
X43967619Y-40074285D01*
X44062857Y-40026666D01*
X44205714Y-40026666D01*
X44300952Y-40074285D01*
X44348571Y-40121904D01*
X44396190Y-40217142D01*
X44396190Y-40598095D01*
X43872380Y-39121904D02*
X43872380Y-39598095D01*
X44348571Y-39645714D01*
X44300952Y-39598095D01*
X44253333Y-39502857D01*
X44253333Y-39264761D01*
X44300952Y-39169523D01*
X44348571Y-39121904D01*
X44443809Y-39074285D01*
X44681904Y-39074285D01*
X44777142Y-39121904D01*
X44824761Y-39169523D01*
X44872380Y-39264761D01*
X44872380Y-39502857D01*
X44824761Y-39598095D01*
X44777142Y-39645714D01*
%TO.C,H2*%
X136848095Y-26072380D02*
X136848095Y-25072380D01*
X136848095Y-25548571D02*
X137419523Y-25548571D01*
X137419523Y-26072380D02*
X137419523Y-25072380D01*
X137848095Y-25167619D02*
X137895714Y-25120000D01*
X137990952Y-25072380D01*
X138229047Y-25072380D01*
X138324285Y-25120000D01*
X138371904Y-25167619D01*
X138419523Y-25262857D01*
X138419523Y-25358095D01*
X138371904Y-25500952D01*
X137800476Y-26072380D01*
X138419523Y-26072380D01*
%TO.C,SW1*%
X123008315Y-32690395D02*
X123151172Y-32738014D01*
X123389268Y-32738014D01*
X123484506Y-32690395D01*
X123532125Y-32642776D01*
X123579744Y-32547538D01*
X123579744Y-32452300D01*
X123532125Y-32357062D01*
X123484506Y-32309443D01*
X123389268Y-32261824D01*
X123198791Y-32214205D01*
X123103553Y-32166586D01*
X123055934Y-32118967D01*
X123008315Y-32023729D01*
X123008315Y-31928491D01*
X123055934Y-31833253D01*
X123103553Y-31785634D01*
X123198791Y-31738014D01*
X123436887Y-31738014D01*
X123579744Y-31785634D01*
X123913077Y-31738014D02*
X124151172Y-32738014D01*
X124341649Y-32023729D01*
X124532125Y-32738014D01*
X124770220Y-31738014D01*
X125674982Y-32738014D02*
X125103553Y-32738014D01*
X125389268Y-32738014D02*
X125389268Y-31738014D01*
X125294029Y-31880872D01*
X125198791Y-31976110D01*
X125103553Y-32023729D01*
%TO.C,C9*%
X97157142Y-43826666D02*
X97204761Y-43874285D01*
X97252380Y-44017142D01*
X97252380Y-44112380D01*
X97204761Y-44255238D01*
X97109523Y-44350476D01*
X97014285Y-44398095D01*
X96823809Y-44445714D01*
X96680952Y-44445714D01*
X96490476Y-44398095D01*
X96395238Y-44350476D01*
X96300000Y-44255238D01*
X96252380Y-44112380D01*
X96252380Y-44017142D01*
X96300000Y-43874285D01*
X96347619Y-43826666D01*
X97252380Y-43350476D02*
X97252380Y-43160000D01*
X97204761Y-43064761D01*
X97157142Y-43017142D01*
X97014285Y-42921904D01*
X96823809Y-42874285D01*
X96442857Y-42874285D01*
X96347619Y-42921904D01*
X96300000Y-42969523D01*
X96252380Y-43064761D01*
X96252380Y-43255238D01*
X96300000Y-43350476D01*
X96347619Y-43398095D01*
X96442857Y-43445714D01*
X96680952Y-43445714D01*
X96776190Y-43398095D01*
X96823809Y-43350476D01*
X96871428Y-43255238D01*
X96871428Y-43064761D01*
X96823809Y-42969523D01*
X96776190Y-42921904D01*
X96680952Y-42874285D01*
%TO.C,D12*%
X135912380Y-88304285D02*
X134912380Y-88304285D01*
X134912380Y-88066190D01*
X134960000Y-87923333D01*
X135055238Y-87828095D01*
X135150476Y-87780476D01*
X135340952Y-87732857D01*
X135483809Y-87732857D01*
X135674285Y-87780476D01*
X135769523Y-87828095D01*
X135864761Y-87923333D01*
X135912380Y-88066190D01*
X135912380Y-88304285D01*
X135912380Y-86780476D02*
X135912380Y-87351904D01*
X135912380Y-87066190D02*
X134912380Y-87066190D01*
X135055238Y-87161428D01*
X135150476Y-87256666D01*
X135198095Y-87351904D01*
X135007619Y-86399523D02*
X134960000Y-86351904D01*
X134912380Y-86256666D01*
X134912380Y-86018571D01*
X134960000Y-85923333D01*
X135007619Y-85875714D01*
X135102857Y-85828095D01*
X135198095Y-85828095D01*
X135340952Y-85875714D01*
X135912380Y-86447142D01*
X135912380Y-85828095D01*
X136082380Y-92431904D02*
X135082380Y-92431904D01*
X136082380Y-91860476D02*
X135510952Y-92289047D01*
X135082380Y-91860476D02*
X135653809Y-92431904D01*
%TO.C,K3*%
X90181904Y-74796380D02*
X90181904Y-73796380D01*
X90753333Y-74796380D02*
X90324761Y-74224952D01*
X90753333Y-73796380D02*
X90181904Y-74367809D01*
X91086666Y-73796380D02*
X91705714Y-73796380D01*
X91372380Y-74177333D01*
X91515238Y-74177333D01*
X91610476Y-74224952D01*
X91658095Y-74272571D01*
X91705714Y-74367809D01*
X91705714Y-74605904D01*
X91658095Y-74701142D01*
X91610476Y-74748761D01*
X91515238Y-74796380D01*
X91229523Y-74796380D01*
X91134285Y-74748761D01*
X91086666Y-74701142D01*
%TO.C,K7*%
X128251904Y-74866380D02*
X128251904Y-73866380D01*
X128823333Y-74866380D02*
X128394761Y-74294952D01*
X128823333Y-73866380D02*
X128251904Y-74437809D01*
X129156666Y-73866380D02*
X129823333Y-73866380D01*
X129394761Y-74866380D01*
%TO.C,C10*%
X82687142Y-51402857D02*
X82734761Y-51450476D01*
X82782380Y-51593333D01*
X82782380Y-51688571D01*
X82734761Y-51831428D01*
X82639523Y-51926666D01*
X82544285Y-51974285D01*
X82353809Y-52021904D01*
X82210952Y-52021904D01*
X82020476Y-51974285D01*
X81925238Y-51926666D01*
X81830000Y-51831428D01*
X81782380Y-51688571D01*
X81782380Y-51593333D01*
X81830000Y-51450476D01*
X81877619Y-51402857D01*
X82782380Y-50450476D02*
X82782380Y-51021904D01*
X82782380Y-50736190D02*
X81782380Y-50736190D01*
X81925238Y-50831428D01*
X82020476Y-50926666D01*
X82068095Y-51021904D01*
X81782380Y-49831428D02*
X81782380Y-49736190D01*
X81830000Y-49640952D01*
X81877619Y-49593333D01*
X81972857Y-49545714D01*
X82163333Y-49498095D01*
X82401428Y-49498095D01*
X82591904Y-49545714D01*
X82687142Y-49593333D01*
X82734761Y-49640952D01*
X82782380Y-49736190D01*
X82782380Y-49831428D01*
X82734761Y-49926666D01*
X82687142Y-49974285D01*
X82591904Y-50021904D01*
X82401428Y-50069523D01*
X82163333Y-50069523D01*
X81972857Y-50021904D01*
X81877619Y-49974285D01*
X81830000Y-49926666D01*
X81782380Y-49831428D01*
%TO.C,H3*%
X139748095Y-94862380D02*
X139748095Y-93862380D01*
X139748095Y-94338571D02*
X140319523Y-94338571D01*
X140319523Y-94862380D02*
X140319523Y-93862380D01*
X140700476Y-93862380D02*
X141319523Y-93862380D01*
X140986190Y-94243333D01*
X141129047Y-94243333D01*
X141224285Y-94290952D01*
X141271904Y-94338571D01*
X141319523Y-94433809D01*
X141319523Y-94671904D01*
X141271904Y-94767142D01*
X141224285Y-94814761D01*
X141129047Y-94862380D01*
X140843333Y-94862380D01*
X140748095Y-94814761D01*
X140700476Y-94767142D01*
%TO.C,R8*%
X48812380Y-36686666D02*
X48336190Y-37020000D01*
X48812380Y-37258095D02*
X47812380Y-37258095D01*
X47812380Y-36877142D01*
X47860000Y-36781904D01*
X47907619Y-36734285D01*
X48002857Y-36686666D01*
X48145714Y-36686666D01*
X48240952Y-36734285D01*
X48288571Y-36781904D01*
X48336190Y-36877142D01*
X48336190Y-37258095D01*
X48240952Y-36115238D02*
X48193333Y-36210476D01*
X48145714Y-36258095D01*
X48050476Y-36305714D01*
X48002857Y-36305714D01*
X47907619Y-36258095D01*
X47860000Y-36210476D01*
X47812380Y-36115238D01*
X47812380Y-35924761D01*
X47860000Y-35829523D01*
X47907619Y-35781904D01*
X48002857Y-35734285D01*
X48050476Y-35734285D01*
X48145714Y-35781904D01*
X48193333Y-35829523D01*
X48240952Y-35924761D01*
X48240952Y-36115238D01*
X48288571Y-36210476D01*
X48336190Y-36258095D01*
X48431428Y-36305714D01*
X48621904Y-36305714D01*
X48717142Y-36258095D01*
X48764761Y-36210476D01*
X48812380Y-36115238D01*
X48812380Y-35924761D01*
X48764761Y-35829523D01*
X48717142Y-35781904D01*
X48621904Y-35734285D01*
X48431428Y-35734285D01*
X48336190Y-35781904D01*
X48288571Y-35829523D01*
X48240952Y-35924761D01*
%TO.C,J2*%
X87032380Y-34163333D02*
X87746666Y-34163333D01*
X87889523Y-34210952D01*
X87984761Y-34306190D01*
X88032380Y-34449047D01*
X88032380Y-34544285D01*
X87127619Y-33734761D02*
X87080000Y-33687142D01*
X87032380Y-33591904D01*
X87032380Y-33353809D01*
X87080000Y-33258571D01*
X87127619Y-33210952D01*
X87222857Y-33163333D01*
X87318095Y-33163333D01*
X87460952Y-33210952D01*
X88032380Y-33782380D01*
X88032380Y-33163333D01*
%TO.C,D19*%
X49832380Y-56084285D02*
X48832380Y-56084285D01*
X48832380Y-55846190D01*
X48880000Y-55703333D01*
X48975238Y-55608095D01*
X49070476Y-55560476D01*
X49260952Y-55512857D01*
X49403809Y-55512857D01*
X49594285Y-55560476D01*
X49689523Y-55608095D01*
X49784761Y-55703333D01*
X49832380Y-55846190D01*
X49832380Y-56084285D01*
X49832380Y-54560476D02*
X49832380Y-55131904D01*
X49832380Y-54846190D02*
X48832380Y-54846190D01*
X48975238Y-54941428D01*
X49070476Y-55036666D01*
X49118095Y-55131904D01*
X49832380Y-54084285D02*
X49832380Y-53893809D01*
X49784761Y-53798571D01*
X49737142Y-53750952D01*
X49594285Y-53655714D01*
X49403809Y-53608095D01*
X49022857Y-53608095D01*
X48927619Y-53655714D01*
X48880000Y-53703333D01*
X48832380Y-53798571D01*
X48832380Y-53989047D01*
X48880000Y-54084285D01*
X48927619Y-54131904D01*
X49022857Y-54179523D01*
X49260952Y-54179523D01*
X49356190Y-54131904D01*
X49403809Y-54084285D01*
X49451428Y-53989047D01*
X49451428Y-53798571D01*
X49403809Y-53703333D01*
X49356190Y-53655714D01*
X49260952Y-53608095D01*
X51732380Y-58734285D02*
X51732380Y-59305714D01*
X51732380Y-59020000D02*
X50732380Y-59020000D01*
X50875238Y-59115238D01*
X50970476Y-59210476D01*
X51018095Y-59305714D01*
%TO.C,Y2*%
X73778796Y-40025060D02*
X74254986Y-40025060D01*
X73254986Y-40358393D02*
X73778796Y-40025060D01*
X73254986Y-39691727D01*
X73350225Y-39406012D02*
X73302606Y-39358393D01*
X73254986Y-39263155D01*
X73254986Y-39025060D01*
X73302606Y-38929822D01*
X73350225Y-38882203D01*
X73445463Y-38834584D01*
X73540701Y-38834584D01*
X73683558Y-38882203D01*
X74254986Y-39453631D01*
X74254986Y-38834584D01*
%TO.C,C2*%
X59700000Y-36816666D02*
X59733333Y-36850000D01*
X59766666Y-36950000D01*
X59766666Y-37016666D01*
X59733333Y-37116666D01*
X59666666Y-37183333D01*
X59600000Y-37216666D01*
X59466666Y-37250000D01*
X59366666Y-37250000D01*
X59233333Y-37216666D01*
X59166666Y-37183333D01*
X59100000Y-37116666D01*
X59066666Y-37016666D01*
X59066666Y-36950000D01*
X59100000Y-36850000D01*
X59133333Y-36816666D01*
X59133333Y-36550000D02*
X59100000Y-36516666D01*
X59066666Y-36450000D01*
X59066666Y-36283333D01*
X59100000Y-36216666D01*
X59133333Y-36183333D01*
X59200000Y-36150000D01*
X59266666Y-36150000D01*
X59366666Y-36183333D01*
X59766666Y-36583333D01*
X59766666Y-36150000D01*
%TO.C,D7*%
X103281904Y-77952380D02*
X103281904Y-76952380D01*
X103520000Y-76952380D01*
X103662857Y-77000000D01*
X103758095Y-77095238D01*
X103805714Y-77190476D01*
X103853333Y-77380952D01*
X103853333Y-77523809D01*
X103805714Y-77714285D01*
X103758095Y-77809523D01*
X103662857Y-77904761D01*
X103520000Y-77952380D01*
X103281904Y-77952380D01*
X104186666Y-76952380D02*
X104853333Y-76952380D01*
X104424761Y-77952380D01*
X106075714Y-78102380D02*
X105504285Y-78102380D01*
X105790000Y-78102380D02*
X105790000Y-77102380D01*
X105694761Y-77245238D01*
X105599523Y-77340476D01*
X105504285Y-77388095D01*
%TO.C,D1*%
X128071904Y-57802380D02*
X128071904Y-56802380D01*
X128310000Y-56802380D01*
X128452857Y-56850000D01*
X128548095Y-56945238D01*
X128595714Y-57040476D01*
X128643333Y-57230952D01*
X128643333Y-57373809D01*
X128595714Y-57564285D01*
X128548095Y-57659523D01*
X128452857Y-57754761D01*
X128310000Y-57802380D01*
X128071904Y-57802380D01*
X129595714Y-57802380D02*
X129024285Y-57802380D01*
X129310000Y-57802380D02*
X129310000Y-56802380D01*
X129214761Y-56945238D01*
X129119523Y-57040476D01*
X129024285Y-57088095D01*
X124945714Y-59702380D02*
X124374285Y-59702380D01*
X124660000Y-59702380D02*
X124660000Y-58702380D01*
X124564761Y-58845238D01*
X124469523Y-58940476D01*
X124374285Y-58988095D01*
%TO.C,C4*%
X76363333Y-41800000D02*
X76330000Y-41833333D01*
X76230000Y-41866666D01*
X76163333Y-41866666D01*
X76063333Y-41833333D01*
X75996666Y-41766666D01*
X75963333Y-41700000D01*
X75930000Y-41566666D01*
X75930000Y-41466666D01*
X75963333Y-41333333D01*
X75996666Y-41266666D01*
X76063333Y-41200000D01*
X76163333Y-41166666D01*
X76230000Y-41166666D01*
X76330000Y-41200000D01*
X76363333Y-41233333D01*
X76963333Y-41400000D02*
X76963333Y-41866666D01*
X76796666Y-41133333D02*
X76630000Y-41633333D01*
X77063333Y-41633333D01*
%TO.C,C13*%
X73549748Y-47906012D02*
X73502129Y-47953631D01*
X73359272Y-48001250D01*
X73264034Y-48001250D01*
X73121177Y-47953631D01*
X73025939Y-47858393D01*
X72978320Y-47763155D01*
X72930701Y-47572679D01*
X72930701Y-47429822D01*
X72978320Y-47239346D01*
X73025939Y-47144108D01*
X73121177Y-47048870D01*
X73264034Y-47001250D01*
X73359272Y-47001250D01*
X73502129Y-47048870D01*
X73549748Y-47096489D01*
X74502129Y-48001250D02*
X73930701Y-48001250D01*
X74216415Y-48001250D02*
X74216415Y-47001250D01*
X74121177Y-47144108D01*
X74025939Y-47239346D01*
X73930701Y-47286965D01*
X74835463Y-47001250D02*
X75454510Y-47001250D01*
X75121177Y-47382203D01*
X75264034Y-47382203D01*
X75359272Y-47429822D01*
X75406891Y-47477441D01*
X75454510Y-47572679D01*
X75454510Y-47810774D01*
X75406891Y-47906012D01*
X75359272Y-47953631D01*
X75264034Y-48001250D01*
X74978320Y-48001250D01*
X74883082Y-47953631D01*
X74835463Y-47906012D01*
%TO.C,C11*%
X81367142Y-51462857D02*
X81414761Y-51510476D01*
X81462380Y-51653333D01*
X81462380Y-51748571D01*
X81414761Y-51891428D01*
X81319523Y-51986666D01*
X81224285Y-52034285D01*
X81033809Y-52081904D01*
X80890952Y-52081904D01*
X80700476Y-52034285D01*
X80605238Y-51986666D01*
X80510000Y-51891428D01*
X80462380Y-51748571D01*
X80462380Y-51653333D01*
X80510000Y-51510476D01*
X80557619Y-51462857D01*
X81462380Y-50510476D02*
X81462380Y-51081904D01*
X81462380Y-50796190D02*
X80462380Y-50796190D01*
X80605238Y-50891428D01*
X80700476Y-50986666D01*
X80748095Y-51081904D01*
X81462380Y-49558095D02*
X81462380Y-50129523D01*
X81462380Y-49843809D02*
X80462380Y-49843809D01*
X80605238Y-49939047D01*
X80700476Y-50034285D01*
X80748095Y-50129523D01*
%TO.C,C5*%
X85556666Y-39835714D02*
X85518571Y-39873809D01*
X85404285Y-39911904D01*
X85328095Y-39911904D01*
X85213809Y-39873809D01*
X85137619Y-39797619D01*
X85099523Y-39721428D01*
X85061428Y-39569047D01*
X85061428Y-39454761D01*
X85099523Y-39302380D01*
X85137619Y-39226190D01*
X85213809Y-39150000D01*
X85328095Y-39111904D01*
X85404285Y-39111904D01*
X85518571Y-39150000D01*
X85556666Y-39188095D01*
X86280476Y-39111904D02*
X85899523Y-39111904D01*
X85861428Y-39492857D01*
X85899523Y-39454761D01*
X85975714Y-39416666D01*
X86166190Y-39416666D01*
X86242380Y-39454761D01*
X86280476Y-39492857D01*
X86318571Y-39569047D01*
X86318571Y-39759523D01*
X86280476Y-39835714D01*
X86242380Y-39873809D01*
X86166190Y-39911904D01*
X85975714Y-39911904D01*
X85899523Y-39873809D01*
X85861428Y-39835714D01*
%TO.C,D10*%
X83085714Y-77992380D02*
X83085714Y-76992380D01*
X83323809Y-76992380D01*
X83466666Y-77040000D01*
X83561904Y-77135238D01*
X83609523Y-77230476D01*
X83657142Y-77420952D01*
X83657142Y-77563809D01*
X83609523Y-77754285D01*
X83561904Y-77849523D01*
X83466666Y-77944761D01*
X83323809Y-77992380D01*
X83085714Y-77992380D01*
X84609523Y-77992380D02*
X84038095Y-77992380D01*
X84323809Y-77992380D02*
X84323809Y-76992380D01*
X84228571Y-77135238D01*
X84133333Y-77230476D01*
X84038095Y-77278095D01*
X85228571Y-76992380D02*
X85323809Y-76992380D01*
X85419047Y-77040000D01*
X85466666Y-77087619D01*
X85514285Y-77182857D01*
X85561904Y-77373333D01*
X85561904Y-77611428D01*
X85514285Y-77801904D01*
X85466666Y-77897142D01*
X85419047Y-77944761D01*
X85323809Y-77992380D01*
X85228571Y-77992380D01*
X85133333Y-77944761D01*
X85085714Y-77897142D01*
X85038095Y-77801904D01*
X84990476Y-77611428D01*
X84990476Y-77373333D01*
X85038095Y-77182857D01*
X85085714Y-77087619D01*
X85133333Y-77040000D01*
X85228571Y-76992380D01*
X86965714Y-78262380D02*
X86394285Y-78262380D01*
X86680000Y-78262380D02*
X86680000Y-77262380D01*
X86584761Y-77405238D01*
X86489523Y-77500476D01*
X86394285Y-77548095D01*
%TO.C,D18*%
X51835714Y-41482380D02*
X51835714Y-40482380D01*
X52073809Y-40482380D01*
X52216666Y-40530000D01*
X52311904Y-40625238D01*
X52359523Y-40720476D01*
X52407142Y-40910952D01*
X52407142Y-41053809D01*
X52359523Y-41244285D01*
X52311904Y-41339523D01*
X52216666Y-41434761D01*
X52073809Y-41482380D01*
X51835714Y-41482380D01*
X53359523Y-41482380D02*
X52788095Y-41482380D01*
X53073809Y-41482380D02*
X53073809Y-40482380D01*
X52978571Y-40625238D01*
X52883333Y-40720476D01*
X52788095Y-40768095D01*
X53930952Y-40910952D02*
X53835714Y-40863333D01*
X53788095Y-40815714D01*
X53740476Y-40720476D01*
X53740476Y-40672857D01*
X53788095Y-40577619D01*
X53835714Y-40530000D01*
X53930952Y-40482380D01*
X54121428Y-40482380D01*
X54216666Y-40530000D01*
X54264285Y-40577619D01*
X54311904Y-40672857D01*
X54311904Y-40720476D01*
X54264285Y-40815714D01*
X54216666Y-40863333D01*
X54121428Y-40910952D01*
X53930952Y-40910952D01*
X53835714Y-40958571D01*
X53788095Y-41006190D01*
X53740476Y-41101428D01*
X53740476Y-41291904D01*
X53788095Y-41387142D01*
X53835714Y-41434761D01*
X53930952Y-41482380D01*
X54121428Y-41482380D01*
X54216666Y-41434761D01*
X54264285Y-41387142D01*
X54311904Y-41291904D01*
X54311904Y-41101428D01*
X54264285Y-41006190D01*
X54216666Y-40958571D01*
X54121428Y-40910952D01*
X50645714Y-37522380D02*
X50074285Y-37522380D01*
X50360000Y-37522380D02*
X50360000Y-36522380D01*
X50264761Y-36665238D01*
X50169523Y-36760476D01*
X50074285Y-36808095D01*
%TO.C,D3*%
X78582380Y-87218095D02*
X77582380Y-87218095D01*
X77582380Y-86980000D01*
X77630000Y-86837142D01*
X77725238Y-86741904D01*
X77820476Y-86694285D01*
X78010952Y-86646666D01*
X78153809Y-86646666D01*
X78344285Y-86694285D01*
X78439523Y-86741904D01*
X78534761Y-86837142D01*
X78582380Y-86980000D01*
X78582380Y-87218095D01*
X77582380Y-86313333D02*
X77582380Y-85694285D01*
X77963333Y-86027619D01*
X77963333Y-85884761D01*
X78010952Y-85789523D01*
X78058571Y-85741904D01*
X78153809Y-85694285D01*
X78391904Y-85694285D01*
X78487142Y-85741904D01*
X78534761Y-85789523D01*
X78582380Y-85884761D01*
X78582380Y-86170476D01*
X78534761Y-86265714D01*
X78487142Y-86313333D01*
X78752380Y-91821904D02*
X77752380Y-91821904D01*
X78752380Y-91250476D02*
X78180952Y-91679047D01*
X77752380Y-91250476D02*
X78323809Y-91821904D01*
%TO.C,D15*%
X82125714Y-58502380D02*
X82125714Y-57502380D01*
X82363809Y-57502380D01*
X82506666Y-57550000D01*
X82601904Y-57645238D01*
X82649523Y-57740476D01*
X82697142Y-57930952D01*
X82697142Y-58073809D01*
X82649523Y-58264285D01*
X82601904Y-58359523D01*
X82506666Y-58454761D01*
X82363809Y-58502380D01*
X82125714Y-58502380D01*
X83649523Y-58502380D02*
X83078095Y-58502380D01*
X83363809Y-58502380D02*
X83363809Y-57502380D01*
X83268571Y-57645238D01*
X83173333Y-57740476D01*
X83078095Y-57788095D01*
X84554285Y-57502380D02*
X84078095Y-57502380D01*
X84030476Y-57978571D01*
X84078095Y-57930952D01*
X84173333Y-57883333D01*
X84411428Y-57883333D01*
X84506666Y-57930952D01*
X84554285Y-57978571D01*
X84601904Y-58073809D01*
X84601904Y-58311904D01*
X84554285Y-58407142D01*
X84506666Y-58454761D01*
X84411428Y-58502380D01*
X84173333Y-58502380D01*
X84078095Y-58454761D01*
X84030476Y-58407142D01*
X87095714Y-58512380D02*
X86524285Y-58512380D01*
X86810000Y-58512380D02*
X86810000Y-57512380D01*
X86714761Y-57655238D01*
X86619523Y-57750476D01*
X86524285Y-57798095D01*
%TO.C,C8*%
X83967142Y-50456666D02*
X84014761Y-50504285D01*
X84062380Y-50647142D01*
X84062380Y-50742380D01*
X84014761Y-50885238D01*
X83919523Y-50980476D01*
X83824285Y-51028095D01*
X83633809Y-51075714D01*
X83490952Y-51075714D01*
X83300476Y-51028095D01*
X83205238Y-50980476D01*
X83110000Y-50885238D01*
X83062380Y-50742380D01*
X83062380Y-50647142D01*
X83110000Y-50504285D01*
X83157619Y-50456666D01*
X83490952Y-49885238D02*
X83443333Y-49980476D01*
X83395714Y-50028095D01*
X83300476Y-50075714D01*
X83252857Y-50075714D01*
X83157619Y-50028095D01*
X83110000Y-49980476D01*
X83062380Y-49885238D01*
X83062380Y-49694761D01*
X83110000Y-49599523D01*
X83157619Y-49551904D01*
X83252857Y-49504285D01*
X83300476Y-49504285D01*
X83395714Y-49551904D01*
X83443333Y-49599523D01*
X83490952Y-49694761D01*
X83490952Y-49885238D01*
X83538571Y-49980476D01*
X83586190Y-50028095D01*
X83681428Y-50075714D01*
X83871904Y-50075714D01*
X83967142Y-50028095D01*
X84014761Y-49980476D01*
X84062380Y-49885238D01*
X84062380Y-49694761D01*
X84014761Y-49599523D01*
X83967142Y-49551904D01*
X83871904Y-49504285D01*
X83681428Y-49504285D01*
X83586190Y-49551904D01*
X83538571Y-49599523D01*
X83490952Y-49694761D01*
%TO.C,D8*%
X116772380Y-68228095D02*
X115772380Y-68228095D01*
X115772380Y-67990000D01*
X115820000Y-67847142D01*
X115915238Y-67751904D01*
X116010476Y-67704285D01*
X116200952Y-67656666D01*
X116343809Y-67656666D01*
X116534285Y-67704285D01*
X116629523Y-67751904D01*
X116724761Y-67847142D01*
X116772380Y-67990000D01*
X116772380Y-68228095D01*
X116200952Y-67085238D02*
X116153333Y-67180476D01*
X116105714Y-67228095D01*
X116010476Y-67275714D01*
X115962857Y-67275714D01*
X115867619Y-67228095D01*
X115820000Y-67180476D01*
X115772380Y-67085238D01*
X115772380Y-66894761D01*
X115820000Y-66799523D01*
X115867619Y-66751904D01*
X115962857Y-66704285D01*
X116010476Y-66704285D01*
X116105714Y-66751904D01*
X116153333Y-66799523D01*
X116200952Y-66894761D01*
X116200952Y-67085238D01*
X116248571Y-67180476D01*
X116296190Y-67228095D01*
X116391428Y-67275714D01*
X116581904Y-67275714D01*
X116677142Y-67228095D01*
X116724761Y-67180476D01*
X116772380Y-67085238D01*
X116772380Y-66894761D01*
X116724761Y-66799523D01*
X116677142Y-66751904D01*
X116581904Y-66704285D01*
X116391428Y-66704285D01*
X116296190Y-66751904D01*
X116248571Y-66799523D01*
X116200952Y-66894761D01*
X116942380Y-72831904D02*
X115942380Y-72831904D01*
X116942380Y-72260476D02*
X116370952Y-72689047D01*
X115942380Y-72260476D02*
X116513809Y-72831904D01*
%TO.C,J3*%
X37002380Y-37113333D02*
X37716666Y-37113333D01*
X37859523Y-37160952D01*
X37954761Y-37256190D01*
X38002380Y-37399047D01*
X38002380Y-37494285D01*
X37002380Y-36732380D02*
X37002380Y-36113333D01*
X37383333Y-36446666D01*
X37383333Y-36303809D01*
X37430952Y-36208571D01*
X37478571Y-36160952D01*
X37573809Y-36113333D01*
X37811904Y-36113333D01*
X37907142Y-36160952D01*
X37954761Y-36208571D01*
X38002380Y-36303809D01*
X38002380Y-36589523D01*
X37954761Y-36684761D01*
X37907142Y-36732380D01*
%TO.C,H1*%
X32808095Y-26102380D02*
X32808095Y-25102380D01*
X32808095Y-25578571D02*
X33379523Y-25578571D01*
X33379523Y-26102380D02*
X33379523Y-25102380D01*
X34379523Y-26102380D02*
X33808095Y-26102380D01*
X34093809Y-26102380D02*
X34093809Y-25102380D01*
X33998571Y-25245238D01*
X33903333Y-25340476D01*
X33808095Y-25388095D01*
%TO.C,K8*%
X128181904Y-93916380D02*
X128181904Y-92916380D01*
X128753333Y-93916380D02*
X128324761Y-93344952D01*
X128753333Y-92916380D02*
X128181904Y-93487809D01*
X129324761Y-93344952D02*
X129229523Y-93297333D01*
X129181904Y-93249714D01*
X129134285Y-93154476D01*
X129134285Y-93106857D01*
X129181904Y-93011619D01*
X129229523Y-92964000D01*
X129324761Y-92916380D01*
X129515238Y-92916380D01*
X129610476Y-92964000D01*
X129658095Y-93011619D01*
X129705714Y-93106857D01*
X129705714Y-93154476D01*
X129658095Y-93249714D01*
X129610476Y-93297333D01*
X129515238Y-93344952D01*
X129324761Y-93344952D01*
X129229523Y-93392571D01*
X129181904Y-93440190D01*
X129134285Y-93535428D01*
X129134285Y-93725904D01*
X129181904Y-93821142D01*
X129229523Y-93868761D01*
X129324761Y-93916380D01*
X129515238Y-93916380D01*
X129610476Y-93868761D01*
X129658095Y-93821142D01*
X129705714Y-93725904D01*
X129705714Y-93535428D01*
X129658095Y-93440190D01*
X129610476Y-93392571D01*
X129515238Y-93344952D01*
%TO.C,C12*%
X73539748Y-52466012D02*
X73492129Y-52513631D01*
X73349272Y-52561250D01*
X73254034Y-52561250D01*
X73111177Y-52513631D01*
X73015939Y-52418393D01*
X72968320Y-52323155D01*
X72920701Y-52132679D01*
X72920701Y-51989822D01*
X72968320Y-51799346D01*
X73015939Y-51704108D01*
X73111177Y-51608870D01*
X73254034Y-51561250D01*
X73349272Y-51561250D01*
X73492129Y-51608870D01*
X73539748Y-51656489D01*
X74492129Y-52561250D02*
X73920701Y-52561250D01*
X74206415Y-52561250D02*
X74206415Y-51561250D01*
X74111177Y-51704108D01*
X74015939Y-51799346D01*
X73920701Y-51846965D01*
X74873082Y-51656489D02*
X74920701Y-51608870D01*
X75015939Y-51561250D01*
X75254034Y-51561250D01*
X75349272Y-51608870D01*
X75396891Y-51656489D01*
X75444510Y-51751727D01*
X75444510Y-51846965D01*
X75396891Y-51989822D01*
X74825463Y-52561250D01*
X75444510Y-52561250D01*
%TO.C,D11*%
X135952380Y-71784285D02*
X134952380Y-71784285D01*
X134952380Y-71546190D01*
X135000000Y-71403333D01*
X135095238Y-71308095D01*
X135190476Y-71260476D01*
X135380952Y-71212857D01*
X135523809Y-71212857D01*
X135714285Y-71260476D01*
X135809523Y-71308095D01*
X135904761Y-71403333D01*
X135952380Y-71546190D01*
X135952380Y-71784285D01*
X135952380Y-70260476D02*
X135952380Y-70831904D01*
X135952380Y-70546190D02*
X134952380Y-70546190D01*
X135095238Y-70641428D01*
X135190476Y-70736666D01*
X135238095Y-70831904D01*
X135952380Y-69308095D02*
X135952380Y-69879523D01*
X135952380Y-69593809D02*
X134952380Y-69593809D01*
X135095238Y-69689047D01*
X135190476Y-69784285D01*
X135238095Y-69879523D01*
X136122380Y-75911904D02*
X135122380Y-75911904D01*
X136122380Y-75340476D02*
X135550952Y-75769047D01*
X135122380Y-75340476D02*
X135693809Y-75911904D01*
%TO.C,D6*%
X97702380Y-87228095D02*
X96702380Y-87228095D01*
X96702380Y-86990000D01*
X96750000Y-86847142D01*
X96845238Y-86751904D01*
X96940476Y-86704285D01*
X97130952Y-86656666D01*
X97273809Y-86656666D01*
X97464285Y-86704285D01*
X97559523Y-86751904D01*
X97654761Y-86847142D01*
X97702380Y-86990000D01*
X97702380Y-87228095D01*
X96702380Y-85799523D02*
X96702380Y-85990000D01*
X96750000Y-86085238D01*
X96797619Y-86132857D01*
X96940476Y-86228095D01*
X97130952Y-86275714D01*
X97511904Y-86275714D01*
X97607142Y-86228095D01*
X97654761Y-86180476D01*
X97702380Y-86085238D01*
X97702380Y-85894761D01*
X97654761Y-85799523D01*
X97607142Y-85751904D01*
X97511904Y-85704285D01*
X97273809Y-85704285D01*
X97178571Y-85751904D01*
X97130952Y-85799523D01*
X97083333Y-85894761D01*
X97083333Y-86085238D01*
X97130952Y-86180476D01*
X97178571Y-86228095D01*
X97273809Y-86275714D01*
X97872380Y-91831904D02*
X96872380Y-91831904D01*
X97872380Y-91260476D02*
X97300952Y-91689047D01*
X96872380Y-91260476D02*
X97443809Y-91831904D01*
%TO.C,D16*%
X102205714Y-58662380D02*
X102205714Y-57662380D01*
X102443809Y-57662380D01*
X102586666Y-57710000D01*
X102681904Y-57805238D01*
X102729523Y-57900476D01*
X102777142Y-58090952D01*
X102777142Y-58233809D01*
X102729523Y-58424285D01*
X102681904Y-58519523D01*
X102586666Y-58614761D01*
X102443809Y-58662380D01*
X102205714Y-58662380D01*
X103729523Y-58662380D02*
X103158095Y-58662380D01*
X103443809Y-58662380D02*
X103443809Y-57662380D01*
X103348571Y-57805238D01*
X103253333Y-57900476D01*
X103158095Y-57948095D01*
X104586666Y-57662380D02*
X104396190Y-57662380D01*
X104300952Y-57710000D01*
X104253333Y-57757619D01*
X104158095Y-57900476D01*
X104110476Y-58090952D01*
X104110476Y-58471904D01*
X104158095Y-58567142D01*
X104205714Y-58614761D01*
X104300952Y-58662380D01*
X104491428Y-58662380D01*
X104586666Y-58614761D01*
X104634285Y-58567142D01*
X104681904Y-58471904D01*
X104681904Y-58233809D01*
X104634285Y-58138571D01*
X104586666Y-58090952D01*
X104491428Y-58043333D01*
X104300952Y-58043333D01*
X104205714Y-58090952D01*
X104158095Y-58138571D01*
X104110476Y-58233809D01*
X106045714Y-58952380D02*
X105474285Y-58952380D01*
X105760000Y-58952380D02*
X105760000Y-57952380D01*
X105664761Y-58095238D01*
X105569523Y-58190476D01*
X105474285Y-58238095D01*
%TO.C,R7*%
X58141428Y-37810000D02*
X57855714Y-38010000D01*
X58141428Y-38152857D02*
X57541428Y-38152857D01*
X57541428Y-37924285D01*
X57570000Y-37867142D01*
X57598571Y-37838571D01*
X57655714Y-37810000D01*
X57741428Y-37810000D01*
X57798571Y-37838571D01*
X57827142Y-37867142D01*
X57855714Y-37924285D01*
X57855714Y-38152857D01*
X57541428Y-37610000D02*
X57541428Y-37210000D01*
X58141428Y-37467142D01*
%TO.C,U1*%
X57408095Y-23972380D02*
X57408095Y-24781904D01*
X57455714Y-24877142D01*
X57503333Y-24924761D01*
X57598571Y-24972380D01*
X57789047Y-24972380D01*
X57884285Y-24924761D01*
X57931904Y-24877142D01*
X57979523Y-24781904D01*
X57979523Y-23972380D01*
X58979523Y-24972380D02*
X58408095Y-24972380D01*
X58693809Y-24972380D02*
X58693809Y-23972380D01*
X58598571Y-24115238D01*
X58503333Y-24210476D01*
X58408095Y-24258095D01*
%TO.C,D5*%
X97792380Y-68178095D02*
X96792380Y-68178095D01*
X96792380Y-67940000D01*
X96840000Y-67797142D01*
X96935238Y-67701904D01*
X97030476Y-67654285D01*
X97220952Y-67606666D01*
X97363809Y-67606666D01*
X97554285Y-67654285D01*
X97649523Y-67701904D01*
X97744761Y-67797142D01*
X97792380Y-67940000D01*
X97792380Y-68178095D01*
X96792380Y-66701904D02*
X96792380Y-67178095D01*
X97268571Y-67225714D01*
X97220952Y-67178095D01*
X97173333Y-67082857D01*
X97173333Y-66844761D01*
X97220952Y-66749523D01*
X97268571Y-66701904D01*
X97363809Y-66654285D01*
X97601904Y-66654285D01*
X97697142Y-66701904D01*
X97744761Y-66749523D01*
X97792380Y-66844761D01*
X97792380Y-67082857D01*
X97744761Y-67178095D01*
X97697142Y-67225714D01*
X97962380Y-72781904D02*
X96962380Y-72781904D01*
X97962380Y-72210476D02*
X97390952Y-72639047D01*
X96962380Y-72210476D02*
X97533809Y-72781904D01*
%TO.C,U3*%
X65272380Y-56521904D02*
X66081904Y-56521904D01*
X66177142Y-56474285D01*
X66224761Y-56426666D01*
X66272380Y-56331428D01*
X66272380Y-56140952D01*
X66224761Y-56045714D01*
X66177142Y-55998095D01*
X66081904Y-55950476D01*
X65272380Y-55950476D01*
X65272380Y-55569523D02*
X65272380Y-54950476D01*
X65653333Y-55283809D01*
X65653333Y-55140952D01*
X65700952Y-55045714D01*
X65748571Y-54998095D01*
X65843809Y-54950476D01*
X66081904Y-54950476D01*
X66177142Y-54998095D01*
X66224761Y-55045714D01*
X66272380Y-55140952D01*
X66272380Y-55426666D01*
X66224761Y-55521904D01*
X66177142Y-55569523D01*
D11*
%TO.C,R3*%
X44486190Y-31683333D02*
X44248095Y-31850000D01*
X44486190Y-31969047D02*
X43986190Y-31969047D01*
X43986190Y-31778571D01*
X44010000Y-31730952D01*
X44033809Y-31707142D01*
X44081428Y-31683333D01*
X44152857Y-31683333D01*
X44200476Y-31707142D01*
X44224285Y-31730952D01*
X44248095Y-31778571D01*
X44248095Y-31969047D01*
X43986190Y-31516666D02*
X43986190Y-31207142D01*
X44176666Y-31373809D01*
X44176666Y-31302380D01*
X44200476Y-31254761D01*
X44224285Y-31230952D01*
X44271904Y-31207142D01*
X44390952Y-31207142D01*
X44438571Y-31230952D01*
X44462380Y-31254761D01*
X44486190Y-31302380D01*
X44486190Y-31445238D01*
X44462380Y-31492857D01*
X44438571Y-31516666D01*
D10*
%TO.C,J5*%
X44297380Y-79285333D02*
X45011666Y-79285333D01*
X45154523Y-79332952D01*
X45249761Y-79428190D01*
X45297380Y-79571047D01*
X45297380Y-79666285D01*
X44297380Y-78332952D02*
X44297380Y-78809142D01*
X44773571Y-78856761D01*
X44725952Y-78809142D01*
X44678333Y-78713904D01*
X44678333Y-78475809D01*
X44725952Y-78380571D01*
X44773571Y-78332952D01*
X44868809Y-78285333D01*
X45106904Y-78285333D01*
X45202142Y-78332952D01*
X45249761Y-78380571D01*
X45297380Y-78475809D01*
X45297380Y-78713904D01*
X45249761Y-78809142D01*
X45202142Y-78856761D01*
%TO.C,D17*%
X100395714Y-34682380D02*
X100395714Y-33682380D01*
X100633809Y-33682380D01*
X100776666Y-33730000D01*
X100871904Y-33825238D01*
X100919523Y-33920476D01*
X100967142Y-34110952D01*
X100967142Y-34253809D01*
X100919523Y-34444285D01*
X100871904Y-34539523D01*
X100776666Y-34634761D01*
X100633809Y-34682380D01*
X100395714Y-34682380D01*
X101919523Y-34682380D02*
X101348095Y-34682380D01*
X101633809Y-34682380D02*
X101633809Y-33682380D01*
X101538571Y-33825238D01*
X101443333Y-33920476D01*
X101348095Y-33968095D01*
X102252857Y-33682380D02*
X102919523Y-33682380D01*
X102490952Y-34682380D01*
X99585714Y-34592380D02*
X99014285Y-34592380D01*
X99300000Y-34592380D02*
X99300000Y-33592380D01*
X99204761Y-33735238D01*
X99109523Y-33830476D01*
X99014285Y-33878095D01*
D12*
%TO.C,R4*%
X46562500Y-37537258D02*
X46562500Y-37062742D01*
X45517500Y-37537258D02*
X45517500Y-37062742D01*
%TO.C,D4*%
X125340000Y-76910000D02*
X132640000Y-76910000D01*
X125340000Y-82410000D02*
X132640000Y-82410000D01*
X132640000Y-82410000D02*
X132640000Y-81260000D01*
%TO.C,K2*%
X64785000Y-78595000D02*
X78755000Y-78595000D01*
X78755000Y-92565000D02*
X64785000Y-92565000D01*
X78755000Y-78595000D02*
X78755000Y-92565000D01*
X64785000Y-92565000D02*
X64785000Y-78595000D01*
%TO.C,K4*%
X97885000Y-92575000D02*
X83915000Y-92575000D01*
X97885000Y-78605000D02*
X97885000Y-92575000D01*
X83915000Y-92575000D02*
X83915000Y-78605000D01*
X83915000Y-78605000D02*
X97885000Y-78605000D01*
%TO.C,K5*%
X117015000Y-59525000D02*
X117015000Y-73495000D01*
X103045000Y-59525000D02*
X117015000Y-59525000D01*
X103045000Y-73495000D02*
X103045000Y-59525000D01*
X117015000Y-73495000D02*
X103045000Y-73495000D01*
%TO.C,R6*%
X95987742Y-35357500D02*
X96462258Y-35357500D01*
X95987742Y-36402500D02*
X96462258Y-36402500D01*
%TO.C,U2*%
X86500000Y-50610000D02*
X86050000Y-50610000D01*
X93270000Y-43390000D02*
X93270000Y-43840000D01*
X86050000Y-43390000D02*
X86050000Y-43840000D01*
X92820000Y-50610000D02*
X93270000Y-50610000D01*
X86050000Y-43840000D02*
X84760000Y-43840000D01*
X92820000Y-43390000D02*
X93270000Y-43390000D01*
X86050000Y-50610000D02*
X86050000Y-50160000D01*
X86500000Y-43390000D02*
X86050000Y-43390000D01*
X93270000Y-50610000D02*
X93270000Y-50160000D01*
%TO.C,K1*%
X64775000Y-73435000D02*
X64775000Y-59465000D01*
X64775000Y-59465000D02*
X78745000Y-59465000D01*
X78745000Y-59465000D02*
X78745000Y-73435000D01*
X78745000Y-73435000D02*
X64775000Y-73435000D01*
D13*
%TO.C,S1*%
X145370000Y-48310000D02*
X145370000Y-46810000D01*
X142020000Y-50160000D02*
X143020000Y-50160000D01*
X142020000Y-43460000D02*
X143020000Y-43460000D01*
X143870000Y-49810000D02*
X143870000Y-43810000D01*
X145370000Y-46810000D02*
X143870000Y-46810000D01*
X141170000Y-49810000D02*
X141170000Y-43810000D01*
D14*
X139570000Y-49060000D02*
G75*
G03*
X139570000Y-49060000I-100000J0D01*
G01*
D12*
%TO.C,D14*%
X75280000Y-62990000D02*
X75280000Y-61840000D01*
X67980000Y-62990000D02*
X75280000Y-62990000D01*
X67980000Y-57490000D02*
X75280000Y-57490000D01*
%TO.C,D2*%
X79130000Y-68464000D02*
X80970000Y-68464000D01*
X79130000Y-65760000D02*
X79130000Y-69040000D01*
X79130000Y-69040000D02*
X80970000Y-69040000D01*
X80050000Y-63310000D02*
X80050000Y-65760000D01*
X80970000Y-65760000D02*
X79130000Y-65760000D01*
X79130000Y-68344000D02*
X80970000Y-68344000D01*
X80050000Y-71490000D02*
X80050000Y-69040000D01*
X79130000Y-68584000D02*
X80970000Y-68584000D01*
X80970000Y-69040000D02*
X80970000Y-65760000D01*
%TO.C,C6*%
X78052164Y-49150000D02*
X78267836Y-49150000D01*
X78052164Y-49870000D02*
X78267836Y-49870000D01*
%TO.C,D13*%
X68200000Y-76540000D02*
X75500000Y-76540000D01*
X75500000Y-82040000D02*
X75500000Y-80890000D01*
X68200000Y-82040000D02*
X75500000Y-82040000D01*
%TO.C,R2*%
X46147500Y-34217258D02*
X46147500Y-33742742D01*
X47192500Y-34217258D02*
X47192500Y-33742742D01*
%TO.C,D21*%
X50240000Y-98390000D02*
X50240000Y-91090000D01*
X55740000Y-91090000D02*
X54590000Y-91090000D01*
X55740000Y-98390000D02*
X55740000Y-91090000D01*
%TO.C,C14*%
X74052026Y-54028870D02*
X74333186Y-54028870D01*
X74052026Y-53008870D02*
X74333186Y-53008870D01*
%TO.C,R1*%
X125007742Y-55107500D02*
X125482258Y-55107500D01*
X125007742Y-56152500D02*
X125482258Y-56152500D01*
%TO.C,K6*%
X103005000Y-92485000D02*
X103005000Y-78515000D01*
X103005000Y-78515000D02*
X116975000Y-78515000D01*
X116975000Y-92485000D02*
X103005000Y-92485000D01*
X116975000Y-78515000D02*
X116975000Y-92485000D01*
D13*
%TO.C,J4*%
X42940000Y-69070000D02*
X40093000Y-69070000D01*
X35940000Y-54470000D02*
X36087000Y-54470000D01*
X42940000Y-54470000D02*
X42940000Y-69070000D01*
X40093000Y-54470000D02*
X42940000Y-54470000D01*
X35940000Y-69070000D02*
X35940000Y-54470000D01*
X35940000Y-69070000D02*
X36087000Y-69070000D01*
D14*
X43590000Y-58270000D02*
G75*
G03*
X43590000Y-58270000I-100000J0D01*
G01*
D12*
%TO.C,Y1*%
X79750000Y-42390000D02*
X76150000Y-42390000D01*
X76150000Y-42390000D02*
X76150000Y-48140000D01*
X79750000Y-48140000D02*
X79750000Y-42390000D01*
%TO.C,D20*%
X49190000Y-78460000D02*
X56490000Y-78460000D01*
X49190000Y-72960000D02*
X56490000Y-72960000D01*
X56490000Y-78460000D02*
X56490000Y-77310000D01*
%TO.C,J1*%
X41078153Y-23504484D02*
X41075833Y-24242482D01*
X50011099Y-23525371D02*
X41078153Y-23504484D01*
X40956814Y-26115469D02*
X40956814Y-28035469D01*
X50116814Y-28035469D02*
X50116814Y-26115469D01*
X50011099Y-23525371D02*
X50006457Y-24272071D01*
%TO.C,C3*%
X60660000Y-34319420D02*
X60660000Y-34600580D01*
X61680000Y-34319420D02*
X61680000Y-34600580D01*
%TO.C,C1*%
X49360000Y-32589420D02*
X49360000Y-32870580D01*
X50380000Y-32589420D02*
X50380000Y-32870580D01*
%TO.C,C7*%
X92457836Y-53390000D02*
X92242164Y-53390000D01*
X92457836Y-52670000D02*
X92242164Y-52670000D01*
%TO.C,D9*%
X117220000Y-87444000D02*
X119060000Y-87444000D01*
X118140000Y-82410000D02*
X118140000Y-84860000D01*
X118140000Y-90590000D02*
X118140000Y-88140000D01*
X117220000Y-84860000D02*
X117220000Y-88140000D01*
X117220000Y-87684000D02*
X119060000Y-87684000D01*
X117220000Y-88140000D02*
X119060000Y-88140000D01*
X119060000Y-88140000D02*
X119060000Y-84860000D01*
X117220000Y-87564000D02*
X119060000Y-87564000D01*
X119060000Y-84860000D02*
X117220000Y-84860000D01*
%TO.C,R5*%
X43777500Y-37507258D02*
X43777500Y-37032742D01*
X44822500Y-37507258D02*
X44822500Y-37032742D01*
%TO.C,SW1*%
X121241649Y-35385634D02*
X121841649Y-35385634D01*
X121841649Y-35385634D02*
X121541649Y-35685634D01*
X121541649Y-35685634D02*
X121241649Y-35385634D01*
X129041649Y-38985634D02*
X129041649Y-39985634D01*
X122941649Y-33585634D02*
X122941649Y-45385634D01*
X135141649Y-38185634D02*
X135141649Y-40785634D01*
X127041649Y-33585634D02*
X122941649Y-33585634D01*
X135141649Y-45385634D02*
X131041649Y-45385634D01*
X135141649Y-33585634D02*
X135141649Y-35985634D01*
X131041649Y-33585634D02*
X135141649Y-33585634D01*
X135141649Y-42985634D02*
X135141649Y-45385634D01*
X127041649Y-45385634D02*
X122941649Y-45385634D01*
X128541649Y-39485634D02*
X129541649Y-39485634D01*
X132041649Y-39485634D02*
G75*
G03*
X132041649Y-39485634I-3000000J0D01*
G01*
%TO.C,C9*%
X96030000Y-44122164D02*
X96030000Y-44337836D01*
X95310000Y-44122164D02*
X95310000Y-44337836D01*
%TO.C,D12*%
X136460000Y-88034000D02*
X138300000Y-88034000D01*
X136460000Y-88274000D02*
X138300000Y-88274000D01*
X136460000Y-88154000D02*
X138300000Y-88154000D01*
X137380000Y-83000000D02*
X137380000Y-85450000D01*
X136460000Y-85450000D02*
X136460000Y-88730000D01*
X138300000Y-85450000D02*
X136460000Y-85450000D01*
X137380000Y-91180000D02*
X137380000Y-88730000D01*
X138300000Y-88730000D02*
X138300000Y-85450000D01*
X136460000Y-88730000D02*
X138300000Y-88730000D01*
%TO.C,K3*%
X97905000Y-59485000D02*
X97905000Y-73455000D01*
X83935000Y-73455000D02*
X83935000Y-59485000D01*
X97905000Y-73455000D02*
X83935000Y-73455000D01*
X83935000Y-59485000D02*
X97905000Y-59485000D01*
%TO.C,K7*%
X122005000Y-73525000D02*
X122005000Y-59555000D01*
X135975000Y-59555000D02*
X135975000Y-73525000D01*
X135975000Y-73525000D02*
X122005000Y-73525000D01*
X122005000Y-59555000D02*
X135975000Y-59555000D01*
%TO.C,C10*%
X81710000Y-48517836D02*
X81710000Y-48302164D01*
X82430000Y-48517836D02*
X82430000Y-48302164D01*
%TO.C,R8*%
X48852500Y-33712742D02*
X48852500Y-34187258D01*
X47807500Y-33712742D02*
X47807500Y-34187258D01*
%TO.C,J2*%
X85850000Y-35115000D02*
X85850000Y-37775000D01*
X91050000Y-36445000D02*
X91050000Y-37775000D01*
X88450000Y-35115000D02*
X85850000Y-35115000D01*
X88450000Y-37775000D02*
X85850000Y-37775000D01*
X91050000Y-37775000D02*
X89720000Y-37775000D01*
X88450000Y-35115000D02*
X88450000Y-37775000D01*
%TO.C,D19*%
X55630000Y-58520000D02*
X55630000Y-51220000D01*
X50130000Y-58520000D02*
X50130000Y-51220000D01*
X55630000Y-51220000D02*
X54480000Y-51220000D01*
%TO.C,Y2*%
X75522606Y-46468870D02*
X75522606Y-40718870D01*
X71922606Y-40718870D02*
X71922606Y-46468870D01*
X75522606Y-40718870D02*
X71922606Y-40718870D01*
%TO.C,C2*%
X59830000Y-34289420D02*
X59830000Y-34570580D01*
X58810000Y-34289420D02*
X58810000Y-34570580D01*
%TO.C,D7*%
X106320000Y-82440000D02*
X113620000Y-82440000D01*
X106320000Y-76940000D02*
X113620000Y-76940000D01*
X113620000Y-82440000D02*
X113620000Y-81290000D01*
%TO.C,D1*%
X125160000Y-63600000D02*
X132460000Y-63600000D01*
X125160000Y-58100000D02*
X132460000Y-58100000D01*
X132460000Y-63600000D02*
X132460000Y-62450000D01*
%TO.C,C4*%
X78082164Y-41120000D02*
X78297836Y-41120000D01*
X78082164Y-41840000D02*
X78297836Y-41840000D01*
%TO.C,C13*%
X74042026Y-48548870D02*
X74323186Y-48548870D01*
X74042026Y-49568870D02*
X74323186Y-49568870D01*
%TO.C,C11*%
X80450000Y-48537836D02*
X80450000Y-48322164D01*
X81170000Y-48537836D02*
X81170000Y-48322164D01*
%TO.C,C5*%
X86482164Y-40180000D02*
X86697836Y-40180000D01*
X86482164Y-40900000D02*
X86697836Y-40900000D01*
%TO.C,D10*%
X94480000Y-82970000D02*
X94480000Y-81820000D01*
X87180000Y-77470000D02*
X94480000Y-77470000D01*
X87180000Y-82970000D02*
X94480000Y-82970000D01*
%TO.C,D18*%
X49480000Y-34550000D02*
X56780000Y-34550000D01*
X56780000Y-40050000D02*
X56780000Y-38900000D01*
X49480000Y-40050000D02*
X56780000Y-40050000D01*
%TO.C,D3*%
X79130000Y-87664000D02*
X80970000Y-87664000D01*
X79130000Y-87424000D02*
X80970000Y-87424000D01*
X79130000Y-84840000D02*
X79130000Y-88120000D01*
X80050000Y-82390000D02*
X80050000Y-84840000D01*
X80970000Y-88120000D02*
X80970000Y-84840000D01*
X80050000Y-90570000D02*
X80050000Y-88120000D01*
X79130000Y-87544000D02*
X80970000Y-87544000D01*
X79130000Y-88120000D02*
X80970000Y-88120000D01*
X80970000Y-84840000D02*
X79130000Y-84840000D01*
%TO.C,D15*%
X94650000Y-62850000D02*
X94650000Y-61700000D01*
X87350000Y-62850000D02*
X94650000Y-62850000D01*
X87350000Y-57350000D02*
X94650000Y-57350000D01*
%TO.C,C8*%
X83670000Y-48417836D02*
X83670000Y-48202164D01*
X82950000Y-48417836D02*
X82950000Y-48202164D01*
%TO.C,D8*%
X117320000Y-68434000D02*
X119160000Y-68434000D01*
X117320000Y-68674000D02*
X119160000Y-68674000D01*
X118240000Y-71580000D02*
X118240000Y-69130000D01*
X119160000Y-69130000D02*
X119160000Y-65850000D01*
X117320000Y-69130000D02*
X119160000Y-69130000D01*
X118240000Y-63400000D02*
X118240000Y-65850000D01*
X119160000Y-65850000D02*
X117320000Y-65850000D01*
X117320000Y-68554000D02*
X119160000Y-68554000D01*
X117320000Y-65850000D02*
X117320000Y-69130000D01*
D13*
%TO.C,J3*%
X40153000Y-31890000D02*
X43000000Y-31890000D01*
X43000000Y-46490000D02*
X40153000Y-46490000D01*
X36000000Y-46490000D02*
X36147000Y-46490000D01*
X36000000Y-46490000D02*
X36000000Y-31890000D01*
X43000000Y-31890000D02*
X43000000Y-46490000D01*
X36000000Y-31890000D02*
X36147000Y-31890000D01*
D14*
X43650000Y-35690000D02*
G75*
G03*
X43650000Y-35690000I-100000J0D01*
G01*
D12*
%TO.C,K8*%
X135905000Y-78605000D02*
X135905000Y-92575000D01*
X121935000Y-92575000D02*
X121935000Y-78605000D01*
X121935000Y-78605000D02*
X135905000Y-78605000D01*
X135905000Y-92575000D02*
X121935000Y-92575000D01*
%TO.C,C12*%
X74052026Y-50108870D02*
X74333186Y-50108870D01*
X74052026Y-51128870D02*
X74333186Y-51128870D01*
%TO.C,D11*%
X136500000Y-71514000D02*
X138340000Y-71514000D01*
X136500000Y-71754000D02*
X138340000Y-71754000D01*
X137420000Y-74660000D02*
X137420000Y-72210000D01*
X138340000Y-68930000D02*
X136500000Y-68930000D01*
X136500000Y-72210000D02*
X138340000Y-72210000D01*
X137420000Y-66480000D02*
X137420000Y-68930000D01*
X136500000Y-71634000D02*
X138340000Y-71634000D01*
X136500000Y-68930000D02*
X136500000Y-72210000D01*
X138340000Y-72210000D02*
X138340000Y-68930000D01*
%TO.C,D6*%
X98250000Y-87434000D02*
X100090000Y-87434000D01*
X98250000Y-87554000D02*
X100090000Y-87554000D01*
X98250000Y-84850000D02*
X98250000Y-88130000D01*
X98250000Y-88130000D02*
X100090000Y-88130000D01*
X99170000Y-90580000D02*
X99170000Y-88130000D01*
X98250000Y-87674000D02*
X100090000Y-87674000D01*
X100090000Y-88130000D02*
X100090000Y-84850000D01*
X100090000Y-84850000D02*
X98250000Y-84850000D01*
X99170000Y-82400000D02*
X99170000Y-84850000D01*
%TO.C,D16*%
X106330000Y-63420000D02*
X113630000Y-63420000D01*
X113630000Y-63420000D02*
X113630000Y-62270000D01*
X106330000Y-57920000D02*
X113630000Y-57920000D01*
%TO.C,R7*%
X58190000Y-35916359D02*
X58190000Y-36223641D01*
X57430000Y-35916359D02*
X57430000Y-36223641D01*
%TO.C,U1*%
X54070000Y-25610000D02*
X60080000Y-25610000D01*
X60080000Y-25610000D02*
X60080000Y-26870000D01*
X56320000Y-32430000D02*
X60080000Y-32430000D01*
X60080000Y-32430000D02*
X60080000Y-31170000D01*
%TO.C,D5*%
X98340000Y-68384000D02*
X100180000Y-68384000D01*
X98340000Y-68504000D02*
X100180000Y-68504000D01*
X100180000Y-69080000D02*
X100180000Y-65800000D01*
X98340000Y-65800000D02*
X98340000Y-69080000D01*
X99260000Y-63350000D02*
X99260000Y-65800000D01*
X100180000Y-65800000D02*
X98340000Y-65800000D01*
X98340000Y-68624000D02*
X100180000Y-68624000D01*
X99260000Y-71530000D02*
X99260000Y-69080000D01*
X98340000Y-69080000D02*
X100180000Y-69080000D01*
D15*
%TO.C,U3*%
X67414800Y-44440000D02*
X66348000Y-44440000D01*
D16*
X64239800Y-44440000D02*
X64239800Y-54600000D01*
D15*
X67795800Y-54219000D02*
X67795800Y-44821000D01*
X66348000Y-44440000D02*
X65332000Y-44440000D01*
X65332000Y-44440000D02*
X64265200Y-44440000D01*
X63884200Y-44821000D02*
X63884200Y-54219000D01*
X64265200Y-54600000D02*
X67414800Y-54600000D01*
X67414800Y-54600000D02*
G75*
G03*
X67795800Y-54219000I0J381000D01*
G01*
X64265200Y-44440000D02*
G75*
G03*
X63884200Y-44821000I-1J-380999D01*
G01*
X65332000Y-44440000D02*
G75*
G03*
X66348000Y-44440000I508000J0D01*
G01*
X67795800Y-44821000D02*
G75*
G03*
X67414800Y-44440000I-380999J1D01*
G01*
X63884200Y-54219000D02*
G75*
G03*
X64265200Y-54600000I381000J0D01*
G01*
D12*
%TO.C,R3*%
X44392500Y-33862258D02*
X44392500Y-33387742D01*
X43347500Y-33862258D02*
X43347500Y-33387742D01*
D13*
%TO.C,J5*%
X35960000Y-76980000D02*
X36107000Y-76980000D01*
X42960000Y-76980000D02*
X42960000Y-91580000D01*
X42960000Y-91580000D02*
X40113000Y-91580000D01*
X35960000Y-91580000D02*
X36107000Y-91580000D01*
X40113000Y-76980000D02*
X42960000Y-76980000D01*
X35960000Y-91580000D02*
X35960000Y-76980000D01*
D14*
X43610000Y-80780000D02*
G75*
G03*
X43610000Y-80780000I-100000J0D01*
G01*
D12*
%TO.C,D17*%
X105260000Y-40480000D02*
X105260000Y-39330000D01*
X97960000Y-40480000D02*
X105260000Y-40480000D01*
X97960000Y-34980000D02*
X105260000Y-34980000D01*
%TD*%
M02*
