%TF.GenerationSoftware,KiCad,Pcbnew,(6.0.10)*%
%TF.CreationDate,2023-02-08T22:59:09+05:30*%
%TF.ProjectId,macrokeypad13,6d616372-6f6b-4657-9970-616431332e6b,rev?*%
%TF.SameCoordinates,Original*%
%TF.FileFunction,Paste,Top*%
%TF.FilePolarity,Positive*%
%FSLAX46Y46*%
G04 Gerber Fmt 4.6, Leading zero omitted, Abs format (unit mm)*
G04 Created by KiCad (PCBNEW (6.0.10)) date 2023-02-08 22:59:09*
%MOMM*%
%LPD*%
G01*
G04 APERTURE LIST*
G04 Aperture macros list*
%AMRoundRect*
0 Rectangle with rounded corners*
0 $1 Rounding radius*
0 $2 $3 $4 $5 $6 $7 $8 $9 X,Y pos of 4 corners*
0 Add a 4 corners polygon primitive as box body*
4,1,4,$2,$3,$4,$5,$6,$7,$8,$9,$2,$3,0*
0 Add four circle primitives for the rounded corners*
1,1,$1+$1,$2,$3*
1,1,$1+$1,$4,$5*
1,1,$1+$1,$6,$7*
1,1,$1+$1,$8,$9*
0 Add four rect primitives between the rounded corners*
20,1,$1+$1,$2,$3,$4,$5,0*
20,1,$1+$1,$4,$5,$6,$7,0*
20,1,$1+$1,$6,$7,$8,$9,0*
20,1,$1+$1,$8,$9,$2,$3,0*%
G04 Aperture macros list end*
%ADD10RoundRect,0.200000X0.275000X-0.200000X0.275000X0.200000X-0.275000X0.200000X-0.275000X-0.200000X0*%
%ADD11R,1.500000X0.900000*%
%ADD12RoundRect,0.200000X-0.200000X-0.275000X0.200000X-0.275000X0.200000X0.275000X-0.200000X0.275000X0*%
%ADD13RoundRect,0.075000X-0.662500X-0.075000X0.662500X-0.075000X0.662500X0.075000X-0.662500X0.075000X0*%
%ADD14RoundRect,0.075000X-0.075000X-0.662500X0.075000X-0.662500X0.075000X0.662500X-0.075000X0.662500X0*%
%ADD15R,1.100000X0.700000*%
%ADD16R,0.800000X1.000000*%
%ADD17RoundRect,0.140000X-0.140000X-0.170000X0.140000X-0.170000X0.140000X0.170000X-0.140000X0.170000X0*%
%ADD18R,0.900000X1.500000*%
%ADD19RoundRect,0.225000X-0.225000X-0.250000X0.225000X-0.250000X0.225000X0.250000X-0.225000X0.250000X0*%
%ADD20R,2.400000X2.000000*%
%ADD21R,0.600000X1.240000*%
%ADD22R,0.300000X1.240000*%
%ADD23RoundRect,0.225000X-0.250000X0.225000X-0.250000X-0.225000X0.250000X-0.225000X0.250000X0.225000X0*%
%ADD24RoundRect,0.140000X0.140000X0.170000X-0.140000X0.170000X-0.140000X-0.170000X0.140000X-0.170000X0*%
%ADD25RoundRect,0.140000X-0.170000X0.140000X-0.170000X-0.140000X0.170000X-0.140000X0.170000X0.140000X0*%
%ADD26RoundRect,0.140000X0.170000X-0.140000X0.170000X0.140000X-0.170000X0.140000X-0.170000X-0.140000X0*%
%ADD27RoundRect,0.200000X-0.275000X0.200000X-0.275000X-0.200000X0.275000X-0.200000X0.275000X0.200000X0*%
%ADD28RoundRect,0.135000X-0.185000X0.135000X-0.185000X-0.135000X0.185000X-0.135000X0.185000X0.135000X0*%
%ADD29R,2.000000X1.500000*%
%ADD30R,2.000000X3.800000*%
%ADD31R,2.032000X0.660400*%
G04 APERTURE END LIST*
D10*
%TO.C,R4*%
X46040000Y-38125000D03*
X46040000Y-36475000D03*
%TD*%
D11*
%TO.C,D4*%
X126540000Y-78010000D03*
X126540000Y-81310000D03*
X131440000Y-81310000D03*
X131440000Y-78010000D03*
%TD*%
D12*
%TO.C,R6*%
X95400000Y-35880000D03*
X97050000Y-35880000D03*
%TD*%
D13*
%TO.C,U2*%
X85497500Y-44250000D03*
X85497500Y-44750000D03*
X85497500Y-45250000D03*
X85497500Y-45750000D03*
X85497500Y-46250000D03*
X85497500Y-46750000D03*
X85497500Y-47250000D03*
X85497500Y-47750000D03*
X85497500Y-48250000D03*
X85497500Y-48750000D03*
X85497500Y-49250000D03*
X85497500Y-49750000D03*
D14*
X86910000Y-51162500D03*
X87410000Y-51162500D03*
X87910000Y-51162500D03*
X88410000Y-51162500D03*
X88910000Y-51162500D03*
X89410000Y-51162500D03*
X89910000Y-51162500D03*
X90410000Y-51162500D03*
X90910000Y-51162500D03*
X91410000Y-51162500D03*
X91910000Y-51162500D03*
X92410000Y-51162500D03*
D13*
X93822500Y-49750000D03*
X93822500Y-49250000D03*
X93822500Y-48750000D03*
X93822500Y-48250000D03*
X93822500Y-47750000D03*
X93822500Y-47250000D03*
X93822500Y-46750000D03*
X93822500Y-46250000D03*
X93822500Y-45750000D03*
X93822500Y-45250000D03*
X93822500Y-44750000D03*
X93822500Y-44250000D03*
D14*
X92410000Y-42837500D03*
X91910000Y-42837500D03*
X91410000Y-42837500D03*
X90910000Y-42837500D03*
X90410000Y-42837500D03*
X89910000Y-42837500D03*
X89410000Y-42837500D03*
X88910000Y-42837500D03*
X88410000Y-42837500D03*
X87910000Y-42837500D03*
X87410000Y-42837500D03*
X86910000Y-42837500D03*
%TD*%
D15*
%TO.C,S1*%
X140470000Y-49060000D03*
X140470000Y-46060000D03*
X140470000Y-44560000D03*
D16*
X141370000Y-50560000D03*
X141370000Y-43060000D03*
X143670000Y-50560000D03*
X143670000Y-43060000D03*
%TD*%
D11*
%TO.C,D14*%
X69180000Y-58590000D03*
X69180000Y-61890000D03*
X74080000Y-61890000D03*
X74080000Y-58590000D03*
%TD*%
D17*
%TO.C,C6*%
X77680000Y-49510000D03*
X78640000Y-49510000D03*
%TD*%
D11*
%TO.C,D13*%
X69400000Y-77640000D03*
X69400000Y-80940000D03*
X74300000Y-80940000D03*
X74300000Y-77640000D03*
%TD*%
D10*
%TO.C,R2*%
X46670000Y-34805000D03*
X46670000Y-33155000D03*
%TD*%
D18*
%TO.C,D21*%
X51340000Y-97190000D03*
X54640000Y-97190000D03*
X54640000Y-92290000D03*
X51340000Y-92290000D03*
%TD*%
D19*
%TO.C,C14*%
X73417606Y-53518870D03*
X74967606Y-53518870D03*
%TD*%
D12*
%TO.C,R1*%
X124420000Y-55630000D03*
X126070000Y-55630000D03*
%TD*%
D20*
%TO.C,Y1*%
X77950000Y-43590000D03*
X77950000Y-47290000D03*
%TD*%
D11*
%TO.C,D20*%
X50390000Y-74060000D03*
X50390000Y-77360000D03*
X55290000Y-77360000D03*
X55290000Y-74060000D03*
%TD*%
D21*
%TO.C,J1*%
X48736814Y-29910469D03*
X47936814Y-29910469D03*
D22*
X46786814Y-29910469D03*
X45786814Y-29910469D03*
X45286814Y-29910469D03*
X44286814Y-29910469D03*
D21*
X43136814Y-29910469D03*
X42336814Y-29910469D03*
X42336814Y-29910469D03*
X43136814Y-29910469D03*
D22*
X43786814Y-29910469D03*
X44786814Y-29910469D03*
X46286814Y-29910469D03*
X47286814Y-29910469D03*
D21*
X47936814Y-29910469D03*
X48736814Y-29910469D03*
%TD*%
D23*
%TO.C,C3*%
X61170000Y-33685000D03*
X61170000Y-35235000D03*
%TD*%
%TO.C,C1*%
X49870000Y-31955000D03*
X49870000Y-33505000D03*
%TD*%
D24*
%TO.C,C7*%
X92830000Y-53030000D03*
X91870000Y-53030000D03*
%TD*%
D10*
%TO.C,R5*%
X44300000Y-38095000D03*
X44300000Y-36445000D03*
%TD*%
D25*
%TO.C,C9*%
X95670000Y-43750000D03*
X95670000Y-44710000D03*
%TD*%
D26*
%TO.C,C10*%
X82070000Y-48890000D03*
X82070000Y-47930000D03*
%TD*%
D27*
%TO.C,R8*%
X48330000Y-33125000D03*
X48330000Y-34775000D03*
%TD*%
D18*
%TO.C,D19*%
X51230000Y-57320000D03*
X54530000Y-57320000D03*
X54530000Y-52420000D03*
X51230000Y-52420000D03*
%TD*%
D20*
%TO.C,Y2*%
X73722606Y-41918870D03*
X73722606Y-45618870D03*
%TD*%
D23*
%TO.C,C2*%
X59320000Y-33655000D03*
X59320000Y-35205000D03*
%TD*%
D11*
%TO.C,D7*%
X107520000Y-78040000D03*
X107520000Y-81340000D03*
X112420000Y-81340000D03*
X112420000Y-78040000D03*
%TD*%
%TO.C,D1*%
X126360000Y-59200000D03*
X126360000Y-62500000D03*
X131260000Y-62500000D03*
X131260000Y-59200000D03*
%TD*%
D17*
%TO.C,C4*%
X77710000Y-41480000D03*
X78670000Y-41480000D03*
%TD*%
D19*
%TO.C,C13*%
X73407606Y-49058870D03*
X74957606Y-49058870D03*
%TD*%
D26*
%TO.C,C11*%
X80810000Y-48910000D03*
X80810000Y-47950000D03*
%TD*%
D17*
%TO.C,C5*%
X86110000Y-40540000D03*
X87070000Y-40540000D03*
%TD*%
D11*
%TO.C,D10*%
X88380000Y-78570000D03*
X88380000Y-81870000D03*
X93280000Y-81870000D03*
X93280000Y-78570000D03*
%TD*%
%TO.C,D18*%
X50680000Y-35650000D03*
X50680000Y-38950000D03*
X55580000Y-38950000D03*
X55580000Y-35650000D03*
%TD*%
%TO.C,D15*%
X88550000Y-58450000D03*
X88550000Y-61750000D03*
X93450000Y-61750000D03*
X93450000Y-58450000D03*
%TD*%
D26*
%TO.C,C8*%
X83310000Y-48790000D03*
X83310000Y-47830000D03*
%TD*%
D19*
%TO.C,C12*%
X73417606Y-50618870D03*
X74967606Y-50618870D03*
%TD*%
D11*
%TO.C,D16*%
X107530000Y-59020000D03*
X107530000Y-62320000D03*
X112430000Y-62320000D03*
X112430000Y-59020000D03*
%TD*%
D28*
%TO.C,R7*%
X57810000Y-35560000D03*
X57810000Y-36580000D03*
%TD*%
D29*
%TO.C,U1*%
X55020000Y-26720000D03*
X55020000Y-29020000D03*
D30*
X61320000Y-29020000D03*
D29*
X55020000Y-31320000D03*
%TD*%
D31*
%TO.C,U3*%
X62766600Y-45075000D03*
X62766600Y-46345000D03*
X62766600Y-47615000D03*
X62766600Y-48885000D03*
X62766600Y-50155000D03*
X62766600Y-51425000D03*
X62766600Y-52695000D03*
X62766600Y-53965000D03*
X68913400Y-53965000D03*
X68913400Y-52695000D03*
X68913400Y-51425000D03*
X68913400Y-50155000D03*
X68913400Y-48885000D03*
X68913400Y-47615000D03*
X68913400Y-46345000D03*
X68913400Y-45075000D03*
%TD*%
D10*
%TO.C,R3*%
X43870000Y-34450000D03*
X43870000Y-32800000D03*
%TD*%
D11*
%TO.C,D17*%
X99160000Y-36080000D03*
X99160000Y-39380000D03*
X104060000Y-39380000D03*
X104060000Y-36080000D03*
%TD*%
M02*
